<?xml version="1.0" encoding="utf-8"?>
<!-- Generator: Adobe Illustrator 18.0.0, SVG Export Plug-In . SVG Version: 6.00 Build 0)  -->
<!DOCTYPE svg PUBLIC "-//W3C//DTD SVG 1.1//EN" "http://www.w3.org/Graphics/SVG/1.1/DTD/svg11.dtd">
<svg version="1.1" xmlns="http://www.w3.org/2000/svg" xmlns:xlink="http://www.w3.org/1999/xlink" x="0px" y="0px"
	 viewBox="0 0 634.1 561.2" enable-background="new 0 0 634.1 561.2" xml:space="preserve">
<g id="svg2" sodipodi:docname="1.5.svg.2014_02_08_15_43_55.1.svg" inkscape:version="0.48.4 r9939" xmlns:inkscape="http://www.inkscape.org/namespaces/inkscape" xmlns:svg="http://www.w3.org/2000/svg" xmlns:dc="http://purl.org/dc/elements/1.1/" xmlns:rdf="http://www.w3.org/1999/02/22-rdf-syntax-ns#" xmlns:cc="http://creativecommons.org/ns#" xmlns:sodipodi="http://sodipodi.sourceforge.net/DTD/sodipodi-0.dtd">
	
		<path id="path5791" inkscape:connector-curvature="0" sodipodi:nodetypes="cccscccccc" fill="#FFFFFF" stroke="#000000" stroke-width="2" d="
		M1,516.2c0-7.7,2-15.3,5.9-22L279,23C291.1,2,318-5.2,339.1,6.9c6.7,3.9,12.2,9.4,16.1,16.1l272.1,471.2c3.9,6.7,5.9,14.3,5.9,22
		c0,24.3-19.7,44-44,44H45C20.7,560.2,1,540.5,1,516.2L1,516.2z"/>
	<path id="path3001" fill="#FF0000" d="M316.3,10c-11.8,0.3-23.2,6.5-29.6,17.5L14.7,498.7c-9.7,16.8-3.9,38.2,12.8,47.8
		c5.3,3.1,11.4,4.7,17.5,4.7h544.1c6.2,0,12.2-1.6,17.5-4.7c16.8-9.6,22.5-31.1,12.8-47.8L347.4,27.5c-3.1-5.3-7.5-9.7-12.8-12.8
		C328.8,11.4,322.5,9.9,316.3,10z M316.3,70.2c1.9-0.1,3.9,0.3,5.7,1.3c1.5,0.9,2.8,2.1,3.7,3.6l241.6,418.4
		c2.8,4.8,1.1,10.9-3.7,13.6c-1.5,0.9-3.2,1.4-5,1.4H75.5c-5.5,0-10-4.5-10-10c0-1.8,0.5-3.5,1.3-5L308.4,75.2
		C310.1,72.2,313.1,70.5,316.3,70.2z"/>
</g>
<g id="Layer_2" sodipodi:docname="1.5.svg.2014_02_08_15_43_55.1.svg" inkscape:version="0.48.4 r9939" xmlns:inkscape="http://www.inkscape.org/namespaces/inkscape" xmlns:svg="http://www.w3.org/2000/svg" xmlns:dc="http://purl.org/dc/elements/1.1/" xmlns:rdf="http://www.w3.org/1999/02/22-rdf-syntax-ns#" xmlns:cc="http://creativecommons.org/ns#" xmlns:sodipodi="http://sodipodi.sourceforge.net/DTD/sodipodi-0.dtd">
	<g>
		<g>
			<path id="path15" inkscape:connector-curvature="0" d="M429.7,343c-10.3-6.9-24.3-4.5-31.5,5.6c-7,10.2-4.6,24.2,5.6,31.5
				c10.1,7,24.1,4.5,31.5-5.6C442.2,364.3,439.7,350.3,429.7,343z"/>
			<g>
				<path id="path17" inkscape:connector-curvature="0" d="M543.2,476.8c-3.6,3.3-7.7,6-14.6,6.2c-19.3-0.2-16.6-20.4-42.7-20.2
					c-26.1-0.2-23.4,20-42.7,20.2c-19.1-0.2-16.4-20.4-42.7-20.2c-25.9-0.2-23.2,20-42.1,20.2c-19.5-0.2-16.8-20.4-42.7-20.2
					c-11.6-0.2-17.5,3.7-21.9,7.9v-14c6.6-5.7,10.5-12.9,21.9-12.9c18.6,0,16.9,20.2,42.7,20.2c25.2,0,23.6-20.2,42.1-20.2
					c19,0,17.3,20.2,42.7,20.2c25.6,0,23.9-20.2,42.7-20.2c19,0,17.3,20.2,43.3,20.2c2.2,0,4.4-0.2,6.2-0.6l-7.3-13.5
					c-18.7-0.3-16.4-20-42.1-20.2c-26.1,0.2-23.4,20.5-42.7,20.2c-19.1,0.3-16.4-20-42.7-20.2c-25.9,0.2-23.2,20.5-42.1,20.2
					c-19.5,0.3-16.8-20-42.7-20.2c-11.6,0.2-17.5,4.1-21.9,8.4v-14c6.6-5.8,10.5-13,21.9-12.9c18.6-0.1,16.9,20.1,42.7,20.2
					c25.2-0.1,23.6-20.4,42.1-20.2c19-0.1,17.3,20.1,42.7,20.2c25.6-0.1,23.9-20.4,42.7-20.2c14.8-0.1,17,12.2,29.8,17.4l-17.4-29.2
					c-3.1-1.3-7.2-2.1-12.4-2.2c-26.1,0.1-23.4,20.4-42.7,20.2c-19.1,0.1-16.4-20.1-42.7-20.2c-25.9,0.1-23.2,20.4-42.1,20.2
					c-19.5,0.1-16.8-20.1-42.7-20.2c-11.6,0.1-17.5,4-21.9,8.4V290.2h-11.2c7.1-0.4,13.9-3.7,18-10.1c7.3-9.9,4.9-23.9-5.1-30.9
					c-10.4-7.2-24.4-4.7-31.5,5.6c-7.1,10-4.6,24,5.6,30.9c3.7,2.8,8,4.1,12.4,4.5h-83.7L79,497l214.7-1.1v-6.7
					c6.6-5.6,10.5-12.8,21.9-12.9c18.6,0.1,16.9,20.3,42.7,20.2c25.2,0.1,23.6-20.1,42.1-20.2c19,0.1,17.3,20.3,42.7,20.2
					c25.6,0.1,23.9-20.1,42.7-20.2c19,0.1,17.3,20.3,43.3,20.2c10.5,0.1,16.4-3.4,21.4-7.3L543.2,476.8L543.2,476.8z"/>
				<path id="path19" inkscape:connector-curvature="0" d="M435.9,378.4c-0.7-0.6,1.2-1.5,1.7-2.2c8.1-11.5,5.3-27.4-6.2-35.4
					c-11.6-8.1-27.5-5.3-35.4,6.2c-0.7,0.8-1.2,1.5-1.7,2.2L301.6,284c0.5-0.4,1.1-1.2,1.7-1.7c8-11.7,5.2-27.6-6.2-36
					c-11.7-7.8-27.6-5-35.4,6.7c-0.8,0.5-1.2,1.3-1.7,2.2L234.7,234l20.2-29.2c0,0,2.4-5,9.6-1.7c7.4,2.8,11.7,3.6,20.8,1.7
					l39.9-7.9c0,0,18.2-4.6,38.2,9.6l41,28.7c0,0,10.3,5.4,10.1,17.4l-1.1,42.1l47.2,43.8c0,0,9.8,8.2,3.4,17.4
					c-6.6,9.4-13.5,19.1-13.5,19.1S443.8,383.8,435.9,378.4z"/>
				<path id="path21" inkscape:connector-curvature="0" fill="#FFFFFF" d="M423.5,352c-5.4-3.9-12.8-2.6-16.3,2.8
					c-4,5.3-2.7,12.7,2.8,16.3c5.2,3.9,12.6,2.6,16.3-2.8C430.2,363,428.8,355.6,423.5,352z"/>
			</g>
		</g>
		<path id="path23" inkscape:connector-curvature="0" fill="#FFFFFF" d="M289.2,257.6c-5.5-3.6-12.9-2.3-16.9,2.8
			c-3.5,5.6-2.2,13,3.4,16.9c5.1,3.7,12.5,2.4,16.3-2.8C295.8,268.9,294.5,261.5,289.2,257.6L289.2,257.6z"/>
		<path id="path25" inkscape:connector-curvature="0" fill="#FFFFFF" d="M406.1,252l-1.1,37.1l-52.3-36.5l18-25.3L406.1,252
			L406.1,252z"/>
		<path id="path27" inkscape:connector-curvature="0" fill="#FFFFFF" d="M344.3,208.7l-41.6,8.4l45,32l18-25.8L344.3,208.7z"/>
	</g>
</g>
</svg>
