<?xml version="1.0" encoding="utf-8"?>
<!-- Generator: Adobe Illustrator 18.0.0, SVG Export Plug-In . SVG Version: 6.00 Build 0)  -->
<!DOCTYPE svg PUBLIC "-//W3C//DTD SVG 1.1//EN" "http://www.w3.org/Graphics/SVG/1.1/DTD/svg11.dtd">
<svg version="1.1"
	 id="svg2" inkscape:version="0.48.4 r9939" sodipodi:docname="1.10.svg" xmlns:sodipodi="http://sodipodi.sourceforge.net/DTD/sodipodi-0.dtd" xmlns:cc="http://creativecommons.org/ns#" xmlns:rdf="http://www.w3.org/1999/02/22-rdf-syntax-ns#" xmlns:dc="http://purl.org/dc/elements/1.1/" xmlns:inkscape="http://www.inkscape.org/namespaces/inkscape" xmlns:svg="http://www.w3.org/2000/svg"
	 xmlns="http://www.w3.org/2000/svg" xmlns:xlink="http://www.w3.org/1999/xlink" x="0px" y="0px" viewBox="0 0 634.1 561.2"
	 enable-background="new 0 0 634.1 561.2" xml:space="preserve">
<sodipodi:namedview  inkscape:snap-intersection-paths="true" inkscape:snap-bbox-edge-midpoints="true" inkscape:snap-smooth-nodes="true" inkscape:object-nodes="true" inkscape:object-paths="true" inkscape:snap-bbox-midpoints="true" inkscape:bbox-nodes="true" inkscape:window-x="-4" inkscape:current-layer="layer1" inkscape:bbox-paths="true" inkscape:window-maximized="1" inkscape:window-height="1024" inkscape:window-y="-4" inkscape:pageshadow="2" inkscape:document-units="px" inkscape:pageopacity="0.0" inkscape:window-width="1920" inkscape:snap-bbox="true" id="base" inkscape:cx="304.34096" showgrid="false" inkscape:zoom="1" inkscape:cy="314.9513" pagecolor="#ffffff" bordercolor="#666666" borderopacity="1.0">
	</sodipodi:namedview>
<g id="layer1" transform="translate(0,-491.13214)" inkscape:groupmode="layer" inkscape:label="Layer 1">
	<path id="path5720" sodipodi:nodetypes="sccsccsccs" inkscape:connector-curvature="0" fill="#FFFFFF" d="M294.6,497.2
		c21.5-12.4,49-5.1,61.5,16.5l272.1,471.2c12.4,21.5,5.1,49-16.5,61.5c-6.8,3.9-14.6,6-22.5,6l-544.1,0c-7.9,0-15.7-2.1-22.5-6
		C1,1033.9-6.4,1006.4,6,984.9l272.1-471.2C282,506.8,287.7,501.1,294.6,497.2L294.6,497.2z"/>
	<path id="path5722" sodipodi:nodetypes="ccccccccc" inkscape:connector-curvature="0" d="M308.8,743.3
		c38.7,33.6,60.9,82.4,60.9,133.7v114h-52.6V877c0-36-15.6-70.3-42.8-94L224,739.4l34.5-39.7L308.8,743.3z"/>
	
		<path id="path5791" sodipodi:nodetypes="cccscccccc" inkscape:connector-curvature="0" fill="none" stroke="#000000" stroke-width="2" d="
		M633.1,1007.4c0-7.7-2-15.3-5.9-22L355.2,514.1c-12.2-21-39.1-28.3-60.1-16.1c-6.7,3.9-12.2,9.4-16.1,16.1L6.9,985.4
		c-3.9,6.7-5.9,14.3-5.9,22c0,24.3,19.7,44,44,44h544.1C613.4,1051.4,633.1,1031.7,633.1,1007.4L633.1,1007.4z"/>
	<path id="path4410" fill="#FF0000" d="M317.8,501.1c11.8,0.3,23.2,6.5,29.6,17.5l272.1,471.2c9.7,16.7,3.9,38.1-12.8,47.8
		c-5.3,3.1-11.4,4.7-17.5,4.7H45c-6.1,0-12.2-1.6-17.5-4.7c-16.7-9.7-22.5-31.1-12.8-47.8l272.1-471.2c3.1-5.3,7.5-9.7,12.8-12.8
		C305.3,502.5,311.6,501,317.8,501.1z M317.8,561.4c-1.9-0.1-3.9,0.3-5.7,1.3c-1.5,0.9-2.8,2.1-3.7,3.7L66.8,984.8
		c-2.8,4.8-1.1,10.9,3.7,13.7c1.5,0.9,3.2,1.3,5,1.3h483.1c5.5,0,10-4.5,10-10c0-1.8-0.4-3.5-1.3-5L325.7,566.4
		C324,563.4,321,561.6,317.8,561.4z"/>
</g>
</svg>
