<?xml version="1.0" encoding="utf-8"?>
<!-- Generator: Adobe Illustrator 18.0.0, SVG Export Plug-In . SVG Version: 6.00 Build 0)  -->
<!DOCTYPE svg PUBLIC "-//W3C//DTD SVG 1.1//EN" "http://www.w3.org/Graphics/SVG/1.1/DTD/svg11.dtd">
<svg version="1.1"
	 id="svg2" inkscape:version="0.48.4 r9939" sodipodi:docname="1.10.svg" xmlns:sodipodi="http://sodipodi.sourceforge.net/DTD/sodipodi-0.dtd" xmlns:cc="http://creativecommons.org/ns#" xmlns:rdf="http://www.w3.org/1999/02/22-rdf-syntax-ns#" xmlns:dc="http://purl.org/dc/elements/1.1/" xmlns:inkscape="http://www.inkscape.org/namespaces/inkscape" xmlns:svg="http://www.w3.org/2000/svg"
	 xmlns="http://www.w3.org/2000/svg" xmlns:xlink="http://www.w3.org/1999/xlink" x="0px" y="0px" viewBox="0 0 634.1 561.2"
	 enable-background="new 0 0 634.1 561.2" xml:space="preserve">
<sodipodi:namedview  inkscape:snap-intersection-paths="true" inkscape:snap-bbox-edge-midpoints="true" inkscape:snap-smooth-nodes="true" inkscape:object-nodes="true" inkscape:object-paths="true" inkscape:snap-bbox-midpoints="true" inkscape:bbox-nodes="true" inkscape:window-x="-4" inkscape:current-layer="layer1" inkscape:bbox-paths="true" inkscape:window-maximized="1" inkscape:window-height="1024" inkscape:window-y="-4" inkscape:pageshadow="2" inkscape:document-units="px" inkscape:pageopacity="0.0" inkscape:window-width="1920" inkscape:snap-bbox="true" id="base" inkscape:cx="304.34096" showgrid="false" inkscape:zoom="1" inkscape:cy="314.9513" pagecolor="#ffffff" bordercolor="#666666" borderopacity="1.0">
	</sodipodi:namedview>
<path id="path5720" sodipodi:nodetypes="sccsccsccs" inkscape:connector-curvature="0" fill="#FFFFFF" d="M294.6,6
	c21.5-12.4,49-5.1,61.5,16.5l272.1,471.2c12.4,21.5,5.1,49-16.5,61.5c-6.8,3.9-14.6,6-22.5,6l-544.1,0c-7.9,0-15.7-2.1-22.5-6
	C1,542.8-6.4,515.3,6,493.7L278.1,22.5C282,15.7,287.7,10,294.6,6L294.6,6z"/>
<path id="path5791" sodipodi:nodetypes="cccscccccc" inkscape:connector-curvature="0" fill="none" stroke="#000000" stroke-width="2" d="
	M633.1,516.2c0-7.7-2-15.3-5.9-22L355.2,23C343,2,316.1-5.2,295.1,6.9c-6.7,3.9-12.2,9.4-16.1,16.1L6.9,494.2
	C3,500.9,1,508.5,1,516.2c0,24.3,19.7,44,44,44h544.1C613.4,560.2,633.1,540.5,633.1,516.2L633.1,516.2z"/>
<path id="path4410" fill="#FF0000" d="M317.8,10c11.8,0.3,23.2,6.5,29.6,17.5l272.1,471.2c9.7,16.7,3.9,38.1-12.8,47.8
	c-5.3,3.1-11.4,4.7-17.5,4.7H45c-6.1,0-12.2-1.6-17.5-4.7c-16.7-9.7-22.5-31.1-12.8-47.8L286.8,27.5c3.1-5.3,7.5-9.7,12.8-12.8
	C305.3,11.4,311.6,9.9,317.8,10z M317.8,70.2c-1.9-0.1-3.9,0.3-5.7,1.3c-1.5,0.9-2.8,2.1-3.7,3.7L66.8,493.6
	c-2.8,4.8-1.1,10.9,3.7,13.7c1.5,0.9,3.2,1.3,5,1.3h483.1c5.5,0,10-4.5,10-10c0-1.8-0.4-3.5-1.3-5L325.7,75.2
	C324,72.3,321,70.5,317.8,70.2z"/>
<path id="path8497-4" sodipodi:nodetypes="cccccccccc" inkscape:connector-curvature="0" d="M165.5,461.7c11.1,0,21.8-4.3,29.8-11.9
	c33.1-31.5,77-49.1,122.8-49.1c45.8,0,89.7,17.6,122.8,49.1c8,7.6,18.7,11.9,29.8,11.9h50.9V482H114.6v-20.3H165.5z"/>
</svg>
