<?xml version="1.0" encoding="utf-8"?>
<!-- Generator: Adobe Illustrator 18.0.0, SVG Export Plug-In . SVG Version: 6.00 Build 0)  -->
<!DOCTYPE svg PUBLIC "-//W3C//DTD SVG 1.1//EN" "http://www.w3.org/Graphics/SVG/1.1/DTD/svg11.dtd">
<svg version="1.1"
	 id="svg2" inkscape:version="0.48.4 r9939" sodipodi:docname="1.10.svg" xmlns:sodipodi="http://sodipodi.sourceforge.net/DTD/sodipodi-0.dtd" xmlns:cc="http://creativecommons.org/ns#" xmlns:rdf="http://www.w3.org/1999/02/22-rdf-syntax-ns#" xmlns:dc="http://purl.org/dc/elements/1.1/" xmlns:inkscape="http://www.inkscape.org/namespaces/inkscape" xmlns:svg="http://www.w3.org/2000/svg"
	 xmlns="http://www.w3.org/2000/svg" xmlns:xlink="http://www.w3.org/1999/xlink" x="0px" y="0px" viewBox="0 0 634.1 561.2"
	 enable-background="new 0 0 634.1 561.2" xml:space="preserve">
<sodipodi:namedview  inkscape:snap-intersection-paths="true" inkscape:snap-bbox-edge-midpoints="true" inkscape:snap-smooth-nodes="true" inkscape:object-nodes="true" inkscape:object-paths="true" inkscape:snap-bbox-midpoints="true" inkscape:bbox-nodes="true" inkscape:window-x="-4" inkscape:current-layer="layer1" inkscape:bbox-paths="true" inkscape:window-maximized="1" inkscape:window-height="1024" inkscape:window-y="-4" inkscape:pageshadow="2" inkscape:document-units="px" inkscape:pageopacity="0.0" inkscape:window-width="1920" inkscape:snap-bbox="true" id="base" inkscape:cx="304.34096" showgrid="false" inkscape:zoom="1" inkscape:cy="314.9513" pagecolor="#ffffff" bordercolor="#666666" borderopacity="1.0">
	</sodipodi:namedview>
<path id="path5720" sodipodi:nodetypes="sccsccsccs" inkscape:connector-curvature="0" fill="#FFFFFF" d="M294.6,6
	c21.5-12.4,49-5.1,61.5,16.5l272.1,471.2c12.4,21.5,5.1,49-16.5,61.5c-6.8,3.9-14.6,6-22.5,6l-544.1,0c-7.9,0-15.7-2.1-22.5-6
	C1,542.8-6.4,515.3,6,493.7L278.1,22.5C282,15.7,287.7,10,294.6,6L294.6,6z"/>
<path id="path5791" sodipodi:nodetypes="cccscccccc" inkscape:connector-curvature="0" fill="none" stroke="#000000" stroke-width="2" d="
	M633.1,516.2c0-7.7-2-15.3-5.9-22L355.2,23C343,2,316.1-5.2,295.1,6.9c-6.7,3.9-12.2,9.4-16.1,16.1L6.9,494.2
	C3,500.9,1,508.5,1,516.2c0,24.3,19.7,44,44,44h544.1C613.4,560.2,633.1,540.5,633.1,516.2L633.1,516.2z"/>
<path id="path4410" fill="#FF0000" d="M317.8,10c11.8,0.3,23.2,6.5,29.6,17.5l272.1,471.2c9.7,16.7,3.9,38.1-12.8,47.8
	c-5.3,3.1-11.4,4.7-17.5,4.7H45c-6.1,0-12.2-1.6-17.5-4.7c-16.7-9.7-22.5-31.1-12.8-47.8L286.8,27.5c3.1-5.3,7.5-9.7,12.8-12.8
	C305.3,11.4,311.6,9.9,317.8,10z M317.8,70.2c-1.9-0.1-3.9,0.3-5.7,1.3c-1.5,0.9-2.8,2.1-3.7,3.7L66.8,493.6
	c-2.8,4.8-1.1,10.9,3.7,13.7c1.5,0.9,3.2,1.3,5,1.3h483.1c5.5,0,10-4.5,10-10c0-1.8-0.4-3.5-1.3-5L325.7,75.2
	C324,72.3,321,70.5,317.8,70.2z"/>
<path id="path14171" inkscape:connector-curvature="0" d="M313.5,255.7c-3.6-0.4-7,1.5-8.5,4.7l-20.5,43.1c-4.6-0.6-8.7,2.7-9.3,7.3
	l-4.7,38.1c-0.6,4.6,2.7,8.7,7.3,9.3L417,375.3c4.6,0.6,8.7-2.7,9.3-7.3l4.7-38.1c0.6-4.6-2.7-8.7-7.3-9.3l-9.5-46.7
	c-0.7-3.5-3.6-6.2-7.2-6.6L313.5,255.7L313.5,255.7z M314.7,265.9l88.8,10.9c0.7,0.1,1.3,0.6,1.4,1.3l8.3,41.1l-118.3-14.5l18-37.9
	C313.3,266.2,314,265.8,314.7,265.9L314.7,265.9z"/>
<path id="path14173" inkscape:connector-curvature="0" d="M277.9,363.7l-2.2,18.2c-0.9,7.6,4.4,14.4,12,15.4
	c7.6,0.9,14.4-4.4,15.4-12l2.2-18.2L277.9,363.7L277.9,363.7z"/>
<path id="path14175" inkscape:connector-curvature="0" d="M388.2,377.2l-2.2,18.2c-0.9,7.6,4.4,14.4,12,15.4
	c7.6,0.9,14.4-4.4,15.4-12l2.2-18.2L388.2,377.2z"/>
<rect x="147" y="397.4" width="164" height="33.6"/>
<ellipse cx="346.9" cy="424.3" rx="8" ry="8.7"/>
<ellipse cx="372.3" cy="415.7" rx="6.9" ry="7.3"/>
<ellipse cx="375.9" cy="435.8" rx="4.9" ry="5.7"/>
<ellipse cx="404.5" cy="439.5" rx="8.2" ry="7.5"/>
<ellipse cx="418.8" cy="418.6" rx="4.6" ry="4.4"/>
<ellipse cx="352" cy="407.2" rx="5" ry="5.2"/>
<ellipse cx="327.1" cy="403.6" rx="3.5" ry="4.8"/>
<ellipse cx="322.8" cy="433.8" rx="5.7" ry="6.5"/>
</svg>
