<?xml version="1.0" encoding="utf-8"?>
<!-- Generator: Adobe Illustrator 18.0.0, SVG Export Plug-In . SVG Version: 6.00 Build 0)  -->
<!DOCTYPE svg PUBLIC "-//W3C//DTD SVG 1.1//EN" "http://www.w3.org/Graphics/SVG/1.1/DTD/svg11.dtd">
<svg version="1.1" id="Layer_2" xmlns="http://www.w3.org/2000/svg" xmlns:xlink="http://www.w3.org/1999/xlink" x="0px" y="0px"
	 viewBox="57 39.3 877.8 481.7" enable-background="new 57 39.3 877.8 481.7" xml:space="preserve">
<g>
	<path d="M214.3,215.5L214.3,215.5l-5.4,2.7l-0.9-4.2l7.1-3.5h4.6v29.2h-5.4V215.5z"/>
	<path d="M230.1,236.7c0-2.1,1.4-3.6,3.4-3.6c2,0,3.4,1.4,3.4,3.6c0,2-1.4,3.6-3.4,3.6C231.5,240.2,230.1,238.7,230.1,236.7z"/>
	<path d="M241.5,234c1.1,0.7,3.9,1.8,6.7,1.8c4.2,0,5.9-2.4,5.9-4.7c0-3.5-3.2-5-6.6-5h-2.6v-4h2.5c2.6,0,5.8-1.2,5.8-4.1
		c0-2-1.5-3.6-4.7-3.6c-2.4,0-4.8,1-6,1.8l-1.3-4c1.7-1.2,4.9-2.2,8.4-2.2c6,0,9.1,3.3,9.1,7.2c0,3.1-1.8,5.6-5.4,6.8v0.1
		c3.6,0.6,6.4,3.3,6.4,7.3c0,5-4.1,8.9-11.4,8.9c-3.6,0-6.6-1-8.2-2L241.5,234z"/>
	<path d="M283.1,215.1h-11.2l-0.9,5.8c0.7-0.1,1.3-0.1,2.1-0.1c2.6,0,5.1,0.6,7.1,1.9c2.2,1.4,3.8,3.9,3.8,7.4
		c0,5.6-4.6,10.1-11.8,10.1c-3.4,0-6.2-0.9-7.7-1.7l1.1-4.2c1.3,0.7,3.8,1.5,6.4,1.5c3.2,0,6.3-1.8,6.3-5.4c0-3.3-2.5-5.5-8.3-5.5
		c-1.6,0-2.8,0.1-4,0.3l1.9-14.8h15.1V215.1z"/>
	<path d="M289,236.7c0-2.1,1.4-3.6,3.4-3.6c2,0,3.4,1.4,3.4,3.6c0,2-1.4,3.6-3.4,3.6C290.3,240.2,289,238.7,289,236.7z"/>
	<path d="M307.9,215.5L307.9,215.5l-5.4,2.7l-0.9-4.2l7.1-3.5h4.6v29.2h-5.4V215.5z"/>
	<path d="M323.7,236.7c0-2.1,1.4-3.6,3.4-3.6c2,0,3.4,1.4,3.4,3.6c0,2-1.4,3.6-3.4,3.6C325.1,240.2,323.7,238.7,323.7,236.7z"/>
</g>
<g>
	<rect x="67.6" y="40.8" fill="#FFFFFF" stroke="#000000" stroke-width="3" stroke-miterlimit="10" width="400.5" height="139.3"/>
	<rect x="72.8" y="45.8" fill="#FF0000" width="390" height="129.2"/>
	<polygon fill="#FFFFFF" points="423.8,176.8 392.1,176.8 431.2,110.4 392.1,44 423.8,44 462.9,110.4 	"/>
	<polygon fill="#FFFFFF" points="324.7,176.8 293,176.8 332.1,110.4 293,44 324.7,44 363.7,110.4 	"/>
	<polygon fill="#FFFFFF" points="225.6,176.8 193.9,176.8 233,110.4 193.9,44 225.6,44 264.6,110.4 	"/>
	<polygon fill="#FFFFFF" points="126.5,176.8 94.8,176.8 133.9,110.4 94.8,44 126.5,44 165.5,110.4 	"/>
</g>
<g>
	<rect x="539.8" y="40.8" fill="#FFFFFF" stroke="#000000" stroke-width="3" stroke-miterlimit="10" width="204.5" height="139.3"/>
	<rect x="545.1" y="45.8" fill="#FF0000" width="194" height="129.2"/>
	<polygon fill="#FFFFFF" points="700,176.8 668.4,176.8 707.4,110.4 668.4,44 700,44 739.1,110.4 	"/>
	<polygon fill="#FFFFFF" points="604.9,176.8 573.3,176.8 612.3,110.4 573.3,44 604.9,44 644,110.4 	"/>
</g>
<g>
	<rect x="815.8" y="40.8" fill="#FFFFFF" stroke="#000000" stroke-width="3" stroke-miterlimit="10" width="109.5" height="139.3"/>
	<rect x="821.1" y="45.8" fill="#FF0000" width="99" height="129.2"/>
	<polygon fill="#FFFFFF" points="881,176.8 849.4,176.8 888.4,110.4 849.4,44 881,44 920.1,110.4 	"/>
</g>
<g>
	<path d="M588.5,215.5L588.5,215.5l-5.4,2.7l-0.9-4.2l7.1-3.5h4.6v29.2h-5.4V215.5z"/>
	<path d="M604.3,236.7c0-2.1,1.4-3.6,3.4-3.6c2,0,3.4,1.4,3.4,3.6c0,2-1.3,3.6-3.4,3.6C605.7,240.2,604.3,238.7,604.3,236.7z"/>
	<path d="M615.7,234c1.1,0.7,3.9,1.8,6.7,1.8c4.2,0,5.9-2.4,5.9-4.7c0-3.5-3.2-5-6.6-5h-2.6v-4h2.5c2.6,0,5.8-1.2,5.8-4.1
		c0-2-1.5-3.6-4.7-3.6c-2.4,0-4.8,1-6,1.8l-1.3-4c1.7-1.2,4.9-2.2,8.4-2.2c6,0,9.1,3.3,9.1,7.2c0,3.1-1.8,5.6-5.4,6.8v0.1
		c3.6,0.6,6.4,3.3,6.4,7.3c0,5-4.1,8.9-11.4,8.9c-3.6,0-6.6-1-8.2-2L615.7,234z"/>
	<path d="M657.3,215.1H646l-0.9,5.8c0.7-0.1,1.3-0.1,2.1-0.1c2.6,0,5.1,0.6,7.1,1.9c2.2,1.4,3.8,3.9,3.8,7.4
		c0,5.6-4.6,10.1-11.8,10.1c-3.4,0-6.2-0.9-7.7-1.7l1.1-4.2c1.3,0.7,3.8,1.5,6.4,1.5c3.2,0,6.3-1.8,6.3-5.4c0-3.3-2.5-5.5-8.3-5.5
		c-1.6,0-2.8,0.1-4,0.3l1.9-14.8h15.1V215.1z"/>
	<path d="M663.2,236.7c0-2.1,1.4-3.6,3.4-3.6c2,0,3.4,1.4,3.4,3.6c0,2-1.3,3.6-3.4,3.6C664.6,240.2,663.2,238.7,663.2,236.7z"/>
	<path d="M673.4,239.7v-3.4l3.5-3.2c6.9-6.4,10.1-9.9,10.2-13.8c0-2.6-1.4-4.9-5.2-4.9c-2.6,0-4.8,1.3-6.3,2.4L674,213
		c2.1-1.7,5.3-3,9-3c6.5,0,9.6,4.1,9.6,8.9c0,5.1-3.7,9.3-8.8,14l-2.6,2.2v0.1h12v4.6H673.4z"/>
	<path d="M697.9,236.7c0-2.1,1.4-3.6,3.4-3.6c2,0,3.4,1.4,3.4,3.6c0,2-1.4,3.6-3.4,3.6C699.3,240.2,697.9,238.7,697.9,236.7z"/>
</g>
<g>
	<path d="M817,215.5L817,215.5l-5.4,2.7l-0.9-4.2l7.1-3.5h4.6v29.2H817V215.5z"/>
	<path d="M832.8,236.7c0-2.1,1.4-3.6,3.4-3.6c2,0,3.4,1.4,3.4,3.6c0,2-1.4,3.6-3.4,3.6C834.2,240.2,832.8,238.7,832.8,236.7z"/>
	<path d="M844.2,234c1.1,0.7,3.9,1.8,6.7,1.8c4.2,0,5.9-2.4,5.9-4.7c0-3.5-3.2-5-6.6-5h-2.6v-4h2.5c2.6,0,5.8-1.2,5.8-4.1
		c0-2-1.5-3.6-4.7-3.6c-2.4,0-4.8,1-6,1.8l-1.3-4c1.7-1.2,4.9-2.2,8.4-2.2c6,0,9.1,3.3,9.1,7.2c0,3.1-1.8,5.6-5.4,6.8v0.1
		c3.6,0.6,6.4,3.3,6.4,7.3c0,5-4.1,8.9-11.4,8.9c-3.6,0-6.6-1-8.2-2L844.2,234z"/>
	<path d="M885.8,215.1h-11.2l-0.9,5.8c0.7-0.1,1.3-0.1,2.1-0.1c2.6,0,5.1,0.6,7.1,1.9c2.2,1.4,3.8,3.9,3.8,7.4
		c0,5.6-4.6,10.1-11.8,10.1c-3.4,0-6.2-0.9-7.7-1.7l1.1-4.2c1.3,0.7,3.8,1.5,6.4,1.5c3.2,0,6.3-1.8,6.3-5.4c0-3.3-2.5-5.5-8.3-5.5
		c-1.6,0-2.8,0.1-4,0.3l1.9-14.8h15.1V215.1z"/>
	<path d="M891.7,236.7c0-2.1,1.4-3.6,3.4-3.6c2,0,3.4,1.4,3.4,3.6c0,2-1.4,3.6-3.4,3.6C893.1,240.2,891.7,238.7,891.7,236.7z"/>
	<path d="M903.1,234c1.1,0.7,3.9,1.8,6.7,1.8c4.2,0,5.9-2.4,5.9-4.7c0-3.5-3.2-5-6.6-5h-2.6v-4h2.5c2.6,0,5.8-1.2,5.8-4.1
		c0-2-1.5-3.6-4.7-3.6c-2.4,0-4.8,1-6,1.8l-1.3-4c1.7-1.2,4.9-2.2,8.4-2.2c6,0,9.1,3.3,9.1,7.2c0,3.1-1.8,5.6-5.4,6.8v0.1
		c3.6,0.6,6.4,3.3,6.4,7.3c0,5-4.1,8.9-11.4,8.9c-3.6,0-6.6-1-8.2-2L903.1,234z"/>
	<path d="M926.4,236.7c0-2.1,1.4-3.6,3.4-3.6c2,0,3.4,1.4,3.4,3.6c0,2-1.3,3.6-3.4,3.6C927.8,240.2,926.4,238.7,926.4,236.7z"/>
</g>
<g>
	<path d="M214.3,485.5L214.3,485.5l-5.4,2.7l-0.9-4.2l7.1-3.5h4.6v29.2h-5.4V485.5z"/>
	<path d="M230.1,506.7c0-2.1,1.4-3.6,3.4-3.6c2,0,3.4,1.4,3.4,3.6c0,2-1.4,3.6-3.4,3.6C231.5,510.2,230.1,508.7,230.1,506.7z"/>
	<path d="M241.5,504c1.1,0.7,3.9,1.8,6.7,1.8c4.2,0,5.9-2.4,5.9-4.7c0-3.5-3.2-5-6.6-5h-2.6v-4h2.5c2.6,0,5.8-1.2,5.8-4.1
		c0-2-1.5-3.6-4.7-3.6c-2.4,0-4.8,1-6,1.8l-1.3-4c1.7-1.2,4.9-2.2,8.4-2.2c6,0,9.1,3.3,9.1,7.2c0,3.1-1.8,5.6-5.4,6.8v0.1
		c3.6,0.6,6.4,3.3,6.4,7.3c0,5-4.1,8.9-11.4,8.9c-3.6,0-6.6-1-8.2-2L241.5,504z"/>
	<path d="M283.1,485.1h-11.2l-0.9,5.8c0.7-0.1,1.3-0.1,2.1-0.1c2.6,0,5.1,0.6,7.1,1.9c2.2,1.4,3.8,3.9,3.8,7.4
		c0,5.6-4.6,10.1-11.8,10.1c-3.4,0-6.2-0.9-7.7-1.7l1.1-4.2c1.3,0.7,3.8,1.5,6.4,1.5c3.2,0,6.3-1.8,6.3-5.4c0-3.3-2.5-5.5-8.3-5.5
		c-1.6,0-2.8,0.1-4,0.3l1.9-14.8h15.1V485.1z"/>
	<path d="M289,506.7c0-2.1,1.4-3.6,3.4-3.6c2,0,3.4,1.4,3.4,3.6c0,2-1.4,3.6-3.4,3.6C290.3,510.2,289,508.7,289,506.7z"/>
	<path d="M311.4,509.7v-7.4h-13.2v-3.6l11.9-18.2h6.5v17.6h3.8v4.2h-3.8v7.4H311.4z M311.4,498.1v-8c0-1.7,0-3.4,0.2-5.1h-0.2
		c-0.9,1.8-1.7,3.3-2.6,5l-5.4,8l0,0.1H311.4z"/>
	<path d="M323.7,506.7c0-2.1,1.4-3.6,3.4-3.6c2,0,3.4,1.4,3.4,3.6c0,2-1.4,3.6-3.4,3.6C325.1,510.2,323.7,508.7,323.7,506.7z"/>
</g>
<g>
	<rect x="67.6" y="310.8" fill="#FFFFFF" stroke="#000000" stroke-width="3" stroke-miterlimit="10" width="400.5" height="139.3"/>
	<rect x="72.8" y="315.8" fill="#FF0000" width="390" height="129.2"/>
	<polygon fill="#FFFFFF" points="111.9,446.8 143.6,446.8 104.5,380.4 143.6,314 111.9,314 72.8,380.4 	"/>
	<polygon fill="#FFFFFF" points="211,446.8 242.7,446.8 203.6,380.4 242.7,314 211,314 172,380.4 	"/>
	<polygon fill="#FFFFFF" points="310.1,446.8 341.8,446.8 302.7,380.4 341.8,314 310.1,314 271.1,380.4 	"/>
	<polygon fill="#FFFFFF" points="409.2,446.8 440.9,446.8 401.8,380.4 440.9,314 409.2,314 370.2,380.4 	"/>
</g>
<g>
	
		<rect x="539.8" y="310.8" fill="#FFFFFF" stroke="#000000" stroke-width="3" stroke-miterlimit="10" width="204.5" height="139.3"/>
	<rect x="545.1" y="315.8" fill="#FF0000" width="194" height="129.2"/>
	<polygon fill="#FFFFFF" points="584.1,446.8 615.8,446.8 576.7,380.4 615.8,314 584.1,314 545.1,380.4 	"/>
	<polygon fill="#FFFFFF" points="679.3,446.8 710.9,446.8 671.8,380.4 710.9,314 679.3,314 640.2,380.4 	"/>
</g>
<g>
	
		<rect x="815.8" y="310.8" fill="#FFFFFF" stroke="#000000" stroke-width="3" stroke-miterlimit="10" width="109.5" height="139.3"/>
	<rect x="821.1" y="315.8" fill="#FF0000" width="99" height="129.2"/>
	<polygon fill="#FFFFFF" points="860.1,446.8 891.8,446.8 852.7,380.4 891.8,314 860.1,314 821.1,380.4 	"/>
</g>
<g>
	<path d="M588.5,485.5L588.5,485.5l-5.4,2.7l-0.9-4.2l7.1-3.5h4.6v29.2h-5.4V485.5z"/>
	<path d="M604.3,506.7c0-2.1,1.4-3.6,3.4-3.6c2,0,3.4,1.4,3.4,3.6c0,2-1.3,3.6-3.4,3.6C605.7,510.2,604.3,508.7,604.3,506.7z"/>
	<path d="M615.7,504c1.1,0.7,3.9,1.8,6.7,1.8c4.2,0,5.9-2.4,5.9-4.7c0-3.5-3.2-5-6.6-5h-2.6v-4h2.5c2.6,0,5.8-1.2,5.8-4.1
		c0-2-1.5-3.6-4.7-3.6c-2.4,0-4.8,1-6,1.8l-1.3-4c1.7-1.2,4.9-2.2,8.4-2.2c6,0,9.1,3.3,9.1,7.2c0,3.1-1.8,5.6-5.4,6.8v0.1
		c3.6,0.6,6.4,3.3,6.4,7.3c0,5-4.1,8.9-11.4,8.9c-3.6,0-6.6-1-8.2-2L615.7,504z"/>
	<path d="M657.3,485.1H646l-0.9,5.8c0.7-0.1,1.3-0.1,2.1-0.1c2.6,0,5.1,0.6,7.1,1.9c2.2,1.4,3.8,3.9,3.8,7.4
		c0,5.6-4.6,10.1-11.8,10.1c-3.4,0-6.2-0.9-7.7-1.7l1.1-4.2c1.3,0.7,3.8,1.5,6.4,1.5c3.2,0,6.3-1.8,6.3-5.4c0-3.3-2.5-5.5-8.3-5.5
		c-1.6,0-2.8,0.1-4,0.3l1.9-14.8h15.1V485.1z"/>
	<path d="M663.2,506.7c0-2.1,1.4-3.6,3.4-3.6c2,0,3.4,1.4,3.4,3.6c0,2-1.3,3.6-3.4,3.6C664.6,510.2,663.2,508.7,663.2,506.7z"/>
	<path d="M692,485.1h-11.2l-0.9,5.8c0.7-0.1,1.3-0.1,2.1-0.1c2.6,0,5.1,0.6,7.1,1.9c2.2,1.4,3.8,3.9,3.8,7.4
		c0,5.6-4.6,10.1-11.8,10.1c-3.4,0-6.2-0.9-7.7-1.7l1.1-4.2c1.3,0.7,3.8,1.5,6.4,1.5c3.2,0,6.3-1.8,6.3-5.4c0-3.3-2.5-5.5-8.3-5.5
		c-1.6,0-2.8,0.1-4,0.3l1.9-14.8H692V485.1z"/>
	<path d="M697.9,506.7c0-2.1,1.4-3.6,3.4-3.6c2,0,3.4,1.4,3.4,3.6c0,2-1.4,3.6-3.4,3.6C699.3,510.2,697.9,508.7,697.9,506.7z"/>
</g>
<g>
	<path d="M817,485.5L817,485.5l-5.4,2.7l-0.9-4.2l7.1-3.5h4.6v29.2H817V485.5z"/>
	<path d="M832.8,506.7c0-2.1,1.4-3.6,3.4-3.6c2,0,3.4,1.4,3.4,3.6c0,2-1.4,3.6-3.4,3.6C834.2,510.2,832.8,508.7,832.8,506.7z"/>
	<path d="M844.2,504c1.1,0.7,3.9,1.8,6.7,1.8c4.2,0,5.9-2.4,5.9-4.7c0-3.5-3.2-5-6.6-5h-2.6v-4h2.5c2.6,0,5.8-1.2,5.8-4.1
		c0-2-1.5-3.6-4.7-3.6c-2.4,0-4.8,1-6,1.8l-1.3-4c1.7-1.2,4.9-2.2,8.4-2.2c6,0,9.1,3.3,9.1,7.2c0,3.1-1.8,5.6-5.4,6.8v0.1
		c3.6,0.6,6.4,3.3,6.4,7.3c0,5-4.1,8.9-11.4,8.9c-3.6,0-6.6-1-8.2-2L844.2,504z"/>
	<path d="M885.8,485.1h-11.2l-0.9,5.8c0.7-0.1,1.3-0.1,2.1-0.1c2.6,0,5.1,0.6,7.1,1.9c2.2,1.4,3.8,3.9,3.8,7.4
		c0,5.6-4.6,10.1-11.8,10.1c-3.4,0-6.2-0.9-7.7-1.7l1.1-4.2c1.3,0.7,3.8,1.5,6.4,1.5c3.2,0,6.3-1.8,6.3-5.4c0-3.3-2.5-5.5-8.3-5.5
		c-1.6,0-2.8,0.1-4,0.3l1.9-14.8h15.1V485.1z"/>
	<path d="M891.7,506.7c0-2.1,1.4-3.6,3.4-3.6c2,0,3.4,1.4,3.4,3.6c0,2-1.4,3.6-3.4,3.6C893.1,510.2,891.7,508.7,891.7,506.7z"/>
	<path d="M919.8,484.4c-0.8,0-1.7,0-2.8,0.1c-6.1,0.7-9.1,4.5-9.8,8.5h0.1c1.4-1.7,3.6-2.8,6.6-2.8c5,0,9,3.6,9,9.5
		c0,5.6-4.1,10.4-10.3,10.4c-7.1,0-11-5.4-11-12.6c0-5.6,2-10.2,5.1-13.1c2.7-2.5,6.2-4,10.4-4.3c1.2-0.1,2.1-0.1,2.8-0.1
		L919.8,484.4z M917.2,500.1c0-3.4-1.8-5.8-5.1-5.8c-2.1,0-3.9,1.3-4.8,3c-0.2,0.5-0.4,1-0.4,1.8c0.1,3.9,1.9,7,5.5,7
		C915.3,506.1,917.2,503.6,917.2,500.1z"/>
	<path d="M926.4,506.7c0-2.1,1.4-3.6,3.4-3.6c2,0,3.4,1.4,3.4,3.6c0,2-1.3,3.6-3.4,3.6C927.8,510.2,926.4,508.7,926.4,506.7z"/>
</g>
</svg>
