<?xml version="1.0" encoding="utf-8"?>
<!-- Generator: Adobe Illustrator 18.0.0, SVG Export Plug-In . SVG Version: 6.00 Build 0)  -->
<!DOCTYPE svg PUBLIC "-//W3C//DTD SVG 1.1//EN" "http://www.w3.org/Graphics/SVG/1.1/DTD/svg11.dtd">
<svg version="1.1" id="Layer_2" xmlns="http://www.w3.org/2000/svg" xmlns:xlink="http://www.w3.org/1999/xlink" x="0px" y="0px"
	 viewBox="221.5 73.8 463.5 410.2" enable-background="new 221.5 73.8 463.5 410.2" xml:space="preserve">
<g>
	<path d="M394.1,219.9L394.1,219.9l-6,3l-1-4.6l7.8-3.9h5.1v32.3h-5.9V219.9z"/>
	<path d="M411.5,243.2c0-2.3,1.6-3.9,3.8-3.9c2.2,0,3.8,1.6,3.8,3.9c0,2.2-1.5,3.9-3.8,3.9C413.1,247.2,411.5,245.5,411.5,243.2z"/>
	<path d="M424.1,240.3c1.2,0.7,4.3,2,7.3,2c4.7,0,6.6-2.6,6.5-5.2c0-3.8-3.6-5.5-7.3-5.5h-2.8v-4.5h2.7c2.8,0,6.4-1.3,6.4-4.5
		c0-2.2-1.6-4-5.2-4c-2.6,0-5.3,1.1-6.6,2l-1.4-4.4c1.8-1.3,5.4-2.5,9.3-2.5c6.7,0,10.1,3.7,10.1,7.9c0,3.4-2,6.2-6,7.5v0.1
		c3.9,0.7,7.1,3.7,7.1,8c0,5.5-4.6,9.8-12.6,9.8c-3.9,0-7.3-1.1-9-2.2L424.1,240.3z"/>
	<path d="M469.1,218.7c-0.9,0-1.9,0-3.1,0.1c-6.8,0.8-10,5-10.8,9.4h0.1c1.6-1.8,4-3.1,7.2-3.1c5.6,0,9.9,4,9.9,10.5
		c0,6.2-4.5,11.5-11.4,11.5c-7.8,0-12.2-6-12.2-13.9c0-6.2,2.2-11.3,5.6-14.5c3-2.8,6.9-4.4,11.5-4.8c1.3-0.1,2.3-0.1,3.1-0.1
		L469.1,218.7z M466.3,236c0-3.7-2-6.4-5.6-6.4c-2.3,0-4.3,1.4-5.3,3.3c-0.2,0.5-0.4,1.1-0.4,1.9c0.1,4.3,2.1,7.7,6.1,7.7
		C464.2,242.6,466.3,239.9,466.3,236z"/>
	<path d="M476.5,243.2c0-2.3,1.6-3.9,3.8-3.9c2.2,0,3.8,1.6,3.8,3.9c0,2.2-1.5,3.9-3.8,3.9C478,247.2,476.5,245.5,476.5,243.2z"/>
	<path d="M497.4,219.9L497.4,219.9l-6,3l-1-4.6l7.8-3.9h5.1v32.3h-5.9V219.9z"/>
	<path d="M514.8,243.2c0-2.3,1.6-3.9,3.8-3.9c2.2,0,3.8,1.6,3.8,3.9c0,2.2-1.5,3.9-3.8,3.9C516.4,247.2,514.8,245.5,514.8,243.2z"/>
</g>
<g>
	<path d="M394.1,444.8L394.1,444.8l-6,3l-1-4.6l7.8-3.9h5.1v32.3h-5.9V444.8z"/>
	<path d="M411.5,468.2c0-2.3,1.6-3.9,3.8-3.9c2.2,0,3.8,1.6,3.8,3.9c0,2.2-1.5,3.9-3.8,3.9C413.1,472.1,411.5,470.4,411.5,468.2z"/>
	<path d="M424.1,465.3c1.2,0.7,4.3,2,7.3,2c4.7,0,6.6-2.6,6.5-5.2c0-3.8-3.6-5.5-7.3-5.5h-2.8v-4.5h2.7c2.8,0,6.4-1.3,6.4-4.5
		c0-2.2-1.6-4-5.2-4c-2.6,0-5.3,1.1-6.6,2l-1.4-4.4c1.8-1.3,5.4-2.5,9.3-2.5c6.7,0,10.1,3.7,10.1,7.9c0,3.4-2,6.2-6,7.5v0.1
		c3.9,0.7,7.1,3.7,7.1,8c0,5.5-4.6,9.8-12.6,9.8c-3.9,0-7.3-1.1-9-2.2L424.1,465.3z"/>
	<path d="M469.1,443.6c-0.9,0-1.9,0-3.1,0.1c-6.8,0.8-10,5-10.8,9.4h0.1c1.6-1.8,4-3.1,7.2-3.1c5.6,0,9.9,4,9.9,10.5
		c0,6.2-4.5,11.5-11.4,11.5c-7.8,0-12.2-6-12.2-13.9c0-6.2,2.2-11.3,5.6-14.5c3-2.8,6.9-4.4,11.5-4.8c1.3-0.1,2.3-0.1,3.1-0.1
		L469.1,443.6z M466.3,460.9c0-3.7-2-6.4-5.6-6.4c-2.3,0-4.3,1.4-5.3,3.3c-0.2,0.5-0.4,1.1-0.4,1.9c0.1,4.3,2.1,7.7,6.1,7.7
		C464.2,467.5,466.3,464.8,466.3,460.9z"/>
	<path d="M476.5,468.2c0-2.3,1.6-3.9,3.8-3.9c2.2,0,3.8,1.6,3.8,3.9c0,2.2-1.5,3.9-3.8,3.9C478,472.1,476.5,470.4,476.5,468.2z"/>
	<path d="M487.8,471.6v-3.7l3.8-3.5c7.6-7.1,11.2-10.9,11.2-15.2c0-2.9-1.5-5.4-5.8-5.4c-2.8,0-5.3,1.4-6.9,2.7l-1.8-4.3
		c2.3-1.9,5.9-3.3,9.9-3.3c7.2,0,10.6,4.5,10.6,9.8c0,5.7-4.1,10.2-9.7,15.4l-2.8,2.4v0.1h13.3v5.1H487.8z"/>
	<path d="M514.8,468.2c0-2.3,1.6-3.9,3.8-3.9c2.2,0,3.8,1.6,3.8,3.9c0,2.2-1.5,3.9-3.8,3.9C516.4,472.1,514.8,470.4,514.8,468.2z"/>
</g>
<g>
	<rect x="223" y="75.3" fill="#FFFFFF" stroke="#000000" stroke-width="3" stroke-miterlimit="10" width="460.5" height="124.3"/>
	<rect x="228.2" y="80.3" fill="#FF0000" width="450" height="114.2"/>
	<polygon fill="#FFFFFF" points="267.3,195.8 308.9,195.8 269.8,137.4 308.9,79 267.3,79 228.2,137.4 	"/>
	<polygon fill="#FFFFFF" points="639.5,195.8 597.8,195.8 636.9,137.4 597.8,79 639.5,79 678.6,137.4 	"/>
	<polygon fill="#FFFFFF" points="379.6,195.8 421.3,195.8 382.2,137.4 421.3,79 379.6,79 340.6,137.4 	"/>
	<polygon fill="#FFFFFF" points="526.8,195.8 485.1,195.8 524.2,137.4 485.1,79 526.8,79 565.8,137.4 	"/>
</g>
<g>
	
		<rect x="335.3" y="292.6" fill="#FFFFFF" stroke="#000000" stroke-width="3" stroke-miterlimit="10" width="235.8" height="124.3"/>
	<rect x="340.6" y="297.7" fill="#FF0000" width="225.3" height="114.2"/>
	<polygon fill="#FFFFFF" points="379.6,413.1 421.3,413.1 382.2,354.8 421.3,296.4 379.6,296.4 340.6,354.8 	"/>
	<polygon fill="#FFFFFF" points="526.8,413.1 485.1,413.1 524.2,354.8 485.1,296.4 526.8,296.4 565.8,354.8 	"/>
</g>
</svg>
