<?xml version="1.0" encoding="utf-8"?>
<!-- Generator: Adobe Illustrator 18.0.0, SVG Export Plug-In . SVG Version: 6.00 Build 0)  -->
<!DOCTYPE svg PUBLIC "-//W3C//DTD SVG 1.1//EN" "http://www.w3.org/Graphics/SVG/1.1/DTD/svg11.dtd">
<svg version="1.1" id="Layer_2" xmlns="http://www.w3.org/2000/svg" xmlns:xlink="http://www.w3.org/1999/xlink" x="0px" y="0px"
	 viewBox="0 -0.1 1358.1 627.7" enable-background="new 0 -0.1 1358.1 627.7" xml:space="preserve">
<g>
	<path fill="#1F1A17" d="M614.9-0.1c5,0,9.8,1.2,14.3,2.7c3.9,1.5,8.1,4.4,11.6,7.7c7.1,7.1,10.4,16.9,10.4,25.6v488
		c0,5-1.2,9.2-2.7,13.7c-1.5,4.4-4.4,8.1-7.7,11.6c-7.1,7.1-16.4,11-25.6,11H508.6c-5,0-9.8-1.2-14.3-2.7c-3.9-2.3-8.1-5-11.6-8.1
		c-7.1-6.5-10.4-16.4-10.4-25.2v-488c0-5,1.2-9.2,2.7-13.7c1.5-4.4,4.4-8.3,7.7-11.9c7.1-6.5,16.4-10.4,25.6-10.4"/>
	<path fill="#FFFFFF" d="M614.9,8.8c9.2-1.2,22.9,8.1,25.6,16.9c1.2,3.3,1.5,6.5,1.5,10.4v488c1.2,8.9-8.1,22.9-16.9,25.2
		c-3.3,1.5-6.5,2.3-10.4,2.3H508.2c-9.2,1.2-22.9-8.1-25.6-16.9c-1.2-3.3-1.5-7.1-1.5-10.4V36.1c-1.2-8.9,8.1-22.9,16.9-25.2
		c3.3-1.5,6.5-2.3,10.4-2.3"/>
	<polyline fill="#FF0000" points="642,264.5 642,222.3 480.9,295.5 480.9,337.5 	"/>
</g>
<g>
	<path fill="#1F1A17" d="M142.5-0.1c5,0,9.8,1.2,14.3,2.7c3.9,1.5,8.3,4.4,11.6,7.7c7.1,7.1,10.4,16.9,10.4,25.6v488
		c0,5-1.2,9.2-2.7,13.7c-1.5,4.4-4.4,8.1-7.7,11.6c-7.1,7.1-16.4,11-25.6,11H36.2c-5,0-9.8-1.2-14.3-2.7c-3.9-2.3-8.1-5-11.6-8.1
		C3.3,542.8,0,532.9,0,524.1v-488c0-5,1.2-9.2,2.7-13.7c1.5-4.4,4.4-8.1,7.7-11.9C17.5,3.9,26.8,0.1,36,0.1"/>
	<path fill="#FFFFFF" d="M142.5,8.8c9.2-1.2,22.9,8.3,25.6,16.9c1.2,3.3,1.5,6.5,1.5,10.4v488c1.2,8.9-8.3,22.9-16.9,25.2
		c-3.3,1.5-6.5,2.3-10.4,2.3H35.8c-9.2,1.2-22.9-8.1-25.6-16.9c-1.2-3.3-1.5-7.1-1.5-10.4V36.1c-1.2-8.9,8.3-22.9,16.9-25.2
		c3.3-1.5,6.5-2.3,10.4-2.3"/>
	<polyline fill="#FF0000" points="169.8,329.2 169.8,287.2 8.7,360.2 8.7,402.4 	"/>
	<polyline fill="#FF0000" points="169.8,245 169.8,202.9 8.7,275.7 8.7,317.8 	"/>
	<polyline fill="#FF0000" points="169.8,159.2 169.8,117.2 8.7,190.4 8.7,232.5 	"/>
</g>
<g>
	<path fill="#1F1A17" d="M378.8-0.1c5,0,9.8,1.2,14.3,2.7c3.9,1.5,8.3,4.4,11.6,7.7c7.1,7.1,10.4,16.9,10.4,25.6v488
		c0,5-1.2,9.2-2.7,13.7c-1.5,4.4-4.4,8.1-7.7,11.6c-7.1,7.1-16.4,11-25.6,11H272.5c-5,0-9.8-1.2-14.3-2.7c-3.9-2.3-8.3-5-11.6-8.1
		c-7.1-6.5-10.4-16.4-10.4-25.2v-488c0-5,1.2-9.2,2.7-13.7c1.5-4.4,4.4-8.3,7.7-11.9c7.1-6.5,16.4-10.4,25.6-10.4"/>
	<path fill="#FFFFFF" d="M378.8,8.8c9.2-1.2,22.9,8.1,25.6,16.9c1.2,3.3,1.5,6.5,1.5,10.4v488c1.2,8.9-8.3,22.9-16.9,25.2
		c-3.3,1.5-6.5,2.3-10.4,2.3H272.1c-9.2,1.2-22.9-8.3-25.6-16.9c-1.2-3.3-1.5-7.1-1.5-10.4V36.1c-1.2-8.9,8.3-22.9,16.9-25.2
		c3.3-1.5,6.5-2.3,10.4-2.3"/>
	<polyline fill="#FF0000" points="406.1,306.5 406.1,264.5 245,337.5 245,379.7 	"/>
	<polyline fill="#FF0000" points="406.1,222.3 406.1,180.2 245,252.9 245,294.9 	"/>
</g>
<g>
	<path fill="#1F1A17" d="M743-0.1c-5,0-9.8,1.2-14.3,2.7c-3.9,1.5-8.3,4.4-11.6,7.7c-7.1,7.1-10.4,16.9-10.4,25.6v488
		c0,5,1.2,9.2,2.7,13.7s4.4,8.1,7.7,11.6c7.1,7.1,16.4,11,25.6,11h106.5c5,0,9.8-1.2,14.3-2.7c3.9-2.3,8.1-5,11.6-8.1
		c7.1-6.5,10.4-16.4,10.4-25.2v-488c0-5-1.2-9.2-2.7-13.7c-1.5-4.4-4.4-8.1-7.7-11.9C868,3.9,858.7,0.1,849.5,0.1"/>
	<path fill="#FFFFFF" d="M743,8.8c-9.2-1.2-22.9,8.3-25.6,16.9c-1.2,3.3-1.5,6.5-1.5,10.4v488c-1.2,8.9,8.3,22.9,16.9,25.2
		c3.3,1.5,6.5,2.3,10.4,2.3h106.5c9.2,1.2,22.9-8.1,25.6-16.9c1.2-3.3,1.5-7.1,1.5-10.4V36.1c1.2-8.9-8.3-22.9-16.9-25.2
		c-3.3-1.5-6.5-2.3-10.4-2.3"/>
	<polyline fill="#FF0000" points="715.6,329.2 715.6,287.2 876.8,360.2 876.8,402.4 	"/>
	<polyline fill="#FF0000" points="715.6,245 715.6,202.9 876.8,275.7 876.8,317.8 	"/>
	<polyline fill="#FF0000" points="715.6,159.2 715.6,117.2 876.8,190.4 876.8,232.5 	"/>
</g>
<g>
	<path fill="#1F1A17" d="M1215.6-0.1c-5,0-9.8,1.2-14.3,2.7c-3.9,1.5-8.1,4.4-11.6,7.7c-7.1,7.1-10.4,16.9-10.4,25.6v488
		c0,5,1.2,9.2,2.7,13.7c1.5,4.4,4.4,8.1,7.7,11.6c7.1,7.1,16.4,11,25.6,11h106.5c5,0,9.8-1.2,14.3-2.7c3.9-2.3,8.1-5,11.6-8.1
		c7.1-6.5,10.4-16.4,10.4-25.2v-488c0-5-1.2-9.2-2.7-13.7c-1.5-4.4-4.4-8.3-7.7-11.9c-7.1-6.5-16.4-10.4-25.6-10.4"/>
	<path fill="#FFFFFF" d="M1215.6,8.8c-9.2-1.2-22.9,8.1-25.6,16.9c-1.2,3.3-1.5,6.5-1.5,10.4v488c-1.2,8.9,8.1,22.9,16.9,25.2
		c3.3,1.5,6.5,2.3,10.4,2.3h106.5c9.2,1.2,22.9-8.1,25.6-16.9c1.2-3.3,1.5-7.1,1.5-10.4V36.1c1.2-8.9-8.1-22.9-16.9-25.2
		c-3.3-1.5-6.5-2.3-10.4-2.3"/>
	<polyline fill="#FF0000" points="1188.4,264.5 1188.4,222.3 1349.6,295.5 1349.6,337.5 	"/>
</g>
<g>
	<path fill="#1F1A17" d="M979.3-0.1c-5,0-9.8,1.2-14.3,2.7c-3.9,1.5-8.3,4.4-11.6,7.7c-7.1,7.1-10.4,16.9-10.4,25.6v488
		c0,5,1.2,9.2,2.7,13.7c1.5,4.4,4.4,8.1,7.7,11.6c7.1,7.1,16.4,11,25.6,11h106.5c5,0,9.8-1.2,14.3-2.7c3.9-2.3,8.3-5,11.6-8.1
		c7.1-6.5,10.4-16.4,10.4-25.2v-488c0-5-1.2-9.2-2.7-13.7c-1.5-4.4-4.4-8.3-7.7-11.9c-7.1-6.5-16.4-10.4-25.6-10.4"/>
	<path fill="#FFFFFF" d="M979.3,8.8c-9.2-1.2-22.9,8.1-25.6,16.9c-1.2,3.3-1.5,6.5-1.5,10.4v488c-1.2,8.9,8.3,22.9,16.9,25.2
		c3.3,1.5,6.5,2.3,10.4,2.3h106.5c9.2,1.2,22.9-8.3,25.6-16.9c1.2-3.3,1.5-7.1,1.5-10.4V36.1c1.2-8.9-8.3-22.9-16.9-25.2
		c-3.3-1.5-6.5-2.3-10.4-2.3"/>
	<polyline fill="#FF0000" points="951.9,306.5 951.9,264.5 1113.1,337.5 1113.1,379.7 	"/>
	<polyline fill="#FF0000" points="951.9,222.3 951.9,180.2 1113.1,252.9 1113.1,294.9 	"/>
</g>
<g>
	<path d="M49.2,593.2L49.2,593.2l-5.3,2.6l-0.9-4.1l6.9-3.4h4.5v28.3h-5.2V593.2z"/>
	<path d="M64.5,613.8c0-2,1.4-3.4,3.3-3.4c2,0,3.3,1.4,3.3,3.4c0,2-1.3,3.4-3.3,3.4C65.8,617.2,64.5,615.7,64.5,613.8z"/>
	<path d="M86.2,616.7v-7.2H73.4V606L85,588.4h6.3v17.1h3.7v4.1h-3.7v7.2H86.2z M86.2,605.5v-7.7c0-1.6,0-3.3,0.2-4.9h-0.2
		c-0.9,1.8-1.6,3.2-2.5,4.8l-5.2,7.8l0,0.1H86.2z"/>
	<path d="M98.1,613.8c0-2,1.4-3.4,3.3-3.4c2,0,3.3,1.4,3.3,3.4c0,2-1.3,3.4-3.3,3.4C99.5,617.2,98.1,615.7,98.1,613.8z"/>
	<path d="M116.4,593.2L116.4,593.2l-5.3,2.6l-0.9-4.1l6.9-3.4h4.5v28.3h-5.2V593.2z"/>
	<path d="M131.7,613.8c0-2,1.4-3.4,3.3-3.4c2,0,3.3,1.4,3.3,3.4c0,2-1.3,3.4-3.3,3.4C133.1,617.2,131.7,615.7,131.7,613.8z"/>
</g>
<g>
	<path d="M285.5,593.2L285.5,593.2l-5.3,2.6l-0.9-4.1l6.9-3.4h4.5v28.3h-5.2V593.2z"/>
	<path d="M300.8,613.8c0-2,1.4-3.4,3.3-3.4c2,0,3.3,1.4,3.3,3.4c0,2-1.3,3.4-3.3,3.4C302.1,617.2,300.8,615.7,300.8,613.8z"/>
	<path d="M322.5,616.7v-7.2h-12.8V606l11.5-17.6h6.3v17.1h3.7v4.1h-3.7v7.2H322.5z M322.5,605.5v-7.7c0-1.6,0-3.3,0.2-4.9h-0.2
		c-0.9,1.8-1.6,3.2-2.5,4.8l-5.2,7.8l0,0.1H322.5z"/>
	<path d="M334.4,613.8c0-2,1.4-3.4,3.3-3.4c2,0,3.3,1.4,3.3,3.4c0,2-1.3,3.4-3.3,3.4C335.7,617.2,334.4,615.7,334.4,613.8z"/>
	<path d="M344.3,616.7v-3.3l3.4-3.1c6.7-6.2,9.8-9.6,9.8-13.3c0-2.5-1.4-4.7-5.1-4.7c-2.5,0-4.6,1.3-6.1,2.4l-1.6-3.8
		c2-1.7,5.1-2.9,8.7-2.9c6.3,0,9.3,4,9.3,8.6c0,5-3.6,9-8.5,13.5l-2.5,2.1v0.1h11.6v4.4H344.3z"/>
	<path d="M368,613.8c0-2,1.4-3.4,3.3-3.4c2,0,3.3,1.4,3.3,3.4c0,2-1.3,3.4-3.3,3.4C369.4,617.2,368,615.7,368,613.8z"/>
</g>
<g>
	<path d="M1228.5,593.2L1228.5,593.2l-5.3,2.6l-0.9-4.1l6.9-3.4h4.5v28.3h-5.2V593.2z"/>
	<path d="M1243.8,613.8c0-2,1.4-3.4,3.3-3.4c2,0,3.3,1.4,3.3,3.4c0,2-1.3,3.4-3.3,3.4C1245.2,617.2,1243.8,615.7,1243.8,613.8z"/>
	<path d="M1265.6,616.7v-7.2h-12.8V606l11.5-17.6h6.3v17.1h3.7v4.1h-3.7v7.2H1265.6z M1265.6,605.5v-7.7c0-1.6,0-3.3,0.2-4.9h-0.2
		c-0.9,1.8-1.6,3.2-2.5,4.8l-5.2,7.8l0,0.1H1265.6z"/>
	<path d="M1277.5,613.8c0-2,1.4-3.4,3.3-3.4c2,0,3.3,1.4,3.3,3.4c0,2-1.3,3.4-3.3,3.4C1278.8,617.2,1277.5,615.7,1277.5,613.8z"/>
	<path d="M1304.6,592.2c-0.8,0-1.7,0-2.7,0.1c-5.9,0.7-8.8,4.4-9.5,8.3h0.1c1.4-1.6,3.5-2.7,6.4-2.7c4.9,0,8.7,3.5,8.7,9.2
		c0,5.4-4,10.1-10,10.1c-6.9,0-10.7-5.2-10.7-12.2c0-5.4,2-9.9,4.9-12.7c2.6-2.4,6-3.8,10.1-4.2c1.2-0.1,2-0.1,2.7-0.1L1304.6,592.2
		z M1302.1,607.4c0-3.3-1.8-5.6-4.9-5.6c-2,0-3.8,1.2-4.6,2.9c-0.2,0.4-0.3,1-0.3,1.7c0.1,3.7,1.9,6.8,5.3,6.8
		C1300.3,613.2,1302.1,610.8,1302.1,607.4z"/>
	<path d="M1311.1,613.8c0-2,1.4-3.4,3.3-3.4c2,0,3.3,1.4,3.3,3.4c0,2-1.3,3.4-3.3,3.4C1312.4,617.2,1311.1,615.7,1311.1,613.8z"/>
</g>
<g>
	<path d="M992.3,593.2L992.3,593.2l-5.3,2.6l-0.9-4.1l6.9-3.4h4.5v28.3h-5.2V593.2z"/>
	<path d="M1007.5,613.8c0-2,1.4-3.4,3.3-3.4c2,0,3.3,1.4,3.3,3.4c0,2-1.3,3.4-3.3,3.4C1008.9,617.2,1007.5,615.7,1007.5,613.8z"/>
	<path d="M1029.3,616.7v-7.2h-12.8V606l11.5-17.6h6.3v17.1h3.7v4.1h-3.7v7.2H1029.3z M1029.3,605.5v-7.7c0-1.6,0-3.3,0.2-4.9h-0.2
		c-0.9,1.8-1.6,3.2-2.5,4.8l-5.2,7.8l0,0.1H1029.3z"/>
	<path d="M1041.2,613.8c0-2,1.4-3.4,3.3-3.4c2,0,3.3,1.4,3.3,3.4c0,2-1.3,3.4-3.3,3.4C1042.5,617.2,1041.2,615.7,1041.2,613.8z"/>
	<path d="M1069.1,592.8h-10.9l-0.8,5.7c0.7-0.1,1.2-0.1,2-0.1c2.5,0,5,0.6,6.9,1.8c2.1,1.4,3.7,3.7,3.7,7.2c0,5.4-4.5,9.8-11.5,9.8
		c-3.3,0-6-0.8-7.5-1.7l1.1-4.1c1.2,0.7,3.7,1.5,6.2,1.5c3.1,0,6.1-1.8,6.1-5.2c0-3.2-2.4-5.4-8.1-5.4c-1.6,0-2.7,0.1-3.9,0.3
		l1.9-14.3h14.6V592.8z"/>
	<path d="M1074.8,613.8c0-2,1.4-3.4,3.3-3.4c2,0,3.3,1.4,3.3,3.4c0,2-1.3,3.4-3.3,3.4C1076.2,617.2,1074.8,615.7,1074.8,613.8z"/>
</g>
<g>
	<path d="M756,593.2L756,593.2l-5.3,2.6l-0.9-4.1l6.9-3.4h4.5v28.3H756V593.2z"/>
	<path d="M771.3,613.8c0-2,1.4-3.4,3.3-3.4c2,0,3.3,1.4,3.3,3.4c0,2-1.3,3.4-3.3,3.4C772.6,617.2,771.3,615.7,771.3,613.8z"/>
	<path d="M793,616.7v-7.2h-12.8V606l11.5-17.6h6.3v17.1h3.7v4.1H798v7.2H793z M793,605.5v-7.7c0-1.6,0-3.3,0.2-4.9H793
		c-0.9,1.8-1.6,3.2-2.5,4.8l-5.2,7.8l0,0.1H793z"/>
	<path d="M804.9,613.8c0-2,1.4-3.4,3.3-3.4c2,0,3.3,1.4,3.3,3.4c0,2-1.3,3.4-3.3,3.4C806.2,617.2,804.9,615.7,804.9,613.8z"/>
	<path d="M826.6,616.7v-7.2h-12.8V606l11.5-17.6h6.3v17.1h3.7v4.1h-3.7v7.2H826.6z M826.6,605.5v-7.7c0-1.6,0-3.3,0.2-4.9h-0.2
		c-0.9,1.8-1.6,3.2-2.5,4.8l-5.2,7.8l0,0.1H826.6z"/>
	<path d="M838.5,613.8c0-2,1.4-3.4,3.3-3.4c2,0,3.3,1.4,3.3,3.4c0,2-1.3,3.4-3.3,3.4C839.9,617.2,838.5,615.7,838.5,613.8z"/>
</g>
<g>
	<path d="M521.6,593.2L521.6,593.2l-5.3,2.6l-0.9-4.1l6.9-3.4h4.5v28.3h-5.2V593.2z"/>
	<path d="M536.9,613.8c0-2,1.4-3.4,3.3-3.4c2,0,3.3,1.4,3.3,3.4c0,2-1.3,3.4-3.3,3.4C538.2,617.2,536.9,615.7,536.9,613.8z"/>
	<path d="M558.6,616.7v-7.2h-12.8V606l11.5-17.6h6.3v17.1h3.7v4.1h-3.7v7.2H558.6z M558.6,605.5v-7.7c0-1.6,0-3.3,0.2-4.9h-0.2
		c-0.9,1.8-1.6,3.2-2.5,4.8l-5.2,7.8l0,0.1H558.6z"/>
	<path d="M570.5,613.8c0-2,1.4-3.4,3.3-3.4c2,0,3.3,1.4,3.3,3.4c0,2-1.3,3.4-3.3,3.4C571.8,617.2,570.5,615.7,570.5,613.8z"/>
	<path d="M581.5,611.2c1.1,0.7,3.7,1.7,6.4,1.7c4.1,0,5.8-2.3,5.7-4.5c0-3.4-3.1-4.8-6.4-4.8h-2.5v-3.9h2.4c2.5,0,5.6-1.1,5.6-4
		c0-1.9-1.4-3.5-4.5-3.5c-2.3,0-4.6,1-5.8,1.8l-1.2-3.9c1.6-1.1,4.7-2.2,8.1-2.2c5.8,0,8.8,3.2,8.8,6.9c0,3-1.7,5.4-5.2,6.6v0.1
		c3.4,0.6,6.2,3.2,6.2,7.1c0,4.8-4,8.6-11,8.6c-3.4,0-6.4-1-7.9-2L581.5,611.2z"/>
	<path d="M604.1,613.8c0-2,1.4-3.4,3.3-3.4c2,0,3.3,1.4,3.3,3.4c0,2-1.3,3.4-3.3,3.4C605.5,617.2,604.1,615.7,604.1,613.8z"/>
</g>
</svg>
