<?xml version="1.0" encoding="utf-8"?>
<!-- Generator: Adobe Illustrator 18.0.0, SVG Export Plug-In . SVG Version: 6.00 Build 0)  -->
<!DOCTYPE svg PUBLIC "-//W3C//DTD SVG 1.1//EN" "http://www.w3.org/Graphics/SVG/1.1/DTD/svg11.dtd">
<svg version="1.1" id="Layer_1" xmlns="http://www.w3.org/2000/svg" xmlns:xlink="http://www.w3.org/1999/xlink" x="0px" y="0px"
	 viewBox="163.6 0 3294.3 587.1" enable-background="new 163.6 0 3294.3 587.1" xml:space="preserve">
<g>
	
		<g id="svg2" inkscape:version="0.48.4 r9939" sodipodi:docname="1.5.svg.2014_02_08_15_43_55.1.svg" xmlns:sodipodi="http://sodipodi.sourceforge.net/DTD/sodipodi-0.dtd" xmlns:cc="http://creativecommons.org/ns#" xmlns:rdf="http://www.w3.org/1999/02/22-rdf-syntax-ns#" xmlns:dc="http://purl.org/dc/elements/1.1/" xmlns:inkscape="http://www.inkscape.org/namespaces/inkscape" xmlns:svg="http://www.w3.org/2000/svg">
		
			<path id="path5791" sodipodi:nodetypes="cccscccccc" inkscape:connector-curvature="0" fill="#FFFFFF" stroke="#000000" stroke-width="2" d="
			M164.6,417.3c0-6.2,1.6-12.4,4.8-17.8L389.3,18.8c9.8-17,31.5-22.8,48.6-13c5.4,3.2,9.9,7.6,13,13l219.9,380.8
			c3.2,5.4,4.8,11.6,4.8,17.8c0,19.6-15.9,35.6-35.6,35.6H200.2C180.5,452.9,164.6,436.9,164.6,417.3L164.6,417.3z"/>
		<path id="path3001" fill="#FF0000" d="M419.4,8.3c-9.5,0.2-18.7,5.3-23.9,14.1L175.7,403.2c-7.8,13.6-3.2,30.9,10.3,38.6
			c4.3,2.5,9.2,3.8,14.1,3.8h439.7c5,0,9.9-1.3,14.1-3.8c13.6-7.8,18.2-25.1,10.3-38.6L444.5,22.4c-2.5-4.3-6.1-7.8-10.3-10.3
			C429.5,9.4,424.4,8.2,419.4,8.3z M419.4,56.9c1.5-0.1,3.2,0.2,4.6,1.1c1.2,0.7,2.3,1.7,3,2.9L622.2,399c2.3,3.9,0.9,8.8-3,11
			c-1.2,0.7-2.6,1.1-4,1.1H224.8c-4.4,0-8.1-3.6-8.1-8.1c0-1.5,0.4-2.8,1.1-4L413,61C414.4,58.5,416.8,57.2,419.4,56.9z"/>
	</g>
	<rect x="390.1" y="156.5" fill="#1C1D20" width="59.9" height="234.8"/>
	<rect x="414.8" y="251.1" fill="#1C1D20" width="106.1" height="27.9"/>
</g>
<g>
	
		<g id="svg2_1_" inkscape:version="0.48.4 r9939" sodipodi:docname="1.5.svg.2014_02_08_15_43_55.1.svg" xmlns:sodipodi="http://sodipodi.sourceforge.net/DTD/sodipodi-0.dtd" xmlns:cc="http://creativecommons.org/ns#" xmlns:rdf="http://www.w3.org/1999/02/22-rdf-syntax-ns#" xmlns:dc="http://purl.org/dc/elements/1.1/" xmlns:inkscape="http://www.inkscape.org/namespaces/inkscape" xmlns:svg="http://www.w3.org/2000/svg">
		
			<path id="path5791_1_" sodipodi:nodetypes="cccscccccc" inkscape:connector-curvature="0" fill="#FFFFFF" stroke="#000000" stroke-width="2" d="
			M720.9,417.3c0-6.2,1.6-12.4,4.8-17.8L945.5,18.8c9.8-17,31.5-22.8,48.6-13c5.4,3.2,9.9,7.6,13,13L1227,399.5
			c3.2,5.4,4.8,11.6,4.8,17.8c0,19.6-15.9,35.6-35.6,35.6H756.5C736.8,452.9,720.9,436.9,720.9,417.3L720.9,417.3z"/>
		<path id="path3001_1_" fill="#FF0000" d="M975.7,8.3c-9.5,0.2-18.7,5.3-23.9,14.1L732,403.2c-7.8,13.6-3.2,30.9,10.3,38.6
			c4.3,2.5,9.2,3.8,14.1,3.8h439.7c5,0,9.9-1.3,14.1-3.8c13.6-7.8,18.2-25.1,10.3-38.6L1000.8,22.4c-2.5-4.3-6.1-7.8-10.3-10.3
			C985.8,9.4,980.7,8.2,975.7,8.3z M975.7,56.9c1.5-0.1,3.2,0.2,4.6,1.1c1.2,0.7,2.3,1.7,3,2.9L1178.5,399c2.3,3.9,0.9,8.8-3,11
			c-1.2,0.7-2.6,1.1-4,1.1H781.1c-4.4,0-8.1-3.6-8.1-8.1c0-1.5,0.4-2.8,1.1-4L969.3,61C970.7,58.5,973.1,57.2,975.7,56.9z"/>
	</g>
	<rect x="946.4" y="156.5" fill="#1C1D20" width="59.9" height="234.8"/>
	<rect x="875.5" y="251.1" fill="#1C1D20" width="102.7" height="27.9"/>
</g>
<g>
	
		<g id="svg2_2_" inkscape:version="0.48.4 r9939" sodipodi:docname="1.5.svg.2014_02_08_15_43_55.1.svg" xmlns:sodipodi="http://sodipodi.sourceforge.net/DTD/sodipodi-0.dtd" xmlns:cc="http://creativecommons.org/ns#" xmlns:rdf="http://www.w3.org/1999/02/22-rdf-syntax-ns#" xmlns:dc="http://purl.org/dc/elements/1.1/" xmlns:inkscape="http://www.inkscape.org/namespaces/inkscape" xmlns:svg="http://www.w3.org/2000/svg">
		
			<path id="path5791_2_" sodipodi:nodetypes="cccscccccc" inkscape:connector-curvature="0" fill="#FFFFFF" stroke="#000000" stroke-width="2" d="
			M1277.2,417.3c0-6.2,1.6-12.4,4.8-17.8l219.9-380.8c9.8-17,31.5-22.8,48.6-13c5.4,3.2,9.9,7.6,13,13l219.9,380.8
			c3.2,5.4,4.8,11.6,4.8,17.8c0,19.6-15.9,35.6-35.6,35.6h-439.7C1293.1,452.9,1277.2,436.9,1277.2,417.3L1277.2,417.3z"/>
		<path id="path3001_2_" fill="#FF0000" d="M1532,8.3c-9.5,0.2-18.7,5.3-23.9,14.1l-219.8,380.8c-7.8,13.6-3.2,30.9,10.3,38.6
			c4.3,2.5,9.2,3.8,14.1,3.8h439.7c5,0,9.9-1.3,14.1-3.8c13.6-7.8,18.2-25.1,10.3-38.6L1557.1,22.4c-2.5-4.3-6.1-7.8-10.3-10.3
			C1542.1,9.4,1537,8.2,1532,8.3z M1532,56.9c1.5-0.1,3.2,0.2,4.6,1.1c1.2,0.7,2.3,1.7,3,2.9L1734.8,399c2.3,3.9,0.9,8.8-3,11
			c-1.2,0.7-2.6,1.1-4,1.1h-390.4c-4.4,0-8.1-3.6-8.1-8.1c0-1.5,0.4-2.8,1.1-4l195.2-338C1527,58.5,1529.4,57.2,1532,56.9z"/>
	</g>
	<rect x="1502.7" y="156.5" fill="#1C1D20" width="59.9" height="234.8"/>
	
		<rect x="1530.1" y="248.1" transform="matrix(0.863 -0.5051 0.5051 0.863 84.2327 834.7565)" fill="#1C1D20" width="102.7" height="27.9"/>
</g>
<g>
	
		<g id="svg2_3_" inkscape:version="0.48.4 r9939" sodipodi:docname="1.5.svg.2014_02_08_15_43_55.1.svg" xmlns:sodipodi="http://sodipodi.sourceforge.net/DTD/sodipodi-0.dtd" xmlns:cc="http://creativecommons.org/ns#" xmlns:rdf="http://www.w3.org/1999/02/22-rdf-syntax-ns#" xmlns:dc="http://purl.org/dc/elements/1.1/" xmlns:inkscape="http://www.inkscape.org/namespaces/inkscape" xmlns:svg="http://www.w3.org/2000/svg">
		
			<path id="path5791_3_" sodipodi:nodetypes="cccscccccc" inkscape:connector-curvature="0" fill="#FFFFFF" stroke="#000000" stroke-width="2" d="
			M1833.5,417.3c0-6.2,1.6-12.4,4.8-17.8l219.9-380.8c9.8-17,31.5-22.8,48.6-13c5.4,3.2,9.9,7.6,13,13l219.9,380.8
			c3.2,5.4,4.8,11.6,4.8,17.8c0,19.6-15.9,35.6-35.6,35.6H1869C1849.4,452.9,1833.5,436.9,1833.5,417.3L1833.5,417.3z"/>
		<path id="path3001_3_" fill="#FF0000" d="M2088.3,8.3c-9.5,0.2-18.7,5.3-23.9,14.1l-219.8,380.8c-7.8,13.6-3.2,30.9,10.3,38.6
			c4.3,2.5,9.2,3.8,14.1,3.8h439.7c5,0,9.9-1.3,14.1-3.8c13.6-7.8,18.2-25.1,10.3-38.6L2113.4,22.4c-2.5-4.3-6.1-7.8-10.3-10.3
			C2098.4,9.4,2093.3,8.2,2088.3,8.3z M2088.3,56.9c1.5-0.1,3.2,0.2,4.6,1.1c1.2,0.7,2.3,1.7,3,2.9L2291.1,399c2.3,3.9,0.9,8.8-3,11
			c-1.2,0.7-2.6,1.1-4,1.1h-390.4c-4.4,0-8.1-3.6-8.1-8.1c0-1.5,0.4-2.8,1.1-4l195.2-338C2083.2,58.5,2085.7,57.2,2088.3,56.9z"/>
	</g>
	<rect x="2058.9" y="156.5" fill="#1C1D20" width="59.9" height="234.8"/>
	
		<rect x="1990.4" y="248.1" transform="matrix(-0.863 -0.5051 0.5051 -0.863 3671.5149 1519.5754)" fill="#1C1D20" width="102.7" height="27.9"/>
</g>
<g>
	
		<g id="svg2_5_" inkscape:version="0.48.4 r9939" sodipodi:docname="1.5.svg.2014_02_08_15_43_55.1.svg" xmlns:sodipodi="http://sodipodi.sourceforge.net/DTD/sodipodi-0.dtd" xmlns:cc="http://creativecommons.org/ns#" xmlns:rdf="http://www.w3.org/1999/02/22-rdf-syntax-ns#" xmlns:dc="http://purl.org/dc/elements/1.1/" xmlns:inkscape="http://www.inkscape.org/namespaces/inkscape" xmlns:svg="http://www.w3.org/2000/svg">
		
			<path id="path5791_5_" sodipodi:nodetypes="cccscccccc" inkscape:connector-curvature="0" fill="#FFFFFF" stroke="#000000" stroke-width="2" d="
			M2389.8,417.3c0-6.2,1.6-12.4,4.8-17.8l219.9-380.8c9.8-17,31.5-22.8,48.6-13c5.4,3.2,9.9,7.6,13,13l219.9,380.8
			c3.2,5.4,4.8,11.6,4.8,17.8c0,19.6-15.9,35.6-35.6,35.6h-439.7C2405.7,452.9,2389.8,436.9,2389.8,417.3L2389.8,417.3z"/>
		<path id="path3001_5_" fill="#FF0000" d="M2644.5,8.3c-9.5,0.2-18.7,5.3-23.9,14.1l-219.8,380.8c-7.8,13.6-3.2,30.9,10.3,38.6
			c4.3,2.5,9.2,3.8,14.1,3.8H2865c5,0,9.9-1.3,14.1-3.8c13.6-7.8,18.2-25.1,10.3-38.6L2669.7,22.4c-2.5-4.3-6.1-7.8-10.3-10.3
			C2654.6,9.4,2649.6,8.2,2644.5,8.3z M2644.5,56.9c1.5-0.1,3.2,0.2,4.6,1.1c1.2,0.7,2.3,1.7,3,2.9L2847.4,399c2.3,3.9,0.9,8.8-3,11
			c-1.2,0.7-2.6,1.1-4,1.1H2450c-4.4,0-8.1-3.6-8.1-8.1c0-1.5,0.4-2.8,1.1-4l195.2-338C2639.5,58.5,2642,57.2,2644.5,56.9z"/>
	</g>
	<rect x="2615.2" y="156.5" fill="#1C1D20" width="59.9" height="234.8"/>
	
		<rect x="2641.1" y="310" transform="matrix(0.863 0.5051 -0.5051 0.863 534.0083 -1321.6422)" fill="#1C1D20" width="126.3" height="27.9"/>
</g>
<g>
	
		<g id="svg2_4_" inkscape:version="0.48.4 r9939" sodipodi:docname="1.5.svg.2014_02_08_15_43_55.1.svg" xmlns:sodipodi="http://sodipodi.sourceforge.net/DTD/sodipodi-0.dtd" xmlns:cc="http://creativecommons.org/ns#" xmlns:rdf="http://www.w3.org/1999/02/22-rdf-syntax-ns#" xmlns:dc="http://purl.org/dc/elements/1.1/" xmlns:inkscape="http://www.inkscape.org/namespaces/inkscape" xmlns:svg="http://www.w3.org/2000/svg">
		
			<path id="path5791_4_" sodipodi:nodetypes="cccscccccc" inkscape:connector-curvature="0" fill="#FFFFFF" stroke="#000000" stroke-width="2" d="
			M2946,417.3c0-6.2,1.6-12.4,4.8-17.8l219.9-380.8c9.8-17,31.5-22.8,48.6-13c5.4,3.2,9.9,7.6,13,13l219.9,380.8
			c3.2,5.4,4.8,11.6,4.8,17.8c0,19.6-15.9,35.6-35.6,35.6h-439.7C2962,452.9,2946,436.9,2946,417.3L2946,417.3z"/>
		<path id="path3001_4_" fill="#FF0000" d="M3200.8,8.3c-9.5,0.2-18.7,5.3-23.9,14.1l-219.8,380.8c-7.8,13.6-3.2,30.9,10.3,38.6
			c4.3,2.5,9.2,3.8,14.1,3.8h439.7c5,0,9.9-1.3,14.1-3.8c13.6-7.8,18.2-25.1,10.3-38.6L3226,22.4c-2.5-4.3-6.1-7.8-10.3-10.3
			C3210.9,9.4,3205.8,8.2,3200.8,8.3z M3200.8,56.9c1.5-0.1,3.2,0.2,4.6,1.1c1.2,0.7,2.3,1.7,3,2.9L3403.6,399c2.3,3.9,0.9,8.8-3,11
			c-1.2,0.7-2.6,1.1-4,1.1h-390.4c-4.4,0-8.1-3.6-8.1-8.1c0-1.5,0.4-2.8,1.1-4l195.2-338C3195.8,58.5,3198.2,57.2,3200.8,56.9z"/>
	</g>
	<rect x="3174.5" y="156.5" fill="#1C1D20" width="59.9" height="234.8"/>
	
		<rect x="3076.8" y="310" transform="matrix(-0.863 0.5051 -0.5051 -0.863 6013.3999 -982.5828)" fill="#1C1D20" width="126.3" height="27.9"/>
</g>
<g>
	<path d="M327.3,507.8h-0.2l-12,6l-2.1-9.4l15.9-7.8h10.4V562h-12V507.8z"/>
	<path d="M362.6,555.2c0-4.6,3.2-7.9,7.6-7.9c4.5,0,7.6,3.2,7.6,7.9c0,4.5-3,7.9-7.6,7.9C365.7,563.1,362.6,559.7,362.6,555.2z"/>
	<path d="M430.5,496.6v7.9L402.9,562h-13.1l27.6-54.9v-0.2h-30.8v-10.3H430.5z"/>
	<path d="M440.3,555.2c0-4.6,3.2-7.9,7.6-7.9c4.5,0,7.6,3.2,7.6,7.9c0,4.5-3,7.9-7.6,7.9C443.4,563.1,440.3,559.7,440.3,555.2z"/>
	<path d="M463.2,562v-7.5l7.7-7.1c15.4-14.3,22.6-22.1,22.7-30.8c0-5.8-3.1-11-11.7-11c-5.7,0-10.7,2.9-14,5.4l-3.6-8.8
		c4.7-3.8,11.9-6.7,20.1-6.7c14.5,0,21.5,9.2,21.5,19.8c0,11.5-8.2,20.7-19.6,31.3l-5.7,4.9v0.2h26.9V562H463.2z"/>
	<path d="M517.9,555.2c0-4.6,3.2-7.9,7.6-7.9c4.5,0,7.6,3.2,7.6,7.9c0,4.5-3,7.9-7.6,7.9C521,563.1,517.9,559.7,517.9,555.2z"/>
</g>
<g>
	<path d="M883.6,507.8h-0.2l-12,6l-2.1-9.4l15.9-7.8h10.4V562h-12V507.8z"/>
	<path d="M918.9,555.2c0-4.6,3.2-7.9,7.6-7.9c4.5,0,7.6,3.2,7.6,7.9c0,4.5-3,7.9-7.6,7.9C922,563.1,918.9,559.7,918.9,555.2z"/>
	<path d="M986.8,496.6v7.9L959.1,562h-13.1l27.6-54.9v-0.2h-30.8v-10.3H986.8z"/>
	<path d="M996.5,555.2c0-4.6,3.2-7.9,7.6-7.9c4.5,0,7.6,3.2,7.6,7.9c0,4.5-3,7.9-7.6,7.9C999.7,563.1,996.5,559.7,996.5,555.2z"/>
	<path d="M1022,549.2c2.5,1.5,8.6,4,14.9,4c9.5,0,13.3-5.3,13.2-10.5c0-7.7-7.2-11.1-14.8-11.1h-5.7v-9.1h5.5c5.7,0,13-2.6,13-9.2
		c0-4.4-3.3-8.1-10.5-8.1c-5.3,0-10.7,2.3-13.4,4.1l-2.8-9c3.7-2.6,11-5,18.8-5c13.5,0,20.4,7.4,20.4,16c0,6.8-4,12.5-12.1,15.3v0.2
		c7.9,1.4,14.4,7.4,14.4,16.3c0,11.1-9.3,19.8-25.4,19.8c-7.9,0-14.8-2.2-18.3-4.5L1022,549.2z"/>
	<path d="M1074.2,555.2c0-4.6,3.2-7.9,7.6-7.9c4.5,0,7.6,3.2,7.6,7.9c0,4.5-3,7.9-7.6,7.9C1077.3,563.1,1074.2,559.7,1074.2,555.2z"
		/>
</g>
<g>
	<path d="M1439.9,507.8h-0.2l-12,6l-2.1-9.4l15.9-7.8h10.4V562h-12V507.8z"/>
	<path d="M1475.2,555.2c0-4.6,3.2-7.9,7.6-7.9c4.5,0,7.6,3.2,7.6,7.9c0,4.5-3,7.9-7.6,7.9C1478.3,563.1,1475.2,559.7,1475.2,555.2z"
		/>
	<path d="M1543.1,496.6v7.9l-27.7,57.4h-13.1l27.6-54.9v-0.2h-30.8v-10.3H1543.1z"/>
	<path d="M1552.8,555.2c0-4.6,3.2-7.9,7.6-7.9c4.5,0,7.6,3.2,7.6,7.9c0,4.5-3,7.9-7.6,7.9C1556,563.1,1552.8,559.7,1552.8,555.2z"/>
	<path d="M1603,562v-16.6h-29.6v-8l26.7-40.7h14.6v39.4h8.4v9.4h-8.4V562H1603z M1603,536.1v-17.8c0-3.7,0.1-7.5,0.4-11.4h-0.4
		c-2,4.1-3.7,7.4-5.7,11.1l-12,17.9l-0.1,0.2H1603z"/>
	<path d="M1630.5,555.2c0-4.6,3.2-7.9,7.6-7.9c4.5,0,7.6,3.2,7.6,7.9c0,4.5-3,7.9-7.6,7.9C1633.6,563.1,1630.5,559.7,1630.5,555.2z"
		/>
</g>
<g>
	<path d="M1996.2,507.8h-0.2l-12,6l-2.1-9.4l15.9-7.8h10.4V562h-12V507.8z"/>
	<path d="M2031.5,555.2c0-4.6,3.2-7.9,7.6-7.9c4.5,0,7.6,3.2,7.6,7.9c0,4.5-3,7.9-7.6,7.9C2034.6,563.1,2031.5,559.7,2031.5,555.2z"
		/>
	<path d="M2099.4,496.6v7.9l-27.7,57.4h-13.1l27.6-54.9v-0.2h-30.8v-10.3H2099.4z"/>
	<path d="M2109.1,555.2c0-4.6,3.2-7.9,7.6-7.9c4.5,0,7.6,3.2,7.6,7.9c0,4.5-3,7.9-7.6,7.9C2112.2,563.1,2109.1,559.7,2109.1,555.2z"
		/>
	<path d="M2173.6,506.9h-25.1l-1.9,13.1c1.5-0.2,2.8-0.3,4.7-0.3c5.7,0,11.5,1.3,15.9,4.2c4.9,3.1,8.5,8.6,8.5,16.6
		c0,12.5-10.4,22.6-26.5,22.6c-7.5,0-13.9-1.9-17.3-3.8l2.5-9.4c2.8,1.5,8.4,3.4,14.4,3.4c7.2,0,14.2-4.1,14.2-12
		c0-7.4-5.5-12.4-18.6-12.4c-3.6,0-6.3,0.2-9,0.6l4.3-33h33.8V506.9z"/>
	<path d="M2186.8,555.2c0-4.6,3.2-7.9,7.6-7.9c4.5,0,7.6,3.2,7.6,7.9c0,4.5-3,7.9-7.6,7.9C2189.9,563.1,2186.8,559.7,2186.8,555.2z"
		/>
</g>
<g>
	<path d="M2552.5,507.8h-0.2l-12,6l-2.1-9.4l15.9-7.8h10.4V562h-12V507.8z"/>
	<path d="M2587.8,555.2c0-4.6,3.2-7.9,7.6-7.9c4.5,0,7.6,3.2,7.6,7.9c0,4.5-3,7.9-7.6,7.9C2590.9,563.1,2587.8,559.7,2587.8,555.2z"
		/>
	<path d="M2655.7,496.6v7.9L2628,562h-13.1l27.6-54.9v-0.2h-30.8v-10.3H2655.7z"/>
	<path d="M2665.4,555.2c0-4.6,3.2-7.9,7.6-7.9c4.5,0,7.6,3.2,7.6,7.9c0,4.5-3,7.9-7.6,7.9C2668.5,563.1,2665.4,559.7,2665.4,555.2z"
		/>
	<path d="M2728.2,505.4c-1.8,0-3.8,0-6.3,0.3c-13.7,1.6-20.3,10.1-21.9,19.1h0.3c3.2-3.7,8.1-6.3,14.7-6.3c11.3,0,20,8,20,21.3
		c0,12.5-9.2,23.3-23,23.3c-15.9,0-24.6-12.1-24.6-28.2c0-12.6,4.5-22.8,11.4-29.4c6-5.6,13.9-8.9,23.2-9.7c2.7-0.3,4.7-0.3,6.2-0.2
		L2728.2,505.4z M2722.3,540.5c0-7.5-4.1-13-11.4-13c-4.6,0-8.8,2.8-10.7,6.7c-0.5,1-0.8,2.2-0.8,3.9c0.2,8.6,4.3,15.7,12.3,15.7
		C2718.2,553.9,2722.3,548.3,2722.3,540.5z"/>
	<path d="M2743,555.2c0-4.6,3.2-7.9,7.6-7.9c4.5,0,7.6,3.2,7.6,7.9c0,4.5-3,7.9-7.6,7.9C2746.2,563.1,2743,559.7,2743,555.2z"/>
</g>
<g>
	<path d="M3108.8,507.8h-0.2l-12,6l-2.1-9.4l15.9-7.8h10.4V562h-12V507.8z"/>
	<path d="M3144.1,555.2c0-4.6,3.2-7.9,7.6-7.9c4.5,0,7.6,3.2,7.6,7.9c0,4.5-3,7.9-7.6,7.9C3147.2,563.1,3144.1,559.7,3144.1,555.2z"
		/>
	<path d="M3211.9,496.6v7.9l-27.7,57.4h-13.1l27.6-54.9v-0.2H3168v-10.3H3211.9z"/>
	<path d="M3221.7,555.2c0-4.6,3.2-7.9,7.6-7.9c4.5,0,7.6,3.2,7.6,7.9c0,4.5-3,7.9-7.6,7.9C3224.8,563.1,3221.7,559.7,3221.7,555.2z"
		/>
	<path d="M3289.6,496.6v7.9l-27.7,57.4h-13.1l27.6-54.9v-0.2h-30.8v-10.3H3289.6z"/>
	<path d="M3299.3,555.2c0-4.6,3.2-7.9,7.6-7.9c4.5,0,7.6,3.2,7.6,7.9c0,4.5-3,7.9-7.6,7.9C3302.4,563.1,3299.3,559.7,3299.3,555.2z"
		/>
</g>
</svg>
