<?xml version="1.0" encoding="utf-8"?>
<!-- Generator: Adobe Illustrator 18.0.0, SVG Export Plug-In . SVG Version: 6.00 Build 0)  -->
<!DOCTYPE svg PUBLIC "-//W3C//DTD SVG 1.1//EN" "http://www.w3.org/Graphics/SVG/1.1/DTD/svg11.dtd">
<svg version="1.1" id="Layer_1" xmlns="http://www.w3.org/2000/svg" xmlns:xlink="http://www.w3.org/1999/xlink" x="0px" y="0px"
	 viewBox="163.6 0 632.8 560" enable-background="new 163.6 0 632.8 560" xml:space="preserve">
<g id="svg2" inkscape:version="0.48.4 r9939" sodipodi:docname="1.5.svg.2014_02_08_15_43_55.1.svg" xmlns:sodipodi="http://sodipodi.sourceforge.net/DTD/sodipodi-0.dtd" xmlns:cc="http://creativecommons.org/ns#" xmlns:rdf="http://www.w3.org/1999/02/22-rdf-syntax-ns#" xmlns:dc="http://purl.org/dc/elements/1.1/" xmlns:inkscape="http://www.inkscape.org/namespaces/inkscape" xmlns:svg="http://www.w3.org/2000/svg">
	
		<path id="path5791" sodipodi:nodetypes="cccscccccc" inkscape:connector-curvature="0" fill="#FFFFFF" stroke="#000000" stroke-width="2" d="
		M164.6,515.1c0-7.7,2-15.3,5.9-22L442,23c12.1-21,38.9-28.1,60-16.1c6.7,3.9,12.2,9.4,16.1,16.1l271.5,470.2
		c3.9,6.7,5.9,14.3,5.9,22c0,24.2-19.7,43.9-43.9,43.9h-543C184.3,559,164.6,539.3,164.6,515.1L164.6,515.1z"/>
	<path id="path3001" fill="#FF0000" d="M479.3,10c-11.8,0.3-23.2,6.5-29.5,17.5L178.3,497.6c-9.7,16.8-3.9,38.1,12.8,47.7
		c5.3,3.1,11.4,4.7,17.5,4.7h542.9c6.2,0,12.2-1.6,17.5-4.7c16.8-9.6,22.5-31,12.8-47.7L510.3,27.4c-3.1-5.3-7.5-9.7-12.8-12.8
		C491.7,11.4,485.4,9.9,479.3,10z M479.3,70c1.9-0.1,3.9,0.3,5.7,1.3c1.5,0.9,2.8,2.1,3.7,3.6l241.1,417.5
		c2.8,4.8,1.1,10.9-3.7,13.6c-1.5,0.9-3.2,1.4-5,1.4H239c-5.5,0-10-4.5-10-10c0-1.8,0.5-3.5,1.3-5L471.4,75
		C473.1,72,476.1,70.3,479.3,70z"/>
</g>
<rect x="443" y="193" fill="#1C1D20" width="74" height="290"/>
<rect x="355.5" y="309.8" fill="#1C1D20" width="249" height="34.4"/>
</svg>
