<?xml version="1.0" encoding="utf-8"?>
<!-- Generator: Adobe Illustrator 18.0.0, SVG Export Plug-In . SVG Version: 6.00 Build 0)  -->
<!DOCTYPE svg PUBLIC "-//W3C//DTD SVG 1.1//EN" "http://www.w3.org/Graphics/SVG/1.1/DTD/svg11.dtd">
<svg version="1.1"
	 id="svg2" inkscape:version="0.48.4 r9939" sodipodi:docname="3.15.svg" xmlns:sodipodi="http://sodipodi.sourceforge.net/DTD/sodipodi-0.dtd" xmlns:cc="http://creativecommons.org/ns#" xmlns:rdf="http://www.w3.org/1999/02/22-rdf-syntax-ns#" xmlns:dc="http://purl.org/dc/elements/1.1/" xmlns:inkscape="http://www.inkscape.org/namespaces/inkscape" xmlns:svg="http://www.w3.org/2000/svg"
	 xmlns="http://www.w3.org/2000/svg" xmlns:xlink="http://www.w3.org/1999/xlink" x="0px" y="0px" viewBox="199.9 -0.1 560.1 560.1"
	 enable-background="new 199.9 -0.1 560.1 560.1" xml:space="preserve">
<title  id="title3002">3.15 Ограничение длины</title>
<sodipodi:namedview  inkscape:window-x="-4" inkscape:current-layer="layer1" inkscape:window-maximized="1" inkscape:window-height="1024" inkscape:window-y="-4" inkscape:pageshadow="2" inkscape:document-units="px" inkscape:pageopacity="0.0" inkscape:window-width="1920" id="base" inkscape:cx="285.9258" showgrid="false" inkscape:zoom="1" inkscape:cy="283.89532" pagecolor="#ffffff" bordercolor="#666666" borderopacity="1.0">
	</sodipodi:namedview>
<path id="path5334" sodipodi:ry="29.465372" sodipodi:cy="432.25998" sodipodi:rx="22.107042" sodipodi:type="arc" sodipodi:cx="-87.720657" fill="#FFFFFF" d="
	M760,280c0,154.7-125.3,280-280,280S200,434.7,200,280S325.3,0,480,0S760,125.3,760,280z"/>
<path id="path3003" sodipodi:ry="29.465372" sodipodi:cy="432.25998" sodipodi:rx="22.107042" sodipodi:type="arc" sodipodi:cx="-87.720657" fill="none" stroke="#000000" stroke-width="2" d="
	M759.1,280c0,154.1-125,279.1-279.1,279.1S200.9,434.1,200.9,280S325.9,0.9,480,0.9S759.1,125.9,759.1,280z"/>
<path id="path4775-9" fill="#FF0000" d="M480,9.3C330.5,9.3,209.3,130.5,209.3,280S330.5,550.7,480,550.7S750.7,429.5,750.7,280
	S629.5,9.3,480,9.3z M480,55.1c124.2,0,224.9,100.7,224.9,224.9S604.2,504.9,480,504.9S255.1,404.2,255.1,280S355.8,55.1,480,55.1z"
	/>
<path fill="#FF0000" d="M680.3,382.4C643.1,455.1,567.4,504.9,480,504.9c-124.2,0-224.9-100.7-224.9-224.9S355.8,55.1,480,55.1
	c82.7,0,155,44.7,194,111.2c1.2-8.4,4.9-16.5,11.6-23.1c5.7-5.7,13.2-9.5,21-11.2C658.3,58.1,574.8,9.3,480,9.3
	C330.5,9.3,209.3,130.5,209.3,280S330.5,550.7,480,550.7c97.5,0,183-51.6,230.6-129C696.3,411.6,686.5,399,680.3,382.4z"/>
<g>
	<path id="path7091" sodipodi:nodetypes="cccccccc" inkscape:connector-curvature="0" d="M394.2,88.5v254l-43.5,0l69.1,135.3
		L489,342.5l-43.5,0v-254H394.2z"/>
	<path id="path7091_1_" sodipodi:nodetypes="cccccccc" inkscape:connector-curvature="0" fill="#FF0000" d="M511.7,470.8v-254
		l-44.7,0l71.1-135.3l71.1,135.3l-44.7,0v254H511.7z"/>
</g>
</svg>
