<?xml version="1.0" encoding="utf-8"?>
<!-- Generator: Adobe Illustrator 18.0.0, SVG Export Plug-In . SVG Version: 6.00 Build 0)  -->
<!DOCTYPE svg PUBLIC "-//W3C//DTD SVG 1.1//EN" "http://www.w3.org/Graphics/SVG/1.1/DTD/svg11.dtd">
<svg version="1.1"
	 id="svg2" inkscape:version="0.48.4 r9939" sodipodi:docname="3.17.1.svg" xmlns:sodipodi="http://sodipodi.sourceforge.net/DTD/sodipodi-0.dtd" xmlns:cc="http://creativecommons.org/ns#" xmlns:rdf="http://www.w3.org/1999/02/22-rdf-syntax-ns#" xmlns:dc="http://purl.org/dc/elements/1.1/" xmlns:inkscape="http://www.inkscape.org/namespaces/inkscape" xmlns:svg="http://www.w3.org/2000/svg"
	 xmlns="http://www.w3.org/2000/svg" xmlns:xlink="http://www.w3.org/1999/xlink" x="0px" y="0px" viewBox="199.8 -0.2 560.4 560.4"
	 enable-background="new 199.8 -0.2 560.4 560.4" xml:space="preserve">
<title  id="title3002">3.17.1 Таможня</title>
<sodipodi:namedview  inkscape:guide-bbox="true" inkscape:window-x="-4" inkscape:current-layer="text13015" inkscape:window-maximized="1" inkscape:window-height="1024" inkscape:window-y="-4" inkscape:pageshadow="2" inkscape:document-units="px" inkscape:pageopacity="0.0" inkscape:window-width="1920" showguides="true" id="base" inkscape:cx="520.32616" showgrid="false" inkscape:zoom="1" inkscape:cy="358.60484" pagecolor="#ffffff" bordercolor="#666666" borderopacity="1.0">
	</sodipodi:namedview>
<path id="path12388" sodipodi:ry="93.338097" sodipodi:cy="803.42432" sodipodi:rx="122.47533" sodipodi:type="arc" sodipodi:cx="-321.58774" fill="#FFFFFF" d="
	M760,280c0.1,154.6-125.3,280.1-279.9,280.1c-154.6,0.1-280-125.2-280.1-279.8c0-0.1,0-0.2,0-0.2C200,125.4,325.3,0,479.9-0.1
	c154.6,0,280,125.3,280.1,279.9C760,279.9,760,280,760,280L760,280z"/>
<path id="path12442" sodipodi:ry="93.338097" sodipodi:cy="803.42432" sodipodi:rx="122.47533" sodipodi:type="arc" sodipodi:cx="-321.58774" fill="none" stroke="#000000" stroke-width="2" d="
	M759.2,280c0,154.2-125,279.2-279.2,279.2S200.8,434.2,200.8,280S325.8,0.8,480,0.8S759.2,125.8,759.2,280z"/>
<path id="path8029" sodipodi:nodetypes="cscccscc" inkscape:connector-curvature="0" d="M309.8,302.2c-12.2,0-22.2-9.9-22.2-22.2
	s9.9-22.2,22.2-22.2l0,0h340.5c12.2,0,22.2,9.9,22.2,22.2s-9.9,22.2-22.2,22.2H309.8z"/>
<path id="path8171" inkscape:connector-curvature="0" fill="#FF0000" d="M480,8C329.8,8,208,129.8,208,280s121.8,272,272,272
	s272-121.8,272-272S630.2,8,480,8L480,8z M480,55.1c124.2,0,224.9,100.7,224.9,224.9S604.2,504.9,480,504.9S255.1,404.2,255.1,280
	S355.8,55.1,480,55.1L480,55.1z"/>
<g>
	<path d="M318,335.4c3.8,0.4,6.6,2,8.3,4c1.5,1.9,2.4,4.5,2.4,7.4c0,3.4-1.3,6.3-3.6,8.2c2.5,2,3.7,5.5,3.7,10.3
		c0,9.8-4.6,14.8-14,14.8c-5.8,0-10.1-2.1-12.6-6.2c-1.2-2-1.8-4.3-1.8-7.2c0-3,0.6-5.8,2.1-8.6h7.1c-1.5,3.1-2.3,5.8-2.3,8.2
		c0,2.3,0.6,4.1,2,5.7c1.4,1.4,3.2,2.2,5.4,2.2c4.8,0,7.1-2.8,7.1-8.4c0-2.6-0.4-4.6-1-5.8c-0.7-1.4-2.5-2.2-5.4-2.2v-6
		c1.7,0.4,1.9,0.4,2.3,0.4c2.6,0,4.1-1.8,4.1-5.3c0-2.3-0.3-3.9-1-4.7c-0.4-0.4-1.3-0.7-2.8-0.7V335.4z"/>
	<path d="M338.4,348.2c0-8.4,3.8-12.6,11.3-12.6c3.4,0,5.8,1,7.8,3.4c2-2.4,4.7-3.4,8.4-3.4c4.2,0,7.1,1.4,8.7,4.1
		c1.3,2.3,2,5.4,2,8.6V365c0,5.1-1.1,9.7-3.3,14h-6.9c2.1-5.5,3.2-10,3.2-13.7v-17.6c0-4.2-1.4-6.3-3.9-6.3c-1.5,0-2.6,0.6-3.5,1.7
		c-0.8,1.1-1.2,2.5-1.2,4.2v13H354v-13c0-1.7-0.4-3.1-1.2-4.3c-0.7-1.2-1.9-1.7-3.4-1.7c-2.7,0-4.1,2-4.1,6.3v17.6
		c0,3.7,1.1,8.2,3.4,13.7h-7c-2.2-4.2-3.3-8.9-3.3-14V348.2z"/>
	<path d="M393.8,355.6c2.3-1.4,5-2.1,8.1-2.1c7.3,0,13.7,5.2,13.7,13.3c0,4.1-1.4,7.4-4.3,9.8c-2.6,2.3-6,3.4-10.1,3.4
		c-3.9,0-7.3-1.2-10-3.5c-2.8-2.5-4.4-5.7-4.4-10.4l-0.1-18.4c0-1.4,0.1-2.8,0.2-3.9c0.3-2.7,1.9-4.8,4.6-6.1c1.5-0.7,3.7-1,6.8-1
		c0.7,0,1.7,0.1,3.4,0.2c1.7,0.1,2.9,0.2,3.8,0.2c2.2,0,4.8-0.7,8.2-2.2v7c-1.8,1.2-3.6,1.7-5.6,1.7c-1.3,0-3.3-0.2-5.7-0.7
		c-1.8-0.4-3.2-0.5-4.4-0.5c-3,0-4.4,1.3-4.4,4V355.6z M397.5,373.3c1.1,0.6,2.4,1,3.8,1c3,0,5.2-1.3,6.5-3.8
		c0.6-1.1,0.9-2.3,0.9-3.6c0-3.1-1.4-5.4-3.9-6.7c-1.1-0.7-2.4-0.9-3.6-0.9c-2,0-3.7,0.7-5.2,2c-1.4,1.4-2.1,3.1-2.1,5.1
		C393.9,369.7,395.1,372,397.5,373.3z"/>
	<path d="M435.9,350c-3.9,4.7-5.9,9.3-5.9,13.7c0,5,3.4,8.8,8.2,10l-0.1-0.1c2.3,0.4,4.1,0.7,5.5,0.7c4.3,0,7.6-1.2,9.9-3.4
		c2.1-2,3.2-5.4,3.2-8.9c0-1-0.2-1.9-0.4-3c-0.4-1.2-1.3-2.6-2.3-3.5l-0.1-0.1c-0.2-0.1-0.2-0.1-0.2-0.2c-0.1,0-0.1-0.1-0.1-0.1
		c0.4,1,0.6,2.1,0.6,3.4c0,3.2-1.8,5.6-5.2,7.2c-1.5,0.7-3.3,1-5.2,1c-2.8,0-5-0.7-7.1-2.1c-2.3-1.7-3.4-3.8-3.4-6.7
		c0-2,0.7-3.7,1.9-5.2c0.6-0.6,1.4-1.4,2.1-1.8c-2.2-1.4-3.5-3.8-3.5-6.5c0-3.4,1.5-6,4.6-7.7c1.4-0.7,3.4-1.2,5.8-1.2
		c4.5,0,7.5,1.7,9,4.9c0.6,1.4,0.9,2.7,0.9,4c0,1.5-0.5,3.1-1.6,4.5c4.2,0.7,7.4,3,9.5,6.8c1.1,2.2,1.7,4.8,1.7,7.8
		c0,6.8-3.1,11.5-9.4,14.3c-3.1,1.4-6.8,2.2-11.1,2.2c-6,0-11.2-1.8-14.9-4.8c-3.3-3-5.2-6.9-5.2-11.3c0-5.5,1.7-10.2,5.1-14H435.9z
		 M443.7,361c2.3,0,3.5-1.4,3.5-3.2c0-2.9-1.2-4.4-3.5-4.4c-2,0-3.6,1.7-3.6,4C440.2,359.6,441.7,361,443.7,361z M444,348.6
		c1,0,1.9-0.4,2.5-1.2c0.7-0.7,1-1.7,1-2.8c0-2.2-1.5-3.6-3.7-3.6c-2,0-3.6,1.6-3.6,3.8C440.2,347,441.9,348.6,444,348.6z"/>
	<path d="M505.2,336.7c0,4.6-1.6,7.8-5.1,9.5c-1.4,0.6-3.2,1.3-5.5,2c-3.1,1-4.9,1.5-5.4,1.8c-3.4,1.2-6.1,2.6-7.8,4.1
		c0.9-0.2,1.8-0.4,2.8-0.4c3.5,0,5.8,1,8,3.8c2.4-2.5,5.2-3.8,8.3-3.8c4.7,0,8.2,1.8,10.5,5.5c1.2,1.8,1.8,4.2,1.8,7
		c0,4.4-1.4,8.6-4.2,12.7h-7.8c3.3-4.4,5.1-8.6,5.1-12.4c0-4.7-2.3-7-4.9-7c-1.4,0-2.7,0.6-3.8,1.7c-1.2,1.1-1.7,2.5-1.7,4.3v5h-7
		V365c0-3.1-1.8-5.4-4.8-5.4c-1.5,0-2.8,0.6-3.6,1.8c-0.9,1.2-1.3,2.6-1.3,4.3c0,4.2,2,8.6,5.9,13.3h-8.4c-3-4.8-4.4-9.2-4.4-13.5
		c0-5.2,1.6-10,4.1-13.4c4.6-5,10.2-7.6,15.9-9.7c1.8-0.6,3.8-1.5,4.8-2.4c0.8-0.6,1.4-1.7,1.9-3.3H505.2z"/>
	<path d="M522.1,348.2c0-8.4,3.8-12.6,11.3-12.6c3.4,0,5.8,1,7.8,3.4c2-2.4,4.7-3.4,8.4-3.4c4.2,0,7.1,1.4,8.7,4.1
		c1.3,2.3,2,5.4,2,8.6V365c0,5.1-1.1,9.7-3.3,14h-6.9c2.1-5.5,3.2-10,3.2-13.7v-17.6c0-4.2-1.4-6.3-3.9-6.3c-1.5,0-2.6,0.6-3.5,1.7
		c-0.8,1.1-1.2,2.5-1.2,4.2v13h-7.1v-13c0-1.7-0.4-3.1-1.2-4.3c-0.7-1.2-1.9-1.7-3.4-1.7c-2.7,0-4.1,2-4.1,6.3v17.6
		c0,3.7,1.1,8.2,3.4,13.7h-7c-2.2-4.2-3.3-8.9-3.3-14V348.2z"/>
	<path d="M571,363h4c-2.4-2.2-3.9-4.7-4.6-7.8c-0.4-1.8-0.6-3.8-0.6-5.5c0-6.6,2-10.9,6-12.9c1.7-0.8,3.3-1.3,4.9-1.3
		c2.3,0,4.6,1.2,6.3,2.8c1.8-1.8,4.1-2.8,7-2.8c2.7,0,5,1,6.9,2.8c1.9-1.9,4.5-2.8,7.8-2.8c1.8,0,3.5,0.5,5,1.4c3.4,2,5,5.3,5,9.9
		c0,1.1-0.1,2.2-0.4,3.3c-0.2,1-0.6,2.2-1.1,3.6c-0.4,1.1-1,2.4-1.7,3.8h-7.4c2.4-4.4,3.6-7.9,3.6-10.8c0-1.5-0.4-2.9-1-3.9l0.1,0.1
		c-0.8-1-1.8-1.5-3.2-1.5c-2.6,0-4.1,1.9-4.1,4.6v8h-5.8v-8c0-3.1-1.2-4.6-3.8-4.6c-2.7,0-4,1.5-4,4.6v8h-5.8v-8
		c0-3.1-1.1-4.6-3.3-4.6c-1.7,0-2.7,0.8-3.4,2.4c-0.4,1.2-0.7,3.1-0.7,5.7c0,3.7,0.7,6.5,2.2,8.5c1.2,1.8,2.9,3.1,4.6,3.8
		c1.5,0.7,3.6,1,6,1.4c3.9,0.3,6.6,0.6,8.1,0.9c3.1,0.5,5.8,1.2,8,2.2c4.7,2,7.4,6.3,7.9,12.7h-7c-0.4-4.2-2.4-6.9-5.7-7.9
		c-1.5-0.6-4.6-1.1-7.3-1.5h0.1c-2.8-0.4-6.5-0.6-10.7-0.7h-0.4c-0.2,0-0.4-0.1-0.6-0.1c-1.5-0.1-2.7-0.1-3.8-0.1
		c-2,0-5.2,0.1-7.1,0.2V363z"/>
	<path d="M632.6,379c-2.1-4.9-3.6-10.3-4.7-16.2v0.1c-0.5-2.7-0.7-5.5-0.7-7.8c0-3.8,0.6-7.1,1.8-10c2.7-6.3,7.3-9.5,13.7-9.5
		c4.9,0,8.7,1.8,11.5,5.5c2.6,3.3,4,8.4,4,14c0,4.5-0.9,10.2-2.5,15.9c-0.7,2.3-1.7,5.4-2.8,8h-7.3c2-4.4,3.4-8.7,4.3-12.9
		c0.9-3.9,1.2-7.7,1.2-11.1c0-6-1.7-10.3-4.5-12.4h0.1c-1.3-0.8-2.8-1.2-4.1-1.2c-1.2,0-2.2,0.2-3.1,0.6h0.1
		c-2.1,1.1-3.8,3.3-4.7,6.5c-0.5,1.8-0.7,4.1-0.7,6.5c0,4.3,0.8,9.6,2.3,15.1V370c0.7,2.6,1.8,5.5,3.2,8.9H632.6z"/>
</g>
<g>
	<path d="M365,201.9c1,7.2,3.6,11.6,8.6,14c2.8,1.1,5.8,1.8,9.5,1.8c9,0.1,15-4.3,14.8-9.4c0-3.4-1.9-6.1-6.7-7.8
		c-1.5-0.6-5.3-1.7-11.6-3.1c-6-1.6-10.9-3.1-13.5-4.5c-5.9-3.8-10.5-9.7-10.5-16.3c-0.5-11.3,10.7-21,25.6-20.5
		c16.3,0,26.7,9.3,27.1,23.8l-12.1,1c-0.9-8.7-5.4-13.1-14.6-13.1c-9.5,0-13.6,3.7-13.6,8.2c0,1.7,0.7,3.3,2,4.5
		c1.4,1.4,5.6,2.8,12.4,4.4c7,1.7,12.3,3,15.4,4.5c8.6,4.1,12.6,10.1,12.6,18.1c0.2,11.8-11.1,22.4-26.8,22
		c-19.1,0.5-29.9-10.5-30.4-26.4L365,201.9z"/>
	<path d="M439.2,228.3v-59.2h-22.1v-11.8h57.1v11.8h-22.3v59.2H439.2z"/>
	<path d="M488,166.2c6.3-6.8,14.5-10.2,24.5-10.2c19.7-0.3,34.4,15.8,33.9,36.9c0,13.6-7.3,26.2-17.5,32.6c-4.6,2.3-10.5,4-16.3,4
		c-13.5,0-24.5-6.8-30.1-18.1c-2.7-5.6-4.1-11.6-4.1-17.6C478.3,181.9,481.5,172.9,488,166.2z M497.2,211.6
		c3.9,3.7,9.4,6.3,15.2,6.3c6,0,11.2-2.1,15.2-6.4c3.9-4.3,5.8-10.5,5.8-18.6c0.5-15.3-8.7-25.4-20.8-25.3c-5.5,0-10.8,2.3-15.1,5.9
		v-0.1c-3.9,4.1-6.1,11.1-6.1,20.4C491.4,201.1,493.6,207.4,497.2,211.6z"/>
	<path d="M558.1,228.3v-70.9h27.2c4.7,0,8.3,0.2,10.5,0.7h-0.1c10.7,1.3,17.3,9.4,17.6,20.6c0,6.2-2.2,11.6-6.2,16
		c-4.1,4.3-11,6.4-21,6.4h-15.3v27.2H558.1z M570.7,189.3h15.5c10.2,0,14-3.8,14-10.4c0-4.7-2.6-8.2-6.3-9.2h0.1
		c-1.6-0.4-4.1-0.6-7.9-0.6h-15.3V189.3z"/>
</g>
</svg>
