<?xml version="1.0" encoding="utf-8"?>
<!-- Generator: Adobe Illustrator 18.0.0, SVG Export Plug-In . SVG Version: 6.00 Build 0)  -->
<!DOCTYPE svg PUBLIC "-//W3C//DTD SVG 1.1//EN" "http://www.w3.org/Graphics/SVG/1.1/DTD/svg11.dtd">
<svg version="1.1"
	 id="svg2" inkscape:version="0.48.4 r9939" sodipodi:docname="4.6.svg" xmlns:sodipodi="http://sodipodi.sourceforge.net/DTD/sodipodi-0.dtd" xmlns:cc="http://creativecommons.org/ns#" xmlns:rdf="http://www.w3.org/1999/02/22-rdf-syntax-ns#" xmlns:dc="http://purl.org/dc/elements/1.1/" xmlns:inkscape="http://www.inkscape.org/namespaces/inkscape" xmlns:svg="http://www.w3.org/2000/svg"
	 xmlns="http://www.w3.org/2000/svg" xmlns:xlink="http://www.w3.org/1999/xlink" x="0px" y="0px" viewBox="199 -1 562 562"
	 enable-background="new 199 -1 562 562" xml:space="preserve">
<path id="path6124" sodipodi:ry="29.465372" sodipodi:cy="432.25998" sodipodi:rx="22.107042" sodipodi:type="arc" sodipodi:cx="-87.720657" fill="#FFFFFF" stroke="#000000" stroke-width="2" stroke-miterlimit="10" d="
	M760,280c0,154.6-125.4,280-280,280S200,434.6,200,280S325.4,0,480,0S760,125.4,760,280z"/>
<path fill="#0D69E1" d="M480,16c145.8,0,264,118.2,264,264c0,91.4-46.4,172-117,219.3V334.8c0-49-39.9-88.8-88.8-88.8H374.7v-45.7
	L248.8,273l125.9,72.7V300h163.5c19.2,0,34.8,15.6,34.8,34.8v192.3C544.1,538,512.7,544,480,544c-145.8,0-264-118.2-264-264
	S334.2,16,480,16z"/>
</svg>
