<?xml version="1.0" encoding="utf-8"?>
<!-- Generator: Adobe Illustrator 18.0.0, SVG Export Plug-In . SVG Version: 6.00 Build 0)  -->
<!DOCTYPE svg PUBLIC "-//W3C//DTD SVG 1.1//EN" "http://www.w3.org/Graphics/SVG/1.1/DTD/svg11.dtd">
<svg version="1.1"
	 id="svg2" inkscape:version="0.48.4 r9939" sodipodi:docname="4.6.svg" xmlns:sodipodi="http://sodipodi.sourceforge.net/DTD/sodipodi-0.dtd" xmlns:cc="http://creativecommons.org/ns#" xmlns:rdf="http://www.w3.org/1999/02/22-rdf-syntax-ns#" xmlns:dc="http://purl.org/dc/elements/1.1/" xmlns:inkscape="http://www.inkscape.org/namespaces/inkscape" xmlns:svg="http://www.w3.org/2000/svg"
	 xmlns="http://www.w3.org/2000/svg" xmlns:xlink="http://www.w3.org/1999/xlink" x="0px" y="0px" viewBox="199 -1 562 562"
	 enable-background="new 199 -1 562 562" xml:space="preserve">
<path id="path6124" sodipodi:ry="29.465372" sodipodi:cy="432.25998" sodipodi:rx="22.107042" sodipodi:type="arc" sodipodi:cx="-87.720657" fill="#FFFFFF" stroke="#000000" stroke-width="2" stroke-miterlimit="10" d="
	M760,280c0,154.6-125.4,280-280,280S200,434.6,200,280S325.4,0,480,0S760,125.4,760,280z"/>
<path fill="#0D69E1" d="M480,16c-145.8,0-264,118.2-264,264s118.2,264,264,264s264-118.2,264-264S625.8,16,480,16z"/>
<g>
	<path fill="#1A171B" d="M531.9,84.8l-5.7,0c-3.9-4.8-10.9-6-16.3-2.6c-1.1,0.7-2.1,1.5-2.9,2.5c-2.1-3.2-5.6-5.3-9.6-5.6l0,0
		c-3.4-0.5-7-1.1-11.1-1.3c-4-0.2-7.8-0.1-11.2,0.1c-4.9-0.3-9.3,2.1-11.5,6.1c-2.7-3.7-7.3-5.6-12.2-4.8c-3.4,0.3-7.1,0.6-11.1,1.3
		c-4,0.7-7.6,1.7-10.8,2.7c-2.9,0.5-5.4,1.9-7.2,3.9c-5.9,1.4-11.5,3.5-16.9,6.1c-4.6-0.1-8.7,2.1-10.9,6.3
		c-18.2,12.4-33.1,32.1-44.3,57.8c-1.9,0.2-3.7,0.8-5.5,1.8c-5.9,3.7-7.6,11.4-4,17.3c0.5,0.7,1,1.4,1.5,2
		c-8.3,25.8-13.3,56.2-14.3,90c-3.2,2.3-5.3,6.1-5.3,10.2c0,4.2,2.1,8,5.3,10.2c1,33.8,5.9,64.2,14.3,90c-0.6,0.6-1.1,1.3-1.5,2
		c-3.7,5.9-1.9,13.6,4,17.3c1.7,1.1,3.6,1.7,5.5,1.8c11.2,25.7,26.1,45.4,44.3,57.8c2.2,4.2,6.3,6.5,10.9,6.3
		c5.5,2.7,11,4.7,16.9,6.1c1.8,2,4.3,3.4,7.2,3.9c3.2,0.9,6.9,1.9,10.8,2.7c4.1,0.7,7.8,1,11.1,1.3c4.9,0.9,9.4-1,12.2-4.8
		c2.3,4,6.6,6.4,11.5,6.1c3.3,0.1,7.1,0.3,11.2,0.1c4.1-0.2,7.8-0.8,11.1-1.3l0,0c4.1-0.2,7.5-2.4,9.6-5.6c0.8,1,1.7,1.8,2.9,2.5
		c5.4,3.4,12.4,2.2,16.3-2.6l5.7,0c57.7,0,104.4-86.8,104.7-194C636.9,171.6,589.6,84.8,531.9,84.8z M548.2,421.4
		c-33.4,0-60.5-63.9-60.5-142.6c0-78.8,27.1-142.6,60.5-142.6s60.5,63.9,60.5,142.6C608.6,357.6,581.6,421.4,548.2,421.4z"/>
	<path fill="#FFFFFF" d="M388.3,190c-1-0.7-7.2-4.4-8.5-5.1c-2.7-1.3-8-3.3-9.1-3.8c-2.2-1.1-3.1-3.8-1.9-6c1.2-2.4,3.8-3.1,6-1.9
		c1.9,0.5,7.8,3.1,9.2,3.7c1.8,0.8,7.4,4.5,8.5,5.1v0c2.2,1.1,3.1,3.8,1.9,6C393.2,190.2,390.5,191.1,388.3,190"/>
	<path fill="#FFFFFF" d="M433.7,154.2c-1.2-0.1-8.4-0.3-9.9-0.2c-3,0.2-8.6,1.1-9.8,1.3c-2.5,0.1-4.6-1.8-4.7-4.3
		c-0.1-2.7,1.8-4.6,4.3-4.7l0,0c1.9-0.5,8.4-1.2,9.8-1.3c2-0.2,8.7,0.2,9.9,0.2l0,0c2.5-0.1,4.6,1.8,4.7,4.3
		C438,152,436.1,154.1,433.7,154.2"/>
	<path fill="#FFFFFF" d="M391.4,158.1c-1.2,0.2-8.3,1.4-9.8,1.8c-2.9,0.8-8.2,2.8-9.4,3.2c-2.4,0.6-4.8-0.9-5.4-3.3
		c-0.6-2.6,0.9-4.8,3.3-5.4l0,0c1.7-0.9,8-2.8,9.4-3.2c1.9-0.6,8.5-1.5,9.7-1.7h0c2.4-0.6,4.8,0.9,5.4,3.3
		C395.2,155.1,393.8,157.5,391.4,158.1"/>
	<path fill="#FFFFFF" d="M474,236.7c-1.2-0.2-8.4-1.2-9.8-1.3c-3-0.2-8.7,0.1-9.9,0.2c-2.5-0.2-4.3-2.3-4.2-4.8
		c0.2-2.7,2.3-4.3,4.8-4.2l0,0c1.9-0.3,8.5-0.2,9.9-0.2c2,0,8.6,1.1,9.8,1.3l0,0c2.5,0.2,4.3,2.3,4.2,4.8
		C478.6,235,476.5,236.9,474,236.7"/>
	<path fill="#FFFFFF" d="M490.9,171.5c-0.9-0.8-6.5-5.4-7.7-6.3c-2.5-1.7-7.4-4.5-8.5-5.1c-2-1.4-2.5-4.2-1-6.2
		c1.6-2.2,4.3-2.5,6.3-1l0,0c1.8,0.8,7.3,4.3,8.5,5.1c1.6,1.1,6.7,5.5,7.6,6.3v0c2,1.5,2.5,4.3,1,6.3
		C495.7,172.4,492.9,172.9,490.9,171.5"/>
	<path fill="#FFFFFF" d="M521.5,92.8c0,2.7-2.2,5-5,5c-2.7,0-5-2.2-5-5c0-2.7,2.2-5,5-5C519.3,87.9,521.5,90.1,521.5,92.8"/>
	<path fill="#FFFFFF" d="M495.2,95.8c-1.2-0.2-8.4-1.1-9.9-1.2c-3-0.1-8.7,0.2-9.9,0.3l0,0c-2.5-0.1-4.4-2.3-4.2-4.7
		c0.1-2.7,2.3-4.4,4.7-4.2l0,0c1.9-0.3,8.4-0.3,9.9-0.3c2,0,8.6,1,9.8,1.2l0,0c2.5,0.1,4.4,2.3,4.2,4.7
		C499.8,94.1,497.7,96,495.2,95.8"/>
	<path fill="#FFFFFF" d="M465.7,143.9c11.5-18.6,25.9-32.8,42.7-41.5c3.2,2.7,7.6,3.7,11.6,2.5c0.2,1.5,0.7,3,1.5,4.4
		c1.9,2.8,3.9,6,5.8,9.5c1.2,2.3,2.3,4.5,3.3,6.7c-11.2,5.8-21.5,16.9-30.1,32.1c-2.2-1.9-4.6-4-7.4-6c-3.3-2.4-6.6-4.3-9.4-6
		c-5.1-3.6-11.7-3.3-16.1,1.3C467.2,145.7,466.4,144.8,465.7,143.9"/>
	<path fill="#FFFFFF" d="M455.2,163.8c3.5,0.2,6.9-1,9.5-3.6c0.8,2.1,2.3,4,4.3,5.5c2.9,1.7,6.1,3.7,9.4,6.1c3.3,2.4,6.3,4.8,8.8,7
		c0.9,0.6,1.7,1.1,2.7,1.5c-4.6,12.1-8.3,25.6-11,40.2c-0.9-0.1-1.6-0.2-2.5-0.4l0,0c-3.4-0.6-7-1.2-11.1-1.5
		c-4-0.3-7.8-0.2-11.2-0.1c-4.6-0.3-8.7,1.7-11.1,5.3c-1.2-1.4-2.8-2.5-4.5-3.2C442.1,199.6,447.8,180.5,455.2,163.8"/>
	<path fill="#FFFFFF" d="M367.5,146.5c7.8-13.8,17.1-25.1,27.5-33.6c1.7,2.3,4.2,4.2,7.1,4.9c3.3,0.5,7,1.2,10.9,2.2
		c1.6,0.4,3.1,0.7,2.5,0.6c1.5,0.4,2.9,0.5,4.4,0.3l0,0c0.6,1.6,1.6,3.1,3,4.5c2.6,2.1,5.5,4.6,8.3,7.4c1.6,1.6,3.2,3.2,4.6,4.7
		c-0.6-0.1-1.2-0.1-1.8-0.1l0,0c-3.4-0.2-7.1-0.4-11.2-0.2c-4,0.2-7.8,0.7-11.1,1.2c-4.9,0.2-9,3-10.8,7.2c-3-3.5-7.7-5.2-12.5-4
		l0,0c-3.4,0.5-7,1-11,2C373.9,144.4,370.5,145.5,367.5,146.5"/>
	<path fill="#FFFFFF" d="M439,106.4c0.5,0.4,1,0.7,1.4,1.1c2.6,2.1,5.6,4.5,8.4,7.3c2.9,2.9,5.3,5.7,7.5,8.3
		c4.3,4.2,4.8,10.9,1.7,15.7c1,0.2,1.9,0.4,2.8,0.8c9.4-15.1,20.5-27.3,33.3-36c-2.8-0.4-5.9-0.7-9.2-0.9c-4-0.2-7.8-0.2-11.2-0.1
		c-3.9-0.2-7.2-2.1-9.3-5c-1.8,3.1-4.8,5.4-8.5,6c-3.4,0.3-7.1,0.7-11.2,1.5C442.7,105.6,440.8,106,439,106.4"/>
	<path fill="#FFFFFF" d="M460.9,151.3c0,2.7-2.2,5-5,5c-2.7,0-5-2.2-5-5c0-2.7,2.2-5,5-5C458.7,146.4,460.9,148.6,460.9,151.3"/>
	<path fill="#FFFFFF" d="M443.7,134.3c-0.8-0.9-5.6-6.3-6.7-7.4c-2.2-2.1-6.7-5.6-7.6-6.3c-1.8-1.7-1.8-4.6-0.1-6.3
		c1.9-1.9,4.6-1.8,6.3-0.1l0,0c1.6,1,6.6,5.3,7.7,6.3c1.5,1.3,5.8,6.4,6.6,7.4v0c1.8,1.7,1.8,4.6,0.1,6.3
		C448.3,135.9,445.5,136,443.7,134.3"/>
	<path fill="#FFFFFF" d="M416.3,112.4c-4.1-1-9.7-1.7-10.9-1.9c-2.4-0.6-3.9-3-3.3-5.4c0.6-2.6,3-3.9,5.4-3.3l0,0
		c1.9,0.1,8.4,1.2,9.8,1.5c3.5,0.9,5,3.4,4.4,5.8C421.1,111.5,418.7,113,416.3,112.4"/>
	<path fill="#FFFFFF" d="M453.2,96c-1.2,0.1-8.4,0.9-9.9,1.1c-3,0.6-8.4,2.2-9.6,2.6c-2.4,0.4-4.8-1.2-5.2-3.6
		c-0.5-2.6,1.2-4.8,3.6-5.2l0,0c1.8-0.7,8.1-2.3,9.6-2.6c1.9-0.4,8.6-1,9.8-1.1h0c2.4-0.4,4.8,1.2,5.2,3.6
		C457.2,93.2,455.6,95.6,453.2,96"/>
	<path fill="#FFFFFF" d="M538.7,123.8c-0.5-1.1-3.5-7.7-4.2-9c-1.5-2.6-4.8-7.3-5.4-8.3c-1.2-2.2-0.4-4.9,1.8-6.1
		c2.3-1.3,4.9-0.4,6.1,1.8v0c1.3,1.5,4.7,7,5.5,8.2c1,1.7,3.7,7.9,4.2,9c1.2,2.2,0.4,4.9-1.8,6.1C542.6,126.8,539.9,126,538.7,123.8
		"/>
	<path fill="#FFFFFF" d="M356.3,169.8c0,2.7-2.2,5-5,5c-2.7,0-5-2.2-5-5c0-2.7,2.2-5,5-5C354,164.9,356.3,167.1,356.3,169.8"/>
	<path fill="#FFFFFF" d="M411.6,239.8c-1.2,0.2-8.3,1.8-9.7,2.3c-2.9,0.9-8.1,3.2-9.2,3.6l0,0c-2.4,0.7-4.9-0.6-5.6-3
		c-0.8-2.5,0.6-4.9,3-5.6l0,0c1.7-0.9,7.8-3.2,9.2-3.7c1.9-0.6,8.4-2,9.7-2.2l0,0c2.4-0.7,4.9,0.6,5.6,3
		C415.2,236.6,413.9,239.1,411.6,239.8L411.6,239.8"/>
	<path fill="#FFFFFF" d="M371.4,255.6c-1.1,0.5-7.5,3.9-8.7,4.7c-2.5,1.6-7,5.2-7.9,5.9c-2.1,1.3-4.9,0.7-6.2-1.4
		c-1.4-2.3-0.7-4.9,1.4-6.2c1.4-1.3,6.7-5.1,7.9-5.9c1.6-1.1,7.6-4.1,8.7-4.6c2.1-1.3,4.9-0.7,6.2,1.4
		C374.1,251.6,373.5,254.3,371.4,255.6"/>
	<path fill="#FFFFFF" d="M438.3,231.9c0,2.7-2.2,5-5,5c-2.7,0-5-2.2-5-5s2.2-5,5-5C436.1,227,438.3,229.2,438.3,231.9"/>
	<path fill="#FFFFFF" d="M403.9,187.2c4.7-2.1,10-0.9,13.7,3c2.5,2.2,5.4,4.7,8.2,7.6c2.9,3,5.1,5.9,7.2,8.6v0
		c0.6,0.6,1.1,1.3,1.5,2c3.6-16.9,8.5-32.4,14.6-46.4c-0.6-0.4-1.2-0.9-1.8-1.4c-1.1-1-1.9-2.2-2.6-3.4c-2.2,3-5.5,4.9-9.4,5.1
		c-3.4-0.2-7.2-0.2-11.3,0c-4,0.2-7.8,0.6-11.1,1c-4,0.2-7.7-1.5-10.1-4.4c-1.5,3.3-4.4,5.9-8.3,6.9c-3.4,0.5-7.1,1.2-11.1,2.2
		c1.3,0.6,2.6,1.3,4,2c3.7,1.9,6.8,3.9,9.6,5.7C401.6,177.9,404.1,182.5,403.9,187.2"/>
	<path fill="#FFFFFF" d="M420,217c-0.8-1-5.4-6.5-6.4-7.6c-2.1-2.1-6.5-5.8-7.4-6.6l0,0c-1.7-1.8-1.7-4.6,0.1-6.3
		c1.9-1.8,4.6-1.7,6.3,0.1c1.6,1.1,6.4,5.5,7.5,6.5c1.4,1.4,5.6,6.6,6.3,7.6l0,0c1.7,1.8,1.7,4.6-0.1,6.3
		C424.6,218.8,421.7,218.8,420,217"/>
	<path fill="#FFFFFF" d="M339.7,258.1c1.4-28.2,5.8-53.8,12.6-75.8c1.9-0.2,3.9-0.8,5.7-1.9c0.5-0.3,1-0.7,1.5-1.1
		c0.8,3.4,3.1,6.4,6.4,8.1c3.1,1.2,6.6,2.8,10.2,4.6c3.7,1.9,6.9,3.8,9.8,5.7c3.3,1.7,7,1.8,10.2,0.5c-0.1,3.3,1.1,6.5,3.5,9.1
		c2.5,2.2,5.3,4.8,8.1,7.7c2.7,2.9,5.2,5.7,7.3,8.3c-2.2-0.6-4.6-0.7-7,0.1l0,0c-3.3,0.6-7,1.4-10.9,2.5c-3.9,1.2-7.4,2.6-10.5,3.9
		c-5.3,1.6-8.8,6.1-8.9,11.5c-4-3-9.6-3.4-14.1-0.6c-3,1.5-6.4,3.1-9.9,5.3c-3.4,2.1-6.4,4.4-9.1,6.5
		C342.2,254,340.6,255.8,339.7,258.1"/>
	<path fill="#FFFFFF" d="M388.3,367.6c2.2-1.1,4.9-0.3,6,1.9c1.1,2.2,0.3,4.9-1.9,6v0c-1,0.7-6.7,4.3-8.5,5.1
		c-1.3,0.6-7.3,3.2-9.2,3.7c-2.2,1.1-4.8,0.4-6-1.9c-1.1-2.2-0.3-4.9,1.9-6c1.1-0.4,6.4-2.4,9.1-3.8
		C381.1,372,387.3,368.3,388.3,367.6"/>
	<path fill="#FFFFFF" d="M433.7,403.4c2.5,0.1,4.4,2.2,4.2,4.7c-0.1,2.5-2.2,4.4-4.7,4.3l0,0c-1.2,0.1-7.9,0.4-9.9,0.2
		c-1.4-0.1-8-0.8-9.8-1.3l0,0c-2.5-0.1-4.4-2-4.3-4.7c0.1-2.5,2.2-4.4,4.7-4.3c1.2,0.2,6.8,1.1,9.8,1.3
		C425.2,403.7,432.4,403.5,433.7,403.4"/>
	<path fill="#FFFFFF" d="M391.4,399.4c2.4,0.6,3.8,3,3.2,5.4c-0.6,2.4-3,3.9-5.4,3.3h0c-1.2-0.2-7.9-1.2-9.7-1.7
		c-1.4-0.4-7.6-2.4-9.4-3.2h0c-2.4-0.6-3.9-2.8-3.3-5.4c0.6-2.4,3-3.9,5.4-3.3c1.1,0.4,6.5,2.4,9.4,3.2
		C383.1,398,390.2,399.3,391.4,399.4"/>
	<path fill="#FFFFFF" d="M474,320.8c2.5-0.2,4.6,1.7,4.7,4.2c0.2,2.5-1.7,4.6-4.2,4.8l0,0c-1.2,0.2-7.8,1.3-9.8,1.3
		c-1.5,0-8,0.1-9.9-0.2l0,0c-2.5,0.2-4.6-1.5-4.8-4.2c-0.2-2.5,1.7-4.6,4.2-4.8c1.2,0,6.9,0.3,9.9,0.2
		C465.6,322,472.8,321,474,320.8"/>
	<path fill="#FFFFFF" d="M490.9,386.1c2-1.4,4.8-1,6.2,1c1.4,2,1,4.8-1,6.3v0c-0.9,0.8-6,5.2-7.6,6.3c-1.2,0.8-6.7,4.3-8.5,5.1l0,0
		c-2,1.4-4.7,1.1-6.3-1c-1.4-2-1-4.8,1-6.2c1-0.6,6-3.4,8.5-5.1C484.5,391.5,490,386.9,490.9,386.1"/>
	<path fill="#FFFFFF" d="M521.5,464.7c0,2.7-2.2,5-5,5c-2.7,0-5-2.2-5-5c0-2.7,2.2-5,5-5C519.3,459.8,521.5,462,521.5,464.7"/>
	<path fill="#FFFFFF" d="M495.2,461.7c2.5-0.1,4.6,1.8,4.7,4.2c0.1,2.5-1.8,4.6-4.2,4.7h0c-1.2,0.2-7.9,1.2-9.8,1.2
		c-1.5,0-8,0-9.9-0.3l0,0c-2.5,0.1-4.6-1.6-4.7-4.2c-0.1-2.5,1.8-4.6,4.2-4.7l0,0c1.2,0,6.9,0.4,9.9,0.3
		C486.8,462.8,494,461.9,495.2,461.7"/>
	<path fill="#FFFFFF" d="M465.7,413.7c0.7-0.9,1.4-1.9,1.9-2.9c4.4,4.5,11,4.9,16.1,1.3c2.9-1.7,6.2-3.6,9.4-6c2.8-2,5.2-4.1,7.4-6
		c8.6,15.2,18.9,26.3,30.1,32.1c-1,2.1-2.1,4.4-3.3,6.7c-1.9,3.5-3.9,6.8-5.8,9.5c-0.8,1.4-1.3,2.9-1.5,4.4c-4-1.2-8.4-0.2-11.6,2.5
		C491.6,446.5,477.2,432.3,465.7,413.7"/>
	<path fill="#FFFFFF" d="M455.2,393.8c-7.4-16.7-13.1-35.8-16.8-56.8c1.7-0.8,3.3-1.8,4.5-3.2c2.4,3.6,6.5,5.6,11.1,5.3
		c3.3,0.1,7.1,0.2,11.2-0.1c4.1-0.3,7.8-0.9,11.1-1.5l0,0c0.9-0.2,1.6-0.3,2.5-0.4c2.7,14.6,6.5,28.1,11,40.2
		c-1,0.4-1.8,0.8-2.7,1.5c-2.6,2.2-5.5,4.6-8.8,7c-3.3,2.4-6.5,4.4-9.4,6.1c-2,1.4-3.5,3.3-4.3,5.5
		C462.1,394.7,458.7,393.5,455.2,393.8"/>
	<path fill="#FFFFFF" d="M473.6,278.9c0,11.6,0.6,22.9,1.8,33.7c-0.4,0-0.5,0.1-0.6,0.1c-3.4,0.6-7.1,1-11.2,1.3
		c-4,0.3-7.8,0.3-11.2,0.2c-3.5,0.2-6.6,1.8-8.7,4.3c-1.9-2.8-5-4.8-8.6-5.3c-1.1-11.1-1.6-22.6-1.7-34.4c0-11.9,0.6-23.3,1.7-34.4
		c3.5-0.5,6.6-2.5,8.6-5.3c2.1,2.5,5.1,4.1,8.7,4.3c3.3-0.1,7.1-0.1,11.2,0.2c4.1,0.3,7.9,0.7,11.2,1.3c0.1,0,0.2,0.1,0.6,0.1
		c-1.1,10.9-1.8,22.2-1.8,33.7V278.9"/>
	<path fill="#FFFFFF" d="M628.7,278.8L628.7,278.8c-0.2-94.8-37.2-172.8-86.5-183.1c0.4,0.5,0.8,1,1.1,1.6c1.9,2.8,4,5.9,5.9,9.5
		c2,3.6,3.4,7,4.8,10.2v0c0.8,1.5,1.3,3.2,1.5,4.8c37.8,7.8,67.3,75.1,67.3,157v0.2c0,81.9-29.5,149.3-67.3,157
		c-0.2,1.6-0.6,3.3-1.5,4.8v0c-1.3,3.1-2.8,6.5-4.8,10.2c-1.9,3.5-4.1,6.7-5.9,9.5c-0.3,0.6-0.7,1.1-1.1,1.6
		C591.6,451.6,628.5,373.6,628.7,278.8"/>
	<path fill="#FFFFFF" d="M367.5,411c3,1.1,6.4,2.1,10.1,3c4,1,7.7,1.5,11,2l0,0c4.7,1.2,9.5-0.6,12.5-4c1.9,4.2,5.9,7,10.8,7.2
		c3.3,0.5,7.1,1,11.1,1.2c4.1,0.2,7.8,0,11.2-0.2l0,0c0.6,0,1.2,0,1.8-0.1c-1.4,1.5-3,3.1-4.6,4.7c-2.9,2.8-5.7,5.3-8.3,7.4
		c-1.3,1.3-2.3,2.8-3,4.5l0,0c-1.5-0.2-2.9-0.1-4.4,0.3c0.6-0.1-0.9,0.2-2.5,0.6c-3.9,0.9-7.6,1.7-10.9,2.2c-3,0.7-5.5,2.6-7.1,4.9
		C384.6,436.1,375.3,424.8,367.5,411"/>
	<path fill="#FFFFFF" d="M439,451.2c1.8,0.4,3.8,0.8,5.8,1.2c4.1,0.7,7.8,1.2,11.2,1.5c3.8,0.7,6.8,3,8.5,6c2.1-3,5.4-4.8,9.3-5
		c3.3,0.1,7.1,0.1,11.2-0.1c3.3-0.2,6.4-0.5,9.2-0.9c-12.8-8.7-24-20.9-33.3-36c-0.9,0.4-1.8,0.7-2.8,0.8c3.1,4.9,2.6,11.5-1.7,15.7
		c-2.2,2.6-4.6,5.4-7.5,8.3c-2.9,2.8-5.8,5.2-8.4,7.3C439.9,450.5,439.4,450.8,439,451.2"/>
	<path fill="#FFFFFF" d="M460.9,406.2c0,2.7-2.2,5-5,5c-2.7,0-5-2.2-5-5c0-2.7,2.2-5,5-5C458.7,401.2,460.9,403.5,460.9,406.2"/>
	<path fill="#FFFFFF" d="M443.7,423.3c1.8-1.7,4.6-1.7,6.3,0.1c1.7,1.8,1.7,4.6-0.1,6.3v0c-0.8,0.9-5.1,6.1-6.6,7.4
		c-1.1,1-6,5.3-7.7,6.3l0,0c-1.8,1.7-4.5,1.8-6.3-0.1c-1.7-1.8-1.7-4.6,0.1-6.3c0.9-0.8,5.4-4.2,7.6-6.3
		C438.1,429.6,442.9,424.2,443.7,423.3"/>
	<path fill="#FFFFFF" d="M416.3,445.2c2.4-0.6,4.8,0.9,5.4,3.3c0.6,2.4-0.9,4.8-4.4,5.8c-1.4,0.3-7.9,1.5-9.8,1.5l0,0
		c-2.4,0.6-4.8-0.7-5.4-3.3c-0.6-2.4,0.9-4.8,3.3-5.4C406.6,446.9,412.2,446.2,416.3,445.2"/>
	<path fill="#FFFFFF" d="M453.2,461.5c2.4,0.4,4,2.8,3.6,5.2c-0.4,2.4-2.8,4.1-5.2,3.6l0,0c-1.2-0.1-7.9-0.7-9.8-1.1
		c-1.4-0.3-7.8-1.9-9.6-2.6l0,0c-2.4-0.4-4.1-2.6-3.6-5.2c0.4-2.4,2.8-4,5.2-3.6c1.2,0.3,6.6,2,9.6,2.6
		C444.8,460.7,451.9,461.5,453.2,461.5"/>
	<path fill="#FFFFFF" d="M538.7,433.7c1.2-2.2,3.9-2.9,6.1-1.8c2.2,1.2,3,3.9,1.8,6.1c-0.5,1.1-3.1,7.3-4.2,9
		c-0.8,1.2-4.2,6.8-5.5,8.2v0c-1.2,2.2-3.8,3.1-6.1,1.8c-2.2-1.2-3-3.9-1.8-6.1c0.7-1,4-5.6,5.4-8.3
		C535.2,441.4,538.2,434.8,538.7,433.7"/>
	<path fill="#FFFFFF" d="M356.3,387.7c0,2.7-2.2,5-5,5c-2.7,0-5-2.2-5-5c0-2.7,2.2-5,5-5C354,382.8,356.3,385,356.3,387.7"/>
	<path fill="#FFFFFF" d="M612.8,278.8c0,77.6-28.7,145.8-62.7,145.8c-21,0-40.3-26-52-64.2c4.9,7.8,10.6,12.2,16.6,12.2
		c18.6,0,33.6-41.9,33.8-93.8c-0.2-51.9-15.3-93.8-33.8-93.8c-6,0-11.7,4.4-16.6,12.2c11.7-38.1,31-64.2,52-64.2
		C584.1,133,612.8,201.2,612.8,278.8"/>
	<path fill="#FFFFFF" d="M411.6,317.7L411.6,317.7c2.3,0.7,3.7,3.2,3,5.5c-0.7,2.4-3.2,3.7-5.6,3l0,0c-1.2-0.2-7.8-1.5-9.7-2.2
		c-1.4-0.5-7.5-2.7-9.2-3.7h0c-2.4-0.7-3.8-3-3-5.6c0.7-2.4,3.2-3.7,5.6-3l0,0c1.1,0.5,6.3,2.7,9.2,3.6
		C403.3,315.9,410.4,317.5,411.6,317.7"/>
	<path fill="#FFFFFF" d="M340.1,278.8c0,2.7-2.2,5-5,5c-2.7,0-5-2.2-5-5c0-2.7,2.2-5,5-5C337.9,273.8,340.1,276,340.1,278.8"/>
	<path fill="#FFFFFF" d="M371.4,301.9c2.1,1.3,2.7,4,1.4,6.2c-1.3,2.1-4.1,2.7-6.2,1.4c-1.1-0.5-7.1-3.5-8.7-4.6
		c-1.2-0.8-6.5-4.6-7.9-5.9c-2.1-1.3-2.8-3.9-1.4-6.2c1.3-2.1,4.1-2.7,6.2-1.4c1,0.7,5.4,4.3,7.9,5.9
		C363.9,298,370.3,301.4,371.4,301.9"/>
	<path fill="#FFFFFF" d="M438.3,325.6c0,2.7-2.2,5-5,5c-2.7,0-5-2.2-5-5c0-2.7,2.2-5,5-5C436.1,320.6,438.3,322.9,438.3,325.6"/>
	<path fill="#FFFFFF" d="M403.9,370.4c0.2,4.7-2.3,9.3-6.8,11.5c-2.9,1.8-6,3.9-9.6,5.7c-1.4,0.7-2.7,1.4-4,2c4,1,7.8,1.7,11.1,2.2
		c3.8,0.9,6.7,3.5,8.3,6.9c2.4-2.9,6-4.6,10.1-4.4c3.3,0.5,7.1,0.9,11.1,1c4.1,0.2,7.9,0.1,11.3,0c3.9,0.2,7.3,2.1,9.4,5.1
		c0.6-1.2,1.5-2.4,2.6-3.4c0.6-0.5,1.2-1,1.8-1.4c-6.1-14-11-29.5-14.6-46.4c-0.4,0.7-0.9,1.4-1.5,2v0c-2.1,2.7-4.4,5.6-7.2,8.6
		c-2.8,2.9-5.7,5.4-8.2,7.6C413.9,371.3,408.6,372.5,403.9,370.4"/>
	<path fill="#FFFFFF" d="M420,340.6c1.7-1.8,4.5-1.8,6.3-0.1c1.8,1.7,1.8,4.6,0.1,6.3l0,0c-0.8,1-4.9,6.2-6.3,7.6
		c-1,1-5.8,5.4-7.5,6.5c-1.7,1.8-4.4,2-6.3,0.1c-1.8-1.7-1.9-4.6-0.1-6.3l0,0c0.9-0.8,5.3-4.4,7.4-6.6
		C414.7,347.1,419.3,341.5,420,340.6"/>
	<path fill="#FFFFFF" d="M339.7,299.4c1,2.3,2.6,4.2,4.9,5.6c2.7,2,5.7,4.3,9.1,6.5c3.5,2.2,6.8,3.8,9.9,5.3
		c4.5,2.8,10.1,2.4,14.1-0.6c0.1,5.4,3.6,9.9,8.9,11.5c3.1,1.3,6.6,2.7,10.5,3.9c3.9,1.2,7.6,1.9,10.9,2.5l0,0
		c2.4,0.7,4.8,0.7,7,0.1c-2,2.6-4.5,5.4-7.3,8.3c-2.8,2.9-5.6,5.5-8.1,7.7c-2.4,2.6-3.7,5.8-3.5,9.1c-3.2-1.3-6.9-1.2-10.2,0.5
		c-2.9,1.8-6.1,3.8-9.8,5.7c-3.6,1.8-7,3.4-10.2,4.6c-3.4,1.7-5.6,4.7-6.4,8.1c-0.5-0.4-1-0.7-1.5-1.1c-1.7-1.1-3.7-1.7-5.7-1.9
		C345.4,353.2,341.1,327.7,339.7,299.4"/>
	<path fill="#FFFFFF" d="M427.5,278.8c0-12,0.6-23.7,1.7-35.1c-2.4-0.8-4.4-2.3-5.9-4.2c-1.3,3.6-4.2,6.5-8.1,7.7
		c-3.3,0.6-7,1.5-11,2.7c-3.9,1.2-7.4,2.5-10.5,3.7c-4,1.2-8,0.4-11.1-1.9c-0.2,4-2.1,7.8-5.8,10.1c-3,1.5-6.4,3.3-9.9,5.5
		c-3.4,2.1-6.5,4.3-9.2,6.3c-3.4,2.1-7.3,2.4-10.7,1.2c0.3,0.9,0.5,1.9,0.6,2.8c0,0.4,0,0.8,0,1.1v-0.1c0,0.4,0,0.8,0,1.1
		c-0.1,1-0.3,2-0.6,2.8c3.5-1.2,7.4-0.9,10.7,1.2c2.7,2,5.8,4.2,9.2,6.3c3.5,2.2,6.8,4,9.9,5.5c3.7,2.3,5.6,6.1,5.8,10.1
		c3.1-2.3,7.1-3.1,11.1-1.9c3.1,1.3,6.7,2.6,10.5,3.7c3.9,1.2,7.6,2.1,11,2.7c4,1.2,6.8,4.1,8.1,7.7c1.5-2,3.5-3.4,5.9-4.2
		C428.1,302.5,427.4,290.8,427.5,278.8"/>
</g>
</svg>
