<?xml version="1.0" encoding="utf-8"?>
<!-- Generator: Adobe Illustrator 18.0.0, SVG Export Plug-In . SVG Version: 6.00 Build 0)  -->
<!DOCTYPE svg PUBLIC "-//W3C//DTD SVG 1.1//EN" "http://www.w3.org/Graphics/SVG/1.1/DTD/svg11.dtd">
<svg version="1.1"
	 id="svg2" inkscape:version="0.48.4 r9939" sodipodi:docname="5.27.svg" xmlns:sodipodi="http://sodipodi.sourceforge.net/DTD/sodipodi-0.dtd" xmlns:cc="http://creativecommons.org/ns#" xmlns:rdf="http://www.w3.org/1999/02/22-rdf-syntax-ns#" xmlns:dc="http://purl.org/dc/elements/1.1/" xmlns:inkscape="http://www.inkscape.org/namespaces/inkscape" xmlns:svg="http://www.w3.org/2000/svg"
	 xmlns="http://www.w3.org/2000/svg" xmlns:xlink="http://www.w3.org/1999/xlink" x="0px" y="0px" viewBox="-142.9 -2 1303.5 699.2"
	 enable-background="new -142.9 -2 1303.5 699.2" xml:space="preserve">
<title  id="title3004">5.31 Зона с ограничением максимальной скорости</title>
<sodipodi:namedview  inkscape:window-x="-4" inkscape:current-layer="layer1" inkscape:window-maximized="1" inkscape:window-height="1024" inkscape:window-y="-4" inkscape:pageshadow="2" inkscape:document-units="px" inkscape:pageopacity="0.0" inkscape:window-width="1920" id="base" inkscape:cx="312.96358" showgrid="false" inkscape:zoom="1" inkscape:cy="512.83979" pagecolor="#ffffff" bordercolor="#666666" borderopacity="1.0">
	</sodipodi:namedview>
<g>
	<path id="rect3256_2_" fill="#FFFFFF" d="M-114.6-1.6h317.3c15.5,0,28,12.5,28,28v504c0,15.5-12.5,28-28,28h-317.3
		c-15.5,0-28-12.5-28-28v-504C-142.6,10.9-130.1-1.6-114.6-1.6z"/>
	<path id="rect3041_2_" fill="none" stroke="#000000" stroke-width="2" d="M-114.6-1h317.3c15.1,0,27.4,12.3,27.4,27.4v504
		c0,15.1-12.3,27.4-27.4,27.4h-317.3c-15.1,0-27.4-12.3-27.4-27.4v-504C-141.9,11.3-129.7-1-114.6-1z"/>
	<path id="rect8666_2_" d="M-114.6,10.9c-8.6,0-15.6,6.9-15.6,15.6v504c0,8.6,6.9,15.6,15.6,15.6h317.3c8.6,0,15.6-7,15.6-15.6v-504
		c0-8.6-7-15.6-15.6-15.6H-114.6z M-114.6,17.1h317.3c5.2,0,9.3,4.2,9.3,9.3v504c0,5.2-4.2,9.3-9.3,9.3h-317.3
		c-5.2,0-9.3-4.2-9.3-9.3v-504C-123.9,21.3-119.7,17.1-114.6,17.1z"/>
	<g>
		<path id="path10119_2_" inkscape:connector-curvature="0" d="M-67,327v60.4h29.2v-25.1h62c2.2,8.6,10.1,15.1,19.5,15.1
			c9.4,0,17.2-6.4,19.5-15.1h62v25.1h29.2V327h-29.2v25.1h-62C60.8,343.4,53,337,43.6,337c-9.4,0-17.2,6.4-19.5,15.1h-62V327H-67z"
			/>
		<rect id="rect10131_2_" x="-66" y="306.9" width="221.2" height="10.1"/>
		<path id="rect10133_2_" inkscape:connector-curvature="0" fill="#FF8000" d="M-48.9,37.4c-10,0-18.1,8.1-18.1,18.1v181v42.2v18.1
			h18.1h185h18.1v-18.1v-42.2v-181c0-10-8.1-18.1-18.1-18.1H-48.9z"/>
	</g>
	<g>
		
			<path id="path7369" sodipodi:ry="93.338097" sodipodi:cy="803.42432" sodipodi:rx="122.47533" sodipodi:type="arc" sodipodi:cx="-321.58774" fill="#FFFFFF" stroke="#000000" stroke-width="2" stroke-miterlimit="10" d="
			M-14.4,470.1c0-32.3,26.2-58.5,58.5-58.5s58.5,26.2,58.5,58.5s-26.2,58.5-58.5,58.5S-14.4,502.4-14.4,470.1z"/>
		<path id="path7362" sodipodi:nodetypes="sscccccccss" inkscape:connector-curvature="0" fill="#0D69E1" d="M-10.7,470.2
			c0,28.2,21.5,51.5,48.9,54.3v-71.3h-9.6l15.2-26.4l15.2,26.4h-9.6v71.3c27.5-2.8,48.9-26.1,48.9-54.3c0-30.1-24.5-54.6-54.6-54.6
			S-10.7,440.1-10.7,470.2z"/>
	</g>
</g>
<g>
	<path d="M-40.8,661.6V645h-29.6v-8l26.7-40.7h14.6v39.4h8.4v9.4h-8.4v16.6H-40.8z M-40.8,635.6v-17.8c0-3.7,0.1-7.5,0.4-11.4h-0.4
		c-2,4.1-3.7,7.4-5.7,11.1l-12,17.9l-0.1,0.2H-40.8z"/>
	<path d="M-13.3,654.7c0-4.6,3.2-7.9,7.6-7.9c4.5,0,7.6,3.2,7.6,7.9c0,4.5-3,7.9-7.6,7.9C-10.2,662.7-13.3,659.3-13.3,654.7z"/>
	<path d="M14.6,652.7c1.9,0.2,3.8,0.1,6.8-0.2c4.8-0.4,9.7-2.1,13.3-5c4.2-3.4,7.1-8.3,8.3-14.5l-0.2-0.1c-3.3,3.7-7.9,5.8-14.3,5.8
		c-11.4,0-19.8-8.2-19.8-20.3c0-12.5,9.7-23.3,23.6-23.3c15.2,0,23.3,12,23.3,27.9c0,14-4.6,23.9-11.4,30.4
		c-5.7,5.3-13.6,8.3-22.3,9c-2.8,0.3-5.6,0.3-7.4,0.2V652.7z M21.1,617.7c0.1,6.7,3.9,12,10.8,12c5,0,8.6-2.3,10.6-5.4
		c0.4-0.8,0.7-1.8,0.7-3.5c0.1-8.8-3.2-16.5-11.3-16.5C25.6,604.2,21.1,609.8,21.1,617.7z"/>
	<path d="M64.3,654.7c0-4.6,3.2-7.9,7.6-7.9c4.5,0,7.6,3.2,7.6,7.9c0,4.5-3,7.9-7.6,7.9C67.4,662.7,64.3,659.3,64.3,654.7z"/>
	<path d="M106.7,607.4h-0.2l-12,6l-2.1-9.4l15.9-7.8h10.4v65.4h-12V607.4z"/>
	<path d="M141.9,654.7c0-4.6,3.2-7.9,7.6-7.9c4.5,0,7.6,3.2,7.6,7.9c0,4.5-3,7.9-7.6,7.9C145.1,662.7,141.9,659.3,141.9,654.7z"/>
</g>
<g>
	<path id="rect3256_1_" fill="#FFFFFF" d="M350.1,0h317.3c15.5,0,28,12.5,28,28v504c0,15.5-12.5,28-28,28H350.1
		c-15.5,0-28-12.5-28-28V28C322.1,12.5,334.6,0,350.1,0z"/>
	<path id="rect3041_1_" fill="none" stroke="#000000" stroke-width="2" d="M350.1,0.6h317.3c15.1,0,27.4,12.3,27.4,27.4v504
		c0,15.1-12.3,27.4-27.4,27.4H350.1c-15.1,0-27.4-12.3-27.4-27.4V28C322.7,12.9,335,0.6,350.1,0.6z"/>
	<path id="rect8666_1_" d="M350.1,12.4c-8.6,0-15.6,6.9-15.6,15.6v504c0,8.6,6.9,15.6,15.6,15.6h317.3c8.6,0,15.6-7,15.6-15.6V28
		c0-8.6-7-15.6-15.6-15.6H350.1z M350.1,18.7h317.3c5.2,0,9.3,4.2,9.3,9.3v504c0,5.2-4.2,9.3-9.3,9.3H350.1c-5.2,0-9.3-4.2-9.3-9.3
		V28C340.8,22.8,345,18.7,350.1,18.7z"/>
	<g>
		<path id="path10119_1_" inkscape:connector-curvature="0" d="M397.7,328.5v60.4h29.2v-25.1h62c2.2,8.6,10.1,15.1,19.5,15.1
			s17.2-6.4,19.5-15.1h62v25.1h29.2v-60.4h-29.2v25.1h-62c-2.2-8.6-10.1-15.1-19.5-15.1s-17.2,6.4-19.5,15.1h-62v-25.1H397.7z"/>
		<rect id="rect10131_1_" x="398.7" y="308.4" width="221.2" height="10.1"/>
		<path id="rect10133_1_" inkscape:connector-curvature="0" fill="#FF8000" d="M415.8,39c-10,0-18.1,8.1-18.1,18.1v181v42.2v18.1
			h18.1h185h18.1v-18.1v-42.2v-181c0-10-8.1-18.1-18.1-18.1H415.8z"/>
	</g>
	<g>
		
			<path id="path6124_1_" sodipodi:ry="29.465372" sodipodi:cy="432.25998" sodipodi:rx="22.107042" sodipodi:type="arc" sodipodi:cx="-87.720657" fill="#FFFFFF" stroke="#000000" stroke-width="2" stroke-miterlimit="10" d="
			M568.7,472.4c0,32.7-26.5,59.2-59.2,59.2s-59.2-26.5-59.2-59.2s26.5-59.2,59.2-59.2S568.7,439.7,568.7,472.4z"/>
		<path fill="#0D69E1" d="M509.5,416.5c-30.8,0-55.8,25-55.8,55.8c0,19.3,9.8,36.4,24.7,46.4V484c0-10.4,8.4-18.8,18.8-18.8h34.6
			v-9.7l26.6,15.4l-26.6,15.4v-9.7h-34.6c-4.1,0-7.4,3.3-7.4,7.4v40.7c6.1,2.3,12.7,3.6,19.7,3.6c30.8,0,55.8-25,55.8-55.8
			S540.4,416.5,509.5,416.5z"/>
	</g>
</g>
<g>
	<path d="M423.9,672.1v-16.6h-29.6v-8l26.7-40.7h14.6v39.4h8.4v9.4h-8.4v16.6H423.9z M423.9,646.2v-17.8c0-3.7,0.1-7.5,0.4-11.4
		h-0.4c-2,4.1-3.7,7.4-5.7,11.1l-12,17.9l-0.1,0.2H423.9z"/>
	<path d="M451.4,665.3c0-4.6,3.2-7.9,7.6-7.9c4.5,0,7.6,3.2,7.6,7.9c0,4.5-3,7.9-7.6,7.9C454.5,673.3,451.4,669.8,451.4,665.3z"/>
	<path d="M479.3,663.3c1.9,0.2,3.8,0.1,6.8-0.2c4.8-0.4,9.7-2.1,13.3-5c4.2-3.4,7.1-8.3,8.3-14.5l-0.2-0.1
		c-3.3,3.7-7.9,5.8-14.3,5.8c-11.4,0-19.8-8.2-19.8-20.3c0-12.5,9.7-23.3,23.6-23.3c15.2,0,23.3,12,23.3,27.9
		c0,14-4.6,23.9-11.4,30.4c-5.7,5.3-13.6,8.3-22.3,9c-2.8,0.3-5.6,0.3-7.4,0.2V663.3z M485.8,628.3c0.1,6.7,3.9,12,10.8,12
		c5,0,8.6-2.3,10.6-5.4c0.4-0.8,0.7-1.8,0.7-3.5c0.1-8.8-3.2-16.5-11.3-16.5C490.3,614.8,485.8,620.4,485.8,628.3z"/>
	<path d="M529,665.3c0-4.6,3.2-7.9,7.6-7.9c4.5,0,7.6,3.2,7.6,7.9c0,4.5-3,7.9-7.6,7.9C532.1,673.3,529,669.8,529,665.3z"/>
	<path d="M551.9,672.1v-7.5l7.7-7.1c15.4-14.3,22.6-22.1,22.7-30.8c0-5.8-3.1-11-11.7-11c-5.7,0-10.7,2.9-14,5.4l-3.6-8.8
		c4.7-3.8,11.9-6.7,20.1-6.7c14.5,0,21.5,9.2,21.5,19.8c0,11.5-8.2,20.7-19.6,31.3l-5.7,4.9v0.2h26.9v10.3H551.9z"/>
	<path d="M606.6,665.3c0-4.6,3.2-7.9,7.6-7.9c4.5,0,7.6,3.2,7.6,7.9c0,4.5-3,7.9-7.6,7.9C609.8,673.3,606.6,669.8,606.6,665.3z"/>
</g>
<g>
	<path id="rect3256" fill="#FFFFFF" d="M814.8,0h317.3c15.5,0,28,12.5,28,28v504c0,15.5-12.5,28-28,28H814.8c-15.5,0-28-12.5-28-28
		V28C786.8,12.5,799.3,0,814.8,0z"/>
	<path id="rect3041" fill="none" stroke="#000000" stroke-width="2" d="M814.8,0.6h317.3c15.1,0,27.4,12.3,27.4,27.4v504
		c0,15.1-12.3,27.4-27.4,27.4H814.8c-15.1,0-27.4-12.3-27.4-27.4V28C787.4,12.9,799.7,0.6,814.8,0.6z"/>
	<path id="rect8666" d="M814.8,12.4c-8.6,0-15.6,6.9-15.6,15.6v504c0,8.6,6.9,15.6,15.6,15.6h317.3c8.6,0,15.6-7,15.6-15.6V28
		c0-8.6-7-15.6-15.6-15.6H814.8z M814.8,18.7h317.3c5.2,0,9.3,4.2,9.3,9.3v504c0,5.2-4.2,9.3-9.3,9.3H814.8c-5.2,0-9.3-4.2-9.3-9.3
		V28C805.5,22.8,809.6,18.7,814.8,18.7z"/>
	<g>
		<path id="path10119" inkscape:connector-curvature="0" d="M862.3,328.5v60.4h29.2v-25.1h62c2.2,8.6,10.1,15.1,19.5,15.1
			c9.4,0,17.2-6.4,19.5-15.1h62v25.1h29.2v-60.4h-29.2v25.1h-62c-2.2-8.6-10.1-15.1-19.5-15.1c-9.4,0-17.2,6.4-19.5,15.1h-62v-25.1
			H862.3z"/>
		<rect id="rect10131" x="863.3" y="308.4" width="221.2" height="10.1"/>
		<path id="rect10133" inkscape:connector-curvature="0" fill="#FF8000" d="M880.5,39c-10,0-18.1,8.1-18.1,18.1v181v42.2v18.1h18.1
			h185h18.1v-18.1v-42.2v-181c0-10-8.1-18.1-18.1-18.1H880.5z"/>
	</g>
	<g>
		
			<path id="path6124" sodipodi:ry="29.465372" sodipodi:cy="432.25998" sodipodi:rx="22.107042" sodipodi:type="arc" sodipodi:cx="-87.720657" fill="#FFFFFF" stroke="#000000" stroke-width="2" stroke-miterlimit="10" d="
			M915,472.4c0,32.7,26.5,59.2,59.2,59.2s59.2-26.5,59.2-59.2s-26.5-59.2-59.2-59.2S915,439.7,915,472.4z"/>
		<path fill="#0D69E1" d="M974.2,416.5c30.8,0,55.8,25,55.8,55.8c0,19.3-9.8,36.4-24.7,46.4V484c0-10.4-8.4-18.8-18.8-18.8h-34.6
			v-9.7l-26.6,15.4l26.6,15.4v-9.7h34.6c4.1,0,7.4,3.3,7.4,7.4v40.7c-6.1,2.3-12.7,3.6-19.7,3.6c-30.8,0-55.8-25-55.8-55.8
			S943.4,416.5,974.2,416.5z"/>
	</g>
</g>
<g>
	<path d="M888.6,661.6V645H859v-8l26.7-40.7h14.6v39.4h8.4v9.4h-8.4v16.6H888.6z M888.6,635.6v-17.8c0-3.7,0.1-7.5,0.4-11.4h-0.4
		c-2,4.1-3.7,7.4-5.7,11.1l-12,17.9l-0.1,0.2H888.6z"/>
	<path d="M916.1,654.7c0-4.6,3.2-7.9,7.6-7.9c4.5,0,7.6,3.2,7.6,7.9c0,4.5-3,7.9-7.6,7.9C919.2,662.7,916.1,659.3,916.1,654.7z"/>
	<path d="M944,652.7c1.9,0.2,3.8,0.1,6.8-0.2c4.8-0.4,9.7-2.1,13.3-5c4.2-3.4,7.1-8.3,8.3-14.5l-0.2-0.1c-3.3,3.7-7.9,5.8-14.3,5.8
		c-11.4,0-19.8-8.2-19.8-20.3c0-12.5,9.7-23.3,23.6-23.3c15.2,0,23.3,12,23.3,27.9c0,14-4.6,23.9-11.4,30.4
		c-5.7,5.3-13.6,8.3-22.3,9c-2.8,0.3-5.6,0.3-7.4,0.2V652.7z M950.4,617.7c0.1,6.7,3.9,12,10.8,12c5,0,8.6-2.3,10.6-5.4
		c0.4-0.8,0.7-1.8,0.7-3.5c0.1-8.8-3.2-16.5-11.3-16.5C955,604.3,950.4,609.8,950.4,617.7z"/>
	<path d="M993.7,654.7c0-4.6,3.2-7.9,7.6-7.9c4.5,0,7.6,3.2,7.6,7.9c0,4.5-3,7.9-7.6,7.9C996.8,662.7,993.7,659.3,993.7,654.7z"/>
	<path d="M1019.1,648.8c2.5,1.5,8.6,4,14.9,4c9.5,0,13.3-5.3,13.2-10.5c0-7.7-7.2-11.1-14.8-11.1h-5.7v-9.1h5.5c5.7,0,13-2.6,13-9.2
		c0-4.4-3.3-8.1-10.5-8.1c-5.3,0-10.7,2.3-13.4,4.1l-2.8-9c3.7-2.6,11-5,18.8-5c13.5,0,20.4,7.4,20.4,16c0,6.8-4,12.5-12.1,15.3v0.2
		c7.9,1.4,14.4,7.4,14.4,16.3c0,11.1-9.3,19.8-25.4,19.8c-7.9,0-14.8-2.2-18.3-4.5L1019.1,648.8z"/>
	<path d="M1071.3,654.7c0-4.6,3.2-7.9,7.6-7.9c4.5,0,7.6,3.2,7.6,7.9c0,4.5-3,7.9-7.6,7.9C1074.4,662.7,1071.3,659.3,1071.3,654.7z"
		/>
</g>
</svg>
