<?xml version="1.0" encoding="utf-8"?>
<!-- Generator: Adobe Illustrator 18.0.0, SVG Export Plug-In . SVG Version: 6.00 Build 0)  -->
<!DOCTYPE svg PUBLIC "-//W3C//DTD SVG 1.1//EN" "http://www.w3.org/Graphics/SVG/1.1/DTD/svg11.dtd">
<svg version="1.1"
	 id="svg2" inkscape:version="0.48.4 r9939" sodipodi:docname="5.5.svg" xmlns:sodipodi="http://sodipodi.sourceforge.net/DTD/sodipodi-0.dtd" xmlns:cc="http://creativecommons.org/ns#" xmlns:rdf="http://www.w3.org/1999/02/22-rdf-syntax-ns#" xmlns:dc="http://purl.org/dc/elements/1.1/" xmlns:inkscape="http://www.inkscape.org/namespaces/inkscape" xmlns:svg="http://www.w3.org/2000/svg"
	 xmlns="http://www.w3.org/2000/svg" xmlns:xlink="http://www.w3.org/1999/xlink" x="0px" y="0px" viewBox="8.1 -0.1 941.9 560.1"
	 enable-background="new 8.1 -0.1 941.9 560.1" xml:space="preserve">
<path id="rect7101" fill="#FFFFFF" stroke="#000000" stroke-width="2" d="M907.9,559.1H50.2c-22.7,0-41.1-18.4-41.1-41.1V42
	c0-22.7,18.4-41.1,41.1-41.1h857.7C930.6,0.9,949,19.3,949,42v476C949,540.7,930.6,559.1,907.9,559.1z"/>
<path id="rect7195" fill="#0D69E1" d="M907.9,541.3c12.9,0,23.3-10.5,23.3-23.3V42c0-12.9-10.5-23.3-23.3-23.3H50.2
	c-12.9,0-23.3,10.5-23.3,23.3v476c0,12.9,10.5,23.3,23.3,23.3H907.9z"/>
<path fill="#FFFFFF" d="M455.5,289.8V167.7h-38.5l61.2-106.1l61.2,106.1h-38.5v380.9l-45.5-1.9V293.8
	C455.4,292.4,455.4,291.2,455.5,289.8z"/>
<path fill="#FFFFFF" d="M150.3,289.8V167.7h-38.5L173,61.6l61.2,106.1h-38.5v380.9l-45.5-1.9V293.8
	C150.3,292.4,150.3,291.2,150.3,289.8z"/>
<path fill="#FFFFFF" d="M760.7,289.8V167.7h-38.5l61.2-106.1l61.2,106.1H806v380.9l-45.5-2V293.7
	C760.6,292.3,760.6,291.1,760.7,289.8z"/>
<g>
	
		<path id="path5334" sodipodi:ry="29.465372" sodipodi:cy="432.25998" sodipodi:rx="22.107042" sodipodi:type="arc" sodipodi:cx="-87.720657" fill="#FFFFFF" d="
		M588.1,296.6c0,60.8-49.2,110-110,110c-60.8,0-110-49.2-110-110s49.2-110,110-110C538.9,186.6,588.1,235.9,588.1,296.6z"/>
	
		<path id="path3003" sodipodi:ry="29.465372" sodipodi:cy="432.25998" sodipodi:rx="22.107042" sodipodi:type="arc" sodipodi:cx="-87.720657" fill="none" stroke="#000000" stroke-width="2" d="
		M587.8,296.6c0,60.5-49.1,109.6-109.6,109.6s-109.6-49.1-109.6-109.6S417.6,187,478.1,187S587.8,236.1,587.8,296.6z"/>
	<path id="path4775-9" fill="#FF0000" d="M478.1,190.3c-58.7,0-106.3,47.6-106.3,106.3s47.6,106.3,106.3,106.3
		s106.3-47.6,106.3-106.3S536.9,190.3,478.1,190.3z M478.1,208.2c48.8,0,88.4,39.6,88.4,88.4S526.9,385,478.1,385
		s-88.4-39.6-88.4-88.4S429.3,208.2,478.1,208.2z"/>
</g>
<g>
	<path d="M424,310.2c0-8.7,5.1-14.7,13.2-18.2v-0.3c-7.3-3.6-10.7-9.4-10.7-15.5c0-11.4,10.1-19.2,23.4-19.2c15.1,0,22,9.1,22,17.7
		c0,5.9-3.1,12.1-10.8,15.9v0.3c7.7,2.9,13.4,9,13.4,17.7c0,12.5-10.6,20.9-25.6,20.9C432.5,329.4,424,320.1,424,310.2z M461,309.6
		c0-7.1-5.3-11-13-13.2c-6.6,1.9-10.4,6.5-10.4,12.3c-0.2,5.9,4.3,11.3,11.8,11.3C456.4,320.1,461,315.6,461,309.6z M439.1,275.6
		c0,5.7,4.7,9.2,11.4,11c4.7-1.4,8.7-5.3,8.7-10.6c0-4.9-2.9-9.9-10-9.9C442.6,266.1,439.1,270.6,439.1,275.6z"/>
	<path d="M532.3,292.8c0,22.5-8.8,36.7-25.6,36.7c-16.2,0-24.8-14.7-24.9-36c0-21.8,9.3-36.4,25.7-36.4
		C524.4,257,532.3,272.1,532.3,292.8z M495.2,293.4c-0.1,17,4.6,25.9,12,25.9c7.8,0,11.9-9.5,11.9-26.3c0-16.3-3.9-25.9-11.9-25.9
		C500,267.1,495.1,275.8,495.2,293.4z"/>
</g>
<g>
	
		<path id="path5334_1_" sodipodi:ry="29.465372" sodipodi:cy="432.25998" sodipodi:rx="22.107042" sodipodi:type="arc" sodipodi:cx="-87.720657" fill="#FFFFFF" d="
		M283,296.6c0,60.8-49.2,110-110,110s-110-49.2-110-110s49.2-110,110-110S283,235.9,283,296.6z"/>
	
		<path id="path3003_1_" sodipodi:ry="29.465372" sodipodi:cy="432.25998" sodipodi:rx="22.107042" sodipodi:type="arc" sodipodi:cx="-87.720657" fill="none" stroke="#000000" stroke-width="2" d="
		M282.7,296.6c0,60.5-49.1,109.6-109.6,109.6S63.4,357.1,63.4,296.6S112.5,187,173,187S282.7,236.1,282.7,296.6z"/>
	<path id="path4775-9_1_" fill="#FF0000" d="M173,190.3c-58.7,0-106.3,47.6-106.3,106.3S114.3,402.9,173,402.9
		s106.3-47.6,106.3-106.3S231.8,190.3,173,190.3z M173,208.2c48.8,0,88.4,39.6,88.4,88.4S221.8,385,173,385s-88.4-39.6-88.4-88.4
		S124.2,208.2,173,208.2z"/>
</g>
<g>
	<path d="M115.2,270.1H115l-12.8,6.5l-2.3-10l17-8.4H128v70.1h-12.8V270.1z"/>
	<path d="M190.9,292.8c0,22.5-8.8,36.7-25.6,36.7c-16.2,0-24.8-14.7-24.9-36c0-21.8,9.3-36.4,25.7-36.4
		C183,257,190.9,272.1,190.9,292.8z M153.8,293.4c-0.1,17,4.6,25.9,12,25.9c7.8,0,11.9-9.5,11.9-26.3c0-16.3-3.9-25.9-11.9-25.9
		C158.6,267.1,153.7,275.8,153.8,293.4z"/>
	<path d="M248.7,292.8c0,22.5-8.8,36.7-25.6,36.7c-16.2,0-24.8-14.7-24.9-36c0-21.8,9.3-36.4,25.7-36.4
		C240.8,257,248.7,272.1,248.7,292.8z M211.6,293.4c-0.1,17,4.6,25.9,12,25.9c7.8,0,11.9-9.5,11.9-26.3c0-16.3-3.9-25.9-11.9-25.9
		C216.4,267.1,211.5,275.8,211.6,293.4z"/>
</g>
<g>
	
		<path id="path5334_2_" sodipodi:ry="29.465372" sodipodi:cy="432.25998" sodipodi:rx="22.107042" sodipodi:type="arc" sodipodi:cx="-87.720657" fill="#FFFFFF" d="
		M893.3,296.6c0,60.8-49.2,110-110,110c-60.8,0-110-49.2-110-110s49.2-110,110-110S893.3,235.9,893.3,296.6z"/>
	
		<path id="path3003_2_" sodipodi:ry="29.465372" sodipodi:cy="432.25998" sodipodi:rx="22.107042" sodipodi:type="arc" sodipodi:cx="-87.720657" fill="none" stroke="#000000" stroke-width="2" d="
		M893,296.6c0,60.5-49.1,109.6-109.6,109.6s-109.6-49.1-109.6-109.6S722.8,187,783.3,187S893,236.1,893,296.6z"/>
	<path id="path4775-9_2_" fill="#FF0000" d="M783.3,190.3c-58.7,0-106.3,47.6-106.3,106.3s47.6,106.3,106.3,106.3
		s106.3-47.6,106.3-106.3S842.1,190.3,783.3,190.3z M783.3,208.2c48.8,0,88.4,39.6,88.4,88.4S832.1,385,783.3,385
		S695,345.4,695,296.6S734.5,208.2,783.3,208.2z"/>
</g>
<g>
	<path d="M774.7,269.2h-27l-2,14c1.6-0.2,3-0.3,5.1-0.3c6.1,0,12.3,1.4,17,4.5c5.3,3.3,9.2,9.3,9.2,17.8c0,13.4-11.1,24.3-28.4,24.3
		c-8.1,0-14.9-2-18.5-4.1l2.7-10c3,1.6,9.1,3.7,15.4,3.7c7.8,0,15.2-4.4,15.2-12.8c0-8-5.9-13.3-19.9-13.3c-3.9,0-6.8,0.2-9.6,0.6
		l4.6-35.4h36.2V269.2z"/>
	<path d="M837.5,292.8c0,22.5-8.8,36.7-25.6,36.7c-16.2,0-24.8-14.7-24.9-36c0-21.8,9.3-36.4,25.7-36.4
		C829.6,257,837.5,272.1,837.5,292.8z M800.4,293.4c-0.1,17,4.6,25.9,12,25.9c7.8,0,11.9-9.5,11.9-26.3c0-16.3-3.9-25.9-11.9-25.9
		C805.2,267.1,800.3,275.8,800.4,293.4z"/>
</g>
</svg>
