<?xml version="1.0" encoding="utf-8"?>
<!-- Generator: Adobe Illustrator 18.0.0, SVG Export Plug-In . SVG Version: 6.00 Build 0)  -->
<!DOCTYPE svg PUBLIC "-//W3C//DTD SVG 1.1//EN" "http://www.w3.org/Graphics/SVG/1.1/DTD/svg11.dtd">
<svg version="1.1"
	 id="svg2" inkscape:version="0.48.4 r9939" sodipodi:docname="5.5.svg" xmlns:sodipodi="http://sodipodi.sourceforge.net/DTD/sodipodi-0.dtd" xmlns:cc="http://creativecommons.org/ns#" xmlns:rdf="http://www.w3.org/1999/02/22-rdf-syntax-ns#" xmlns:dc="http://purl.org/dc/elements/1.1/" xmlns:inkscape="http://www.inkscape.org/namespaces/inkscape" xmlns:svg="http://www.w3.org/2000/svg"
	 xmlns="http://www.w3.org/2000/svg" xmlns:xlink="http://www.w3.org/1999/xlink" x="0px" y="0px"
	 viewBox="-140.4 -184.8 960.4 969.6" enable-background="new -140.4 -184.8 960.4 969.6" xml:space="preserve">
<g id="layer1" transform="translate(0,-452.36218)" inkscape:groupmode="layer" inkscape:label="Layer 1">
	<path id="rect7101" fill="#FFFFFF" stroke="#000000" stroke-width="2" d="M-104.8,268.6h401.5c19.1,0,34.7,15.5,34.7,34.7v401.5
		c0,19.1-15.5,34.7-34.7,34.7h-401.5c-19.1,0-34.7-15.5-34.7-34.7V303.3C-139.4,284.1-123.9,268.6-104.8,268.6z"/>
	<path id="rect7195" fill="#0D69E1" d="M-104.8,283.6c-11,0-19.7,8.8-19.7,19.7v401.5c0,10.9,8.8,19.7,19.7,19.7h401.5
		c10.9,0,19.7-8.9,19.7-19.7V303.3c0-11-8.9-19.7-19.7-19.7H-104.8L-104.8,283.6z"/>
</g>
<g id="layer1_1_" transform="translate(0,-452.36218)" inkscape:groupmode="layer" inkscape:label="Layer 1">
	<path id="rect7101_1_" fill="#FFFFFF" stroke="#000000" stroke-width="2" d="M382.7,268.6h401.5c19.1,0,34.7,15.5,34.7,34.7v401.5
		c0,19.1-15.5,34.7-34.7,34.7H382.7c-19.1,0-34.7-15.5-34.7-34.7V303.3C348.1,284.1,363.6,268.6,382.7,268.6z"/>
	<path id="rect7195_1_" fill="#0D69E1" d="M382.7,283.6c-11,0-19.7,8.8-19.7,19.7v401.5c0,10.9,8.8,19.7,19.7,19.7h401.5
		c10.9,0,19.7-8.9,19.7-19.7V303.3c0-11-8.9-19.7-19.7-19.7H382.7L382.7,283.6z"/>
</g>
<line fill="none" stroke="#FFFFFF" stroke-width="14" stroke-miterlimit="10" stroke-dasharray="40" x1="583.5" y1="-154.5" x2="583.5" y2="15.4"/>
<path fill="#FFFFFF" d="M463.9,69.9V-40.5h-34.8l55.3-95.9l55.3,95.9h-34.8v97.3L662.1,214V73.4c0-1.2,0-2.4,0.1-3.5V-40.5h-34.8
	l55.3-95.9L738-40.5h-34.8v317.3l-41.1-1.8v-3.1L535.3,145.1c-0.8-0.8-1.4-1.4-2.2-2.3l-69.6-69.6l0.3-0.3
	C463.8,71.9,463.8,70.9,463.9,69.9z"/>
<path fill="#FFFFFF" d="M277.6,55.9v-99.3h31.8l-50.5-87.5l-50.5,87.5h31.8v88.8L133.3,218.8v-80.3c32.3-8.6,56.2-38.2,56.2-73.3
	S165.7,0.6,133.2-8.1v-35.4H165l-50.5-87.4L64-43.4h31.8v35c-33.3,8.1-57.9,38-57.9,73.7S62.7,131,95.8,139v137.2l37.5-1.6l13,2.2
	C146.3,276.6,277.7,56.8,277.6,55.9z M113.7,128.3c-34.8,0-63-28.2-63-63s28.2-63,63-63s63,28.2,63,63S148.5,128.3,113.7,128.3z"/>
<g id="text9499">
	<path id="path9882" fill="#FFFFFF" d="M105,47.5l2.8-9.1h-32v27.2l6.2,3.5c0.7-0.5,1.8-1.2,3.2-2.4c1.4-1.1,3.2-1.7,5.2-1.8
		c3.2,0.2,5.5,1.2,7.2,3.4c1.7,2.2,2.5,4.5,2.5,7.1c-0.2,3.5-1.5,6.1-4.2,7.9c-2.6,1.8-5.4,2.6-8.3,2.6c-2.3,0-4.7-0.2-7.1-0.5
		s-4.4-1.2-6.2-2.2l1.4,9.1c0.2,0.2,1.6,0.6,4.2,1.4c2.7,0.8,5.7,1.3,8.9,1.4c6.7-0.2,11.9-2.1,15.8-5.9c3.8-3.8,5.8-8.5,5.9-14.2
		c-0.2-5.6-2.1-9.9-5.5-12.9c-3.5-3-7.2-4.5-11.2-4.5c-1.6,0-3.3,0.2-4.9,0.7s-3,1.4-4.1,2.8V47.5L105,47.5z"/>
	<path id="path9884" fill="#FFFFFF" d="M136.6,37.7c-5.6,0.2-10.2,2.8-13.5,8c-3.4,5.2-5.2,12-5.2,20.6c0.1,8.5,1.8,15.3,5.2,20.6
		c3.4,5.2,7.9,7.9,13.5,8c5.6-0.2,10.2-2.8,13.5-8c3.4-5.2,5.2-12,5.2-20.6c-0.1-8.1-1.8-14.9-5.2-20.2
		C146.7,40.7,142.2,38,136.6,37.7L136.6,37.7z M136.6,46.4c2.7-0.1,4.9,1.5,6.5,4.7c1.6,3.2,2.5,8.2,2.5,15.2
		c-0.1,6.9-0.8,11.9-2.5,15.2c-1.6,3.2-3.8,4.8-6.5,4.7c-2.7,0.1-4.9-1.5-6.5-4.7c-1.6-3.2-2.5-8.2-2.5-15.2
		c0.1-6.9,0.8-11.9,2.5-15.2C131.6,47.9,133.8,46.4,136.6,46.4z"/>
</g>
<g id="layer1_2_" transform="translate(0,-452.36218)" inkscape:groupmode="layer" inkscape:label="Layer 1">
	<path id="rect7101_2_" fill="#FFFFFF" stroke="#000000" stroke-width="2" d="M382.7,765.3h401.5c19.1,0,34.7,15.5,34.7,34.7v401.5
		c0,19.1-15.5,34.7-34.7,34.7H382.7c-19.1,0-34.7-15.5-34.7-34.7V799.9C348.1,780.8,363.6,765.3,382.7,765.3z"/>
	<path id="rect7195_2_" fill="#0D69E1" d="M382.7,780.3c-11,0-19.7,8.8-19.7,19.7v401.5c0,10.9,8.8,19.7,19.7,19.7h401.5
		c10.9,0,19.7-8.9,19.7-19.7V799.9c0-11-8.9-19.7-19.7-19.7L382.7,780.3L382.7,780.3z"/>
</g>
<line fill="none" stroke="#FFFFFF" stroke-width="14" stroke-miterlimit="10" stroke-dasharray="40" x1="583.5" y1="342.1" x2="583.5" y2="512"/>
<path fill="#FFFFFF" d="M463.9,566.5V456.2h-34.8l55.3-95.9l55.3,95.9h-34.8v97.3l157.2,157.1V570.1c0-1.2,0-2.4,0.1-3.5V456.2
	h-34.8l55.3-95.9l55.3,95.9h-34.8v317.3l-41.1-1.8v-3.1L535.3,641.8c-0.8-0.8-1.4-1.4-2.2-2.3l-69.6-69.6l0.3-0.3
	C463.8,568.6,463.8,567.6,463.9,566.5z"/>
<path fill="#FFFFFF" d="M-22.8,188.8v-50.3c32.3-8.6,56.2-38.2,56.2-73.3c0-35.1-23.9-64.7-56.3-73.3v-35.4H8.9l-50.5-87.4
	l-50.5,87.5h31.8v35c-33.3,8.1-57.9,38-57.9,73.7c0,35.7,24.7,65.7,57.9,73.7v137.2l37.5-1.6L-22.8,188.8z M-105.4,65.3
	c0-34.8,28.2-63,63-63s63,28.2,63,63s-28.2,63-63,63S-105.4,100.1-105.4,65.3z"/>
<path id="path9884_1_" fill="#FFFFFF" d="M-17.4,37.7c-5.6,0.2-10.2,2.8-13.5,8c-3.4,5.2-5.2,12-5.2,20.6c0.1,8.5,1.8,15.3,5.2,20.6
	c3.4,5.2,7.9,7.9,13.5,8c5.6-0.2,10.2-2.8,13.5-8c3.4-5.2,5.2-12,5.2-20.6c-0.1-8.1-1.8-14.9-5.2-20.2C-7.3,40.7-11.8,38-17.4,37.7
	L-17.4,37.7z M-17.4,46.4c2.7-0.1,4.9,1.5,6.5,4.7c1.6,3.2,2.5,8.2,2.5,15.2c-0.1,6.9-0.8,11.9-2.5,15.2c-1.6,3.2-3.8,4.8-6.5,4.7
	c-2.7,0.1-4.9-1.5-6.5-4.7c-1.6-3.2-2.5-8.2-2.5-15.2c0.1-6.9,0.8-11.9,2.5-15.2C-22.4,47.9-20.2,46.4-17.4,46.4z"/>
<g>
	<path fill="#FFFFFF" d="M-81.9,80.7c0-7.1,4.1-11.9,10.7-14.8v-0.3c-5.9-2.9-8.6-7.6-8.6-12.6c0-9.3,8.2-15.5,18.9-15.5
		c12.2,0,17.8,7.3,17.8,14.3c0,4.8-2.5,9.8-8.7,12.8v0.3c6.2,2.4,10.8,7.2,10.8,14.3c0,10.1-8.6,16.9-20.7,16.9
		C-75,96.2-81.9,88.6-81.9,80.7z M-52,80.1c0-5.8-4.3-8.9-10.6-10.7c-5.3,1.6-8.4,5.2-8.4,10c-0.2,4.8,3.5,9.2,9.5,9.2
		C-55.7,88.6-52,85-52,80.1z M-69.7,52.6c0,4.6,3.8,7.4,9.3,8.9c3.8-1.1,7.1-4.3,7.1-8.6c0-3.9-2.4-8-8.1-8
		C-66.9,45-69.7,48.5-69.7,52.6z"/>
</g>
<g>
	
		<path id="path5334" sodipodi:ry="29.465372" sodipodi:cy="432.25998" sodipodi:rx="22.107042" sodipodi:type="arc" sodipodi:cx="-87.720657" fill="#FFFFFF" d="
		M549,548.3c0,35.3-28.7,64-64,64s-64-28.7-64-64c0-35.3,28.7-64,64-64S549,513,549,548.3z"/>
	
		<path id="path3003" sodipodi:ry="29.465372" sodipodi:cy="432.25998" sodipodi:rx="22.107042" sodipodi:type="arc" sodipodi:cx="-87.720657" fill="none" stroke="#000000" stroke-width="2" d="
		M548.8,548.3c0,35.2-28.6,63.8-63.8,63.8s-63.8-28.6-63.8-63.8c0-35.2,28.6-63.8,63.8-63.8S548.8,513.1,548.8,548.3z"/>
	<path id="path4775-9" fill="#FF0000" d="M485,486.5c-34.2,0-61.9,27.7-61.9,61.9c0,34.2,27.7,61.9,61.9,61.9s61.9-27.7,61.9-61.9
		C546.9,514.2,519.2,486.5,485,486.5z M485,496.9c28.4,0,51.4,23,51.4,51.4c0,28.4-23,51.4-51.4,51.4s-51.4-23-51.4-51.4
		C433.6,520,456.6,496.9,485,496.9z"/>
	<g>
		<path id="path7834" inkscape:connector-curvature="0" d="M456.8,535.1c-1.3,0-2.4,0.6-3.1,1.7l-6,8.8c-0.4,0.6-0.6,1.4-0.6,2.1
			v11.6c0,2.1,1.7,3.8,3.8,3.8h3.4c0.2-4.2,3.7-7.6,8-7.6s7.7,3.4,8,7.6h29.6c0.1-3,2-5.6,4.6-6.8h-33v-17.4c0-2.1-1.7-3.8-3.8-3.8
			L456.8,535.1L456.8,535.1z M457,537.4h8.6c1,0,1.9,0.9,1.9,1.9v5.3c0,1-0.9,1.9-1.9,1.9h-12.2c-1,0-1.9-0.9-1.9-1.9
			c0-0.4,0.1-0.7,0.3-1.1l3.6-5.3C455.8,537.7,456.4,537.4,457,537.4L457,537.4z"/>
		<path id="path7836" inkscape:connector-curvature="0" d="M477.4,523.7c-2.1,0-3.8,1.7-3.8,3.8v2.2v5.5v18.8h49.3v-18.8v-5.5v-2.2
			c0-2.1-1.7-3.8-3.8-3.8H477.4L477.4,523.7z"/>
		<path id="path7838" inkscape:connector-curvature="0" d="M507.7,557.1c-3.6,0-6.4,2.9-6.4,6.4s2.9,6.4,6.4,6.4
			c3.6,0,6.4-2.9,6.4-6.4S511.3,557.1,507.7,557.1z M507.7,560.1c1.9,0,3.4,1.5,3.4,3.4s-1.5,3.4-3.4,3.4c-1.9,0-3.4-1.5-3.4-3.4
			C504.3,561.6,505.9,560.1,507.7,560.1z"/>
		<path id="path7840" sodipodi:nodetypes="ccccc" inkscape:connector-curvature="0" d="M515.7,563.2c-0.1-3-2-5.6-4.6-6.8h11.8v6.8
			H515.7z"/>
		<path id="path7842" inkscape:connector-curvature="0" d="M462.3,557.1c-3.6,0-6.4,2.9-6.4,6.4s2.9,6.4,6.4,6.4s6.4-2.9,6.4-6.4
			S465.8,557.1,462.3,557.1z M462.3,560.1c1.9,0,3.4,1.5,3.4,3.4s-1.5,3.4-3.4,3.4s-3.4-1.5-3.4-3.4
			C458.8,561.6,460.4,560.1,462.3,560.1z"/>
	</g>
</g>
</svg>
