<?xml version="1.0" encoding="utf-8"?>
<!-- Generator: Adobe Illustrator 18.0.0, SVG Export Plug-In . SVG Version: 6.00 Build 0)  -->
<!DOCTYPE svg PUBLIC "-//W3C//DTD SVG 1.1//EN" "http://www.w3.org/Graphics/SVG/1.1/DTD/svg11.dtd">
<svg version="1.1"
	 id="svg2" inkscape:version="0.48.4 r9939" sodipodi:docname="5.5.svg" xmlns:sodipodi="http://sodipodi.sourceforge.net/DTD/sodipodi-0.dtd" xmlns:cc="http://creativecommons.org/ns#" xmlns:rdf="http://www.w3.org/1999/02/22-rdf-syntax-ns#" xmlns:dc="http://purl.org/dc/elements/1.1/" xmlns:inkscape="http://www.inkscape.org/namespaces/inkscape" xmlns:svg="http://www.w3.org/2000/svg"
	 xmlns="http://www.w3.org/2000/svg" xmlns:xlink="http://www.w3.org/1999/xlink" x="0px" y="0px" viewBox="199.9 -0.1 560.1 560.1"
	 enable-background="new 199.9 -0.1 560.1 560.1" xml:space="preserve">
<path id="rect7101" fill="#FFFFFF" stroke="#000000" stroke-width="2" d="M718,0.9H242c-22.7,0-41.1,18.4-41.1,41.1v476
	c0,22.7,18.4,41.1,41.1,41.1h476c22.7,0,41.1-18.4,41.1-41.1V42C759.1,19.3,740.7,0.9,718,0.9z"/>
<path id="rect9536" fill="#0D69E1" d="M718,18.7c12.9,0,23.3,10.4,23.3,23.3v476c0,12.9-10.5,23.3-23.3,23.3H242
	c-12.9,0-23.3-10.5-23.3-23.3V42c0-13,10.5-23.3,23.3-23.3H718z M479.7,39.9c-1.5,0-3,0.5-4.4,1.2c-1.4,0.8-2.6,2-3.5,3.5L243.1,441
	c-0.8,1.4-1.2,3-1.2,4.7c0,5.1,4.2,9.3,9.3,9.3h457.7c5.1,0,9.3-4.2,9.3-9.3c0-1.7-0.5-3.3-1.2-4.7L488.1,44.6
	C486.3,41.6,483.1,39.9,479.7,39.9z"/>
<path id="path8497-4" sodipodi:nodetypes="cccccccccc" inkscape:connector-curvature="0" d="M326.5,416.7c11.1,0,21.8-4.3,29.8-11.9
	c33.1-31.5,77-49.1,122.8-49.1c45.8,0,89.7,17.6,122.8,49.1c8,7.6,18.7,11.9,29.8,11.9h50.9V437H275.6v-20.3H326.5z"/>
</svg>
