<?xml version="1.0" encoding="utf-8"?>
<!-- Generator: Adobe Illustrator 18.0.0, SVG Export Plug-In . SVG Version: 6.00 Build 0)  -->
<!DOCTYPE svg PUBLIC "-//W3C//DTD SVG 1.1//EN" "http://www.w3.org/Graphics/SVG/1.1/DTD/svg11.dtd">
<svg version="1.1"
	 id="svg2" inkscape:version="0.48.4 r9939" sodipodi:docname="5.16.svg.2014_02_04_21_38_30.2.svg" xmlns:sodipodi="http://sodipodi.sourceforge.net/DTD/sodipodi-0.dtd" xmlns:cc="http://creativecommons.org/ns#" xmlns:rdf="http://www.w3.org/1999/02/22-rdf-syntax-ns#" xmlns:dc="http://purl.org/dc/elements/1.1/" xmlns:inkscape="http://www.inkscape.org/namespaces/inkscape" xmlns:svg="http://www.w3.org/2000/svg"
	 xmlns="http://www.w3.org/2000/svg" xmlns:xlink="http://www.w3.org/1999/xlink" x="0px" y="0px" viewBox="0 0 600 900"
	 enable-background="new 0 0 600 900" xml:space="preserve">
<title  id="title3004">5.21 Жилая зона</title>
<sodipodi:namedview  inkscape:window-x="-4" inkscape:current-layer="layer1" inkscape:window-maximized="1" inkscape:window-height="1024" inkscape:window-y="-4" inkscape:pageshadow="2" inkscape:document-units="px" inkscape:pageopacity="0.0" inkscape:window-width="1920" id="base" inkscape:cx="339.11865" showgrid="false" inkscape:zoom="1" inkscape:cy="470.52105" pagecolor="#ffffff" bordercolor="#666666" borderopacity="1.0">
	</sodipodi:namedview>
<g id="layer1" transform="translate(0,-152.36218)" inkscape:groupmode="layer" inkscape:label="Layer 1">
	<path id="rect3256" fill="#FFFFFF" d="M45,152.4h510c24.9,0,45,20.1,45,45v810c0,24.9-20.1,45-45,45H45c-24.9,0-45-20.1-45-45v-810
		C0,172.5,20.1,152.4,45,152.4z"/>
	<path id="rect3041" fill="none" stroke="#000000" stroke-width="2" d="M45,153.4h510c24.3,0,44,19.7,44,44v810
		c0,24.3-19.7,44-44,44H45c-24.3,0-44-19.7-44-44v-810C1,173.1,20.7,153.4,45,153.4z"/>
	<path id="path9094" fill="#0D69E1" d="M412.5,172.4v336.3H580v-56.2h-26.9v-75H580v-37.5h-26.9v-75H580v-37.5h-26.9v-55h-46.9v55
		H450v-55H412.5z M450,264.9h56.2v75H450V264.9z M450,377.4h56.2v75H450V377.4z M45,172.4c-13.9,0-25,11.1-25,25v810
		c0,13.8,11.1,25,25,25h510c13.8,0,25-11.2,25-25v-480H393.8v-355H45z M160.5,259.2h55.2h55.2c4.4,0,9,3.3,10.4,7.4l5.3,15.3
		l10.9,31.7c0,0,0,0.1,0,0.1l2.6,7.3c6.2,0,11.2,5,11.2,11.2v45c0,6.2-5,11.2-11.2,11.2H131.2c-6.2,0-11.2-5-11.2-11.2v-45
		c0-6.2,5-11.2,11.2-11.2l2.6-7.3c0,0,0-0.1,0-0.1l10.9-31.7l5.3-15.3C151.5,262.6,156.1,259.2,160.5,259.2L160.5,259.2z
		 M163.9,270.5c-2.2,0-4.5,1.7-5.2,3.7l-16.2,46.9h73.1h73.1l-16.2-46.9c-0.7-2.1-3-3.7-5.2-3.7h-51.8H163.9z M283.1,331.8
		c-9.3,0-16.9,7.6-16.9,16.9s7.6,16.9,16.9,16.9S300,358,300,348.7S292.4,331.8,283.1,331.8z M148.1,332.4
		c-9.3,0-16.9,7.6-16.9,16.9s7.6,16.9,16.9,16.9s16.9-7.6,16.9-16.9S157.4,332.4,148.1,332.4z M131.2,394.2H165v22.5
		c0,9.3-7.6,16.9-16.9,16.9s-16.9-7.6-16.9-16.9V394.2z M266.2,394.2H300v22.5c0,9.3-7.6,16.9-16.9,16.9s-16.9-7.6-16.9-16.9V394.2z
		 M170.5,533.9c8.2,0,40.3,7.4,40.3,33.5c0,10.6-6.8,27.8-21.8,27.8c-10.6,0-44.3-16.6-44.3-37.5
		C144.7,539.6,160.8,533.9,170.5,533.9z M164.1,599.8c3,0,6.1,0.8,8.8,2.3l22.8,13.1c2.7,1.6,4.4,4.5,4.4,7.7v93.8l43.8,43.8
		c1.2,1.1,2,2.6,2.4,4.2l24.5,98c2.2,9-3.2,18.1-12.2,20.3c-9,2.2-18.1-3.2-20.3-12.2l-19.9-79.7l-71.7-71.8
		c-1.7-1.7-2.6-3.9-2.6-6.2v-74L116.7,655v56.7c0,7.3-5.9,13.2-13.2,13.2c-7.3,0-13.2-5.9-13.2-13.2v-61.8c0-6.3,3.4-12.1,8.8-15.2
		l56.2-32.5C158,600.6,161,599.8,164.1,599.8z M209.7,661.1l49.6,49.6c2.4,2.4,3.9,5.7,3.9,9.3c0,7.3-5.9,13.2-13.2,13.2
		c-3.7,0-6.9-1.5-9.3-3.9l-30.9-30.8V661.1z M149.2,734.4l24.5,24.5l-67.2,116.3l-0.2-0.1c-2.9,5.1-8.3,8.5-14.6,8.5
		c-9.3,0-16.8-7.5-16.8-16.8c0-4.1,1.5-7.8,3.9-10.8L149.2,734.4z M494.1,744.6c0.3,0,0.5,0,0.8,0c2,0.1,4,0.6,5.8,1.6
		c5.8,3.4,7.8,10.8,4.4,16.7l-36.2,62.6c-2,3.5-2,7.8,0,11.2l26.4,45.7c3.1,5.4,1.3,12.3-4.1,15.4l-41.3,23.8l-38.4,66.5
		c-3.9,6.7-12.5,9-19.2,5.2s-9-12.5-5.2-19.2l42.5-73.6c1-1.7,2.4-3.1,4.1-4.1l16.4-9.5l-19.2-33.2c-2-3.5-2-7.8,0-11.2l52.9-91.7
		C486.2,746.9,490,744.8,494.1,744.6z M430.1,767.1c12.4,0,18.4,9.5,18.4,21.4c0,6.2-7.3,38-25.2,38c-11.7,0-23.9-11.2-23.9-25.9
		C399.4,784,417.4,767.1,430.1,767.1z M378.5,837.8c4.3-0.1,8.6,2.1,10.9,6.1l14.2,24.7l20.5-11.8l12.2,21.1l-31.9,18.4
		c-5.4,3.1-12.3,1.3-15.4-4.1l-20.8-36c-3.4-5.8-1.4-13.3,4.5-16.7C374.6,838.3,376.6,837.8,378.5,837.8z M494,906l19,33h25.1
		c7.8,0,14.1,6.3,14.1,14.1c0,7.8-6.3,14.1-14.1,14.1h-34.8c-4,0-7.7-2.1-9.8-5.6L469.7,920L494,906z M318.8,938.9
		c15.5,0,28.1,12.6,28.1,28.1s-12.6,28.1-28.1,28.1s-28.1-12.6-28.1-28.1S303.2,938.9,318.8,938.9z"/>
</g>
<path fill="#FF0000" d="M580,44.6C580,31,569,20,555.4,20h-10L20,818.2v37.2C20,869,31,880,44.6,880h13.8L580,87.5V44.6z"/>
</svg>
