<?xml version="1.0" encoding="utf-8"?>
<!-- Generator: Adobe Illustrator 18.0.0, SVG Export Plug-In . SVG Version: 6.00 Build 0)  -->
<!DOCTYPE svg PUBLIC "-//W3C//DTD SVG 1.1//EN" "http://www.w3.org/Graphics/SVG/1.1/DTD/svg11.dtd">
<svg version="1.1"
	 id="svg2" inkscape:version="0.48.4 r9939" sodipodi:docname="6.2014_02_16_18_28_07.2.svg" xmlns:sodipodi="http://sodipodi.sourceforge.net/DTD/sodipodi-0.dtd" xmlns:cc="http://creativecommons.org/ns#" xmlns:rdf="http://www.w3.org/1999/02/22-rdf-syntax-ns#" xmlns:dc="http://purl.org/dc/elements/1.1/" xmlns:inkscape="http://www.inkscape.org/namespaces/inkscape" xmlns:svg="http://www.w3.org/2000/svg"
	 xmlns="http://www.w3.org/2000/svg" xmlns:xlink="http://www.w3.org/1999/xlink" x="0px" y="0px"
	 viewBox="-349.6 215.7 956.5 243.1" enable-background="new -349.6 215.7 956.5 243.1" xml:space="preserve">
<path fill="#FFFFFF" stroke="#000000" stroke-width="8" stroke-miterlimit="10" d="M590.9,454.8h-924.4c-6.7,0-12.1-5.5-12.1-12.1
	v-211c0-6.7,5.5-12.1,12.1-12.1h924.4c6.7,0,12.1,5.5,12.1,12.1v211C602.9,449.4,597.5,454.8,590.9,454.8z"/>
<polygon points="498.2,272.7 438.7,287.2 438.7,380.2 423.7,380.2 423.7,352.7 339.2,319.2 254.7,352.7 254.7,380.2 240.7,380.2 
	240.7,364.2 200.8,341.4 150.7,341.4 150.7,333.2 100.7,333.2 100.7,341.4 48.6,341.4 10.7,364.2 10.7,380.2 -3.3,380.2 -3.3,360.2 
	-69.3,245.3 -135.3,360.2 -135.3,380.2 -151.3,380.2 -151.3,351.2 -225.8,333.2 -300.3,351.2 -300.3,380.2 -300.3,414.2 
	-300.3,435.2 557.7,435.2 557.7,400.2 557.7,380.2 557.7,287.2 "/>
</svg>
