<?xml version="1.0" encoding="utf-8"?>
<!-- Generator: Adobe Illustrator 18.0.0, SVG Export Plug-In . SVG Version: 6.00 Build 0)  -->
<!DOCTYPE svg PUBLIC "-//W3C//DTD SVG 1.1//EN" "http://www.w3.org/Graphics/SVG/1.1/DTD/svg11.dtd">
<svg version="1.1"
	 id="svg2" inkscape:version="0.48.4 r9939" sodipodi:docname="D:\–ú–æ–∏ –¥–æ–∫—É–º–µ–Ω—Ç—ã\SVG\–î–æ—Ä–æ–∂–Ω—ã–µ –∑–Ω–∞–∫–∏\7.10.svg" xmlns:sodipodi="http://sodipodi.sourceforge.net/DTD/sodipodi-0.dtd" xmlns:cc="http://creativecommons.org/ns#" xmlns:rdf="http://www.w3.org/1999/02/22-rdf-syntax-ns#" xmlns:dc="http://purl.org/dc/elements/1.1/" xmlns:inkscape="http://www.inkscape.org/namespaces/inkscape" xmlns:svg="http://www.w3.org/2000/svg"
	 xmlns="http://www.w3.org/2000/svg" xmlns:xlink="http://www.w3.org/1999/xlink" x="0px" y="0px" viewBox="291.9 -44 376.3 605.5"
	 enable-background="new 291.9 -44 376.3 605.5" xml:space="preserve">
<path id="rect10490" fill="#FFFFFF" stroke="#000000" stroke-width="4" d="M317.3-42h325.3c13,0,23.5,10.5,23.5,23.5V536
	c0,13-10.5,23.5-23.5,23.5H317.3c-13,0-23.5-10.5-23.5-23.5V-18.5C293.9-31.5,304.4-42,317.3-42z"/>
<g>
	<path d="M335.8,70.3l41.7-49.7v-0.3h-37.9V10.3h57.3v7.1l-41.1,49.2V67h41.7v10.1h-61.6V70.3z"/>
	<path d="M479.2,43c0,22.4-16.6,35.2-39,35.2c-23,0-37.5-14.4-37.5-34c0-20.5,15.7-35,38.7-35C465.2,9.2,479.2,23.9,479.2,43z
		 M418.4,44c0,13.6,8.3,24.4,22.6,24.4c14.4,0,22.5-10.9,22.5-24.9c0-12.6-7.6-24.5-22.5-24.5C426.3,19,418.4,30.2,418.4,44z"/>
	<path d="M492,77.1V10.3h16.9l21,28.7c5.4,7.4,10.1,15.2,13.9,22.4h0.2c-1-8.9-1.3-17.5-1.3-27.8V10.3h13.8v66.8h-15.3l-21.3-29.3
		c-5.2-7.3-10.6-15.6-14.6-23.1l-0.4,0.1c0.6,8.6,0.7,17.5,0.7,28.5v23.9H492z"/>
	<path d="M619.3,47.4h-30.7v19.6h34.3v10h-49.2V10.3h47.4v10h-32.5v17.3h30.7V47.4z"/>
</g>
<g id="layer1" transform="translate(0,-452.36218)" inkscape:groupmode="layer" inkscape:label="Layer 1">
	
		<path id="path5334" sodipodi:ry="29.465372" sodipodi:cy="432.25998" sodipodi:rx="22.107042" sodipodi:type="arc" sodipodi:cx="-87.720657" fill="#FFFFFF" d="
		M628,720.6c0,81.7-66.3,148-148,148s-148-66.3-148-148c0-81.7,66.3-148,148-148S628,638.9,628,720.6z"/>
	
		<path id="path3003" sodipodi:ry="29.465372" sodipodi:cy="432.25998" sodipodi:rx="22.107042" sodipodi:type="arc" sodipodi:cx="-87.720657" fill="none" stroke="#000000" d="
		M627.5,720.6c0,81.5-66,147.5-147.5,147.5s-147.5-66-147.5-147.5c0-81.5,66-147.5,147.5-147.5S627.5,639.1,627.5,720.6z"/>
	<path id="path7632" fill="#FF0000" d="M480,577.5c-79,0-143.1,64.1-143.1,143.1S401,863.7,480,863.7s143.1-64.1,143.1-143.1
		S559,577.5,480,577.5z M480,601.7c65.7,0,118.9,53.2,118.9,118.9c0,29.4-10.7,56.3-28.3,77L403,630.1
		C423.7,612.4,450.6,601.7,480,601.7z M389.5,643.6L557,811.2c-20.7,17.7-47.6,28.3-77,28.3c-65.7,0-118.9-53.2-118.9-118.9
		C361.1,691.2,371.8,664.3,389.5,643.6z"/>
	<path id="path8956" fill="#0D69E1" d="M480,606c-26.6,0-51.2,9.1-70.6,24.4l160.9,160.9c15.3-19.5,24.4-44,24.4-70.6
		C594.6,657.3,543.3,606,480,606z"/>
	<path id="path7644" fill="#0D69E1" d="M389.8,650c-15.3,19.5-24.4,44-24.4,70.6c0,63.3,51.3,114.6,114.6,114.6
		c26.6,0,51.2-9.1,70.6-24.4L389.8,650z"/>
</g>
<g>
	<path d="M364.1,502.7c0,2.5-1,4.6-3.1,6.4c-2,1.8-4.3,2.6-6.9,2.6h-10.9c-2.5,0-4.8-0.8-6.8-2.6c-2.1-1.9-3.2-4-3.2-6.4V491
		c0-2,0.7-3.6,2.1-5c1.4-1.3,3-2,4.9-2.4V483c-1.5,0-2.9-0.4-4.1-1.3c-1.3-0.9-2-2.1-2-3.6v-9.7c0-2,1.1-3.9,3.2-5.5
		c2-1.4,4.1-2.2,6.2-2.2h9.9c2.1,0,4.2,0.8,6.2,2.2c2.1,1.6,3.2,3.5,3.2,5.5v9.7c0,1.4-0.6,2.5-1.9,3.5c-1.2,0.9-2.5,1.4-3.9,1.4
		v0.6c2,0.3,3.5,1.2,4.8,2.5c1.4,1.4,2,3.1,2,4.9L364.1,502.7L364.1,502.7z M353,500.4v-7.1c0-1-0.5-1.9-1.4-2.6
		c-0.9-0.7-1.9-1.1-2.9-1.1s-2,0.3-2.9,1.1c-0.9,0.8-1.4,1.6-1.4,2.6v7.1c0,1,0.5,2,1.4,2.6c0.8,0.7,1.9,1.1,2.9,1.1s2-0.3,2.9-1.1
		C352.4,502.3,353,501.4,353,500.4z M351.8,477.3v-6c0-0.7-0.3-1.4-1-2c-0.7-0.6-1.4-0.8-2.1-0.8c-0.8,0-1.5,0.3-2.3,0.8
		c-0.8,0.6-1.2,1.2-1.2,2v6c0,0.9,0.3,1.7,0.9,2.4c0.6,0.7,1.4,1,2.2,1c0.9,0,1.8-0.3,2.5-0.9C351.4,479,351.8,478.3,351.8,477.3z"
		/>
	<path d="M377.3,508.3c0,1.2-0.3,2-1.1,2.3c-0.5,0.3-1.4,0.3-2.7,0.3c-1.4,0-2.3-0.2-2.8-0.4c-0.7-0.4-1-1.2-1-2.4
		c0-1.8,1.1-2.6,3.3-2.6h0.6c1.4,0,2.3,0.2,2.8,0.4C377,506.3,377.3,507,377.3,508.3z"/>
	<path d="M402,504.9c0,1.5-0.7,3-2.1,4.3c-1.4,1.3-3,2-4.5,2h-7.8c-1.5,0-3.1-0.7-4.5-2s-2.2-2.8-2.2-4.2v-22.5
		c0-1.4,0.8-2.9,2.2-4.2s3-2,4.5-2h7.8c1.5,0,3.1,0.7,4.5,2c1.4,1.4,2.2,2.8,2.2,4.3L402,504.9L402,504.9z M394.4,503v-18.6
		c0-0.8-0.3-1.4-0.9-2c-0.6-0.5-1.3-0.8-2-0.8c-0.8,0-1.4,0.3-2,0.8c-0.6,0.5-0.9,1.2-0.9,2V503c0,0.8,0.3,1.4,0.9,2
		c0.6,0.6,1.3,0.8,2,0.8c0.8,0,1.4-0.3,2-0.8C394.1,504.3,394.4,503.6,394.4,503z"/>
	<path d="M427.6,504.9c0,1.5-0.7,3-2.1,4.3c-1.4,1.3-3,2-4.5,2h-7.8c-1.5,0-3.1-0.7-4.5-2s-2.2-2.8-2.2-4.2v-22.5
		c0-1.4,0.8-2.9,2.2-4.2s3-2,4.5-2h7.8c1.5,0,3.1,0.7,4.5,2c1.4,1.4,2.2,2.8,2.2,4.3L427.6,504.9L427.6,504.9z M419.9,503v-18.6
		c0-0.8-0.3-1.4-0.9-2c-0.6-0.5-1.3-0.8-2-0.8c-0.8,0-1.4,0.3-2,0.8c-0.6,0.5-0.9,1.2-0.9,2V503c0,0.8,0.3,1.4,0.9,2
		c0.6,0.6,1.3,0.8,2,0.8c0.8,0,1.4-0.3,2-0.8C419.6,504.3,419.9,503.6,419.9,503z"/>
	<path d="M481,492.8h-28.2v-9.4h28.3L481,492.8L481,492.8z"/>
	<path d="M524.7,511.5h-10.8v-35c-1.2,0.2-3,0.9-5.3,2.3h-0.8V470c4.2-1.6,7.1-4.8,8.7-9.6h8.1V511.5z"/>
	<path d="M562.8,467.4l-21,43.6h-10.4l20.4-42.9H531v-7.6h31.6L562.8,467.4L562.8,467.4z"/>
	<path d="M576.7,508.3c0,1.2-0.3,2-1.1,2.3c-0.5,0.3-1.4,0.3-2.7,0.3s-2.3-0.2-2.8-0.4c-0.7-0.4-1-1.2-1-2.4c0-1.8,1.1-2.6,3.3-2.6
		h0.6c1.4,0,2.3,0.2,2.8,0.4C576.3,506.3,576.7,507,576.7,508.3z"/>
	<path d="M601.3,504.8c0,1.8-0.8,3.3-2.3,4.6c-1.4,1.2-3.1,1.8-4.9,1.8h-6.4c-2,0-3.7-0.6-5.2-1.9c-1.5-1.3-2.4-3-2.4-4.9v-4.8h7.6
		c0,0.2,0,0.4,0,0.8c0,0.3,0,0.6,0,0.8c0,1.6,0.2,2.7,0.4,3.4c0.4,1,1.4,1.5,2.7,1.5c0.7,0,1.4-0.3,2-0.8c0.6-0.6,0.9-1.2,0.9-1.9
		v-4.2c0-1.4-1-2.5-3.1-2.9v-5.2c2,0,3.1-0.9,3.1-2.7v-4.4c0-0.8-0.3-1.4-1-2c-0.7-0.6-1.4-0.8-2.1-0.8c-1.4,0-2.2,0.6-2.6,1.9
		c-0.2,0.6-0.3,1.8-0.3,3.6h-7.6v-4.2c0.1-0.4,0.3-0.9,0.5-1.7c0.4-1.2,1.2-2.3,2.2-3.3c1-0.9,2.3-1.4,4-1.4h7.6
		c2.1,0,4,0.8,5.5,2.6c0.8,0.9,1.3,2.3,1.3,3.9v6.2c0,0.9-0.4,1.7-1.2,2.3c-0.3,0.2-1,0.7-2.4,1.4c1.5,0.8,2.3,1.3,2.5,1.4
		c0.7,0.6,1,1.4,1,2.5v8.3H601.3z"/>
	<path d="M626.7,504.9c0,1.5-0.7,3-2.1,4.3c-1.4,1.3-3,2-4.5,2h-7.8c-1.5,0-3.1-0.7-4.5-2c-1.4-1.4-2.2-2.8-2.2-4.2v-22.5
		c0-1.4,0.8-2.9,2.2-4.2c1.4-1.4,3-2,4.5-2h7.8c1.5,0,3.1,0.7,4.5,2c1.4,1.4,2.2,2.8,2.2,4.3L626.7,504.9L626.7,504.9z M619.1,503
		v-18.6c0-0.8-0.3-1.4-0.9-2c-0.6-0.5-1.3-0.8-2-0.8c-0.8,0-1.4,0.3-2,0.8c-0.6,0.5-0.9,1.2-0.9,2V503c0,0.8,0.3,1.4,0.9,2
		c0.6,0.6,1.3,0.8,2,0.8c0.8,0,1.4-0.3,2-0.8C618.8,504.3,619.1,503.6,619.1,503z"/>
</g>
</svg>
