<?xml version="1.0" encoding="utf-8"?>
<!-- Generator: Adobe Illustrator 18.0.0, SVG Export Plug-In . SVG Version: 6.00 Build 0)  -->
<!DOCTYPE svg PUBLIC "-//W3C//DTD SVG 1.1//EN" "http://www.w3.org/Graphics/SVG/1.1/DTD/svg11.dtd">
<svg version="1.1"
	 id="svg2" inkscape:version="0.48.4 r9939" sodipodi:docname="D:\–ú–æ–∏ –¥–æ–∫—É–º–µ–Ω—Ç—ã\SVG\–î–æ—Ä–æ–∂–Ω—ã–µ –∑–Ω–∞–∫–∏\7.10.svg" xmlns:sodipodi="http://sodipodi.sourceforge.net/DTD/sodipodi-0.dtd" xmlns:cc="http://creativecommons.org/ns#" xmlns:rdf="http://www.w3.org/1999/02/22-rdf-syntax-ns#" xmlns:dc="http://purl.org/dc/elements/1.1/" xmlns:inkscape="http://www.inkscape.org/namespaces/inkscape" xmlns:svg="http://www.w3.org/2000/svg"
	 xmlns="http://www.w3.org/2000/svg" xmlns:xlink="http://www.w3.org/1999/xlink" x="0px" y="0px" viewBox="291.9 -44 376.3 605.5"
	 enable-background="new 291.9 -44 376.3 605.5" xml:space="preserve">
<path id="rect10490" fill="#FFFFFF" stroke="#000000" stroke-width="4" d="M317.3-42h325.3c13,0,23.5,10.5,23.5,23.5V536
	c0,13-10.5,23.5-23.5,23.5H317.3c-13,0-23.5-10.5-23.5-23.5V-18.5C293.9-31.5,304.4-42,317.3-42z"/>
<g>
	<path d="M335.8,70.3l41.7-49.7v-0.3h-37.9V10.3h57.3v7.1l-41.1,49.2V67h41.7v10.1h-61.6V70.3z"/>
	<path d="M479.2,43c0,22.4-16.6,35.2-39,35.2c-23,0-37.5-14.4-37.5-34c0-20.5,15.7-35,38.7-35C465.2,9.2,479.2,23.9,479.2,43z
		 M418.4,44c0,13.6,8.3,24.4,22.6,24.4c14.4,0,22.5-10.9,22.5-24.9c0-12.6-7.6-24.5-22.5-24.5C426.3,19,418.4,30.2,418.4,44z"/>
	<path d="M492,77.1V10.3h16.9l21,28.7c5.4,7.4,10.1,15.2,13.9,22.4h0.2c-1-8.9-1.3-17.5-1.3-27.8V10.3h13.8v66.8h-15.3l-21.3-29.3
		c-5.2-7.3-10.6-15.6-14.6-23.1l-0.4,0.1c0.6,8.6,0.7,17.5,0.7,28.5v23.9H492z"/>
	<path d="M619.3,47.4h-30.7v19.6h34.3v10h-49.2V10.3h47.4v10h-32.5v17.3h30.7V47.4z"/>
</g>
<path id="rect3844-6" fill="#FFFFFF" stroke="#7F7F7F" stroke-width="2" d="M358.1,116.6h243.6c11.6,0,21,9.4,21,21v243.6
	c0,11.6-9.4,21-21,21H358.1c-11.6,0-21-9.4-21-21V137.6C337.1,126,346.5,116.6,358.1,116.6z"/>
<path id="rect3776" fill="#7F7F7F" d="M358.1,125.7c-6.6,0-11.9,5.3-11.9,11.9v243.6c0,6.6,5.3,11.9,11.9,11.9h243.6
	c6.6,0,11.9-5.3,11.9-11.9V137.6c0-6.6-5.3-11.9-11.9-11.9H358.1z M422.5,154.4H499c36.9,0,66.9,29.9,66.9,66.9
	s-29.9,66.9-66.9,66.9h-47.8v76.4h-28.7V154.4z M451.2,183v76.4H499c21.1,0,38.2-17.1,38.2-38.2S520.1,183,499,183H451.2z"/>
<g>
	<path fill="#FFFFFF" stroke="#000000" stroke-width="1.8842" stroke-miterlimit="10" d="M587.4,525.1H373.9c-2.6,0-4.8-2.2-4.8-4.8
		v-83.4c0-2.6,2.2-4.8,4.8-4.8h213.4c2.6,0,4.8,2.2,4.8,4.8v83.4C592.1,522.9,590,525.1,587.4,525.1z"/>
	<polygon points="454,489.8 454,502 370.3,502 370.3,524.1 591.3,524.1 591.3,506.4 591.3,502 591.3,489.8 	"/>
	<path d="M477.5,456.3l-8.9-13.9c-0.1-0.5-0.6-0.8-1.1-0.7l-41.9,10c-0.5,0.1-0.8,0.6-0.7,1.1l-2.6,16.6h-0.1
		c-1.5,0.4-2.4,1.9-2.1,3.4l3.5,14.7c0.4,1.5,1.9,2.4,3.4,2.1l0.3-0.1l2.6,11c0.2,0.7,0.9,1.1,1.5,0.9l4.3-1
		c0.7-0.2,1.1-0.9,0.9-1.5l-2.6-10.9l41.1-9.8l2.6,11c0.2,0.7,0.9,1.1,1.5,0.9l4.3-1c0.7-0.2,1.1-0.9,0.9-1.5l-2.6-11l0.3-0.1
		c1.5-0.4,2.4-1.9,2.1-3.4l-3.5-14.7C480.5,457,479,456,477.5,456.3z M433.8,483.2c-2.2,0.5-4.5-0.8-5-3.1c-0.5-2.2,0.8-4.5,3.1-5
		c2.2-0.5,4.5,0.8,5,3.1C437.4,480.4,436,482.7,433.8,483.2z M473.3,474.3c-2.2,0.5-4.5-0.8-5-3.1c-0.5-2.2,0.8-4.5,3.1-5
		c2.2-0.5,4.5,0.8,5,3.1C476.9,471.6,475.5,473.8,473.3,474.3z M468.8,462.9l-34.9,8.3c-3.8,0.9-7.4-1.1-7.5-1.5l2.4-15.5
		c-0.1-0.4,0.2-0.8,0.6-0.9l35.1-8.4c0.4-0.1,0.8,0.2,0.9,0.6l8.3,13C473.9,458.9,473.6,461.7,468.8,462.9z"/>
</g>
<g>
	<path d="M292.3,444.9L667.6,12.3c0-2.9-0.1-5.9-0.3-8.8L292.9,435c0,0,0,0,0.1,0c0,0,0,0-0.1,0l-0.5,0.6
		C292.1,438.6,292.1,441.7,292.3,444.9z"/>
	<path d="M292.7,472.6L666.1,42.2c0.2-3.2,0.3-6.4,0.4-9.6L292.9,463.2C293.1,466.4,293.1,469.6,292.7,472.6z"/>
	<path d="M667.2,61.2L292.2,493.6c0.3,2.7,0.7,5.5,0.8,8.2L667.2,70.5C667.2,67.4,667.2,64.3,667.2,61.2z"/>
	<path d="M293,533.7c0,0.2-0.1,0.4-0.1,0.6l375.7-433.1l-0.4-1.1c-0.5-2.5-0.1-4.6-0.4-7.2L292.2,526
		C292.8,528.7,293.4,531.3,293,533.7z"/>
</g>
</svg>
