<?xml version="1.0" encoding="utf-8"?>
<!-- Generator: Adobe Illustrator 18.0.0, SVG Export Plug-In . SVG Version: 6.00 Build 0)  -->
<!DOCTYPE svg PUBLIC "-//W3C//DTD SVG 1.1//EN" "http://www.w3.org/Graphics/SVG/1.1/DTD/svg11.dtd">
<svg version="1.1"
	 id="svg2" inkscape:version="0.48.4 r9939" sodipodi:docname="D:\–ú–æ–∏ –¥–æ–∫—É–º–µ–Ω—Ç—ã\SVG\–î–æ—Ä–æ–∂–Ω—ã–µ –∑–Ω–∞–∫–∏\7.10.svg" xmlns:sodipodi="http://sodipodi.sourceforge.net/DTD/sodipodi-0.dtd" xmlns:cc="http://creativecommons.org/ns#" xmlns:rdf="http://www.w3.org/1999/02/22-rdf-syntax-ns#" xmlns:dc="http://purl.org/dc/elements/1.1/" xmlns:inkscape="http://www.inkscape.org/namespaces/inkscape" xmlns:svg="http://www.w3.org/2000/svg"
	 xmlns="http://www.w3.org/2000/svg" xmlns:xlink="http://www.w3.org/1999/xlink" x="0px" y="0px" viewBox="291.9 -44 376.3 605.5"
	 enable-background="new 291.9 -44 376.3 605.5" xml:space="preserve">
<path id="rect10490" fill="#FFFFFF" stroke="#000000" stroke-width="4" d="M317.3-42h325.3c13,0,23.5,10.5,23.5,23.5V536
	c0,13-10.5,23.5-23.5,23.5H317.3c-13,0-23.5-10.5-23.5-23.5V-18.5C293.9-31.5,304.4-42,317.3-42z"/>
<g>
	<path d="M335.8,70.3l41.7-49.7v-0.3h-37.9V10.3h57.3v7.1l-41.1,49.2V67h41.7v10.1h-61.6V70.3z"/>
	<path d="M479.2,43c0,22.4-16.6,35.2-39,35.2c-23,0-37.5-14.4-37.5-34c0-20.5,15.7-35,38.7-35C465.2,9.2,479.2,23.9,479.2,43z
		 M418.4,44c0,13.6,8.3,24.4,22.6,24.4c14.4,0,22.5-10.9,22.5-24.9c0-12.6-7.6-24.5-22.5-24.5C426.3,19,418.4,30.2,418.4,44z"/>
	<path d="M492,77.1V10.3h16.9l21,28.7c5.4,7.4,10.1,15.2,13.9,22.4h0.2c-1-8.9-1.3-17.5-1.3-27.8V10.3h13.8v66.8h-15.3l-21.3-29.3
		c-5.2-7.3-10.6-15.6-14.6-23.1l-0.4,0.1c0.6,8.6,0.7,17.5,0.7,28.5v23.9H492z"/>
	<path d="M619.3,47.4h-30.7v19.6h34.3v10h-49.2V10.3h47.4v10h-32.5v17.3h30.7V47.4z"/>
</g>
<g id="layer1" transform="translate(0,-452.36218)" inkscape:groupmode="layer" inkscape:label="Layer 1">
	
		<path id="path5334" sodipodi:ry="29.465372" sodipodi:cy="432.25998" sodipodi:rx="22.107042" sodipodi:type="arc" sodipodi:cx="-87.720657" fill="#FFFFFF" d="
		M631.9,751.4c0,83.4-67.6,151-151,151s-151-67.6-151-151c0-83.4,67.6-151,151-151S631.9,668,631.9,751.4z"/>
	
		<path id="path3003" sodipodi:ry="29.465372" sodipodi:cy="432.25998" sodipodi:rx="22.107042" sodipodi:type="arc" sodipodi:cx="-87.720657" fill="none" stroke="#7F7F7F" d="
		M631.4,751.4c0,83.1-67.4,150.5-150.5,150.5s-150.5-67.4-150.5-150.5c0-83.1,67.4-150.5,150.5-150.5S631.4,668.2,631.4,751.4z"/>
	<path id="path4775-9" fill="#7F7F7F" d="M480.9,605.4c-80.6,0-146,65.4-146,146s65.4,146,146,146s146-65.4,146-146
		S561.5,605.4,480.9,605.4z M480.9,630.1c67,0,121.3,54.3,121.3,121.3s-54.3,121.3-121.3,121.3s-121.3-54.3-121.3-121.3
		S413.9,630.1,480.9,630.1z"/>
	<g id="text9499">
		<path id="path9882" d="M464.1,715.2l5.4-17.4h-61.6V750l12.1,6.7c1.3-0.9,3.3-2.4,6-4.5c2.7-2.1,6-3.3,10-3.5
			c6.1,0.3,10.7,2.4,13.9,6.5c3.2,4.1,4.8,8.6,4.9,13.6c-0.3,6.7-3,11.7-8,15.1c-5,3.3-10.4,5-16.1,5c-4.5,0.1-9-0.3-13.6-1
			c-4.6-0.7-8.5-2.2-11.9-4.3l2.7,17.4c0.3,0.2,3,1.1,8.2,2.7c5.2,1.6,10.9,2.5,17.2,2.7c12.9-0.3,23-4.1,30.3-11.4
			c7.3-7.3,11.1-16.5,11.2-27.5c-0.4-10.8-3.9-19-10.5-24.8c-6.6-5.7-13.8-8.7-21.6-8.7c-3.2-0.1-6.3,0.4-9.5,1.3
			c-3.2,0.9-5.8,2.7-7.9,5.4v-25.5L464.1,715.2z"/>
		<path id="path9884" d="M524.8,696.4c-10.9,0.3-19.6,5.4-26.1,15.4c-6.5,10-9.9,23.2-10,39.5c0.2,16.4,3.5,29.5,10,39.5
			c6.5,10,15.2,15.1,26.1,15.4c10.9-0.3,19.6-5.4,26.1-15.4c6.5-10,9.9-23.2,10-39.5c-0.2-15.6-3.5-28.6-10-38.9
			C544.3,702.2,535.6,696.8,524.8,696.4L524.8,696.4z M524.8,713.1c5.2-0.1,9.4,3,12.6,9.1c3.1,6.1,4.8,15.9,4.8,29.2
			c-0.1,13.3-1.7,23-4.8,29.2c-3.1,6.1-7.3,9.2-12.6,9.1c-5.2,0.1-9.4-3-12.6-9.1c-3.1-6.1-4.8-15.9-4.8-29.2
			c0.1-13.3,1.7-23,4.8-29.2C515.3,716,519.5,713,524.8,713.1z"/>
	</g>
</g>
<g>
	<path d="M292.3,444.9L667.6,12.3c0-2.9-0.1-5.9-0.3-8.8L292.9,435c0,0,0,0,0.1,0c0,0,0,0-0.1,0l-0.5,0.6
		C292.1,438.6,292.1,441.7,292.3,444.9z"/>
	<path d="M292.7,472.6L666.1,42.2c0.2-3.2,0.3-6.4,0.4-9.6L292.9,463.2C293.1,466.4,293.1,469.6,292.7,472.6z"/>
	<path d="M667.2,61.2L292.2,493.6c0.3,2.7,0.7,5.5,0.8,8.2L667.2,70.5C667.2,67.4,667.2,64.3,667.2,61.2z"/>
	<path d="M293,533.7c0,0.2-0.1,0.4-0.1,0.6l375.7-433.1l-0.4-1.1c-0.5-2.5-0.1-4.6-0.4-7.2L292.2,526
		C292.8,528.7,293.4,531.3,293,533.7z"/>
</g>
</svg>
