<?xml version="1.0" encoding="utf-8"?>
<!-- Generator: Adobe Illustrator 18.0.0, SVG Export Plug-In . SVG Version: 6.00 Build 0)  -->
<!DOCTYPE svg PUBLIC "-//W3C//DTD SVG 1.1//EN" "http://www.w3.org/Graphics/SVG/1.1/DTD/svg11.dtd">
<svg version="1.1"
	 id="svg2" inkscape:version="0.48.4 r9939" sodipodi:docname="D:\–ú–æ–∏ –¥–æ–∫—É–º–µ–Ω—Ç—ã\SVG\–î–æ—Ä–æ–∂–Ω—ã–µ –∑–Ω–∞–∫–∏\7.10.svg" xmlns:sodipodi="http://sodipodi.sourceforge.net/DTD/sodipodi-0.dtd" xmlns:cc="http://creativecommons.org/ns#" xmlns:rdf="http://www.w3.org/1999/02/22-rdf-syntax-ns#" xmlns:dc="http://purl.org/dc/elements/1.1/" xmlns:inkscape="http://www.inkscape.org/namespaces/inkscape" xmlns:svg="http://www.w3.org/2000/svg"
	 xmlns="http://www.w3.org/2000/svg" xmlns:xlink="http://www.w3.org/1999/xlink" x="0px" y="0px" viewBox="291.9 -44 376.3 605.5"
	 enable-background="new 291.9 -44 376.3 605.5" xml:space="preserve">
<path id="rect10490" fill="#FFFFFF" stroke="#000000" stroke-width="4" d="M317.3-42h325.3c13,0,23.5,10.5,23.5,23.5V536
	c0,13-10.5,23.5-23.5,23.5H317.3c-13,0-23.5-10.5-23.5-23.5V-18.5C293.9-31.5,304.4-42,317.3-42z"/>
<g>
	<path d="M335.8,70.3l41.7-49.7v-0.3h-37.9V10.3h57.3v7.1l-41.1,49.2V67h41.7v10.1h-61.6V70.3z"/>
	<path d="M479.2,43c0,22.4-16.6,35.2-39,35.2c-23,0-37.5-14.4-37.5-34c0-20.5,15.7-35,38.7-35C465.2,9.2,479.2,23.9,479.2,43z
		 M418.4,44c0,13.6,8.3,24.4,22.6,24.4c14.4,0,22.5-10.9,22.5-24.9c0-12.6-7.6-24.5-22.5-24.5C426.3,19,418.4,30.2,418.4,44z"/>
	<path d="M492,77.1V10.3h16.9l21,28.7c5.4,7.4,10.1,15.2,13.9,22.4h0.2c-1-8.9-1.3-17.5-1.3-27.8V10.3h13.8v66.8h-15.3l-21.3-29.3
		c-5.2-7.3-10.6-15.6-14.6-23.1l-0.4,0.1c0.6,8.6,0.7,17.5,0.7,28.5v23.9H492z"/>
	<path d="M619.3,47.4h-30.7v19.6h34.3v10h-49.2V10.3h47.4v10h-32.5v17.3h30.7V47.4z"/>
</g>
<g id="layer1" transform="translate(0,-352.36218)" inkscape:groupmode="layer" inkscape:label="Layer 1">
	
		<path id="path6124" sodipodi:ry="29.465372" sodipodi:cy="432.25998" sodipodi:rx="22.107042" sodipodi:type="arc" sodipodi:cx="-87.720657" fill="#FFFFFF" d="
		M638.7,626.1c0,87.2-70.6,157.9-157.8,157.9c-87.2,0-157.9-70.6-157.9-157.8c0,0,0-0.1,0-0.1c0-87.2,70.6-157.9,157.8-157.9
		S638.7,538.8,638.7,626C638.7,626,638.7,626.1,638.7,626.1z"/>
	<path id="path6156" fill="#7F7F7F" d="M480.9,477.2c-82.2,0-148.9,66.6-148.9,148.9s66.6,148.9,148.9,148.9s148.9-66.6,148.9-148.9
		S563.1,477.2,480.9,477.2z M475.8,520.9c4.7,0,23.3,4.3,23.3,19.4c0,6.1-4,16-12.6,16c-6.1,0-25.6-9.6-25.6-21.6
		C460.9,524.2,470.2,520.9,475.8,520.9z M472.1,559c1.8,0,3.5,0.4,5.1,1.4l13.1,7.6c1.6,0.9,2.6,2.6,2.6,4.4v54.2l26.4,26.4l14.5,58
		c1.3,5.2-1.8,10.4-7,11.7c-5.2,1.3-10.4-1.9-11.7-7l-11.5-46L462,628.1c-1-1-1.5-2.2-1.5-3.6v-42.7l-15.8,9.1v32.7
		c0,4.2-3.4,7.6-7.6,7.6c-4.2,0-7.6-3.4-7.6-7.6v-35.6c0-3.6,1.9-7,5.1-8.8l32.4-18.7C468.5,559.4,470.3,559,472.1,559z
		 M498.4,594.4L527,623c1.4,1.4,2.2,3.3,2.2,5.4c0,4.2-3.4,7.6-7.6,7.6c-2.1,0-4-0.9-5.4-2.3L498.4,616V594.4z M463.4,636.7
		l14.2,14.2L438.8,718l-0.1-0.1c-1.7,2.9-4.8,4.9-8.4,4.9c-5.3,0-9.7-4.3-9.7-9.7c0-2.4,0.9-4.5,2.3-6.2L463.4,636.7z"/>
	
		<path id="path6162" sodipodi:ry="29.465372" sodipodi:cy="432.25998" sodipodi:rx="22.107042" sodipodi:type="arc" sodipodi:cx="-87.720657" fill="none" stroke="#7F7F7F" d="
		M638.3,626.1c0,86.9-70.4,157.4-157.4,157.5s-157.4-70.4-157.5-157.4c0,0,0-0.1,0-0.1c0-86.9,70.4-157.4,157.4-157.5
		S638.3,539,638.3,626C638.3,626,638.3,626.1,638.3,626.1z"/>
</g>
<g id="g4390" transform="translate(3.6921907e-6,-8.1263121)">
	<path id="path4384" inkscape:connector-curvature="0" fill="#FF0000" stroke="#FF0000" d="M475.1,506.2l-5.8-40.6h23.2l-5.8,40.6
		l5.8,40.6h-23.2L475.1,506.2"/>
	<path id="path4386" inkscape:connector-curvature="0" fill="#FF0000" stroke="#FF0000" stroke-width="0.555" d="M477.9,511.2
		l-38-15.3l11.6-20.1l32.3,25.4l38,15.3l-11.6,20.1L477.9,511.2"/>
	<path id="path4388" inkscape:connector-curvature="0" fill="#FF0000" stroke="#FF0000" stroke-width="0.555" d="M483.8,511.2
		l-32.3,25.4L440,516.4l38-15.3l32.3-25.4l11.6,20.1L483.8,511.2"/>
</g>
<g>
	<path d="M292.3,444.9L667.6,12.3c0-2.9-0.1-5.9-0.3-8.8L292.9,435c0,0,0,0,0.1,0c0,0,0,0-0.1,0l-0.5,0.6
		C292.1,438.6,292.1,441.7,292.3,444.9z"/>
	<path d="M292.7,472.6L666.1,42.2c0.2-3.2,0.3-6.4,0.4-9.6L292.9,463.2C293.1,466.4,293.1,469.6,292.7,472.6z"/>
	<path d="M667.2,61.2L292.2,493.6c0.3,2.7,0.7,5.5,0.8,8.2L667.2,70.5C667.2,67.4,667.2,64.3,667.2,61.2z"/>
	<path d="M293,533.7c0,0.2-0.1,0.4-0.1,0.6l375.7-433.1l-0.4-1.1c-0.5-2.5-0.1-4.6-0.4-7.2L292.2,526
		C292.8,528.7,293.4,531.3,293,533.7z"/>
</g>
</svg>
