<?xml version="1.0" encoding="utf-8"?>
<!-- Generator: Adobe Illustrator 18.0.0, SVG Export Plug-In . SVG Version: 6.00 Build 0)  -->
<!DOCTYPE svg PUBLIC "-//W3C//DTD SVG 1.1//EN" "http://www.w3.org/Graphics/SVG/1.1/DTD/svg11.dtd">
<svg version="1.1"
	 id="svg2" inkscape:version="0.48.4 r9939" sodipodi:docname="D:\–ú–æ–∏ –¥–æ–∫—É–º–µ–Ω—Ç—ã\SVG\–î–æ—Ä–æ–∂–Ω—ã–µ –∑–Ω–∞–∫–∏\7.10.svg" xmlns:sodipodi="http://sodipodi.sourceforge.net/DTD/sodipodi-0.dtd" xmlns:cc="http://creativecommons.org/ns#" xmlns:rdf="http://www.w3.org/1999/02/22-rdf-syntax-ns#" xmlns:dc="http://purl.org/dc/elements/1.1/" xmlns:inkscape="http://www.inkscape.org/namespaces/inkscape" xmlns:svg="http://www.w3.org/2000/svg"
	 xmlns="http://www.w3.org/2000/svg" xmlns:xlink="http://www.w3.org/1999/xlink" x="0px" y="0px" viewBox="292.9 -0.5 374.3 560.9"
	 enable-background="new 292.9 -0.5 374.3 560.9" xml:space="preserve">
<path id="rect10490" fill="#FFFFFF" stroke="#000000" stroke-width="2" d="M317.3,0.5h325.3c13,0,23.5,10.5,23.5,23.5v512
	c0,13-10.5,23.5-23.5,23.5H317.3c-13,0-23.5-10.5-23.5-23.5V24C293.9,11,304.4,0.5,317.3,0.5z"/>
<path id="rect10483" inkscape:connector-curvature="0" fill="#0D69E1" d="M317.3,10.7c-7.4,0-13.3,5.9-13.3,13.3v512
	c0,7.4,5.9,13.3,13.3,13.3h325.3c7.4,0,13.3-6,13.3-13.3V24c0-7.4-6-13.3-13.3-13.3H317.3L317.3,10.7z M352.3,93.3h255.4
	c13.3,0,24,10.7,24,24v255.4c0,13.3-10.7,24-24,24H352.3c-13.3,0-24-10.7-24-24V117.3C328.3,104.1,339,93.3,352.3,93.3L352.3,93.3z"
	/>
<g>
	<path fill="#FFFFFF" d="M419.3,495.2h-8v-33.3c-0.8,0.5-1.8,1.1-2.7,1.7l-0.6,0.5c-1.8,1.1-4.6,2.3-7.7,3.4v-7.9
		c6.3-3.1,11.4-7.6,13.4-11.8h5.6L419.3,495.2L419.3,495.2z"/>
	<path fill="#FFFFFF" d="M449.5,447.8c5.2,0,9.2,2.3,11.7,6.3v-0.1c2.6,3.8,4.1,8.9,4.1,17.8c0,16.3-5.1,23.8-15.8,24.2
		c-4.6,0-8.5-1.9-11.3-5.2c-3-3.8-4.6-10.3-4.6-19C433.7,455.5,438.8,448.2,449.5,447.8z M444.1,485.8c1.4,2.1,3.1,3.1,5.4,3.1
		c2.1,0,3.8-1.1,5.2-3.1c1.6-2.3,2.4-7,2.4-13.9c0-7-0.8-11.6-2.4-13.9c-1.4-2.1-3.1-3.1-5.3-3.1c-2.1,0-3.8,1-5.1,2.7v-0.1
		c-1.7,2.5-2.6,7.4-2.6,14.3C441.8,478.9,442.6,483.6,444.1,485.8z"/>
	<path fill="#FFFFFF" d="M486.9,447.8c5.2,0,9.2,2.3,11.7,6.3v-0.1c2.6,3.8,4.1,8.9,4.1,17.8c0,16.3-5.1,23.8-15.8,24.2
		c-4.6,0-8.5-1.9-11.3-5.2c-3-3.8-4.6-10.3-4.6-19C471,455.5,476.3,448.2,486.9,447.8z M481.5,485.8c1.4,2.1,3.1,3.1,5.4,3.1
		c2.1,0,3.8-1.1,5.2-3.1c1.6-2.3,2.4-7,2.4-13.9c0-7-0.8-11.6-2.4-13.9c-1.4-2.1-3.1-3.1-5.3-3.1c-2.1,0-3.8,1-5.1,2.7v-0.1
		c-1.7,2.5-2.6,7.4-2.6,14.3C479.2,478.9,479.9,483.6,481.5,485.8z"/>
	<path fill="#FFFFFF" d="M552,462.5c0-3.5-1.1-6.1-3-7.4c-0.9-0.5-2.4-1-3.5-1c-2.6,0-4.6,0.9-6.1,2.8c-1.4,1.8-2.1,4.5-2.1,8.2
		h-7.6c0-8.5,3-13.9,9.1-16c2.5-0.9,4.6-1.3,6.8-1.3c5.2,0,9.3,2.3,12.1,6.2c1.3,2.1,2.1,4.9,2.1,7.7V480c0,3.6-1,7-2.8,10.6
		c-2.1,3.9-6.4,5.9-12.9,5.9c-6.9,0-11.5-2.6-14.1-7.8c-1.1-2.3-1.6-4.4-1.6-6.7c-0.2-8.2,7-14.7,15.5-14.5c3,0,5.8,0.7,8.2,2.3
		v-7.3H552z M540.1,489.1c1.2,0.7,2.6,1,3.9,1c4.4-0.1,8.2-3.8,8-8.5c0-2.2-0.7-4.2-2.3-5.7c-1.5-1.5-3.4-2.2-5.7-2.2
		c-3,0-5.2,1.3-7,3.9c-0.8,1.3-1.1,2.8-1.1,4.4C535.9,485.3,537.3,487.6,540.1,489.1z"/>
</g>
<g>
	<path d="M348,205.1c4-0.7,9.6-1.2,17.4-1.2c8,0,13.6,1.5,17.4,4.6c3.6,2.9,6.1,7.6,6.1,13.2c0,5.6-1.9,10.3-5.2,13.5
		c-4.4,4.1-10.9,6-18.5,6c-1.7,0-3.2-0.1-4.4-0.3v20.4H348V205.1z M360.8,231c1.1,0.3,2.5,0.3,4.3,0.3c6.9,0,11.1-3.5,11.1-9.3
		c0-5.2-3.6-8.4-10.1-8.4c-2.6,0-4.4,0.3-5.3,0.5V231z"/>
	<path d="M449.4,232.3c0,18.7-11.3,30-28,30c-16.9,0-26.8-12.8-26.8-29c0-17.1,10.9-29.9,27.8-29.9
		C439.8,203.4,449.4,216.6,449.4,232.3z M408.2,233.1c0,11.2,5.2,19,13.9,19c8.7,0,13.7-8.3,13.7-19.4c0-10.2-4.9-19-13.8-19
		C413.3,213.7,408.2,222,408.2,233.1z"/>
	<path d="M457.9,204.4h13v46.2h22.7v10.8h-35.6V204.4z"/>
	<path d="M514.1,204.4v57.1h-13v-57.1H514.1z"/>
	<path d="M567.1,259.8c-2.4,1.2-7.7,2.5-14.6,2.5c-19.7,0-29.9-12.3-29.9-28.5c0-19.5,13.9-30.3,31.1-30.3c6.7,0,11.8,1.4,14.1,2.5
		l-2.6,10.2c-2.6-1.1-6.3-2.1-10.8-2.1c-10.2,0-18.2,6.2-18.2,18.9c0,11.4,6.8,18.6,18.3,18.6c3.9,0,8.2-0.8,10.7-1.9L567.1,259.8z"
		/>
	<path d="M609.5,237.3h-21v13.5H612v10.6h-36.4v-57.1h35.2V215h-22.3v11.9h21V237.3z"/>
</g>
</svg>
