<?xml version="1.0" encoding="utf-8"?>
<!-- Generator: Adobe Illustrator 18.0.0, SVG Export Plug-In . SVG Version: 6.00 Build 0)  -->
<!DOCTYPE svg PUBLIC "-//W3C//DTD SVG 1.1//EN" "http://www.w3.org/Graphics/SVG/1.1/DTD/svg11.dtd">
<svg version="1.1"
	 id="svg2" inkscape:version="0.48.4 r9939" sodipodi:docname="D:\–ú–æ–∏ –¥–æ–∫—É–º–µ–Ω—Ç—ã\SVG\–î–æ—Ä–æ–∂–Ω—ã–µ –∑–Ω–∞–∫–∏\7.10.svg" xmlns:sodipodi="http://sodipodi.sourceforge.net/DTD/sodipodi-0.dtd" xmlns:cc="http://creativecommons.org/ns#" xmlns:rdf="http://www.w3.org/1999/02/22-rdf-syntax-ns#" xmlns:dc="http://purl.org/dc/elements/1.1/" xmlns:inkscape="http://www.inkscape.org/namespaces/inkscape" xmlns:svg="http://www.w3.org/2000/svg"
	 xmlns="http://www.w3.org/2000/svg" xmlns:xlink="http://www.w3.org/1999/xlink" x="0px" y="0px" viewBox="292.9 -0.5 374.3 560.9"
	 enable-background="new 292.9 -0.5 374.3 560.9" xml:space="preserve">
<path id="rect10490" fill="#FFFFFF" stroke="#000000" stroke-width="2" d="M317.3,0.5h325.3c13,0,23.5,10.5,23.5,23.5v512
	c0,13-10.5,23.5-23.5,23.5H317.3c-13,0-23.5-10.5-23.5-23.5V24C293.9,11,304.4,0.5,317.3,0.5z"/>
<path id="rect10483" inkscape:connector-curvature="0" fill="#0D69E1" d="M317.3,10.7c-7.4,0-13.3,5.9-13.3,13.3v512
	c0,7.4,5.9,13.3,13.3,13.3h325.3c7.4,0,13.3-6,13.3-13.3V24c0-7.4-6-13.3-13.3-13.3H317.3L317.3,10.7z M352.3,93.3h255.4
	c13.3,0,24,10.7,24,24v255.4c0,13.3-10.7,24-24,24H352.3c-13.3,0-24-10.7-24-24V117.3C328.3,104.1,339,93.3,352.3,93.3L352.3,93.3z"
	/>
<g>
	<path fill="#FFFFFF" d="M338.9,443.2c-2.6,3-3.8,6-3.8,8.9c0,3.3,2.2,5.7,5.3,6.5l0,0c1.5,0.3,2.7,0.4,3.6,0.4c2.8,0,5-0.8,6.4-2.2
		c1.4-1.3,2.1-3.5,2.1-5.8c0-0.6-0.1-1.2-0.2-1.9c-0.3-0.8-0.8-1.7-1.5-2.3l0,0c-0.1,0-0.1-0.1-0.1-0.1c0,0-0.1,0-0.1,0
		c0.2,0.6,0.4,1.4,0.4,2.2c0,2.1-1.2,3.6-3.4,4.7c-1,0.4-2.2,0.7-3.4,0.7c-1.8,0-3.3-0.4-4.6-1.4c-1.5-1.1-2.2-2.5-2.2-4.4
		c0-1.3,0.4-2.4,1.2-3.4c0.4-0.4,0.9-0.9,1.4-1.2c-1.4-0.9-2.3-2.4-2.3-4.2c0-2.2,1-3.9,3-5c0.9-0.5,2.2-0.8,3.8-0.8
		c2.9,0,4.9,1.1,5.8,3.2c0.4,0.9,0.6,1.8,0.6,2.6c0,1-0.3,2-1,2.9c2.8,0.4,4.8,1.9,6.2,4.4c0.7,1.4,1.1,3.1,1.1,5
		c0,4.4-2,7.5-6.1,9.3c-2,0.9-4.4,1.4-7.2,1.4c-3.9,0-7.3-1.2-9.7-3.1c-2.2-2-3.4-4.5-3.4-7.4c0-3.6,1.1-6.6,3.3-9.1H338.9z
		 M344,450.3c1.5,0,2.3-0.9,2.3-2.1c0-1.9-0.8-2.8-2.3-2.8c-1.3,0-2.3,1.1-2.3,2.6C341.7,449.4,342.7,450.3,344,450.3z M344.1,442.2
		c0.7,0,1.2-0.2,1.6-0.8c0.4-0.5,0.6-1.1,0.6-1.8c0-1.4-1-2.3-2.4-2.3c-1.3,0-2.3,1-2.3,2.5C341.7,441.2,342.8,442.2,344.1,442.2z"
		/>
	<path fill="#FFFFFF" d="M383.9,434.5c0,3-1,5-3.3,6.2c-0.9,0.4-2.1,0.8-3.6,1.3c-2,0.6-3.2,1-3.5,1.2c-2.2,0.8-4,1.7-5.1,2.7
		c0.6-0.2,1.2-0.2,1.8-0.2c2.3,0,3.8,0.6,5.2,2.5c1.6-1.6,3.4-2.5,5.4-2.5c3.1,0,5.3,1.2,6.8,3.6c0.8,1.2,1.2,2.7,1.2,4.6
		c0,2.8-0.9,5.6-2.8,8.2h-5.1c2.2-2.8,3.3-5.6,3.3-8c0-3-1.5-4.6-3.2-4.6c-0.9,0-1.8,0.4-2.5,1.1c-0.8,0.7-1.1,1.6-1.1,2.8v3.3h-4.5
		v-3.6c0-2-1.2-3.5-3.1-3.5c-1,0-1.8,0.4-2.4,1.2c-0.6,0.8-0.8,1.7-0.8,2.8c0,2.7,1.3,5.6,3.8,8.6h-5.5c-1.9-3.1-2.9-6-2.9-8.8
		c0-3.4,1-6.5,2.7-8.7c3-3.2,6.6-5,10.4-6.3c1.2-0.4,2.4-1,3.1-1.6c0.5-0.4,0.9-1.1,1.2-2.1H383.9z"/>
	<path fill="#FFFFFF" d="M403,434.5c-0.1,1-0.1,1.5-0.1,2.2c0,0.7,0.1,1.3,0.3,1.8c0.2,0.7,1.5,1.8,3.8,3.2c2.4,1.6,4.2,3.4,5,5.4
		c0.6,1.3,0.8,2.8,0.8,4.5c0,4.5-1.6,7.8-4.4,9.6c-1.4,0.9-3.2,1.4-5.1,1.4c-3.3,0-5.9-1.3-7.7-3.6c-0.9-1.5-1.7-3.5-1.7-5.4
		c0-1.4,0.4-2.8,1.1-4.5h4.7c-0.8,1.8-1.3,3.3-1.3,4.4c0,3.1,1.9,5.2,4.8,5.2c2.5,0,4.2-1.5,4.6-4c0.2-1.1,0.3-2.2,0.3-3.2
		c0-2.4-0.8-4.4-2.2-5.5v0c-0.6-0.6-1.5-1.1-2.2-1.6c-1.5-0.8-2.5-1.5-3-1.8c-1.8-1.4-2.7-3.3-2.7-5.8c0-0.6,0.1-1.5,0.2-2.4H403z"
		/>
	<path fill="#FFFFFF" d="M422.8,446.8c1.5-0.9,3.3-1.4,5.3-1.4c4.7,0,8.9,3.4,8.9,8.6c0,2.6-0.9,4.8-2.8,6.4
		c-1.7,1.5-3.9,2.2-6.6,2.2c-2.6,0-4.7-0.8-6.5-2.3c-1.8-1.6-2.8-3.7-2.8-6.8l0-12c0-0.9,0-1.8,0.2-2.6c0.2-1.8,1.2-3.1,3-4
		c1-0.5,2.4-0.7,4.4-0.7c0.4,0,1.1,0,2.2,0.2c1.1,0.1,1.9,0.1,2.4,0.1c1.4,0,3.1-0.4,5.4-1.4v4.5c-1.2,0.8-2.4,1.1-3.6,1.1
		c-0.8,0-2.1-0.2-3.7-0.4c-1.2-0.2-2.1-0.3-2.9-0.3c-1.9,0-2.8,0.8-2.8,2.6V446.8z M425.2,458.3c0.7,0.4,1.6,0.6,2.5,0.6
		c2,0,3.4-0.8,4.2-2.4c0.4-0.7,0.6-1.5,0.6-2.3c0-2-0.9-3.5-2.5-4.4c-0.7-0.4-1.6-0.6-2.4-0.6c-1.3,0-2.4,0.4-3.4,1.3
		c-0.9,0.9-1.4,2-1.4,3.3C422.8,456,423.6,457.5,425.2,458.3z"/>
	<path fill="#FFFFFF" d="M458,446.2c0,1,0.1,1.6,0.2,2c0.1,0.1,0.3,0.4,0.6,0.7c0.9,0.9,1.5,1.7,1.8,2.4h0c0.3,0.7,0.5,1.7,0.5,2.9
		c0,3.4-1.6,5.9-4.7,7.4c-1.4,0.6-3,1-4.8,1c-4.5,0-7.4-2-8.5-5.2c-0.4-1.3-0.6-2.8-0.6-4.2v-18.8h4.5v18.8c0,3.7,1.6,5.6,4.7,5.6
		c2,0,3.4-0.8,4.3-2.4c0.4-0.7,0.6-1.6,0.6-2.6c0-0.9-0.1-1.6-0.3-2v0c-0.2-0.4-0.7-1.1-1.2-1.8c-0.5-0.6-0.8-1.1-1-1.4
		c-0.4-0.5-0.5-1.4-0.6-2.7H458z"/>
	<path fill="#FFFFFF" d="M473.5,450.9v-3.8h3.1c1.8,0,2.6-0.6,2.6-1.8c0-0.4-0.3-0.8-0.7-1.2h0c-0.9-0.5-2.2-1.2-3.6-1.8
		c-1.9-0.9-3.2-1.6-3.8-2.1c-1.4-1.2-2-2.5-2-4.2c0-0.2,0-0.5,0-0.8c0-0.1,0-0.7,0-0.7h4.5c0,2.1,1,3.4,2.8,4
		c1.4,0.4,2.7,0.8,3.2,1.1c2.5,1.1,4,2.8,4,5.7c0,1.8-0.7,3.1-2.2,4c0.6,0.6,1.1,1.3,1.6,2.2c0.4,0.9,0.6,2,0.6,3.4
		c0,3.2-1.4,5.4-4.2,6.8c-1.3,0.6-2.8,1-4.6,1c-3.9,0-6.6-1.4-8.2-4.1c-0.7-1.3-1.1-2.7-1.1-4.2c0-0.7,0.2-1.8,0.5-3h4.6
		c-0.4,1.3-0.5,2.3-0.5,3.1c0,1.8,0.8,3.1,2.2,4l0,0c0.7,0.3,1.6,0.6,2.5,0.6c1.4,0,2.4-0.4,3.2-1.2c0.8-0.8,1.2-1.8,1.2-3.2
		c0-2.4-1.1-3.6-3.4-3.6H473.5z"/>
	<path fill="#FFFFFF" d="M490.1,442c0-5.4,2.4-8.2,7.3-8.2c2.2,0,3.8,0.7,5.1,2.2c1.3-1.6,3-2.2,5.5-2.2c2.7,0,4.6,0.9,5.7,2.6
		c0.8,1.5,1.3,3.5,1.3,5.6v10.9c0,3.3-0.7,6.3-2.2,9.1h-4.5c1.4-3.6,2.1-6.5,2.1-8.9v-11.4c0-2.8-0.9-4.1-2.6-4.1
		c-1,0-1.7,0.4-2.3,1.1c-0.5,0.7-0.8,1.6-0.8,2.8v8.5h-4.6v-8.5c0-1.1-0.2-2-0.8-2.8c-0.5-0.8-1.2-1.1-2.2-1.1
		c-1.8,0-2.6,1.3-2.6,4.1v11.4c0,2.4,0.7,5.3,2.2,8.9h-4.6c-1.4-2.8-2.2-5.8-2.2-9.1V442z"/>
	<path fill="#FFFFFF" d="M542.7,434.5c0,3-1,5-3.3,6.2c-0.9,0.4-2.1,0.8-3.6,1.3c-2,0.6-3.2,1-3.5,1.2c-2.2,0.8-4,1.7-5.1,2.7
		c0.6-0.2,1.2-0.2,1.8-0.2c2.3,0,3.8,0.6,5.2,2.5c1.6-1.6,3.4-2.5,5.4-2.5c3.1,0,5.3,1.2,6.8,3.6c0.8,1.2,1.2,2.7,1.2,4.6
		c0,2.8-0.9,5.6-2.8,8.2h-5.1c2.2-2.8,3.3-5.6,3.3-8c0-3-1.5-4.6-3.2-4.6c-0.9,0-1.8,0.4-2.5,1.1c-0.8,0.7-1.1,1.6-1.1,2.8v3.3h-4.5
		v-3.6c0-2-1.2-3.5-3.1-3.5c-1,0-1.8,0.4-2.4,1.2c-0.6,0.8-0.8,1.7-0.8,2.8c0,2.7,1.3,5.6,3.8,8.6h-5.5c-1.9-3.1-2.9-6-2.9-8.8
		c0-3.4,1-6.5,2.7-8.7c3-3.2,6.6-5,10.4-6.3c1.2-0.4,2.4-1,3.1-1.6c0.5-0.4,0.9-1.1,1.2-2.1H542.7z"/>
	<path fill="#FFFFFF" d="M561.3,443.2c-2.6,3-3.8,6-3.8,8.9c0,3.3,2.2,5.7,5.3,6.5l0,0c1.5,0.3,2.7,0.4,3.6,0.4c2.8,0,5-0.8,6.4-2.2
		c1.4-1.3,2.1-3.5,2.1-5.8c0-0.6-0.1-1.2-0.2-1.9c-0.3-0.8-0.8-1.7-1.5-2.3l0,0c-0.1,0-0.1-0.1-0.1-0.1c0,0-0.1,0-0.1,0
		c0.2,0.6,0.4,1.4,0.4,2.2c0,2.1-1.2,3.6-3.4,4.7c-1,0.4-2.2,0.7-3.4,0.7c-1.8,0-3.3-0.4-4.6-1.4c-1.5-1.1-2.2-2.5-2.2-4.4
		c0-1.3,0.4-2.4,1.2-3.4c0.4-0.4,0.9-0.9,1.4-1.2c-1.4-0.9-2.3-2.4-2.3-4.2c0-2.2,1-3.9,3-5c0.9-0.5,2.2-0.8,3.8-0.8
		c2.9,0,4.9,1.1,5.8,3.2c0.4,0.9,0.6,1.8,0.6,2.6c0,1-0.3,2-1,2.9c2.8,0.4,4.8,1.9,6.2,4.4c0.7,1.4,1.1,3.1,1.1,5
		c0,4.4-2,7.5-6.1,9.3c-2,0.9-4.4,1.4-7.2,1.4c-3.9,0-7.3-1.2-9.7-3.1c-2.2-2-3.4-4.5-3.4-7.4c0-3.6,1.1-6.6,3.3-9.1H561.3z
		 M566.4,450.3c1.5,0,2.3-0.9,2.3-2.1c0-1.9-0.8-2.8-2.3-2.8c-1.3,0-2.3,1.1-2.3,2.6C564,449.4,565,450.3,566.4,450.3z M566.5,442.2
		c0.7,0,1.2-0.2,1.6-0.8c0.4-0.5,0.6-1.1,0.6-1.8c0-1.4-1-2.3-2.4-2.3c-1.3,0-2.3,1-2.3,2.5C564.1,441.2,565.2,442.2,566.5,442.2z"
		/>
	<path fill="#FFFFFF" d="M588,462c-1.4-3.2-2.4-6.7-3-10.5v0c-0.3-1.8-0.5-3.6-0.5-5.1c0-2.4,0.4-4.6,1.2-6.5
		c1.8-4.1,4.7-6.2,8.9-6.2c3.2,0,5.7,1.2,7.5,3.6c1.7,2.1,2.6,5.5,2.6,9.1c0,2.9-0.6,6.6-1.6,10.4c-0.4,1.5-1.1,3.5-1.8,5.2h-4.7
		c1.3-2.8,2.2-5.7,2.8-8.4c0.6-2.6,0.8-5,0.8-7.2c0-3.9-1.1-6.7-2.9-8h0c-0.8-0.5-1.8-0.8-2.6-0.8c-0.8,0-1.4,0.2-2,0.4h0
		c-1.4,0.7-2.5,2.2-3,4.2c-0.3,1.2-0.5,2.7-0.5,4.2c0,2.8,0.5,6.2,1.5,9.8v0c0.5,1.7,1.2,3.6,2.1,5.8H588z"/>
	<path fill="#FFFFFF" d="M625.7,446.2c0,1,0.1,1.6,0.2,2c0.1,0.1,0.3,0.4,0.6,0.7c0.9,0.9,1.5,1.7,1.8,2.4h0
		c0.3,0.7,0.5,1.7,0.5,2.9c0,3.4-1.6,5.9-4.7,7.4c-1.4,0.6-3,1-4.8,1c-4.5,0-7.4-2-8.5-5.2c-0.4-1.3-0.6-2.8-0.6-4.2v-18.8h4.5v18.8
		c0,3.7,1.6,5.6,4.7,5.6c2,0,3.4-0.8,4.3-2.4c0.4-0.7,0.6-1.6,0.6-2.6c0-0.9-0.1-1.6-0.3-2v0c-0.2-0.4-0.7-1.1-1.2-1.8
		c-0.5-0.6-0.8-1.1-1-1.4c-0.4-0.5-0.5-1.4-0.6-2.7H625.7z"/>
	<path fill="#FFFFFF" d="M374.7,481.7c2.5,0.3,4.3,1.3,5.4,2.6c1,1.2,1.6,2.9,1.6,4.8c0,2.2-0.8,4.1-2.4,5.3
		c1.6,1.3,2.4,3.6,2.4,6.7c0,6.4-3,9.6-9.1,9.6c-3.8,0-6.6-1.4-8.2-4c-0.8-1.3-1.2-2.8-1.2-4.7c0-1.9,0.4-3.8,1.4-5.6h4.6
		c-1,2-1.5,3.8-1.5,5.4c0,1.5,0.4,2.7,1.3,3.7c0.9,0.9,2.1,1.4,3.5,1.4c3.1,0,4.6-1.8,4.6-5.5c0-1.7-0.2-3-0.7-3.8
		c-0.4-0.9-1.6-1.4-3.5-1.4v-3.9c1.1,0.2,1.2,0.2,1.5,0.2c1.7,0,2.6-1.2,2.6-3.4c0-1.5-0.2-2.6-0.6-3.1c-0.2-0.2-0.8-0.4-1.8-0.5
		V481.7z"/>
	<path fill="#FFFFFF" d="M388,490c0-5.4,2.4-8.2,7.3-8.2c2.2,0,3.8,0.7,5.1,2.2c1.3-1.6,3-2.2,5.5-2.2c2.7,0,4.6,0.9,5.7,2.6
		c0.8,1.5,1.3,3.5,1.3,5.6v10.9c0,3.3-0.7,6.3-2.2,9.1h-4.5c1.4-3.6,2.1-6.5,2.1-8.9v-11.4c0-2.8-0.9-4.1-2.6-4.1
		c-1,0-1.7,0.4-2.3,1.1c-0.5,0.7-0.8,1.6-0.8,2.8v8.5h-4.6v-8.5c0-1.1-0.2-2-0.8-2.8c-0.5-0.8-1.2-1.1-2.2-1.1
		c-1.8,0-2.6,1.3-2.6,4.1v11.4c0,2.4,0.7,5.3,2.2,8.9h-4.6c-1.4-2.8-2.2-5.8-2.2-9.1V490z"/>
	<path fill="#FFFFFF" d="M424,494.8c1.5-0.9,3.3-1.4,5.3-1.4c4.7,0,8.9,3.4,8.9,8.6c0,2.6-0.9,4.8-2.8,6.4c-1.7,1.5-3.9,2.2-6.6,2.2
		c-2.6,0-4.7-0.8-6.5-2.3c-1.8-1.6-2.8-3.7-2.8-6.8l0-12c0-0.9,0-1.8,0.2-2.6c0.2-1.8,1.2-3.1,3-4c1-0.5,2.4-0.7,4.4-0.7
		c0.4,0,1.1,0,2.2,0.2c1.1,0.1,1.9,0.1,2.4,0.1c1.4,0,3.1-0.4,5.4-1.4v4.5c-1.2,0.8-2.4,1.1-3.6,1.1c-0.8,0-2.1-0.2-3.7-0.4
		c-1.2-0.2-2.1-0.3-2.9-0.3c-1.9,0-2.8,0.8-2.8,2.6V494.8z M426.3,506.3c0.7,0.4,1.6,0.6,2.5,0.6c2,0,3.4-0.8,4.2-2.4
		c0.4-0.7,0.6-1.5,0.6-2.3c0-2-0.9-3.5-2.5-4.4c-0.7-0.4-1.6-0.6-2.4-0.6c-1.3,0-2.4,0.4-3.4,1.3c-0.9,0.9-1.4,2-1.4,3.3
		C424,504,424.8,505.5,426.3,506.3z"/>
	<path fill="#FFFFFF" d="M451.3,491.2c-2.6,3-3.8,6-3.8,8.9c0,3.3,2.2,5.7,5.3,6.5l0,0c1.5,0.3,2.7,0.4,3.6,0.4c2.8,0,5-0.8,6.4-2.2
		c1.4-1.3,2.1-3.5,2.1-5.8c0-0.6-0.1-1.2-0.2-1.9c-0.3-0.8-0.8-1.7-1.5-2.3l0,0c-0.1,0-0.1-0.1-0.1-0.1c0,0-0.1,0-0.1,0
		c0.2,0.6,0.4,1.4,0.4,2.2c0,2.1-1.2,3.6-3.4,4.7c-1,0.4-2.2,0.7-3.4,0.7c-1.8,0-3.3-0.4-4.6-1.4c-1.5-1.1-2.2-2.5-2.2-4.4
		c0-1.3,0.4-2.4,1.2-3.4c0.4-0.4,0.9-0.9,1.4-1.2c-1.4-0.9-2.3-2.4-2.3-4.2c0-2.2,1-3.9,3-5c0.9-0.5,2.2-0.8,3.8-0.8
		c2.9,0,4.9,1.1,5.8,3.2c0.4,0.9,0.6,1.8,0.6,2.6c0,1-0.3,2-1,2.9c2.8,0.4,4.8,1.9,6.2,4.4c0.7,1.4,1.1,3.1,1.1,5
		c0,4.4-2,7.5-6.1,9.3c-2,0.9-4.4,1.4-7.2,1.4c-3.9,0-7.3-1.2-9.7-3.1c-2.2-2-3.4-4.5-3.4-7.4c0-3.6,1.1-6.6,3.3-9.1H451.3z
		 M456.4,498.3c1.5,0,2.3-0.9,2.3-2.1c0-1.9-0.8-2.8-2.3-2.8c-1.3,0-2.3,1.1-2.3,2.6C454.1,497.4,455.1,498.3,456.4,498.3z
		 M456.6,490.2c0.7,0,1.2-0.2,1.6-0.8c0.4-0.5,0.6-1.1,0.6-1.8c0-1.4-1-2.3-2.4-2.3c-1.3,0-2.3,1-2.3,2.5
		C454.1,489.2,455.2,490.2,456.6,490.2z"/>
	<path fill="#FFFFFF" d="M496.4,482.6c0,3-1,5-3.3,6.2c-0.9,0.4-2.1,0.8-3.6,1.3c-2,0.6-3.2,1-3.5,1.2c-2.2,0.8-4,1.7-5.1,2.7
		c0.6-0.2,1.2-0.2,1.8-0.2c2.3,0,3.8,0.6,5.2,2.5c1.6-1.6,3.4-2.5,5.4-2.5c3.1,0,5.3,1.2,6.8,3.6c0.8,1.2,1.2,2.7,1.2,4.6
		c0,2.8-0.9,5.6-2.8,8.2h-5.1c2.2-2.8,3.3-5.6,3.3-8c0-3-1.5-4.6-3.2-4.6c-0.9,0-1.8,0.4-2.5,1.1c-0.8,0.7-1.1,1.6-1.1,2.8v3.3h-4.5
		v-3.6c0-2-1.2-3.5-3.1-3.5c-1,0-1.8,0.4-2.4,1.2c-0.6,0.8-0.8,1.7-0.8,2.8c0,2.7,1.3,5.6,3.8,8.6h-5.5c-1.9-3.1-2.9-6-2.9-8.8
		c0-3.4,1-6.5,2.7-8.7c3-3.2,6.6-5,10.4-6.3c1.2-0.4,2.4-1,3.1-1.6c0.5-0.4,0.9-1.1,1.2-2.1H496.4z"/>
	<path fill="#FFFFFF" d="M507.4,490c0-5.4,2.4-8.2,7.3-8.2c2.2,0,3.8,0.7,5.1,2.2c1.3-1.6,3-2.2,5.5-2.2c2.7,0,4.6,0.9,5.7,2.6
		c0.8,1.5,1.3,3.5,1.3,5.6v10.9c0,3.3-0.7,6.3-2.2,9.1h-4.5c1.4-3.6,2.1-6.5,2.1-8.9v-11.4c0-2.8-0.9-4.1-2.6-4.1
		c-1,0-1.7,0.4-2.3,1.1c-0.5,0.7-0.8,1.6-0.8,2.8v8.5h-4.6v-8.5c0-1.1-0.2-2-0.8-2.8c-0.5-0.8-1.2-1.1-2.2-1.1
		c-1.8,0-2.6,1.3-2.6,4.1v11.4c0,2.4,0.7,5.3,2.2,8.9h-4.6c-1.4-2.8-2.2-5.8-2.2-9.1V490z"/>
	<path fill="#FFFFFF" d="M539.2,499.6h2.6c-1.6-1.4-2.5-3.1-3-5c-0.2-1.2-0.4-2.4-0.4-3.6c0-4.3,1.3-7.1,3.9-8.4
		c1.1-0.5,2.1-0.8,3.2-0.8c1.5,0,3,0.8,4.1,1.8c1.2-1.2,2.7-1.8,4.6-1.8c1.8,0,3.2,0.6,4.5,1.8c1.2-1.2,2.9-1.8,5.1-1.8
		c1.2,0,2.3,0.3,3.3,0.9c2.2,1.3,3.3,3.4,3.3,6.4c0,0.7-0.1,1.4-0.2,2.1c-0.1,0.6-0.4,1.4-0.7,2.4c-0.3,0.7-0.6,1.6-1.1,2.4h-4.8
		c1.6-2.8,2.3-5.2,2.3-7c0-1-0.2-1.9-0.7-2.6l0,0c-0.5-0.6-1.2-1-2.1-1c-1.7,0-2.7,1.2-2.7,3v5.2h-3.8v-5.2c0-2-0.8-3-2.5-3
		c-1.8,0-2.6,1-2.6,3v5.2h-3.8v-5.2c0-2-0.7-3-2.2-3c-1.1,0-1.8,0.5-2.2,1.6c-0.3,0.8-0.4,2-0.4,3.7c0,2.4,0.5,4.2,1.4,5.5
		c0.8,1.2,1.9,2,3,2.4c1,0.4,2.3,0.7,3.9,0.9c2.6,0.2,4.3,0.4,5.2,0.6c2,0.3,3.8,0.8,5.2,1.4c3,1.3,4.8,4.1,5.2,8.3h-4.5
		c-0.3-2.8-1.6-4.5-3.7-5.2c-1-0.4-3-0.7-4.7-1h0c-1.8-0.2-4.2-0.4-7-0.5h-0.3c-0.1,0-0.2,0-0.4,0c-1,0-1.8,0-2.4,0
		c-1.3,0-3.4,0.1-4.6,0.2V499.6z"/>
	<path fill="#FFFFFF" d="M579.2,510c-1.4-3.2-2.4-6.7-3-10.5v0c-0.3-1.8-0.5-3.6-0.5-5.1c0-2.4,0.4-4.6,1.2-6.5
		c1.8-4.1,4.7-6.2,8.9-6.2c3.2,0,5.7,1.2,7.5,3.6c1.7,2.1,2.6,5.5,2.6,9.1c0,2.9-0.6,6.6-1.6,10.4c-0.4,1.5-1.1,3.5-1.8,5.2h-4.7
		c1.3-2.8,2.2-5.7,2.8-8.4c0.6-2.6,0.8-5,0.8-7.2c0-3.9-1.1-6.7-2.9-8h0c-0.8-0.5-1.8-0.8-2.6-0.8c-0.8,0-1.4,0.2-2,0.4h0
		c-1.4,0.7-2.5,2.2-3,4.2c-0.3,1.2-0.5,2.7-0.5,4.2c0,2.8,0.5,6.2,1.5,9.8v0c0.5,1.7,1.2,3.6,2.1,5.8H579.2z"/>
</g>
<g>
	<g>
		<path id="path7834" inkscape:connector-curvature="0" d="M409.7,155.3c-3.1,0-6.1,1.5-7.8,4.1l-14.8,22c-1.1,1.5-1.6,3.4-1.6,5.3
			v29c0,5.2,4.3,9.5,9.5,9.5h8.5c0.5-10.5,9.1-18.9,19.8-18.9s19.3,8.4,19.8,18.9h73.8c0.4-7.6,4.9-14,11.4-17h-82.4v-43.4
			c0-5.2-4.3-9.5-9.5-9.5L409.7,155.3L409.7,155.3z M410.2,161h21.5c2.6,0,4.7,2.1,4.7,4.7V179c0,2.6-2.1,4.7-4.7,4.7h-30.5
			c-2.6,0-4.7-2.1-4.7-4.7c0-1,0.3-1.9,0.8-2.7l8.9-13.2C407.2,161.7,408.7,161,410.2,161L410.2,161z"/>
		<path id="path7836" inkscape:connector-curvature="0" d="M461.1,126.9c-5.2,0-9.5,4.2-9.5,9.5v5.6v13.7v46.8h122.8v-46.8V142v-5.6
			c0-5.2-4.2-9.5-9.5-9.5H461.1L461.1,126.9z"/>
		<path id="path7838" inkscape:connector-curvature="0" d="M536.6,210.1c-8.9,0-16.1,7.2-16.1,16.1s7.2,16.1,16.1,16.1
			c8.9,0,16.1-7.2,16.1-16.1S545.5,210.1,536.6,210.1z M536.6,217.7c4.7,0,8.5,3.8,8.5,8.5s-3.8,8.5-8.5,8.5s-8.5-3.8-8.5-8.5
			C528.1,221.4,531.9,217.7,536.6,217.7z"/>
		<path id="path7840" sodipodi:nodetypes="ccccc" inkscape:connector-curvature="0" d="M556.4,225.2c-0.4-7.6-4.9-14-11.4-17h29.4
			v17H556.4z"/>
		<path id="path7842" inkscape:connector-curvature="0" d="M423.2,210.1c-8.9,0-16.1,7.2-16.1,16.1s7.2,16.1,16.1,16.1
			c8.9,0,16.1-7.2,16.1-16.1S432.1,210.1,423.2,210.1z M423.2,217.7c4.7,0,8.5,3.8,8.5,8.5s-3.8,8.5-8.5,8.5c-4.7,0-8.5-3.8-8.5-8.5
			C414.7,221.4,418.6,217.7,423.2,217.7z"/>
	</g>
	<g>
		<path id="path10982" d="M408.4,267.5c-3.1,0-6,1.7-7.5,4.3l-15.2,26.3c-0.7,1.3-1.2,2.8-1.2,4.3v14.7v17.2c0,4.8,3.9,8.7,8.7,8.7
			h4.3c0-12,9.7-21.7,21.7-21.7c12,0,21.7,9.7,21.7,21.7h69.4c0-12,9.7-21.7,21.7-21.7c12,0,21.7,9.7,21.7,21.7h13
			c4.8,0,8.7-3.9,8.7-8.7v-17.2v-14.7c0-0.9-0.1-1.9-0.5-2.7l-8.7-26.3c-1.2-3.6-4.5-5.9-8.2-5.9L408.4,267.5L408.4,267.5z
			 M409.4,273.5h5.5h4.3c2.4,0,4.3,1.9,4.3,4.3v17.3c0,2.4-1.9,4.3-4.3,4.3h-4.3h-15.5c-2.4,0-4.3-1.9-4.3-4.3
			c0-0.7,0.2-1.5,0.6-2.2l10-17.3C406.4,274.4,407.8,273.5,409.4,273.5z M436.5,273.5h26c2.4,0,4.3,1.9,4.3,4.3v17.3
			c0,2.4-1.9,4.3-4.3,4.3h-26c-2.4,0-4.3-1.9-4.3-4.3v-17.3C432.2,275.5,434.2,273.5,436.5,273.5z M479.9,273.5h26
			c2.4,0,4.3,1.9,4.3,4.3v17.3c0,2.4-1.9,4.3-4.3,4.3h-26c-2.4,0-4.3-1.9-4.3-4.3v-17.3C475.6,275.5,477.5,273.5,479.9,273.5z
			 M523.3,273.5h13H548c1.9,0,3.6,1.2,4.2,3.1l5.1,17.3c0.7,2.3-0.6,4.7-2.9,5.4c-0.4,0.1-0.8,0.2-1.2,0.2h-16.8h-13
			c-2.4,0-4.3-1.9-4.3-4.3v-17.3C519,275.5,520.9,273.5,523.3,273.5z"/>
		<path id="path10984" inkscape:connector-curvature="0" d="M419.2,325.6c-9.6,0-17.3,7.8-17.3,17.3s7.8,17.3,17.3,17.3
			s17.3-7.8,17.3-17.3S428.8,325.6,419.2,325.6z M419.2,334.3c4.8,0,8.7,3.9,8.7,8.7s-3.9,8.7-8.7,8.7c-4.8,0-8.7-3.9-8.7-8.7
			S414.4,334.3,419.2,334.3z"/>
		<path id="path10994" inkscape:connector-curvature="0" d="M532,325.6c-9.6,0-17.3,7.8-17.3,17.3s7.8,17.3,17.3,17.3
			s17.3-7.8,17.3-17.3S541.5,325.6,532,325.6z M532,334.3c4.8,0,8.7,3.9,8.7,8.7s-3.9,8.7-8.7,8.7s-8.7-3.9-8.7-8.7
			S527.2,334.3,532,334.3z"/>
	</g>
</g>
</svg>
