<?xml version="1.0" encoding="utf-8"?>
<!-- Generator: Adobe Illustrator 18.0.0, SVG Export Plug-In . SVG Version: 6.00 Build 0)  -->
<!DOCTYPE svg PUBLIC "-//W3C//DTD SVG 1.1//EN" "http://www.w3.org/Graphics/SVG/1.1/DTD/svg11.dtd">
<svg version="1.1"
	 id="svg2" inkscape:version="0.48.4 r9939" sodipodi:docname="D:\–ú–æ–∏ –¥–æ–∫—É–º–µ–Ω—Ç—ã\SVG\–î–æ—Ä–æ–∂–Ω—ã–µ –∑–Ω–∞–∫–∏\7.10.svg" xmlns:sodipodi="http://sodipodi.sourceforge.net/DTD/sodipodi-0.dtd" xmlns:cc="http://creativecommons.org/ns#" xmlns:rdf="http://www.w3.org/1999/02/22-rdf-syntax-ns#" xmlns:dc="http://purl.org/dc/elements/1.1/" xmlns:inkscape="http://www.inkscape.org/namespaces/inkscape" xmlns:svg="http://www.w3.org/2000/svg"
	 xmlns="http://www.w3.org/2000/svg" xmlns:xlink="http://www.w3.org/1999/xlink" x="0px" y="0px" viewBox="292.9 -0.5 374.3 560.9"
	 enable-background="new 292.9 -0.5 374.3 560.9" xml:space="preserve">
<path id="rect10490" fill="#FFFFFF" stroke="#000000" stroke-width="2" d="M317.3,0.5h325.3c13,0,23.5,10.5,23.5,23.5v512
	c0,13-10.5,23.5-23.5,23.5H317.3c-13,0-23.5-10.5-23.5-23.5V24C293.9,11,304.4,0.5,317.3,0.5z"/>
<path id="rect10483" inkscape:connector-curvature="0" fill="#0D69E1" d="M317.3,10.7c-7.4,0-13.3,5.9-13.3,13.3v512
	c0,7.4,5.9,13.3,13.3,13.3h325.3c7.4,0,13.3-6,13.3-13.3V24c0-7.4-6-13.3-13.3-13.3H317.3L317.3,10.7z M352.3,93.3h255.4
	c13.3,0,24,10.7,24,24v255.4c0,13.3-10.7,24-24,24H352.3c-13.3,0-24-10.7-24-24V117.3C328.3,104.1,339,93.3,352.3,93.3L352.3,93.3z"
	/>
<g>
	<path fill="#FFFFFF" d="M394.6,466.1c-0.6-2.4-1.3-4.2-1.9-4.9h0.1c-1.2-1.2-2.7-1.9-4.4-1.9c-1.3,0-2.7,0.4-3.6,1.1
		c-2.4,1.9-4.2,5.1-4.7,10.6c2.6-2.3,5.7-3.3,9-3.3c3.9,0,7,1.4,9.7,4.2c2.8,2.8,4.1,6.3,4.1,10.8c0.1,8.7-6.1,16-14.5,15.7
		c-4.7,0-8.6-1.7-11.6-5.1c-2.9-3.3-4.4-9-4.4-16.7c0-8.4,1.7-14.8,4.7-18.7c2.9-3.5,7-5.4,11.6-5.4c7.4,0,12.4,4.9,13.4,12.9
		L394.6,466.1z M388.1,491.7c1.9,0,3.5-0.9,4.9-2.3c1.3-1.5,2-3.8,2-6.4c0-5.2-3.1-8.3-7-8.3c-1.9,0-3.8,0.8-5.2,2.2
		c-1.3,1.5-2,3.4-2,5.8C380.5,487.5,384.2,492,388.1,491.7z"/>
	<path fill="#FFFFFF" d="M414.2,473.3c-2.9-1.9-4.5-4.9-4.5-8.5c0-3.5,1.2-6.3,3.7-8.6c2.4-2.4,5.6-3.6,9.7-3.6s7.3,1.2,9.8,3.6
		c2.6,2.4,3.8,5.2,3.8,8.7c0,3.8-1.2,6.5-4.5,8.4c3.9,2.2,6.2,6.2,6.2,10.9c0,4-1.4,7.4-4.3,10c-2.8,2.6-6.4,4.1-10.9,4.1
		c-4.5,0-8.2-1.5-11-4.1c-2.8-2.7-4.2-6-4.2-10.2C408,479.2,410.5,475.3,414.2,473.3z M415.8,484.2c-0.1,3.9,3.3,7.7,7.4,7.5
		c4.3,0,7.4-3.1,7.4-7.4c0-2.2-0.7-3.9-2.1-5.3c-1.4-1.4-3.3-2.1-5.4-2.1c-2.1,0-3.9,0.7-5.2,2C416.4,480.3,415.8,482.1,415.8,484.2
		L415.8,484.2z M423.3,470.2c3.3,0,5.7-2.4,5.7-5.3c0-3.1-2.5-5.6-5.8-5.6c-3.3,0-5.8,2.4-5.8,5.2
		C417.4,467.9,419.9,470.2,423.3,470.2z"/>
	<path fill="#FFFFFF" d="M446.3,497.7v-8.4h8.3v8.4H446.3z"/>
	<path fill="#FFFFFF" d="M476.5,452.6c4.9,0,8.8,2.2,11.1,6v-0.1c2.5,3.6,3.9,8.4,3.9,17c0,15.5-4.8,22.7-15,23
		c-4.4,0-8.1-1.8-10.7-4.9c-2.8-3.6-4.4-9.9-4.4-18C461.5,459.9,466.4,452.9,476.5,452.6z M471.4,488.7c1.3,2,3,3,5.1,3
		c2,0,3.6-1,5-3c1.5-2.2,2.3-6.7,2.3-13.2c0-6.7-0.8-11.1-2.3-13.2c-1.3-2-2.9-2.9-5.1-2.9c-2,0-3.6,1-4.8,2.6v-0.1
		c-1.6,2.4-2.4,7-2.4,13.6C469.2,482.2,469.9,486.7,471.4,488.7z"/>
	<path fill="#FFFFFF" d="M538.5,466.5c0-3.3-1-5.8-2.9-7c-0.8-0.4-2.3-0.9-3.3-0.9c-2.4,0-4.4,0.8-5.8,2.6c-1.3,1.7-2,4.3-2,7.8
		h-7.2c0-8.1,2.9-13.2,8.6-15.2c2.4-0.8,4.4-1.3,6.5-1.3c5,0,8.9,2.2,11.5,6c1.2,2,2,4.6,2,7.4v17.3c0,3.4-0.9,6.7-2.7,10.1
		c-2,3.7-6.1,5.6-12.3,5.6c-6.5,0-10.9-2.5-13.4-7.4c-1-2.2-1.5-4.2-1.5-6.4c-0.1-7.7,6.7-14,14.8-13.8c2.8,0,5.5,0.7,7.7,2.2V466.5
		z M527.1,491.9c1.2,0.6,2.4,1,3.8,1c4.2-0.1,7.8-3.6,7.6-8.1c0-2.1-0.7-4-2.2-5.4s-3.3-2.1-5.4-2.1c-2.8,0-5,1.2-6.7,3.8
		c-0.8,1.2-1.1,2.6-1.1,4.2C523.2,488.2,524.5,490.4,527.1,491.9z"/>
	<path fill="#FFFFFF" d="M567.6,474.4v-6.1h5.5c2.2,0,3.3-0.6,3.3-2c0-1-1-1.7-2.7-2.2l0.1,0.1c-0.4-0.1-0.8-0.1-1.2-0.2
		c-0.6,0-1.7-0.1-2.4-0.2c-1.2-0.2-2.6-0.4-4.2-0.6c-2.8-0.4-4.7-1.6-5.9-3.5c-0.8-1.3-1.1-3.2-1.1-6h7.2v2.6c0.5,0.9,1.5,1.8,2.7,2
		c0.6,0.1,2.3,0.3,5.1,0.3c2.8,0.1,4.9,0.4,6.2,1c1.9,1,3.1,3.1,3.1,5.8c0,1.7-0.4,3.5-2.4,4.8c1.6,1.3,2.8,3.5,2.8,5.8
		c0,2.5-1.1,4.5-2.8,5.7c1.7,1.5,2.5,3.8,2.5,6.7c0,3.9-2,6.8-6,8.8c-2.3,1-5.1,1.7-8.6,1.7c-2.9,0-5.6-0.6-7.7-1.6
		c-4.4-2.4-6.8-5.8-6.8-10.3c0-1.9,0.1-3.6,0.4-5.3l7.4,0.1c-0.4,1.9-0.5,3.3-0.5,4.9c0,2.2,1.1,4,3,5.2c1.2,0.6,2.7,1,4.4,1
		c2,0,3.6-0.4,5-1.2H574c1.4-0.9,2.1-2.2,2.1-3.7c0-0.7-0.2-1.4-0.6-2.2c-0.3-0.4-1.2-0.8-2.4-0.8h-5.5v-6h5.9
		c0.9,0,1.7-0.2,2.2-0.7c0.5-0.4,0.8-1,0.8-1.8c0-1.3-1.2-2-3.5-2H567.6z"/>
</g>
<g>
	<path d="M405.8,269.6h-12.2v-21.4c0-1.1-0.4-2-1.2-2.8c-0.8-0.8-1.7-1.1-2.8-1.1c-1,0-1.9,0.4-2.7,1.2c-0.8,0.8-1.2,1.7-1.2,2.7
		v8.2h-11.9v-8.2c0-1.1-0.4-2-1.1-2.8c-0.8-0.7-1.7-1.1-2.8-1.1c-0.9,0-1.8,0.4-2.5,1.3c-0.8,0.8-1.1,1.7-1.1,2.6v21.4h-12.5v-25.7
		c0-3.9,2.7-7.7,8.1-11.4c3.4-2.1,8.4-5.4,15-9.9c5.4-3.8,8.1-7.8,8.1-12h12.5v5.9c-1.4,3.2-3.9,6-7.3,8.5c-2.2,1.6-5.4,3.5-9.9,5.6
		c-4.4,2.2-7.2,3.7-8.5,4.6c2.2,0.3,3.6,0.6,4.3,0.9c0.9,0.4,2.1,1.3,3.6,2.8c2.7-2.2,4.9-3.3,6.6-3.3h8.6c2.5,0,4.9,1.2,7.3,3.6
		c2.4,2.4,3.6,4.8,3.6,7.3V269.6z"/>
	<path d="M446.4,259.3c0,2.6-1.4,5-4.1,7.3c-2.7,2.2-5.3,3.4-7.9,3.4h-12c-2.4,0-4.9-1.2-7.3-3.5c-2.4-2.3-3.7-4.7-3.7-7.2v-13.6
		h12.3V257c0,1.1,0.6,2.1,1.8,3c1.1,0.8,2.2,1.2,3.4,1.2c1.1,0,2.1-0.4,3.2-1.3c1.1-0.9,1.6-1.9,1.6-2.9v-21.3
		c0-1.4-0.9-2.9-2.6-4.4c-1.2-1-3-2.5-5.4-4.6c-2.4-2.1-4.2-4.6-5.6-7.5v-7.8h12.3c0,3.3,0.8,6.1,2.5,8.2c0.8,1,3,2.9,6.6,5.8
		c3.2,2.5,4.7,4.7,4.7,6.4V259.3z"/>
	<path d="M502.5,231c0,2.5-1.3,5-3.8,7.4c-2.5,2.4-5.1,3.7-7.6,3.7h-9.2c-2.5,0-5-1.2-7.6-3.7c-2.6-2.5-3.8-4.9-3.8-7.4v-8.5
		c0-1.7-1.1-2.6-3.3-2.6c-1.9,0-2.9,0.9-2.9,2.6v11.8c0,4.6,2.1,8.2,6.3,10.9c2.5,1.6,6.7,3.2,12.5,4.8c4.6,1.3,7.6,2.2,8.9,2.8
		c2.9,1.4,4.9,3.6,6.2,6.4c0.8,2.4,1.4,3.9,1.6,4.5v6.6h-13.1c0-7-4-11.3-11.9-13c-3.4-0.7-7.4-1.1-11.9-1.1c-3.9,0-6.5,0.2-7.8,0.7
		h-2.3v-9.1h5.6c-1.4-1.8-2.9-3.7-4.3-5.5c-1.3-2.1-1.9-3.8-1.9-5.2v-16c0-2.2,1.1-4.4,3.4-6.6c2.2-2.1,4.5-3.2,6.8-3.2h8.5
		c1.3,0,2.5,0.6,3.7,1.7c1,1.3,1.5,2,1.7,2.2c2.4-2.6,4.8-3.9,7-3.9h8.8c2.4,0,4.8,1.1,7,3.4s3.4,4.6,3.4,7V231z M489.8,226.7
		c0-2.3-0.1-3.7-0.3-4.4c-0.4-1.4-1.5-2.1-3.3-2.1c-1.6,0-2.7,0.7-3.2,2c-0.3,0.7-0.4,2.1-0.4,4.2v1.2c0,1.8,0.2,3,0.5,3.7
		c0.5,1.1,1.6,1.6,3.1,1.6c1.6,0,2.7-0.7,3.2-2.1C489.6,230.1,489.8,228.7,489.8,226.7z"/>
	<path d="M544.8,270.1h-12.8v-45.6c0-1.4-0.5-2.6-1.6-3.5c-1-0.9-2.3-1.4-3.7-1.4c-1.2,0-2.3,0.5-3.4,1.5c-1,1-1.6,2.1-1.6,3.4v45.6
		H509v-47.6c0-2.4,1.2-4.9,3.6-7.4c2.4-2.5,4.8-3.8,7.2-3.8H534c2.5,0,5,1.2,7.3,3.7c2.4,2.5,3.5,5,3.5,7.5V270.1z"/>
	<path d="M603.1,270.2h-12.4v-47.4c0-2.2-1.3-3.3-3.9-3.3s-3.9,1.1-3.9,3.3v18.6h-11.4v-18.6c0-2.2-1.3-3.3-3.9-3.3
		c-2.4,0-3.6,1.1-3.6,3.3v47.4h-12.4v-50.4c0-2.1,0.9-4.1,2.8-6c1.9-1.9,3.9-2.8,6-2.8h11.5c1.2,0,2.3,0.5,3.3,1.4
		c0.4,0.4,1.2,1.3,2.4,2.9c2.2-2.8,4.1-4.3,5.7-4.3h11.1c2.1,0,4.1,0.9,6,2.8c1.9,1.9,2.8,3.9,2.8,6V270.2z"/>
</g>
</svg>
