<?xml version="1.0" encoding="utf-8"?>
<!-- Generator: Adobe Illustrator 18.0.0, SVG Export Plug-In . SVG Version: 6.00 Build 0)  -->
<!DOCTYPE svg PUBLIC "-//W3C//DTD SVG 1.1//EN" "http://www.w3.org/Graphics/SVG/1.1/DTD/svg11.dtd">
<svg version="1.1"
	 id="svg2" inkscape:version="0.48.4 r9939" sodipodi:docname="D:\–ú–æ–∏ –¥–æ–∫—É–º–µ–Ω—Ç—ã\SVG\–î–æ—Ä–æ–∂–Ω—ã–µ –∑–Ω–∞–∫–∏\7.10.svg" xmlns:sodipodi="http://sodipodi.sourceforge.net/DTD/sodipodi-0.dtd" xmlns:cc="http://creativecommons.org/ns#" xmlns:rdf="http://www.w3.org/1999/02/22-rdf-syntax-ns#" xmlns:dc="http://purl.org/dc/elements/1.1/" xmlns:inkscape="http://www.inkscape.org/namespaces/inkscape" xmlns:svg="http://www.w3.org/2000/svg"
	 xmlns="http://www.w3.org/2000/svg" xmlns:xlink="http://www.w3.org/1999/xlink" x="0px" y="0px" viewBox="292.9 -0.5 374.3 560.9"
	 enable-background="new 292.9 -0.5 374.3 560.9" xml:space="preserve">
<path id="rect10490" fill="#FFFFFF" stroke="#000000" stroke-width="2" d="M317.3,0.5h325.3c13,0,23.5,10.5,23.5,23.5v512
	c0,13-10.5,23.5-23.5,23.5H317.3c-13,0-23.5-10.5-23.5-23.5V24C293.9,11,304.4,0.5,317.3,0.5z"/>
<path id="rect10483" inkscape:connector-curvature="0" fill="#0D69E1" d="M317.3,10.7c-7.4,0-13.3,5.9-13.3,13.3v512
	c0,7.4,5.9,13.3,13.3,13.3h325.3c7.4,0,13.3-6,13.3-13.3V24c0-7.4-6-13.3-13.3-13.3H317.3L317.3,10.7z M352.3,93.3h255.4
	c13.3,0,24,10.7,24,24v255.4c0,13.3-10.7,24-24,24H352.3c-13.3,0-24-10.7-24-24V117.3C328.3,104.1,339,93.3,352.3,93.3L352.3,93.3z"
	/>
<g>
	<path fill="#FFFFFF" d="M379.8,484.9c0.9,4.8,3,6.8,6.1,6.8c2.6,0,4.7-1.3,5.9-3.3c1.3-1.9,2.4-5.1,2.7-8.5
		c-2.3,1.9-5.8,3.4-8.9,3.4c-3.9,0-7.1-1.4-9.7-4.2c-2.8-2.8-4-6.5-4-10.9c0-4.6,1.3-8.3,4.2-11.2c2.8-2.9,6.2-4.4,10.4-4.4
		c6,0,11.3,3.3,13.9,9.4c1.3,3,1.9,7,1.9,12.4c0,11.1-2.8,17.6-7.6,21.3c-2.3,1.6-5.6,2.8-8.8,2.8c-7.4,0-12.4-4.8-13.2-12.9
		L379.8,484.9z M392,461.6c-1.4-1.5-3.1-2.3-4.9-2.3c-2,0-3.8,0.8-5.2,2.5c-1.5,1.7-2.2,3.8-2.2,6.5c0,2.2,0.8,4.2,2,5.7
		c1.4,1.4,3.2,2.2,5.2,2.2c4.1,0,7.1-3.1,7.1-8.4C394.1,465.3,393.3,463.1,392,461.6z"/>
	<path fill="#FFFFFF" d="M440.7,453.8c-0.1,1.6-0.1,2.4-0.1,3.6c0,1.1,0.1,2,0.5,2.9c0.4,1.2,2.4,2.9,6,5.2c3.8,2.5,6.7,5.5,8.1,8.6
		c0.9,2,1.3,4.5,1.3,7.2c0,7.2-2.6,12.4-7,15.4c-2.3,1.4-5.1,2.2-8.1,2.2c-5.3,0-9.5-2-12.3-5.8c-1.5-2.4-2.7-5.6-2.7-8.6
		c0-2.2,0.6-4.5,1.8-7.2h7.5c-1.3,2.9-2,5.2-2,7c0,4.9,3,8.4,7.7,8.4c4,0,6.7-2.4,7.4-6.4c0.3-1.8,0.5-3.5,0.5-5.2
		c0-3.8-1.3-7-3.5-8.8v0.1c-1-0.9-2.4-1.8-3.6-2.6c-2.4-1.3-4-2.4-4.7-2.9c-2.8-2.2-4.4-5.3-4.4-9.3c0-1,0.1-2.4,0.3-3.8H440.7z"/>
	<path fill="#FFFFFF" d="M498.9,453.8c0,4.7-1.7,8.1-5.3,9.9c-1.4,0.6-3.3,1.3-5.7,2.1c-3.2,1-5.1,1.6-5.6,1.9
		c-3.6,1.3-6.3,2.8-8.1,4.3c1-0.3,1.9-0.4,2.9-0.4c3.6,0,6.1,1,8.3,4c2.5-2.6,5.4-4,8.6-4c4.9,0,8.5,1.9,10.9,5.7
		c1.3,1.9,1.9,4.4,1.9,7.3c0,4.5-1.5,8.9-4.4,13.2h-8.1c3.5-4.5,5.3-8.9,5.3-12.9c0-4.9-2.4-7.3-5.1-7.3c-1.5,0-2.8,0.6-4,1.7
		c-1.2,1.2-1.8,2.6-1.8,4.5v5.2h-7.2v-5.8c0-3.2-1.9-5.6-5-5.6c-1.6,0-2.9,0.6-3.8,1.9c-0.9,1.3-1.3,2.8-1.3,4.5c0,4.4,2,9,6.1,13.8
		h-8.8c-3.1-5-4.6-9.6-4.6-14.1c0-5.4,1.7-10.4,4.3-13.9c4.7-5.2,10.6-7.9,16.6-10c1.9-0.6,3.9-1.6,5-2.5c0.8-0.6,1.5-1.7,2-3.4
		H498.9z"/>
	<path fill="#FFFFFF" d="M543.6,464.5l-8.8,7.4c4,0.8,7.2,2.9,9.2,6.4c1.2,2,1.8,4.5,1.8,7.1c0,4.8-2.6,9.2-7,11.7
		c-2.3,1.2-4.9,1.9-7.8,1.9c-2.6,0-5-0.6-7.3-1.8c-4.9-2.7-7.4-7.1-7.4-13.4v-29.9h7.2v19.5c2.4-2,4.6-3.9,7-6c1-0.8,2.5-2,3.5-2.9
		H543.6z M527.4,491.9c1.2,0.6,2.4,1,3.6,1c3.8,0,7.6-2.8,7.6-7.6c0-3.1-1.3-5.4-3.8-6.8c-1-0.6-2.3-1-3.5-1c-2.9,0-5.2,1.2-6.7,3.5
		c-0.7,1.1-1.1,2.4-1.1,4C523.5,488.1,524.9,490.4,527.4,491.9z"/>
	<path fill="#FFFFFF" d="M558.8,497.7c-2.2-5.1-3.8-10.7-4.9-16.8v0.1c-0.5-2.8-0.8-5.7-0.8-8.1c0-3.9,0.6-7.4,1.9-10.4
		c2.8-6.6,7.6-9.9,14.3-9.9c5.1,0,9.1,1.9,12,5.7c2.8,3.4,4.2,8.8,4.2,14.5c0,4.7-1,10.6-2.6,16.6c-0.7,2.4-1.7,5.6-2.9,8.3h-7.6
		c2-4.5,3.6-9.1,4.5-13.4c0.9-4.1,1.3-8,1.3-11.5c0-6.3-1.8-10.7-4.7-12.9h0.1c-1.3-0.8-2.9-1.3-4.2-1.3c-1.3,0-2.3,0.3-3.3,0.6h0.1
		c-2.2,1.2-4,3.5-4.9,6.7c-0.5,1.9-0.8,4.3-0.8,6.8c0,4.5,0.8,10,2.4,15.7v-0.1c0.8,2.7,1.9,5.8,3.3,9.3H558.8z"/>
</g>
<g>
	<path d="M375.5,218.6c0,2.1-1,4.2-3.1,6.2c-2.1,2-4.1,3.1-6.2,3.1h-11.6c-2.1,0-4.1-1-6.2-3.1s-3.1-4.1-3.1-6.2v-10.7h10.7v9
		c0,1.1,0.5,2.1,1.4,2.8c0.9,0.8,2,1.1,3.1,1.1c1,0,2-0.4,2.9-1.2c0.9-0.8,1.3-1.7,1.3-2.8V204c0-2-1.5-3.5-4.5-4.5v-7
		c3,0,4.5-1.1,4.5-3.4V177h10.7v11.8c0,1.7-0.6,3.1-1.7,4.2c-0.7,0.6-2,1.5-4,2.5c3.8,1.4,5.6,3.5,5.6,6.2V218.6z"/>
	<path d="M411,218.7c0,2.2-1.2,4.3-3.6,6.4c-2.3,1.9-4.6,2.9-6.8,2.9h-10.4c-2.1,0-4.2-1-6.4-3c-2.1-2-3.2-4.1-3.2-6.2v-11.8h10.7
		v9.8c0,1,0.5,1.8,1.5,2.6c1,0.7,1.9,1.1,2.9,1.1c0.9,0,1.8-0.4,2.8-1.2c0.9-0.8,1.4-1.6,1.4-2.5v-18.5c0-1.3-0.8-2.5-2.3-3.8
		c-1-0.8-2.6-2.2-4.6-3.9c-2.1-1.8-3.7-4-4.9-6.5v-6.7h10.6c0,2.9,0.7,5.3,2.2,7.1c0.7,0.9,2.6,2.5,5.7,5c2.7,2.2,4.1,4,4.1,5.5
		V218.7z"/>
	<path d="M447.2,218.6c0,2-1,4.1-3.1,6.1c-2.1,2-4.2,3-6.2,3H425c-1.9,0-3.9-1-5.9-2.9c-2-1.9-3-3.9-3-5.9v-11.2h11.1v8.6
		c0,1.2,0.5,2.2,1.4,3c0.9,0.7,1.9,1.1,3.2,1.1c1.2,0,2.2-0.4,3-1.1c0.8-0.8,1.2-1.7,1.2-2.9v-10.5c0-2.7-1.5-4-4.6-4v-7.2
		c3.1,0,4.6-1.8,4.6-5.4c0-3.8-1.5-5.6-4.5-5.6c-1.9,0-3.2,0.9-3.8,2.6c-0.3,0.9-0.5,2.6-0.5,5.1h-11.1V185
		c2.8-5.9,6.2-8.9,10.2-8.9H438c2.1,0,4.2,1,6.2,3s3,4,3,6.2v5.9c0,2.1-1.9,4.2-5.7,6.3c2,0.8,3.3,1.3,3.8,1.7
		c1.3,0.8,1.9,2,1.9,3.4V218.6z"/>
	<path d="M485.1,218.5c0,2-1,4.1-3.1,6.2c-2.1,2.2-4.1,3.2-6.1,3.2H464c-2,0-4-1.1-6.1-3.2c-2.1-2.2-3.1-4.2-3.1-6.2v-11.2
		c0-2,0.9-4,2.8-5.8c1.9-1.9,3.8-2.8,5.9-2.8h11.7v-12.7c0-0.6-0.3-1.2-0.8-1.6c-0.5-0.5-1.1-0.7-1.7-0.7c-0.7,0-1.2,0.2-1.7,0.6
		c-0.5,0.4-0.7,1-0.7,1.6v6.6H461c0-0.3,0-0.8,0-1.4c0-0.6,0-1.1,0-1.4c0-1.7-0.3-2.9-1-3.6c-0.7-0.7-1.9-1.1-3.6-1.1
		c-1.1,0-2.1,0.2-2.9,0.6c-0.6,0.3-1.5,0.8-2.7,1.4v-9.5c1.8-0.8,2.8-1.1,3-1.1h8.4c1.3,0,2.4,0.9,3.5,2.6c1.3-1.7,2.4-2.6,3.5-2.6
		h8.4c1.8,0,3.5,0.8,5.1,2.4c1.6,1.6,2.4,3.3,2.4,5.1V218.5z M474.8,213.3c0-2.3-0.2-4-0.6-4.9c-0.7-1.5-2-2.3-4-2.3
		c-3.1,0-4.6,2.3-4.6,6.9c0,2.3,0.2,3.9,0.7,4.9c0.7,1.5,2,2.3,3.9,2.3C473.3,220.2,474.8,217.9,474.8,213.3z"/>
	<path d="M522.6,228.1h-11.1v-39.5c0-1.2-0.5-2.2-1.4-3c-0.9-0.8-2-1.2-3.2-1.2c-1.1,0-2,0.4-2.9,1.3s-1.4,1.9-1.4,2.9v39.5h-11.1
		v-41.2c0-2.1,1-4.2,3.1-6.4c2.1-2.2,4.2-3.3,6.3-3.3h12.2c2.2,0,4.3,1.1,6.3,3.2c2,2.1,3.1,4.3,3.1,6.5V228.1z"/>
	<path d="M574.3,227.6h-10.5V209c0-0.9-0.3-1.7-1-2.4c-0.7-0.7-1.5-1-2.4-1c-0.9,0-1.7,0.3-2.4,1s-1,1.5-1,2.4v7.1h-10.3V209
		c0-1-0.3-1.8-1-2.4c-0.7-0.6-1.5-1-2.4-1c-0.8,0-1.5,0.4-2.2,1.1c-0.6,0.7-1,1.5-1,2.3v18.6h-10.8v-22.3c0-3.3,2.3-6.6,7-9.9
		c2.9-1.8,7.3-4.7,13-8.5c4.7-3.3,7-6.7,7-10.4h10.8v5.1c-1.3,2.8-3.4,5.2-6.3,7.4c-1.9,1.4-4.7,3-8.5,4.9c-3.8,1.9-6.3,3.2-7.3,4
		c1.9,0.3,3.1,0.5,3.7,0.8c0.8,0.4,1.9,1.2,3.1,2.4c2.3-1.9,4.2-2.8,5.7-2.8h7.4c2.1,0,4.2,1,6.3,3.1c2.1,2.1,3.1,4.2,3.1,6.3V227.6
		z"/>
	<path d="M611.3,228.1h-11.1v-39.5c0-1.2-0.5-2.2-1.4-3c-0.9-0.8-2-1.2-3.2-1.2c-1.1,0-2,0.4-2.9,1.3s-1.4,1.9-1.4,2.9v39.5h-11.1
		v-41.2c0-2.1,1-4.2,3.1-6.4c2.1-2.2,4.2-3.3,6.3-3.3h12.2c2.2,0,4.3,1.1,6.3,3.2c2,2.1,3.1,4.3,3.1,6.5V228.1z"/>
	<path d="M429.7,279.8c0,4-3.1,9.1-9.2,15.3c-3,3-5.9,5.9-8.7,8.7h17.1v8H399v-6.9c0-0.5,2.8-3.9,8.4-10c2.2-2.4,3.9-4.5,5.3-6.3
		c0.7-0.7,1.7-1.8,3-3.2c2-2.3,2.9-4.4,2.9-6.2v-8c0-2.7-1.5-4-4.5-4c-1.9,0-3.1,0.6-3.7,1.9c-0.4,0.8-0.5,2.3-0.5,4.5v1.8H399v-6.3
		c0-2,1.1-4,3.3-6.1c2.2-2,4.3-3.1,6.3-3.1h12c2.1,0,4.1,1.1,6.1,3.2c2,2.1,3,4.2,3,6.3V279.8z"/>
	<path d="M466.6,267.2l-21.3,44.4h-10.6l20.7-43.8h-21.1V260h32.3V267.2z"/>
	<path d="M522.9,303.2c0,2.1-1.1,4.2-3.2,6.3c-2.1,2.1-4.3,3.1-6.4,3.1h-12.7c-2.1,0-4.3-1-6.4-3.1c-2.2-2.1-3.2-4.2-3.2-6.3v-10.5
		c0-2.1,1.1-4.2,3.2-6.3c2.1-2.1,4.3-3.1,6.4-3.1h11.3v-10.2c0-1.3-0.6-2.5-1.7-3.3c-1-0.8-2.3-1.2-3.6-1.2c-3.4,0-5.1,2.2-5.1,6.5
		v0.6c0,0.2,0,0.4,0,0.6h-10.8v-6.5c2.4-5.9,5.5-8.8,9.3-8.8h13.9c2.1,0,4.1,1,6.1,3c2,2,3,4,3,6.1V303.2z M511.6,301.2v-6.8
		c0-1.2-0.5-2.1-1.6-2.8c-0.9-0.6-2-0.9-3.2-0.9c-1.2,0-2.2,0.3-3.2,0.9c-1.1,0.7-1.6,1.7-1.6,2.8v6.8c0,1.1,0.5,2,1.5,2.7
		c0.9,0.7,1.9,1,3,1c1.3,0,2.4-0.3,3.4-0.9C511,303.4,511.6,302.4,511.6,301.2z"/>
	<path d="M558.2,299.6c0,3.1-0.9,5.8-2.8,8.2c-2,2.6-4.5,3.9-7.5,3.9h-10.9c-2.3,0-4.5-1.1-6.6-3.2s-3.2-4.3-3.2-6.6v-7.2h11.2
		c0,0.3,0,0.7,0,1.3c0,0.6,0,1,0,1.3c0,2.3,0.2,3.8,0.5,4.6c0.6,1.3,1.9,1.9,3.8,1.9c3,0,4.6-1.7,4.6-5.2c0-3.4-1.4-5.1-4.3-5.1
		v-6.9c2.7,0,4.1-0.8,4.1-2.3c0-1.5-1.4-2.3-4.1-2.3v-6.3c1.4,0,2.4-0.1,3-0.2c1.1-0.3,1.6-1,1.6-2.1c0-0.7-1.6-1.5-4.7-2.6
		c-2-0.6-4-1.2-6-1.8c-1.7-0.6-2.9-1.3-3.6-2.1c-0.5-0.6-1.2-1.9-2-3.8V260h11.8c0,2.2,0.8,3.8,2.3,4.7c0.9,0.6,2.7,1.1,5.4,1.6
		c4.3,0.8,6.7,2.1,7.3,4c0.2,0.7,0.3,1.7,0.3,3c0,1.9-0.3,3.2-1,3.9c-1,0.6-2,1.2-2.8,1.8c1.6,1,2.7,1.8,3.1,2.5
		c0.4,0.7,0.6,2,0.6,3.9c0,1.9-0.4,3.3-1.1,4.1c-1.2,0.9-2.3,1.8-3.2,2.5c1.8,0.5,3,1.5,3.6,2.9
		C557.9,295.9,558.2,297.5,558.2,299.6z"/>
</g>
</svg>
