<?xml version="1.0" encoding="utf-8"?>
<!-- Generator: Adobe Illustrator 18.0.0, SVG Export Plug-In . SVG Version: 6.00 Build 0)  -->
<!DOCTYPE svg PUBLIC "-//W3C//DTD SVG 1.1//EN" "http://www.w3.org/Graphics/SVG/1.1/DTD/svg11.dtd">
<svg version="1.1"
	 id="svg2" inkscape:version="0.48.4 r9939" sodipodi:docname="D:\–ú–æ–∏ –¥–æ–∫—É–º–µ–Ω—Ç—ã\SVG\–î–æ—Ä–æ–∂–Ω—ã–µ –∑–Ω–∞–∫–∏\7.10.svg" xmlns:sodipodi="http://sodipodi.sourceforge.net/DTD/sodipodi-0.dtd" xmlns:cc="http://creativecommons.org/ns#" xmlns:rdf="http://www.w3.org/1999/02/22-rdf-syntax-ns#" xmlns:dc="http://purl.org/dc/elements/1.1/" xmlns:inkscape="http://www.inkscape.org/namespaces/inkscape" xmlns:svg="http://www.w3.org/2000/svg"
	 xmlns="http://www.w3.org/2000/svg" xmlns:xlink="http://www.w3.org/1999/xlink" x="0px" y="0px" viewBox="292.9 -0.5 374.3 560.9"
	 enable-background="new 292.9 -0.5 374.3 560.9" xml:space="preserve">
<path id="rect10490" fill="#FFFFFF" stroke="#000000" stroke-width="2" d="M317.3,0.5h325.3c13,0,23.5,10.5,23.5,23.5v512
	c0,13-10.5,23.5-23.5,23.5H317.3c-13,0-23.5-10.5-23.5-23.5V24C293.9,11,304.4,0.5,317.3,0.5z"/>
<path id="rect10483" inkscape:connector-curvature="0" fill="#0D69E1" d="M317.3,10.7c-7.4,0-13.3,5.9-13.3,13.3v512
	c0,7.4,5.9,13.3,13.3,13.3h325.3c7.4,0,13.3-6,13.3-13.3V24c0-7.4-6-13.3-13.3-13.3H317.3L317.3,10.7z M352.3,93.3h255.4
	c13.3,0,24,10.7,24,24v255.4c0,13.3-10.7,24-24,24H352.3c-13.3,0-24-10.7-24-24V117.3C328.3,104.1,339,93.3,352.3,93.3L352.3,93.3z"
	/>
<g>
	<path d="M376.5,292c1-0.4,2-0.9,3-1.3c6.4-2.8,12.7-5.7,24.3-5.7s17.9,2.9,24.3,5.7c4.1,1.8,8.1,3.7,14.2,3.7
		c6.2,0,10.2-1.9,14.3-3.7c6.4-2.8,12.7-5.7,24.3-5.7c12.2,0,18.4,2.9,24.5,5.8c3.8,1.8,7.6,3.6,14,3.6c6.2,0,10.2-1.9,14.3-3.7
		c6.4-2.8,12.7-5.7,24.3-5.7s17.9,2.9,24.3,5.7c0.4,0.2,0.8,0.4,1.2,0.5l-8.8,10.4c-0.8-0.4-1.6-0.7-2.5-1.1
		c-4-1.8-8.1-3.6-14.2-3.6c-6.2,0-10.2,1.8-14.2,3.6c-6.4,2.9-12.8,5.7-24.4,5.7c-12.2,0-18.3-2.9-24.5-5.8c-3.8-1.8-7.5-3.6-14-3.6
		c-6.2,0-10.2,1.8-14.2,3.6c-6.4,2.9-12.8,5.7-24.4,5.7c-11.5,0-17.9-2.8-24.3-5.7c-4-1.8-8.1-3.6-14.2-3.6
		c-6.2,0-10.2,1.8-14.2,3.6c-1.4,0.6-2.8,1.3-4.2,1.9L376.5,292z M376.5,342c1-0.4,2-0.9,3-1.3c6.4-2.8,12.7-5.7,24.3-5.7
		s17.9,2.8,24.3,5.7c4.1,1.9,8.1,3.7,14.2,3.7c6.2,0,10.2-1.8,14.3-3.7c6.4-2.8,12.7-5.7,24.3-5.7c12.2,0,18.4,2.9,24.5,5.8
		c3.8,1.8,7.6,3.6,14,3.6c6.2,0,10.2-1.8,14.3-3.7c6.4-2.8,12.7-5.7,24.3-5.7s17.9,2.8,24.3,5.7c0.4,0.2,0.8,0.4,1.2,0.5l-8.8,10.4
		c-0.8-0.4-1.6-0.7-2.5-1.1c-4-1.9-8.1-3.7-14.2-3.7c-6.2,0-10.2,1.8-14.2,3.7c-6.4,2.8-12.8,5.7-24.4,5.7
		c-12.2,0-18.3-2.9-24.5-5.8c-3.8-1.8-7.5-3.6-14-3.6c-6.2,0-10.2,1.8-14.2,3.7c-6.4,2.8-12.8,5.7-24.4,5.7
		c-11.5,0-17.9-2.8-24.3-5.7c-4-1.9-8.1-3.7-14.2-3.7c-6.2,0-10.2,1.8-14.2,3.7c-1.4,0.6-2.8,1.2-4.2,1.8L376.5,342z M376.5,317
		c1-0.4,2-0.9,3-1.3c6.4-2.9,12.7-5.7,24.3-5.7s17.9,2.8,24.3,5.7c4.1,1.8,8.1,3.6,14.2,3.6c6.2,0,10.2-1.8,14.3-3.6
		c6.4-2.9,12.7-5.7,24.3-5.7c12.2,0,18.4,2.9,24.5,5.8c3.8,1.8,7.6,3.6,14,3.6c6.2,0,10.2-1.8,14.3-3.6c6.4-2.9,12.7-5.7,24.3-5.7
		s17.9,2.8,24.3,5.7c0.4,0.2,0.8,0.4,1.2,0.5l-8.8,10.3c-0.8-0.4-1.6-0.7-2.5-1.1c-4-1.8-8.1-3.6-14.2-3.6c-6.2,0-10.2,1.8-14.2,3.6
		c-6.4,2.8-12.8,5.7-24.4,5.7c-12.2,0-18.3-2.9-24.5-5.8c-3.8-1.8-7.5-3.5-14-3.5c-6.2,0-10.2,1.8-14.2,3.6
		c-6.4,2.8-12.8,5.7-24.4,5.7c-11.5,0-17.9-2.9-24.3-5.7c-4-1.8-8.1-3.6-14.2-3.6c-6.2,0-10.2,1.8-14.2,3.6
		c-1.4,0.6-2.8,1.3-4.2,1.9L376.5,317z"/>
	<g>
		<path d="M442.3,283.3c6.2,0,10.2-1.9,14.3-3.7c6.4-2.8,12.7-5.7,24.3-5.7c12.2,0,18.4,2.9,24.5,5.8c3.8,1.8,7.6,3.6,14,3.6
			c6.2,0,10.2-1.9,14.3-3.7c5.2-2.3,10.4-4.7,18.3-5.5v-13.7c0-20.5-5.3-27.2-44.5-28.4c-2-9.5-0.7-12.7-0.1-13.7
			c2.9-4.9,10.1-16.4,11.4-30.2c1.5-15.2,1.9-31.6-6.2-41.1c-8.3-9.8-21.8-17-40.3-12.8c-18.5,4.2-29.1,14.8-29.2,17.6
			c-0.1,2.3,2.4,3,2.6,3c-1.1,2-2,4.3-2.6,6.7c-1.7,5.8-3,8.9-2.9,11c0,0.5,0.1,1,0.3,1.4c0.6,1.4,2.2,2,1.4,4.3
			c-2,5.5-4.2,9.6-6.4,12.8c-1.5,2.2,1.9,3.7,3.1,4.4c1.2,0.7,1.3,1.5,1.7,2.6c1.2,3-0.4,5.3-0.7,5.7c-0.7,0.9-0.9,1.9,0.1,3.1
			c0.4,0.6,2.2,1.5,1.9,1.9c-0.1,0.1-1.7,2-1.7,2.8c0.1,1.4,0.8,1.6,1.7,2.1c0.7,0.4,1.6,1.9,1.1,4.2c-1.2,5.6,0.7,6.4,2.3,7.7
			c3.1,2.4,12-0.1,13.7,0.3c0.7,0.2,1.5,3,2,5.7c-42.8,2.2-45.4,9.5-45.4,29.2V275c5,1.1,8.9,2.8,12.8,4.6
			C432.2,281.4,436.2,283.3,442.3,283.3z"/>
	</g>
</g>
</svg>
