<?xml version="1.0" encoding="utf-8"?>
<!-- Generator: Adobe Illustrator 18.0.0, SVG Export Plug-In . SVG Version: 6.00 Build 0)  -->
<!DOCTYPE svg PUBLIC "-//W3C//DTD SVG 1.1//EN" "http://www.w3.org/Graphics/SVG/1.1/DTD/svg11.dtd">
<svg version="1.1"
	 id="svg2" inkscape:version="0.48.4 r9939" sodipodi:docname="D:\–ú–æ–∏ –¥–æ–∫—É–º–µ–Ω—Ç—ã\SVG\–î–æ—Ä–æ–∂–Ω—ã–µ –∑–Ω–∞–∫–∏\7.10.svg" xmlns:sodipodi="http://sodipodi.sourceforge.net/DTD/sodipodi-0.dtd" xmlns:cc="http://creativecommons.org/ns#" xmlns:rdf="http://www.w3.org/1999/02/22-rdf-syntax-ns#" xmlns:dc="http://purl.org/dc/elements/1.1/" xmlns:inkscape="http://www.inkscape.org/namespaces/inkscape" xmlns:svg="http://www.w3.org/2000/svg"
	 xmlns="http://www.w3.org/2000/svg" xmlns:xlink="http://www.w3.org/1999/xlink" x="0px" y="0px" viewBox="292.9 -0.5 374.3 560.9"
	 enable-background="new 292.9 -0.5 374.3 560.9" xml:space="preserve">
<path id="rect10490" fill="#FFFFFF" stroke="#000000" stroke-width="2" d="M317.3,0.5h325.3c13,0,23.5,10.5,23.5,23.5v512
	c0,13-10.5,23.5-23.5,23.5H317.3c-13,0-23.5-10.5-23.5-23.5V24C293.9,11,304.4,0.5,317.3,0.5z"/>
<path id="rect10483" inkscape:connector-curvature="0" fill="#0D69E1" d="M317.3,10.7c-7.4,0-13.3,5.9-13.3,13.3v512
	c0,7.4,5.9,13.3,13.3,13.3h325.3c7.4,0,13.3-6,13.3-13.3V24c0-7.4-6-13.3-13.3-13.3H317.3L317.3,10.7z M352.3,93.3h255.4
	c13.3,0,24,10.7,24,24v255.4c0,13.3-10.7,24-24,24H352.3c-13.3,0-24-10.7-24-24V117.3C328.3,104.1,339,93.3,352.3,93.3L352.3,93.3z"
	/>
<g>
	<path d="M392.4,279.1l-23.1-96.9h20l14.6,66.5l17.7-66.5h23.3l17,67.7l14.9-67.7h19.7l-23.5,96.9h-20.7l-19.3-72.4l-19.2,72.4
		H392.4z"/>
	<path d="M571.8,243.5l19,6c-2.9,10.6-7.7,18.4-14.5,23.6c-6.8,5.1-15.3,7.7-25.7,7.7c-12.9,0-23.4-4.4-31.7-13.2
		c-8.3-8.8-12.4-20.8-12.4-36c0-16.1,4.2-28.6,12.5-37.6c8.3-8.9,19.3-13.4,32.8-13.4c11.8,0,21.5,3.5,28.9,10.5
		c4.4,4.1,7.7,10.1,9.9,17.8l-19.4,4.6c-1.1-5-3.5-9-7.2-11.9c-3.6-2.9-8.1-4.4-13.2-4.4c-7.2,0-13,2.6-17.5,7.7
		c-4.5,5.2-6.7,13.5-6.7,25c0,12.2,2.2,21,6.6,26.2c4.4,5.2,10.1,7.8,17.2,7.8c5.2,0,9.7-1.7,13.4-5
		C567.4,255.8,570.1,250.6,571.8,243.5z"/>
</g>
</svg>
