<?xml version="1.0" encoding="utf-8"?>
<!-- Generator: Adobe Illustrator 18.0.0, SVG Export Plug-In . SVG Version: 6.00 Build 0)  -->
<!DOCTYPE svg PUBLIC "-//W3C//DTD SVG 1.1//EN" "http://www.w3.org/Graphics/SVG/1.1/DTD/svg11.dtd">
<svg version="1.1"
	 id="svg2" inkscape:version="0.48.4 r9939" sodipodi:docname="D:\–ú–æ–∏ –¥–æ–∫—É–º–µ–Ω—Ç—ã\SVG\–î–æ—Ä–æ–∂–Ω—ã–µ –∑–Ω–∞–∫–∏\7.10.svg" xmlns:sodipodi="http://sodipodi.sourceforge.net/DTD/sodipodi-0.dtd" xmlns:cc="http://creativecommons.org/ns#" xmlns:rdf="http://www.w3.org/1999/02/22-rdf-syntax-ns#" xmlns:dc="http://purl.org/dc/elements/1.1/" xmlns:inkscape="http://www.inkscape.org/namespaces/inkscape" xmlns:svg="http://www.w3.org/2000/svg"
	 xmlns="http://www.w3.org/2000/svg" xmlns:xlink="http://www.w3.org/1999/xlink" x="0px" y="0px"
	 viewBox="292.9 -259.4 616.7 819.8" enable-background="new 292.9 -259.4 616.7 819.8" xml:space="preserve">
<path id="rect10490" fill="#FFFFFF" stroke="#000000" stroke-width="2" d="M317.3-259.4h568.8c13,0,23.5,10.5,23.5,23.5V536
	c0,13-10.5,23.5-23.5,23.5H317.3c-13,0-23.5-10.5-23.5-23.5v-771.9C293.9-248.9,304.4-259.4,317.3-259.4z"/>
<path fill="#0D69E1" d="M886.1-249.2H317.3c-7.4,0-13.3,5.9-13.3,13.3V536c0,7.4,5.9,13.3,13.3,13.3h568.8c7.4,0,13.3-6,13.3-13.3
	v-771.9C899.4-243.3,893.5-249.2,886.1-249.2z"/>
<path fill="#FFFFFF" d="M861,315.3H342.4c-7.2,0-13-5.8-13-13V134.8c0-7.2,5.8-13,13-13H861c7.2,0,13,5.8,13,13v167.6
	C874,309.5,868.2,315.3,861,315.3z"/>
<path fill="#FFFFFF" d="M861,520.1H342.4c-7.2,0-13-5.8-13-13V339.5c0-7.2,5.8-13,13-13H861c7.2,0,13,5.8,13,13v167.6
	C874,514.3,868.2,520.1,861,520.1z"/>
<path fill="#FFFFFF" d="M861,110.6H342.4c-7.2,0-13-5.8-13-13V-69.9c0-7.2,5.8-13,13-13H861c7.2,0,13,5.8,13,13V97.6
	C874,104.8,868.2,110.6,861,110.6z"/>
<g>
	<path fill="#FFFFFF" d="M388.9-204.5c0,1.8,0.1,2.9,0.4,3.5c0.1,0.2,0.5,0.6,1,1.2c1.6,1.6,2.6,3,3.2,4.3h-0.1
		c0.5,1.3,0.8,2.9,0.8,5.1c0,6-2.7,10.3-8.3,13c-2.5,1.1-5.3,1.8-8.5,1.8c-7.8,0-13-3.4-14.8-9.2c-0.7-2.3-1-4.9-1-7.3v-32.9h7.9
		v32.9c0,6.5,2.7,9.8,8.2,9.8c3.5,0,6-1.5,7.5-4.1c0.7-1.2,1.1-2.7,1.1-4.5c0-1.6-0.1-2.9-0.6-3.6v0.1c-0.4-0.8-1.2-1.9-2.2-3.1
		c-0.9-1.1-1.4-1.9-1.7-2.4c-0.6-0.8-0.8-2.5-1-4.7H388.9z"/>
	<path fill="#FFFFFF" d="M418.1-224.9c-0.1,1.8-0.1,2.7-0.1,3.9c0,1.2,0.1,2.2,0.6,3.2c0.4,1.3,2.6,3.1,6.6,5.7
		c4.2,2.7,7.3,6,8.8,9.4c1,2.2,1.5,4.9,1.5,7.9c0,7.8-2.9,13.6-7.7,16.9c-2.5,1.5-5.6,2.5-8.9,2.5c-5.8,0-10.4-2.2-13.4-6.3
		c-1.6-2.6-2.9-6.2-2.9-9.4c0-2.4,0.6-5,2-7.8h8.2c-1.5,3.2-2.2,5.7-2.2,7.7c0,5.4,3.3,9.2,8.5,9.2c4.3,0,7.3-2.7,8.1-7
		c0.4-2,0.6-3.9,0.6-5.7c0-4.2-1.4-7.6-3.8-9.7v0.1c-1.1-1-2.7-2-3.9-2.8c-2.7-1.5-4.3-2.6-5.2-3.2c-3.1-2.4-4.8-5.8-4.8-10.2
		c0-1.1,0.1-2.6,0.4-4.2H418.1z"/>
	<path fill="#FFFFFF" d="M468-224.9h8v32.7c0,4.5-1.3,8.4-3.2,11.1c-1,1.3-2.4,2.5-4.1,3.5c-2.4,1.3-5.2,2-8.3,2
		c-6.9,0-11.9-2.7-14.8-8.2c-1.3-2.6-2-5.4-2-8.3c0-1.7,0.4-3.6,1-6h8.1c-0.8,2.5-1.1,4.5-1.1,6c0,2.8,0.8,5.1,2.3,7h-0.1
		c1.6,1.8,3.9,2.8,6.4,2.8c1.6,0,3-0.4,4.3-1.1h-0.1c1.1-0.8,2-1.8,2.7-2.9c0.6-1.2,1-2.5,1-3.9l0.1-2.5v-10.8c0.1-2.4-2.5-6-7.7-6
		c-3.4,0-5.8,3-5.8,7.4h-7.9c0-5.9,2.1-9.9,6.4-12.3c2.1-1.1,4.3-1.7,6.9-1.7c3.2,0,6,0.8,8.2,2.5V-224.9z"/>
	<path fill="#FFFFFF" d="M501.1-224.9c-0.1,1.8-0.1,2.7-0.1,3.9c0,1.2,0.1,2.2,0.6,3.2c0.4,1.3,2.6,3.1,6.6,5.7
		c4.2,2.7,7.3,6,8.8,9.4c1,2.2,1.5,4.9,1.5,7.9c0,7.8-2.9,13.6-7.7,16.9c-2.5,1.5-5.6,2.5-8.9,2.5c-5.8,0-10.4-2.2-13.4-6.3
		c-1.6-2.6-2.9-6.2-2.9-9.4c0-2.4,0.6-5,2-7.8h8.2c-1.5,3.2-2.2,5.7-2.2,7.7c0,5.4,3.3,9.2,8.5,9.2c4.3,0,7.3-2.7,8.1-7
		c0.3-2,0.6-3.9,0.6-5.7c0-4.2-1.4-7.6-3.8-9.7v0.1c-1.1-1-2.7-2-3.9-2.8c-2.7-1.5-4.3-2.6-5.2-3.2c-3.1-2.4-4.8-5.8-4.8-10.2
		c0-1.1,0.1-2.6,0.4-4.2H501.1z"/>
	<path fill="#FFFFFF" d="M564.8-224.9c0,5.2-1.8,8.8-5.8,10.8c-1.5,0.7-3.6,1.5-6.2,2.3c-3.5,1.1-5.5,1.8-6.2,2
		c-3.9,1.4-6.9,3-8.9,4.7c1.1-0.3,2.1-0.4,3.2-0.4c4,0,6.7,1.1,9.1,4.3c2.7-2.8,6-4.3,9.5-4.3c5.4,0,9.3,2,12,6.2c1.4,2.1,2,4.8,2,8
		c0,5-1.6,9.7-4.8,14.4h-8.9c3.8-5,5.8-9.7,5.8-14.1c0-5.3-2.6-8-5.6-8c-1.6,0-3.1,0.7-4.3,1.9c-1.3,1.3-2,2.9-2,4.9v5.7h-7.9v-6.4
		c0-3.5-2.1-6.2-5.5-6.2c-1.8,0-3.2,0.7-4.1,2c-1,1.4-1.5,3-1.5,4.9c0,4.8,2.2,9.8,6.7,15.1h-9.6c-3.4-5.5-5-10.5-5-15.4
		c0-6,1.8-11.4,4.7-15.2c5.2-5.7,11.6-8.7,18.1-11c2-0.7,4.3-1.8,5.5-2.7c0.9-0.6,1.6-1.9,2.2-3.7H564.8z"/>
	<path fill="#FFFFFF" d="M584.2-209.1c0-6.4,2.7-11.4,5.6-13.7c3.2-2.5,7.2-3.4,10.6-3.4c4.4,0,8.3,1.8,11.4,4.9
		c2.2-3.3,5.7-4.9,10.4-4.9c4.3,0,8.1,2.3,10,5c1.3,2.1,2.1,5.3,2.1,9.3v18.5c0,6.2-1.2,11.7-3.7,16.5h-8.1
		c2.6-6.1,3.8-11.3,3.8-15.5v-20c0-4.8-1.5-7.1-4.5-7.1c-2.7,0-5.3,2.1-5.3,6.8v20c0,5.4-1.4,9.5-4.3,12.5h0.1
		c-2.9,3.1-6.9,4.7-12,4.7c-6.9,0-11.8-2.9-14.4-8.2c-1.1-2.5-1.8-5.5-1.8-9V-209.1z M592.1-191.4c0,2.3,0.7,4.5,2.1,6.4
		c1.3,1.9,3.4,2.8,6.2,2.8c2.9,0,5-1,6.4-2.9c1.2-1.8,1.9-3.9,1.9-6.3v-18.9c0-2.5-0.7-4.6-1.9-6.3c-1.4-2-3.5-2.9-6.4-2.9
		c-3.7,0-6.2,1.6-7.5,4.7c-0.5,1.4-0.8,3-0.8,4.6V-191.4z"/>
	<path fill="#FFFFFF" d="M646.7-208.2c0-3.8,0.5-6.8,1.4-9.2c2.2-5.9,7.1-8.8,14.5-8.8c6.2,0,10.6,2.7,13,7.1
		c0.9,1.9,1.5,4.3,1.5,6.3c0,4.1-1.3,7-4.4,9.1c2.9,2.1,4.4,6,4.4,11.3c0,11.2-5.3,16.9-15.8,16.9c-7,0-11.9-2.6-14.7-7.7
		c-1.1-2.2-1.8-4.7-1.8-7.5c0-2.6,0.5-5.1,1.5-7.7h8.1c-1.1,2.9-1.6,5.5-1.6,7.4c0,2.7,0.7,4.8,2.2,6.4c1.5,1.6,3.6,2.5,6.2,2.5
		c5.3,0,8-3.2,8-9.6c0-5.7-2.6-8.5-7.8-8.5v-6.6c5.2,0,7.8-1.9,7.8-5.7c0-4.1-2.7-7-6.8-7c-5.2,0-7.8,3.8-7.8,11.3H646.7z"/>
	<path fill="#FFFFFF" d="M689.1-208.1c-0.1-1.3-0.3-2.9-0.3-4.2c0-5.9,2.5-9.8,7.4-12.3c2.3-1.1,5-1.7,7.9-1.7c6.1,0,10.5,2,13.2,6
		c1.3,2,2,4.2,2,7.1v20.1c0,6.6-1.8,11.3-5.6,14.5c-2.4,2-5.7,3-9.9,3c-2.8,0-5.6-0.7-8.3-1.8c-6-2.7-8.8-7.8-8.8-15.2
		c0-1.6,0.4-3.7,1.1-6.1h8.1c-0.8,2.8-1.2,4.8-1.2,6.2c0,4.6,1.5,7.7,4.5,9.2c1.4,0.8,2.9,1.1,4.3,1.1s2.9-0.3,4.1-0.8h-0.1
		c2.5-1.3,3.9-4.3,3.9-8.8v-21.4c0-4.3-2.9-6.4-7.1-6.4c-4.7,0-7.4,2.8-7.4,7.6c0,1.3,0.1,2.7,0.3,3.9H689.1z"/>
	<path fill="#FFFFFF" d="M730.5-195h4.6c-2.7-2.5-4.4-5.4-5.3-8.8c-0.4-2.1-0.7-4.3-0.7-6.3c0-7.6,2.2-12.4,6.8-14.6
		c2-0.9,3.7-1.5,5.6-1.5c2.6,0,5.2,1.3,7.2,3.2c2.1-2.1,4.7-3.2,8-3.2c3.1,0,5.7,1.1,7.8,3.2c2.2-2.2,5.1-3.2,8.9-3.2
		c2.1,0,4,0.6,5.7,1.6c3.9,2.2,5.7,6,5.7,11.3c0,1.3-0.1,2.5-0.4,3.7c-0.2,1.1-0.6,2.5-1.3,4.1c-0.5,1.3-1.1,2.7-2,4.3h-8.4
		c2.7-5,4.1-9,4.1-12.3c0-1.7-0.4-3.3-1.2-4.5l0.1,0.1c-0.9-1.1-2.1-1.7-3.6-1.7c-2.9,0-4.7,2.2-4.7,5.2v9.1h-6.7v-9.1
		c0-3.5-1.4-5.2-4.3-5.2c-3.1,0-4.6,1.7-4.6,5.2v9.1h-6.6v-9.1c0-3.5-1.3-5.2-3.8-5.2c-1.9,0-3.1,0.9-3.8,2.7
		c-0.5,1.4-0.8,3.6-0.8,6.5c0,4.2,0.8,7.4,2.5,9.7c1.4,2,3.3,3.5,5.2,4.3c1.7,0.8,4.1,1.2,6.9,1.5c4.5,0.3,7.6,0.7,9.2,1
		c3.5,0.6,6.6,1.3,9.1,2.5c5.3,2.3,8.5,7.1,9,14.5h-7.9c-0.5-4.8-2.7-7.8-6.5-9c-1.8-0.6-5.2-1.3-8.3-1.7h0.1
		c-3.2-0.4-7.4-0.6-12.2-0.8h-0.5c-0.2,0-0.4-0.1-0.6-0.1c-1.7-0.1-3.1-0.1-4.3-0.1c-2.2,0-5.9,0.1-8.1,0.3V-195z"/>
	<path fill="#FFFFFF" d="M795.9-211.9c0-9.5,4.3-14.4,12.8-14.4c3.9,0,6.6,1.2,8.9,3.9c2.2-2.7,5.3-3.9,9.6-3.9
		c4.8,0,8.1,1.6,9.9,4.6c1.5,2.7,2.3,6.2,2.3,9.7v19.1c0,5.8-1.3,11.1-3.8,15.9h-7.8c2.4-6.2,3.6-11.3,3.6-15.5v-20
		c0-4.8-1.5-7.1-4.5-7.1c-1.7,0-3,0.6-4,2c-0.9,1.3-1.3,2.9-1.3,4.8v14.8h-8.1v-14.8c0-2-0.4-3.6-1.3-4.9c-0.8-1.3-2.2-1.9-3.9-1.9
		c-3.1,0-4.6,2.3-4.6,7.1v20c0,4.2,1.3,9.3,3.9,15.5h-8c-2.5-4.8-3.8-10.1-3.8-15.9V-211.9z"/>
	<path fill="#FFFFFF" d="M461.7-126.5v-8.3h22.8v19.6c-6.8,5.4-13.8,8.1-21,8.1c-9.9,0-18.4-4.5-22.5-12.3c-2-4-3.1-8.5-3.1-13.4
		c0-4.6,1.1-9.4,3.1-13.5c2-4.3,5.2-7.6,8.8-9.6c3.9-2,8.3-3.1,13.2-3.1c7.1,0,13.5,2.6,16.8,6.9c1.8,2.2,3.2,5.4,4.4,9.5l-8.4,2.4
		c-1.5-5.4-3.4-8.1-6.9-9.5c-1.8-0.8-3.7-1.1-6-1.1c-7.9,0-12.3,4.1-14.3,8.7c-0.8,2.5-1.7,6-1.7,9c0,7.9,2.7,13.2,7.8,15.8h-0.1
		c2.7,1.3,5.4,2,8.4,2c2.5,0,5.1-0.6,7.4-1.5c1.9-0.9,3.9-1.9,5.2-2.8v-6.9H461.7z"/>
	<path fill="#FFFFFF" d="M495.8-107.9V-158h37v8.3h-28v11.8H531v8.3h-26.3v13.4h29.1v8.3H495.8z"/>
	<path fill="#FFFFFF" d="M549-151.7c4.5-4.8,10.2-7.2,17.3-7.2c13.9-0.2,24.3,11.1,23.9,26c0,9.6-5.2,18.5-12.4,23
		c-3.2,1.6-7.4,2.8-11.6,2.8c-9.5,0-17.3-4.8-21.3-12.8c-1.9-4-2.9-8.2-2.9-12.5C542.2-140.6,544.4-147,549-151.7z M555.6-119.6
		c2.7,2.6,6.7,4.5,10.7,4.5c4.3,0,7.9-1.5,10.7-4.6c2.7-3,4.1-7.4,4.1-13.2c0.3-10.8-6.2-17.9-14.7-17.9c-3.9,0-7.6,1.6-10.6,4.2
		v-0.1c-2.7,2.9-4.3,7.8-4.3,14.4C551.4-127.1,553-122.6,555.6-119.6z"/>
	<path fill="#FFFFFF" d="M600.6-107.9V-158h22.3c4.3,0,7.8,0.5,10.2,1.4c2.4,1,4.5,2.9,5.8,5c1.5,2.4,2.2,5.1,2.2,7.8
		c0,6.8-3.4,11.7-10.9,13.7c0.3,0.3,0.6,0.6,0.8,0.8c1.8,1.5,3.7,3.9,5.4,6.6l9.5,14.9H635l-6.6-10.5c-5-7.6-7.2-9.7-9.9-10.3
		c-0.7-0.2-1.8-0.3-3.1-0.3h-6v21.1H600.6z M609.4-137.1h12.2c7.5,0.3,10.2-2.6,10.4-6.7c0-3.6-2.8-6.3-8.8-6.3h-13.8V-137.1z"/>
	<path fill="#FFFFFF" d="M674.8-126.5v-8.3h22.8v19.6c-6.8,5.4-13.8,8.1-21,8.1c-9.9,0-18.4-4.5-22.5-12.3c-2-4-3.1-8.5-3.1-13.4
		c0-4.6,1.1-9.4,3.1-13.5c2-4.3,5.2-7.6,8.8-9.6c3.9-2,8.3-3.1,13.2-3.1c7.1,0,13.5,2.6,16.8,6.9c1.8,2.2,3.2,5.4,4.4,9.5l-8.4,2.4
		c-1.5-5.4-3.4-8.1-6.9-9.5c-1.8-0.8-3.7-1.1-6-1.1c-7.9,0-12.3,4.1-14.3,8.7c-0.8,2.5-1.7,6-1.7,9c0,7.9,2.7,13.2,7.8,15.8h-0.1
		c2.7,1.3,5.4,2,8.4,2c2.5,0,5.1-0.6,7.4-1.5c1.9-0.9,3.9-1.9,5.2-2.8v-6.9H674.8z"/>
	<path fill="#FFFFFF" d="M709.5-107.9V-158h9v50.1H709.5z"/>
	<path fill="#FFFFFF" d="M724.3-107.9l19.1-50.1h8.6l20.5,50.1h-10.1l-5.5-14.4h-18.1c-0.3,0.8-0.6,1.9-0.9,2.8v-0.1
		c-1.4,3.6-3,8-4.3,11.6H724.3z M741.8-130h12.2c-1.3-3.8-2.9-7.6-4.2-11.3v0.1c-0.1-0.4-0.3-0.6-0.6-1.4v0.1
		c-1.1-2.8-0.8-1.6-1.5-3.9c-0.3,1.2-0.8,2.2-1.3,3.6c-0.1,0.2-0.1,0.6-0.2,0.8L741.8-130z"/>
</g>
<g>
	<g>
		
			<path id="path5334" sodipodi:ry="29.465372" sodipodi:cy="432.25998" sodipodi:rx="22.107042" sodipodi:type="arc" sodipodi:cx="-87.720657" fill="#FFFFFF" d="
			M509,218.6c0,42.5-34.4,76.9-76.9,76.9s-76.9-34.4-76.9-76.9s34.4-76.9,76.9-76.9S509,176.1,509,218.6z"/>
		
			<path id="path3003" sodipodi:ry="29.465372" sodipodi:cy="432.25998" sodipodi:rx="22.107042" sodipodi:type="arc" sodipodi:cx="-87.720657" fill="none" stroke="#000000" stroke-width="2" d="
			M508.8,218.6c0,42.3-34.3,76.6-76.6,76.6s-76.6-34.3-76.6-76.6s34.3-76.6,76.6-76.6S508.8,176.3,508.8,218.6z"/>
		<path id="path4775-9" fill="#FF0000" d="M432.1,144.3c-41.1,0-74.3,33.3-74.3,74.3s33.3,74.3,74.3,74.3s74.3-33.3,74.3-74.3
			S473.2,144.3,432.1,144.3z M432.1,156.8c34.1,0,61.8,27.7,61.8,61.8s-27.7,61.8-61.8,61.8s-61.8-27.7-61.8-61.8
			S398,156.8,432.1,156.8z"/>
	</g>
	<g>
		<path d="M398.8,234.1c1.4,0.2,2.9,0.1,5.1-0.2c3.6-0.3,7.2-1.6,9.9-3.8c3.2-2.6,5.4-6.3,6.3-10.9l-0.2-0.1
			c-2.5,2.8-6,4.4-10.7,4.4c-8.5,0-14.8-6.2-14.8-15.2c0-9.3,7.2-17.5,17.7-17.5c11.4,0,17.5,9,17.5,20.9c0,10.5-3.5,17.9-8.5,22.8
			c-4.3,4-10.2,6.3-16.7,6.7c-2.1,0.2-4.2,0.2-5.6,0.2V234.1z M403.6,207.9c0.1,5,2.9,9,8.1,9c3.8,0,6.5-1.7,7.9-4.1
			c0.3-0.6,0.5-1.4,0.5-2.6c0.1-6.6-2.4-12.4-8.4-12.4C407,197.8,403.6,201.9,403.6,207.9z"/>
		<path d="M470,215.9c0,15.8-6.2,25.6-17.9,25.6c-11.3,0-17.3-10.2-17.4-25.2c0-15.2,6.5-25.5,17.9-25.5
			C464.5,190.9,470,201.4,470,215.9z M444,216.4c-0.1,11.9,3.2,18.1,8.4,18.1c5.4,0,8.3-6.6,8.3-18.4c0-11.4-2.7-18.1-8.3-18.1
			C447.4,198,444,204.1,444,216.4z"/>
	</g>
</g>
<g>
	<g>
		
			<path id="path5334_1_" sodipodi:ry="29.465372" sodipodi:cy="432.25998" sodipodi:rx="22.107042" sodipodi:type="arc" sodipodi:cx="-87.720657" fill="#FFFFFF" d="
			M509,423.3c0,42.5-34.4,76.9-76.9,76.9s-76.9-34.4-76.9-76.9s34.4-76.9,76.9-76.9S509,380.9,509,423.3z"/>
		
			<path id="path3003_1_" sodipodi:ry="29.465372" sodipodi:cy="432.25998" sodipodi:rx="22.107042" sodipodi:type="arc" sodipodi:cx="-87.720657" fill="none" stroke="#000000" stroke-width="2" d="
			M508.8,423.3c0,42.3-34.3,76.6-76.6,76.6s-76.6-34.3-76.6-76.6s34.3-76.6,76.6-76.6S508.8,381,508.8,423.3z"/>
		<path id="path4775-9_1_" fill="#FF0000" d="M432.1,349c-41.1,0-74.3,33.3-74.3,74.3s33.3,74.3,74.3,74.3s74.3-33.3,74.3-74.3
			S473.2,349,432.1,349z M432.1,361.6c34.1,0,61.8,27.7,61.8,61.8s-27.7,61.8-61.8,61.8s-61.8-27.7-61.8-61.8S398,361.6,432.1,361.6
			z"/>
	</g>
	<g>
		<path d="M398.4,404.8h-0.2l-9,4.5l-1.6-7l11.9-5.9h7.8v49h-9V404.8z"/>
		<path d="M423.8,404.8h-0.2l-9,4.5l-1.6-7l11.9-5.9h7.8v49h-9V404.8z"/>
		<path d="M478.3,420.7c0,15.8-6.2,25.6-17.9,25.6c-11.3,0-17.3-10.2-17.4-25.2c0-15.2,6.5-25.5,17.9-25.5
			C472.8,395.6,478.3,406.2,478.3,420.7z M452.3,421.1c-0.1,11.9,3.2,18.1,8.4,18.1c5.4,0,8.3-6.6,8.3-18.4
			c0-11.4-2.7-18.1-8.3-18.1C455.7,402.7,452.3,408.8,452.3,421.1z"/>
	</g>
</g>
<g>
	<g>
		
			<path id="path5334_2_" sodipodi:ry="29.465372" sodipodi:cy="432.25998" sodipodi:rx="22.107042" sodipodi:type="arc" sodipodi:cx="-87.720657" fill="#FFFFFF" d="
			M509,13.9c0,42.5-34.4,76.9-76.9,76.9s-76.9-34.4-76.9-76.9S389.7-63,432.1-63S509-28.6,509,13.9z"/>
		
			<path id="path3003_2_" sodipodi:ry="29.465372" sodipodi:cy="432.25998" sodipodi:rx="22.107042" sodipodi:type="arc" sodipodi:cx="-87.720657" fill="none" stroke="#000000" stroke-width="2" d="
			M508.8,13.9c0,42.3-34.3,76.6-76.6,76.6s-76.6-34.3-76.6-76.6s34.3-76.6,76.6-76.6S508.8-28.5,508.8,13.9z"/>
		<path id="path4775-9_2_" fill="#FF0000" d="M432.1-60.5c-41.1,0-74.3,33.3-74.3,74.3s33.3,74.3,74.3,74.3s74.3-33.3,74.3-74.3
			S473.2-60.5,432.1-60.5z M432.1-47.9c34.1,0,61.8,27.7,61.8,61.8s-27.7,61.8-61.8,61.8S370.4,48,370.4,13.9S398-47.9,432.1-47.9z"
			/>
	</g>
	<g>
		<path d="M424.8-6.5c-1.4,0-2.9,0-4.7,0.2C409.8-5,404.9,1.3,403.7,8.1h0.2c2.4-2.8,6.1-4.7,11-4.7c8.4,0,15,6,15,16
			c0,9.3-6.9,17.5-17.3,17.5c-11.9,0-18.5-9-18.5-21.1c0-9.4,3.4-17.1,8.5-22c4.5-4.2,10.4-6.6,17.4-7.2c2-0.2,3.5-0.2,4.7-0.2
			L424.8-6.5z M420.5,19.8c0-5.7-3.1-9.7-8.5-9.7c-3.5,0-6.6,2.1-8,5c-0.4,0.8-0.6,1.7-0.6,2.9c0.2,6.5,3.2,11.8,9.2,11.8
			C417.4,29.9,420.5,25.7,420.5,19.8z"/>
		<path d="M470,11.2c0,15.8-6.2,25.6-17.9,25.6c-11.3,0-17.3-10.2-17.4-25.2c0-15.2,6.5-25.5,17.9-25.5C464.5-13.8,470-3.3,470,11.2
			z M444,11.6c-0.1,11.9,3.2,18.1,8.4,18.1c5.4,0,8.3-6.6,8.3-18.4c0-11.4-2.7-18.1-8.3-18.1C447.4-6.8,444-0.7,444,11.6z"/>
	</g>
</g>
<polygon points="822.7,197.3 802,202.3 802,234.7 796.8,234.7 796.8,225.1 767.4,213.4 738,225.1 738,234.7 733.1,234.7 
	733.1,229.1 719.2,221.2 701.8,221.2 701.8,218.3 684.4,218.3 684.4,221.2 666.3,221.2 653.1,229.1 653.1,234.7 648.2,234.7 
	648.2,227.7 625.2,187.7 602.3,227.7 602.3,234.7 596.7,234.7 596.7,224.6 570.8,218.3 544.9,224.6 544.9,234.7 544.9,246.5 
	544.9,253.8 843.4,253.8 843.4,241.6 843.4,234.7 843.4,202.3 "/>
<path fill="#FF0000" d="M796.9,181.5l-1-2.9c-0.6-0.7-1.5-1.1-2.4-1l-4.4,0.7l-198.7,87.9l0.7,4.7c0.3,1.8,1.7,3.1,3.2,2.8l16-2.5
	l187.6-83L796.9,181.5z"/>
<polygon points="824,-20.6 803.3,-15.5 803.3,16.8 798.1,16.8 798.1,7.3 768.7,-4.4 739.3,7.3 739.3,16.8 734.4,16.8 734.4,11.3 
	720.6,3.3 703.1,3.3 703.1,0.5 685.7,0.5 685.7,3.3 667.6,3.3 654.4,11.3 654.4,16.8 649.5,16.8 649.5,9.9 626.6,-30.1 603.6,9.9 
	603.6,16.8 598,16.8 598,6.7 572.1,0.5 546.2,6.7 546.2,16.8 546.2,28.7 546.2,36 844.7,36 844.7,23.8 844.7,16.8 844.7,-15.5 "/>
<path id="rect10868" fill="#FFFFFF" stroke="#000000" stroke-width="0.5" d="M647.4,343.4h96.1c2.9,0,5.2,2.3,5.2,5.2v149.5
	c0,2.9-2.3,5.2-5.2,5.2h-96.1c-2.9,0-5.2-2.3-5.2-5.2V348.6C642.2,345.7,644.5,343.4,647.4,343.4z"/>
<path id="rect8306" fill="#00A500" d="M647.4,345.6c-1.6,0-3,1.3-3,3v39.7h102v-39.7c0-1.6-1.3-3-3-3h-41.4l8.3,37.7h-11.7
	l-1.7-37.7h-3.3l-1.7,37.7h-11.7l8.3-37.7H647.4z M644.5,395v103.1c0,1.6,1.3,3,3,3h1.3L675.4,400h16.7L688.8,501h13.3L698.8,400
	h16.7L742.2,501h1.3c1.6,0,3-1.3,3-3V395h-14.3v11.7h-6.7l-3.3-11.7h-53.4l-3.3,11.7h-6.7V395H644.5z"/>
</svg>
