<?xml version="1.0" encoding="utf-8"?>
<!-- Generator: Adobe Illustrator 18.0.0, SVG Export Plug-In . SVG Version: 6.00 Build 0)  -->
<!DOCTYPE svg PUBLIC "-//W3C//DTD SVG 1.1//EN" "http://www.w3.org/Graphics/SVG/1.1/DTD/svg11.dtd">
<svg version="1.1"
	 id="svg2" inkscape:version="0.48.4 r9939" sodipodi:docname="6.2014_02_16_18_28_07.2.svg" xmlns:sodipodi="http://sodipodi.sourceforge.net/DTD/sodipodi-0.dtd" xmlns:dc="http://purl.org/dc/elements/1.1/" xmlns:cc="http://creativecommons.org/ns#" xmlns:inkscape="http://www.inkscape.org/namespaces/inkscape" xmlns:svg="http://www.w3.org/2000/svg" xmlns:rdf="http://www.w3.org/1999/02/22-rdf-syntax-ns#"
	 xmlns="http://www.w3.org/2000/svg" xmlns:xlink="http://www.w3.org/1999/xlink" x="0px" y="0px" viewBox="136.2 71.3 649.6 325.2"
	 enable-background="new 136.2 71.3 649.6 325.2" xml:space="preserve">
<g>
	<path fill="#0D69E1" d="M593.2,277.7H235.3c-2.9,0-5.2-2-5.2-4.4v-78.6c0-2.5,2.3-4.4,5.2-4.4h357.9c0.8,0,1.7,0.2,2.4,0.5
		l96.5,43.2l-96.5,43.2C594.9,277.5,594,277.7,593.2,277.7z"/>
	<polygon fill="#FFFFFF" points="595.8,271.7 638.1,233.9 595.8,196.1 680.3,233.9 	"/>
	<g>
		<path fill="#FFFFFF" d="M291.4,256.4h-10v-36.9c0-1.7-1.1-2.5-3.3-2.5c-0.8,0-1.5,0.2-2.1,0.7c-0.7,0.5-1,1.1-1,1.8V248
			c0,1.8-1,3.7-3.1,5.6c-2.1,1.9-4,2.8-5.9,2.8h-10.7c-1.9,0-3.9-0.9-5.9-2.8c-2.1-1.9-3.1-3.8-3.1-5.7v-29.4c0-1.8,1-3.8,3.1-5.7
			c2.1-1.8,4-2.8,5.9-2.8h8.4c2,0.3,4.1,1.3,6.3,3.1c1-0.7,1.9-1.4,2.9-2.2c1.1-0.6,2.1-0.9,2.9-0.9h8.2c1.7,0,3.4,0.7,5,2.2
			c1.6,1.5,2.4,3,2.4,4.7C291.4,217.1,291.4,256.4,291.4,256.4z M264.7,245.9v-25.6c0-0.8-0.5-1.6-1.5-2.3c-0.9-0.7-1.8-1-2.6-1
			s-1.7,0.4-2.7,1c-0.9,0.7-1.4,1.4-1.4,2.3v25.6c0,0.9,0.5,1.7,1.4,2.5c0.9,0.7,1.7,1.1,2.7,1.1c0.9,0,1.8-0.4,2.7-1.1
			C264.3,247.6,264.7,246.8,264.7,245.9z"/>
		<path fill="#FFFFFF" d="M327.7,247.9c0,1.8-1,3.6-3,5.6c-2,1.9-3.9,2.9-5.7,2.9h-11c-1.7,0-3.5-0.9-5.4-2.7
			c-1.8-1.8-2.8-3.5-2.8-5.3v-11h10v8.5c0,1.1,0.4,2,1.2,2.8c0.8,0.7,1.7,1.1,2.9,1.1c0.9,0,1.8-0.4,2.6-1.2
			c0.8-0.8,1.2-1.7,1.2-2.6v-25.1c0-1.1-0.4-2-1.2-2.7c-0.8-0.7-1.7-1.1-2.9-1.1c-1.8,0-2.9,0.8-3.4,2.3c-0.3,0.8-0.4,2.3-0.4,4.6
			h-10v-5.7c2.1-5.3,5-8,8.7-8h10.2c1.9,0,3.9,0.9,5.9,2.8c2.1,1.8,3,3.8,3,5.7L327.7,247.9L327.7,247.9z"/>
		<path fill="#FFFFFF" d="M387,230.7h-9.5v-11.6c0-1.4-0.8-2.1-2.3-2.1c-0.5,0-1,0.2-1.4,0.7c-0.5,0.5-0.7,0.9-0.7,1.4v8.2h-8.7
			v-8.2c0-1.4-0.8-2.1-2.3-2.1s-2.3,0.7-2.3,2.1v8.2h-8.7v-8.2c0-1.4-0.8-2.1-2.3-2.1c-0.6,0-1.1,0.2-1.6,0.6
			c-0.5,0.4-0.7,0.9-0.7,1.5v12.1c0,4.1,3.6,6.6,10.8,7.6c3.4,0.4,6.9,0.8,10.4,1.2c4.1,0.6,7.4,1.5,9.9,2.8
			c2.3,1.2,3.9,2.5,4.7,3.6c0.5,0.6,1.3,2.5,2.5,5.5v4.9h-9.5c0-5.1-3.4-8.4-10.2-10c-3-0.7-6.2-1-9.8-1h-18V240h5.9
			c-1.8-0.8-3.4-2.1-4.7-3.7c-1.5-1.8-2.2-3.7-2.2-5.5V219c0-1.8,0.9-3.8,2.6-5.7c1.7-1.9,3.5-2.8,5.3-2.8h5.7
			c1.7,0,3.5,0.9,5.4,2.8c1.2-1.2,2.3-2.1,3.2-2.4c0.8-0.3,2.2-0.5,4-0.5s3.2,0.2,4,0.5c0.8,0.3,1.9,1.1,3.1,2.4
			c1.3-1.3,2.5-2.2,3.5-2.5c0.8-0.3,2.3-0.4,4.4-0.4c2.5,0,4.6,0.6,6.4,1.7c2.1,1.3,3.1,3.1,3.1,5.5C387,217.7,387,230.7,387,230.7z
			"/>
		<path fill="#FFFFFF" d="M421.4,248.2c0,2-1.1,3.9-3.2,5.7c-2.1,1.7-4.1,2.6-6.1,2.6h-9.3c-1.9,0-3.8-0.9-5.7-2.7s-2.8-3.7-2.8-5.6
			v-10.5h9.6v8.8c0,0.9,0.5,1.6,1.4,2.3c0.9,0.6,1.7,0.9,2.6,0.9c0.8,0,1.6-0.4,2.5-1c0.8-0.7,1.3-1.4,1.3-2.3v-16.5
			c0-1.1-0.7-2.3-2-3.4c-0.9-0.8-2.3-2-4.2-3.5c-1.8-1.6-3.3-3.5-4.4-5.9v-6h9.6c0,2.6,0.7,4.7,2,6.4c0.6,0.8,2.4,2.3,5.1,4.5
			c2.5,2,3.7,3.6,3.7,5L421.4,248.2L421.4,248.2z"/>
		<path fill="#FFFFFF" d="M457,248.1c0,1.8-0.9,3.6-2.8,5.4c-1.9,1.8-3.8,2.7-5.6,2.7h-11.5c-1.7,0-3.5-0.9-5.2-2.6
			c-1.7-1.7-2.7-3.5-2.7-5.2v-10.1h9.9v7.7c0,1.1,0.4,2,1.2,2.7c0.8,0.6,1.7,0.9,2.8,0.9c1.1,0,2-0.4,2.7-1s1.1-1.5,1.1-2.6v-9.4
			c0-2.4-1.4-3.6-4.1-3.6v-6.4c2.7,0,4.1-1.6,4.1-4.8c0-3.4-1.3-5-4.1-5c-1.7,0-2.9,0.8-3.4,2.3c-0.3,0.8-0.5,2.4-0.5,4.6h-9.9V218
			c2.5-5.3,5.5-7.9,9.1-7.9h10.5c1.9,0,3.8,0.9,5.5,2.7c1.8,1.8,2.7,3.6,2.7,5.5v5.3c0,1.9-1.7,3.8-5.1,5.7c1.8,0.7,2.9,1.2,3.4,1.5
			c1.1,0.8,1.7,1.8,1.7,3.1L457,248.1L457,248.1z"/>
		<path fill="#FFFFFF" d="M492.3,256.6h-9.9v-35.4c0-1.1-0.4-2-1.2-2.7c-0.8-0.7-1.7-1.1-2.9-1.1c-0.9,0-1.8,0.4-2.6,1.2
			c-0.8,0.8-1.2,1.6-1.2,2.6v35.4h-9.9v-36.9c0-1.9,0.9-3.8,2.8-5.8c1.9-2,3.8-2.9,5.6-2.9h10.9c2,0,3.9,1,5.7,2.9
			c1.8,1.9,2.7,3.9,2.7,5.8V256.6z"/>
	</g>
	<g>
		<path fill="#FFFFFF" d="M577.8,247.3c0,1.9-1,3.6-3.1,5.2c-1.9,1.5-3.9,2.3-5.8,2.3h-9.7c-2.2,0-4.3-0.9-6.4-2.6
			c-2.2-1.8-3.2-3.8-3.2-6v-29.4c0-2.1,1-4.1,3.1-5.9c2-1.8,4.1-2.7,6.2-2.7h8.9c4.5,0,7.8,2.5,9.9,7.6v6H568c0-2.2-0.2-3.7-0.6-4.6
			c-0.6-1.4-1.8-2.2-3.6-2.2c-2.8,0-4.2,1.3-4.2,3.9v9.5h12c1.6,0,3.1,0.6,4.3,1.9c1.3,1.3,1.9,2.7,1.9,4.3L577.8,247.3L577.8,247.3
			z M567.7,244.7v-6c0-0.9-0.4-1.7-1.3-2.5c-0.8-0.6-1.7-0.9-2.6-0.9c-1,0-1.8,0.3-2.7,1c-0.8,0.7-1.2,1.4-1.2,2.4v6
			c0,0.9,0.4,1.7,1.3,2.4c0.8,0.6,1.6,0.9,2.6,0.9c0.9,0,1.8-0.4,2.7-1C567.3,246.4,567.7,245.6,567.7,244.7z"/>
	</g>
</g>
<g>
	<path fill="#00A500" d="M328.9,158.8h357.9c2.9,0,5.2-2,5.2-4.4V75.8c0-2.5-2.3-4.4-5.2-4.4H328.9c-0.8,0-1.7,0.2-2.4,0.5L230,115
		l96.5,43.2C327.3,158.6,328.1,158.8,328.9,158.8z"/>
	<polygon fill="#FFFFFF" points="326.3,152.8 284.1,115 326.3,77.2 241.8,115 	"/>
	<g>
		<path fill="#FFFFFF" d="M454.5,129.5c0,1.8-1,3.6-3,5.3c-2,1.7-3.9,2.6-5.8,2.6h-14.3c-2.1,0-4.2-1-6.2-2.9c-2-2-3-4-3-6.1V120
			h10.2v5.9c0,1.4,0.7,2.6,2.1,3.6c1.2,0.9,2.6,1.3,4.1,1.3c1.4,0,2.8-0.5,4-1.3c1.3-1,2-2.2,2-3.5v-8.4c0-1.7-1-2.5-3.1-2.5v-5.7
			c2.1,0,3.1-0.7,3.1-2.1v-6.9c0-1.4-0.8-2.1-2.3-2.1c-0.5,0-1,0.2-1.4,0.7c-0.5,0.4-0.7,0.9-0.7,1.4v6.9c0,1.9-0.9,3.7-2.6,5.4
			s-3.5,2.6-5.4,2.6h-9c-1.9,0-3.8-0.9-5.6-2.7c-1.8-1.8-2.8-3.6-2.8-5.5v-8.2c0-1.8,1-3.5,3-5c1.9-1.4,3.8-2.1,5.7-2.1h7.2
			c2.1,0,3.7,0.9,4.9,2.6c0.5-0.7,1.1-1.3,2-1.8c0.9-0.5,1.7-0.8,2.6-0.8h8.2c1.5,0,3,0.6,4.2,1.8c1.3,1.2,1.9,2.6,1.9,4.1v9.2
			c0,1.2-0.5,2.3-1.5,3.1c-0.6,0.5-1.6,1.1-3.1,1.7c1.8,0.7,2.8,1.2,3.2,1.4c0.9,0.7,1.4,1.6,1.4,2.9v13.6H454.5z M430.4,106.1V101
			c0-0.7-0.3-1.3-0.9-1.8c-0.6-0.5-1.2-0.8-2-0.8c-0.8,0-1.4,0.3-2.1,0.7c-0.6,0.5-0.9,1.1-0.9,1.8v5.1c0,0.6,0.3,1.2,0.9,1.7
			c0.6,0.6,1.2,0.8,1.8,0.8c0.7,0,1.4-0.3,2.1-0.8C430.1,107.5,430.4,106.9,430.4,106.1z"/>
		<path fill="#FFFFFF" d="M502.7,137.7H493v-36.8c0-1.7-1-2.5-3-2.5c-2,0-3,0.8-3,2.5v14.4h-8.9v-14.4c0-1.7-1-2.5-3-2.5
			c-1.8,0-2.8,0.8-2.8,2.5v36.8h-9.7V98.6c0-1.6,0.7-3.2,2.2-4.7c1.4-1.4,3-2.2,4.7-2.2h8.9c1,0,1.8,0.4,2.6,1.1
			c0.3,0.3,0.9,1,1.8,2.3c1.7-2.2,3.2-3.3,4.4-3.3h8.6c1.6,0,3.2,0.7,4.7,2.2c1.4,1.4,2.2,3,2.2,4.7L502.7,137.7L502.7,137.7z"/>
		<path fill="#FFFFFF" d="M555.8,137.5h-10v-36.9c0-1.7-1.1-2.5-3.3-2.5c-0.8,0-1.5,0.2-2.1,0.7c-0.7,0.5-1,1.1-1,1.8v28.5
			c0,1.8-1,3.7-3.1,5.6c-2.1,1.9-4,2.8-5.9,2.8h-10.8c-1.9,0-3.9-0.9-5.9-2.8c-2.1-1.9-3.1-3.8-3.1-5.7V99.6c0-1.8,1-3.8,3.1-5.7
			c2.1-1.8,4-2.8,5.9-2.8h8.5c2,0.3,4.1,1.3,6.3,3.1c1-0.7,1.9-1.4,2.9-2.2c1.1-0.6,2.1-0.9,2.9-0.9h8.2c1.7,0,3.4,0.7,5,2.2
			s2.4,3,2.4,4.7L555.8,137.5L555.8,137.5z M529.1,127v-25.6c0-0.8-0.5-1.6-1.5-2.3c-0.9-0.7-1.8-1-2.6-1c-0.8,0-1.7,0.4-2.7,1
			c-0.9,0.7-1.4,1.4-1.4,2.3v25.6c0,0.9,0.5,1.7,1.4,2.5c0.9,0.7,1.7,1.1,2.7,1.1c0.9,0,1.8-0.4,2.7-1.1
			C528.6,128.7,529.1,127.9,529.1,127z"/>
		<path fill="#FFFFFF" d="M592.5,137.7h-9.9v-35.4c0-1.1-0.4-2-1.2-2.7c-0.8-0.7-1.7-1.1-2.9-1.1c-0.9,0-1.8,0.4-2.6,1.2
			c-0.8,0.8-1.2,1.6-1.2,2.6v35.4h-9.9v-36.9c0-1.9,0.9-3.8,2.8-5.8c1.9-2,3.8-2.9,5.6-2.9h10.9c2,0,3.9,1,5.7,2.9s2.7,3.9,2.7,5.8
			V137.7z"/>
		<path fill="#FFFFFF" d="M636.3,137.8h-9.8v-32.1c-1.1,0.1-2.7,0.8-4.9,2.1h-0.7v-8c3.9-1.5,6.5-4.4,8-8.8h7.5v46.8H636.3z"/>
		<path fill="#FFFFFF" d="M671,129.6c0,2.3-1.1,4.3-3.2,6c-2,1.6-4.2,2.4-6.5,2.4h-9c-1.9,0-3.3-0.4-4.4-1.1c-1.1-0.8-2-2-2.6-3.3
			l-1.7-4.2v-4.6h9.8c0,2.2,0.2,3.7,0.5,4.6c0.6,1.4,1.7,2.1,3.6,2.1c1.1,0,2-0.4,2.7-1.2c0.7-0.8,1.1-1.7,1.1-2.9v-10.8
			c0-0.9-0.4-1.7-1.2-2.5s-1.6-1.2-2.4-1.2c-1.4,0-2.6,0.9-3.3,2.8h-9.2V91.9h25.1v6.4h-15.6v9h10c1.8,0,3.3,0.6,4.5,1.8
			c1.2,1.2,1.8,2.8,1.8,4.5L671,129.6L671,129.6z"/>
	</g>
	<path id="rect10868" fill="#FFFFFF" stroke="#FFFFFF" stroke-width="2" d="M342.1,77.2H388c1.4,0,2.5,1.1,2.5,2.5v71.4
		c0,1.4-1.1,2.5-2.5,2.5h-45.9c-1.4,0-2.5-1.1-2.5-2.5V79.7C339.6,78.3,340.7,77.2,342.1,77.2z"/>
	<path id="rect8306" fill="#00A500" d="M342.1,78.3c-0.8,0-1.4,0.6-1.4,1.4v19h48.7v-19c0-0.8-0.6-1.4-1.4-1.4h-19.8l4,18h-5.5
		l-0.8-18h-1.6l-0.8,18h-5.5l4-18C361.9,78.3,342.1,78.3,342.1,78.3z M340.7,101.9v49.2c0,0.8,0.6,1.4,1.4,1.4h0.6l12.7-48.3h8
		l-1.6,48.3h6.4l-1.6-48.3h8l12.7,48.3h0.6c0.8,0,1.4-0.6,1.4-1.4v-49.2h-6.8v5.5h-3.2l-1.6-5.5h-25.5l-1.6,5.5h-3.2v-5.5H340.7z"/>
</g>
<g>
	<path fill="#00A500" d="M686.9,396.6H141.5c-2.9,0-5.2-2-5.2-4.4v-78.6c0-2.5,2.3-4.4,5.2-4.4h545.5c0.8,0,1.7,0.2,2.4,0.5
		l96.5,43.2L689.4,396C688.6,396.4,687.8,396.6,686.9,396.6z"/>
	<polygon fill="#FFFFFF" points="689.6,390.6 731.8,352.9 689.6,315.1 774,352.9 	"/>
	<g>
		<path fill="#FFFFFF" d="M248.8,367.1c0,2-1.1,3.9-3.2,5.7c-2.1,1.7-4.1,2.6-6.1,2.6h-9.3c-1.9,0-3.8-0.9-5.7-2.7
			c-1.9-1.8-2.8-3.7-2.8-5.6v-10.5h9.6v8.8c0,0.9,0.5,1.6,1.4,2.3c0.9,0.6,1.7,0.9,2.6,0.9c0.8,0,1.6-0.4,2.5-1
			c0.8-0.7,1.3-1.4,1.3-2.3v-16.5c0-1.1-0.7-2.3-2-3.4c-0.9-0.8-2.3-2-4.2-3.5s-3.3-3.5-4.4-5.9v-6h9.5c0,2.6,0.7,4.7,2,6.4
			c0.6,0.8,2.4,2.3,5.1,4.5c2.5,2,3.7,3.6,3.7,5V367.1z"/>
		<path fill="#FFFFFF" d="M285.1,366.8c0,1.8-1,3.6-3,5.6c-2,1.9-3.9,2.9-5.7,2.9h-11c-1.7,0-3.5-0.9-5.4-2.7s-2.8-3.5-2.8-5.3v-11
			h10v8.5c0,1.1,0.4,2,1.2,2.8c0.8,0.7,1.7,1.1,2.9,1.1c0.9,0,1.8-0.4,2.6-1.2c0.8-0.8,1.2-1.7,1.2-2.6v-25.1c0-1.1-0.4-2-1.2-2.7
			c-0.8-0.7-1.7-1.1-2.9-1.1c-1.8,0-2.9,0.8-3.4,2.3c-0.3,0.8-0.4,2.3-0.4,4.6h-10v-5.7c2.1-5.3,5-7.9,8.7-7.9h10.2
			c1.9,0,3.9,0.9,5.9,2.8c2.1,1.8,3,3.8,3,5.7L285.1,366.8L285.1,366.8z"/>
		<path fill="#FFFFFF" d="M334.6,375.1h-9.5v-16.6c0-0.8-0.3-1.5-0.9-2.2c-0.6-0.6-1.3-0.9-2.2-0.9s-1.5,0.3-2.1,0.9
			s-0.9,1.3-0.9,2.1v6.4h-9.2v-6.4c0-0.9-0.3-1.6-0.9-2.2c-0.6-0.6-1.3-0.9-2.2-0.9c-0.7,0-1.4,0.3-2,1c-0.6,0.7-0.9,1.3-0.9,2.1
			v16.6h-9.7v-19.9c0-3,2.1-6,6.3-8.8c2.6-1.6,6.5-4.2,11.7-7.7c4.2-2.9,6.3-6,6.3-9.3h9.7v4.6c-1.1,2.5-3,4.7-5.7,6.6
			c-1.7,1.2-4.2,2.7-7.7,4.4c-3.4,1.7-5.7,2.9-6.6,3.5c1.7,0.2,2.8,0.5,3.3,0.7c0.7,0.3,1.6,1,2.8,2.2c2.1-1.7,3.8-2.5,5.1-2.5h6.6
			c1.9,0,3.8,0.9,5.7,2.8s2.8,3.8,2.8,5.7V375.1z"/>
		<path fill="#FFFFFF" d="M382.4,375.5h-9.7v-36.8c0-1.7-1-2.5-3-2.5s-3,0.8-3,2.5v14.4h-8.9v-14.4c0-1.7-1-2.5-3-2.5
			c-1.8,0-2.8,0.8-2.8,2.5v36.8h-9.7v-39.2c0-1.6,0.7-3.2,2.2-4.7c1.4-1.4,3-2.2,4.7-2.2h8.9c1,0,1.8,0.4,2.6,1.1
			c0.3,0.3,0.9,1,1.8,2.3c1.7-2.2,3.2-3.3,4.4-3.3h8.6c1.6,0,3.2,0.7,4.7,2.2c1.4,1.4,2.2,3,2.2,4.7L382.4,375.5L382.4,375.5z"/>
		<path fill="#FFFFFF" d="M417.7,366.3c0,2-0.9,4-2.8,5.9c-1.9,2-3.8,2.9-5.8,2.9h-10.7c-1.8,0-3.7-1-5.4-2.9
			c-1.8-2-2.7-3.9-2.7-5.7v-9.1h9.9v7.9c0,0.9,0.4,1.7,1.2,2.5c0.8,0.7,1.6,1.1,2.6,1.1s1.8-0.4,2.6-1.1c0.8-0.7,1.2-1.5,1.2-2.5
			v-6.1c0-1.8-1.3-2.9-3.9-3.3v-6.5c1.5-0.3,2.5-0.8,3-1.4s0.8-1.7,0.8-3.1c0-2-0.8-3.3-2.4-4.1c-1.2-0.4-2.9-1-5.2-1.8
			c-2.2-0.9-3.8-2.4-4.9-4.5v-5.1h9.6c0,2.9,1.1,4.8,3.3,5.7c0.2,0.1,2.2,0.8,6.1,2.2c2.2,1.3,3.3,3.6,3.3,7.2
			c0,2.3-0.4,3.9-1.2,4.9c-0.5,0.7-1.9,1.7-4.2,3.2c3.5,2,5.3,4.1,5.3,6.1L417.7,366.3L417.7,366.3z"/>
		<path fill="#FFFFFF" d="M465.6,375.5H456v-36.8c0-1.7-1-2.5-3-2.5s-3,0.8-3,2.5v14.4H441v-14.4c0-1.7-1-2.5-3-2.5
			c-1.8,0-2.8,0.8-2.8,2.5v36.8h-9.7v-39.2c0-1.6,0.7-3.2,2.2-4.7c1.4-1.4,3-2.2,4.7-2.2h8.9c1,0,1.8,0.4,2.6,1.1
			c0.3,0.3,0.9,1,1.8,2.3c1.7-2.2,3.2-3.3,4.4-3.3h8.6c1.6,0,3.2,0.7,4.7,2.2c1.4,1.4,2.2,3,2.2,4.7L465.6,375.5L465.6,375.5z"/>
		<path fill="#FFFFFF" d="M515,375.1h-9.5v-16.6c0-0.8-0.3-1.5-0.9-2.2c-0.6-0.6-1.3-0.9-2.2-0.9c-0.8,0-1.5,0.3-2.1,0.9
			c-0.6,0.6-0.9,1.3-0.9,2.1v6.4h-9.2v-6.4c0-0.9-0.3-1.6-0.9-2.2c-0.6-0.6-1.3-0.9-2.2-0.9c-0.7,0-1.4,0.3-2,1
			c-0.6,0.7-0.9,1.3-0.9,2.1v16.6h-9.7v-19.9c0-3,2.1-6,6.3-8.8c2.6-1.6,6.5-4.2,11.7-7.7c4.2-2.9,6.3-6,6.3-9.3h9.7v4.6
			c-1.1,2.5-3,4.7-5.7,6.6c-1.7,1.2-4.2,2.7-7.7,4.4c-3.4,1.7-5.7,2.9-6.6,3.5c1.7,0.2,2.8,0.5,3.3,0.7c0.7,0.3,1.6,1,2.8,2.2
			c2.1-1.7,3.8-2.5,5.1-2.5h6.6c1.9,0,3.8,0.9,5.7,2.8s2.8,3.8,2.8,5.7C515,357.2,515,375.1,515,375.1z"/>
		<path fill="#FFFFFF" d="M556.8,364.4c0,2.6-1.1,5.1-3.2,7.6c-2.2,2.6-4.6,3.9-7.1,3.9h-13.7c-2.5,0-4.9-1.3-7.1-3.9
			c-2.2-2.5-3.2-5-3.2-7.6v-15.3h10.1v13.7c0,2,0.8,3.4,2.3,4.5c1.3,1,3,1.4,5,1.4c2,0,3.6-0.5,4.9-1.5c1.4-1.1,2.1-2.6,2.1-4.5
			v-11.4c0-1.2-0.9-2.4-2.7-3.4c-0.3,0.9-0.5,2-0.5,3.1c0,0.7,0.1,1.8,0.2,3.2s0.2,2.5,0.2,3.2h-8.8v-8c0-0.8,0.7-2,2-3.6
			c-1.7-0.7-3.4-1.3-5.1-2c-1.4-0.9-2.1-2.1-2.1-3.4v-5.4c0-1.5,0.7-2.9,2-4.1c1.3-1.2,2.7-1.8,4.2-1.8h7c4.2,0,6.2,2.8,6.2,8.5
			c0,2.1-0.1,3.3-0.4,3.8c-0.6,0.7-1.3,1.5-2.2,2.5c2.3,0.9,3.8,1.4,4.3,1.7c1.5,0.7,2.8,1.5,3.8,2.5c1.3,1.2,1.9,2.8,1.9,4.9V364.4
			z M541.9,338.6c0-0.7-0.2-1.3-0.7-1.8c-0.5-0.6-1-0.8-1.7-0.8s-1.2,0.3-1.7,0.8c-0.5,0.5-0.7,1.1-0.7,1.8s0.2,1.3,0.7,1.8
			c0.5,0.6,1,0.8,1.7,0.8s1.2-0.3,1.7-0.8C541.6,339.9,541.9,339.3,541.9,338.6z"/>
		<path fill="#FFFFFF" d="M593,375.5H583v-35.4c0-1.1-0.4-2-1.2-2.7c-0.8-0.7-1.7-1.1-2.9-1.1c-0.9,0-1.8,0.4-2.6,1.2
			c-0.8,0.8-1.2,1.6-1.2,2.6v35.4h-9.9v-36.9c0-1.9,0.9-3.8,2.8-5.8c1.9-2,3.8-2.9,5.6-2.9h10.9c2,0,3.9,1,5.7,2.9s2.7,3.9,2.7,5.8
			V375.5z"/>
	</g>
	<g>
		<path fill="#FFFFFF" d="M681.2,364.9c0,2.4-1,4.4-3,6c-1.9,1.6-4.1,2.4-6.5,2.4h-8.4c-2.6,0-4.9-0.8-6.9-2.5
			c-2.1-1.7-3.1-3.9-3.1-6.5v-6.4h10c0,0.3,0,0.6,0,1.1c0,0.5-0.1,0.8-0.1,1.1c0,2.2,0.2,3.6,0.5,4.5c0.6,1.4,1.7,2.1,3.6,2.1
			c0.9,0,1.8-0.4,2.6-1.1c0.8-0.7,1.2-1.5,1.2-2.5v-5.6c0-2-1.4-3.2-4.1-3.8v-6.9c2.7,0,4.1-1.2,4.1-3.5v-5.9c0-1-0.4-1.8-1.3-2.5
			c-0.9-0.7-1.8-1-2.8-1c-1.8,0-2.9,0.8-3.4,2.5c-0.2,0.8-0.4,2.4-0.4,4.8h-10v-5.6c0.2-0.5,0.4-1.3,0.7-2.3c0.6-1.6,1.6-3,3-4.3
			c1.3-1.2,3.1-1.8,5.3-1.8h10c2.8,0,5.2,1.1,7.2,3.4c1.1,1.3,1.7,3,1.7,5.2v8.2c0,1.2-0.5,2.2-1.5,3c-0.3,0.3-1.3,0.9-3.1,1.8
			c2,1.1,3.1,1.7,3.2,1.8c0.9,0.8,1.4,1.8,1.4,3.2L681.2,364.9L681.2,364.9z"/>
	</g>
	<path fill="#FFFFFF" d="M206,352.6c0-0.8-0.3-1.4-0.9-2c-0.6-0.5-1.3-0.8-2-0.8h-17.3l-15.2-24.3h-6l7.9,24.3l-13,0l-5.3-5.4h-4.1
		l2.5,8.3l-2.5,8.2h4.1l5.3-5.3h13l-7.9,24.2h6l15.2-24.3h17.3c0.8,0,1.5-0.3,2-0.9c0.6-0.6,0.9-1.3,0.9-2L206,352.6z"/>
</g>
</svg>
