<?xml version="1.0" encoding="utf-8"?>
<!-- Generator: Adobe Illustrator 18.0.0, SVG Export Plug-In . SVG Version: 6.00 Build 0)  -->
<!DOCTYPE svg PUBLIC "-//W3C//DTD SVG 1.1//EN" "http://www.w3.org/Graphics/SVG/1.1/DTD/svg11.dtd">
<svg version="1.1"
	 id="svg2" inkscape:version="0.48.4 r9939" sodipodi:docname="6.2014_02_16_18_28_07.2.svg" xmlns:sodipodi="http://sodipodi.sourceforge.net/DTD/sodipodi-0.dtd" xmlns:dc="http://purl.org/dc/elements/1.1/" xmlns:cc="http://creativecommons.org/ns#" xmlns:inkscape="http://www.inkscape.org/namespaces/inkscape" xmlns:svg="http://www.w3.org/2000/svg" xmlns:rdf="http://www.w3.org/1999/02/22-rdf-syntax-ns#"
	 xmlns="http://www.w3.org/2000/svg" xmlns:xlink="http://www.w3.org/1999/xlink" x="0px" y="0px" viewBox="-99 238.7 1067.7 421.9"
	 enable-background="new -99 238.7 1067.7 421.9" xml:space="preserve">
<g>
	<g>
		<path id="rect3844-6" fill="#FFFFFF" stroke="#000000" stroke-width="2" d="M-76.1,239.7h463.9c11.5,0,20.8,9.3,20.8,20.8v246.4
			c0,11.5-9.3,20.8-20.8,20.8H-76.1c-11.5,0-20.8-9.3-20.8-20.8V260.5C-96.9,249-87.6,239.7-76.1,239.7z"/>
		<path id="rect9536" fill="#0D69E1" d="M387.9,248.6c6.5,0,11.8,5.3,11.8,11.8v131.4c0,6.5-5.3,11.8-11.8,11.8H-76.1
			c-6.5,0-11.8-5.3-11.8-11.8V260.5c0-6.6,5.3-11.8,11.8-11.8H387.9z"/>
	</g>
	<g>
		<path fill="#FFFFFF" d="M31.4,298.8c0,1.1-0.8,2.3-2.3,3.5c-1.5,1.2-2.8,1.8-4,1.8h-9c-1.5,0-2.9-0.7-4.3-2.2s-2.1-3-2.1-4.4
			v-29.7h7.8v28.6c0,1.8,1.1,2.6,3.3,2.6c0.8,0,1.5-0.2,2.1-0.7c0.6-0.5,0.9-1.1,0.9-1.9v-13.1h7.6L31.4,298.8L31.4,298.8z"/>
		<path fill="#FFFFFF" d="M59.4,297.5c0,1.6-0.9,3.1-2.5,4.5c-1.6,1.4-3.3,2.1-4.9,2.1h-7.3c-1.5,0-3-0.7-4.5-2.2
			c-1.5-1.4-2.2-2.9-2.2-4.4v-8.3h7.5v6.9c0,0.7,0.4,1.3,1.1,1.8c0.7,0.5,1.4,0.7,2.1,0.7c0.7,0,1.3-0.3,2-0.8c0.7-0.6,1-1.1,1-1.8
			v-12.9c0-0.9-0.5-1.8-1.6-2.7c-0.7-0.6-1.8-1.6-3.3-2.8c-1.5-1.3-2.6-2.8-3.5-4.7v-4.8h7.5c0,2,0.5,3.8,1.6,5.1
			c0.5,0.6,1.9,1.8,4.1,3.6c2,1.6,2.9,2.9,2.9,4L59.4,297.5L59.4,297.5z"/>
		<path fill="#FFFFFF" d="M88.4,297.9c0,1.5-0.8,3-2.3,4.5c-1.5,1.5-3,2.2-4.6,2.2h-9c-1.5,0-3-0.7-4.6-2.2
			c-1.6-1.5-2.3-2.9-2.3-4.4v-7.4c0-1.5,0.8-3,2.3-4.4c1.5-1.5,3.1-2.2,4.6-2.2h7.9v-7.2c0-0.9-0.4-1.8-1.2-2.4
			c-0.7-0.6-1.6-0.9-2.6-0.9c-2.4,0-3.6,1.6-3.6,4.6v0.5c0,0.2,0,0.3,0,0.4h-7.6v-4.7c1.7-4.2,3.9-6.1,6.6-6.1H82
			c1.5,0,2.9,0.7,4.3,2.1c1.4,1.4,2.1,2.9,2.1,4.3L88.4,297.9L88.4,297.9z M80.5,296.5v-4.9c0-0.8-0.4-1.5-1.1-2
			c-0.7-0.4-1.4-0.7-2.3-0.7c-0.9,0-1.6,0.2-2.2,0.7c-0.8,0.5-1.1,1.2-1.1,2v4.9c0,0.8,0.4,1.4,1.1,1.9c0.7,0.5,1.3,0.7,2.2,0.7
			c0.9,0,1.7-0.2,2.4-0.6C80.1,298,80.5,297.3,80.5,296.5z"/>
		<path fill="#FFFFFF" d="M121.1,295.5c0,2-0.9,4.1-2.5,5.9c-1.8,2-3.7,3.1-5.7,3.1h-10.8c-2,0-3.9-1-5.7-3.1c-1.7-2-2.6-4-2.6-5.9
			v-12h7.9v10.8c0,1.6,0.6,2.7,1.8,3.6c1.1,0.8,2.4,1.1,4,1.1c1.6,0,2.9-0.4,3.9-1.2c1.1-0.9,1.7-2.1,1.7-3.6v-9
			c0-1-0.7-1.9-2.2-2.7c-0.2,0.7-0.4,1.6-0.4,2.5c0,0.6,0,1.4,0.1,2.6c0.1,1.1,0.1,2,0.1,2.6h-6.9v-6.3c0-0.7,0.5-1.6,1.6-2.9
			c-1.3-0.5-2.7-1.1-4-1.6c-1.1-0.7-1.6-1.7-1.6-2.7v-4.3c0-1.2,0.5-2.3,1.6-3.3c1.1-1,2.2-1.5,3.3-1.5h5.6c3.3,0,4.9,2.2,4.9,6.7
			c0,1.6-0.1,2.6-0.3,3c-0.5,0.5-1.1,1.2-1.7,2c1.8,0.7,3,1.1,3.4,1.3c1.2,0.6,2.2,1.2,3,2c1,1,1.5,2.2,1.5,3.9L121.1,295.5
			L121.1,295.5z M109.4,275.1c0-0.6-0.2-1.1-0.5-1.5c-0.4-0.4-0.8-0.7-1.3-0.7c-0.5,0-1,0.2-1.3,0.7c-0.4,0.4-0.6,0.9-0.6,1.4
			c0,0.5,0.2,1,0.5,1.5c0.4,0.4,0.8,0.7,1.3,0.7c0.5,0,1-0.2,1.3-0.6C109.2,276.2,109.4,275.6,109.4,275.1z"/>
		<path fill="#FFFFFF" d="M159.4,303.9H152v-13.2c0-0.7-0.2-1.2-0.7-1.7c-0.5-0.5-1.1-0.7-1.7-0.7c-0.7,0-1.2,0.2-1.7,0.7
			s-0.7,1.1-0.7,1.7v5.1H140v-5.1c0-0.7-0.2-1.3-0.7-1.7c-0.5-0.4-1.1-0.7-1.7-0.7c-0.6,0-1.1,0.2-1.6,0.8c-0.4,0.5-0.7,1.1-0.7,1.6
			v13.1h-7.6v-15.7c0-2.4,1.7-4.7,5-6.9c2.1-1.3,5.2-3.3,9.2-6c3.3-2.3,5-4.8,5-7.3h7.6v3.6c-0.9,2-2.4,3.7-4.5,5.3
			c-1.3,1-3.3,2.2-6,3.5c-2.7,1.3-4.5,2.3-5.2,2.8c1.3,0.2,2.2,0.4,2.7,0.5c0.6,0.2,1.3,0.8,2.2,1.7c1.7-1.3,3-2,4.1-2h5.3
			c1.5,0,3,0.7,4.5,2.2c1.5,1.5,2.2,3,2.2,4.5v14.2H159.4z"/>
		<path fill="#FFFFFF" d="M187.7,297.3c0,1.4-0.8,2.9-2.4,4.4c-1.6,1.5-3.1,2.3-4.5,2.3h-8.7c-1.4,0-2.8-0.7-4.3-2.1
			c-1.5-1.4-2.2-2.8-2.2-4.2V289h7.8v6.6c0,0.9,0.3,1.6,0.9,2.2c0.7,0.6,1.4,0.9,2.3,0.9c0.7,0,1.4-0.3,2.1-1c0.7-0.7,1-1.3,1-2.1
			v-19.7c0-0.9-0.3-1.6-1-2.2s-1.4-0.9-2.3-0.9c-1.4,0-2.3,0.6-2.7,1.8c-0.2,0.6-0.3,1.8-0.3,3.7h-7.8v-4.5c1.6-4.2,4-6.2,6.8-6.2h8
			c1.5,0,3.1,0.7,4.7,2.2c1.6,1.5,2.4,3,2.4,4.5L187.7,297.3L187.7,297.3z"/>
		<path fill="#FFFFFF" d="M224.8,280.3c0,1.6-0.8,3.1-2.4,4.6c-1.6,1.5-3.1,2.2-4.7,2.2h-5.6c-1.5,0-3.1-0.8-4.7-2.3
			c-1.6-1.5-2.4-3-2.4-4.6V275c0-1.1-0.7-1.6-2-1.6c-1.2,0-1.8,0.5-1.8,1.6v7.2c0,2.8,1.3,5,3.9,6.6c1.6,1,4.1,2,7.6,2.9
			c2.9,0.8,4.7,1.3,5.5,1.8c1.8,0.9,3.1,2.2,3.8,4c0.5,1.5,0.9,2.4,1,2.8v4h-7.9c0-4.3-2.4-6.9-7.2-7.9c-2.1-0.4-4.6-0.7-7.2-0.7
			c-2.4,0-4,0.1-4.8,0.4h-1.4v-5.6h3.4c-0.9-1.1-1.8-2.3-2.7-3.4c-0.8-1.3-1.2-2.4-1.2-3.2v-9.8c0-1.4,0.7-2.7,2.1-4
			c1.4-1.3,2.8-2,4.2-2h5.2c0.8,0,1.6,0.4,2.2,1.1c0.6,0.8,0.9,1.2,1.1,1.3c1.5-1.6,2.9-2.4,4.3-2.4h5.5c1.5,0,2.9,0.7,4.3,2.1
			c1.4,1.4,2.1,2.9,2.1,4.3L224.8,280.3L224.8,280.3z M216.9,277.6c0-1.4-0.1-2.3-0.2-2.7c-0.3-0.9-0.9-1.3-2-1.3
			c-1,0-1.7,0.4-2,1.2c-0.2,0.4-0.2,1.3-0.2,2.6v0.7c0,1.1,0.1,1.8,0.3,2.3c0.3,0.7,0.9,1,1.9,1c1,0,1.6-0.4,2-1.3
			C216.9,279.7,216.9,278.9,216.9,277.6z"/>
		<path fill="#FFFFFF" d="M253.1,304.2h-7.8v-27.9c0-0.9-0.3-1.6-1-2.2s-1.4-0.9-2.3-0.9c-0.7,0-1.4,0.3-2.1,0.9
			c-0.7,0.7-1,1.3-1,2.1v27.9h-7.8v-29c0-1.5,0.7-3,2.2-4.6c1.5-1.6,3-2.3,4.4-2.3h8.6c1.6,0,3.1,0.8,4.5,2.3
			c1.4,1.5,2.2,3.1,2.2,4.6v29.1H253.1z"/>
		<path fill="#FFFFFF" d="M280.9,297.5c0,1.6-0.9,3.1-2.5,4.5c-1.6,1.4-3.3,2.1-4.9,2.1h-7.2c-1.5,0-3-0.7-4.5-2.2
			c-1.5-1.4-2.2-2.9-2.2-4.4v-8.3h7.5v6.9c0,0.7,0.4,1.3,1.1,1.8c0.7,0.5,1.4,0.7,2.1,0.7c0.7,0,1.3-0.3,2-0.8c0.7-0.6,1-1.1,1-1.8
			v-12.9c0-0.9-0.5-1.8-1.6-2.7c-0.7-0.6-1.8-1.6-3.3-2.8c-1.5-1.3-2.6-2.8-3.5-4.7v-4.8h7.5c0,2,0.5,3.8,1.6,5.1
			c0.5,0.6,1.9,1.8,4.1,3.6c2,1.6,2.9,2.9,2.9,4L280.9,297.5L280.9,297.5z"/>
	</g>
	<polygon fill="#FFFFFF" points="-32.8,287.4 -48.1,260.9 -63.4,287.4 -53.7,287.4 -53.7,308.4 -42.4,308.4 -42.4,287.4 	"/>
	<line fill="none" stroke="#FFFFFF" stroke-width="4.9751" stroke-miterlimit="10" x1="-88.6" y1="328.2" x2="401.5" y2="328.2"/>
	<polygon fill="#FFFFFF" points="358,352.7 384.4,367.9 358,383.2 358,373.7 336.9,373.7 336.9,362.3 358,362.3 	"/>
	<polygon points="368.1,473.8 394.6,458.5 368.1,443.3 368.1,452.9 334.9,452.9 334.9,464.2 368.1,464.2 	"/>
	<g>
		<path fill="#FFFFFF" d="M349.8,304.5h-7.7v-25.1c-0.9,0.1-2.1,0.6-3.8,1.7h-0.6v-6.3c3-1.2,5.1-3.5,6.3-6.9h5.9V304.5z"/>
		<path fill="#FFFFFF" d="M377.4,297.8c0,1.6-0.7,3.1-2.2,4.5s-3,2-4.7,2h-8.1c-1.6,0-3.1-0.7-4.6-2.1s-2.3-2.9-2.3-4.4v-23.3
			c0-1.5,0.8-3,2.3-4.4c1.5-1.4,3.1-2.1,4.6-2.1h8.1c1.6,0,3.1,0.7,4.6,2c1.5,1.4,2.3,2.9,2.3,4.5V297.8z M369.5,295.8v-19.3
			c0-0.8-0.3-1.4-0.9-2c-0.6-0.6-1.3-0.9-2.1-0.9c-0.8,0-1.4,0.3-2.1,0.9c-0.6,0.6-1,1.2-1,2v19.3c0,0.8,0.3,1.4,0.9,2
			c0.6,0.6,1.3,0.9,2.1,0.9c0.8,0,1.4-0.3,2.1-0.9C369.2,297.2,369.5,296.5,369.5,295.8z"/>
	</g>
	<g>
		<path fill="#FFFFFF" d="M32,377.1c0,1.4-0.7,2.8-2.2,4.2s-2.9,2.1-4.3,2.1h-8.8c-1.4,0-2.9-0.7-4.3-2.1s-2.2-2.8-2.2-4.2V347h7.7
			v15.7h2c0.4-0.4,1.1-1,2.2-1.8c1.2-1,1.9-1.4,2.1-1.4H32v0.2l-4.3,2.9l-0.2,0.4c1.2,0.2,2.2,0.8,3.1,1.9c0.9,1.1,1.4,2.2,1.4,3.4
			V377.1z M24.1,375.7v-5.1c0-0.7-0.3-1.3-0.9-1.8s-1.3-0.7-2-0.7c-0.8,0-1.5,0.2-2,0.6c-0.7,0.5-1,1.1-1,1.8v5.1
			c0,0.7,0.3,1.3,0.9,1.8c0.6,0.4,1.2,0.6,2,0.6c0.8,0,1.5-0.2,2.1-0.6C23.7,377.1,24.1,376.5,24.1,375.7z"/>
		<path fill="#FFFFFF" d="M69.5,383.4h-7.6v-28.8c0-1.3-0.8-2-2.4-2s-2.4,0.7-2.4,2v11.3h-7v-11.3c0-1.3-0.8-2-2.4-2
			c-1.5,0-2.2,0.7-2.2,2v28.8h-7.6v-30.6c0-1.3,0.6-2.5,1.7-3.6c1.1-1.1,2.3-1.7,3.6-1.7h7c0.8,0,1.4,0.3,2,0.8
			c0.2,0.2,0.7,0.8,1.4,1.8c1.3-1.7,2.5-2.6,3.5-2.6h6.8c1.3,0,2.5,0.6,3.6,1.7c1.1,1.1,1.7,2.4,1.7,3.6V383.4z"/>
		<path fill="#FFFFFF" d="M97.4,376.7c0,1.5-0.8,3.1-2.3,4.6c-1.6,1.6-3.1,2.3-4.6,2.3h-7.7c-1.6,0-3.1-0.8-4.6-2.4
			c-1.4-1.6-2.2-3.2-2.2-4.8v-22.4c0-1.9,0.9-3.5,2.6-4.8c1.6-1.2,3.4-1.8,5.3-1.8c0.8,0,2.1,0.2,3.8,0.5s3,0.5,4,0.5
			c1.8,0,3.4-0.3,4.7-0.8h0.4v7.1h-4.4c-3.6-0.9-5.7-1.4-6.5-1.4c-0.6,0-1.2,0.2-1.7,0.6s-0.7,0.9-0.7,1.5v7.2h8.3
			c1.3,0,2.6,0.6,3.8,1.8c1.2,1.2,1.8,2.4,1.8,3.8V376.7z M89.5,375.9v-5.4c0-0.7-0.3-1.3-0.9-1.7c-0.6-0.4-1.2-0.7-1.9-0.7
			c-0.7,0-1.3,0.2-1.9,0.6c-0.6,0.5-0.9,1.1-0.9,1.8v5.4c0,0.7,0.3,1.3,0.8,1.7s1.2,0.6,1.9,0.6c0.7,0,1.3-0.2,1.9-0.7
			C89.2,377.2,89.5,376.6,89.5,375.9z"/>
		<path fill="#FFFFFF" d="M125.9,383.4h-7.8v-27.7c0-0.8-0.3-1.6-1-2.1c-0.6-0.6-1.4-0.9-2.3-0.9c-0.7,0-1.4,0.3-2.1,0.9
			c-0.6,0.6-1,1.3-1,2v27.7h-7.8v-28.9c0-1.5,0.7-3,2.2-4.5c1.5-1.5,2.9-2.3,4.4-2.3h8.6c1.5,0,3,0.7,4.4,2.2c1.4,1.5,2.1,3,2.1,4.5
			V383.4z"/>
	</g>
	<g>
		<path fill="#FFFFFF" d="M-49.8,360.7c0,2.8-2.1,6.4-6.5,10.7c-2.1,2.1-4.1,4.1-6.1,6.1h12v5.6h-21v-4.8c0-0.4,2-2.7,5.9-7
			c1.5-1.7,2.7-3.1,3.7-4.4c0.5-0.5,1.2-1.3,2.1-2.3c1.4-1.6,2.1-3.1,2.1-4.3v-5.6c0-1.9-1.1-2.8-3.2-2.8c-1.3,0-2.2,0.4-2.6,1.3
			c-0.3,0.6-0.4,1.6-0.4,3.2v1.3h-7.6v-4.4c0-1.4,0.8-2.8,2.3-4.3c1.5-1.4,3-2.1,4.4-2.1h8.4c1.5,0,2.9,0.7,4.3,2.2s2.1,2.9,2.1,4.4
			V360.7z"/>
		<path fill="#FFFFFF" d="M-22.4,360.7c0,2.8-2.1,6.4-6.5,10.7c-2.1,2.1-4.1,4.1-6.1,6.1h12v5.6h-21v-4.8c0-0.4,2-2.7,5.9-7
			c1.5-1.7,2.7-3.1,3.7-4.4c0.5-0.5,1.2-1.3,2.1-2.3c1.4-1.6,2.1-3.1,2.1-4.3v-5.6c0-1.9-1.1-2.8-3.2-2.8c-1.3,0-2.2,0.4-2.6,1.3
			c-0.3,0.6-0.4,1.6-0.4,3.2v1.3h-7.6v-4.4c0-1.4,0.8-2.8,2.3-4.3c1.5-1.4,3-2.1,4.4-2.1h8.4c1.5,0,2.9,0.7,4.3,2.2s2.1,2.9,2.1,4.4
			V360.7z"/>
	</g>
	<g>
		<path d="M-78,452.2c0,0.3-0.2,0.6-0.6,1c-0.4,0.3-0.8,0.5-1.1,0.5h-2.6c-0.4,0-0.8-0.2-1.2-0.6c-0.4-0.4-0.6-0.8-0.6-1.2v-8.4h2.2
			v8.1c0,0.5,0.3,0.7,0.9,0.7c0.2,0,0.4-0.1,0.6-0.2s0.3-0.3,0.3-0.5v-3.7h2.2V452.2z"/>
		<path d="M-70.1,451.8c0,0.4-0.2,0.9-0.7,1.3c-0.5,0.4-0.9,0.6-1.4,0.6h-2.1c-0.4,0-0.8-0.2-1.3-0.6c-0.4-0.4-0.6-0.8-0.6-1.2v-2.4
			h2.1v2c0,0.2,0.1,0.4,0.3,0.5c0.2,0.1,0.4,0.2,0.6,0.2c0.2,0,0.4-0.1,0.6-0.2c0.2-0.2,0.3-0.3,0.3-0.5v-3.7c0-0.3-0.2-0.5-0.5-0.8
			c-0.2-0.2-0.5-0.4-0.9-0.8c-0.4-0.4-0.7-0.8-1-1.3v-1.3h2.1c0,0.6,0.1,1.1,0.4,1.4c0.1,0.2,0.5,0.5,1.1,1c0.5,0.4,0.8,0.8,0.8,1.1
			V451.8z"/>
		<path d="M-62,452.2c0,0.3-0.2,0.6-0.6,1c-0.4,0.3-0.8,0.5-1.1,0.5h-2.6c-0.4,0-0.8-0.2-1.2-0.6c-0.4-0.4-0.6-0.8-0.6-1.2v-8.4h2.2
			v8.1c0,0.5,0.3,0.7,0.9,0.7c0.2,0,0.4-0.1,0.6-0.2s0.3-0.3,0.3-0.5v-3.7h2.2V452.2z"/>
		<path d="M-52.5,451.2c0,0.6-0.2,1.1-0.7,1.7c-0.5,0.6-1,0.9-1.6,0.9h-3.1c-0.6,0-1.1-0.3-1.6-0.9c-0.5-0.6-0.7-1.1-0.7-1.7v-3.4
			h2.3v3.1c0,0.4,0.2,0.8,0.5,1c0.3,0.2,0.7,0.3,1.1,0.3c0.4,0,0.8-0.1,1.1-0.3c0.3-0.2,0.5-0.6,0.5-1v-2.5c0-0.3-0.2-0.5-0.6-0.8
			c-0.1,0.2-0.1,0.4-0.1,0.7c0,0.2,0,0.4,0,0.7s0,0.6,0,0.7h-2v-1.8c0-0.2,0.1-0.4,0.4-0.8c-0.4-0.1-0.8-0.3-1.1-0.4
			c-0.3-0.2-0.5-0.5-0.5-0.8v-1.2c0-0.3,0.1-0.6,0.4-0.9c0.3-0.3,0.6-0.4,0.9-0.4h1.6c0.9,0,1.4,0.6,1.4,1.9c0,0.5,0,0.7-0.1,0.8
			c-0.1,0.2-0.3,0.3-0.5,0.6c0.5,0.2,0.8,0.3,1,0.4c0.3,0.2,0.6,0.3,0.8,0.6c0.3,0.3,0.4,0.6,0.4,1.1V451.2z M-55.9,445.5
			c0-0.2,0-0.3-0.1-0.4c-0.1-0.1-0.2-0.2-0.4-0.2c-0.1,0-0.3,0.1-0.4,0.2c-0.1,0.1-0.2,0.3-0.2,0.4s0.1,0.3,0.2,0.4s0.2,0.2,0.4,0.2
			s0.3-0.1,0.4-0.2S-55.9,445.6-55.9,445.5z"/>
		<path d="M-43.5,452c0,0.4-0.3,0.7-0.8,1.1c-0.5,0.4-0.9,0.5-1.3,0.5h-2.6c-0.4,0-0.8-0.2-1.2-0.6c-0.4-0.4-0.6-0.8-0.6-1.3v-2.2
			h2.2v1.6c0,0.3,0.1,0.5,0.3,0.7c0.2,0.2,0.4,0.2,0.7,0.2c0.3,0,0.5-0.1,0.7-0.3c0.2-0.2,0.3-0.4,0.3-0.7v-5.7
			c0-0.1-0.1-0.3-0.2-0.4c-0.1-0.1-0.2-0.2-0.4-0.2c-0.1,0-0.2,0.1-0.4,0.2c-0.1,0.1-0.2,0.3-0.2,0.4v1.7h-2v-1.5
			c0-0.1-0.1-0.2-0.2-0.3c-0.1-0.1-0.3-0.2-0.4-0.2c0,0-0.3,0.1-0.7,0.3h-0.8v-2.1c0.3,0.1,0.5,0.2,0.7,0.2c0.1,0,0.3,0,0.6-0.1
			s0.5-0.1,0.7-0.1c0.3,0,0.5,0.1,0.7,0.2c0.1,0.1,0.3,0.2,0.6,0.5c0.1-0.1,0.2-0.2,0.4-0.4c0.2-0.2,0.4-0.3,0.6-0.3h1.6
			c0.4,0,0.7,0.2,1,0.5s0.5,0.7,0.5,1V452z"/>
		<path d="M-35.4,451.9c0,0.4-0.2,0.8-0.6,1.3s-0.9,0.6-1.3,0.6h-2.5c-0.4,0-0.9-0.2-1.3-0.6c-0.4-0.4-0.6-0.8-0.6-1.3v-2.1
			c0-0.4,0.2-0.8,0.6-1.3s0.9-0.6,1.3-0.6h2.3v-2c0-0.3-0.1-0.5-0.3-0.7c-0.2-0.2-0.5-0.2-0.7-0.2c-0.7,0-1,0.4-1,1.3v0.1
			c0,0,0,0.1,0,0.1h-2.2v-1.3c0.5-1.2,1.1-1.8,1.9-1.8h2.8c0.4,0,0.8,0.2,1.2,0.6c0.4,0.4,0.6,0.8,0.6,1.2V451.9z M-37.6,451.5v-1.4
			c0-0.2-0.1-0.4-0.3-0.6c-0.2-0.1-0.4-0.2-0.6-0.2c-0.2,0-0.4,0.1-0.6,0.2c-0.2,0.1-0.3,0.3-0.3,0.6v1.4c0,0.2,0.1,0.4,0.3,0.5
			c0.2,0.1,0.4,0.2,0.6,0.2c0.3,0,0.5-0.1,0.7-0.2C-37.7,451.9-37.6,451.8-37.6,451.5z"/>
		<path d="M-24.6,453.6h-2.1v-3.7c0-0.2-0.1-0.3-0.2-0.5c-0.1-0.1-0.3-0.2-0.5-0.2c-0.2,0-0.3,0.1-0.5,0.2s-0.2,0.3-0.2,0.5v1.4
			h-2.1v-1.4c0-0.2-0.1-0.4-0.2-0.5s-0.3-0.2-0.5-0.2c-0.2,0-0.3,0.1-0.4,0.2c-0.1,0.1-0.2,0.3-0.2,0.5v3.7h-2.2v-4.5
			c0-0.7,0.5-1.3,1.4-2c0.6-0.4,1.5-0.9,2.6-1.7c0.9-0.7,1.4-1.3,1.4-2.1h2.2v1c-0.3,0.6-0.7,1-1.3,1.5c-0.4,0.3-0.9,0.6-1.7,1
			c-0.8,0.4-1.3,0.6-1.5,0.8c0.4,0,0.6,0.1,0.7,0.2c0.2,0.1,0.4,0.2,0.6,0.5c0.5-0.4,0.8-0.6,1.1-0.6h1.5c0.4,0,0.8,0.2,1.3,0.6
			c0.4,0.4,0.6,0.8,0.6,1.3V453.6z"/>
		<path d="M-13.9,453.7h-2.2v-8.2c0-0.4-0.2-0.6-0.7-0.6s-0.7,0.2-0.7,0.6v3.2h-2v-3.2c0-0.4-0.2-0.6-0.7-0.6
			c-0.4,0-0.6,0.2-0.6,0.6v8.2h-2.2V445c0-0.4,0.2-0.7,0.5-1c0.3-0.3,0.7-0.5,1-0.5h2c0.2,0,0.4,0.1,0.6,0.2
			c0.1,0.1,0.2,0.2,0.4,0.5c0.4-0.5,0.7-0.7,1-0.7h1.9c0.4,0,0.7,0.2,1,0.5c0.3,0.3,0.5,0.7,0.5,1V453.7z"/>
		<path d="M0.1,452.1c0,1.3-0.4,2.3-1.2,3.1l-2.1,2.1h-3.5c0.4-0.5,1-1,1.6-1.6l1.5-1.5c-0.8-0.2-1.5-0.4-2.3-0.5
			c-0.5-0.3-0.8-1-0.8-2.1c0-1.6,1.2-2.4,3.5-2.4c1.1,0,2,0.2,2.5,0.6C-0.2,450.2,0.1,451,0.1,452.1z M9.2,452.1
			c0,1.3-0.4,2.3-1.2,3.1l-2.1,2.1H2.5v-0.2l3.1-2.9l-0.2-0.2c-1,0-1.7-0.1-2.1-0.4c-0.5-0.3-0.8-0.9-0.8-1.9c0-1.7,1.2-2.6,3.6-2.6
			C8.2,449.1,9.2,450.1,9.2,452.1z"/>
		<path d="M34.6,448.1c0,1.3-0.7,2.6-2.1,3.8c-1.4,1.2-2.7,1.8-4.1,1.8h-7.6c-1.3,0-2.7-0.6-4.1-1.9c-1.4-1.2-2.1-2.5-2.1-3.8V422
			h6.7v24.7c0,0.8,0.3,1.4,1,1.9c0.6,0.4,1.3,0.6,2.2,0.6c0.8,0,1.6-0.2,2.2-0.6c0.7-0.4,1-1.1,1-1.9v-5.8c0-0.9-0.3-1.6-0.9-2.1
			c-0.6-0.5-1.4-0.8-2.3-0.8v-4.2c2.2,0,3.3-1,3.2-3.1c0-0.1,0-0.3,0-0.6c0-1.1-0.4-2.2-1.2-3.1c-1.1-1.3-1.8-2.2-2-2.7v-2.1h6.9
			c0,1.2,0.5,2.5,1.6,3.7c1.1,1.3,1.6,2.2,1.6,2.8v4.1c0,0.8-0.3,1.4-1,2c0,0-0.5,0.4-1.5,1.2c1.6,0.4,2.5,1.3,2.5,2.6V448.1z"/>
		<path d="M59.6,453.8h-6.8v-24.3c0-0.7-0.3-1.4-0.8-1.9s-1.2-0.7-2-0.7c-0.6,0-1.2,0.3-1.8,0.8s-0.8,1.1-0.8,1.8v24.3h-6.8v-25.3
			c0-1.3,0.6-2.6,1.9-3.9c1.3-1.3,2.6-2,3.8-2h7.5c1.3,0,2.6,0.7,3.9,2c1.3,1.3,1.9,2.6,1.9,4V453.8z"/>
		<path d="M84.5,449.1c0,1-0.7,2-2,3c-1.3,1-2.4,1.5-3.4,1.5h-7.9c-1.3,0-2.5-0.6-3.7-1.9c-1.2-1.3-1.8-2.6-1.8-3.8v-25.7h6.8V447
			c0,1.5,0.9,2.3,2.8,2.3c0.7,0,1.3-0.2,1.8-0.6s0.8-1,0.8-1.6v-11.4h6.7V449.1z"/>
		<path d="M109.1,448c0,1.3-0.6,2.6-1.9,3.8c-1.3,1.3-2.5,1.9-3.8,1.9h-7.1c-1.3,0-2.5-0.6-3.8-1.9s-1.9-2.5-1.9-3.8v-6.6h6.6v5.5
			c0,0.7,0.3,1.3,0.9,1.7c0.6,0.5,1.2,0.7,1.9,0.7c0.6,0,1.2-0.2,1.8-0.7s0.8-1.1,0.8-1.7V439c0-1.2-0.9-2.2-2.8-2.8v-4.3
			c1.9,0,2.8-0.7,2.8-2.1v-7.4h6.6v7.3c0,1.1-0.3,1.9-1,2.6c-0.4,0.4-1.2,0.9-2.4,1.6c2.3,0.9,3.5,2.2,3.5,3.8V448z"/>
		<path d="M133,448c0,1.4-0.7,2.7-2.2,3.9c-1.4,1.2-2.8,1.8-4.2,1.8h-6.4c-1.3,0-2.6-0.6-3.9-1.9c-1.3-1.2-2-2.5-2-3.8v-7.2h6.6v6
			c0,0.6,0.3,1.1,0.9,1.6c0.6,0.4,1.2,0.7,1.8,0.7c0.6,0,1.1-0.2,1.7-0.7c0.6-0.5,0.9-1,0.9-1.5v-11.3c0-0.8-0.5-1.6-1.4-2.4
			c-0.6-0.5-1.6-1.3-2.9-2.4s-2.3-2.4-3-4v-4.1h6.5c0,1.8,0.4,3.2,1.3,4.4c0.4,0.5,1.6,1.6,3.5,3.1c1.7,1.3,2.5,2.5,2.5,3.4V448z"/>
		<path d="M166.7,453.5h-6.5v-11.4c0-0.6-0.2-1.1-0.6-1.5c-0.4-0.4-0.9-0.6-1.5-0.6c-0.5,0-1,0.2-1.4,0.6s-0.6,0.9-0.6,1.4v4.4h-6.3
			v-4.4c0-0.6-0.2-1.1-0.6-1.5c-0.4-0.4-0.9-0.6-1.5-0.6c-0.5,0-0.9,0.2-1.3,0.7c-0.4,0.4-0.6,0.9-0.6,1.4v11.4h-6.6v-13.7
			c0-2.1,1.4-4.1,4.3-6.1c1.8-1.1,4.5-2.9,8-5.2c2.9-2,4.3-4.1,4.3-6.4h6.6v3.1c-0.8,1.7-2.1,3.2-3.9,4.5c-1.1,0.9-2.9,1.9-5.2,3
			s-3.9,2-4.5,2.4c1.1,0.2,1.9,0.3,2.3,0.5c0.5,0.2,1.1,0.7,1.9,1.5c1.4-1.2,2.6-1.7,3.5-1.7h4.6c1.3,0,2.6,0.6,3.9,1.9
			s1.9,2.6,1.9,3.9V453.5z"/>
		<path d="M191.6,453.8h-6.8v-24.3c0-0.7-0.3-1.4-0.8-1.9c-0.6-0.5-1.2-0.7-2-0.7c-0.6,0-1.2,0.3-1.8,0.8c-0.6,0.5-0.8,1.1-0.8,1.8
			v24.3h-6.8v-25.3c0-1.3,0.6-2.6,1.9-3.9c1.3-1.3,2.6-2,3.8-2h7.5c1.3,0,2.6,0.7,3.9,2c1.3,1.3,1.9,2.6,1.9,4V453.8z"/>
		<path d="M203.8,428.1c0,1.7-1.2,2.6-3.6,2.6c-2.1,0-3.1-1-3.1-2.9c0-1.1,0.3-2.1,1-2.9c0.2-0.3,1-1,2.3-2.3h3.3l-2.9,3.1l2.1,0.5
			C203.4,426.4,203.8,427,203.8,428.1z M212.9,428.2c0,1.6-1.2,2.4-3.5,2.4c-1.1,0-2-0.2-2.5-0.6c-0.5-0.4-0.8-1.2-0.8-2.3
			c0-1,0.3-2,1-2.9c0-0.1,0.8-0.8,2.2-2.3h3.5v0.2l-3.1,2.9l2.1,0.5C212.6,426.4,212.9,427.1,212.9,428.2z"/>
	</g>
	<g>
		<path d="M-59.8,501.6v-10.1h2.1v3.8h3.9v-3.8h2.1v10.1h-2.1v-4.5h-3.9v4.5H-59.8z"/>
		<path d="M-41.6,500.7c-0.8,0.8-1.9,1.2-3.3,1.2s-2.5-0.4-3.3-1.2c-1-1-1.5-2.3-1.5-4.2c0-1.8,0.5-3.2,1.5-4.2
			c0.8-0.8,1.9-1.2,3.3-1.2s2.5,0.4,3.3,1.2c1,0.9,1.5,2.3,1.5,4.2C-40.1,498.3-40.6,499.7-41.6,500.7z M-42.9,499.1
			c0.5-0.6,0.7-1.5,0.7-2.6c0-1.1-0.2-2-0.7-2.6c-0.5-0.6-1.2-0.9-2-0.9s-1.5,0.3-2,0.9s-0.7,1.5-0.7,2.6s0.2,2,0.7,2.6
			s1.2,0.9,2,0.9S-43.4,499.7-42.9,499.1z"/>
		<path d="M-30.8,491.5v1.8h-3v8.3h-2.1v-8.3h-3v-1.8H-30.8z"/>
		<path d="M-21.8,493.3h-5.3v2.1h4.9v1.8h-4.9v2.6h5.6v1.8h-7.6v-10.1h7.4V493.3z"/>
		<path d="M-19.5,491.5h2.1v8.3h5v1.8h-7.1V491.5z"/>
		<path d="M0.2,500c0,1.3-0.4,2.3-1.2,3.1l-2.1,2h-3.5c0.4-0.5,1-1,1.6-1.6l1.5-1.5c-0.8-0.2-1.5-0.4-2.3-0.5
			c-0.5-0.3-0.8-1-0.8-2.1c0-1.6,1.2-2.4,3.5-2.4c1.1,0,2,0.2,2.5,0.6C-0.1,498.1,0.2,498.9,0.2,500z M9.3,500
			c0,1.3-0.4,2.3-1.2,3.1l-2.1,2.1H2.6V505l3.1-2.9l-0.2-0.2c-1,0-1.7-0.1-2.1-0.4c-0.5-0.3-0.8-0.9-0.8-1.9c0-1.7,1.2-2.6,3.6-2.6
			C8.3,497,9.3,498,9.3,500z"/>
		<path d="M33.7,471.4v5.3h-9v24.8h-6.3v-24.8H9.3v-5.3H33.7z"/>
		<path d="M43,492.2c0.2,1.4,0.6,2.4,1.1,3.1c1,1.2,2.8,1.9,5.4,1.9c1.5,0,2.8-0.2,3.7-0.5c1.8-0.6,2.7-1.8,2.7-3.5
			c0-1-0.4-1.8-1.3-2.3c-0.9-0.5-2.3-1-4.2-1.4l-3.3-0.7c-3.2-0.7-5.4-1.5-6.6-2.3c-2-1.4-3.1-3.6-3.1-6.5c0-2.7,1-4.9,3-6.7
			s4.9-2.7,8.8-2.7c3.2,0,6,0.8,8.2,2.5s3.5,4.1,3.6,7.3H55c-0.1-1.8-0.9-3.1-2.4-3.9c-1-0.5-2.3-0.8-3.8-0.8c-1.7,0-3,0.3-4,1
			s-1.5,1.6-1.5,2.7c0,1.1,0.5,1.9,1.5,2.4c0.6,0.4,2,0.8,4,1.2l5.3,1.2c2.3,0.5,4.1,1.3,5.2,2.2c1.8,1.4,2.7,3.5,2.7,6.2
			c0,2.8-1.1,5-3.2,6.9c-2.1,1.8-5.1,2.7-9,2.7c-4,0-7.1-0.9-9.4-2.7s-3.4-4.3-3.4-7.4H43z"/>
		<path d="M73.2,501.6H67v-30.2h6.3V501.6z"/>
		<path d="M84.7,492.2c0.2,1.4,0.6,2.4,1.1,3.1c1,1.2,2.8,1.9,5.4,1.9c1.5,0,2.8-0.2,3.7-0.5c1.8-0.6,2.7-1.8,2.7-3.5
			c0-1-0.4-1.8-1.3-2.3c-0.9-0.5-2.3-1-4.2-1.4l-3.3-0.7c-3.2-0.7-5.4-1.5-6.6-2.3c-2-1.4-3.1-3.6-3.1-6.5c0-2.7,1-4.9,3-6.7
			s4.9-2.7,8.8-2.7c3.2,0,6,0.8,8.2,2.5s3.5,4.1,3.6,7.3h-6.1c-0.1-1.8-0.9-3.1-2.4-3.9c-1-0.5-2.3-0.8-3.8-0.8c-1.7,0-3,0.3-4,1
			s-1.5,1.6-1.5,2.7c0,1.1,0.5,1.9,1.5,2.4c0.6,0.4,2,0.8,4,1.2l5.3,1.2c2.3,0.5,4.1,1.3,5.2,2.2c1.8,1.4,2.7,3.5,2.7,6.2
			c0,2.8-1.1,5-3.2,6.9c-2.1,1.8-5.1,2.7-9,2.7c-4,0-7.1-0.9-9.4-2.7s-3.4-4.3-3.4-7.4H84.7z"/>
		<path d="M109.3,471.4h6.2v12.4l11.7-12.4h8.1l-12.4,12.4l13,17.8h-8.1l-9.3-13.2l-3,3.1v10.1h-6.2V471.4z"/>
		<path d="M149.1,471.4h7.1l10.7,30.2h-6.8l-2-6.2H147l-2,6.2h-6.6L149.1,471.4z M148.7,490.2h7.7l-3.8-11.9L148.7,490.2z"/>
		<path d="M191.2,472.2c1.1,0.5,2.1,1.2,2.8,2.1c0.6,0.8,1.1,1.6,1.5,2.5s0.6,2,0.6,3.2c0,1.4-0.4,2.8-1.1,4.2
			c-0.7,1.4-1.9,2.4-3.6,2.9c1.4,0.6,2.4,1.4,3,2.4c0.6,1,0.9,2.6,0.9,4.7v2c0,1.4,0.1,2.3,0.2,2.8c0.2,0.8,0.6,1.4,1.2,1.7v0.8h-7
			c-0.2-0.7-0.3-1.2-0.4-1.6c-0.2-0.8-0.3-1.7-0.3-2.6l0-2.8c0-1.9-0.4-3.2-1-3.8s-1.8-1-3.6-1h-6.2v11.8H172v-30.2h14.4
			C188.5,471.4,190.1,471.7,191.2,472.2z M178.2,476.6v8.1h6.8c1.3,0,2.4-0.2,3-0.5c1.2-0.6,1.8-1.7,1.8-3.4c0-1.8-0.6-3.1-1.7-3.7
			c-0.6-0.4-1.6-0.5-2.9-0.5H178.2z"/>
		<path d="M208.9,501.6h-6.3v-30.2h6.3V501.6z"/>
		<path d="M219.8,476c0,1.7-1.2,2.6-3.6,2.6c-2.1,0-3.1-1-3.1-2.9c0-1.1,0.3-2.1,1-2.9c0.2-0.3,1-1,2.3-2.3h3.3l-2.9,3.1l2.1,0.5
			C219.4,474.3,219.8,474.9,219.8,476z M228.9,476.2c0,1.6-1.2,2.4-3.5,2.4c-1.1,0-2-0.2-2.5-0.6c-0.5-0.4-0.8-1.2-0.8-2.3
			c0-1,0.3-2,1-2.9c0-0.1,0.8-0.8,2.2-2.3h3.5v0.2l-3.1,2.9l2.1,0.5C228.6,474.3,228.9,475,228.9,476.2z"/>
	</g>
</g>
<g>
	<g>
		<path id="rect3844-6_1_" fill="#FFFFFF" stroke="#000000" stroke-width="2" d="M-78.9,554h468.5c10.5,0,19.1,8.5,19.1,19.1v67.4
			c0,10.5-8.5,19.1-19.1,19.1H-78.9c-10.5,0-19.1-8.5-19.1-19.1v-67.3C-98,562.6-89.5,554-78.9,554z"/>
		<path id="rect9536_1_" fill="#0D69E1" d="M389.7,562.3c6,0,10.8,4.9,10.8,10.8v67.4c0,6-4.9,10.8-10.8,10.8H-78.9
			c-6,0-10.8-4.9-10.8-10.8v-67.3c0-6.1,4.9-10.8,10.8-10.8L389.7,562.3L389.7,562.3z"/>
	</g>
	<polygon fill="#FFFFFF" points="361.9,593.5 388.4,608.8 361.9,624.1 361.9,614.5 340.9,614.5 340.9,603.1 361.9,603.1 	"/>
	<g>
		<path fill="#FFFFFF" d="M-34.6,617.8c0,1.4-0.8,2.8-2.3,4.2c-1.6,1.4-3,2-4.5,2h-11.2c-1.7,0-3.3-0.8-4.9-2.3
			c-1.6-1.5-2.4-3.1-2.4-4.7v-6.6h8v4.6c0,1.1,0.5,2.1,1.6,2.8c1,0.7,2,1,3.2,1c1.1,0,2.2-0.3,3.1-1c1-0.8,1.5-1.7,1.5-2.8v-6.6
			c0-1.3-0.8-2-2.4-2V602c1.6,0,2.4-0.5,2.4-1.6v-5.4c0-1.1-0.6-1.6-1.8-1.6c-0.4,0-0.8,0.2-1.1,0.5c-0.3,0.3-0.5,0.7-0.5,1.1v5.4
			c0,1.5-0.7,2.9-2,4.2c-1.3,1.3-2.7,2-4.2,2h-7c-1.5,0-2.9-0.7-4.4-2.1s-2.2-2.8-2.2-4.3v-6.4c0-1.5,0.8-2.8,2.3-4
			c1.5-1.1,3-1.7,4.5-1.7h5.6c1.6,0,2.9,0.7,3.8,2c0.4-0.5,0.9-1,1.6-1.4c0.7-0.4,1.4-0.6,2-0.6h6.4c1.2,0,2.3,0.5,3.3,1.4
			c1,0.9,1.5,2,1.5,3.2v7.2c0,1-0.4,1.8-1.2,2.4c-0.4,0.4-1.2,0.8-2.4,1.4c1.4,0.6,2.2,0.9,2.5,1.1c0.7,0.5,1.1,1.3,1.1,2.3V617.8z
			 M-53.4,599.5v-4c0-0.5-0.2-1-0.7-1.4c-0.5-0.4-1-0.6-1.5-0.6c-0.6,0-1.1,0.2-1.6,0.6s-0.7,0.9-0.7,1.4v4c0,0.5,0.2,0.9,0.7,1.4
			c0.5,0.4,1,0.6,1.5,0.6c0.6,0,1.1-0.2,1.6-0.6C-53.7,600.6-53.4,600.1-53.4,599.5z"/>
		<path fill="#FFFFFF" d="M-7.2,617.6c0,1.6-0.8,3-2.5,4.5c-1.6,1.4-3.2,2-4.8,2h-7.3c-1.5,0-3-0.7-4.5-2.1
			c-1.5-1.4-2.2-2.9-2.2-4.4v-8.2h7.5v6.9c0,0.7,0.4,1.3,1.1,1.8c0.7,0.5,1.4,0.7,2.1,0.7c0.6,0,1.3-0.3,2-0.8c0.7-0.5,1-1.1,1-1.8
			v-12.9c0-0.9-0.5-1.8-1.6-2.7c-0.7-0.6-1.8-1.5-3.3-2.8c-1.4-1.3-2.6-2.8-3.4-4.6v-4.7h7.5c0,2,0.5,3.7,1.5,5
			c0.5,0.6,1.8,1.8,4,3.5c1.9,1.5,2.9,2.8,2.9,3.9V617.6z"/>
		<path fill="#FFFFFF" d="M21.1,618.9c0,1.1-0.8,2.3-2.3,3.5c-1.4,1.2-2.7,1.7-3.9,1.7h-9c-1.4,0-2.9-0.7-4.3-2.2s-2.1-2.9-2.1-4.4
			v-29.4h7.8v28.4c0,1.7,1.1,2.6,3.2,2.6c0.8,0,1.5-0.2,2.1-0.7s0.9-1.1,0.9-1.9v-13h7.6V618.9z"/>
		<path fill="#FFFFFF" d="M48.8,617.6c0,1.6-0.8,3-2.5,4.5c-1.6,1.4-3.2,2-4.8,2h-7.3c-1.5,0-3-0.7-4.5-2.1
			c-1.5-1.4-2.2-2.9-2.2-4.4v-8.2h7.5v6.9c0,0.7,0.4,1.3,1.1,1.8c0.7,0.5,1.4,0.7,2.1,0.7c0.6,0,1.3-0.3,2-0.8c0.7-0.5,1-1.1,1-1.8
			v-12.9c0-0.9-0.5-1.8-1.6-2.7c-0.7-0.6-1.8-1.5-3.3-2.8c-1.4-1.3-2.6-2.8-3.4-4.6v-4.7h7.5c0,2,0.5,3.7,1.5,5
			c0.5,0.6,1.8,1.8,4,3.5c1.9,1.5,2.9,2.8,2.9,3.9V617.6z"/>
		<path fill="#FFFFFF" d="M76.7,617.6c0,1.5-0.8,3.1-2.3,4.6c-1.6,1.6-3.1,2.3-4.6,2.3H62c-1.6,0-3.1-0.8-4.6-2.4
			c-1.4-1.6-2.2-3.2-2.2-4.8v-22.4c0-1.9,0.9-3.5,2.6-4.8c1.6-1.2,3.4-1.8,5.3-1.8c0.8,0,2.1,0.2,3.8,0.5c1.7,0.3,3,0.5,4,0.5
			c1.8,0,3.4-0.3,4.7-0.8h0.4v7.1h-4.4c-3.6-0.9-5.7-1.4-6.5-1.4c-0.6,0-1.2,0.2-1.7,0.6c-0.5,0.4-0.7,0.9-0.7,1.5v7.2h8.3
			c1.3,0,2.6,0.6,3.8,1.8c1.2,1.2,1.8,2.4,1.8,3.8V617.6z M68.8,616.8v-5.4c0-0.7-0.3-1.3-0.9-1.7c-0.6-0.4-1.2-0.7-1.9-0.7
			c-0.7,0-1.3,0.2-1.9,0.6c-0.6,0.5-0.9,1.1-0.9,1.8v5.4c0,0.7,0.3,1.3,0.8,1.7s1.2,0.6,1.9,0.6c0.7,0,1.3-0.2,1.9-0.7
			C68.5,618,68.8,617.5,68.8,616.8z"/>
		<path fill="#FFFFFF" d="M103.9,617.6c0,1.6-0.8,3-2.5,4.5c-1.6,1.4-3.2,2-4.8,2h-7.3c-1.5,0-3-0.7-4.5-2.1
			c-1.5-1.4-2.2-2.9-2.2-4.4v-8.2h7.5v6.9c0,0.7,0.4,1.3,1.1,1.8c0.7,0.5,1.4,0.7,2.1,0.7c0.6,0,1.3-0.3,2-0.8c0.7-0.5,1-1.1,1-1.8
			v-12.9c0-0.9-0.5-1.8-1.6-2.7c-0.7-0.6-1.8-1.5-3.3-2.8c-1.4-1.3-2.6-2.8-3.4-4.6v-4.7h7.5c0,2,0.5,3.7,1.5,5
			c0.5,0.6,1.8,1.8,4,3.5c1.9,1.5,2.9,2.8,2.9,3.9V617.6z"/>
		<path fill="#FFFFFF" d="M136,618.4c0,1.3-0.9,2.6-2.6,3.9c-1.6,1.2-3.2,1.8-4.5,1.8h-9c-1.5,0-2.9-0.7-4.4-2.2
			c-1.4-1.5-2.2-2.9-2.2-4.4v-7.6h7.6v5.8c0,1,0.4,1.7,1.2,2.3c0.7,0.6,1.6,0.8,2.6,0.8c1,0,1.8-0.3,2.6-0.9
			c0.8-0.6,1.2-1.4,1.2-2.3v-19.9c0-0.5-0.2-1-0.6-1.5s-0.9-0.7-1.4-0.7c-0.4,0-0.9,0.2-1.2,0.7c-0.4,0.5-0.6,1-0.6,1.4v6h-6.9v-5.4
			c0-0.4-0.2-0.9-0.6-1.2c-0.4-0.4-0.9-0.6-1.3-0.6c-0.1,0-1,0.4-2.6,1.2h-2.8v-7.2c1.1,0.4,1.9,0.6,2.4,0.6c0.3,0,1-0.2,2-0.5
			c1-0.3,1.8-0.5,2.4-0.5c1,0,1.8,0.2,2.5,0.6c0.4,0.3,1.1,0.9,2,1.8c0.3-0.3,0.7-0.7,1.2-1.2c0.7-0.6,1.4-0.9,2-0.9h5.8
			c1.3,0,2.5,0.6,3.7,1.7c1.2,1.2,1.7,2.4,1.7,3.7V618.4z"/>
		<path fill="#FFFFFF" d="M174.1,623.9h-7.4v-13c0-0.7-0.2-1.2-0.7-1.7c-0.5-0.5-1-0.7-1.7-0.7c-0.6,0-1.2,0.2-1.7,0.7
			c-0.5,0.5-0.7,1-0.7,1.7v5h-7.2v-5c0-0.7-0.2-1.2-0.7-1.7c-0.5-0.5-1-0.7-1.7-0.7c-0.6,0-1.1,0.3-1.5,0.8s-0.7,1-0.7,1.6v13h-7.6
			v-15.6c0-2.3,1.6-4.7,4.9-6.9c2-1.3,5.1-3.3,9.1-6c3.3-2.3,4.9-4.7,4.9-7.3h7.6v3.6c-0.9,1.9-2.4,3.7-4.4,5.2
			c-1.3,1-3.3,2.1-6,3.4c-2.7,1.3-4.4,2.2-5.2,2.8c1.3,0.2,2.2,0.4,2.6,0.5c0.6,0.3,1.3,0.8,2.2,1.7c1.6-1.3,3-2,4-2h5.2
			c1.5,0,3,0.7,4.4,2.2s2.2,2.9,2.2,4.4V623.9z"/>
		<path fill="#FFFFFF" d="M202.5,624.2h-7.8v-27.7c0-0.8-0.3-1.6-1-2.1s-1.4-0.9-2.3-0.9c-0.7,0-1.4,0.3-2.1,0.9c-0.6,0.6-1,1.3-1,2
			v27.7h-7.8v-28.9c0-1.5,0.7-3,2.2-4.5s2.9-2.3,4.4-2.3h8.6c1.5,0,3,0.7,4.4,2.2c1.4,1.5,2.1,3,2.1,4.5V624.2z"/>
	</g>
	<g>
		<path fill="#FFFFFF" d="M266,617.9c0,1.8-0.8,3.4-2.5,4.7c-1.6,1.3-3.3,1.9-5.1,1.9h-7c-1.5,0-2.6-0.3-3.4-0.9
			c-0.9-0.6-1.5-1.5-2-2.6l-1.3-3.3v-3.6h7.6c0,1.7,0.1,2.9,0.4,3.6c0.4,1.1,1.4,1.7,2.8,1.7c0.9,0,1.6-0.3,2.1-0.9
			c0.6-0.6,0.9-1.4,0.9-2.3v-8.4c0-0.7-0.3-1.3-0.9-1.9s-1.2-0.9-1.9-0.9c-1.1,0-2,0.7-2.6,2.2h-7.2v-18.7h19.7v5h-12.2v7h7.8
			c1.4,0,2.6,0.5,3.5,1.5c1,1,1.5,2.2,1.5,3.5V617.9z"/>
		<path fill="#FFFFFF" d="M298.7,616.6h-4.6v7.6h-7.6v-7.6h-14.6v-4l17.2-24.7h5v22.8h4.6V616.6z M286.2,610.4v-9L280,610l0,0.4
			H286.2z"/>
	</g>
</g>
<g>
	<g>
		<path id="rect3844-6_2_" fill="#FFFFFF" stroke="#000000" stroke-width="2" d="M480.1,239.7h468.5c10.5,0,19.1,8.5,19.1,19.1v67.4
			c0,10.5-8.5,19.1-19.1,19.1H480.1c-10.5,0-19.1-8.5-19.1-19.1v-67.3C461,248.3,469.5,239.7,480.1,239.7z"/>
		<path id="rect9536_2_" fill="#0D69E1" d="M948.7,247.9c6,0,10.8,4.9,10.8,10.8v67.4c0,6-4.9,10.8-10.8,10.8H480.1
			c-6,0-10.8-4.9-10.8-10.8v-67.3c0-6.1,4.9-10.8,10.8-10.8L948.7,247.9L948.7,247.9z"/>
	</g>
	<polygon fill="#FFFFFF" points="920.9,279.2 947.4,294.4 920.9,309.7 920.9,300.2 899.9,300.2 899.9,288.8 920.9,288.8 	"/>
	<g>
		<path fill="#FFFFFF" d="M629.5,303.3c0,1.5-0.7,3-2.2,4.5s-2.9,2.3-4.4,2.3h-10.2c-1.5,0-3-0.8-4.4-2.3c-1.4-1.5-2.2-3-2.2-4.5
			v-7.2c0-1.7,0.6-3.1,1.7-4.1c0.7-0.7,2-1.5,4-2.4c1.7-0.8,2.5-1.5,2.5-2.1v-4.8c0-0.8-0.5-1.2-1.6-1.5c-0.7-0.1-1.8-0.4-3.3-0.7
			c-1.3-0.4-2.3-1.2-2.7-2.3v-4.4h7.8c0,1.5,0.6,2.5,1.9,2.9c1.1,0.2,2.2,0.4,3.4,0.6c1.4,0.4,2.1,1.1,2.1,2.1v8
			c0,0.4,0.9,1.1,2.7,2.1c2.1,1.2,3.3,1.8,3.5,2c1,0.9,1.5,2.3,1.5,4.4V303.3z M622,299.2c0-1.4-0.4-2.5-1.2-3.5
			c-0.8-1.1-1.9-1.6-3.2-1.6c-1.3,0-2.3,0.6-3.1,1.8c-0.7,1.1-1,2.3-1,3.6s0.4,2.5,1.2,3.5c0.8,1.1,1.9,1.6,3.2,1.6
			c1.3,0,2.3-0.6,3.1-1.8C621.7,301.8,622,300.6,622,299.2z"/>
		<path fill="#FFFFFF" d="M667.3,309.9h-7.6V281c0-1.3-0.8-2-2.4-2c-1.6,0-2.4,0.7-2.4,2v11.3h-7V281c0-1.3-0.8-2-2.4-2
			c-1.5,0-2.2,0.7-2.2,2v28.8H636v-30.6c0-1.3,0.6-2.5,1.7-3.6c1.1-1.1,2.3-1.7,3.6-1.7h7c0.8,0,1.4,0.3,2,0.8
			c0.2,0.2,0.7,0.8,1.4,1.8c1.3-1.7,2.5-2.6,3.5-2.6h6.8c1.3,0,2.5,0.6,3.6,1.7c1.1,1.1,1.7,2.4,1.7,3.6V309.9z"/>
		<path fill="#FFFFFF" d="M705.9,309.5h-7.4v-13c0-0.7-0.2-1.2-0.7-1.7s-1-0.7-1.7-0.7c-0.6,0-1.2,0.2-1.7,0.7
			c-0.5,0.5-0.7,1-0.7,1.7v5h-7.2v-5c0-0.7-0.2-1.2-0.7-1.7c-0.5-0.5-1-0.7-1.7-0.7c-0.6,0-1.1,0.3-1.5,0.8c-0.5,0.5-0.7,1-0.7,1.6
			v13h-7.6v-15.6c0-2.3,1.6-4.7,4.9-6.9c2-1.3,5.1-3.3,9.1-6c3.3-2.3,4.9-4.7,4.9-7.3h7.6v3.6c-0.9,1.9-2.4,3.7-4.4,5.2
			c-1.3,1-3.3,2.1-6,3.4c-2.7,1.3-4.4,2.2-5.2,2.8c1.3,0.2,2.2,0.4,2.6,0.5c0.6,0.3,1.3,0.8,2.2,1.7c1.6-1.3,3-2,4-2h5.2
			c1.5,0,3,0.7,4.4,2.2c1.4,1.4,2.2,2.9,2.2,4.4V309.5z"/>
		<path fill="#FFFFFF" d="M747.1,299.9c0,2.1-1,3.9-2.9,5.3c-1.7,1.3-3.7,1.9-5.9,1.9c-1.9,0-3.4-0.9-4.7-2.6
			c-0.6-0.8-1.5-2.5-2.6-5.1c-1.2-2.7-2.3-4.6-3.2-5.8l-5.8,3.4h-0.2v0.4c2.1,0,3.4,0.5,4.1,1.4c0.6,0.8,0.9,2.2,0.9,4.4
			c0,2-0.5,3.6-1.5,4.8c-1.1,1.3-2.6,2-4.5,2h-8v-5.2c2,0,3.3-0.1,3.9-0.2c1.6-0.3,2.4-1.1,2.4-2.4c0-1-0.4-1.7-1.3-2.1
			c-0.5-0.2-1.4-0.3-2.7-0.3v-5c2.6-1,5.5-2.6,8.5-4.6c1.1-0.8,1.7-1.2,1.7-1.3c-0.8-1.6-2.1-4.1-3.9-7.3c-0.9-1.4-1.6-2.1-2.1-2.1
			c-0.4,0-0.7,0.2-1,0.6c-0.3,0.4-0.4,0.8-0.4,1.2c0,0.5,0.5,1.2,1.6,2.2l-5.2,3.6c-0.6-0.6-1.2-1.5-1.6-2.8
			c-0.5-1.3-0.7-2.3-0.7-3.2c0-2.2,1.1-4.1,3.2-5.5c1.9-1.3,4-1.9,6.3-1.9c1.9,0,3.4,0.7,4.6,2c0.7,0.8,1.6,2.3,2.7,4.5
			c1.2,2.5,2.1,4.3,2.7,5.3c4.2-1.7,6.9-3.3,8-4.6c0.1-0.2,0.3-0.4,0.4-0.6c0-0.4-0.5-0.7-1.6-1h-5.8v-5h8.6c3.1,0,4.6,1.9,4.6,5.6
			c0,1.8-0.7,3.2-2,4.4c-0.7,0.6-2.1,1.5-4.3,2.7c-2.3,1.3-4.2,2.4-5.4,3.4l3.3,5.8c0.9,1.6,1.4,2.5,1.6,2.8
			c0.8,1.2,1.7,1.8,2.5,1.8c0.3,0,0.5-0.2,0.7-0.5c0.2-0.3,0.3-0.6,0.3-0.9c0-0.6-0.5-1.8-1.6-3.6c0.9-0.6,2.1-1.2,3.7-2
			C746.2,296.6,747.1,298.6,747.1,299.9z"/>
		<path fill="#FFFFFF" d="M784.9,309.9h-7.6V281c0-1.3-0.8-2-2.4-2c-1.6,0-2.4,0.7-2.4,2v11.3h-7V281c0-1.3-0.8-2-2.4-2
			c-1.5,0-2.2,0.7-2.2,2v28.8h-7.6v-30.6c0-1.3,0.6-2.5,1.7-3.6c1.1-1.1,2.3-1.7,3.6-1.7h7c0.8,0,1.4,0.3,2,0.8
			c0.2,0.2,0.7,0.8,1.4,1.8c1.3-1.7,2.5-2.6,3.5-2.6h6.8c1.3,0,2.5,0.6,3.6,1.7c1.1,1.1,1.7,2.4,1.7,3.6V309.9z"/>
		<path fill="#FFFFFF" d="M813.8,303.6c0,1.5-0.7,3-2.2,4.4c-1.5,1.4-3,2.2-4.5,2.2h-8.9c-1.5,0-3-0.7-4.5-2.2
			c-1.5-1.4-2.3-2.9-2.3-4.4v-7.4c0-1.5,0.8-2.9,2.2-4.4c1.5-1.4,3-2.2,4.5-2.2h7.9v-7.1c0-0.9-0.4-1.7-1.2-2.4
			c-0.7-0.6-1.6-0.8-2.6-0.8c-2.4,0-3.6,1.5-3.6,4.5v0.4c0,0.1,0,0.3,0,0.4h-7.6v-4.6c1.7-4.1,3.9-6.2,6.5-6.2h9.7
			c1.4,0,2.9,0.7,4.3,2.1c1.4,1.4,2.1,2.8,2.1,4.3V303.6z M805.9,302.2v-4.8c0-0.8-0.4-1.5-1.1-1.9c-0.7-0.4-1.4-0.6-2.2-0.6
			c-0.8,0-1.6,0.2-2.2,0.6c-0.7,0.5-1.1,1.2-1.1,1.9v4.8c0,0.8,0.3,1.4,1,1.9c0.6,0.5,1.3,0.7,2.1,0.7c0.9,0,1.7-0.2,2.4-0.6
			C805.5,303.7,805.9,303.1,805.9,302.2z"/>
		<path fill="#FFFFFF" d="M841.9,309.8h-7.8v-27.7c0-0.8-0.3-1.6-1-2.1c-0.6-0.6-1.4-0.9-2.3-0.9c-0.7,0-1.4,0.3-2.1,0.9
			c-0.6,0.6-1,1.3-1,2v27.7h-7.8v-28.9c0-1.5,0.7-3,2.2-4.5s2.9-2.3,4.4-2.3h8.6c1.5,0,3,0.7,4.4,2.2c1.4,1.5,2.1,3,2.1,4.5V309.8z"
			/>
	</g>
	<path fill="none" stroke="#FFFFFF" stroke-width="4.1958" d="M572.6,322.2h-82.9c-2.2,0-4-1.8-4-4v-50.7c0-2.2,1.8-4,4-4h82.9
		c2.2,0,4,1.8,4,4v50.7C576.6,320.4,574.8,322.2,572.6,322.2z"/>
	<g>
		<path fill="#FFFFFF" d="M517.1,290.5c0,0.9,0.1,1.5,0.2,1.7c0.1,0.4,0.4,0.7,0.9,1.2c1,1,1.6,1.9,1.9,2.6c0.3,0.7,0.5,1.8,0.5,3.2
			c0,3.7-1.7,6.4-5.2,8.1c-1.6,0.8-3.3,1.1-5.3,1.1c-5,0-8.1-1.9-9.3-5.7c-0.4-1.4-0.7-2.9-0.7-4.6v-21h4.3v21c0,4.5,2,6.8,5.8,6.8
			c2.5,0,4.3-1,5.3-2.9c0.4-0.9,0.7-1.9,0.7-3.1c0-1.1-0.1-2-0.4-2.6v0c-0.3-0.5-0.8-1.2-1.5-2.1c-0.4-0.4-0.8-1.1-1-1.5
			c-0.4-0.6-0.6-1.5-0.6-2.4H517.1z"/>
		<path fill="#FFFFFF" d="M524.2,298.9v-5.3h12.7v5.3H524.2z"/>
		<path fill="#FFFFFF" d="M544.6,290.7c-2.6-1.3-3.8-3.3-3.8-6.1c0-2.3,0.8-4.3,2.5-5.9c1.7-1.6,3.9-2.4,6.6-2.4s5,0.8,6.7,2.5
			s2.6,3.6,2.6,5.9c0,2.7-1.2,4.8-3.7,6.1c3.3,1.4,5,4.2,5,7.8c0,2.7-1,5-2.9,6.9c-1.9,1.8-4.4,2.8-7.5,2.8c-3.1,0-5.6-1-7.6-2.8
			c-1.9-1.8-2.8-4.1-2.8-7C539.6,294.7,541.4,291.9,544.6,290.7z M544.3,298.5c-0.1,3,2.6,5.9,5.8,5.8c3.3,0,5.7-2.4,5.7-5.7
			c0-1.7-0.6-3-1.7-4.1c-1.1-1.1-2.5-1.7-4.2-1.7c-1.6,0-3,0.6-4,1.6C544.8,295.5,544.3,296.8,544.3,298.5L544.3,298.5z
			 M550.1,288.9c2.6,0,4.5-1.9,4.5-4.2c0-2.5-1.9-4.4-4.5-4.4c-2.6,0-4.5,1.9-4.5,4.2C545.5,287.1,547.4,288.9,550.1,288.9z"/>
	</g>
</g>
<g>
	<g>
		<path id="rect3844-6_3_" fill="#FFFFFF" stroke="#000000" stroke-width="2" d="M480.1,374h468.5c10.5,0,19.1,8.5,19.1,19.1v67.4
			c0,10.5-8.5,19.1-19.1,19.1H480.1c-10.5,0-19.1-8.5-19.1-19.1v-67.3C461,382.6,469.5,374,480.1,374z"/>
		<path id="rect9536_3_" fill="#00A500" d="M948.7,382.3c6,0,10.8,4.9,10.8,10.8v67.4c0,6-4.9,10.8-10.8,10.8H480.1
			c-6,0-10.8-4.9-10.8-10.8v-67.3c0-6.1,4.9-10.8,10.8-10.8L948.7,382.3L948.7,382.3z"/>
	</g>
	<polygon fill="#FFFFFF" points="512.2,413.5 485.7,428.8 512.2,444 512.2,434.5 533.2,434.5 533.2,423.1 512.2,423.1 	"/>
	<g>
		<path fill="#FFFFFF" d="M640.1,444.1h-7.8v-28.9c0-1.3-0.9-2-2.6-2c-0.6,0-1.2,0.2-1.6,0.5c-0.5,0.4-0.8,0.9-0.8,1.5v22.3
			c0,1.4-0.8,2.9-2.4,4.4c-1.6,1.5-3.1,2.2-4.6,2.2h-8.4c-1.5,0-3-0.7-4.6-2.2s-2.4-2.9-2.4-4.4v-23.1c0-1.5,0.8-2.9,2.4-4.4
			c1.6-1.5,3.1-2.2,4.6-2.2h6.6c1.6,0.2,3.2,1,4.9,2.4c0.8-0.6,1.5-1.1,2.3-1.7c0.8-0.5,1.6-0.7,2.3-0.7h6.4c1.3,0,2.7,0.6,3.9,1.7
			c1.3,1.2,1.9,2.4,1.9,3.7V444.1z M619.2,435.8v-20.1c0-0.6-0.4-1.2-1.2-1.8c-0.7-0.5-1.4-0.8-2.1-0.8c-0.7,0-1.4,0.3-2.1,0.8
			c-0.7,0.5-1.1,1.1-1.1,1.8v20.1c0,0.7,0.4,1.4,1.1,2c0.7,0.6,1.4,0.8,2.1,0.8c0.7,0,1.4-0.3,2.1-0.9
			C618.9,437.2,619.2,436.5,619.2,435.8z"/>
		<path fill="#FFFFFF" d="M670.1,437.7c0,1.5-0.7,3-2.2,4.5s-2.9,2.3-4.4,2.3h-10.2c-1.5,0-3-0.8-4.4-2.3c-1.4-1.5-2.2-3-2.2-4.5
			v-7.2c0-1.7,0.6-3.1,1.7-4.1c0.7-0.7,2-1.5,4-2.4c1.7-0.8,2.5-1.5,2.5-2.1V417c0-0.8-0.5-1.2-1.6-1.5c-0.7-0.1-1.8-0.4-3.3-0.7
			c-1.3-0.4-2.3-1.2-2.7-2.3v-4.4h7.8c0,1.5,0.6,2.5,1.9,2.9c1.1,0.2,2.2,0.4,3.4,0.6c1.4,0.4,2.1,1.1,2.1,2.1v8
			c0,0.4,0.9,1.1,2.7,2.1c2.1,1.2,3.3,1.8,3.5,2c1,0.9,1.5,2.3,1.5,4.4V437.7z M662.6,433.6c0-1.4-0.4-2.5-1.2-3.5
			c-0.8-1.1-1.9-1.6-3.2-1.6c-1.3,0-2.3,0.6-3.1,1.8c-0.7,1.1-1,2.3-1,3.6s0.4,2.5,1.2,3.5c0.8,1.1,1.9,1.6,3.2,1.6
			c1.3,0,2.3-0.6,3.1-1.8C662.3,436.1,662.6,434.9,662.6,433.6z"/>
		<path fill="#FFFFFF" d="M698.9,444.2h-7.8v-27.7c0-0.8-0.3-1.6-1-2.1c-0.6-0.6-1.4-0.9-2.2-0.9c-0.7,0-1.4,0.3-2.1,0.9
			c-0.6,0.6-1,1.3-1,2v27.7h-7.8v-28.9c0-1.5,0.7-3,2.2-4.5s2.9-2.3,4.4-2.3h8.6c1.5,0,3,0.7,4.4,2.2c1.4,1.5,2.1,3,2.1,4.5V444.2z"
			/>
		<path fill="#FFFFFF" d="M745.2,424h-7.4v-9.1c0-1.1-0.6-1.6-1.8-1.6c-0.4,0-0.7,0.2-1.1,0.5s-0.5,0.7-0.5,1.1v6.4h-6.8v-6.4
			c0-1.1-0.6-1.6-1.8-1.6c-1.2,0-1.8,0.5-1.8,1.6v6.4h-6.8v-6.4c0-1.1-0.6-1.6-1.8-1.6c-0.5,0-0.9,0.2-1.3,0.5s-0.6,0.7-0.6,1.2v9.4
			c0,3.2,2.8,5.1,8.4,5.9c2.7,0.3,5.4,0.6,8.1,1c3.2,0.5,5.8,1.2,7.7,2.2c1.8,1,3,1.9,3.7,2.9c0.4,0.5,1,1.9,1.9,4.3v3.8h-7.4
			c0-4-2.7-6.6-8-7.8c-2.3-0.5-4.9-0.8-7.7-0.8h-14.1v-4.6h4.6c-1.4-0.6-2.6-1.6-3.7-2.9c-1.2-1.5-1.7-2.9-1.7-4.3v-9.2
			c0-1.5,0.7-2.9,2-4.4c1.4-1.5,2.8-2.2,4.2-2.2h4.4c1.3,0,2.7,0.7,4.2,2.2c0.9-1,1.8-1.6,2.5-1.9c0.6-0.2,1.7-0.4,3.1-0.4
			c1.4,0,2.5,0.1,3.2,0.4s1.5,0.9,2.5,1.8c1-1,2-1.7,2.8-1.9c0.6-0.2,1.8-0.3,3.4-0.3c2,0,3.6,0.4,5,1.3c1.6,1,2.4,2.5,2.4,4.3V424z
			"/>
		<path fill="#FFFFFF" d="M773.4,444.2h-7.8v-27.7c0-0.8-0.3-1.6-1-2.1s-1.4-0.9-2.3-0.9c-0.7,0-1.4,0.3-2.1,0.9c-0.6,0.6-1,1.3-1,2
			v27.7h-7.8v-28.9c0-1.5,0.7-3,2.2-4.5c1.5-1.5,2.9-2.3,4.4-2.3h8.6c1.5,0,3,0.7,4.4,2.2c1.4,1.5,2.1,3,2.1,4.5V444.2z"/>
		<path fill="#FFFFFF" d="M801.9,438.8c0,1.1-0.8,2.3-2.3,3.5c-1.4,1.2-2.7,1.7-3.9,1.7h-9c-1.4,0-2.9-0.7-4.3-2.2
			c-1.4-1.5-2.1-2.9-2.1-4.4V408h7.8v28.4c0,1.7,1.1,2.6,3.2,2.6c0.8,0,1.5-0.2,2.1-0.7c0.6-0.5,0.9-1.1,0.9-1.9v-13h7.6V438.8z"/>
		<path fill="#FFFFFF" d="M830.9,444.2h-7.8v-27.7c0-0.8-0.3-1.6-0.9-2.1c-0.6-0.6-1.4-0.9-2.3-0.9c-0.7,0-1.4,0.3-2.1,0.9
			c-0.6,0.6-1,1.3-1,2v27.7h-7.8v-28.9c0-1.5,0.7-3,2.2-4.5c1.5-1.5,2.9-2.3,4.4-2.3h8.6c1.5,0,3,0.7,4.4,2.2c1.4,1.5,2.1,3,2.1,4.5
			V444.2z"/>
	</g>
	<g>
		<polygon fill="#FFFFFF" points="571,410.6 575.7,410.6 572.3,395.4 570.3,395.4 		"/>
		<polygon fill="#FFFFFF" points="549,415.3 554.8,415.3 554.8,420 557.5,420 558.8,415.3 580.4,415.3 581.8,420 584.5,420 
			584.5,415.3 590.3,415.3 590.3,412.6 549,412.6 		"/>
		<polygon fill="#FFFFFF" points="569,395.4 566.9,395.4 563.6,410.6 568.3,410.6 		"/>
		<path fill="#FFFFFF" d="M561.5,417.3l-10.8,40.8c0.1,0,0.2,0,0.3,0h15.9l1.3-40.9H561.5z"/>
		<path fill="#FFFFFF" d="M577.7,417.3H571l1.3,40.9h15.9c0.1,0,0.2,0,0.3,0L577.7,417.3z"/>
	</g>
	<g>
		<path fill="#FFFFFF" d="M915,444.3h-7.7v-25.1c-0.9,0.1-2.1,0.6-3.8,1.7h-0.6v-6.3c3-1.2,5.1-3.5,6.3-6.9h5.9V444.3z"/>
		<path fill="#FFFFFF" d="M942.5,421.5c0,2.8-2.2,6.4-6.5,10.7c-2.1,2.1-4.1,4.1-6.1,6.1h12v5.6h-21v-4.8c0-0.4,2-2.7,5.9-7
			c1.5-1.7,2.7-3.1,3.7-4.4c0.5-0.5,1.2-1.3,2.1-2.3c1.4-1.6,2.1-3.1,2.1-4.3v-5.6c0-1.9-1.1-2.8-3.2-2.8c-1.3,0-2.2,0.4-2.6,1.3
			c-0.3,0.6-0.4,1.6-0.4,3.2v1.3H921v-4.4c0-1.4,0.8-2.8,2.3-4.3c1.5-1.4,3-2.1,4.4-2.1h8.4c1.5,0,2.9,0.7,4.3,2.2
			c1.4,1.5,2.1,2.9,2.1,4.4V421.5z"/>
	</g>
</g>
<g>
	<g>
		<path id="rect3844-6_4_" fill="#FFFFFF" stroke="#000000" stroke-width="2" d="M482.4,514.7h463.9c11.5,0,20.8,9.3,20.8,18.5
			v103.3c0,13.8-9.3,23.2-20.8,23.2H482.4c-11.5,0-20.8-9.3-20.8-23.2V533.1C461.6,524,470.9,514.7,482.4,514.7z"/>
		<path id="rect9536_4_" fill="#0D69E1" d="M946.3,523.6c6.5,0,11.8,5.3,11.8,11.8v102.4c0,6.5-5.3,11.8-11.8,11.8H482.4
			c-6.5,0-11.8-5.3-11.8-11.8V535.5c0-6.6,5.3-11.8,11.8-11.8H946.3z"/>
	</g>
	<polygon fill="#FFFFFF" points="490,583.7 509.5,550 528.9,583.7 516.8,583.7 516.8,610.5 502.3,610.5 502.3,583.7 	"/>
	<g>
		<path fill="#FFFFFF" d="M565.9,573.5c0,1.4-0.8,2.9-2.3,4.4c-1.6,1.5-3,2.3-4.5,2.3h-8.6c-1.4,0-2.8-0.7-4.2-2.1s-2.2-2.8-2.2-4.1
			v-8.6h7.8v6.6c0,0.9,0.3,1.6,0.9,2.2s1.4,0.9,2.3,0.9c0.7,0,1.4-0.3,2-1s1-1.3,1-2.1v-19.6c0-0.8-0.3-1.6-0.9-2.1
			c-0.6-0.6-1.4-0.9-2.2-0.9c-1.4,0-2.3,0.6-2.7,1.8c-0.2,0.6-0.3,1.8-0.3,3.6h-7.8v-4.4c1.6-4.1,3.9-6.2,6.8-6.2h8
			c1.5,0,3,0.7,4.6,2.2c1.6,1.5,2.4,2.9,2.4,4.4V573.5z"/>
		<path fill="#FFFFFF" d="M604.7,580h-7.4v-13c0-0.7-0.2-1.2-0.7-1.7s-1-0.7-1.7-0.7c-0.6,0-1.2,0.2-1.7,0.7c-0.5,0.5-0.7,1-0.7,1.7
			v5h-7.2v-5c0-0.7-0.2-1.2-0.7-1.7c-0.5-0.5-1-0.7-1.7-0.7c-0.6,0-1.1,0.3-1.5,0.8c-0.5,0.5-0.7,1-0.7,1.6v13h-7.6v-15.6
			c0-2.3,1.6-4.7,4.9-6.9c2-1.3,5.1-3.3,9.1-6c3.3-2.3,4.9-4.7,4.9-7.3h7.6v3.6c-0.9,1.9-2.4,3.7-4.4,5.2c-1.3,1-3.3,2.1-6,3.4
			c-2.7,1.3-4.4,2.2-5.2,2.8c1.3,0.2,2.2,0.4,2.6,0.5c0.6,0.3,1.3,0.8,2.2,1.7c1.6-1.3,3-2,4-2h5.2c1.5,0,3,0.7,4.4,2.2
			c1.4,1.4,2.2,2.9,2.2,4.4V580z"/>
		<path fill="#FFFFFF" d="M642.1,580.4h-7.6v-28.8c0-1.3-0.8-2-2.4-2c-1.6,0-2.4,0.7-2.4,2v11.3h-7v-11.3c0-1.3-0.8-2-2.4-2
			c-1.5,0-2.2,0.7-2.2,2v28.8h-7.6v-30.6c0-1.3,0.6-2.5,1.7-3.6c1.1-1.1,2.3-1.7,3.6-1.7h7c0.8,0,1.4,0.3,2,0.8
			c0.2,0.2,0.7,0.8,1.4,1.8c1.3-1.7,2.5-2.6,3.5-2.6h6.8c1.3,0,2.5,0.6,3.6,1.7c1.1,1.1,1.7,2.3,1.7,3.6V580.4z"/>
		<path fill="#FFFFFF" d="M670,573.7c0,1.4-0.7,2.8-2.2,4.3c-1.5,1.4-2.9,2.1-4.4,2.1h-9c-1.4,0-2.7-0.7-4.1-2
			c-1.4-1.4-2.1-2.7-2.1-4.1v-7.8h7.8v6c0,0.9,0.3,1.6,1,2.1c0.6,0.5,1.4,0.7,2.2,0.7c0.8,0,1.5-0.3,2.1-0.8c0.6-0.5,0.9-1.2,0.9-2
			v-7.4c0-1.9-1.1-2.8-3.2-2.8v-5c2.1,0,3.2-1.3,3.2-3.8c0-2.6-1.1-4-3.2-4c-1.4,0-2.2,0.6-2.7,1.8c-0.2,0.7-0.4,1.8-0.4,3.6h-7.8
			v-4.4c2-4.1,4.3-6.2,7.1-6.2h8.2c1.5,0,2.9,0.7,4.3,2.1c1.4,1.4,2.1,2.8,2.1,4.3v4.2c0,1.5-1.3,3-4,4.4c1.4,0.5,2.3,0.9,2.7,1.2
			c0.9,0.6,1.3,1.4,1.3,2.4V573.7z"/>
		<path fill="#FFFFFF" d="M696.7,573.7c0,1.5-0.8,3.1-2.3,4.6s-3.1,2.3-4.6,2.3H682c-1.6,0-3.1-0.8-4.6-2.4
			c-1.4-1.6-2.2-3.2-2.2-4.8v-22.4c0-1.9,0.9-3.5,2.6-4.8c1.6-1.2,3.4-1.8,5.3-1.8c0.8,0,2.1,0.2,3.8,0.5c1.7,0.3,3,0.5,4,0.5
			c1.8,0,3.4-0.3,4.7-0.8h0.4v7.1h-4.4c-3.6-0.9-5.7-1.4-6.5-1.4c-0.6,0-1.2,0.2-1.7,0.6c-0.5,0.4-0.7,0.9-0.7,1.5v7.2h8.3
			c1.3,0,2.6,0.6,3.8,1.8c1.2,1.2,1.8,2.4,1.8,3.8V573.7z M688.8,572.9v-5.4c0-0.7-0.3-1.3-0.9-1.7c-0.6-0.4-1.2-0.7-1.9-0.7
			c-0.7,0-1.3,0.2-1.9,0.6c-0.6,0.5-0.9,1.1-0.9,1.8v5.4c0,0.7,0.3,1.3,0.8,1.7s1.2,0.6,1.9,0.6c0.7,0,1.3-0.2,1.9-0.7
			S688.8,573.6,688.8,572.9z"/>
		<path fill="#FFFFFF" d="M728.6,574.6c0,1.3-0.9,2.6-2.6,3.9c-1.6,1.2-3.2,1.8-4.5,1.8h-9c-1.5,0-2.9-0.7-4.4-2.2
			c-1.4-1.5-2.2-2.9-2.2-4.4v-7.6h7.6v5.8c0,1,0.4,1.7,1.2,2.3c0.7,0.6,1.6,0.8,2.6,0.8c1,0,1.8-0.3,2.6-0.9
			c0.8-0.6,1.2-1.4,1.2-2.3v-19.9c0-0.5-0.2-1-0.6-1.5c-0.4-0.5-0.9-0.7-1.4-0.7c-0.4,0-0.9,0.2-1.2,0.7c-0.4,0.5-0.6,1-0.6,1.4v6
			h-6.9v-5.4c0-0.4-0.2-0.9-0.6-1.2c-0.4-0.4-0.9-0.6-1.3-0.6c-0.1,0-1,0.4-2.6,1.2h-2.8v-7.2c1.1,0.4,1.9,0.6,2.4,0.6
			c0.3,0,1-0.2,2-0.5c1-0.3,1.8-0.5,2.4-0.5c1,0,1.8,0.2,2.5,0.6c0.4,0.3,1.1,0.9,2,1.8c0.3-0.3,0.7-0.7,1.2-1.2
			c0.7-0.6,1.4-0.9,2-0.9h5.8c1.3,0,2.5,0.6,3.7,1.7c1.2,1.2,1.7,2.4,1.7,3.7V574.6z"/>
		<path fill="#FFFFFF" d="M774.3,560.1h-7.4v-9.1c0-1.1-0.6-1.6-1.8-1.6c-0.4,0-0.7,0.2-1.1,0.5c-0.3,0.3-0.5,0.7-0.5,1.1v6.4h-6.8
			v-6.4c0-1.1-0.6-1.6-1.8-1.6c-1.2,0-1.8,0.5-1.8,1.6v6.4h-6.8v-6.4c0-1.1-0.6-1.6-1.8-1.6c-0.5,0-0.9,0.2-1.3,0.5
			s-0.6,0.7-0.6,1.2v9.4c0,3.2,2.8,5.1,8.4,5.9c2.7,0.3,5.4,0.6,8.1,1c3.2,0.5,5.8,1.2,7.7,2.2c1.8,1,3,1.9,3.7,2.9
			c0.4,0.5,1,1.9,1.9,4.3v3.8H765c0-4-2.7-6.6-8-7.8c-2.3-0.5-4.9-0.8-7.7-0.8h-14.1v-4.6h4.6c-1.4-0.6-2.6-1.6-3.7-2.9
			c-1.2-1.5-1.7-2.9-1.7-4.3v-9.2c0-1.5,0.7-2.9,2-4.4c1.4-1.5,2.8-2.2,4.2-2.2h4.4c1.3,0,2.7,0.7,4.2,2.2c0.9-1,1.8-1.6,2.5-1.9
			c0.6-0.2,1.7-0.4,3.1-0.4c1.4,0,2.5,0.1,3.2,0.4s1.5,0.9,2.5,1.8c1-1,2-1.7,2.8-1.9c0.6-0.2,1.8-0.3,3.4-0.3c2,0,3.6,0.4,5,1.3
			c1.6,1,2.4,2.5,2.4,4.3V560.1z"/>
		<path fill="#FFFFFF" d="M802.5,580.4h-7.8v-27.7c0-0.8-0.3-1.6-1-2.1s-1.4-0.9-2.3-0.9c-0.7,0-1.4,0.3-2.1,0.9c-0.6,0.6-1,1.3-1,2
			v27.7h-7.8v-28.9c0-1.5,0.7-3,2.2-4.5s2.9-2.3,4.4-2.3h8.6c1.5,0,3,0.7,4.4,2.2c1.4,1.5,2.1,3,2.1,4.5V580.4z"/>
		<path fill="#FFFFFF" d="M833.9,577.6c0,0.6-0.3,1.3-1,1.9c-0.6,0.6-1.3,0.9-1.9,0.9h-3.8c-0.6,0-1.3-0.3-1.9-0.9
			c-0.6-0.6-1-1.2-1-1.9v-3.1c0-0.6,0.3-1.3,1-1.9s1.3-0.9,1.9-0.9h3.4v-3.1c0-0.4-0.2-0.7-0.5-1c-0.3-0.2-0.7-0.4-1.1-0.4
			c-1,0-1.5,0.6-1.5,1.9v0.2c0,0.1,0,0.1,0,0.2h-3.2v-2c0.7-1.8,1.7-2.6,2.8-2.6h4.2c0.6,0,1.2,0.3,1.8,0.9c0.6,0.6,0.9,1.2,0.9,1.8
			V577.6z M830.5,577v-2c0-0.3-0.2-0.6-0.5-0.8c-0.3-0.2-0.6-0.3-1-0.3c-0.4,0-0.7,0.1-1,0.3c-0.3,0.2-0.5,0.5-0.5,0.8v2
			c0,0.3,0.1,0.6,0.4,0.8c0.3,0.2,0.6,0.3,0.9,0.3c0.4,0,0.7-0.1,1-0.3C830.4,577.7,830.5,577.4,830.5,577z"/>
		<path fill="#FFFFFF" d="M847.4,577.8c0,0.6-0.4,1.1-1.1,1.7c-0.7,0.5-1.4,0.8-1.9,0.8h-3.8c-0.6,0-1.3-0.3-1.9-0.9
			c-0.6-0.6-0.9-1.2-0.9-1.9v-3.2h3.2v2.5c0,0.4,0.2,0.7,0.5,1c0.3,0.2,0.7,0.4,1.1,0.4c0.4,0,0.8-0.1,1.1-0.4
			c0.3-0.3,0.5-0.6,0.5-1v-8.5c0-0.2-0.1-0.4-0.3-0.6c-0.2-0.2-0.4-0.3-0.6-0.3c-0.2,0-0.4,0.1-0.5,0.3s-0.2,0.4-0.2,0.6v2.6h-3
			v-2.3c0-0.2-0.1-0.4-0.3-0.5s-0.4-0.2-0.6-0.2c0,0-0.4,0.2-1.1,0.5h-1.2v-3.1c0.5,0.2,0.8,0.3,1,0.3c0.1,0,0.4-0.1,0.8-0.2
			s0.8-0.2,1-0.2c0.4,0,0.8,0.1,1.1,0.3c0.2,0.1,0.5,0.4,0.8,0.7c0.1-0.1,0.3-0.3,0.5-0.5c0.3-0.3,0.6-0.4,0.9-0.4h2.5
			c0.6,0,1.1,0.2,1.6,0.7s0.7,1,0.7,1.6V577.8z"/>
		<path fill="#FFFFFF" d="M863.7,577.7c0,0.5-0.3,1.1-1,1.7c-0.7,0.6-1.2,0.9-1.8,0.9H857c-0.6,0-1.2-0.3-1.8-0.9
			c-0.6-0.6-0.9-1.2-0.9-1.8v-6h-2.4c-0.5,0-0.9-0.2-1.4-0.6c-0.5-0.4-0.7-0.9-0.7-1.3v-2.7c0-0.6,0.3-1.1,0.8-1.5
			c0.5-0.4,1-0.6,1.6-0.6h3.1c0.5,0,1,0.2,1.6,0.6c0.6,0.4,0.9,0.9,0.9,1.4v4.7h0.6c1.2-1,1.9-1.5,2.2-1.5h3l-1.8,1.5
			c0.7,0.3,1.2,0.5,1.4,0.7c0.4,0.3,0.6,0.8,0.6,1.4V577.7z M854.4,568.2c0-0.5,0-0.8,0-0.9c-0.1-0.3-0.3-0.4-0.7-0.4
			c-0.3,0-0.5,0.1-0.6,0.4c0,0.1-0.1,0.4-0.1,0.8c0,0.5,0,0.8,0,0.9c0.1,0.3,0.3,0.4,0.7,0.4c0.3,0,0.5-0.1,0.6-0.4
			C854.4,568.9,854.4,568.6,854.4,568.2z M860.2,576.9v-2.2c0-0.3-0.1-0.5-0.4-0.7c-0.3-0.2-0.5-0.3-0.8-0.3c-0.3,0-0.6,0.1-0.9,0.3
			c-0.3,0.2-0.4,0.5-0.4,0.8v2.2c0,0.3,0.1,0.5,0.4,0.7c0.2,0.2,0.5,0.3,0.8,0.3c0.3,0,0.6-0.1,0.9-0.3
			C860.1,577.5,860.2,577.2,860.2,576.9z"/>
		<path fill="#FFFFFF" d="M875.7,577.4c0,0.6-0.3,1.2-1,1.9c-0.7,0.6-1.3,1-1.9,1h-3.7c-0.6,0-1.2-0.3-1.8-0.9s-0.9-1.2-0.9-1.8
			v-3.7h3.3v2.8c0,0.4,0.1,0.7,0.4,0.9c0.3,0.2,0.6,0.4,1,0.4c0.3,0,0.6-0.1,0.9-0.4c0.3-0.3,0.4-0.6,0.4-0.9v-8.4
			c0-0.4-0.1-0.7-0.4-0.9c-0.3-0.2-0.6-0.4-1-0.4c-0.6,0-1,0.3-1.2,0.8c-0.1,0.3-0.1,0.8-0.1,1.5h-3.3v-1.9c0.7-1.8,1.7-2.7,2.9-2.7
			h3.4c0.6,0,1.3,0.3,2,0.9c0.7,0.6,1,1.3,1,1.9V577.4z"/>
		<path fill="#FFFFFF" d="M889.5,577.8c0,0.6-0.4,1.1-1.1,1.7c-0.7,0.5-1.4,0.8-1.9,0.8h-3.8c-0.6,0-1.3-0.3-1.9-0.9
			c-0.6-0.6-0.9-1.2-0.9-1.9v-3.2h3.2v2.5c0,0.4,0.2,0.7,0.5,1c0.3,0.2,0.7,0.4,1.1,0.4c0.4,0,0.8-0.1,1.1-0.4
			c0.3-0.3,0.5-0.6,0.5-1v-8.5c0-0.2-0.1-0.4-0.3-0.6c-0.2-0.2-0.4-0.3-0.6-0.3c-0.2,0-0.4,0.1-0.5,0.3s-0.2,0.4-0.2,0.6v2.6h-3
			v-2.3c0-0.2-0.1-0.4-0.3-0.5s-0.4-0.2-0.6-0.2c0,0-0.4,0.2-1.1,0.5h-1.2v-3.1c0.5,0.2,0.8,0.3,1,0.3c0.1,0,0.4-0.1,0.8-0.2
			s0.8-0.2,1-0.2c0.4,0,0.8,0.1,1.1,0.3c0.2,0.1,0.5,0.4,0.8,0.7c0.1-0.1,0.3-0.3,0.5-0.5c0.3-0.3,0.6-0.4,0.9-0.4h2.5
			c0.6,0,1.1,0.2,1.6,0.7s0.7,1,0.7,1.6V577.8z"/>
		<path fill="#FFFFFF" d="M901.7,577.6c0,0.6-0.3,1.3-1,1.9c-0.6,0.6-1.3,0.9-1.9,0.9H895c-0.6,0-1.3-0.3-1.9-0.9
			c-0.6-0.6-1-1.2-1-1.9v-3.1c0-0.6,0.3-1.3,1-1.9s1.3-0.9,1.9-0.9h3.4v-3.1c0-0.4-0.2-0.7-0.5-1c-0.3-0.2-0.7-0.4-1.1-0.4
			c-1,0-1.5,0.6-1.5,1.9v0.2c0,0.1,0,0.1,0,0.2H892v-2c0.7-1.8,1.7-2.6,2.8-2.6h4.2c0.6,0,1.2,0.3,1.8,0.9c0.6,0.6,0.9,1.2,0.9,1.8
			V577.6z M898.3,577v-2c0-0.3-0.2-0.6-0.5-0.8c-0.3-0.2-0.6-0.3-1-0.3c-0.4,0-0.7,0.1-1,0.3c-0.3,0.2-0.5,0.5-0.5,0.8v2
			c0,0.3,0.1,0.6,0.4,0.8c0.3,0.2,0.6,0.3,0.9,0.3c0.4,0,0.7-0.1,1-0.3C898.1,577.7,898.3,577.4,898.3,577z"/>
		<path fill="#FFFFFF" d="M913.7,580.3h-3.3v-11.9c0-0.4-0.1-0.7-0.4-0.9c-0.3-0.2-0.6-0.4-1-0.4c-0.3,0-0.6,0.1-0.9,0.4
			c-0.3,0.3-0.4,0.6-0.4,0.9v11.9h-3.3v-12.4c0-0.6,0.3-1.3,0.9-1.9c0.6-0.7,1.3-1,1.9-1h3.7c0.7,0,1.3,0.3,1.9,1
			c0.6,0.6,0.9,1.3,0.9,1.9V580.3z"/>
	</g>
	<g>
		<path fill="#FFFFFF" d="M546.3,598.8h6.6l12,21v-21h5.9v30.2h-6.3l-12.3-21.4v21.4h-5.9V598.8z"/>
		<path fill="#FFFFFF" d="M586.3,598.8h7.1l10.7,30.2h-6.8l-2-6.2h-11.1l-2,6.2h-6.6L586.3,598.8z M585.9,617.5h7.7l-3.8-11.9
			L585.9,617.5z"/>
		<path fill="#FFFFFF" d="M627.9,598.8v5.3h-9v24.8h-6.3v-24.8h-9.1v-5.3H627.9z"/>
		<path fill="#FFFFFF" d="M638.3,628.9h-6.3v-30.2h6.3V628.9z"/>
		<path fill="#FFFFFF" d="M668.5,626.3c-2.3,2.3-5.6,3.5-9.9,3.5c-4.3,0-7.6-1.2-9.9-3.5c-3.1-2.9-4.6-7-4.6-12.4
			c0-5.5,1.5-9.7,4.6-12.4c2.3-2.3,5.6-3.5,9.9-3.5c4.3,0,7.6,1.2,9.9,3.5c3,2.8,4.6,6.9,4.6,12.4
			C673.1,619.2,671.6,623.4,668.5,626.3z M664.6,621.7c1.5-1.8,2.2-4.5,2.2-7.9c0-3.4-0.7-6-2.2-7.9c-1.5-1.8-3.5-2.8-5.9-2.8
			c-2.5,0-4.5,0.9-6,2.8c-1.5,1.8-2.2,4.5-2.2,7.9s0.7,6,2.2,7.9c1.5,1.8,3.5,2.8,6,2.8C661.1,624.4,663.1,623.5,664.6,621.7z"/>
		<path fill="#FFFFFF" d="M678.8,598.8h6.6l12,21v-21h5.9v30.2H697l-12.3-21.4v21.4h-5.9V598.8z"/>
		<path fill="#FFFFFF" d="M718.9,598.8h7.1l10.7,30.2h-6.8l-2-6.2h-11.1l-2,6.2h-6.6L718.9,598.8z M718.5,617.5h7.7l-3.8-11.9
			L718.5,617.5z"/>
		<path fill="#FFFFFF" d="M741.6,598.8h6.3v24.8H763v5.4h-21.4V598.8z"/>
		<path fill="#FFFFFF" d="M787,616h3.9v13h-2.5v-8.8c0-0.3,0-0.6,0-1.1c0-0.5,0-0.8,0-1l-2.5,10.9h-2.6l-2.4-10.9c0,0.2,0,0.6,0,1
			c0,0.5,0,0.8,0,1.1v8.8h-2.5v-13h3.9l2.4,10.2L787,616z"/>
		<path fill="#FFFFFF" d="M793.8,616h2.8v8c0,0.9,0.1,1.5,0.3,1.9c0.3,0.7,1,1.1,2.1,1.1c1.1,0,1.8-0.4,2.1-1.1
			c0.2-0.4,0.3-1.1,0.3-1.9v-8h2.8v8c0,1.4-0.2,2.4-0.6,3.2c-0.8,1.4-2.3,2.1-4.6,2.1s-3.8-0.7-4.6-2.1c-0.4-0.8-0.6-1.8-0.6-3.2
			V616z"/>
		<path fill="#FFFFFF" d="M809.2,624.9c0.1,0.6,0.2,1,0.5,1.3c0.4,0.5,1.2,0.8,2.3,0.8c0.7,0,1.2-0.1,1.6-0.2
			c0.8-0.3,1.2-0.8,1.2-1.5c0-0.4-0.2-0.8-0.6-1c-0.4-0.2-1-0.4-1.8-0.6l-1.4-0.3c-1.4-0.3-2.3-0.6-2.8-1c-0.9-0.6-1.3-1.5-1.3-2.8
			c0-1.2,0.4-2.1,1.3-2.9c0.9-0.8,2.1-1.2,3.8-1.2c1.4,0,2.6,0.4,3.5,1.1c1,0.7,1.5,1.8,1.5,3.2h-2.6c0-0.8-0.4-1.3-1-1.7
			c-0.4-0.2-1-0.3-1.6-0.3c-0.7,0-1.3,0.1-1.7,0.4s-0.6,0.7-0.6,1.2c0,0.5,0.2,0.8,0.6,1c0.3,0.2,0.8,0.3,1.7,0.5l2.3,0.5
			c1,0.2,1.7,0.5,2.2,0.9c0.8,0.6,1.2,1.5,1.2,2.6c0,1.2-0.5,2.2-1.4,2.9c-0.9,0.8-2.2,1.2-3.9,1.2c-1.7,0-3-0.4-4-1.2
			c-1-0.8-1.5-1.8-1.5-3.2H809.2z"/>
		<path fill="#FFFFFF" d="M829.3,618.3h-6.9v2.8h6.3v2.2h-6.3v3.3h7.2v2.3h-9.8v-13h9.5V618.3z"/>
		<path fill="#FFFFFF" d="M832.2,616h2.8v8c0,0.9,0.1,1.5,0.3,1.9c0.3,0.7,1,1.1,2.1,1.1c1.1,0,1.8-0.4,2.1-1.1
			c0.2-0.4,0.3-1.1,0.3-1.9v-8h2.8v8c0,1.4-0.2,2.4-0.6,3.2c-0.8,1.4-2.3,2.1-4.6,2.1s-3.8-0.7-4.6-2.1c-0.4-0.8-0.6-1.8-0.6-3.2
			V616z"/>
		<path fill="#FFFFFF" d="M854.3,616h3.9v13h-2.5v-8.8c0-0.3,0-0.6,0-1.1c0-0.5,0-0.8,0-1l-2.5,10.9h-2.6l-2.4-10.9c0,0.2,0,0.6,0,1
			c0,0.5,0,0.8,0,1.1v8.8h-2.5v-13h3.9l2.4,10.2L854.3,616z"/>
	</g>
</g>
</svg>
