<?xml version="1.0" encoding="utf-8"?>
<!-- Generator: Adobe Illustrator 18.0.0, SVG Export Plug-In . SVG Version: 6.00 Build 0)  -->
<!DOCTYPE svg PUBLIC "-//W3C//DTD SVG 1.1//EN" "http://www.w3.org/Graphics/SVG/1.1/DTD/svg11.dtd">
<svg version="1.1"
	 id="svg2" inkscape:version="0.48.4 r9939" sodipodi:docname="6.2014_02_16_18_28_07.2.svg" xmlns:sodipodi="http://sodipodi.sourceforge.net/DTD/sodipodi-0.dtd" xmlns:dc="http://purl.org/dc/elements/1.1/" xmlns:cc="http://creativecommons.org/ns#" xmlns:inkscape="http://www.inkscape.org/namespaces/inkscape" xmlns:svg="http://www.w3.org/2000/svg" xmlns:rdf="http://www.w3.org/1999/02/22-rdf-syntax-ns#"
	 xmlns="http://www.w3.org/2000/svg" xmlns:xlink="http://www.w3.org/1999/xlink" x="0px" y="0px"
	 viewBox="-97.9 238.7 1038.8 260.1" enable-background="new -97.9 238.7 1038.8 260.1" xml:space="preserve">
<g>
	<path id="rect3844-6" fill="#FFFFFF" stroke="#000000" stroke-width="2" d="M-76.1,239.7h463.9c11.5,0,20.8,9.3,20.8,20.8v216.4
		c0,11.5-9.3,20.8-20.8,20.8H-76.1c-11.5,0-20.8-9.3-20.8-20.8V260.5C-96.9,249-87.6,239.7-76.1,239.7z"/>
	<path id="rect9536" fill="#0D69E1" d="M387.9,248.6c6.5,0,11.8,5.3,11.8,11.8v215.4c0,6.5-5.3,11.8-11.8,11.8H-76.1
		c-6.5,0-11.8-5.3-11.8-11.8V260.5c0-6.6,5.3-11.8,11.8-11.8H387.9z"/>
</g>
<g>
	<path fill="#FFFFFF" d="M-38.9,305.7c0,1.6-0.8,3.1-2.3,4.4c-1.5,1.3-3.1,2-4.7,2h-8.2c-1.6,0-3.1-0.7-4.6-2
		c-1.5-1.4-2.2-2.8-2.2-4.4v-7.4h7.8v5.6c0,0.9,0.3,1.6,0.9,2.1s1.4,0.9,2.3,0.9c0.8,0,1.5-0.3,2.1-0.9c0.6-0.6,0.9-1.3,0.9-2.1
		v-13.8c0-0.7-0.3-1.2-0.8-1.6c-0.5-0.4-1.1-0.6-1.8-0.6c-1.1,0-1.9,0.3-2.2,1c-0.3,0.5-0.4,1.3-0.4,2.6h-7v-4.8c1-2,2.2-3,3.6-3
		h8.6v-7.4h8V305.7z"/>
	<path fill="#FFFFFF" d="M-6.6,306.9c0,1.3-0.9,2.6-2.6,3.9c-1.6,1.2-3.2,1.8-4.5,1.8h-9c-1.5,0-2.9-0.7-4.4-2.2
		c-1.4-1.5-2.2-2.9-2.2-4.4v-7.6h7.6v5.8c0,1,0.4,1.7,1.2,2.3c0.7,0.6,1.6,0.8,2.6,0.8c1,0,1.8-0.3,2.6-0.9c0.8-0.6,1.2-1.4,1.2-2.3
		v-19.9c0-0.5-0.2-1-0.6-1.5s-0.9-0.7-1.4-0.7c-0.4,0-0.9,0.2-1.2,0.7c-0.4,0.5-0.6,1-0.6,1.4v6h-6.9V285c0-0.4-0.2-0.9-0.6-1.2
		c-0.4-0.4-0.9-0.6-1.3-0.6c-0.1,0-1,0.4-2.6,1.2h-2.8v-7.2c1.1,0.4,1.9,0.6,2.4,0.6c0.3,0,1-0.2,2-0.5c1-0.3,1.8-0.5,2.4-0.5
		c1,0,1.8,0.2,2.5,0.6c0.4,0.3,1.1,0.9,2,1.8c0.3-0.3,0.7-0.7,1.2-1.2c0.7-0.6,1.4-0.9,2-0.9h5.8c1.3,0,2.5,0.6,3.7,1.7
		s1.7,2.4,1.7,3.7V306.9z"/>
	<path fill="#FFFFFF" d="M34.5,312.6h-7.8v-28.9c0-1.3-0.9-2-2.6-2c-0.6,0-1.2,0.2-1.6,0.5c-0.5,0.4-0.8,0.9-0.8,1.5v22.3
		c0,1.4-0.8,2.9-2.4,4.4c-1.6,1.5-3.1,2.2-4.6,2.2H6.2c-1.5,0-3-0.7-4.6-2.2s-2.4-2.9-2.4-4.4v-23.1c0-1.5,0.8-2.9,2.4-4.4
		c1.6-1.5,3.1-2.2,4.6-2.2h6.6c1.6,0.2,3.2,1,4.9,2.4c0.8-0.6,1.5-1.1,2.3-1.7c0.8-0.5,1.6-0.7,2.3-0.7h6.4c1.3,0,2.6,0.6,3.9,1.7
		c1.3,1.2,1.9,2.4,1.9,3.7V312.6z M13.6,304.3v-20.1c0-0.6-0.4-1.2-1.2-1.8c-0.7-0.5-1.4-0.8-2.1-0.8c-0.7,0-1.4,0.3-2.1,0.8
		c-0.7,0.5-1.1,1.1-1.1,1.8v20.1c0,0.7,0.4,1.4,1.1,2c0.7,0.6,1.4,0.8,2.1,0.8c0.7,0,1.4-0.3,2.1-0.9S13.6,305,13.6,304.3z"/>
	<path fill="#FFFFFF" d="M62,306.1c0,1.6-0.8,3-2.5,4.5c-1.6,1.4-3.2,2-4.8,2h-7.3c-1.5,0-3-0.7-4.5-2.1c-1.5-1.4-2.2-2.9-2.2-4.4
		v-8.2h7.5v6.9c0,0.7,0.4,1.3,1.1,1.8c0.7,0.5,1.4,0.7,2.1,0.7c0.6,0,1.3-0.3,2-0.8c0.7-0.5,1-1.1,1-1.8v-12.9
		c0-0.9-0.5-1.8-1.6-2.7c-0.7-0.6-1.8-1.5-3.3-2.8c-1.4-1.3-2.6-2.8-3.4-4.6V277h7.5c0,2,0.5,3.7,1.5,5c0.5,0.6,1.8,1.8,4,3.5
		c1.9,1.5,2.9,2.8,2.9,3.9V306.1z"/>
	<path fill="#FFFFFF" d="M90.7,312.7h-7.8V285c0-0.8-0.3-1.6-1-2.1c-0.6-0.6-1.4-0.9-2.3-0.9c-0.7,0-1.4,0.3-2.1,0.9
		c-0.6,0.6-1,1.3-1,2v27.7h-7.8v-28.9c0-1.5,0.7-3,2.2-4.5c1.5-1.5,2.9-2.3,4.4-2.3h8.6c1.5,0,3,0.7,4.4,2.2c1.4,1.5,2.1,3,2.1,4.5
		V312.7z"/>
	<path fill="#FFFFFF" d="M119.1,307.3c0,1.1-0.8,2.3-2.3,3.5c-1.4,1.2-2.7,1.7-3.9,1.7h-9c-1.4,0-2.9-0.7-4.3-2.2s-2.1-2.9-2.1-4.4
		v-29.4h7.8v28.4c0,1.7,1.1,2.6,3.2,2.6c0.8,0,1.5-0.2,2.1-0.7s0.9-1.1,0.9-1.9v-13h7.6V307.3z"/>
	<path fill="#FFFFFF" d="M148.1,312.7h-7.8V285c0-0.8-0.3-1.6-1-2.1c-0.6-0.6-1.4-0.9-2.3-0.9c-0.7,0-1.4,0.3-2.1,0.9
		c-0.6,0.6-1,1.3-1,2v27.7h-7.8v-28.9c0-1.5,0.7-3,2.2-4.5c1.5-1.5,2.9-2.3,4.4-2.3h8.6c1.5,0,3,0.7,4.4,2.2c1.4,1.5,2.1,3,2.1,4.5
		V312.7z"/>
	<path fill="#FFFFFF" d="M-39.2,376.3c0,1.1-0.8,2.3-2.3,3.5c-1.4,1.2-2.7,1.7-3.9,1.7h-9c-1.4,0-2.9-0.7-4.3-2.2s-2.1-2.9-2.1-4.4
		v-29.4h7.8v28.4c0,1.7,1.1,2.6,3.2,2.6c0.8,0,1.5-0.2,2.1-0.7s0.9-1.1,0.9-1.9v-13h7.6V376.3z"/>
	<path fill="#FFFFFF" d="M-11.5,375c0,1.6-0.8,3-2.5,4.5c-1.6,1.4-3.2,2-4.8,2H-26c-1.5,0-3-0.7-4.5-2.1c-1.5-1.4-2.2-2.9-2.2-4.4
		v-8.2h7.5v6.9c0,0.7,0.4,1.3,1.1,1.8c0.7,0.5,1.4,0.7,2.1,0.7c0.6,0,1.3-0.3,2-0.8c0.7-0.5,1-1.1,1-1.8v-12.9
		c0-0.9-0.5-1.8-1.6-2.7c-0.7-0.6-1.8-1.5-3.3-2.8c-1.4-1.3-2.6-2.8-3.4-4.6v-4.7h7.5c0,2,0.5,3.7,1.5,5c0.5,0.6,1.8,1.8,4,3.5
		c1.9,1.5,2.9,2.8,2.9,3.9V375z"/>
	<path fill="#FFFFFF" d="M17.4,375.4c0,1.5-0.7,3-2.2,4.4s-3,2.2-4.5,2.2H1.8c-1.5,0-3-0.7-4.5-2.2c-1.5-1.4-2.3-2.9-2.3-4.4V368
		c0-1.5,0.8-2.9,2.2-4.4c1.5-1.4,3-2.2,4.5-2.2h7.9v-7.1c0-0.9-0.4-1.7-1.2-2.3c-0.7-0.6-1.6-0.8-2.6-0.8c-2.4,0-3.6,1.5-3.6,4.5
		v0.4c0,0.1,0,0.3,0,0.4h-7.6v-4.6c1.7-4.1,3.9-6.2,6.5-6.2h9.7c1.4,0,2.9,0.7,4.3,2.1c1.4,1.4,2.1,2.8,2.1,4.3V375.4z M9.5,374
		v-4.8c0-0.8-0.4-1.5-1.1-1.9c-0.7-0.4-1.4-0.6-2.2-0.6c-0.8,0-1.6,0.2-2.2,0.6c-0.7,0.5-1.1,1.2-1.1,1.9v4.8c0,0.8,0.3,1.4,1,1.9
		c0.6,0.5,1.3,0.7,2.1,0.7c0.9,0,1.7-0.2,2.4-0.6C9.1,375.5,9.5,374.8,9.5,374z"/>
	<path fill="#FFFFFF" d="M49.8,372.9c0,2-0.8,4-2.5,5.9c-1.7,2-3.6,3-5.6,3H31c-2,0-3.8-1-5.6-3c-1.7-2-2.5-3.9-2.5-5.9V361h7.9
		v10.7c0,1.5,0.6,2.7,1.8,3.5c1,0.8,2.3,1.1,3.9,1.1c1.5,0,2.8-0.4,3.8-1.2c1.1-0.9,1.7-2,1.7-3.5v-8.9c0-1-0.7-1.9-2.1-2.6
		c-0.2,0.7-0.4,1.5-0.4,2.4c0,0.6,0,1.4,0.1,2.5c0.1,1.1,0.1,2,0.1,2.5h-6.9v-6.3c0-0.6,0.5-1.6,1.5-2.8c-1.3-0.5-2.7-1-4-1.6
		c-1.1-0.7-1.6-1.6-1.6-2.7V350c0-1.2,0.5-2.2,1.6-3.2c1-1,2.1-1.5,3.3-1.5h5.5c3.2,0,4.9,2.2,4.9,6.7c0,1.6-0.1,2.6-0.3,2.9
		c-0.5,0.5-1.1,1.2-1.7,1.9c1.8,0.7,2.9,1.1,3.3,1.3c1.2,0.5,2.2,1.2,3,2c1,1,1.5,2.2,1.5,3.8V372.9z M38.2,352.7
		c0-0.5-0.2-1-0.5-1.5s-0.8-0.6-1.3-0.6c-0.5,0-1,0.2-1.3,0.6c-0.4,0.4-0.6,0.9-0.6,1.4s0.2,1,0.5,1.4c0.4,0.4,0.8,0.6,1.3,0.6
		c0.5,0,1-0.2,1.3-0.6C38,353.8,38.2,353.3,38.2,352.7z"/>
	<path fill="#FFFFFF" d="M88,381.3h-7.4v-13c0-0.7-0.2-1.2-0.7-1.7s-1-0.7-1.7-0.7c-0.6,0-1.2,0.2-1.7,0.7c-0.5,0.5-0.7,1-0.7,1.7v5
		h-7.2v-5c0-0.7-0.2-1.2-0.7-1.7c-0.5-0.5-1-0.7-1.7-0.7c-0.6,0-1.1,0.3-1.5,0.8s-0.7,1-0.7,1.6v13h-7.6v-15.6
		c0-2.3,1.6-4.7,4.9-6.9c2-1.3,5.1-3.3,9.1-6c3.3-2.3,4.9-4.7,4.9-7.3H83v3.6c-0.9,1.9-2.4,3.7-4.4,5.2c-1.3,1-3.3,2.1-6,3.4
		c-2.7,1.3-4.4,2.2-5.2,2.8c1.3,0.2,2.2,0.4,2.6,0.5c0.6,0.3,1.3,0.8,2.2,1.7c1.6-1.3,3-2,4-2h5.2c1.5,0,3,0.7,4.4,2.2
		s2.2,2.9,2.2,4.4V381.3z"/>
	<path fill="#FFFFFF" d="M116.1,374.8c0,1.4-0.8,2.9-2.3,4.4c-1.6,1.5-3,2.3-4.5,2.3h-8.6c-1.4,0-2.8-0.7-4.2-2.1
		c-1.5-1.4-2.2-2.8-2.2-4.1v-8.6h7.8v6.6c0,0.9,0.3,1.6,0.9,2.2c0.6,0.6,1.4,0.9,2.3,0.9c0.7,0,1.4-0.3,2-1c0.6-0.6,1-1.3,1-2.1
		v-19.6c0-0.8-0.3-1.6-0.9-2.1c-0.6-0.6-1.4-0.9-2.2-0.9c-1.4,0-2.3,0.6-2.7,1.8c-0.2,0.6-0.3,1.8-0.3,3.6h-7.8v-4.4
		c1.6-4.1,3.9-6.2,6.8-6.2h8c1.5,0,3,0.7,4.6,2.2c1.6,1.5,2.4,2.9,2.4,4.4V374.8z"/>
	<path fill="#FFFFFF" d="M152.9,357.8c0,1.5-0.8,3-2.3,4.5c-1.5,1.5-3.1,2.2-4.6,2.2h-5.6c-1.5,0-3-0.7-4.6-2.2
		c-1.6-1.5-2.3-3-2.3-4.5v-5.2c0-1.1-0.7-1.6-2-1.6c-1.2,0-1.8,0.5-1.8,1.6v7.1c0,2.8,1.3,5,3.8,6.6c1.5,1,4.1,1.9,7.6,2.9
		c2.8,0.8,4.6,1.3,5.4,1.7c1.7,0.9,3,2.2,3.8,3.9c0.5,1.5,0.8,2.4,1,2.7v4h-7.9c0-4.3-2.4-6.9-7.2-7.9c-2.1-0.4-4.5-0.6-7.2-0.6
		c-2.3,0-3.9,0.1-4.7,0.4h-1.4v-5.5h3.4c-0.9-1.1-1.8-2.2-2.6-3.4c-0.8-1.3-1.2-2.3-1.2-3.2v-9.7c0-1.4,0.7-2.7,2-4
		c1.4-1.3,2.7-2,4.1-2h5.2c0.8,0,1.5,0.4,2.2,1.1c0.6,0.8,0.9,1.2,1,1.3c1.5-1.6,2.9-2.4,4.3-2.4h5.4c1.5,0,2.9,0.7,4.3,2.1
		c1.4,1.4,2.1,2.8,2.1,4.3V357.8z M145.1,355.2c0-1.4-0.1-2.3-0.2-2.7c-0.3-0.9-0.9-1.3-2-1.3c-1,0-1.6,0.4-1.9,1.2
		c-0.2,0.4-0.2,1.3-0.2,2.5v0.7c0,1.1,0.1,1.8,0.3,2.3c0.3,0.6,0.9,1,1.9,1c1,0,1.6-0.4,1.9-1.2
		C145.1,357.3,145.1,356.5,145.1,355.2z"/>
	<path fill="#FFFFFF" d="M181.1,381.6h-7.8v-27.7c0-0.8-0.3-1.6-1-2.1s-1.4-0.9-2.3-0.9c-0.7,0-1.4,0.3-2.1,0.9c-0.6,0.6-1,1.3-1,2
		v27.7h-7.8v-28.9c0-1.5,0.7-3,2.2-4.5c1.5-1.5,2.9-2.3,4.4-2.3h8.6c1.5,0,3,0.7,4.4,2.2c1.4,1.5,2.1,3,2.1,4.5V381.6z"/>
	<path fill="#FFFFFF" d="M208.6,375c0,1.6-0.8,3-2.5,4.5c-1.6,1.4-3.2,2-4.8,2h-7.3c-1.5,0-3-0.7-4.5-2.1c-1.5-1.4-2.2-2.9-2.2-4.4
		v-8.2h7.5v6.9c0,0.7,0.4,1.3,1.1,1.8c0.7,0.5,1.4,0.7,2.1,0.7c0.6,0,1.3-0.3,2-0.8c0.7-0.5,1-1.1,1-1.8v-12.9
		c0-0.9-0.5-1.8-1.6-2.7c-0.7-0.6-1.8-1.5-3.3-2.8s-2.6-2.8-3.4-4.6v-4.7h7.5c0,2,0.5,3.7,1.5,5c0.5,0.6,1.8,1.8,4,3.5
		c1.9,1.5,2.9,2.8,2.9,3.9V375z"/>
	<path fill="#FFFFFF" d="M-37.6,444c0,1.5-0.7,3-2.2,4.5s-2.9,2.3-4.4,2.3h-10.2c-1.5,0-3-0.8-4.4-2.3s-2.2-3-2.2-4.5v-7.2
		c0-1.7,0.6-3.1,1.7-4.1c0.7-0.7,2-1.5,4-2.4c1.7-0.8,2.5-1.5,2.5-2.1v-4.8c0-0.8-0.5-1.2-1.6-1.5c-0.7-0.1-1.8-0.4-3.3-0.7
		c-1.3-0.4-2.3-1.2-2.7-2.3v-4.4h7.8c0,1.5,0.6,2.5,1.9,2.9c1.1,0.2,2.2,0.4,3.4,0.6c1.4,0.4,2.1,1.1,2.1,2.1v8
		c0,0.4,0.9,1.1,2.7,2.1c2.1,1.2,3.3,1.8,3.5,2c1,0.9,1.5,2.3,1.5,4.4V444z M-45.1,439.9c0-1.4-0.4-2.5-1.2-3.5
		c-0.8-1.1-1.9-1.6-3.2-1.6c-1.3,0-2.3,0.6-3.1,1.8c-0.7,1.1-1,2.3-1,3.6s0.4,2.5,1.2,3.5c0.8,1.1,1.9,1.6,3.2,1.6
		c1.3,0,2.3-0.6,3.1-1.8C-45.4,442.5-45.1,441.3-45.1,439.9z"/>
	<path fill="#FFFFFF" d="M-10,443.9c0,1.6-0.8,3-2.5,4.5c-1.6,1.4-3.2,2-4.8,2h-7.3c-1.5,0-3-0.7-4.5-2.1c-1.5-1.4-2.2-2.9-2.2-4.4
		v-8.2h7.5v6.9c0,0.7,0.4,1.3,1.1,1.8c0.7,0.5,1.4,0.7,2.1,0.7c0.6,0,1.3-0.3,2-0.8c0.7-0.5,1-1.1,1-1.8v-12.9
		c0-0.9-0.5-1.8-1.6-2.7c-0.7-0.6-1.8-1.5-3.3-2.8c-1.4-1.3-2.6-2.8-3.4-4.6v-4.7h7.5c0,2,0.5,3.7,1.5,5c0.5,0.6,1.8,1.8,4,3.5
		c1.9,1.5,2.9,2.8,2.9,3.9V443.9z"/>
	<path fill="#FFFFFF" d="M31.5,450.4h-7.8v-28.9c0-1.3-0.9-2-2.6-2c-0.6,0-1.2,0.2-1.6,0.5c-0.5,0.4-0.8,0.9-0.8,1.5v22.3
		c0,1.4-0.8,2.9-2.4,4.4c-1.6,1.5-3.1,2.2-4.6,2.2H3.2c-1.5,0-3-0.7-4.6-2.2s-2.4-2.9-2.4-4.4v-23.1c0-1.5,0.8-2.9,2.4-4.4
		c1.6-1.5,3.1-2.2,4.6-2.2h6.6c1.6,0.2,3.2,1,4.9,2.4c0.8-0.6,1.5-1.1,2.3-1.7c0.8-0.5,1.6-0.7,2.3-0.7h6.4c1.3,0,2.6,0.6,3.9,1.7
		c1.3,1.2,1.9,2.4,1.9,3.7V450.4z M10.6,442.2v-20.1c0-0.6-0.4-1.2-1.2-1.8c-0.7-0.5-1.4-0.8-2.1-0.8c-0.7,0-1.4,0.3-2.1,0.8
		c-0.7,0.5-1.1,1.1-1.1,1.8v20.1c0,0.7,0.4,1.4,1.1,2c0.7,0.6,1.4,0.8,2.1,0.8c0.7,0,1.4-0.3,2.1-0.9S10.6,442.9,10.6,442.2z"/>
	<path fill="#FFFFFF" d="M63.6,444.8c0,1.3-0.9,2.6-2.6,3.9c-1.6,1.2-3.2,1.8-4.5,1.8h-9c-1.5,0-2.9-0.7-4.4-2.2
		c-1.4-1.5-2.2-2.9-2.2-4.4v-7.6h7.6v5.8c0,1,0.4,1.7,1.2,2.3c0.7,0.6,1.6,0.8,2.6,0.8c1,0,1.8-0.3,2.6-0.9c0.8-0.6,1.2-1.4,1.2-2.3
		v-19.9c0-0.5-0.2-1-0.6-1.5c-0.4-0.5-0.9-0.7-1.4-0.7c-0.4,0-0.9,0.2-1.2,0.7c-0.4,0.5-0.6,1-0.6,1.4v6h-6.9v-5.4
		c0-0.4-0.2-0.9-0.6-1.2c-0.4-0.4-0.9-0.6-1.3-0.6c-0.1,0-1,0.4-2.6,1.2h-2.8v-7.2c1.1,0.4,1.9,0.6,2.4,0.6c0.3,0,1-0.2,2-0.5
		c1-0.3,1.8-0.5,2.4-0.5c1,0,1.8,0.2,2.5,0.6c0.4,0.3,1.1,0.9,2,1.8c0.3-0.3,0.7-0.7,1.2-1.2c0.7-0.6,1.4-0.9,2-0.9h5.8
		c1.3,0,2.5,0.6,3.7,1.7c1.2,1.2,1.7,2.4,1.7,3.7V444.8z"/>
	<path fill="#FFFFFF" d="M92.1,444.3c0,1.5-0.7,3-2.2,4.4s-3,2.2-4.5,2.2h-8.9c-1.5,0-3-0.7-4.5-2.2c-1.5-1.4-2.3-2.9-2.3-4.4v-7.4
		c0-1.5,0.8-2.9,2.2-4.4c1.5-1.4,3-2.2,4.5-2.2h7.9v-7.1c0-0.9-0.4-1.7-1.2-2.3c-0.7-0.6-1.6-0.8-2.6-0.8c-2.4,0-3.6,1.5-3.6,4.5
		v0.4c0,0.1,0,0.3,0,0.4h-7.6v-4.6c1.7-4.1,3.9-6.2,6.5-6.2h9.7c1.4,0,2.9,0.7,4.3,2.1c1.4,1.4,2.1,2.8,2.1,4.3V444.3z M84.2,442.9
		v-4.8c0-0.8-0.4-1.5-1.1-1.9c-0.7-0.4-1.4-0.6-2.2-0.6c-0.8,0-1.6,0.2-2.2,0.6c-0.7,0.5-1.1,1.2-1.1,1.9v4.8c0,0.8,0.3,1.4,1,1.9
		c0.6,0.5,1.3,0.7,2.1,0.7c0.9,0,1.7-0.2,2.4-0.6C83.8,444.4,84.2,443.8,84.2,442.9z"/>
	<path fill="#FFFFFF" d="M120.1,450.5h-7.8v-27.7c0-0.8-0.3-1.6-1-2.1c-0.6-0.6-1.4-0.9-2.3-0.9c-0.7,0-1.4,0.3-2.1,0.9
		c-0.6,0.6-1,1.3-1,2v27.7h-7.8v-28.9c0-1.5,0.7-3,2.2-4.5c1.5-1.5,2.9-2.3,4.4-2.3h8.6c1.5,0,3,0.7,4.4,2.2c1.4,1.5,2.1,3,2.1,4.5
		V450.5z"/>
</g>
<g>
	<path fill="#FFFFFF" d="M315.5,312.8h-7.7v-25.1c-0.9,0.1-2.1,0.6-3.8,1.7h-0.6V283c3-1.2,5.1-3.5,6.3-6.9h5.9V312.8z"/>
	<path fill="#FFFFFF" d="M343,290c0,2.8-2.1,6.4-6.5,10.7c-2.1,2.1-4.1,4.1-6.1,6.1h12v5.6h-21v-4.8c0-0.4,2-2.7,5.9-7
		c1.5-1.7,2.7-3.1,3.7-4.4c0.5-0.5,1.2-1.3,2.1-2.3c1.4-1.6,2.1-3.1,2.1-4.3V284c0-1.9-1.1-2.8-3.2-2.8c-1.3,0-2.2,0.4-2.6,1.3
		c-0.3,0.6-0.4,1.6-0.4,3.2v1.3h-7.6v-4.4c0-1.4,0.8-2.8,2.3-4.3c1.5-1.4,3-2.1,4.4-2.1h8.4c1.5,0,2.9,0.7,4.3,2.2s2.1,2.9,2.1,4.4
		V290z"/>
	<path fill="#FFFFFF" d="M371.3,281.2l-15,31.2h-7.5l14.6-30.7h-14.8v-5.5h22.7V281.2z"/>
	<path fill="#FFFFFF" d="M315.7,381.7H308v-25.1c-0.9,0.1-2.1,0.6-3.8,1.7h-0.6V352c3-1.2,5.1-3.5,6.3-6.9h5.9V381.7z"/>
	<path fill="#FFFFFF" d="M343.8,376c0,1.5-0.8,2.8-2.4,4.1c-1.5,1.2-3,1.8-4.5,1.8h-7.6c-1.7,0-3.4-0.7-5-2.1
		c-1.7-1.4-2.5-3-2.5-4.6v-23c0-1.6,0.8-3.2,2.4-4.6c1.6-1.4,3.2-2.1,4.9-2.1h7c3.5,0,6.1,2,7.7,5.9v4.7H336c0-1.7-0.1-2.9-0.4-3.6
		c-0.5-1.1-1.4-1.7-2.9-1.7c-2.2,0-3.3,1-3.3,3v7.5h9.4c1.3,0,2.4,0.5,3.4,1.5s1.5,2.1,1.5,3.4V376z M335.8,373.9v-4.7
		c0-0.7-0.3-1.4-1-1.9c-0.6-0.5-1.3-0.7-2.1-0.7s-1.4,0.3-2.1,0.8c-0.6,0.5-1,1.1-1,1.9v4.7c0,0.7,0.3,1.3,1,1.9
		c0.6,0.5,1.3,0.7,2,0.7c0.7,0,1.4-0.3,2.1-0.8C335.5,375.2,335.8,374.6,335.8,373.9z"/>
	<path fill="#FFFFFF" d="M371.6,374.9c0,1.8-0.8,3.5-2.3,4.9c-1.5,1.5-3.2,2.2-5,2.2h-6.9c-1.8,0-3.4-0.6-4.9-1.8
		c-1.4-1.1-2.3-2.6-2.9-4.3v-4.5h7.8c0,1.7,0.1,2.9,0.4,3.6c0.5,1.1,1.4,1.7,2.8,1.7c0.9,0,1.6-0.3,2.3-0.9c0.6-0.6,1-1.3,1-2.2
		v-7.5h-9.8c-0.9,0-1.9-0.5-2.9-1.5s-1.5-2-1.5-2.9V352c0-1.7,0.7-3.2,2.2-4.6c1.4-1.3,3-2,4.7-2h7.6c1.7,0,3.4,0.7,5,2.1
		c1.7,1.5,2.5,3.1,2.5,4.8V374.9z M363.7,358.1v-4.7c0-0.7-0.3-1.4-1-1.9c-0.6-0.5-1.3-0.7-2-0.7c-0.8,0-1.5,0.2-2.1,0.7
		c-0.6,0.5-1,1.2-1,1.9v4.7c0,0.7,0.3,1.4,1,1.9c0.6,0.5,1.3,0.8,2.1,0.8c0.8,0,1.4-0.3,2.1-0.8
		C363.3,359.5,363.7,358.9,363.7,358.1z"/>
	<path fill="#FFFFFF" d="M316.5,427.9c0,2.8-2.1,6.4-6.5,10.7c-2.1,2.1-4.1,4.1-6.1,6.1h12v5.6h-21v-4.8c0-0.4,2-2.7,5.9-7
		c1.5-1.7,2.7-3.1,3.7-4.4c0.5-0.5,1.2-1.3,2.1-2.3c1.4-1.6,2.1-3.1,2.1-4.3v-5.6c0-1.9-1.1-2.8-3.2-2.8c-1.3,0-2.2,0.4-2.6,1.3
		c-0.3,0.6-0.4,1.6-0.4,3.2v1.3H295v-4.4c0-1.4,0.8-2.8,2.3-4.3c1.5-1.4,3-2.1,4.4-2.1h8.4c1.5,0,2.9,0.7,4.3,2.2
		c1.4,1.5,2.1,2.9,2.1,4.4V427.9z"/>
	<path fill="#FFFFFF" d="M344,443.8c0,1.9-0.8,3.4-2.3,4.7c-1.5,1.2-3.2,1.8-5.1,1.8H330c-2.1,0-3.9-0.6-5.4-1.9
		c-1.6-1.3-2.4-3-2.4-5.1v-5h7.8c0,0.2,0,0.5,0,0.8c0,0.4,0,0.6,0,0.8c0,1.7,0.1,2.8,0.4,3.5c0.4,1.1,1.4,1.6,2.8,1.6
		c0.7,0,1.4-0.3,2-0.9c0.6-0.6,0.9-1.2,0.9-1.9V438c0-1.5-1.1-2.5-3.2-3v-5.4c2.1,0,3.2-0.9,3.2-2.8v-4.6c0-0.8-0.3-1.4-1-2
		c-0.7-0.5-1.4-0.8-2.2-0.8c-1.4,0-2.3,0.7-2.7,2c-0.2,0.6-0.3,1.9-0.3,3.8h-7.8v-4.4c0.1-0.4,0.3-1,0.6-1.8
		c0.5-1.3,1.3-2.4,2.3-3.4c1-0.9,2.4-1.4,4.1-1.4h7.8c2.2,0,4.1,0.9,5.7,2.7c0.9,1,1.3,2.4,1.3,4.1v6.4c0,0.9-0.4,1.7-1.2,2.4
		c-0.3,0.2-1.1,0.7-2.4,1.4c1.6,0.9,2.4,1.4,2.5,1.5c0.7,0.6,1.1,1.4,1.1,2.5V443.8z"/>
	<path fill="#FFFFFF" d="M371.8,444.3c0,1.8-0.8,3.3-2.3,4.6c-1.5,1.3-3.1,1.9-4.9,1.9h-7.7c-1.8,0-3.4-0.6-4.9-1.9
		c-1.5-1.3-2.3-2.9-2.3-4.6v-8.4c0-1.4,0.5-2.6,1.5-3.6c1-0.9,2.1-1.5,3.5-1.7v-0.4c-1.1,0-2.1-0.3-2.9-0.9
		c-0.9-0.7-1.4-1.5-1.4-2.6v-6.9c0-1.5,0.8-2.8,2.3-4c1.4-1.1,2.9-1.6,4.4-1.6h7c1.5,0,3,0.5,4.4,1.6c1.5,1.2,2.3,2.5,2.3,4v6.9
		c0,1-0.4,1.8-1.3,2.5c-0.9,0.7-1.8,1-2.8,1v0.4c1.4,0.3,2.5,0.9,3.4,1.8c1,1,1.5,2.2,1.5,3.5V444.3z M363.9,442.7v-5.1
		c0-0.7-0.3-1.3-1-1.9c-0.6-0.5-1.3-0.8-2-0.8c-0.7,0-1.4,0.3-2.1,0.8c-0.7,0.5-1,1.2-1,1.9v5.1c0,0.7,0.3,1.4,1,1.9
		c0.6,0.5,1.3,0.8,2.1,0.8c0.7,0,1.4-0.3,2.1-0.8C363.6,444,363.9,443.4,363.9,442.7z M363,426.1v-4.3c0-0.5-0.2-1-0.7-1.4
		c-0.5-0.4-1-0.6-1.5-0.6c-0.6,0-1.1,0.2-1.6,0.6c-0.6,0.4-0.8,0.9-0.8,1.4v4.3c0,0.6,0.2,1.2,0.7,1.7c0.4,0.5,1,0.7,1.6,0.7
		c0.7,0,1.3-0.2,1.7-0.7C362.8,427.4,363,426.8,363,426.1z"/>
</g>
<g>
	<path id="rect3844-6_1_" fill="#FFFFFF" stroke="#000000" d="M455.7,239.2h463.9c11.5,0,20.8,9.3,20.8,20.8v216.4
		c0,11.5-9.3,20.8-20.8,20.8H455.7c-11.5,0-20.8-9.3-20.8-20.8V260C434.8,248.5,444.2,239.2,455.7,239.2z"/>
	<path id="rect9536_1_" fill="#FFFFFF" stroke="#000000" stroke-miterlimit="10" d="M919.6,248.1c6.5,0,11.8,5.3,11.8,11.8v215.4
		c0,6.5-5.3,11.8-11.8,11.8H455.7c-6.5,0-11.8-5.3-11.8-11.8V260c0-6.6,5.3-11.8,11.8-11.8H919.6z"/>
</g>
<g>
	<path d="M484.8,312.3c0,1.5-0.7,2.9-2.2,4.4c-1.5,1.5-2.9,2.2-4.4,2.2h-10.8c-1.5,0-3-0.7-4.4-2.2c-1.5-1.4-2.2-2.9-2.2-4.4v-8
		c0-2.1,0.7-3.5,2.1-4.4c0.3-0.2,2-0.8,5-1.9c2.7-0.9,4.1-2,4.1-3.2v-5c0-1.1-0.6-1.6-1.8-1.6c-1.3,0-1.9,0.9-1.9,2.8
		c0,0.4,0,0.7,0.1,1.1v1.1h-7.6v-4.2c0.7-1.5,1.2-2.4,1.5-2.9c0.6-1,1.3-1.8,2.2-2.4c0.8-0.6,1.8-0.9,2.9-0.9h5.4
		c1.4,0,2.9,0.7,4.4,2.2s2.2,2.9,2.2,4.4v7c0,0.5,0.6,1.2,1.9,2c0.9,0.6,1.8,1.2,2.6,1.8c0.6,0.5,0.9,1.5,0.9,2.8V312.3z
		 M476.9,308.3c0-1.7-0.3-2.9-0.8-3.7c-0.6-0.9-1.8-1.3-3.4-1.3c-2.8,0-4.2,1.7-4.2,5c0,1.7,0.3,2.9,0.8,3.6
		c0.6,0.9,1.8,1.3,3.4,1.3C475.5,313.3,476.9,311.6,476.9,308.3z"/>
	<path d="M513.9,312.9c0,1.5-0.7,3-2.2,4.4c-1.5,1.4-3,2.2-4.5,2.2h-8.9c-1.5,0-3-0.7-4.5-2.2c-1.5-1.4-2.3-2.9-2.3-4.4v-7.4
		c0-1.5,0.8-2.9,2.2-4.4s3-2.2,4.5-2.2h7.9v-7.1c0-0.9-0.4-1.7-1.2-2.4c-0.7-0.6-1.6-0.8-2.6-0.8c-2.4,0-3.6,1.5-3.6,4.5v0.4
		c0,0.1,0,0.3,0,0.4h-7.6v-4.6c1.7-4.1,3.9-6.2,6.5-6.2h9.7c1.4,0,2.9,0.7,4.3,2.1c1.4,1.4,2.1,2.8,2.1,4.3V312.9z M506,311.6v-4.8
		c0-0.8-0.4-1.5-1.1-1.9c-0.7-0.4-1.4-0.6-2.2-0.6c-0.8,0-1.6,0.2-2.2,0.6c-0.7,0.5-1.1,1.2-1.1,1.9v4.8c0,0.8,0.3,1.4,1,1.9
		c0.6,0.5,1.3,0.7,2.1,0.7c0.9,0,1.7-0.2,2.4-0.6C505.6,313.1,506,312.4,506,311.6z"/>
	<path d="M541.9,319.2h-7.8v-27.7c0-0.8-0.3-1.6-1-2.1s-1.4-0.9-2.3-0.9c-0.7,0-1.4,0.3-2.1,0.9c-0.6,0.6-1,1.3-1,2v27.7h-7.8v-28.9
		c0-1.5,0.7-3,2.2-4.5c1.5-1.5,2.9-2.3,4.4-2.3h8.6c1.5,0,3,0.7,4.4,2.2c1.4,1.5,2.1,3,2.1,4.5V319.2z"/>
	<path d="M580.6,318.8h-7.4v-13c0-0.7-0.2-1.2-0.7-1.7s-1-0.7-1.7-0.7c-0.6,0-1.2,0.2-1.7,0.7c-0.5,0.5-0.7,1-0.7,1.7v5h-7.2v-5
		c0-0.7-0.2-1.2-0.7-1.7c-0.5-0.5-1-0.7-1.7-0.7c-0.6,0-1.1,0.3-1.5,0.8c-0.5,0.5-0.7,1-0.7,1.6v13h-7.6v-15.6
		c0-2.3,1.6-4.7,4.9-6.9c2-1.3,5.1-3.3,9.1-6c3.3-2.3,4.9-4.7,4.9-7.3h7.6v3.6c-0.9,1.9-2.4,3.7-4.4,5.2c-1.3,1-3.3,2.1-6,3.4
		c-2.7,1.3-4.4,2.2-5.2,2.8c1.3,0.2,2.2,0.4,2.6,0.5c0.6,0.3,1.3,0.8,2.2,1.7c1.6-1.3,3-2,4-2h5.2c1.5,0,3,0.7,4.4,2.2
		c1.4,1.4,2.2,2.9,2.2,4.4V318.8z"/>
	<path d="M621.9,319.1H614v-28.9c0-1.3-0.9-2-2.6-2c-0.6,0-1.2,0.2-1.6,0.5c-0.5,0.4-0.8,0.9-0.8,1.5v22.3c0,1.4-0.8,2.9-2.4,4.4
		c-1.6,1.5-3.1,2.2-4.6,2.2h-8.4c-1.5,0-3-0.7-4.6-2.2s-2.4-2.9-2.4-4.4v-23.1c0-1.5,0.8-2.9,2.4-4.4c1.6-1.5,3.1-2.2,4.6-2.2h6.6
		c1.6,0.2,3.2,1,4.9,2.4c0.8-0.6,1.5-1.1,2.3-1.7c0.8-0.5,1.6-0.7,2.3-0.7h6.4c1.3,0,2.7,0.6,3.9,1.7c1.3,1.2,1.9,2.4,1.9,3.7V319.1
		z M601,310.8v-20.1c0-0.6-0.4-1.2-1.2-1.8c-0.7-0.5-1.4-0.8-2.1-0.8c-0.7,0-1.4,0.3-2.1,0.8c-0.7,0.5-1.1,1.1-1.1,1.8v20.1
		c0,0.7,0.4,1.4,1.1,2c0.7,0.6,1.4,0.8,2.1,0.8c0.7,0,1.4-0.3,2.1-0.9C600.6,312.2,601,311.5,601,310.8z"/>
	<path d="M649.3,312.6c0,1.6-0.8,3-2.5,4.5c-1.6,1.4-3.2,2-4.8,2h-7.3c-1.5,0-3-0.7-4.5-2.1s-2.2-2.9-2.2-4.4v-8.2h7.5v6.9
		c0,0.7,0.4,1.3,1.1,1.8c0.7,0.5,1.4,0.7,2.1,0.7c0.6,0,1.3-0.3,2-0.8c0.7-0.5,1-1.1,1-1.8v-12.9c0-0.9-0.5-1.8-1.6-2.7
		c-0.7-0.6-1.8-1.5-3.3-2.8s-2.6-2.8-3.4-4.6v-4.7h7.5c0,2,0.5,3.7,1.5,5c0.5,0.6,1.8,1.8,4,3.5c1.9,1.5,2.9,2.8,2.9,3.9V312.6z"/>
	<path d="M471.2,344.9c0,0.7-0.4,1.5-1.1,2.2s-1.5,1.1-2.2,1.1h-4.4c-0.7,0-1.5-0.4-2.2-1.1s-1.1-1.4-1.1-2.2v-3.6
		c0-0.7,0.4-1.4,1.1-2.1c0.7-0.7,1.5-1.1,2.2-1.1h3.9v-3.5c0-0.5-0.2-0.8-0.6-1.1c-0.4-0.3-0.8-0.4-1.2-0.4c-1.2,0-1.8,0.7-1.8,2.2
		v0.2c0,0.1,0,0.1,0,0.2h-3.7v-2.2c0.8-2,1.9-3,3.2-3h4.8c0.7,0,1.4,0.3,2.1,1s1,1.4,1,2.1V344.9z M467.3,344.2v-2.3
		c0-0.4-0.2-0.7-0.5-0.9c-0.3-0.2-0.7-0.3-1.1-0.3c-0.4,0-0.8,0.1-1.1,0.3c-0.4,0.2-0.5,0.6-0.5,0.9v2.3c0,0.4,0.2,0.7,0.5,0.9
		c0.3,0.2,0.7,0.3,1,0.3c0.4,0,0.8-0.1,1.2-0.3C467.1,344.9,467.3,344.6,467.3,344.2z"/>
	<path d="M489.3,347.9h-3.7v-14.1c0-0.6-0.4-1-1.2-1s-1.2,0.3-1.2,1v5.5h-3.4v-5.5c0-0.6-0.4-1-1.2-1c-0.7,0-1.1,0.3-1.1,1v14.1H474
		v-15c0-0.6,0.3-1.2,0.8-1.8s1.1-0.8,1.8-0.8h3.4c0.4,0,0.7,0.1,1,0.4c0.1,0.1,0.4,0.4,0.7,0.9c0.7-0.8,1.2-1.3,1.7-1.3h3.3
		c0.6,0,1.2,0.3,1.8,0.8s0.8,1.1,0.8,1.8V347.9z"/>
	<path d="M507.2,336.3c0,0.7-0.4,1.5-1.1,2.2s-1.5,1.1-2.3,1.1h-2.7c-0.7,0-1.5-0.4-2.2-1.1s-1.1-1.5-1.1-2.2v-2.5
		c0-0.5-0.3-0.8-1-0.8c-0.6,0-0.9,0.3-0.9,0.8v3.5c0,1.4,0.6,2.4,1.9,3.2c0.7,0.5,2,0.9,3.7,1.4c1.4,0.4,2.3,0.7,2.6,0.8
		c0.9,0.4,1.5,1.1,1.9,1.9c0.2,0.7,0.4,1.2,0.5,1.3v1.9h-3.9c0-2.1-1.2-3.4-3.5-3.9c-1-0.2-2.2-0.3-3.5-0.3c-1.1,0-1.9,0.1-2.3,0.2
		h-0.7v-2.7h1.7c-0.4-0.5-0.9-1.1-1.3-1.6c-0.4-0.6-0.6-1.1-0.6-1.6v-4.8c0-0.7,0.3-1.3,1-2s1.3-1,2-1h2.5c0.4,0,0.8,0.2,1.1,0.5
		c0.3,0.4,0.5,0.6,0.5,0.6c0.7-0.8,1.4-1.2,2.1-1.2h2.6c0.7,0,1.4,0.3,2.1,1s1,1.4,1,2.1V336.3z M503.4,335c0-0.7,0-1.1-0.1-1.3
		c-0.1-0.4-0.5-0.6-1-0.6c-0.5,0-0.8,0.2-0.9,0.6c-0.1,0.2-0.1,0.6-0.1,1.2v0.4c0,0.5,0.1,0.9,0.2,1.1c0.2,0.3,0.5,0.5,0.9,0.5
		c0.5,0,0.8-0.2,0.9-0.6C503.4,336,503.4,335.6,503.4,335z"/>
	<path d="M520.8,344.6c0,0.7-0.4,1.4-1.1,2.1s-1.5,1.1-2.2,1.1h-4.2c-0.7,0-1.4-0.3-2.1-1s-1.1-1.4-1.1-2v-4.2h3.8v3.2
		c0,0.4,0.2,0.8,0.5,1.1s0.7,0.4,1.1,0.4c0.4,0,0.7-0.2,1-0.5s0.5-0.7,0.5-1v-9.6c0-0.4-0.2-0.8-0.5-1s-0.7-0.4-1.1-0.4
		c-0.7,0-1.1,0.3-1.3,0.9c-0.1,0.3-0.1,0.9-0.1,1.8h-3.8v-2.2c0.8-2,1.9-3,3.3-3h3.9c0.7,0,1.5,0.4,2.3,1.1s1.2,1.4,1.2,2.2V344.6z"
		/>
	<path d="M534.3,344.7c0,0.8-0.4,1.5-1.2,2.2c-0.8,0.7-1.6,1-2.3,1h-3.6c-0.7,0-1.5-0.3-2.2-1s-1.1-1.4-1.1-2.1v-4h3.7v3.4
		c0,0.3,0.2,0.6,0.5,0.9c0.3,0.2,0.7,0.4,1,0.4c0.3,0,0.6-0.1,1-0.4s0.5-0.6,0.5-0.9v-6.3c0-0.4-0.3-0.9-0.8-1.3
		c-0.4-0.3-0.9-0.7-1.6-1.4s-1.3-1.4-1.7-2.2v-2.3h3.6c0,1,0.2,1.8,0.8,2.4c0.2,0.3,0.9,0.9,2,1.7c0.9,0.8,1.4,1.4,1.4,1.9V344.7z"
		/>
	<path d="M548,344.7c0,0.8-0.4,1.5-1.1,2.3s-1.5,1.1-2.3,1.1h-3.8c-0.8,0-1.5-0.4-2.2-1.2s-1.1-1.6-1.1-2.3v-11
		c0-0.9,0.4-1.7,1.3-2.4c0.8-0.6,1.6-0.9,2.6-0.9c0.4,0,1,0.1,1.8,0.2s1.5,0.2,1.9,0.2c0.9,0,1.7-0.1,2.3-0.4h0.2v3.5h-2.1
		c-1.7-0.5-2.8-0.7-3.2-0.7c-0.3,0-0.6,0.1-0.8,0.3s-0.4,0.5-0.4,0.8v3.5h4.1c0.6,0,1.3,0.3,1.8,0.9s0.9,1.2,0.9,1.8V344.7z
		 M544.1,344.3v-2.6c0-0.3-0.1-0.6-0.4-0.8s-0.6-0.3-0.9-0.3c-0.3,0-0.7,0.1-0.9,0.3c-0.3,0.2-0.4,0.5-0.4,0.9v2.6
		c0,0.4,0.1,0.6,0.4,0.8s0.6,0.3,0.9,0.3c0.3,0,0.6-0.1,0.9-0.3S544.1,344.6,544.1,344.3z"/>
	<path d="M561.9,347.9h-3.8v-13.5c0-0.4-0.2-0.8-0.5-1s-0.7-0.4-1.1-0.4c-0.4,0-0.7,0.2-1,0.5c-0.3,0.3-0.5,0.6-0.5,1v13.5h-3.8
		v-14.1c0-0.7,0.4-1.5,1.1-2.2s1.4-1.1,2.1-1.1h4.2c0.8,0,1.5,0.4,2.2,1.1s1,1.5,1,2.2V347.9z"/>
	<path d="M495.7,416.8h-7.8v-28.9c0-1.3-0.9-2-2.6-2c-0.6,0-1.2,0.2-1.6,0.5c-0.5,0.4-0.8,0.9-0.8,1.5v22.3c0,1.4-0.8,2.9-2.4,4.4
		s-3.1,2.2-4.6,2.2h-8.4c-1.5,0-3-0.7-4.6-2.2s-2.4-2.9-2.4-4.4v-23.1c0-1.5,0.8-2.9,2.4-4.4c1.6-1.5,3.1-2.2,4.6-2.2h6.6
		c1.6,0.2,3.2,1,4.9,2.4c0.8-0.6,1.5-1.1,2.3-1.7c0.8-0.5,1.6-0.7,2.3-0.7h6.4c1.3,0,2.6,0.6,3.9,1.7c1.3,1.2,1.9,2.4,1.9,3.7V416.8
		z M474.8,408.6v-20.1c0-0.6-0.4-1.2-1.2-1.8c-0.7-0.5-1.4-0.8-2.1-0.8c-0.7,0-1.4,0.3-2.1,0.8c-0.7,0.5-1.1,1.1-1.1,1.8v20.1
		c0,0.7,0.4,1.4,1.1,2c0.7,0.6,1.4,0.8,2.1,0.8c0.7,0,1.4-0.3,2.1-0.9S474.8,409.3,474.8,408.6z"/>
	<path d="M523.2,410.3c0,1.6-0.8,3-2.5,4.5c-1.6,1.4-3.2,2-4.8,2h-7.3c-1.5,0-3-0.7-4.5-2.1c-1.5-1.4-2.2-2.9-2.2-4.4v-8.2h7.5v6.9
		c0,0.7,0.4,1.3,1.1,1.8c0.7,0.5,1.4,0.7,2.1,0.7c0.6,0,1.3-0.3,2-0.8c0.7-0.5,1-1.1,1-1.8V396c0-0.9-0.5-1.8-1.6-2.7
		c-0.7-0.6-1.8-1.5-3.3-2.8c-1.4-1.3-2.6-2.8-3.4-4.6v-4.7h7.5c0,2,0.5,3.7,1.5,5c0.5,0.6,1.8,1.8,4,3.5c1.9,1.5,2.9,2.8,2.9,3.9
		V410.3z"/>
	<path d="M551,410.3c0,1.4-0.7,2.8-2.2,4.3c-1.5,1.4-2.9,2.1-4.4,2.1h-9c-1.4,0-2.7-0.7-4.1-2c-1.4-1.4-2.1-2.7-2.1-4.1v-7.8h7.8v6
		c0,0.9,0.3,1.6,1,2.1c0.6,0.5,1.4,0.7,2.2,0.7c0.8,0,1.5-0.3,2.1-0.8c0.6-0.5,0.9-1.2,0.9-2v-7.4c0-1.9-1.1-2.8-3.2-2.8v-5
		c2.1,0,3.2-1.3,3.2-3.8c0-2.6-1.1-4-3.2-4c-1.4,0-2.2,0.6-2.7,1.8c-0.2,0.7-0.4,1.8-0.4,3.6h-7.8v-4.4c2-4.1,4.3-6.2,7.1-6.2h8.2
		c1.5,0,2.9,0.7,4.3,2.1s2.1,2.8,2.1,4.3v4.2c0,1.5-1.3,3-4,4.4c1.4,0.5,2.3,0.9,2.7,1.2c0.9,0.6,1.3,1.4,1.3,2.4V410.3z"/>
	<path d="M578.6,416.9h-7.8v-27.7c0-0.8-0.3-1.6-1-2.1s-1.4-0.9-2.3-0.9c-0.7,0-1.4,0.3-2.1,0.9c-0.6,0.6-1,1.3-1,2v27.7h-7.8V388
		c0-1.5,0.7-3,2.2-4.5c1.5-1.5,2.9-2.3,4.4-2.3h8.6c1.5,0,3,0.7,4.4,2.2c1.4,1.5,2.1,3,2.1,4.5V416.9z"/>
	<path d="M607.1,411.6c0,1.1-0.8,2.3-2.3,3.5c-1.4,1.2-2.7,1.7-3.9,1.7h-9c-1.4,0-2.9-0.7-4.3-2.2c-1.4-1.5-2.1-2.9-2.1-4.4v-29.4
		h7.8v28.4c0,1.7,1.1,2.6,3.2,2.6c0.8,0,1.5-0.2,2.1-0.7c0.6-0.5,0.9-1.1,0.9-1.9v-13h7.6V411.6z"/>
	<path d="M639.4,411.1c0,1.3-0.9,2.6-2.6,3.9c-1.6,1.2-3.2,1.8-4.5,1.8h-9c-1.5,0-2.9-0.7-4.4-2.2c-1.4-1.5-2.2-2.9-2.2-4.4v-7.6
		h7.6v5.8c0,1,0.4,1.7,1.2,2.3c0.7,0.6,1.6,0.8,2.6,0.8c1,0,1.8-0.3,2.6-0.9c0.8-0.6,1.2-1.4,1.2-2.3v-19.9c0-0.5-0.2-1-0.6-1.5
		c-0.4-0.5-0.9-0.7-1.4-0.7c-0.4,0-0.9,0.2-1.2,0.7c-0.4,0.5-0.6,1-0.6,1.4v6h-6.9v-5.4c0-0.4-0.2-0.9-0.6-1.2
		c-0.4-0.4-0.9-0.6-1.3-0.6c-0.1,0-1,0.4-2.6,1.2h-2.8v-7.2c1.1,0.4,1.9,0.6,2.4,0.6c0.3,0,1-0.2,2-0.5c1-0.3,1.8-0.5,2.4-0.5
		c1,0,1.8,0.2,2.5,0.6c0.4,0.3,1.1,0.9,2,1.8c0.3-0.3,0.7-0.7,1.2-1.2c0.7-0.6,1.4-0.9,2-0.9h5.8c1.3,0,2.5,0.6,3.7,1.7
		c1.2,1.2,1.7,2.4,1.7,3.7V411.1z"/>
	<path d="M676.3,410.5c0,1.4-0.8,2.8-2.3,4.2c-1.6,1.4-3,2-4.5,2h-11.2c-1.7,0-3.3-0.8-4.9-2.3s-2.4-3.1-2.4-4.7v-6.6h8v4.6
		c0,1.1,0.5,2.1,1.6,2.8c1,0.7,2,1,3.2,1c1.1,0,2.2-0.3,3.1-1c1-0.8,1.5-1.7,1.5-2.8v-6.6c0-1.3-0.8-2-2.4-2v-4.4
		c1.6,0,2.4-0.5,2.4-1.6v-5.4c0-1.1-0.6-1.6-1.8-1.6c-0.4,0-0.8,0.2-1.1,0.5c-0.3,0.3-0.5,0.7-0.5,1.1v5.4c0,1.5-0.7,2.9-2,4.2
		c-1.3,1.3-2.7,2-4.2,2h-7c-1.5,0-2.9-0.7-4.4-2.1s-2.2-2.8-2.2-4.3v-6.4c0-1.5,0.8-2.8,2.3-4c1.5-1.1,3-1.7,4.5-1.7h5.6
		c1.6,0,2.9,0.7,3.8,2c0.4-0.5,0.9-1,1.6-1.4c0.7-0.4,1.4-0.6,2-0.6h6.4c1.2,0,2.3,0.5,3.3,1.4c1,0.9,1.5,2,1.5,3.2v7.2
		c0,1-0.4,1.8-1.2,2.4c-0.4,0.4-1.2,0.8-2.4,1.4c1.4,0.6,2.2,0.9,2.5,1.1c0.7,0.5,1.1,1.3,1.1,2.3V410.5z M657.5,392.2v-4
		c0-0.5-0.2-1-0.7-1.4c-0.5-0.4-1-0.6-1.5-0.6c-0.6,0-1.1,0.2-1.6,0.6c-0.5,0.4-0.7,0.9-0.7,1.4v4c0,0.5,0.2,0.9,0.7,1.4
		c0.5,0.4,1,0.6,1.5,0.6c0.6,0,1.1-0.2,1.6-0.6C657.2,393.3,657.5,392.8,657.5,392.2z"/>
	<path d="M722.4,396.7H715v-9.1c0-1.1-0.6-1.6-1.8-1.6c-0.4,0-0.7,0.2-1.1,0.5c-0.3,0.3-0.5,0.7-0.5,1.1v6.4h-6.8v-6.4
		c0-1.1-0.6-1.6-1.8-1.6c-1.2,0-1.8,0.5-1.8,1.6v6.4h-6.8v-6.4c0-1.1-0.6-1.6-1.8-1.6c-0.5,0-0.9,0.2-1.3,0.5
		c-0.4,0.3-0.6,0.7-0.6,1.2v9.4c0,3.2,2.8,5.1,8.4,5.9c2.7,0.3,5.4,0.6,8.1,1c3.2,0.5,5.8,1.2,7.7,2.2c1.8,1,3,1.9,3.7,2.9
		c0.4,0.5,1,1.9,1.9,4.3v3.8h-7.4c0-4-2.7-6.6-8-7.8c-2.3-0.5-4.9-0.8-7.7-0.8h-14.1v-4.6h4.6c-1.4-0.6-2.6-1.6-3.7-2.9
		c-1.2-1.5-1.7-2.9-1.7-4.3v-9.2c0-1.5,0.7-2.9,2-4.4c1.4-1.5,2.8-2.2,4.2-2.2h4.4c1.3,0,2.7,0.7,4.2,2.2c0.9-1,1.8-1.6,2.5-1.9
		c0.6-0.2,1.7-0.4,3.1-0.4c1.4,0,2.5,0.1,3.2,0.4c0.7,0.3,1.5,0.9,2.5,1.8c1-1,2-1.7,2.8-1.9c0.6-0.2,1.8-0.3,3.4-0.3
		c2,0,3.6,0.4,5,1.3c1.6,1,2.4,2.5,2.4,4.3V396.7z"/>
	<path d="M750.3,410.1c0,1.4-0.8,2.9-2.3,4.4c-1.6,1.5-3,2.3-4.5,2.3h-8.6c-1.4,0-2.8-0.7-4.2-2.1c-1.5-1.4-2.2-2.8-2.2-4.1v-8.6
		h7.8v6.6c0,0.9,0.3,1.6,0.9,2.2c0.6,0.6,1.4,0.9,2.3,0.9c0.7,0,1.4-0.3,2-1c0.6-0.6,1-1.3,1-2.1v-19.6c0-0.8-0.3-1.6-0.9-2.1
		c-0.6-0.6-1.4-0.9-2.2-0.9c-1.4,0-2.3,0.6-2.7,1.8c-0.2,0.6-0.3,1.8-0.3,3.6h-7.8v-4.4c1.6-4.1,3.9-6.2,6.8-6.2h8
		c1.5,0,3,0.7,4.6,2.2c1.6,1.5,2.4,2.9,2.4,4.4V410.1z"/>
	<path d="M780.5,410.4c0,1.5-0.7,3-2.2,4.5c-1.5,1.5-2.9,2.3-4.4,2.3h-10.2c-1.5,0-3-0.8-4.4-2.3c-1.4-1.5-2.2-3-2.2-4.5v-7.2
		c0-1.7,0.6-3.1,1.7-4.1c0.7-0.7,2-1.5,4-2.4c1.7-0.8,2.5-1.5,2.5-2.1v-4.8c0-0.8-0.5-1.2-1.6-1.5c-0.7-0.1-1.8-0.4-3.3-0.7
		c-1.3-0.4-2.3-1.2-2.7-2.3v-4.4h7.8c0,1.5,0.6,2.5,1.9,2.9c1.1,0.2,2.2,0.4,3.4,0.6c1.4,0.4,2.1,1.1,2.1,2.1v8
		c0,0.4,0.9,1.1,2.7,2.1c2.1,1.2,3.3,1.8,3.5,2c1,0.9,1.5,2.3,1.5,4.4V410.4z M773,406.3c0-1.4-0.4-2.5-1.2-3.5
		c-0.8-1.1-1.9-1.6-3.2-1.6c-1.3,0-2.3,0.6-3.1,1.8c-0.7,1.1-1,2.3-1,3.6s0.4,2.5,1.2,3.5c0.8,1.1,1.9,1.6,3.2,1.6
		c1.3,0,2.3-0.6,3.1-1.8C772.7,408.8,773,407.6,773,406.3z"/>
	<path d="M809.3,416.9h-7.8v-27.7c0-0.8-0.3-1.6-1-2.1s-1.4-0.9-2.3-0.9c-0.7,0-1.4,0.3-2.1,0.9c-0.6,0.6-1,1.3-1,2v27.7h-7.8V388
		c0-1.5,0.7-3,2.2-4.5c1.5-1.5,2.9-2.3,4.4-2.3h8.6c1.5,0,3,0.7,4.4,2.2c1.4,1.5,2.1,3,2.1,4.5V416.9z"/>
	<path d="M837.8,411.6c0,1.1-0.8,2.3-2.3,3.5c-1.4,1.2-2.7,1.7-3.9,1.7h-9c-1.4,0-2.9-0.7-4.3-2.2c-1.4-1.5-2.1-2.9-2.1-4.4v-29.4
		h7.8v28.4c0,1.7,1.1,2.6,3.2,2.6c0.8,0,1.5-0.2,2.1-0.7s0.9-1.1,0.9-1.9v-13h7.6V411.6z"/>
	<path d="M471.2,442.6c0,0.7-0.4,1.5-1.1,2.2s-1.5,1.1-2.2,1.1h-4.4c-0.7,0-1.5-0.4-2.2-1.1s-1.1-1.4-1.1-2.2V439
		c0-0.7,0.4-1.4,1.1-2.1c0.7-0.7,1.5-1.1,2.2-1.1h3.9v-3.5c0-0.5-0.2-0.8-0.6-1.1c-0.4-0.3-0.8-0.4-1.2-0.4c-1.2,0-1.8,0.7-1.8,2.2
		v0.2c0,0.1,0,0.1,0,0.2h-3.7v-2.2c0.8-2,1.9-3,3.2-3h4.8c0.7,0,1.4,0.3,2.1,1s1,1.4,1,2.1V442.6z M467.3,441.9v-2.3
		c0-0.4-0.2-0.7-0.5-0.9c-0.3-0.2-0.7-0.3-1.1-0.3c-0.4,0-0.8,0.1-1.1,0.3c-0.4,0.2-0.5,0.6-0.5,0.9v2.3c0,0.4,0.2,0.7,0.5,0.9
		c0.3,0.2,0.7,0.3,1,0.3c0.4,0,0.8-0.1,1.2-0.3C467.1,442.7,467.3,442.3,467.3,441.9z"/>
	<path d="M489.3,445.7h-3.7v-14.1c0-0.6-0.4-1-1.2-1s-1.2,0.3-1.2,1v5.5h-3.4v-5.5c0-0.6-0.4-1-1.2-1c-0.7,0-1.1,0.3-1.1,1v14.1H474
		v-15c0-0.6,0.3-1.2,0.8-1.8s1.1-0.8,1.8-0.8h3.4c0.4,0,0.7,0.1,1,0.4c0.1,0.1,0.4,0.4,0.7,0.9c0.7-0.8,1.2-1.3,1.7-1.3h3.3
		c0.6,0,1.2,0.3,1.8,0.8s0.8,1.1,0.8,1.8V445.7z"/>
	<path d="M503.2,442.3c0,0.7-0.4,1.4-1.1,2.1s-1.5,1.1-2.2,1.1h-4.2c-0.7,0-1.4-0.3-2.1-1s-1.1-1.4-1.1-2v-4.2h3.8v3.2
		c0,0.4,0.2,0.8,0.5,1.1s0.7,0.4,1.1,0.4c0.4,0,0.7-0.2,1-0.5s0.5-0.7,0.5-1v-9.6c0-0.4-0.2-0.8-0.5-1s-0.7-0.4-1.1-0.4
		c-0.7,0-1.1,0.3-1.3,0.9c-0.1,0.3-0.1,0.9-0.1,1.8h-3.8v-2.2c0.8-2,1.9-3,3.3-3h3.9c0.7,0,1.5,0.4,2.3,1.1s1.2,1.4,1.2,2.2V442.3z"
		/>
	<path d="M521.2,434c0,0.7-0.4,1.5-1.1,2.2s-1.5,1.1-2.3,1.1h-2.7c-0.7,0-1.5-0.4-2.2-1.1s-1.1-1.5-1.1-2.2v-2.5
		c0-0.5-0.3-0.8-1-0.8c-0.6,0-0.9,0.3-0.9,0.8v3.5c0,1.4,0.6,2.4,1.9,3.2c0.7,0.5,2,0.9,3.7,1.4c1.4,0.4,2.3,0.7,2.6,0.8
		c0.9,0.4,1.5,1.1,1.9,1.9c0.2,0.7,0.4,1.2,0.5,1.3v1.9h-3.9c0-2.1-1.2-3.4-3.5-3.9c-1-0.2-2.2-0.3-3.5-0.3c-1.1,0-1.9,0.1-2.3,0.2
		h-0.7V439h1.7c-0.4-0.5-0.9-1.1-1.3-1.6c-0.4-0.6-0.6-1.1-0.6-1.6V431c0-0.7,0.3-1.3,1-2s1.3-1,2-1h2.5c0.4,0,0.8,0.2,1.1,0.5
		c0.3,0.4,0.5,0.6,0.5,0.6c0.7-0.8,1.4-1.2,2.1-1.2h2.6c0.7,0,1.4,0.3,2.1,1s1,1.4,1,2.1V434z M517.4,432.7c0-0.7,0-1.1-0.1-1.3
		c-0.1-0.4-0.5-0.6-1-0.6c-0.5,0-0.8,0.2-0.9,0.6c-0.1,0.2-0.1,0.6-0.1,1.2v0.4c0,0.5,0.1,0.9,0.2,1.1c0.2,0.3,0.5,0.5,0.9,0.5
		c0.5,0,0.8-0.2,0.9-0.6C517.4,433.8,517.4,433.3,517.4,432.7z"/>
	<path d="M534.3,442.4c0,0.8-0.4,1.5-1.2,2.2c-0.8,0.7-1.6,1-2.3,1h-3.6c-0.7,0-1.5-0.3-2.2-1s-1.1-1.4-1.1-2.1v-4h3.7v3.4
		c0,0.3,0.2,0.6,0.5,0.9c0.3,0.2,0.7,0.4,1,0.4c0.3,0,0.6-0.1,1-0.4s0.5-0.6,0.5-0.9v-6.3c0-0.4-0.3-0.9-0.8-1.3
		c-0.4-0.3-0.9-0.7-1.6-1.4s-1.3-1.4-1.7-2.2v-2.3h3.6c0,1,0.2,1.8,0.8,2.4c0.2,0.3,0.9,0.9,2,1.7c0.9,0.8,1.4,1.4,1.4,1.9V442.4z"
		/>
	<path d="M548,442.4c0,0.8-0.4,1.5-1.1,2.3s-1.5,1.1-2.3,1.1h-3.8c-0.8,0-1.5-0.4-2.2-1.2s-1.1-1.6-1.1-2.3v-11
		c0-0.9,0.4-1.7,1.3-2.4c0.8-0.6,1.6-0.9,2.6-0.9c0.4,0,1,0.1,1.8,0.2s1.5,0.2,1.9,0.2c0.9,0,1.7-0.1,2.3-0.4h0.2v3.5h-2.1
		c-1.7-0.5-2.8-0.7-3.2-0.7c-0.3,0-0.6,0.1-0.8,0.3s-0.4,0.5-0.4,0.8v3.5h4.1c0.6,0,1.3,0.3,1.8,0.9s0.9,1.2,0.9,1.8V442.4z
		 M544.1,442v-2.6c0-0.3-0.1-0.6-0.4-0.8s-0.6-0.3-0.9-0.3c-0.3,0-0.7,0.1-0.9,0.3c-0.3,0.2-0.4,0.5-0.4,0.9v2.6
		c0,0.4,0.1,0.6,0.4,0.8s0.6,0.3,0.9,0.3c0.3,0,0.6-0.1,0.9-0.3S544.1,442.3,544.1,442z"/>
	<path d="M561.9,445.6h-3.8v-13.5c0-0.4-0.2-0.8-0.5-1s-0.7-0.4-1.1-0.4c-0.4,0-0.7,0.2-1,0.5c-0.3,0.3-0.5,0.6-0.5,1v13.5h-3.8
		v-14.1c0-0.7,0.4-1.5,1.1-2.2s1.4-1.1,2.1-1.1h4.2c0.8,0,1.5,0.4,2.2,1.1s1,1.5,1,2.2V445.6z"/>
</g>
<g>
	<path d="M913.5,314.9c0,1.8-0.8,3.3-2.3,4.6c-1.5,1.3-3.1,1.9-4.9,1.9h-7.7c-1.8,0-3.4-0.6-4.9-1.9c-1.5-1.3-2.3-2.9-2.3-4.6v-8.4
		c0-1.4,0.5-2.6,1.5-3.6c1-0.9,2.1-1.5,3.5-1.7v-0.4c-1.1,0-2.1-0.3-2.9-0.9c-0.9-0.7-1.4-1.5-1.4-2.6v-6.9c0-1.5,0.8-2.8,2.3-4
		c1.4-1.1,2.9-1.6,4.4-1.6h7c1.5,0,3,0.5,4.4,1.6c1.5,1.2,2.3,2.5,2.3,4v6.9c0,1-0.4,1.8-1.3,2.5c-0.9,0.7-1.8,1-2.8,1v0.4
		c1.4,0.3,2.5,0.9,3.4,1.8c1,1,1.5,2.2,1.5,3.5V314.9z M905.6,313.3v-5.1c0-0.7-0.3-1.3-1-1.9c-0.6-0.5-1.3-0.8-2-0.8
		c-0.7,0-1.4,0.3-2.1,0.8c-0.7,0.5-1,1.2-1,1.9v5.1c0,0.7,0.3,1.4,1,1.9c0.6,0.5,1.3,0.8,2.1,0.8c0.7,0,1.4-0.3,2.1-0.8
		C905.3,314.6,905.6,314,905.6,313.3z M904.8,296.8v-4.3c0-0.5-0.2-1-0.7-1.4c-0.5-0.4-1-0.6-1.5-0.6c-0.6,0-1.1,0.2-1.6,0.6
		c-0.6,0.4-0.8,0.9-0.8,1.4v4.3c0,0.6,0.2,1.2,0.7,1.7c0.4,0.5,1,0.7,1.6,0.7c0.7,0,1.3-0.2,1.7-0.7
		C904.5,298,904.8,297.5,904.8,296.8z"/>
</g>
<g>
	<path d="M886.3,416.3h-7.7v-25.1c-0.9,0.1-2.1,0.6-3.8,1.7h-0.6v-6.3c3-1.2,5.1-3.5,6.3-6.9h5.9V416.3z"/>
	<path d="M913.4,409.9c0,1.8-0.8,3.4-2.5,4.7c-1.6,1.3-3.3,1.9-5.1,1.9h-7c-1.5,0-2.6-0.3-3.4-0.9c-0.9-0.6-1.5-1.5-2-2.6l-1.3-3.3
		V406h7.6c0,1.7,0.1,2.9,0.4,3.6c0.4,1.1,1.4,1.7,2.8,1.7c0.9,0,1.6-0.3,2.1-0.9c0.6-0.6,0.9-1.4,0.9-2.3v-8.4
		c0-0.7-0.3-1.3-0.9-1.9s-1.2-0.9-1.9-0.9c-1.1,0-2,0.7-2.6,2.2h-7.2v-18.7h19.7v5h-12.2v7h7.8c1.4,0,2.6,0.5,3.5,1.5
		c1,1,1.5,2.2,1.5,3.5V409.9z"/>
</g>
</svg>
