<?xml version="1.0" encoding="utf-8"?>
<!-- Generator: Adobe Illustrator 18.0.0, SVG Export Plug-In . SVG Version: 6.00 Build 0)  -->
<!DOCTYPE svg PUBLIC "-//W3C//DTD SVG 1.1//EN" "http://www.w3.org/Graphics/SVG/1.1/DTD/svg11.dtd">
<svg version="1.1"
	 id="svg2" inkscape:version="0.48.4 r9939" sodipodi:docname="6.2014_02_16_18_28_07.2.svg" xmlns:sodipodi="http://sodipodi.sourceforge.net/DTD/sodipodi-0.dtd" xmlns:dc="http://purl.org/dc/elements/1.1/" xmlns:cc="http://creativecommons.org/ns#" xmlns:inkscape="http://www.inkscape.org/namespaces/inkscape" xmlns:svg="http://www.w3.org/2000/svg" xmlns:rdf="http://www.w3.org/1999/02/22-rdf-syntax-ns#"
	 xmlns="http://www.w3.org/2000/svg" xmlns:xlink="http://www.w3.org/1999/xlink" x="0px" y="0px" viewBox="343 132.8 325 272.7"
	 enable-background="new 343 132.8 325 272.7" xml:space="preserve">
<path fill="#0D69E1" d="M461.2,258.1H349.4c-3.6,0-6.4-2.9-6.4-6.4V139.2c0-3.6,2.9-6.4,6.4-6.4h111.7c3.6,0,6.4,2.9,6.4,6.4v112.4
	C467.6,255.2,464.7,258.1,461.2,258.1z"/>
<polygon fill="#FFFFFF" points="434.9,198.1 405.3,146.7 375.7,198.1 394.3,198.1 394.3,238.9 416.3,238.9 416.3,198.1 "/>
<path fill="#0D69E1" d="M661.6,258.1H476.4c-3.6,0-6.4-2.9-6.4-6.4V139.2c0-3.6,2.9-6.4,6.4-6.4h185.2c3.6,0,6.4,2.9,6.4,6.4v112.4
	C668,255.2,665.1,258.1,661.6,258.1z"/>
<g>
	<path fill="#FFFFFF" d="M539.6,217.6c0,2.2-1.5,4.4-4.4,6.7c-2.8,2.2-5.3,3.3-7.5,3.3h-17.4c-2.8,0-5.5-1.4-8.2-4.3
		c-2.7-2.9-4.1-5.7-4.1-8.4v-56.7h15V213c0,3.3,2.1,5,6.2,5c1.5,0,2.9-0.5,4-1.4c1.2-0.9,1.8-2.1,1.8-3.6v-25.1h14.7V217.6z"/>
	<path fill="#FFFFFF" d="M591.7,202.2h-39v-13h39V202.2z"/>
	<path fill="#FFFFFF" d="M646.5,167.2l-28.9,60.2h-14.4l28.1-59.3h-28.6v-10.6h43.7V167.2z"/>
</g>
<path fill="#0D69E1" d="M549.8,405.4h111.7c3.6,0,6.4-2.9,6.4-6.4V286.5c0-3.6-2.9-6.4-6.4-6.4H549.8c-3.6,0-6.4,2.9-6.4,6.4v112.4
	C543.4,402.5,546.3,405.4,549.8,405.4z"/>
<polygon fill="#FFFFFF" points="581,322.9 638.3,307.6 622.9,364.8 609.7,351.6 580.9,380.5 565.4,365 594.2,336.1 "/>
<path fill="#0D69E1" d="M349.4,405.4h185.2c3.6,0,6.4-2.9,6.4-6.4V286.5c0-3.6-2.9-6.4-6.4-6.4H349.4c-3.6,0-6.4,2.9-6.4,6.4v112.4
	C343,402.5,345.9,405.4,349.4,405.4z"/>
<g>
	<path fill="#FFFFFF" d="M403.3,359.1c0,2.2-1.2,4.6-3.5,7c-2.3,2.4-4.6,3.6-6.9,3.6h-13.3c-2.2,0-4.5-1.2-6.8-3.6
		c-2.3-2.4-3.5-4.7-3.5-7v-12.6c0-2.3,1.1-4.5,3.2-6.5s4.3-3.1,6.6-3.1h13.1v-14.2c0-0.7-0.3-1.3-0.8-1.8c-0.6-0.5-1.2-0.8-1.9-0.8
		c-0.7,0-1.4,0.2-1.9,0.7c-0.5,0.5-0.8,1.1-0.8,1.8v7.4h-10.3c0-0.4,0-0.9,0-1.6s0-1.2,0-1.6c0-1.9-0.4-3.2-1.2-4
		c-0.8-0.8-2.1-1.2-4-1.2c-1.2,0-2.3,0.2-3.3,0.7c-0.7,0.4-1.7,0.9-3.1,1.5v-10.6c2-0.8,3.1-1.3,3.3-1.3h9.4c1.4,0,2.7,1,3.9,2.9
		c1.4-1.9,2.7-2.9,3.9-2.9h9.4c2,0,3.9,0.9,5.8,2.7s2.7,3.7,2.7,5.7V359.1z M391.8,353.3c0-2.6-0.2-4.4-0.7-5.5
		c-0.7-1.7-2.2-2.5-4.4-2.5c-3.4,0-5.2,2.6-5.2,7.8c0,2.6,0.3,4.4,0.8,5.5c0.7,1.7,2.2,2.6,4.4,2.6C390,361,391.8,358.4,391.8,353.3
		z"/>
	<path fill="#FFFFFF" d="M445.9,348.6h-32.2v-10.8h32.2V348.6z"/>
	<path fill="#FFFFFF" d="M474.8,370h-12.3v-40c-1.4,0.2-3.4,1-6.1,2.6h-0.9v-10c4.8-1.9,8.1-5.6,10-11h9.3V370z"/>
	<path fill="#FFFFFF" d="M518.7,333.7c0,4.5-3.4,10.2-10.3,17.1c-3.3,3.4-6.6,6.6-9.8,9.8h19.1v9h-33.5v-7.7c0-0.6,3.1-4.4,9.4-11.2
		c2.4-2.7,4.4-5,5.9-7c0.8-0.8,1.9-2,3.4-3.6c2.2-2.6,3.3-4.9,3.3-6.9v-9c0-3-1.7-4.5-5.1-4.5c-2.1,0-3.5,0.7-4.2,2.1
		c-0.4,0.9-0.6,2.6-0.6,5.1v2.1h-12.1v-7.1c0-2.2,1.2-4.5,3.7-6.8c2.5-2.3,4.8-3.4,7.1-3.4h13.4c2.3,0,4.6,1.2,6.8,3.5
		c2.2,2.4,3.3,4.7,3.3,7V333.7z"/>
</g>
</svg>
