<?xml version="1.0" encoding="utf-8"?>
<!-- Generator: Adobe Illustrator 18.0.0, SVG Export Plug-In . SVG Version: 6.00 Build 0)  -->
<!DOCTYPE svg PUBLIC "-//W3C//DTD SVG 1.1//EN" "http://www.w3.org/Graphics/SVG/1.1/DTD/svg11.dtd">
<svg version="1.1"
	 id="svg2" inkscape:version="0.48.4 r9939" sodipodi:docname="6.2014_02_16_18_28_07.2.svg" xmlns:sodipodi="http://sodipodi.sourceforge.net/DTD/sodipodi-0.dtd" xmlns:dc="http://purl.org/dc/elements/1.1/" xmlns:cc="http://creativecommons.org/ns#" xmlns:inkscape="http://www.inkscape.org/namespaces/inkscape" xmlns:svg="http://www.w3.org/2000/svg" xmlns:rdf="http://www.w3.org/1999/02/22-rdf-syntax-ns#"
	 xmlns="http://www.w3.org/2000/svg" xmlns:xlink="http://www.w3.org/1999/xlink" x="0px" y="0px" viewBox="101.1 27 455.5 672.2"
	 enable-background="new 101.1 27 455.5 672.2" xml:space="preserve">
<g>
	<g>
		<path fill="#0D69E1" d="M550.7,177.9H107c-3.2,0-5.8-2.6-5.8-5.8V32.8c0-3.2,2.6-5.8,5.8-5.8h443.9c3.2,0,5.8,2.6,5.8,5.8v139.3
			C556.5,175.3,553.9,177.9,550.7,177.9z"/>
		<polygon fill="#FFFFFF" points="238.6,106.9 204.6,48.2 170.8,107 192.1,107 192.1,156.7 217.3,156.7 217.3,106.9 		"/>
		<g>
			<path id="path7834" inkscape:connector-curvature="0" fill="#FFFFFF" d="M359.2,73.6c-3.1,0-6,1.5-7.7,4.1l-14.7,21.7
				c-1,1.5-1.6,3.4-1.6,5.2v28.7c0,5.2,4.2,9.4,9.4,9.4h8.4c0.5-10.3,9.1-18.7,19.7-18.7c10.5,0,19,8.2,19.7,18.7h72.7
				c0.3-7.4,4.9-13.9,11.2-16.7h-81.2v-43c0-5.2-4.2-9.4-9.4-9.4L359.2,73.6L359.2,73.6z M359.7,79.1h21.3c2.6,0,4.7,2.1,4.7,4.7V97
				c0,2.6-2.1,4.7-4.7,4.7h-30c-2.6,0-4.7-2.1-4.7-4.7c0-1,0.3-1.8,0.8-2.6l8.7-13.2C356.7,79.9,358.3,79.1,359.7,79.1L359.7,79.1z"
				/>
			<path id="path7836" inkscape:connector-curvature="0" fill="#FFFFFF" d="M409.9,45.5c-5.2,0-9.4,4.2-9.4,9.4v5.5v13.5v46.3h121.4
				V73.9V60.4v-5.5c0-5.2-4.2-9.4-9.4-9.4H409.9L409.9,45.5z"/>
			<path id="path7838" inkscape:connector-curvature="0" fill="#FFFFFF" d="M484.5,127.6c-8.7,0-15.9,7.1-15.9,15.9
				s7.1,15.9,15.9,15.9c8.7,0,15.9-7.1,15.9-15.9C500.2,134.7,493.2,127.6,484.5,127.6z M484.5,135.1c4.5,0,8.4,3.7,8.4,8.4
				c0,4.7-3.7,8.4-8.4,8.4c-4.7,0-8.4-3.7-8.4-8.4C476,138.8,479.7,135.1,484.5,135.1z"/>
			<path id="path7840" inkscape:connector-curvature="0" sodipodi:nodetypes="ccccc" fill="#FFFFFF" d="M503.9,142.5
				c-0.3-7.4-4.9-13.9-11.2-16.7h29.1v16.7H503.9z"/>
			<path id="path7842" inkscape:connector-curvature="0" fill="#FFFFFF" d="M372.5,127.6c-8.7,0-15.9,7.1-15.9,15.9
				s7.1,15.9,15.9,15.9s15.9-7.1,15.9-15.9C388.5,134.7,381.2,127.6,372.5,127.6z M372.5,135.1c4.5,0,8.4,3.7,8.4,8.4
				c0,4.7-3.7,8.4-8.4,8.4s-8.4-3.7-8.4-8.4C364.3,138.8,368,135.1,372.5,135.1z"/>
		</g>
	</g>
	<g>
		<path d="M295,192.2v2.8l-9.9,20.7h-4.7l9.9-19.8v-0.1h-11v-3.7H295V192.2z"/>
		<path d="M298.5,213.2c0-1.7,1.2-2.8,2.7-2.8c1.6,0,2.7,1.2,2.7,2.8s-1.1,2.8-2.7,2.8C299.6,216.1,298.5,214.9,298.5,213.2z"/>
		<path d="M313.8,196.3L313.8,196.3l-4.4,2.2l-0.8-3.3l5.7-2.8h3.7v23.5h-4.3v-19.6H313.8z"/>
		<path d="M341.1,196h-9l-0.7,4.7c0.5-0.1,1-0.1,1.7-0.1c2.1,0,4.1,0.5,5.7,1.5c1.8,1.1,3.1,3.1,3.1,5.9c0,4.5-3.7,8.1-9.5,8.1
			c-2.7,0-5-0.7-6.2-1.4l0.9-3.3c1,0.5,3,1.2,5.1,1.2c2.6,0,5.1-1.5,5.1-4.3c0-2.7-2-4.4-6.7-4.4c-1.3,0-2.3,0.1-3.2,0.2l1.5-11.8
			h12.2V196z"/>
		<path d="M345.8,213.2c0-1.7,1.2-2.8,2.7-2.8c1.6,0,2.7,1.2,2.7,2.8s-1.1,2.8-2.7,2.8C346.9,216.1,345.8,214.9,345.8,213.2z"/>
		<path d="M361.1,196.3L361.1,196.3l-4.4,2.2l-0.8-3.3l5.7-2.8h3.7v23.5H361v-19.6H361.1z"/>
		<path d="M373.7,213.2c0-1.7,1.2-2.8,2.7-2.8c1.6,0,2.7,1.2,2.7,2.8s-1.1,2.8-2.7,2.8C374.8,216.1,373.7,214.9,373.7,213.2z"/>
	</g>
</g>
<g>
	<g>
		<path fill="#0D69E1" d="M550.7,410.6H107c-3.2,0-5.8-2.6-5.8-5.8V265.5c0-3.2,2.6-5.8,5.8-5.8h443.9c3.2,0,5.8,2.6,5.8,5.8v139.3
			C556.5,408,553.9,410.6,550.7,410.6z"/>
		<polygon fill="#FFFFFF" points="463.1,301.2 521.8,335.2 463.1,369 463.1,347.7 373.1,347.7 373.1,322.5 463.1,322.5 		"/>
		<g>
			<path id="path7834_1_" inkscape:connector-curvature="0" fill="#FFFFFF" d="M293,306.2c3.1,0,6,1.5,7.7,4.1l14.7,21.7
				c1,1.5,1.6,3.4,1.6,5.2V366c0,5.2-4.2,9.4-9.4,9.4h-8.4c-0.5-10.3-9.1-18.7-19.7-18.7c-10.5,0-19,8.2-19.7,18.7h-72.6
				c-0.3-7.4-4.9-13.9-11.2-16.7h81.2v-42.9c0-5.2,4.2-9.4,9.4-9.4L293,306.2L293,306.2z M292.5,311.8h-21.3c-2.6,0-4.7,2.1-4.7,4.7
				v13.2c0,2.6,2.1,4.7,4.7,4.7h30c2.6,0,4.7-2.1,4.7-4.7c0-1-0.3-1.8-0.8-2.6l-8.7-13.2C295.4,312.6,293.9,311.8,292.5,311.8
				L292.5,311.8z"/>
			<path id="path7836_1_" inkscape:connector-curvature="0" fill="#FFFFFF" d="M242.4,278.1c5.2,0,9.4,4.2,9.4,9.4v5.5v13.5v46.3
				H130.3v-46.3v-13.5v-5.5c0-5.2,4.2-9.4,9.4-9.4H242.4L242.4,278.1z"/>
			<path id="path7838_1_" inkscape:connector-curvature="0" fill="#FFFFFF" d="M167.7,360.3c8.7,0,15.9,7.1,15.9,15.9
				c0,8.7-7.1,15.9-15.9,15.9s-15.9-7.1-15.9-15.9C151.9,367.4,159,360.3,167.7,360.3z M167.7,367.8c-4.5,0-8.4,3.7-8.4,8.4
				c0,4.7,3.7,8.4,8.4,8.4c4.7,0,8.4-3.7,8.4-8.4S172.4,367.8,167.7,367.8z"/>
			<path id="path7840_1_" inkscape:connector-curvature="0" sodipodi:nodetypes="ccccc" fill="#FFFFFF" d="M148.2,375.2
				c0.3-7.4,4.9-13.9,11.2-16.7h-29.1v16.7H148.2z"/>
			<path id="path7842_1_" inkscape:connector-curvature="0" fill="#FFFFFF" d="M279.6,360.3c8.7,0,15.9,7.1,15.9,15.9
				c0,8.7-7.1,15.9-15.9,15.9c-8.7,0-15.9-7.1-15.9-15.9S270.9,360.3,279.6,360.3z M279.6,367.8c-4.5,0-8.4,3.7-8.4,8.4
				c0,4.7,3.7,8.4,8.4,8.4c4.7,0,8.4-3.7,8.4-8.4C288,371.5,284.2,367.8,279.6,367.8z"/>
		</g>
	</g>
	<g>
		<path d="M295,436.8v2.8l-9.9,20.7h-4.7l9.9-19.8v-0.1h-11v-3.7H295V436.8z"/>
		<path d="M298.5,457.7c0-1.7,1.2-2.8,2.7-2.8c1.6,0,2.7,1.2,2.7,2.8c0,1.6-1.1,2.8-2.7,2.8C299.6,460.7,298.5,459.5,298.5,457.7z"
			/>
		<path d="M313.8,440.8L313.8,440.8l-4.4,2.2l-0.8-3.3l5.7-2.8h3.7v23.5h-4.3v-19.6H313.8z"/>
		<path d="M341.1,440.5h-9l-0.7,4.6c0.5-0.1,1-0.1,1.7-0.1c2.1,0,4.1,0.5,5.7,1.5c1.8,1.1,3.1,3.1,3.1,5.9c0,4.5-3.7,8.1-9.5,8.1
			c-2.7,0-5-0.7-6.2-1.4l0.9-3.3c1,0.5,3,1.2,5.1,1.2c2.6,0,5.1-1.5,5.1-4.3c0-2.7-2-4.4-6.7-4.4c-1.3,0-2.3,0.1-3.2,0.2l1.5-11.8
			H341v3.8H341.1z"/>
		<path d="M345.8,457.7c0-1.7,1.2-2.8,2.7-2.8c1.6,0,2.7,1.2,2.7,2.8c0,1.6-1.1,2.8-2.7,2.8C346.9,460.7,345.8,459.5,345.8,457.7z"
			/>
		<path d="M354,460.3v-2.7l2.8-2.6c5.5-5.1,8.1-7.9,8.1-11c0-2.1-1.1-3.9-4.2-3.9c-2.1,0-3.8,1-5,1.9l-1.3-3.1
			c1.7-1.4,4.2-2.4,7.2-2.4c5.2,0,7.7,3.3,7.7,7.1c0,4.1-3,7.4-7,11.2l-2.1,1.8v0.1h9.6v3.7H354V460.3z"/>
		<path d="M373.7,457.7c0-1.7,1.2-2.8,2.7-2.8c1.6,0,2.7,1.2,2.7,2.8c0,1.6-1.1,2.8-2.7,2.8C374.8,460.7,373.7,459.5,373.7,457.7z"
			/>
	</g>
</g>
<g>
	<g>
		<path fill="#0D69E1" d="M550.7,649.1H107c-3.2,0-5.8-2.6-5.8-5.8V504c0-3.2,2.6-5.8,5.8-5.8h443.9c3.2,0,5.8,2.6,5.8,5.8v139.3
			C556.5,646.5,553.9,649.1,550.7,649.1z"/>
		<polygon fill="#FFFFFF" points="189.1,539.7 130.3,573.7 189.1,607.5 189.1,586.2 279,586.2 279,561 189.1,561 		"/>
		<g>
			<path id="path7834_2_" inkscape:connector-curvature="0" fill="#FFFFFF" d="M359.2,544.8c-3.1,0-6,1.5-7.7,4.1l-14.7,21.7
				c-1,1.5-1.6,3.4-1.6,5.2v28.7c0,5.2,4.2,9.4,9.4,9.4h8.4c0.5-10.3,9.1-18.7,19.7-18.7c10.5,0,19,8.2,19.7,18.7h72.7
				c0.3-7.4,4.9-13.9,11.2-16.7h-81.2v-42.9c0-5.2-4.2-9.4-9.4-9.4L359.2,544.8L359.2,544.8z M359.7,550.3h21.3
				c2.6,0,4.7,2.1,4.7,4.7v13.2c0,2.6-2.1,4.7-4.7,4.7h-30c-2.6,0-4.7-2.1-4.7-4.7c0-1,0.3-1.8,0.8-2.6l8.7-13.2
				C356.7,551.1,358.3,550.3,359.7,550.3L359.7,550.3z"/>
			<path id="path7836_2_" inkscape:connector-curvature="0" fill="#FFFFFF" d="M409.9,516.6c-5.2,0-9.4,4.2-9.4,9.4v5.5v13.5v46.3
				h121.4v-46.3v-13.5v-5.5c0-5.2-4.2-9.4-9.4-9.4L409.9,516.6L409.9,516.6z"/>
			<path id="path7838_2_" inkscape:connector-curvature="0" fill="#FFFFFF" d="M484.5,598.8c-8.7,0-15.9,7.1-15.9,15.9
				c0,8.7,7.1,15.9,15.9,15.9s15.9-7.1,15.9-15.9C500.2,605.9,493.2,598.8,484.5,598.8z M484.5,606.3c4.5,0,8.4,3.7,8.4,8.4
				c0,4.7-3.7,8.4-8.4,8.4s-8.4-3.7-8.4-8.4C476,610,479.7,606.3,484.5,606.3z"/>
			<path id="path7840_2_" inkscape:connector-curvature="0" sodipodi:nodetypes="ccccc" fill="#FFFFFF" d="M503.9,613.7
				c-0.3-7.4-4.9-13.9-11.2-16.7h29v16.7H503.9z"/>
			<path id="path7842_2_" inkscape:connector-curvature="0" fill="#FFFFFF" d="M372.5,598.8c-8.7,0-15.9,7.1-15.9,15.9
				c0,8.7,7.1,15.9,15.9,15.9s15.9-7.1,15.9-15.9C388.4,605.9,381.2,598.8,372.5,598.8z M372.5,606.3c4.5,0,8.4,3.7,8.4,8.4
				c0,4.7-3.7,8.4-8.4,8.4s-8.4-3.7-8.4-8.4C364.2,610,368,606.3,372.5,606.3z"/>
		</g>
	</g>
	<g>
		<path d="M295,675.3v2.8l-9.9,20.7h-4.7l9.9-19.8v-0.1h-11v-3.7H295V675.3z"/>
		<path d="M298.5,696.3c0-1.7,1.2-2.8,2.7-2.8c1.6,0,2.7,1.2,2.7,2.8c0,1.6-1.1,2.8-2.7,2.8C299.6,699.2,298.5,698,298.5,696.3z"/>
		<path d="M313.8,679.3L313.8,679.3l-4.4,2.2l-0.8-3.3l5.7-2.8h3.7v23.5h-4.3v-19.6H313.8z"/>
		<path d="M341.1,679h-9l-0.7,4.7c0.5-0.1,1-0.1,1.7-0.1c2.1,0,4.1,0.5,5.7,1.5c1.8,1.1,3.1,3.1,3.1,5.9c0,4.5-3.7,8.1-9.5,8.1
			c-2.7,0-5-0.7-6.2-1.4l0.9-3.3c1,0.5,3,1.2,5.1,1.2c2.6,0,5.1-1.5,5.1-4.3c0-2.7-2-4.4-6.7-4.4c-1.3,0-2.3,0.1-3.2,0.2l1.5-11.8
			H341v3.7H341.1z"/>
		<path d="M345.8,696.3c0-1.7,1.2-2.8,2.7-2.8c1.6,0,2.7,1.2,2.7,2.8c0,1.6-1.1,2.8-2.7,2.8C346.9,699.2,345.8,698,345.8,696.3z"/>
		<path d="M354.9,694.2c0.9,0.5,3.1,1.4,5.3,1.4c3.4,0,4.8-1.9,4.7-3.7c0-2.8-2.6-4-5.3-4h-2.1v-3.2h2c2.1,0,4.6-0.9,4.6-3.3
			c0-1.6-1.2-2.9-3.7-2.9c-1.9,0-3.8,0.8-4.8,1.5l-1-3.2c1.3-0.9,3.9-1.8,6.7-1.8c4.8,0,7.3,2.7,7.3,5.7c0,2.4-1.4,4.5-4.3,5.5v0.1
			c2.8,0.5,5.1,2.7,5.1,5.8c0,4-3.3,7.1-9.1,7.1c-2.8,0-5.3-0.8-6.6-1.6L354.9,694.2z"/>
		<path d="M373.7,696.3c0-1.7,1.2-2.8,2.7-2.8c1.6,0,2.7,1.2,2.7,2.8c0,1.6-1.1,2.8-2.7,2.8C374.8,699.2,373.7,698,373.7,696.3z"/>
	</g>
</g>
</svg>
