<?xml version="1.0" encoding="utf-8"?>
<!-- Generator: Adobe Illustrator 18.0.0, SVG Export Plug-In . SVG Version: 6.00 Build 0)  -->
<!DOCTYPE svg PUBLIC "-//W3C//DTD SVG 1.1//EN" "http://www.w3.org/Graphics/SVG/1.1/DTD/svg11.dtd">
<svg version="1.1"
	 id="svg2" inkscape:version="0.48.4 r9939" sodipodi:docname="6.2014_02_16_18_28_07.2.svg" xmlns:sodipodi="http://sodipodi.sourceforge.net/DTD/sodipodi-0.dtd" xmlns:dc="http://purl.org/dc/elements/1.1/" xmlns:cc="http://creativecommons.org/ns#" xmlns:inkscape="http://www.inkscape.org/namespaces/inkscape" xmlns:svg="http://www.w3.org/2000/svg" xmlns:rdf="http://www.w3.org/1999/02/22-rdf-syntax-ns#"
	 xmlns="http://www.w3.org/2000/svg" xmlns:xlink="http://www.w3.org/1999/xlink" x="0px" y="0px" viewBox="17.3 107.1 960 325.5"
	 enable-background="new 17.3 107.1 960 325.5" xml:space="preserve">
<g>
	<path d="M462.9,218.3v2.9l-10.1,21H448l10.1-20.1V222h-11.2v-3.8h16V218.3z"/>
	<path d="M466.5,239.6c0-1.7,1.2-2.9,2.8-2.9c1.6,0,2.8,1.2,2.8,2.9s-1.1,2.9-2.8,2.9C467.6,242.6,466.5,241.4,466.5,239.6z"/>
	<path d="M482,222.4L482,222.4l-4.5,2.2l-0.8-3.4l5.8-2.9h3.8v23.9h-4.4v-19.9H482z"/>
	<path d="M494.2,236.1c0-3,1.7-5,4.5-6.2v-0.1c-2.4-1.2-3.7-3.2-3.7-5.3c0-3.9,3.5-6.5,8-6.5c5.1,0,7.5,3.1,7.5,6c0,2-1,4.1-3.7,5.4
		v0.1c2.7,1,4.6,3.1,4.6,6c0,4.3-3.6,7.1-8.7,7.1C497.1,242.6,494.2,239.4,494.2,236.1z M506.8,235.9c0-2.4-1.8-3.8-4.5-4.5
		c-2.2,0.6-3.6,2.2-3.6,4.2c-0.1,2,1.4,3.9,4,3.9C505.3,239.4,506.8,237.9,506.8,235.9z M499.3,224.2c0,1.9,1.6,3.2,3.9,3.8
		c1.6-0.5,3-1.8,3-3.6c0-1.6-1-3.4-3.4-3.4C500.6,221.1,499.3,222.5,499.3,224.2z"/>
	<path d="M514.5,239.6c0-1.7,1.2-2.9,2.8-2.9c1.6,0,2.8,1.2,2.8,2.9s-1.1,2.9-2.8,2.9C515.7,242.6,514.5,241.4,514.5,239.6z"/>
	<path d="M530.1,222.4L530.1,222.4l-4.5,2.2l-0.8-3.4l5.8-2.9h3.8v23.9H530v-19.9H530.1z"/>
	<path d="M542.9,239.6c0-1.7,1.2-2.9,2.8-2.9c1.6,0,2.8,1.2,2.8,2.9s-1.1,2.9-2.8,2.9C544,242.6,542.9,241.4,542.9,239.6z"/>
</g>
<g>
	<path d="M220,408.3v2.9l-10.1,21h-4.8l10.1-20.1v-0.1H204v-3.8h16V408.3z"/>
	<path d="M223.6,429.6c0-1.7,1.2-2.9,2.8-2.9c1.6,0,2.8,1.2,2.8,2.9s-1.1,2.9-2.8,2.9C224.7,432.6,223.6,431.3,223.6,429.6z"/>
	<path d="M239,412.4L239,412.4l-4.5,2.2l-0.8-3.4l5.8-2.9h3.8v23.9h-4.4v-19.9H239z"/>
	<path d="M251.2,426c0-3,1.7-5,4.5-6.2v-0.1c-2.4-1.2-3.7-3.2-3.7-5.3c0-3.9,3.5-6.5,8-6.5c5.1,0,7.5,3.1,7.5,6c0,2-1,4.1-3.7,5.4
		v0.1c2.7,1,4.6,3.1,4.6,6c0,4.3-3.6,7.1-8.7,7.1C254.2,432.6,251.2,429.3,251.2,426z M263.9,425.8c0-2.4-1.8-3.8-4.5-4.5
		c-2.2,0.6-3.6,2.2-3.6,4.2c-0.1,2,1.4,3.9,4,3.9C262.3,429.3,263.9,427.9,263.9,425.8z M256.4,414.2c0,1.9,1.6,3.2,3.9,3.8
		c1.6-0.5,3-1.8,3-3.6c0-1.6-1-3.4-3.4-3.4C257.6,411,256.4,412.5,256.4,414.2z"/>
	<path d="M271.5,429.6c0-1.7,1.2-2.9,2.8-2.9c1.6,0,2.8,1.2,2.8,2.9s-1.1,2.9-2.8,2.9C272.8,432.6,271.5,431.3,271.5,429.6z"/>
	<path d="M280,432.2v-2.8l2.9-2.7c5.6-5.2,8.3-8.1,8.3-11.2c0-2.1-1.1-4-4.3-4c-2.1,0-3.9,1-5.1,1.9l-1.3-3.2
		c1.7-1.4,4.3-2.4,7.3-2.4c5.3,0,7.9,3.4,7.9,7.2c0,4.2-3.1,7.6-7.1,11.4l-2.1,1.8v0.1h9.8v3.8H280V432.2z"/>
	<path d="M299.9,429.6c0-1.7,1.2-2.9,2.8-2.9c1.6,0,2.8,1.2,2.8,2.9s-1.1,2.9-2.8,2.9C301.1,432.6,299.9,431.3,299.9,429.6z"/>
</g>
<g>
	<path d="M706.2,408.3v2.9l-10.1,21h-4.8l10.1-20.1v-0.1h-11.2v-3.8h16V408.3z"/>
	<path d="M709.8,429.6c0-1.7,1.2-2.9,2.8-2.9c1.6,0,2.8,1.2,2.8,2.9s-1.1,2.9-2.8,2.9C710.9,432.6,709.8,431.3,709.8,429.6z"/>
	<path d="M725.2,412.4L725.2,412.4l-4.5,2.2l-0.8-3.4l5.8-2.9h3.8v23.9h-4.4v-19.9H725.2z"/>
	<path d="M737.6,426c0-3,1.7-5,4.5-6.2v-0.1c-2.4-1.2-3.7-3.2-3.7-5.3c0-3.9,3.5-6.5,8-6.5c5.1,0,7.5,3.1,7.5,6c0,2-1,4.1-3.7,5.4
		v0.1c2.7,1,4.6,3.1,4.6,6c0,4.3-3.6,7.1-8.7,7.1C740.4,432.6,737.6,429.3,737.6,426z M750.1,425.8c0-2.4-1.8-3.8-4.5-4.5
		c-2.2,0.6-3.6,2.2-3.6,4.2c-0.1,2,1.4,3.9,4,3.9C748.6,429.3,750.1,427.9,750.1,425.8z M742.7,414.2c0,1.9,1.6,3.2,3.9,3.8
		c1.6-0.5,3-1.8,3-3.6c0-1.6-1-3.4-3.4-3.4C743.9,411,742.7,412.5,742.7,414.2z"/>
	<path d="M757.9,429.6c0-1.7,1.2-2.9,2.8-2.9c1.6,0,2.8,1.2,2.8,2.9s-1.1,2.9-2.8,2.9C759,432.6,757.9,431.3,757.9,429.6z"/>
	<path d="M767.2,427.5c0.9,0.5,3.2,1.4,5.4,1.4c3.5,0,4.9-1.9,4.8-3.8c0-2.9-2.7-4.1-5.4-4.1h-2.1v-3.3h2c2.1,0,4.7-0.9,4.7-3.4
		c0-1.6-1.2-3-3.8-3c-1.9,0-3.9,0.8-4.9,1.5l-1-3.3c1.3-0.9,4-1.8,6.8-1.8c4.9,0,7.5,2.8,7.5,5.8c0,2.4-1.4,4.6-4.4,5.6v0.1
		c2.9,0.5,5.2,2.8,5.2,5.9c0,4.1-3.4,7.2-9.3,7.2c-2.9,0-5.4-0.8-6.7-1.6L767.2,427.5z"/>
	<path d="M786.2,429.6c0-1.7,1.2-2.9,2.8-2.9c1.6,0,2.8,1.2,2.8,2.9s-1.1,2.9-2.8,2.9C787.4,432.6,786.2,431.3,786.2,429.6z"/>
</g>
<g>
	<path fill="#FCF73F" stroke="#000000" stroke-width="4.0038" stroke-miterlimit="10" d="M736.3,197.1h-478c-2.6,0-4.5-2-4.5-4.5
		v-79c0-2.6,2-4.5,4.5-4.5h478c2.6,0,4.5,2,4.5,4.5v79C740.8,195,738.8,197.1,736.3,197.1z"/>
	<g>
		<path d="M349.2,164.7c0,1.6-0.8,3.3-2.6,5c-1.7,1.7-3.4,2.6-4.9,2.6h-9.6c-1.5,0-3.3-0.8-4.9-2.6c-1.6-1.7-2.6-3.4-2.6-5v-9.1
			c0-1.6,0.8-3.2,2.2-4.7c1.5-1.5,3.1-2.2,4.7-2.2h9.4v-10.2c0-0.5-0.2-0.9-0.6-1.3c-0.4-0.4-0.8-0.5-1.3-0.5c-0.5,0-1,0.2-1.4,0.5
			c-0.4,0.3-0.6,0.8-0.6,1.3v5.3h-7.3c0-0.3,0-0.6,0-1.1s0-0.9,0-1.1c0-1.3-0.3-2.3-0.8-2.9s-1.5-0.8-2.9-0.8
			c-0.8,0-1.6,0.2-2.3,0.5c-0.5,0.3-1.2,0.6-2.2,1.1v-7.7c1.4-0.6,2.2-0.9,2.3-0.9h6.7c1,0,1.9,0.7,2.9,2c1-1.3,1.9-2,2.9-2h6.7
			c1.4,0,2.9,0.6,4.1,1.9c1.3,1.3,1.9,2.7,1.9,4.1L349.2,164.7L349.2,164.7z M340.9,160.5c0-1.8-0.2-3.2-0.5-4
			c-0.5-1.2-1.5-1.8-3.2-1.8c-2.4,0-3.7,1.8-3.7,5.6c0,1.8,0.2,3.2,0.5,3.9c0.5,1.2,1.5,1.8,3.2,1.8
			C339.7,166.2,340.9,164.2,340.9,160.5z"/>
		<path d="M382,164.6c0,1.6-0.9,3.3-2.7,5c-1.8,1.7-3.5,2.6-5.1,2.6h-9.9c-1.5,0-3.2-0.8-4.9-2.3c-1.6-1.5-2.6-3.2-2.6-4.7v-9.9h9
			v7.6c0,1,0.3,1.8,1,2.4c0.7,0.7,1.5,1,2.6,1c0.8,0,1.6-0.4,2.3-1.1c0.7-0.7,1.1-1.5,1.1-2.3v-22.5c0-1-0.4-1.8-1.1-2.4
			c-0.7-0.7-1.5-1-2.6-1c-1.6,0-2.7,0.7-3.1,2c-0.2,0.7-0.3,2-0.3,4.2h-9V138c1.8-4.8,4.5-7.1,7.8-7.1h9.2c1.7,0,3.5,0.8,5.3,2.6
			c1.8,1.6,2.8,3.4,2.8,5.1L382,164.6L382,164.6z"/>
		<path d="M415.3,165.3c0,1.7-0.8,3.4-2.6,5.1c-1.7,1.6-3.5,2.4-5.1,2.4h-10.2c-1.7,0-3.4-0.8-5.1-2.4c-1.7-1.6-2.6-3.4-2.6-5.1
			v-8.5c0-1.7,0.8-3.4,2.6-5c1.7-1.6,3.5-2.4,5.1-2.4h9.1v-8.3c0-1-0.5-2-1.3-2.7c-0.8-0.6-1.8-1-3-1c-2.8,0-4.1,1.7-4.1,5.2v0.5
			c0,0.2,0,0.3,0,0.5h-8.7v-5.2c1.9-4.7,4.4-7,7.5-7h11.1c1.6,0,3.3,0.8,4.9,2.4s2.4,3.3,2.4,4.9L415.3,165.3L415.3,165.3z
			 M406.3,163.7v-5.5c0-0.9-0.4-1.6-1.3-2.2c-0.8-0.5-1.6-0.7-2.6-0.7s-1.8,0.3-2.6,0.7c-0.8,0.6-1.3,1.3-1.3,2.2v5.5
			c0,0.8,0.4,1.5,1.2,2.1c0.7,0.5,1.5,0.8,2.4,0.8c1,0,1.9-0.2,2.8-0.7C405.9,165.4,406.3,164.7,406.3,163.7z"/>
		<path d="M457.9,172.5h-8.7v-33.1c0-1.5-0.9-2.3-2.8-2.3c-1.8,0-2.8,0.8-2.8,2.3v13h-8v-13c0-1.5-0.9-2.3-2.8-2.3
			c-1.6,0-2.6,0.8-2.6,2.3v33.1h-8.7v-35.1c0-1.5,0.6-2.9,1.9-4.2s2.7-1.9,4.2-1.9h8c0.8,0,1.6,0.3,2.3,1c0.3,0.3,0.8,0.9,1.6,2
			c1.5-2,2.9-3,4-3h7.8c1.5,0,2.9,0.6,4.2,1.9c1.3,1.3,1.9,2.7,1.9,4.2L457.9,172.5L457.9,172.5z"/>
		<path d="M490.4,166.4c0,1.3-0.8,2.6-2.6,4c-1.6,1.3-3.2,2-4.5,2H473c-1.6,0-3.3-0.8-4.9-2.6c-1.6-1.7-2.4-3.4-2.4-5v-33.7h8.9
			v32.6c0,2,1.2,3,3.7,3c0.9,0,1.7-0.3,2.3-0.8c0.6-0.5,1-1.3,1-2.1v-14.9h8.8C490.4,148.8,490.4,166.4,490.4,166.4z"/>
		<path d="M522.2,164.9c0,1.8-0.9,3.5-2.9,5.1c-1.8,1.5-3.7,2.3-5.5,2.3h-8.4c-1.7,0-3.4-0.8-5.1-2.4c-1.7-1.6-2.6-3.4-2.6-5v-9.5
			h8.6v7.9c0,0.8,0.4,1.5,1.2,2c0.8,0.5,1.5,0.8,2.3,0.8c0.7,0,1.5-0.3,2.2-0.9c0.7-0.6,1.1-1.3,1.1-2v-14.8c0-1-0.6-2-1.8-3.1
			c-0.8-0.7-2-1.7-3.8-3.2s-3-3.2-3.9-5.2v-5.4h8.6c0,2.3,0.6,4.2,1.7,5.7c0.5,0.7,2.1,2,4.6,4.1c2.2,1.7,3.4,3.3,3.4,4.5
			L522.2,164.9L522.2,164.9z"/>
		<path d="M554.1,164.8c0,1.6-0.8,3.3-2.6,4.9c-1.7,1.6-3.4,2.4-5,2.4h-10.3c-1.5,0-3.2-0.8-4.7-2.3c-1.5-1.5-2.3-3.2-2.3-4.7v-9
			h8.9v6.8c0,1,0.4,1.8,1.1,2.3s1.5,0.8,2.6,0.8c0.9,0,1.7-0.3,2.4-0.9c0.7-0.6,1-1.4,1-2.3v-8.5c0-2.1-1.2-3.3-3.7-3.3v-5.7
			c2.4,0,3.7-1.4,3.7-4.4c0-3.1-1.2-4.6-3.7-4.6c-1.5,0-2.6,0.7-3.1,2c-0.3,0.8-0.4,2.1-0.4,4.1h-8.9v-5c2.2-4.8,5-7.1,8.3-7.1h9.4
			c1.7,0,3.4,0.8,4.9,2.3c1.5,1.5,2.3,3.3,2.3,4.9v4.8c0,1.7-1.5,3.4-4.6,5.1c1.6,0.6,2.7,1,3.1,1.3c1,0.7,1.5,1.5,1.5,2.8V164.8z"
			/>
		<path d="M605.7,149.3h-8.5v-10.4c0-1.2-0.7-1.8-2-1.8c-0.4,0-0.8,0.2-1.2,0.6c-0.4,0.4-0.6,0.8-0.6,1.2v7.5h-7.8v-7.5
			c0-1.2-0.7-1.8-2-1.8c-1.3,0-2,0.6-2,1.8v7.5h-7.9v-7.5c0-1.2-0.7-1.8-2-1.8c-0.5,0-1,0.2-1.4,0.5c-0.4,0.3-0.6,0.8-0.6,1.3v10.8
			c0,3.6,3.3,5.9,9.7,6.8c3.1,0.4,6.2,0.7,9.3,1.1c3.7,0.5,6.6,1.4,8.9,2.6c2,1.1,3.5,2.1,4.2,3.3c0.4,0.5,1.1,2.2,2.2,4.9v4.4h-8.5
			c0-4.6-3.1-7.6-9.1-9c-2.7-0.6-5.6-0.9-8.8-0.9h-16.2v-5.3h5.3c-1.6-0.7-3.1-1.8-4.3-3.4c-1.3-1.6-2-3.4-2-4.9v-10.5
			c0-1.6,0.8-3.4,2.3-5.1s3.2-2.6,4.8-2.6h5.1c1.5,0,3.2,0.8,4.9,2.6c1-1.1,2-1.8,2.9-2.1c0.7-0.3,1.9-0.4,3.6-0.4s2.9,0.1,3.6,0.4
			c0.8,0.3,1.7,1,2.9,2.1c1.2-1.2,2.2-1.9,3.2-2.2c0.7-0.2,2-0.3,3.9-0.3c2.2,0,4.2,0.5,5.7,1.5c1.8,1.2,2.8,2.9,2.8,4.9v11.7H605.7
			z"/>
		<path d="M637.7,164.6c0,1.6-0.9,3.3-2.7,5c-1.8,1.7-3.5,2.6-5.1,2.6h-9.9c-1.5,0-3.2-0.8-4.9-2.3c-1.6-1.5-2.6-3.2-2.6-4.7v-9.9h9
			v7.6c0,1,0.3,1.8,1,2.4c0.7,0.7,1.5,1,2.6,1c0.8,0,1.6-0.4,2.3-1.1c0.7-0.7,1.1-1.5,1.1-2.3v-22.5c0-1-0.4-1.8-1.1-2.4
			c-0.7-0.7-1.5-1-2.6-1c-1.6,0-2.7,0.7-3.1,2c-0.2,0.7-0.3,2-0.3,4.2h-9V138c1.8-4.8,4.5-7.1,7.8-7.1h9.2c1.7,0,3.5,0.8,5.3,2.6
			c1.8,1.6,2.8,3.4,2.8,5.1L637.7,164.6L637.7,164.6z"/>
		<path d="M690.9,149.3h-8.5v-10.4c0-1.2-0.7-1.8-2-1.8c-0.4,0-0.8,0.2-1.2,0.6s-0.6,0.8-0.6,1.2v7.5h-7.8v-7.5c0-1.2-0.7-1.8-2-1.8
			s-2,0.6-2,1.8v7.5h-7.9v-7.5c0-1.2-0.7-1.8-2-1.8c-0.5,0-1,0.2-1.4,0.5c-0.4,0.3-0.6,0.8-0.6,1.3v10.8c0,3.6,3.3,5.9,9.7,6.8
			c3.1,0.4,6.2,0.7,9.3,1.1c3.7,0.5,6.6,1.4,8.9,2.6c2,1.1,3.5,2.1,4.2,3.3c0.4,0.5,1.1,2.2,2.2,4.9v4.4h-8.7c0-4.6-3.1-7.6-9.2-9
			c-2.7-0.6-5.6-0.9-8.8-0.9h-16.1v-5.3h5.3c-1.6-0.7-3.1-1.8-4.3-3.4c-1.3-1.6-2-3.4-2-4.9v-10.5c0-1.6,0.8-3.4,2.3-5.1
			s3.2-2.6,4.8-2.6h5.1c1.5,0,3.2,0.8,4.9,2.6c1-1.1,2-1.8,2.9-2.1c0.7-0.3,1.9-0.4,3.6-0.4c1.6,0,2.9,0.1,3.6,0.4
			c0.8,0.3,1.7,1,2.9,2.1c1.2-1.2,2.2-1.9,3.2-2.2c0.7-0.2,2-0.3,3.9-0.3c2.2,0,4.2,0.5,5.7,1.5c1.8,1.2,2.8,2.9,2.8,4.9
			L690.9,149.3L690.9,149.3z"/>
		<path d="M723.3,172.5h-8.9v-31.8c0-1-0.4-1.8-1.1-2.4c-0.7-0.6-1.5-1-2.6-1c-0.8,0-1.6,0.3-2.3,1c-0.7,0.7-1.1,1.5-1.1,2.3v31.8
			h-8.9v-33.1c0-1.7,0.8-3.4,2.6-5.1c1.7-1.7,3.4-2.7,5-2.7h9.8c1.7,0,3.5,0.8,5.1,2.6s2.4,3.5,2.4,5.2L723.3,172.5L723.3,172.5z"/>
	</g>
	<polygon points="310,151.6 289.2,121.4 268.4,151.6 281.4,151.6 281.4,181.9 296.8,181.9 296.8,151.6 	"/>
</g>
<g>
	<path fill="#FCF73F" stroke="#000000" stroke-width="3.8602" stroke-miterlimit="10" d="M971,379.7H510.2c-2.4,0-4.4-1.9-4.4-4.4
		v-76.1c0-2.4,1.9-4.4,4.4-4.4H971c2.4,0,4.4,1.9,4.4,4.4v76.1C975.4,377.7,973.4,379.7,971,379.7z"/>
	<g>
		<path d="M609.5,346.8c0,1.5-0.8,3.2-2.3,4.7c-1.5,1.6-3.2,2.4-4.6,2.4h-9c-1.5,0-3.1-0.8-4.6-2.4c-1.5-1.6-2.3-3.2-2.3-4.7v-8.6
			c0-1.5,0.7-3.1,2.1-4.4c1.4-1.4,3-2.1,4.5-2.1h8.9V322c0-0.4-0.2-0.8-0.6-1.2c-0.4-0.3-0.8-0.5-1.2-0.5c-0.5,0-0.9,0.2-1.3,0.5
			c-0.4,0.3-0.6,0.7-0.6,1.2v5h-6.9c0-0.2,0-0.6,0-1c0-0.5,0-0.8,0-1c0-1.2-0.2-2.1-0.8-2.8c-0.6-0.6-1.4-0.8-2.8-0.8
			c-0.8,0-1.5,0.2-2.2,0.5c-0.4,0.2-1.1,0.6-2.1,1v-7.2c1.3-0.6,2.1-0.8,2.2-0.8h6.4c1,0,1.8,0.6,2.7,1.9c0.9-1.3,1.8-1.9,2.7-1.9
			h6.4c1.3,0,2.7,0.6,3.9,1.8c1.2,1.2,1.8,2.6,1.8,3.9L609.5,346.8L609.5,346.8z M601.6,342.8c0-1.7-0.2-3-0.5-3.8
			c-0.5-1.1-1.5-1.7-3-1.7c-2.3,0-3.5,1.7-3.5,5.2c0,1.7,0.2,3,0.5,3.7c0.5,1.1,1.4,1.7,3,1.7C600.5,348.2,601.6,346.4,601.6,342.8z
			"/>
		<path d="M640.3,346.8c0,1.5-0.8,3.2-2.6,4.7c-1.6,1.6-3.3,2.4-4.8,2.4h-9.4c-1.4,0-3-0.7-4.6-2.2c-1.5-1.5-2.3-3-2.3-4.5v-9.4h8.5
			v7.1c0,0.9,0.3,1.7,1,2.3c0.6,0.6,1.4,0.9,2.4,0.9c0.8,0,1.5-0.4,2.2-1c0.7-0.7,1-1.4,1-2.2v-21.2c0-0.9-0.3-1.6-1-2.3
			c-0.7-0.6-1.4-0.9-2.4-0.9c-1.5,0-2.6,0.6-3,1.9c-0.2,0.6-0.3,1.9-0.3,4h-8.5v-4.8c1.7-4.5,4.2-6.7,7.3-6.7h8.7
			c1.6,0,3.3,0.8,5,2.3c1.7,1.5,2.6,3.2,2.6,4.8L640.3,346.8L640.3,346.8z"/>
		<path d="M671.9,347.4c0,1.6-0.8,3.2-2.4,4.8c-1.6,1.5-3.3,2.3-4.9,2.3h-9.7c-1.6,0-3.3-0.8-4.9-2.3c-1.6-1.5-2.4-3.2-2.4-4.8v-8
			c0-1.6,0.8-3.2,2.4-4.8c1.6-1.5,3.3-2.3,4.9-2.3h8.6v-7.8c0-1-0.4-1.8-1.3-2.6c-0.8-0.6-1.7-0.9-2.8-0.9c-2.6,0-3.9,1.6-3.9,4.9
			v0.4c0,0.2,0,0.3,0,0.4h-8.2v-5c1.8-4.4,4.2-6.7,7.1-6.7H665c1.5,0,3.1,0.7,4.6,2.2s2.2,3.1,2.2,4.6L671.9,347.4L671.9,347.4z
			 M663.4,345.9v-5.2c0-0.9-0.4-1.6-1.2-2.1c-0.7-0.4-1.5-0.7-2.4-0.7c-0.9,0-1.6,0.2-2.4,0.7c-0.8,0.6-1.2,1.2-1.2,2.1v5.2
			c0,0.8,0.4,1.4,1.1,2c0.7,0.5,1.4,0.7,2.3,0.7c1,0,1.8-0.2,2.6-0.6C662.8,347.5,663.4,346.8,663.4,345.9z"/>
		<path d="M712,354.2h-8.2v-31.2c0-1.4-0.8-2.1-2.6-2.1c-1.7,0-2.6,0.7-2.6,2.1v12.2h-7.6v-12.2c0-1.4-0.8-2.1-2.6-2.1
			c-1.5,0-2.3,0.7-2.3,2.1v31.2h-8.2V321c0-1.4,0.6-2.8,1.8-4c1.2-1.2,2.6-1.8,4-1.8h7.6c0.8,0,1.5,0.3,2.1,0.9
			c0.2,0.2,0.8,0.8,1.5,1.8c1.4-1.8,2.8-2.8,3.8-2.8h7.3c1.4,0,2.8,0.6,4,1.8c1.2,1.2,1.8,2.6,1.8,4v33.2L712,354.2L712,354.2z"/>
		<path d="M742.8,348.4c0,1.2-0.8,2.4-2.4,3.8c-1.5,1.2-3,1.8-4.2,1.8h-9.8c-1.5,0-3.2-0.8-4.6-2.4c-1.5-1.6-2.3-3.2-2.3-4.7V315
			h8.4v30.7c0,1.8,1.1,2.8,3.5,2.8c0.8,0,1.6-0.2,2.2-0.8c0.6-0.5,1-1.2,1-2v-14.1h8.3L742.8,348.4L742.8,348.4z"/>
		<path d="M772.8,347c0,1.6-0.9,3.3-2.8,4.8c-1.7,1.4-3.5,2.2-5.2,2.2h-7.9c-1.6,0-3.2-0.8-4.8-2.3c-1.6-1.5-2.4-3.2-2.4-4.7v-8.9
			h8.1v7.5c0,0.7,0.4,1.4,1.1,1.9c0.7,0.5,1.4,0.8,2.2,0.8c0.7,0,1.4-0.3,2.1-0.9c0.7-0.6,1-1.2,1-1.8v-14.1c0-0.9-0.6-1.9-1.7-3
			c-0.8-0.6-1.9-1.6-3.6-3c-1.5-1.3-2.8-3-3.7-5v-5.1h8.1c0,2.2,0.5,4,1.6,5.4c0.5,0.6,2,1.9,4.4,3.8c2.1,1.6,3.2,3.1,3.2,4.2v18.1
			h0.2V347z"/>
		<path d="M803,347c0,1.5-0.8,3.1-2.3,4.6c-1.6,1.5-3.2,2.3-4.7,2.3h-9.8c-1.4,0-3-0.7-4.5-2.2c-1.4-1.4-2.2-3-2.2-4.5v-8.5h8.4v6.5
			c0,0.9,0.4,1.6,1,2.2c0.6,0.5,1.4,0.8,2.4,0.8c0.9,0,1.6-0.3,2.3-0.8c0.6-0.6,0.9-1.3,0.9-2.2v-8c0-2-1.1-3.1-3.5-3.1v-5.4
			c2.3,0,3.5-1.3,3.5-4.1c0-2.9-1.1-4.3-3.5-4.3c-1.4,0-2.4,0.6-2.9,1.9c-0.2,0.7-0.4,2-0.4,3.9h-8.4v-4.7c2.1-4.5,4.7-6.7,7.8-6.7
			h8.9c1.6,0,3.2,0.7,4.7,2.2c1.5,1.5,2.2,3.1,2.2,4.7v4.5c0,1.6-1.4,3.2-4.4,4.8c1.5,0.6,2.6,1,3,1.3c0.9,0.6,1.4,1.5,1.4,2.6
			L803,347L803,347z"/>
		<path d="M851.7,332.2h-8.1v-9.8c0-1.1-0.6-1.7-1.9-1.7c-0.4,0-0.8,0.2-1.2,0.6c-0.4,0.4-0.6,0.8-0.6,1.2v6.9h-7.3v-6.9
			c0-1.1-0.6-1.7-1.9-1.7c-1.3,0-1.9,0.6-1.9,1.7v6.9h-7.3v-6.9c0-1.1-0.6-1.7-1.9-1.7c-0.5,0-1,0.2-1.4,0.5
			c-0.4,0.3-0.6,0.7-0.6,1.2v10.2c0,3.5,3.1,5.6,9.2,6.4c3,0.3,5.9,0.7,8.8,1c3.5,0.5,6.3,1.3,8.4,2.4c1.9,1,3.3,2,4,3.1
			c0.4,0.5,1,2.1,2.1,4.6v4.2h-8.1c0-4.4-2.9-7.1-8.6-8.5c-2.6-0.6-5.3-0.8-8.4-0.8h-15.2v-5h5c-1.5-0.6-2.9-1.7-4-3.2
			c-1.2-1.5-1.8-3.2-1.8-4.7v-10c0-1.5,0.7-3.2,2.2-4.8c1.5-1.6,3-2.4,4.6-2.4h4.8c1.4,0,3,0.8,4.6,2.4c1-1,1.9-1.7,2.8-2
			c0.7-0.2,1.8-0.4,3.4-0.4c1.5,0,2.8,0.1,3.4,0.4c0.7,0.3,1.6,0.9,2.7,2c1.1-1.1,2.1-1.8,3-2.1c0.7-0.2,1.9-0.3,3.7-0.3
			c2.1,0,4,0.5,5.4,1.4c1.7,1.1,2.7,2.7,2.7,4.7v11.1h-0.1V332.2z"/>
		<path d="M882,346.8c0,1.5-0.8,3.2-2.6,4.7c-1.6,1.6-3.3,2.4-4.8,2.4h-9.4c-1.4,0-3-0.7-4.6-2.2c-1.5-1.5-2.3-3-2.3-4.5v-9.4h8.5
			v7.1c0,0.9,0.3,1.7,1,2.3c0.6,0.6,1.4,0.9,2.4,0.9c0.8,0,1.5-0.4,2.2-1c0.7-0.7,1-1.4,1-2.2v-21.2c0-0.9-0.3-1.6-1-2.3
			c-0.7-0.7-1.4-0.9-2.4-0.9c-1.5,0-2.6,0.6-3,1.9c-0.2,0.6-0.3,1.9-0.3,4h-8.5v-4.8c1.7-4.5,4.2-6.7,7.3-6.7h8.7
			c1.6,0,3.3,0.8,5,2.3c1.7,1.5,2.6,3.2,2.6,4.8L882,346.8L882,346.8z"/>
		<path d="M932.1,332.2H924v-9.8c0-1.1-0.6-1.7-1.9-1.7c-0.4,0-0.8,0.2-1.2,0.6c-0.4,0.4-0.6,0.8-0.6,1.2v6.9h-7.3v-6.9
			c0-1.1-0.6-1.7-1.9-1.7s-1.9,0.6-1.9,1.7v6.9h-7.3v-6.9c0-1.1-0.6-1.7-1.9-1.7c-0.5,0-1,0.2-1.4,0.5c-0.4,0.3-0.6,0.7-0.6,1.2
			v10.2c0,3.5,3.1,5.6,9.2,6.4c3,0.3,5.9,0.7,8.8,1c3.5,0.5,6.3,1.3,8.4,2.4c1.9,1,3.3,2,4,3.1c0.4,0.5,1,2.1,2.1,4.6v4.2h-8.1
			c0-4.4-2.9-7.1-8.6-8.5c-2.6-0.6-5.3-0.8-8.4-0.8h-15.2v-5h5c-1.5-0.6-2.9-1.7-4-3.2c-1.2-1.5-1.8-3.2-1.8-4.7v-10
			c0-1.5,0.7-3.2,2.2-4.8s3-2.4,4.6-2.4h4.8c1.4,0,3,0.8,4.6,2.4c1-1,1.9-1.7,2.8-2c0.7-0.2,1.8-0.4,3.4-0.4s2.8,0.1,3.4,0.4
			c0.7,0.3,1.6,0.9,2.7,2c1.1-1.1,2.1-1.8,3-2.1c0.7-0.2,1.9-0.3,3.7-0.3c2.1,0,4,0.5,5.4,1.4c1.7,1.1,2.7,2.7,2.7,4.7v11.1h-0.1
			V332.2z"/>
		<path d="M962.7,354.2h-8.4v-30c0-0.9-0.3-1.6-1-2.3c-0.7-0.7-1.5-0.9-2.4-0.9c-0.8,0-1.5,0.3-2.2,1c-0.6,0.7-1,1.4-1,2.2v30h-8.4
			v-31.3c0-1.6,0.8-3.2,2.3-4.9c1.6-1.6,3.2-2.4,4.8-2.4h9.3c1.6,0,3.3,0.8,4.8,2.4c1.5,1.6,2.3,3.3,2.3,4.9L962.7,354.2
			L962.7,354.2z"/>
	</g>
	<polygon points="545,317.1 514.5,334.7 545,352.1 545,341.1 575.3,341.1 575.3,328.2 545,328.2 	"/>
</g>
<g>
	<path fill="#FCF73F" stroke="#000000" stroke-width="3.8656" stroke-miterlimit="10" d="M485.1,379.8H23.6c-2.4,0-4.4-1.9-4.4-4.4
		v-76.2c0-2.4,1.9-4.4,4.4-4.4h461.4c2.4,0,4.4,1.9,4.4,4.4v76.2C489.4,377.9,487.5,379.8,485.1,379.8z"/>
	<g>
		<path d="M58.3,346.9c0,1.5-0.8,3.2-2.3,4.7c-1.5,1.6-3.2,2.4-4.7,2.4h-9.1c-1.5,0-3.1-0.8-4.7-2.4s-2.3-3.2-2.3-4.7v-8.6
			c0-1.5,0.7-3.1,2.1-4.4c1.4-1.4,3-2.1,4.5-2.1h8.9v-9.7c0-0.4-0.2-0.8-0.6-1.2c-0.4-0.3-0.8-0.5-1.2-0.5c-0.5,0-0.9,0.2-1.3,0.5
			s-0.6,0.7-0.6,1.2v5.1H40c0-0.2,0-0.6,0-1c0-0.5,0-0.8,0-1c0-1.2-0.2-2.1-0.8-2.8c-0.5-0.5-1.4-0.8-2.8-0.8
			c-0.8,0-1.5,0.2-2.2,0.5c-0.4,0.2-1.1,0.6-2.1,1v-7.2c1.3-0.6,2.1-0.8,2.2-0.8h6.4c1,0,1.8,0.6,2.7,1.9c0.9-1.3,1.8-1.9,2.7-1.9
			h6.4c1.3,0,2.7,0.6,3.9,1.8c1.2,1.2,1.8,2.6,1.8,3.9L58.3,346.9L58.3,346.9z M50.5,342.9c0-1.7-0.2-3-0.5-3.8
			c-0.5-1.1-1.5-1.7-3-1.7c-2.3,0-3.5,1.7-3.5,5.3c0,1.7,0.2,3,0.5,3.7c0.5,1.1,1.4,1.7,3,1.7C49.3,348.3,50.5,346.5,50.5,342.9z"/>
		<path d="M89.2,346.8c0,1.5-0.8,3.2-2.6,4.7c-1.7,1.6-3.3,2.4-4.9,2.4h-9.3c-1.4,0-3-0.7-4.6-2.2c-1.5-1.5-2.3-3-2.3-4.5v-9.4h8.5
			v7.1c0,0.9,0.3,1.7,1,2.3c0.6,0.6,1.4,0.9,2.4,0.9c0.8,0,1.5-0.4,2.2-1c0.7-0.7,1-1.4,1-2.2v-21.3c0-0.9-0.3-1.7-1-2.3
			c-0.7-0.6-1.4-0.9-2.4-0.9c-1.5,0-2.6,0.6-3,1.9c-0.2,0.6-0.3,1.9-0.3,4h-8.5v-4.8c1.7-4.5,4.2-6.7,7.3-6.7h8.7
			c1.6,0,3.3,0.8,5,2.3c1.7,1.5,2.6,3.2,2.6,4.8L89.2,346.8L89.2,346.8z"/>
		<path d="M120.8,347.4c0,1.6-0.8,3.2-2.4,4.8c-1.6,1.5-3.3,2.3-4.9,2.3h-9.7c-1.6,0-3.3-0.8-4.9-2.3c-1.6-1.5-2.4-3.2-2.4-4.8v-8
			c0-1.6,0.8-3.2,2.4-4.8c1.6-1.5,3.3-2.3,4.9-2.3h8.6v-7.8c0-1-0.4-1.9-1.3-2.6c-0.8-0.6-1.7-0.9-2.8-0.9c-2.6,0-3.9,1.6-3.9,4.9
			v0.4c0,0.2,0,0.3,0,0.4h-8.2v-5c1.8-4.4,4.2-6.7,7.1-6.7H114c1.5,0,3.1,0.7,4.6,2.2s2.2,3.1,2.2,4.7V347.4z M112.2,346v-5.2
			c0-0.9-0.4-1.6-1.2-2.1c-0.7-0.4-1.5-0.7-2.4-0.7c-0.9,0-1.7,0.2-2.4,0.7c-0.8,0.6-1.2,1.2-1.2,2.1v5.2c0,0.8,0.4,1.4,1.1,2
			c0.7,0.5,1.4,0.7,2.3,0.7c1,0,1.8-0.2,2.6-0.6C111.8,347.6,112.2,346.9,112.2,346z"/>
		<path d="M161,354.3h-8.2V323c0-1.4-0.8-2.1-2.6-2.1s-2.6,0.7-2.6,2.1v12.2h-7.6V323c0-1.4-0.8-2.1-2.6-2.1c-1.5,0-2.3,0.7-2.3,2.1
			v31.2h-8.2v-33.2c0-1.4,0.6-2.8,1.8-4c1.2-1.2,2.6-1.8,4-1.8h7.6c0.8,0,1.5,0.3,2.1,0.9c0.2,0.2,0.8,0.8,1.5,1.9
			c1.4-1.9,2.8-2.8,3.8-2.8h7.3c1.4,0,2.8,0.6,4,1.8c1.2,1.2,1.8,2.6,1.8,4L161,354.3L161,354.3z"/>
		<path d="M191.7,348.5c0,1.2-0.8,2.4-2.4,3.8c-1.5,1.2-3,1.9-4.2,1.9h-9.8c-1.5,0-3.2-0.8-4.7-2.4c-1.5-1.6-2.3-3.2-2.3-4.7v-31.8
			h8.5V346c0,1.9,1.1,2.8,3.5,2.8c0.8,0,1.6-0.2,2.2-0.8c0.6-0.6,1-1.2,1-2v-14.1h8.3L191.7,348.5L191.7,348.5z"/>
		<path d="M221.8,347.1c0,1.7-0.9,3.3-2.8,4.9c-1.7,1.4-3.5,2.2-5.2,2.2H206c-1.6,0-3.2-0.8-4.9-2.3c-1.6-1.5-2.4-3.2-2.4-4.7v-9.1
			h8.1v7.5c0,0.7,0.4,1.4,1.1,1.9c0.7,0.5,1.4,0.8,2.2,0.8c0.7,0,1.4-0.3,2.1-0.9c0.7-0.6,1-1.2,1-1.9v-14.1c0-0.9-0.6-1.9-1.7-3
			c-0.8-0.6-1.9-1.6-3.6-3c-1.5-1.3-2.8-3-3.7-5v-5.1h8.1c0,2.2,0.5,4,1.6,5.4c0.5,0.6,2,1.9,4.4,3.8c2.1,1.7,3.2,3.1,3.2,4.2v18.1
			h0.3V347.1z"/>
		<path d="M252,347c0,1.5-0.8,3.1-2.3,4.6c-1.6,1.5-3.2,2.3-4.7,2.3h-9.7c-1.4,0-3-0.7-4.5-2.2c-1.4-1.4-2.2-3-2.2-4.5v-8.5h8.5v6.5
			c0,0.9,0.4,1.7,1,2.2s1.4,0.8,2.4,0.8c0.9,0,1.7-0.3,2.3-0.8c0.6-0.6,0.9-1.3,0.9-2.2v-8.1c0-2-1.1-3.1-3.5-3.1v-5.4
			c2.3,0,3.5-1.3,3.5-4.1c0-2.9-1.1-4.3-3.5-4.3c-1.4,0-2.4,0.6-2.9,1.9c-0.2,0.7-0.4,2-0.4,3.9h-8.5v-4.7c2.1-4.5,4.7-6.7,7.8-6.7
			h8.9c1.6,0,3.2,0.7,4.7,2.2c1.5,1.5,2.2,3.1,2.2,4.7v4.5c0,1.6-1.4,3.2-4.4,4.8c1.5,0.6,2.6,1,3,1.3c0.9,0.6,1.4,1.5,1.4,2.6
			L252,347L252,347z"/>
		<path d="M300.8,332.3h-8.1v-9.8c0-1.1-0.6-1.7-1.9-1.7c-0.4,0-0.8,0.2-1.2,0.6s-0.6,0.8-0.6,1.2v6.9h-7.3v-6.9
			c0-1.1-0.6-1.7-1.9-1.7c-1.3,0-1.9,0.6-1.9,1.7v6.9h-7.3v-6.9c0-1.1-0.6-1.7-1.9-1.7c-0.5,0-1,0.2-1.4,0.5s-0.6,0.7-0.6,1.2v10.2
			c0,3.5,3.1,5.6,9.2,6.4c3,0.3,5.9,0.7,8.8,1c3.5,0.5,6.3,1.3,8.4,2.4c1.9,1,3.3,2,4,3.1c0.4,0.5,1,2.1,2.1,4.7v4.2h-8.1
			c0-4.4-2.9-7.1-8.7-8.5c-2.6-0.6-5.3-0.8-8.4-0.8h-15.2v-5h5c-1.5-0.6-2.9-1.7-4-3.2c-1.2-1.5-1.9-3.2-1.9-4.7v-10
			c0-1.5,0.7-3.2,2.2-4.8c1.4-1.6,3-2.4,4.6-2.4h4.8c1.4,0,3,0.8,4.6,2.4c1-1,1.9-1.7,2.8-2c0.7-0.2,1.8-0.4,3.4-0.4
			s2.8,0.1,3.4,0.4c0.7,0.3,1.6,0.9,2.7,2c1.1-1.1,2.1-1.8,3-2.1c0.7-0.2,1.9-0.3,3.7-0.3c2.1,0,4,0.5,5.4,1.4
			c1.7,1.1,2.7,2.7,2.7,4.7v11.1h0.1V332.3z"/>
		<path d="M331.1,346.8c0,1.5-0.8,3.2-2.6,4.7c-1.7,1.6-3.3,2.4-4.9,2.4h-9.4c-1.4,0-3-0.7-4.6-2.2c-1.5-1.5-2.3-3-2.3-4.5v-9.4h8.5
			v7.1c0,0.9,0.3,1.7,1,2.3c0.6,0.6,1.4,0.9,2.4,0.9c0.8,0,1.5-0.4,2.2-1c0.7-0.7,1-1.4,1-2.2v-21.3c0-0.9-0.3-1.7-1-2.3
			c-0.7-0.6-1.4-0.9-2.4-0.9c-1.5,0-2.6,0.6-3,1.9c-0.2,0.6-0.3,1.9-0.3,4h-8.5v-4.8c1.7-4.5,4.2-6.7,7.3-6.7h8.7
			c1.6,0,3.3,0.8,5,2.3c1.7,1.5,2.6,3.2,2.6,4.8L331.1,346.8L331.1,346.8z"/>
		<path d="M381.5,332.3h-8.1v-9.8c0-1.1-0.6-1.7-1.9-1.7c-0.4,0-0.8,0.2-1.2,0.6c-0.4,0.4-0.6,0.8-0.6,1.2v6.9h-7.3v-6.9
			c0-1.1-0.6-1.7-1.9-1.7s-1.9,0.6-1.9,1.7v6.9H351v-6.9c0-1.1-0.6-1.7-1.9-1.7c-0.5,0-1,0.2-1.4,0.5c-0.4,0.3-0.6,0.7-0.6,1.2v10.2
			c0,3.5,3.1,5.6,9.2,6.4c3,0.3,5.9,0.7,8.8,1c3.5,0.5,6.3,1.3,8.4,2.4c1.9,1,3.3,2,4,3.1c0.4,0.5,1,2.1,2.1,4.7v4.2h-8.1
			c0-4.4-2.9-7.1-8.7-8.5c-2.6-0.6-5.3-0.8-8.4-0.8h-15.2v-5h5c-1.5-0.6-2.9-1.7-4-3.2c-1.2-1.5-1.9-3.2-1.9-4.7v-10
			c0-1.5,0.7-3.2,2.2-4.8c1.4-1.6,3-2.4,4.6-2.4h4.8c1.4,0,3,0.8,4.6,2.4c1-1,1.9-1.7,2.8-2c0.7-0.2,1.8-0.4,3.4-0.4
			s2.8,0.1,3.4,0.4c0.7,0.3,1.6,0.9,2.7,2c1.1-1.1,2.1-1.8,3-2.1c0.7-0.2,1.9-0.3,3.7-0.3c2.1,0,4,0.5,5.4,1.4
			c1.7,1.1,2.7,2.7,2.7,4.7v11.1h0.1V332.3z"/>
		<path d="M412.1,354.3h-8.5v-30.1c0-0.9-0.3-1.7-1-2.3s-1.5-0.9-2.4-0.9c-0.8,0-1.5,0.3-2.2,1c-0.6,0.7-1,1.4-1,2.2v30.1h-8.4
			v-31.3c0-1.6,0.8-3.2,2.3-4.9c1.6-1.6,3.2-2.4,4.8-2.4h9.3c1.6,0,3.3,0.8,4.8,2.4s2.3,3.3,2.3,4.9V354.3L412.1,354.3z"/>
	</g>
	<polygon points="451.4,317.1 481.7,334.7 451.3,352.2 451.3,341.2 421,341.2 421,328.2 451.4,328.2 	"/>
</g>
</svg>
