<?xml version="1.0" encoding="utf-8"?>
<!-- Generator: Adobe Illustrator 18.0.0, SVG Export Plug-In . SVG Version: 6.00 Build 0)  -->
<!DOCTYPE svg PUBLIC "-//W3C//DTD SVG 1.1//EN" "http://www.w3.org/Graphics/SVG/1.1/DTD/svg11.dtd">
<svg version="1.1"
	 id="svg2" inkscape:version="0.48.4 r9939" sodipodi:docname="6.2014_02_16_18_28_07.2.svg" xmlns:sodipodi="http://sodipodi.sourceforge.net/DTD/sodipodi-0.dtd" xmlns:cc="http://creativecommons.org/ns#" xmlns:rdf="http://www.w3.org/1999/02/22-rdf-syntax-ns#" xmlns:dc="http://purl.org/dc/elements/1.1/" xmlns:inkscape="http://www.inkscape.org/namespaces/inkscape" xmlns:svg="http://www.w3.org/2000/svg"
	 xmlns="http://www.w3.org/2000/svg" xmlns:xlink="http://www.w3.org/1999/xlink" x="0px" y="0px" viewBox="199.9 -0.1 560.1 560.1"
	 enable-background="new 199.9 -0.1 560.1 560.1" xml:space="preserve">
<path id="rect3844-6" fill="#FFFFFF" stroke="#000000" stroke-width="2" d="M242,0.9h476c22.7,0,41.1,18.4,41.1,41.1v476
	c0,22.7-18.4,41.1-41.1,41.1H242c-22.7,0-41.1-18.4-41.1-41.1V42C200.9,19.3,219.3,0.9,242,0.9z"/>
<path id="rect9536" fill="#0D69E1" d="M242,18.7c-13,0-23.3,10.4-23.3,23.3v476c0,12.9,10.4,23.3,23.3,23.3h476
	c12.9,0,23.3-10.5,23.3-23.3V42c0-13-10.5-23.3-23.3-23.3H242z"/>
<polygon fill="#FFFFFF" points="362.5,12.1 362.5,547.9 417.5,547.9 416.9,12.1 "/>
<polygon fill="#FFFFFF" points="599.1,251.5 368.5,251.5 368.5,306.6 599.1,305.9 "/>
<g>
	<rect x="529.1" y="184.6" fill="#FFFFFF" width="102.7" height="190.7"/>
	<rect id="rect14989_1_" x="543.7" y="199.4" fill="#FF0000" width="73.4" height="161.4"/>
</g>
</svg>
