<?xml version="1.0" encoding="utf-8"?>
<!-- Generator: Adobe Illustrator 18.0.0, SVG Export Plug-In . SVG Version: 6.00 Build 0)  -->
<!DOCTYPE svg PUBLIC "-//W3C//DTD SVG 1.1//EN" "http://www.w3.org/Graphics/SVG/1.1/DTD/svg11.dtd">
<svg version="1.1"
	 id="svg2" inkscape:version="0.48.4 r9939" sodipodi:docname="6.2014_02_16_18_28_07.2.svg" xmlns:sodipodi="http://sodipodi.sourceforge.net/DTD/sodipodi-0.dtd" xmlns:dc="http://purl.org/dc/elements/1.1/" xmlns:cc="http://creativecommons.org/ns#" xmlns:inkscape="http://www.inkscape.org/namespaces/inkscape" xmlns:svg="http://www.w3.org/2000/svg" xmlns:rdf="http://www.w3.org/1999/02/22-rdf-syntax-ns#"
	 xmlns="http://www.w3.org/2000/svg" xmlns:xlink="http://www.w3.org/1999/xlink" x="0px" y="0px"
	 viewBox="-97.9 240.7 1046.6 335.1" enable-background="new -97.9 240.7 1046.6 335.1" xml:space="preserve">
<g>
	<g>
		<path id="rect3844-6" fill="#FFFFFF" stroke="#000000" stroke-width="2" d="M-76.1,241.7h463.9c11.5,0,20.8,9.3,20.8,20.8V554
			c0,11.5-9.3,20.8-20.8,20.8H-76.1c-11.5,0-20.8-9.3-20.8-20.8V262.6C-96.9,251.1-87.6,241.7-76.1,241.7z"/>
		<path id="rect9536" fill="#0D69E1" d="M387.9,250.7c6.5,0,11.8,5.3,11.8,11.8V554c0,6.5-5.3,11.8-11.8,11.8H-76.1
			c-6.5,0-11.8-5.3-11.8-11.8V262.6c0-6.6,5.3-11.8,11.8-11.8H387.9z"/>
	</g>
	<g>
		<path fill="#FFFFFF" d="M97.7,287.8h-5.6v-20.6c0-0.9-0.6-1.4-1.9-1.4c-0.4,0-0.8,0.1-1.2,0.4c-0.4,0.3-0.5,0.6-0.5,1v15.9
			c0,1-0.6,2.1-1.7,3.1s-2.2,1.6-3.3,1.6h-6c-1,0-2.1-0.5-3.3-1.6c-1.1-1-1.7-2.1-1.7-3.1v-16.4c0-1,0.6-2.1,1.7-3.2
			c1.1-1,2.2-1.6,3.3-1.6h4.7c1.1,0.1,2.3,0.7,3.5,1.7c0.5-0.4,1.1-0.8,1.6-1.2c0.6-0.3,1.1-0.5,1.6-0.5h4.6c1,0,1.9,0.4,2.8,1.2
			c0.9,0.8,1.4,1.7,1.4,2.6V287.8z M82.8,281.9v-14.3c0-0.5-0.3-0.9-0.8-1.3c-0.5-0.4-1-0.6-1.5-0.6c-0.5,0-1,0.2-1.5,0.6
			c-0.5,0.4-0.8,0.8-0.8,1.3v14.3c0,0.5,0.3,1,0.8,1.4c0.5,0.4,1,0.6,1.5,0.6c0.5,0,1-0.2,1.5-0.6C82.6,282.9,82.8,282.4,82.8,281.9
			z"/>
		<path fill="#FFFFFF" d="M119,283.2c0,1.1-0.5,2.1-1.6,3.2c-1,1.1-2.1,1.6-3.2,1.6h-7.3c-1.1,0-2.1-0.5-3.2-1.6
			c-1-1.1-1.5-2.2-1.5-3.2v-5.1c0-1.2,0.4-2.2,1.2-3c0.5-0.5,1.4-1,2.8-1.7c1.2-0.6,1.8-1.1,1.8-1.5v-3.4c0-0.5-0.4-0.9-1.1-1.1
			c-0.5-0.1-1.3-0.3-2.3-0.5c-1-0.3-1.6-0.8-1.9-1.6v-3.1h5.5c0,1.1,0.5,1.8,1.4,2.1c0.8,0.1,1.6,0.3,2.4,0.4c1,0.3,1.5,0.8,1.5,1.5
			v5.7c0,0.3,0.6,0.8,1.9,1.5c1.5,0.8,2.3,1.3,2.5,1.4c0.7,0.6,1.1,1.7,1.1,3.1V283.2z M113.7,280.3c0-1-0.3-1.8-0.8-2.5
			c-0.6-0.8-1.4-1.1-2.3-1.1c-0.9,0-1.6,0.4-2.2,1.3c-0.5,0.8-0.7,1.6-0.7,2.6c0,1,0.3,1.8,0.8,2.5c0.6,0.8,1.4,1.1,2.3,1.1
			c0.9,0,1.6-0.4,2.2-1.3C113.5,282.1,113.7,281.3,113.7,280.3z"/>
		<path fill="#FFFFFF" d="M139.6,287.9h-5.5v-19.8c0-0.6-0.2-1.1-0.7-1.5c-0.5-0.4-1-0.6-1.6-0.6c-0.5,0-1,0.2-1.5,0.7
			c-0.5,0.4-0.7,0.9-0.7,1.5v19.8h-5.5v-20.6c0-1,0.5-2.1,1.6-3.2c1-1.1,2.1-1.6,3.1-1.6h6.1c1.1,0,2.2,0.5,3.2,1.6s1.5,2.1,1.5,3.2
			V287.9z"/>
		<path fill="#FFFFFF" d="M172.6,273.5h-5.3V267c0-0.8-0.4-1.1-1.3-1.1c-0.3,0-0.5,0.1-0.8,0.4s-0.4,0.5-0.4,0.8v4.6H160V267
			c0-0.8-0.4-1.1-1.3-1.1c-0.9,0-1.3,0.4-1.3,1.1v4.6h-4.9V267c0-0.8-0.4-1.1-1.3-1.1c-0.3,0-0.6,0.1-0.9,0.3
			c-0.3,0.2-0.4,0.5-0.4,0.8v6.7c0,2.3,2,3.7,6,4.2c1.9,0.2,3.9,0.5,5.8,0.7c2.3,0.3,4.1,0.9,5.5,1.6c1.3,0.7,2.2,1.4,2.6,2
			c0.3,0.4,0.7,1.4,1.4,3.1v2.7H166c0-2.9-1.9-4.7-5.7-5.6c-1.7-0.4-3.5-0.6-5.5-0.6h-10v-3.3h3.3c-1-0.4-1.9-1.1-2.6-2.1
			c-0.8-1-1.2-2.1-1.2-3.1v-6.6c0-1,0.5-2.1,1.5-3.1c1-1.1,2-1.6,3-1.6h3.1c0.9,0,1.9,0.5,3,1.6c0.7-0.7,1.3-1.1,1.8-1.3
			c0.5-0.2,1.2-0.3,2.2-0.3s1.8,0.1,2.2,0.3c0.5,0.2,1.1,0.6,1.8,1.3c0.7-0.7,1.4-1.2,2-1.4c0.5-0.1,1.3-0.2,2.4-0.2
			c1.4,0,2.6,0.3,3.6,0.9c1.2,0.7,1.7,1.8,1.7,3.1V273.5z"/>
		<path fill="#FFFFFF" d="M192.7,287.9h-5.5v-19.8c0-0.6-0.2-1.1-0.7-1.5c-0.5-0.4-1-0.6-1.6-0.6c-0.5,0-1,0.2-1.5,0.7
			c-0.5,0.4-0.7,0.9-0.7,1.5v19.8h-5.5v-20.6c0-1,0.5-2.1,1.6-3.2c1-1.1,2.1-1.6,3.1-1.6h6.1c1.1,0,2.2,0.5,3.2,1.6s1.5,2.1,1.5,3.2
			V287.9z"/>
		<path fill="#FFFFFF" d="M213,284.1c0,0.8-0.5,1.6-1.6,2.5c-1,0.8-2,1.2-2.8,1.2h-6.4c-1,0-2-0.5-3-1.6c-1-1.1-1.5-2.1-1.5-3.1v-21
			h5.5v20.2c0,1.2,0.8,1.8,2.3,1.8c0.6,0,1.1-0.2,1.5-0.5c0.4-0.3,0.7-0.8,0.7-1.3v-9.3h5.4V284.1z"/>
		<path fill="#FFFFFF" d="M233.7,287.9h-5.5v-19.8c0-0.6-0.2-1.1-0.7-1.5c-0.5-0.4-1-0.6-1.6-0.6c-0.5,0-1,0.2-1.5,0.7
			c-0.5,0.4-0.7,0.9-0.7,1.5v19.8h-5.5v-20.6c0-1,0.5-2.1,1.6-3.2c1-1.1,2.1-1.6,3.1-1.6h6.1c1.1,0,2.2,0.5,3.2,1.6
			c1,1.1,1.5,2.1,1.5,3.2V287.9z"/>
	</g>
	<g>
		<g>
			<line fill="none" stroke="#FFFFFF" stroke-width="16" x1="-42.9" y1="565.8" x2="-42.9" y2="290.7"/>
			<g>
				<polygon fill="#FFFFFF" points="-18.9,297.7 -42.9,256.3 -66.8,297.7 				"/>
			</g>
		</g>
	</g>
	<g>
		<g>
			<path fill="none" stroke="#FFFFFF" stroke-width="13.0217" d="M-43.9,368.6l15.2-9.6c5.8-3.7,12.2-5.6,18.8-5.6h23.2
				c10.4,0,18.3,11,16.5,23l-1,6.3c-0.9,6-4.3,11.1-9.1,13.7l-7,3.8"/>
			<g>
				<polygon fill="#FFFFFF" points="8.4,380.4 -11.9,413.7 27.1,414.6 				"/>
			</g>
		</g>
	</g>
	<g>
		<g>
			<line fill="none" stroke="#FFFFFF" stroke-width="16" x1="-43.9" y1="535.2" x2="5.7" y2="485.6"/>
			<g>
				<polygon fill="#FFFFFF" points="17.6,507.5 30,461.3 -16.2,473.7 				"/>
			</g>
		</g>
	</g>
	<path fill="none" stroke="#FFFFFF" stroke-width="2.5665" d="M55.3,311.7H7.7c-2.2,0-4-1.8-4-4v-27.9c0-2.2,1.8-4,4-4h47.6
		c2.2,0,4,1.8,4,4v27.9C59.3,309.9,57.5,311.7,55.3,311.7z"/>
	<g>
		<path fill="#FFFFFF" d="M27.3,293c0,0.6,0.1,0.9,0.1,1.1c0.1,0.2,0.3,0.5,0.5,0.7c0.6,0.6,1,1.2,1.2,1.6c0.2,0.5,0.3,1.1,0.3,1.9
			c0,2.3-1,3.9-3.2,5c-1,0.5-2,0.7-3.3,0.7c-3,0-5-1.2-5.7-3.5c-0.3-0.9-0.4-1.8-0.4-2.8v-12.8h2.6v12.8c0,2.7,1.2,4.2,3.5,4.2
			c1.5,0,2.6-0.6,3.2-1.8c0.3-0.5,0.4-1.2,0.4-1.9c0-0.7-0.1-1.2-0.2-1.6v0c-0.2-0.3-0.5-0.8-0.9-1.3c-0.2-0.3-0.5-0.7-0.6-0.9
			c-0.2-0.3-0.4-0.9-0.4-1.5H27.3z"/>
		<path fill="#FFFFFF" d="M35.1,297.9c0.3,2.3,1.6,3.5,3.3,3.5c1.1,0,1.9-0.4,2.6-1.2c0.7-0.8,1.1-1.8,1.1-3.1
			c0-2.4-1.5-3.9-3.7-3.9c-1.4,0-2.6,0.8-3.3,1.8l-2.6-0.3l1.9-10h9.7v2.7h-7.4c-0.3,1.6-0.5,2.5-0.8,4.1c1-0.5,2.1-0.9,3.1-0.9
			c1.7,0,3.1,0.6,4.3,1.8c1.2,1.2,1.8,2.7,1.8,4.5c0,1.7-0.6,3.3-1.5,4.5c-1.2,1.5-3,2.4-5.1,2.4c-1.8,0-3.2-0.5-4.3-1.5
			c-1.1-1-1.8-2.4-1.9-4.2L35.1,297.9z"/>
	</g>
	<g>
		<path fill="#FFFFFF" d="M93.1,300.9v4.5h-7.5v20.7h-5.3v-20.7h-7.6v-4.5H93.1z"/>
		<path fill="#FFFFFF" d="M115.8,303.5c0.8,1.1,1.2,2.4,1.2,3.8c0,1.5-0.4,2.8-1.2,3.7c-0.4,0.5-1.1,1-1.9,1.4
			c1.3,0.5,2.3,1.2,2.9,2.2s1,2.2,1,3.7c0,1.5-0.4,2.8-1.1,4c-0.5,0.8-1.1,1.4-1.8,2c-0.8,0.6-1.8,1-2.8,1.3
			c-1.1,0.2-2.3,0.3-3.6,0.3H97.1v-25.2h12.2C112.4,300.9,114.5,301.8,115.8,303.5z M102.1,305.2v5.6h6.1c1.1,0,2-0.2,2.7-0.6
			s1-1.2,1-2.2c0-1.2-0.5-1.9-1.4-2.3c-0.8-0.3-1.8-0.4-3-0.4H102.1z M102.1,315v6.7h6.1c1.1,0,1.9-0.1,2.6-0.4
			c1.1-0.5,1.7-1.6,1.7-3.1c0-1.3-0.5-2.2-1.6-2.7c-0.6-0.3-1.4-0.4-2.5-0.4H102.1z"/>
		<path fill="#FFFFFF" d="M128,326.1h-5.2v-25.2h5.2V326.1z"/>
		<path fill="#FFFFFF" d="M133.8,300.9h5.3v20.7h12.6v4.5h-17.8V300.9z"/>
		<path fill="#FFFFFF" d="M160.8,326.1h-5.2v-25.2h5.2V326.1z"/>
		<path fill="#FFFFFF" d="M170.4,318.3c0.2,1.2,0.5,2,1,2.6c0.9,1,2.4,1.6,4.5,1.6c1.3,0,2.3-0.1,3.1-0.4c1.5-0.5,2.3-1.5,2.3-2.9
			c0-0.8-0.4-1.5-1.1-1.9c-0.7-0.4-1.9-0.8-3.5-1.2l-2.7-0.6c-2.7-0.6-4.5-1.2-5.5-1.9c-1.7-1.2-2.5-3-2.5-5.5
			c0-2.3,0.8-4.1,2.5-5.6c1.7-1.5,4.1-2.2,7.3-2.2c2.7,0,5,0.7,6.9,2.1s2.9,3.4,3,6.1h-5.1c-0.1-1.5-0.8-2.6-2-3.2
			c-0.8-0.4-1.9-0.6-3.1-0.6c-1.4,0-2.5,0.3-3.3,0.8c-0.8,0.5-1.2,1.3-1.2,2.3c0,0.9,0.4,1.6,1.2,2c0.5,0.3,1.6,0.6,3.3,1l4.4,1
			c1.9,0.5,3.4,1.1,4.4,1.8c1.5,1.2,2.3,2.9,2.3,5.1c0,2.3-0.9,4.2-2.7,5.7c-1.8,1.5-4.3,2.3-7.5,2.3c-3.3,0-5.9-0.7-7.8-2.2
			c-1.9-1.5-2.9-3.6-2.9-6.2H170.4z"/>
		<path fill="#FFFFFF" d="M195.7,326.1h-5.2v-25.2h5.2V326.1z"/>
	</g>
	<g>
		<g>
			<path fill="#FFFFFF" d="M191.6,350.2c-1.2-0.3-1.8-0.4-1.8-0.4c-1,0-1.5,0.7-1.5,2.2v0.7c0,0.2,0,0.5,0,0.7h-4.2
				c0-0.2,0-0.4,0-0.8s0-0.6,0-0.8c0-1.8-0.4-2.7-1.2-2.7c-0.3,0-0.6,0.2-0.8,0.5c-0.3,0.3-0.4,0.6-0.4,1v6.1h6.4
				c0.8,0,1.5,0.3,2.2,1c0.7,0.6,1,1.4,1,2.2v7.1c0,1-0.5,1.9-1.5,2.9c-1,1-1.9,1.5-2.9,1.5h-6.1c-1,0-2-0.5-3-1.6
				c-1-1-1.5-2.1-1.5-3.1v-17.3c0-0.8,0.3-1.6,0.9-2.4c0.6-0.8,1.3-1.3,2.1-1.3h4.6c0.8,0,1.5,0.5,2.2,1.4c0.6-0.6,1-1.1,1.4-1.3
				c0.4-0.2,1-0.3,1.8-0.3c0.5,0,0.9,0,1.2,0.1c0.2,0.1,0.6,0.2,1,0.3V350.2z M185.8,365.7v-3.4c0-0.5-0.2-1-0.6-1.3
				c-0.4-0.3-0.8-0.5-1.3-0.5c-1.4,0-2,0.6-2,1.8v3.4c0,0.5,0.2,1,0.6,1.3c0.4,0.4,0.8,0.5,1.3,0.5c0.6,0,1-0.2,1.4-0.5
				C185.6,366.7,185.8,366.2,185.8,365.7z"/>
			<path fill="#FFFFFF" d="M208.9,371.2h-5.3v-19.8c0-0.6-0.2-1.1-0.7-1.5c-0.4-0.4-0.9-0.6-1.5-0.6c-0.5,0-1,0.2-1.4,0.7
				c-0.4,0.4-0.7,0.9-0.7,1.5v19.8h-5.3v-20.6c0-1,0.5-2.1,1.5-3.2c1-1.1,2-1.6,3-1.6h5.9c1,0,2.1,0.5,3,1.6c1,1.1,1.5,2.1,1.5,3.2
				V371.2z"/>
			<path fill="#FFFFFF" d="M235.8,371.1h-5.3v-20.6c0-0.9-0.6-1.4-1.8-1.4c-0.4,0-0.8,0.1-1.1,0.4c-0.4,0.3-0.5,0.6-0.5,1v15.9
				c0,1-0.6,2.1-1.7,3.1s-2.2,1.6-3.1,1.6h-5.8c-1,0-2.1-0.5-3.2-1.6c-1.1-1-1.6-2.1-1.6-3.1V350c0-1,0.6-2.1,1.7-3.2
				c1.1-1,2.1-1.6,3.1-1.6h4.5c1.1,0.1,2.2,0.7,3.3,1.7c0.5-0.4,1-0.8,1.5-1.2c0.6-0.3,1.1-0.5,1.6-0.5h4.4c0.9,0,1.8,0.4,2.7,1.2
				c0.9,0.8,1.3,1.7,1.3,2.6V371.1z M221.5,365.3V351c0-0.5-0.3-0.9-0.8-1.3c-0.5-0.4-1-0.6-1.4-0.6c-0.4,0-0.9,0.2-1.4,0.6
				c-0.5,0.4-0.8,0.8-0.8,1.3v14.3c0,0.5,0.2,1,0.7,1.4c0.5,0.4,0.9,0.6,1.4,0.6c0.5,0,1-0.2,1.5-0.6
				C221.2,366.2,221.5,365.7,221.5,365.3z"/>
			<path fill="#FFFFFF" d="M253.5,366.3c0,1-0.5,2-1.6,3.1c-1.1,1.1-2.1,1.6-3.1,1.6H243c-0.9,0-1.9-0.5-2.9-1.5c-1-1-1.5-2-1.5-2.9
				v-6.2h5.3v4.7c0,0.6,0.2,1.1,0.6,1.5s0.9,0.6,1.5,0.6c0.5,0,1-0.2,1.4-0.7c0.4-0.5,0.7-0.9,0.7-1.5v-14c0-0.6-0.2-1.1-0.6-1.5
				c-0.4-0.4-0.9-0.6-1.5-0.6c-1,0-1.6,0.4-1.9,1.3c-0.1,0.4-0.2,1.3-0.2,2.6h-5.3v-3.1c1.1-3,2.7-4.4,4.7-4.4h5.5
				c1,0,2.1,0.5,3.2,1.6c1.1,1,1.6,2.1,1.6,3.2V366.3z"/>
			<path fill="#FFFFFF" d="M283.6,356.8h-5.1v-6.5c0-0.8-0.4-1.1-1.2-1.1c-0.3,0-0.5,0.1-0.7,0.4c-0.2,0.2-0.4,0.5-0.4,0.8v4.6h-4.7
				v-4.6c0-0.8-0.4-1.1-1.2-1.1c-0.8,0-1.2,0.4-1.2,1.1v4.6h-4.7v-4.6c0-0.8-0.4-1.1-1.2-1.1c-0.3,0-0.6,0.1-0.9,0.3
				c-0.3,0.2-0.4,0.5-0.4,0.8v6.7c0,2.3,1.9,3.7,5.8,4.2c1.8,0.2,3.7,0.5,5.5,0.7c2.2,0.3,4,0.9,5.3,1.6c1.2,0.7,2.1,1.4,2.5,2
				c0.2,0.4,0.7,1.4,1.3,3.1v2.7h-5.1c0-2.9-1.8-4.7-5.4-5.6c-1.6-0.4-3.3-0.6-5.3-0.6h-9.6v-3.3h3.2c-1-0.4-1.8-1.1-2.5-2.1
				c-0.8-1-1.2-2.1-1.2-3.1v-6.6c0-1,0.5-2.1,1.4-3.1c0.9-1.1,1.9-1.6,2.9-1.6h3c0.9,0,1.9,0.5,2.9,1.6c0.6-0.7,1.2-1.1,1.7-1.3
				c0.4-0.2,1.1-0.3,2.1-0.3s1.7,0.1,2.2,0.3c0.5,0.2,1,0.6,1.7,1.3c0.7-0.7,1.3-1.2,1.9-1.4c0.4-0.1,1.2-0.2,2.3-0.2
				c1.3,0,2.5,0.3,3.4,0.9c1.1,0.7,1.7,1.8,1.7,3.1V356.8z"/>
			<path fill="#FFFFFF" d="M301.2,371.2h-5.3v-19.8c0-0.6-0.2-1.1-0.7-1.5c-0.4-0.4-0.9-0.6-1.5-0.6c-0.5,0-1,0.2-1.4,0.7
				c-0.4,0.4-0.7,0.9-0.7,1.5v19.8h-5.3v-20.6c0-1,0.5-2.1,1.5-3.2c1-1.1,2-1.6,3-1.6h5.9c1,0,2.1,0.5,3,1.6c1,1.1,1.5,2.1,1.5,3.2
				V371.2z"/>
			<path fill="#FFFFFF" d="M327.7,366.8c0,1-0.5,2-1.5,3c-1,1-2,1.5-3,1.5h-6c-1,0-2-0.5-3-1.5c-1-1-1.5-2-1.5-3v-21.5h5.3v11.2h1.4
				c0.3-0.3,0.8-0.7,1.5-1.3c0.8-0.7,1.3-1,1.5-1h5.3v0.2l-2.9,2l-0.1,0.3c0.8,0.1,1.5,0.6,2.1,1.3c0.6,0.8,0.9,1.6,0.9,2.4V366.8z
				 M322.3,365.8v-3.7c0-0.5-0.2-0.9-0.6-1.2c-0.4-0.3-0.9-0.5-1.4-0.5c-0.5,0-1,0.1-1.4,0.4c-0.5,0.3-0.7,0.8-0.7,1.3v3.7
				c0,0.5,0.2,0.9,0.6,1.3c0.4,0.3,0.8,0.5,1.3,0.5c0.5,0,1-0.1,1.4-0.4C322.1,366.7,322.3,366.3,322.3,365.8z"/>
			<path fill="#FFFFFF" d="M345.5,371.2h-5.3v-19.8c0-0.6-0.2-1.1-0.7-1.5c-0.4-0.4-0.9-0.6-1.5-0.6c-0.5,0-1,0.2-1.4,0.7
				c-0.4,0.4-0.7,0.9-0.7,1.5v19.8h-5.3v-20.6c0-1,0.5-2.1,1.5-3.2c1-1.1,2-1.6,3-1.6h5.9c1,0,2.1,0.5,3,1.6c1,1.1,1.5,2.1,1.5,3.2
				V371.2z"/>
			<path fill="#FFFFFF" d="M369,354.3c0,1.1-0.5,2.2-1.6,3.2s-2.1,1.6-3.2,1.6h-3.8c-1,0-2.1-0.5-3.1-1.6c-1.1-1.1-1.6-2.1-1.6-3.2
				v-3.7c0-0.8-0.5-1.1-1.4-1.1c-0.8,0-1.2,0.4-1.2,1.1v5.1c0,2,0.9,3.5,2.6,4.7c1,0.7,2.8,1.4,5.2,2.1c1.9,0.5,3.2,1,3.7,1.2
				c1.2,0.6,2.1,1.5,2.6,2.8c0.3,1,0.6,1.7,0.7,1.9v2.8h-5.4c0-3-1.7-4.9-5-5.6c-1.4-0.3-3.1-0.5-5-0.5c-1.6,0-2.7,0.1-3.2,0.3h-1
				v-3.9h2.3c-0.6-0.8-1.2-1.6-1.8-2.4c-0.5-0.9-0.8-1.7-0.8-2.3v-6.9c0-1,0.5-1.9,1.4-2.8s1.9-1.4,2.8-1.4h3.5
				c0.5,0,1.1,0.2,1.5,0.8c0.4,0.5,0.6,0.9,0.7,0.9c1-1.1,2-1.7,2.9-1.7h3.7c1,0,2,0.5,2.9,1.5c0.9,1,1.4,2,1.4,3.1V354.3z
				 M363.7,352.4c0-1,0-1.6-0.1-1.9c-0.2-0.6-0.6-0.9-1.4-0.9c-0.7,0-1.1,0.3-1.3,0.9c-0.1,0.3-0.2,0.9-0.2,1.8v0.5
				c0,0.8,0.1,1.3,0.2,1.6c0.2,0.5,0.6,0.7,1.3,0.7c0.7,0,1.1-0.3,1.3-0.9C363.6,353.9,363.7,353.3,363.7,352.4z"/>
			<path fill="#FFFFFF" d="M386.6,371.2h-5.3v-19.8c0-0.6-0.2-1.1-0.7-1.5c-0.4-0.4-0.9-0.6-1.5-0.6c-0.5,0-1,0.2-1.4,0.7
				c-0.4,0.4-0.7,0.9-0.7,1.5v19.8h-5.3v-20.6c0-1,0.5-2.1,1.5-3.2c1-1.1,2-1.6,3-1.6h5.9c1,0,2.1,0.5,3,1.6c1,1.1,1.5,2.1,1.5,3.2
				V371.2z"/>
		</g>
		<path fill="none" stroke="#FFFFFF" stroke-width="2.5665" d="M164.1,395.1h-47.6c-2.2,0-4-1.8-4-4v-27.9c0-2.2,1.8-4,4-4h47.6
			c2.2,0,4,1.8,4,4v27.9C168.1,393.3,166.3,395.1,164.1,395.1z"/>
		<g>
			<path fill="#FFFFFF" d="M136.1,375.3c0,0.6,0.1,0.9,0.1,1.1c0.1,0.2,0.3,0.5,0.5,0.7c0.6,0.6,1,1.2,1.2,1.6
				c0.2,0.5,0.3,1.1,0.3,1.9c0,2.3-1,3.9-3.2,5c-1,0.5-2,0.7-3.3,0.7c-3,0-5-1.2-5.7-3.5c-0.3-0.9-0.4-1.8-0.4-2.8v-12.8h2.6V380
				c0,2.7,1.2,4.2,3.5,4.2c1.5,0,2.6-0.6,3.2-1.8c0.3-0.5,0.4-1.2,0.4-1.9c0-0.7-0.1-1.2-0.2-1.6v0c-0.2-0.3-0.5-0.8-0.9-1.3
				c-0.2-0.3-0.5-0.7-0.6-0.9c-0.2-0.3-0.4-0.9-0.4-1.5H136.1z"/>
			<path fill="#FFFFFF" d="M143.7,380c0.5,2.6,1.8,3.7,3.4,3.7c1,0,1.8-0.3,2.5-1s1-1.5,1-2.6c0-1.9-1.4-3.4-3.4-3.4
				c-0.4,0-1,0.1-1.9,0.3l0.3-2.7c0.5,0.1,0.5,0.1,0.6,0.1c0.9,0,1.8-0.2,2.5-0.7h0c0.7-0.5,1.1-1.2,1.1-2.2c0-1.5-1.1-2.6-2.8-2.6
				c-1.6,0-2.8,1.1-3.1,3.4l-2.8-0.5c0.6-3.4,2.8-5.3,5.9-5.3c3.2-0.1,5.8,2.5,5.7,5.1c0,1.6-0.7,2.9-2.2,3.7
				c1.9,0.7,3.1,2.3,3.1,4.6c0,1.7-0.6,3.1-1.9,4.3c-1.2,1.2-2.8,1.8-4.6,1.8c-1.7,0-3.1-0.5-4.3-1.5c-1.1-1.1-1.8-2.5-1.9-4.2
				L143.7,380z"/>
		</g>
		<g>
			<path fill="#FFFFFF" d="M196,384.2v4.5h-7.2v20.7h-5.1v-20.7h-7.3v-4.5H196z"/>
			<path fill="#FFFFFF" d="M201.8,401.6c0.2,1.2,0.5,2,0.9,2.6c0.8,1,2.3,1.6,4.3,1.6c1.2,0,2.2-0.1,3-0.4c1.4-0.5,2.2-1.5,2.2-2.9
				c0-0.8-0.4-1.5-1.1-1.9c-0.7-0.4-1.8-0.8-3.4-1.2l-2.6-0.6c-2.6-0.6-4.3-1.2-5.3-1.9c-1.6-1.2-2.4-3-2.4-5.5
				c0-2.3,0.8-4.1,2.4-5.6c1.6-1.5,3.9-2.2,7-2.2c2.6,0,4.8,0.7,6.6,2.1c1.8,1.4,2.8,3.4,2.9,6.1h-4.9c-0.1-1.5-0.7-2.6-2-3.2
				c-0.8-0.4-1.8-0.6-3-0.6c-1.3,0-2.4,0.3-3.2,0.8s-1.2,1.3-1.2,2.3c0,0.9,0.4,1.6,1.2,2c0.5,0.3,1.6,0.6,3.2,1l4.2,1
				c1.9,0.5,3.3,1.1,4.2,1.8c1.4,1.2,2.2,2.9,2.2,5.1c0,2.3-0.9,4.2-2.6,5.7c-1.7,1.5-4.1,2.3-7.2,2.3c-3.2,0-5.7-0.7-7.5-2.2
				s-2.7-3.6-2.7-6.2H201.8z"/>
			<path fill="#FFFFFF" d="M224.3,409.4h-5v-25.2h5V409.4z"/>
			<path fill="#FFFFFF" d="M245.8,384.2v4.5h-7.2v20.7h-5.1v-20.7h-7.3v-4.5H245.8z"/>
			<path fill="#FFFFFF" d="M265.8,388.7H253v5.3h11.7v4.4H253v6.5h13.4v4.5H248v-25.2h17.7V388.7z"/>
			<path fill="#FFFFFF" d="M269.4,384.2h5.1v20.7h12.1v4.5h-17.1V384.2z"/>
			<path fill="#FFFFFF" d="M293.7,409.4h-5v-25.2h5V409.4z"/>
			<path fill="#FFFFFF" d="M306.2,384.2h5v10.4l9.3-10.4h6.5l-9.9,10.4l10.4,14.8H321l-7.4-11l-2.4,2.6v8.4h-5V384.2z"/>
			<path fill="#FFFFFF" d="M329.5,409.4v-25.2h5v9.6h9.4v-9.6h5v25.2h-5v-11.2h-9.4v11.2H329.5z"/>
			<path fill="#FFFFFF" d="M357.6,409.4h-5v-25.2h5V409.4z"/>
			<path fill="#FFFFFF" d="M375.6,384.7c1.7,0.6,3.1,1.6,4.1,3.2c0.8,1.3,1.4,2.6,1.7,4.1c0.3,1.5,0.5,2.8,0.5,4.2
				c0,3.3-0.6,6.2-1.9,8.5c-1.8,3.1-4.5,4.7-8.1,4.7h-10.4v-25.2h10.4C373.4,384.2,374.6,384.4,375.6,384.7z M366.4,388.6V405h4.7
				c2.4,0,4.1-1.2,5-3.7c0.5-1.3,0.8-2.9,0.8-4.8c0-2.6-0.4-4.5-1.2-5.9s-2.3-2.1-4.6-2.1H366.4z"/>
			<path fill="#FFFFFF" d="M389.5,409.4h-5v-25.2h5V409.4z"/>
		</g>
		<path fill="#00A500" stroke="#FFFFFF" stroke-width="2.5665" d="M99.1,395.1H51.5c-2.2,0-4-1.8-4-4v-27.9c0-2.2,1.8-4,4-4h47.6
			c2.2,0,4,1.8,4,4v27.9C103.1,393.3,101.3,395.1,99.1,395.1z"/>
		<g>
			<path fill="#FFFFFF" d="M53.1,369h11.5v1.9h-9.4v4.8h8.7v1.8h-8.7v5.3h9.5v1.9H53.1V369z"/>
			<path fill="#FFFFFF" d="M66.8,377.7h5.4v2h-5.4V377.7z"/>
			<path fill="#FFFFFF" d="M83.2,370.7c0.7,0.9,1,1.8,1,2.8h-1.9c-0.1-0.6-0.3-1.1-0.5-1.4c-0.5-0.6-1.2-1-2.1-1
				c-1.1,0-1.9,0.5-2.6,1.5c-0.6,1-1,2.4-1.1,4.3c0.4-0.7,1-1.1,1.7-1.5c0.6-0.3,1.3-0.4,2.1-0.4c1.3,0,2.4,0.4,3.4,1.2
				c1,0.8,1.4,2.1,1.4,3.7c0,1.4-0.5,2.6-1.4,3.7c-0.9,1.1-2.2,1.6-3.9,1.6c-1.4,0-2.7-0.5-3.7-1.6c-1-1.1-1.6-2.9-1.6-5.5
				c0-1.9,0.2-3.5,0.7-4.9c0.9-2.5,2.5-3.8,4.9-3.8C81.3,369.3,82.5,369.8,83.2,370.7z M81.8,382.4c0.5-0.7,0.8-1.5,0.8-2.4
				c0-0.8-0.2-1.5-0.7-2.2c-0.5-0.7-1.3-1.1-2.5-1.1c-0.8,0-1.6,0.3-2.2,0.8c-0.6,0.6-0.9,1.4-0.9,2.5c0,1,0.3,1.8,0.9,2.5
				c0.6,0.7,1.4,1,2.4,1C80.5,383.5,81.3,383.1,81.8,382.4z"/>
			<path fill="#FFFFFF" d="M95.7,371.9c0.7,1.3,1,3,1,5.2c0,2.1-0.3,3.8-0.9,5.2c-0.9,2-2.4,2.9-4.4,2.9c-1.8,0-3.2-0.8-4.1-2.4
				c-0.8-1.3-1.1-3.1-1.1-5.4c0-1.7,0.2-3.2,0.7-4.5c0.8-2.3,2.4-3.5,4.6-3.5C93.4,369.4,94.8,370.2,95.7,371.9z M93.7,382.1
				c0.6-0.9,0.9-2.5,0.9-5c0-1.7-0.2-3.2-0.6-4.3c-0.4-1.1-1.3-1.7-2.5-1.7c-1.1,0-2,0.5-2.5,1.6c-0.5,1.1-0.8,2.6-0.8,4.7
				c0,1.6,0.2,2.8,0.5,3.8c0.5,1.5,1.4,2.2,2.6,2.2C92.3,383.4,93.1,383,93.7,382.1z"/>
		</g>
	</g>
	<g>
		<path fill="#FFFFFF" d="M193.4,455.5c0,1.1-0.5,2.1-1.6,3.2s-2.1,1.6-3.2,1.6h-7.4c-1.1,0-2.1-0.5-3.2-1.6c-1-1.1-1.6-2.2-1.6-3.2
			v-5.1c0-1.2,0.4-2.2,1.2-3c0.5-0.5,1.5-1,2.9-1.7c1.2-0.6,1.8-1.1,1.8-1.5v-3.4c0-0.5-0.4-0.9-1.1-1.1c-0.5-0.1-1.3-0.3-2.4-0.5
			c-1-0.3-1.6-0.8-2-1.6v-3.1h5.6c0,1.1,0.5,1.8,1.4,2.1c0.8,0.1,1.6,0.3,2.4,0.4c1,0.3,1.5,0.8,1.5,1.5v5.7c0,0.3,0.6,0.8,1.9,1.5
			c1.5,0.8,2.4,1.3,2.5,1.4c0.7,0.6,1.1,1.7,1.1,3.1V455.5z M188,452.6c0-1-0.3-1.8-0.8-2.5c-0.6-0.8-1.4-1.1-2.3-1.1
			c-0.9,0-1.7,0.4-2.2,1.3c-0.5,0.8-0.7,1.6-0.7,2.6s0.3,1.8,0.8,2.5c0.6,0.8,1.4,1.1,2.3,1.1c0.9,0,1.7-0.4,2.2-1.3
			C187.8,454.4,188,453.6,188,452.6z"/>
		<path fill="#FFFFFF" d="M213.3,455.5c0,1.1-0.6,2.2-1.8,3.2c-1.2,1-2.3,1.5-3.4,1.5h-5.2c-1.1,0-2.1-0.5-3.2-1.5
			c-1.1-1-1.6-2.1-1.6-3.1v-5.9h5.4v4.9c0,0.5,0.3,0.9,0.8,1.3c0.5,0.4,1,0.5,1.5,0.5c0.5,0,0.9-0.2,1.4-0.6
			c0.5-0.4,0.7-0.8,0.7-1.2v-9.2c0-0.6-0.4-1.3-1.1-1.9c-0.5-0.4-1.3-1.1-2.4-2c-1-0.9-1.9-2-2.5-3.3v-3.4h5.4
			c0,1.4,0.4,2.6,1.1,3.6c0.4,0.4,1.3,1.3,2.9,2.5c1.4,1.1,2.1,2,2.1,2.8V455.5z"/>
		<path fill="#FFFFFF" d="M243.2,460.1h-5.6v-20.6c0-0.9-0.6-1.4-1.9-1.4c-0.4,0-0.8,0.1-1.2,0.4c-0.4,0.3-0.6,0.6-0.6,1v15.9
			c0,1-0.6,2.1-1.7,3.1s-2.3,1.6-3.3,1.6h-6.1c-1.1,0-2.2-0.5-3.3-1.6c-1.2-1-1.7-2.1-1.7-3.1v-16.4c0-1,0.6-2.1,1.7-3.2
			c1.2-1,2.3-1.6,3.3-1.6h4.8c1.1,0.1,2.3,0.7,3.5,1.7c0.5-0.4,1.1-0.8,1.6-1.2c0.6-0.3,1.1-0.5,1.6-0.5h4.6c1,0,1.9,0.4,2.8,1.2
			s1.4,1.7,1.4,2.6V460.1z M228.2,454.2v-14.3c0-0.5-0.3-0.9-0.8-1.3c-0.5-0.4-1-0.6-1.5-0.6c-0.5,0-1,0.2-1.5,0.6
			c-0.5,0.4-0.8,0.8-0.8,1.3v14.3c0,0.5,0.3,1,0.8,1.4c0.5,0.4,1,0.6,1.5,0.6c0.5,0,1-0.2,1.5-0.6
			C227.9,455.2,228.2,454.7,228.2,454.2z"/>
		<path fill="#FFFFFF" d="M266.4,456.1c0,0.9-0.6,1.9-1.9,2.8c-1.2,0.9-2.3,1.3-3.3,1.3h-6.5c-1.1,0-2.1-0.5-3.2-1.6
			c-1-1-1.6-2.1-1.6-3.1v-5.4h5.4v4.1c0,0.7,0.3,1.2,0.9,1.7c0.5,0.4,1.1,0.6,1.9,0.6c0.7,0,1.3-0.2,1.9-0.6s0.9-1,0.9-1.6V440
			c0-0.4-0.1-0.7-0.4-1c-0.3-0.3-0.6-0.5-1-0.5c-0.3,0-0.6,0.2-0.9,0.5c-0.3,0.4-0.4,0.7-0.4,1v4.3h-5v-3.8c0-0.3-0.2-0.6-0.5-0.9
			c-0.3-0.3-0.6-0.4-1-0.4c-0.1,0-0.7,0.3-1.9,0.9h-2v-5.1c0.8,0.3,1.4,0.4,1.7,0.4c0.2,0,0.7-0.1,1.4-0.4s1.3-0.4,1.7-0.4
			c0.7,0,1.3,0.1,1.8,0.4c0.3,0.2,0.8,0.6,1.4,1.2c0.2-0.2,0.5-0.5,0.9-0.9c0.5-0.4,1-0.7,1.5-0.7h4.2c0.9,0,1.8,0.4,2.6,1.2
			c0.8,0.8,1.2,1.7,1.2,2.6V456.1z"/>
		<path fill="#FFFFFF" d="M287,455.7c0,1.1-0.5,2.1-1.6,3.1c-1.1,1-2.2,1.5-3.2,1.5h-6.4c-1.1,0-2.2-0.5-3.2-1.5
			c-1.1-1-1.6-2.1-1.6-3.1v-5.2c0-1.1,0.5-2.1,1.6-3.1c1.1-1,2.2-1.5,3.2-1.5h5.7v-5.1c0-0.7-0.3-1.2-0.9-1.7
			c-0.5-0.4-1.1-0.6-1.8-0.6c-1.7,0-2.6,1.1-2.6,3.2v0.3c0,0.1,0,0.2,0,0.3h-5.4V439c1.2-2.9,2.8-4.4,4.7-4.4h7c1,0,2.1,0.5,3.1,1.5
			s1.5,2,1.5,3.1V455.7z M281.3,454.7v-3.4c0-0.6-0.3-1-0.8-1.4c-0.5-0.3-1-0.5-1.6-0.5c-0.6,0-1.1,0.2-1.6,0.5
			c-0.5,0.4-0.8,0.8-0.8,1.4v3.4c0,0.5,0.2,1,0.7,1.3c0.5,0.3,1,0.5,1.5,0.5c0.6,0,1.2-0.1,1.7-0.4
			C281,455.8,281.3,455.3,281.3,454.7z"/>
		<path fill="#FFFFFF" d="M307.2,460.2h-5.6v-19.8c0-0.6-0.2-1.1-0.7-1.5c-0.5-0.4-1-0.6-1.6-0.6c-0.5,0-1,0.2-1.5,0.7
			c-0.5,0.4-0.7,0.9-0.7,1.5v19.8h-5.6v-20.6c0-1,0.5-2.1,1.6-3.2s2.1-1.6,3.2-1.6h6.2c1.1,0,2.2,0.5,3.2,1.6s1.5,2.1,1.5,3.2V460.2
			z"/>
	</g>
	<path fill="none" stroke="#FFFFFF" stroke-width="2.5665" d="M164.1,484h-47.6c-2.2,0-4-1.8-4-4v-27.9c0-2.2,1.8-4,4-4h47.6
		c2.2,0,4,1.8,4,4V480C168.1,482.2,166.3,484,164.1,484z"/>
	<g>
		<path fill="#FFFFFF" d="M136.1,464.3c0,0.6,0.1,0.9,0.1,1.1c0.1,0.2,0.3,0.5,0.5,0.7c0.6,0.6,1,1.2,1.2,1.6
			c0.2,0.5,0.3,1.1,0.3,1.9c0,2.3-1,3.9-3.2,5c-1,0.5-2,0.7-3.3,0.7c-3,0-5-1.2-5.7-3.5c-0.3-0.9-0.4-1.8-0.4-2.8v-12.8h2.6V469
			c0,2.7,1.2,4.2,3.5,4.2c1.5,0,2.6-0.6,3.2-1.8c0.3-0.5,0.4-1.2,0.4-1.9c0-0.7-0.1-1.2-0.2-1.6v0c-0.2-0.3-0.5-0.8-0.9-1.3
			c-0.2-0.3-0.5-0.7-0.6-0.9c-0.2-0.3-0.4-0.9-0.4-1.5H136.1z"/>
		<path fill="#FFFFFF" d="M143.7,469c0.5,2.6,1.8,3.7,3.4,3.7c1,0,1.8-0.3,2.5-1s1-1.5,1-2.6c0-1.9-1.4-3.4-3.4-3.4
			c-0.4,0-1,0.1-1.9,0.3l0.3-2.7c0.5,0.1,0.5,0.1,0.6,0.1c0.9,0,1.8-0.2,2.5-0.7h0c0.7-0.5,1.1-1.2,1.1-2.2c0-1.5-1.1-2.6-2.8-2.6
			c-1.6,0-2.8,1.1-3.1,3.4l-2.8-0.5c0.6-3.4,2.8-5.3,5.9-5.3c3.2-0.1,5.8,2.5,5.7,5.1c0,1.6-0.7,2.9-2.2,3.7
			c1.9,0.7,3.1,2.3,3.1,4.6c0,1.7-0.6,3.1-1.9,4.3c-1.2,1.2-2.8,1.8-4.6,1.8c-1.7,0-3.1-0.5-4.3-1.5c-1.1-1.1-1.8-2.5-1.9-4.2
			L143.7,469z"/>
	</g>
	<g>
		<path fill="#FFFFFF" d="M197.6,475.8c0.8,1.1,1.2,2.4,1.2,3.8c0,1.5-0.4,2.8-1.2,3.7c-0.4,0.5-1.1,1-1.9,1.4
			c1.3,0.5,2.3,1.2,2.9,2.2c0.7,1,1,2.2,1,3.7c0,1.5-0.4,2.8-1.1,4c-0.5,0.8-1.1,1.4-1.8,2c-0.8,0.6-1.8,1-2.9,1.3
			c-1.1,0.2-2.3,0.3-3.6,0.3h-11.5v-25.2H191C194.1,473.2,196.3,474.1,197.6,475.8z M183.8,477.5v5.6h6.2c1.1,0,2-0.2,2.7-0.6
			s1-1.2,1-2.2c0-1.2-0.5-1.9-1.4-2.3c-0.8-0.3-1.8-0.4-3-0.4H183.8z M183.8,487.3v6.7h6.2c1.1,0,2-0.1,2.6-0.4
			c1.1-0.5,1.7-1.6,1.7-3.1c0-1.3-0.5-2.2-1.6-2.7c-0.6-0.3-1.5-0.4-2.5-0.4H183.8z"/>
		<path fill="#FFFFFF" d="M211.5,473.2h6l9,25.2h-5.8l-1.7-5.2h-9.4l-1.7,5.2h-5.6L211.5,473.2z M211.1,488.8h6.5l-3.2-9.9
			L211.1,488.8z"/>
		<path fill="#FFFFFF" d="M245.7,473.2v4.5h-7.6v20.7h-5.4v-20.7H225v-4.5H245.7z"/>
		<path fill="#FFFFFF" d="M248.8,473.2h5.4v15.5c0,1.7,0.2,3,0.6,3.8c0.6,1.4,2,2.1,4.2,2.1c2.1,0,3.5-0.7,4.2-2.1
			c0.4-0.8,0.6-2.1,0.6-3.8v-15.5h5.4v15.5c0,2.7-0.4,4.8-1.3,6.3c-1.6,2.7-4.6,4.1-9,4.1s-7.4-1.4-9-4.1c-0.8-1.5-1.3-3.6-1.3-6.3
			V473.2z"/>
		<path fill="#FFFFFF" d="M291.3,473.2h7.7v25.2h-5v-17c0-0.5,0-1.2,0-2.1c0-0.9,0-1.6,0-2l-4.8,21.1H284l-4.8-21.1c0,0.5,0,1.2,0,2
			c0,0.9,0,1.6,0,2.1v17h-5v-25.2h7.8l4.6,19.8L291.3,473.2z"/>
		<path fill="#FFFFFF" d="M308.8,498.4h-5.3v-25.2h5.3V498.4z"/>
	</g>
	<path fill="#00A500" stroke="#FFFFFF" stroke-width="2.5665" d="M99.1,484H51.5c-2.2,0-4-1.8-4-4v-27.9c0-2.2,1.8-4,4-4h47.6
		c2.2,0,4,1.8,4,4V480C103.1,482.2,101.3,484,99.1,484z"/>
	<g>
		<path fill="#FFFFFF" d="M53.1,458h11.5v1.9h-9.4v4.8h8.7v1.8h-8.7v5.3h9.5v1.9H53.1V458z"/>
		<path fill="#FFFFFF" d="M66.8,466.6h5.4v2h-5.4V466.6z"/>
		<path fill="#FFFFFF" d="M83.2,459.6c0.7,0.9,1,1.8,1,2.8h-1.9c-0.1-0.6-0.3-1.1-0.5-1.4c-0.5-0.6-1.2-1-2.1-1
			c-1.1,0-1.9,0.5-2.6,1.5c-0.6,1-1,2.4-1.1,4.3c0.4-0.7,1-1.1,1.7-1.5c0.6-0.3,1.3-0.4,2.1-0.4c1.3,0,2.4,0.4,3.4,1.2
			c1,0.8,1.4,2.1,1.4,3.7c0,1.4-0.5,2.6-1.4,3.7c-0.9,1.1-2.2,1.6-3.9,1.6c-1.4,0-2.7-0.5-3.7-1.6c-1-1.1-1.6-2.9-1.6-5.5
			c0-1.9,0.2-3.5,0.7-4.9c0.9-2.5,2.5-3.8,4.9-3.8C81.3,458.3,82.5,458.8,83.2,459.6z M81.8,471.4c0.5-0.7,0.8-1.5,0.8-2.4
			c0-0.8-0.2-1.5-0.7-2.2c-0.5-0.7-1.3-1.1-2.5-1.1c-0.8,0-1.6,0.3-2.2,0.8c-0.6,0.6-0.9,1.4-0.9,2.5c0,1,0.3,1.8,0.9,2.5
			c0.6,0.7,1.4,1,2.4,1C80.5,472.4,81.3,472.1,81.8,471.4z"/>
		<path fill="#FFFFFF" d="M95.7,460.8c0.7,1.3,1,3,1,5.2c0,2.1-0.3,3.8-0.9,5.2c-0.9,2-2.4,2.9-4.4,2.9c-1.8,0-3.2-0.8-4.1-2.4
			c-0.8-1.3-1.1-3.1-1.1-5.4c0-1.7,0.2-3.2,0.7-4.5c0.8-2.3,2.4-3.5,4.6-3.5C93.4,458.4,94.8,459.2,95.7,460.8z M93.7,471.1
			c0.6-0.9,0.9-2.5,0.9-5c0-1.7-0.2-3.2-0.6-4.3c-0.4-1.1-1.3-1.7-2.5-1.7c-1.1,0-2,0.5-2.5,1.6c-0.5,1.1-0.8,2.6-0.8,4.7
			c0,1.6,0.2,2.8,0.5,3.8c0.5,1.5,1.4,2.2,2.6,2.2C92.3,472.4,93.1,472,93.7,471.1z"/>
	</g>
	<g>
		<path fill="#FFFFFF" d="M136.3,549.5h-2.8v-14.2c-0.5,0.4-1.1,0.8-1.8,1.2c-0.8,0.5-1.8,0.9-2.8,1.3v-2.7c2.6-1.3,4.6-3.1,5.5-4.8
			h1.9V549.5z"/>
		<path fill="#FFFFFF" d="M148.5,530.3c2.1,0,3.7,0.9,4.7,2.5v0c1.1,1.5,1.6,3.6,1.6,7.3c0,6.6-2,9.6-6.3,9.7c-1.8,0-3.4-0.8-4.4-2
			c-1.2-1.5-1.9-4.2-1.9-7.7C142.2,533.4,144.3,530.4,148.5,530.3z M146.1,546c0.6,0.9,1.5,1.4,2.5,1.4c1,0,1.8-0.5,2.4-1.4
			c0.7-1,1.1-3,1.1-6c0-3-0.4-5-1.1-5.9c-0.6-0.9-1.4-1.4-2.4-1.4c-1,0-1.8,0.5-2.3,1.2c-0.7,1.1-1.1,3.2-1.1,6.1
			C145.1,543,145.4,545,146.1,546z"/>
		<path fill="#FFFFFF" d="M163.5,530.3c2.1,0,3.7,0.9,4.7,2.5v0c1.1,1.5,1.6,3.6,1.6,7.3c0,6.6-2,9.6-6.3,9.7c-1.8,0-3.4-0.8-4.4-2
			c-1.2-1.5-1.9-4.2-1.9-7.7C157.2,533.4,159.3,530.4,163.5,530.3z M161,546c0.6,0.9,1.5,1.4,2.5,1.4c1,0,1.8-0.5,2.4-1.4
			c0.7-1,1.1-3,1.1-6c0-3-0.4-5-1.1-5.9c-0.6-0.9-1.4-1.4-2.4-1.4c-1,0-1.8,0.5-2.3,1.2c-0.7,1.1-1.1,3.2-1.1,6.1
			C160,543,160.4,545,161,546z"/>
		<path fill="#FFFFFF" d="M178.5,530.3c2.1,0,3.7,0.9,4.7,2.5v0c1.1,1.5,1.6,3.6,1.6,7.3c0,6.6-2,9.6-6.3,9.7c-1.8,0-3.4-0.8-4.4-2
			c-1.2-1.5-1.9-4.2-1.9-7.7C172.2,533.4,174.2,530.4,178.5,530.3z M176,546c0.6,0.9,1.5,1.4,2.5,1.4c1,0,1.8-0.5,2.4-1.4
			c0.7-1,1.1-3,1.1-6c0-3-0.4-5-1.1-5.9c-0.6-0.9-1.4-1.4-2.4-1.4c-1,0-1.8,0.5-2.3,1.2c-0.7,1.1-1.1,3.2-1.1,6.1
			C175,543,175.3,545,176,546z"/>
		<path fill="#FFFFFF" d="M204.9,536.1c0-1.6-0.4-2.7-1.4-3.3c-0.4-0.3-1-0.4-1.6-0.4c-1.2,0-2.1,0.4-2.7,1.3
			c-0.6,0.8-0.9,1.9-0.9,3.3h-2.6c0-3.3,1.2-5.3,3.6-6.1c1-0.4,1.9-0.6,2.7-0.6c2.1,0,3.7,0.9,4.8,2.5c0.5,0.8,0.8,1.9,0.8,3.1v7.6
			c0,1.5-0.4,2.9-1.2,4.3c-0.8,1.5-2.5,2.3-5.1,2.3c-2.7,0-4.6-1-5.6-3.1c-0.5-0.9-0.6-1.8-0.6-2.7c-0.1-3.3,2.8-5.9,6.2-5.8
			c1.4,0,2.6,0.3,3.6,1.2V536.1z M199.5,547.4c0.6,0.3,1.2,0.5,1.8,0.5c2,0,3.7-1.7,3.6-3.8c0-1-0.3-1.8-1-2.5s-1.5-1-2.5-1
			c-1.4,0-2.4,0.6-3.2,1.8c-0.4,0.5-0.5,1.2-0.5,2C197.7,545.7,198.3,546.7,199.5,547.4z"/>
	</g>
</g>
<g>
	<g>
		<path id="rect3844-6_2_" fill="#FFFFFF" stroke="#000000" stroke-width="2" d="M462.9,241.7h463.9c11.5,0,20.8,9.3,20.8,20.8V554
			c0,11.5-9.3,20.8-20.8,20.8H462.9c-11.5,0-20.8-9.3-20.8-20.8V262.6C442.1,251.1,451.4,241.7,462.9,241.7z"/>
		<path id="rect9536_2_" fill="#00A500" d="M926.9,250.7c6.5,0,11.8,5.3,11.8,11.8V554c0,6.5-5.3,11.8-11.8,11.8H462.9
			c-6.5,0-11.8-5.3-11.8-11.8V262.6c0-6.6,5.3-11.8,11.8-11.8H926.9z"/>
	</g>
	<g>
		<path fill="#FFFFFF" d="M694.2,287.8h-5.6v-20.6c0-0.9-0.6-1.4-1.9-1.4c-0.4,0-0.8,0.1-1.2,0.4c-0.4,0.3-0.5,0.6-0.5,1v15.9
			c0,1-0.6,2.1-1.7,3.1c-1.2,1.1-2.2,1.6-3.3,1.6h-6c-1,0-2.1-0.5-3.3-1.6c-1.1-1-1.7-2.1-1.7-3.1v-16.4c0-1,0.6-2.1,1.7-3.2
			c1.1-1,2.2-1.6,3.3-1.6h4.7c1.1,0.1,2.3,0.7,3.5,1.7c0.5-0.4,1.1-0.8,1.6-1.2c0.6-0.3,1.1-0.5,1.6-0.5h4.6c1,0,1.9,0.4,2.8,1.2
			c0.9,0.8,1.4,1.7,1.4,2.6V287.8z M679.4,281.9v-14.3c0-0.5-0.3-0.9-0.8-1.3c-0.5-0.4-1-0.6-1.5-0.6c-0.5,0-1,0.2-1.5,0.6
			c-0.5,0.4-0.8,0.8-0.8,1.3v14.3c0,0.5,0.3,1,0.8,1.4c0.5,0.4,1,0.6,1.5,0.6c0.5,0,1-0.2,1.5-0.6
			C679.1,282.9,679.4,282.4,679.4,281.9z"/>
		<path fill="#FFFFFF" d="M715.6,283.2c0,1.1-0.5,2.1-1.6,3.2c-1,1.1-2.1,1.6-3.2,1.6h-7.3c-1.1,0-2.1-0.5-3.2-1.6
			c-1-1.1-1.5-2.2-1.5-3.2v-5.1c0-1.2,0.4-2.2,1.2-3c0.5-0.5,1.4-1,2.8-1.7c1.2-0.6,1.8-1.1,1.8-1.5v-3.4c0-0.5-0.4-0.9-1.1-1.1
			c-0.5-0.1-1.3-0.3-2.3-0.5c-1-0.3-1.6-0.8-1.9-1.6v-3.1h5.5c0,1.1,0.5,1.8,1.4,2.1c0.8,0.1,1.6,0.3,2.4,0.4c1,0.3,1.5,0.8,1.5,1.5
			v5.7c0,0.3,0.6,0.8,1.9,1.5c1.5,0.8,2.3,1.3,2.5,1.4c0.7,0.6,1.1,1.7,1.1,3.1V283.2z M710.3,280.3c0-1-0.3-1.8-0.8-2.5
			c-0.6-0.8-1.4-1.1-2.3-1.1c-0.9,0-1.6,0.4-2.2,1.3c-0.5,0.8-0.7,1.6-0.7,2.6c0,1,0.3,1.8,0.8,2.5c0.6,0.8,1.4,1.1,2.3,1.1
			c0.9,0,1.6-0.4,2.2-1.3C710,282.1,710.3,281.3,710.3,280.3z"/>
		<path fill="#FFFFFF" d="M736.1,287.9h-5.5v-19.8c0-0.6-0.2-1.1-0.7-1.5c-0.5-0.4-1-0.6-1.6-0.6c-0.5,0-1,0.2-1.5,0.7
			c-0.5,0.4-0.7,0.9-0.7,1.5v19.8h-5.5v-20.6c0-1,0.5-2.1,1.6-3.2s2.1-1.6,3.1-1.6h6.1c1.1,0,2.2,0.5,3.2,1.6c1,1.1,1.5,2.1,1.5,3.2
			V287.9z"/>
		<path fill="#FFFFFF" d="M769.1,273.5h-5.3V267c0-0.8-0.4-1.1-1.3-1.1c-0.3,0-0.5,0.1-0.8,0.4s-0.4,0.5-0.4,0.8v4.6h-4.9V267
			c0-0.8-0.4-1.1-1.3-1.1c-0.9,0-1.3,0.4-1.3,1.1v4.6h-4.9V267c0-0.8-0.4-1.1-1.3-1.1c-0.3,0-0.6,0.1-0.9,0.3
			c-0.3,0.2-0.4,0.5-0.4,0.8v6.7c0,2.3,2,3.7,6,4.2c1.9,0.2,3.9,0.5,5.8,0.7c2.3,0.3,4.1,0.9,5.5,1.6c1.3,0.7,2.2,1.4,2.6,2
			c0.2,0.4,0.7,1.4,1.4,3.1v2.7h-5.3c0-2.9-1.9-4.7-5.7-5.6c-1.7-0.4-3.5-0.6-5.5-0.6h-10v-3.3h3.3c-1-0.4-1.9-1.1-2.6-2.1
			c-0.8-1-1.2-2.1-1.2-3.1v-6.6c0-1,0.5-2.1,1.5-3.1s2-1.6,3-1.6h3.1c0.9,0,1.9,0.5,3,1.6c0.7-0.7,1.3-1.1,1.8-1.3
			c0.5-0.2,1.2-0.3,2.2-0.3s1.8,0.1,2.2,0.3c0.5,0.2,1.1,0.6,1.8,1.3c0.7-0.7,1.4-1.2,2-1.4c0.5-0.1,1.3-0.2,2.4-0.2
			c1.4,0,2.6,0.3,3.6,0.9c1.2,0.7,1.7,1.8,1.7,3.1V273.5z"/>
		<path fill="#FFFFFF" d="M789.2,287.9h-5.5v-19.8c0-0.6-0.2-1.1-0.7-1.5c-0.5-0.4-1-0.6-1.6-0.6c-0.5,0-1,0.2-1.5,0.7
			c-0.5,0.4-0.7,0.9-0.7,1.5v19.8h-5.5v-20.6c0-1,0.5-2.1,1.6-3.2s2.1-1.6,3.1-1.6h6.1c1.1,0,2.2,0.5,3.2,1.6c1,1.1,1.5,2.1,1.5,3.2
			V287.9z"/>
		<path fill="#FFFFFF" d="M809.5,284.1c0,0.8-0.5,1.6-1.6,2.5c-1,0.8-2,1.2-2.8,1.2h-6.4c-1,0-2-0.5-3-1.6c-1-1.1-1.5-2.1-1.5-3.1
			v-21h5.5v20.2c0,1.2,0.8,1.8,2.3,1.8c0.6,0,1.1-0.2,1.5-0.5s0.7-0.8,0.7-1.3v-9.3h5.4V284.1z"/>
		<path fill="#FFFFFF" d="M830.2,287.9h-5.5v-19.8c0-0.6-0.2-1.1-0.7-1.5c-0.5-0.4-1-0.6-1.6-0.6c-0.5,0-1,0.2-1.5,0.7
			c-0.5,0.4-0.7,0.9-0.7,1.5v19.8h-5.5v-20.6c0-1,0.5-2.1,1.6-3.2c1-1.1,2.1-1.6,3.1-1.6h6.1c1.1,0,2.2,0.5,3.2,1.6
			c1,1.1,1.5,2.1,1.5,3.2V287.9z"/>
	</g>
	<g>
		<g>
			<line fill="none" stroke="#FFFFFF" stroke-width="16" x1="496.1" y1="565.8" x2="496.1" y2="290.7"/>
			<g>
				<polygon fill="#FFFFFF" points="520.1,297.7 496.1,256.3 472.2,297.7 				"/>
			</g>
		</g>
	</g>
	<g>
		<g>
			<path fill="none" stroke="#FFFFFF" stroke-width="13.0217" d="M495.1,368.6l15.2-9.6c5.8-3.7,12.2-5.6,18.8-5.6h23.2
				c10.4,0,18.3,11,16.5,23l-1,6.3c-0.9,6-4.3,11.1-9.1,13.7l-7,3.8"/>
			<g>
				<polygon fill="#FFFFFF" points="547.4,380.4 527.1,413.7 566.1,414.6 				"/>
			</g>
		</g>
	</g>
	<g>
		<g>
			<line fill="none" stroke="#FFFFFF" stroke-width="16" x1="495.1" y1="535.2" x2="544.7" y2="485.6"/>
			<g>
				<polygon fill="#FFFFFF" points="556.6,507.5 569,461.3 522.8,473.7 				"/>
			</g>
		</g>
	</g>
	<path fill="none" stroke="#FFFFFF" stroke-width="2.5665" d="M594.3,301.7h-47.6c-2.2,0-4-1.8-4-4v-27.9c0-2.2,1.8-4,4-4h47.6
		c2.2,0,4,1.8,4,4v27.9C598.3,299.9,596.5,301.7,594.3,301.7z"/>
	<g>
		<path fill="#FFFFFF" d="M566.3,283c0,0.6,0.1,0.9,0.1,1.1c0.1,0.2,0.3,0.5,0.5,0.7c0.6,0.6,1,1.2,1.2,1.6c0.2,0.5,0.3,1.1,0.3,1.9
			c0,2.3-1,3.9-3.2,5c-1,0.5-2,0.7-3.3,0.7c-3,0-5-1.2-5.7-3.5c-0.3-0.9-0.4-1.8-0.4-2.8v-12.8h2.6v12.8c0,2.7,1.2,4.2,3.5,4.2
			c1.5,0,2.6-0.6,3.2-1.8c0.3-0.5,0.4-1.2,0.4-1.9c0-0.7-0.1-1.2-0.2-1.6v0c-0.2-0.3-0.5-0.8-0.9-1.3c-0.2-0.3-0.5-0.7-0.6-0.9
			c-0.2-0.3-0.4-0.9-0.4-1.5H566.3z"/>
		<path fill="#FFFFFF" d="M580.3,293.5h-2.8v-14.2c-0.5,0.4-1.1,0.8-1.8,1.2c-0.8,0.5-1.8,0.9-2.8,1.3v-2.7c2.6-1.3,4.6-3.1,5.5-4.8
			h1.9V293.5z"/>
	</g>
	<g>
		<path fill="#FFFFFF" d="M709.1,300.9v4.5h-7.5v20.7h-5.3v-20.7h-7.6v-4.5H709.1z"/>
		<path fill="#FFFFFF" d="M731.9,303.5c0.8,1.1,1.2,2.4,1.2,3.8c0,1.5-0.4,2.8-1.2,3.7c-0.4,0.5-1.1,1-1.9,1.4
			c1.3,0.5,2.3,1.2,2.9,2.2s1,2.2,1,3.7c0,1.5-0.4,2.8-1.1,4c-0.5,0.8-1.1,1.4-1.8,2c-0.8,0.6-1.8,1-2.8,1.3
			c-1.1,0.2-2.3,0.3-3.6,0.3h-11.4v-25.2h12.2C728.4,300.9,730.6,301.8,731.9,303.5z M718.2,305.2v5.6h6.1c1.1,0,2-0.2,2.7-0.6
			c0.7-0.4,1-1.2,1-2.2c0-1.2-0.5-1.9-1.4-2.3c-0.8-0.3-1.8-0.4-3-0.4H718.2z M718.2,315v6.7h6.1c1.1,0,1.9-0.1,2.6-0.4
			c1.1-0.5,1.7-1.6,1.7-3.1c0-1.3-0.5-2.2-1.6-2.7c-0.6-0.3-1.4-0.4-2.5-0.4H718.2z"/>
		<path fill="#FFFFFF" d="M744,326.1h-5.2v-25.2h5.2V326.1z"/>
		<path fill="#FFFFFF" d="M749.8,300.9h5.3v20.7h12.6v4.5h-17.8V300.9z"/>
		<path fill="#FFFFFF" d="M776.9,326.1h-5.2v-25.2h5.2V326.1z"/>
		<path fill="#FFFFFF" d="M786.5,318.3c0.2,1.2,0.5,2,1,2.6c0.9,1,2.4,1.6,4.5,1.6c1.3,0,2.3-0.1,3.1-0.4c1.5-0.5,2.3-1.5,2.3-2.9
			c0-0.8-0.4-1.5-1.1-1.9c-0.7-0.4-1.9-0.8-3.5-1.2l-2.7-0.6c-2.7-0.6-4.5-1.2-5.5-1.9c-1.7-1.2-2.5-3-2.5-5.5
			c0-2.3,0.8-4.1,2.5-5.6c1.7-1.5,4.1-2.2,7.3-2.2c2.7,0,5,0.7,6.9,2.1s2.9,3.4,3,6.1h-5.1c-0.1-1.5-0.8-2.6-2-3.2
			c-0.8-0.4-1.9-0.6-3.1-0.6c-1.4,0-2.5,0.3-3.3,0.8s-1.2,1.3-1.2,2.3c0,0.9,0.4,1.6,1.2,2c0.5,0.3,1.6,0.6,3.3,1l4.4,1
			c1.9,0.5,3.4,1.1,4.4,1.8c1.5,1.2,2.3,2.9,2.3,5.1c0,2.3-0.9,4.2-2.7,5.7c-1.8,1.5-4.3,2.3-7.5,2.3c-3.3,0-5.9-0.7-7.8-2.2
			s-2.8-3.6-2.8-6.2H786.5z"/>
		<path fill="#FFFFFF" d="M811.7,326.1h-5.2v-25.2h5.2V326.1z"/>
	</g>
	<g>
		<path fill="#FFFFFF" d="M700.7,539.1c-1.6-0.8-2.3-2-2.3-3.7c0-1.4,0.5-2.6,1.5-3.6s2.4-1.5,4.1-1.5c1.7,0,3,0.5,4.1,1.5
			c1,1,1.6,2.2,1.6,3.6c0,1.7-0.7,2.9-2.3,3.7c2,0.9,3,2.6,3,4.8c0,1.7-0.6,3.1-1.8,4.2c-1.2,1.1-2.7,1.7-4.6,1.7s-3.4-0.6-4.6-1.7
			c-1.2-1.1-1.7-2.5-1.7-4.3C697.7,541.5,698.8,539.8,700.7,539.1z M700.6,543.9c-0.1,1.8,1.6,3.6,3.5,3.5c2,0,3.5-1.5,3.5-3.5
			c0-1-0.3-1.9-1-2.5c-0.7-0.7-1.5-1-2.6-1c-1,0-1.8,0.4-2.5,1C700.9,542,700.6,542.8,700.6,543.9L700.6,543.9z M704.1,538
			c1.6,0,2.7-1.2,2.7-2.6c0-1.5-1.2-2.7-2.8-2.7c-1.6,0-2.8,1.2-2.8,2.6C701.3,536.9,702.4,538,704.1,538z"/>
		<path fill="#FFFFFF" d="M719,530.3c2.1,0,3.7,0.9,4.7,2.5v0c1.1,1.5,1.6,3.6,1.6,7.3c0,6.6-2,9.6-6.3,9.7c-1.8,0-3.4-0.8-4.4-2
			c-1.2-1.5-1.9-4.2-1.9-7.7C712.7,533.4,714.8,530.4,719,530.3z M716.6,546c0.6,0.9,1.5,1.4,2.5,1.4c1,0,1.8-0.5,2.4-1.4
			c0.7-1,1-3,1-6c0-3-0.3-5-1-5.9c-0.6-0.9-1.4-1.4-2.4-1.4c-1,0-1.8,0.5-2.3,1.2c-0.7,1.1-1.1,3.2-1.1,6.1
			C715.6,543,715.9,545,716.6,546z"/>
		<path fill="#FFFFFF" d="M734,530.3c2.1,0,3.7,0.9,4.7,2.5v0c1,1.5,1.6,3.6,1.6,7.3c0,6.6-2,9.6-6.3,9.7c-1.8,0-3.4-0.8-4.4-2
			c-1.2-1.5-1.9-4.2-1.9-7.7C727.7,533.4,729.7,530.4,734,530.3z M731.5,546c0.6,0.9,1.5,1.4,2.5,1.4c1,0,1.8-0.5,2.4-1.4
			c0.7-1,1.1-3,1.1-6c0-3-0.4-5-1.1-5.9c-0.6-0.9-1.4-1.4-2.4-1.4c-1,0-1.8,0.5-2.3,1.2c-0.7,1.1-1.1,3.2-1.1,6.1
			C730.5,543,730.9,545,731.5,546z"/>
		<path fill="#FFFFFF" d="M760.4,536.1c0-1.6-0.4-2.7-1.4-3.3c-0.4-0.3-1-0.4-1.6-0.4c-1.2,0-2.1,0.4-2.7,1.3
			c-0.6,0.8-0.9,1.9-0.9,3.3h-2.6c0-3.3,1.2-5.3,3.6-6.1c1-0.4,1.9-0.6,2.7-0.6c2.1,0,3.7,0.9,4.8,2.5c0.5,0.8,0.8,1.9,0.8,3.1v7.6
			c0,1.5-0.4,2.9-1.2,4.3c-0.8,1.5-2.5,2.3-5.1,2.3c-2.7,0-4.6-1-5.6-3.1c-0.5-0.9-0.6-1.8-0.6-2.7c-0.1-3.3,2.8-5.9,6.2-5.8
			c1.4,0,2.6,0.3,3.6,1.2V536.1z M755.1,547.4c0.6,0.3,1.2,0.5,1.8,0.5c2,0,3.7-1.7,3.6-3.8c0-1-0.3-1.8-1-2.5s-1.5-1-2.5-1
			c-1.4,0-2.4,0.6-3.2,1.8c-0.4,0.5-0.5,1.2-0.5,2C753.2,545.7,753.8,546.7,755.1,547.4z"/>
	</g>
	<g>
		<polygon fill="#FFFFFF" points="893.2,280.5 897.9,280.5 894.5,265.3 892.5,265.3 		"/>
		<polygon fill="#FFFFFF" points="871.2,285.2 877,285.2 877,289.9 879.7,289.9 881,285.2 902.6,285.2 904,289.9 906.6,289.9 
			906.6,285.2 912.4,285.2 912.4,282.5 871.2,282.5 		"/>
		<polygon fill="#FFFFFF" points="891.1,265.3 889.1,265.3 885.7,280.5 890.5,280.5 		"/>
		<path fill="#FFFFFF" d="M883.7,287.2L872.9,328c0.1,0,0.2,0,0.3,0h15.9l1.3-40.9H883.7z"/>
		<path fill="#FFFFFF" d="M899.9,287.2h-6.7l1.3,40.9h15.9c0.1,0,0.2,0,0.3,0L899.9,287.2z"/>
	</g>
	<path fill="#0D69E1" stroke="#FFFFFF" stroke-width="1.859" d="M881.7,421.4H591.2c-2.2,0-4-1.8-4-4v-69.7c0-2.2,1.8-4,4-4h290.5
		c2.2,0,4,1.8,4,4v69.7C885.7,419.6,883.9,421.4,881.7,421.4z"/>
	<path fill="#0D69E1" stroke="#FFFFFF" stroke-width="1.8735" d="M881.7,515.3H591.2c-2.2,0-4-1.8-4-4v-70.9c0-2.2,1.8-4,4-4h290.5
		c2.2,0,4,1.8,4,4v70.9C885.7,513.5,883.9,515.3,881.7,515.3z"/>
	<g>
		<path fill="#FFFFFF" d="M734.1,373.3c0,1-0.5,2-1.5,3c-1,1-2,1.5-3,1.5h-7.4c-1,0-2-0.5-3-1.5c-1-1-1.5-2-1.5-3v-5.4
			c0-1.4,0.5-2.4,1.5-3c0.2-0.1,1.4-0.6,3.4-1.3c1.9-0.6,2.8-1.3,2.8-2.1v-3.4c0-0.7-0.4-1.1-1.2-1.1c-0.9,0-1.3,0.6-1.3,1.9
			c0,0.2,0,0.5,0,0.7v0.7h-5.2v-2.8c0.5-1,0.8-1.6,1-1.9c0.4-0.7,0.9-1.2,1.5-1.6c0.6-0.4,1.2-0.6,2-0.6h3.7c1,0,2,0.5,3,1.5
			c1,1,1.5,2,1.5,3v4.8c0,0.3,0.4,0.8,1.3,1.4c0.6,0.4,1.2,0.8,1.8,1.2c0.4,0.4,0.6,1,0.6,1.9V373.3z M728.7,370.6
			c0-1.1-0.2-2-0.5-2.5c-0.4-0.6-1.2-0.9-2.3-0.9c-1.9,0-2.9,1.1-2.9,3.4c0,1.1,0.2,2,0.6,2.5c0.4,0.6,1.2,0.9,2.3,0.9
			C727.7,373.9,728.7,372.8,728.7,370.6z"/>
		<path fill="#FFFFFF" d="M760.1,377.9h-5.2v-19.5c0-0.9-0.5-1.3-1.6-1.3c-1.1,0-1.6,0.4-1.6,1.3v7.7h-4.8v-7.7
			c0-0.9-0.5-1.3-1.6-1.3c-1,0-1.5,0.4-1.5,1.3v19.5h-5.2v-20.7c0-0.9,0.4-1.7,1.2-2.5s1.6-1.2,2.5-1.2h4.8c0.5,0,1,0.2,1.4,0.6
			c0.2,0.2,0.5,0.5,1,1.2c0.9-1.2,1.7-1.8,2.4-1.8h4.6c0.9,0,1.7,0.4,2.5,1.2c0.8,0.8,1.2,1.6,1.2,2.5V377.9z"/>
		<path fill="#FFFFFF" d="M786.5,377.7h-5.1v-8.8c0-0.4-0.2-0.8-0.5-1.1c-0.3-0.3-0.7-0.5-1.2-0.5c-0.4,0-0.8,0.2-1.1,0.5
			c-0.3,0.3-0.5,0.7-0.5,1.1v3.4h-4.9v-3.4c0-0.5-0.2-0.8-0.5-1.1c-0.3-0.3-0.7-0.5-1.2-0.5c-0.4,0-0.7,0.2-1,0.5s-0.5,0.7-0.5,1.1
			v8.8h-5.2v-10.6c0-1.6,1.1-3.2,3.4-4.7c1.4-0.9,3.5-2.2,6.3-4.1c2.3-1.6,3.4-3.2,3.4-4.9h5.2v2.4c-0.6,1.3-1.6,2.5-3,3.5
			c-0.9,0.7-2.3,1.4-4.1,2.3s-3,1.5-3.5,1.9c0.9,0.1,1.5,0.2,1.8,0.4c0.4,0.2,0.9,0.6,1.5,1.1c1.1-0.9,2-1.3,2.7-1.3h3.6
			c1,0,2,0.5,3,1.5c1,1,1.5,2,1.5,3V377.7z"/>
		<path fill="#FFFFFF" d="M806,377.9h-5.3v-18.8c0-0.6-0.2-1.1-0.7-1.4c-0.4-0.4-0.9-0.6-1.5-0.6c-0.5,0-1,0.2-1.4,0.6
			c-0.4,0.4-0.7,0.9-0.7,1.4v18.8h-5.3v-19.6c0-1,0.5-2,1.5-3c1-1,2-1.6,3-1.6h5.9c1.1,0,2.1,0.5,3,1.5c1,1,1.5,2,1.5,3.1V377.9z"/>
	</g>
	<g>
		<path fill="#FFFFFF" d="M739.3,394.9c-0.4-1.6-1.3-2.8-2.8-3.4c-0.8-0.4-1.8-0.5-2.8-0.5c-2,0-3.6,0.7-4.8,2.2s-1.9,3.6-1.9,6.6
			c0,2.9,0.7,5,2,6.2c1.4,1.2,2.9,1.8,4.6,1.8c1.7,0,3.1-0.5,4.2-1.4c1.1-1,1.8-2.2,2-3.8h-5.6v-4h10.1v12.8H741l-0.5-3
			c-1,1.1-1.9,1.9-2.6,2.4c-1.3,0.8-3,1.2-4.9,1.2c-3.2,0-5.8-1.1-7.9-3.3c-2.1-2.2-3.2-5.2-3.2-9.1c0-3.9,1.1-7,3.2-9.3
			c2.2-2.3,5-3.5,8.6-3.5c3.1,0,5.6,0.8,7.4,2.3s2.9,3.5,3.2,5.8H739.3z"/>
		<path fill="#FFFFFF" d="M767.9,409.3c-1.8,1.9-4.5,2.8-7.9,2.8s-6.1-0.9-7.9-2.8c-2.5-2.3-3.7-5.6-3.7-9.9c0-4.4,1.2-7.7,3.7-9.9
			c1.8-1.9,4.5-2.8,7.9-2.8s6.1,0.9,7.9,2.8c2.4,2.2,3.7,5.5,3.7,9.9C771.5,403.7,770.3,407,767.9,409.3z M764.7,405.6
			c1.2-1.5,1.8-3.5,1.8-6.2c0-2.7-0.6-4.8-1.8-6.2c-1.2-1.5-2.8-2.2-4.8-2.2c-2,0-3.6,0.7-4.8,2.2c-1.2,1.5-1.8,3.5-1.8,6.2
			s0.6,4.8,1.8,6.2c1.2,1.5,2.8,2.2,4.8,2.2C761.9,407.8,763.5,407.1,764.7,405.6z"/>
		<path fill="#FFFFFF" d="M790.9,388.1c0.9,0.4,1.6,0.9,2.3,1.7c0.5,0.6,0.9,1.3,1.2,2c0.3,0.7,0.4,1.6,0.4,2.5
			c0,1.1-0.3,2.3-0.9,3.4s-1.5,1.9-2.9,2.3c1.1,0.4,1.9,1.1,2.4,1.9s0.7,2.1,0.7,3.7v1.6c0,1.1,0,1.8,0.1,2.2
			c0.1,0.6,0.4,1.1,0.9,1.4v0.6h-5.6c-0.2-0.5-0.3-1-0.3-1.3c-0.1-0.7-0.2-1.4-0.2-2.1l0-2.2c0-1.5-0.3-2.5-0.8-3.1
			c-0.5-0.5-1.5-0.8-2.9-0.8h-4.9v9.4h-4.9v-23.9h11.6C788.7,387.5,790,387.7,790.9,388.1z M780.4,391.6v6.4h5.4
			c1.1,0,1.9-0.1,2.4-0.4c1-0.5,1.4-1.4,1.4-2.7c0-1.5-0.5-2.4-1.4-2.9c-0.5-0.3-1.3-0.4-2.3-0.4H780.4z"/>
		<path fill="#FFFFFF" d="M804.3,411.4h-5v-23.9h5V411.4z"/>
	</g>
	<path fill="none" stroke="#FFFFFF" stroke-width="2.5665" d="M657.7,398.3h-47.6c-2.2,0-4-1.8-4-4v-27.9c0-2.2,1.8-4,4-4h47.6
		c2.2,0,4,1.8,4,4v27.9C661.7,396.5,659.9,398.3,657.7,398.3z"/>
	<g>
		<path fill="#FFFFFF" d="M621.3,376.2c0-1.4-0.5-2.1-1.6-2.1c-1.1,0-1.8,0.8-1.8,1.9v1.6h-2.2V376c0-1.3-0.5-1.9-1.4-1.9
			c-0.8,0-2,1-2.8,2.3v-2.8c0.9-0.8,1.8-1.2,2.9-1.2c1,0,1.9,0.4,2.5,1.1c0.7-0.7,1.7-1.1,2.9-1.1c0.9,0,1.6,0.2,2.2,0.6
			c0.6,0.4,1.1,1.1,1.2,1.9c0.1,0.6,0.2,1.1,0.2,1.6v6.5c0,2.3-0.9,3.9-2,4.6c-1,0.6-2.2,0.9-3.5,0.9c-1,0-1.9-0.2-2.8-0.6
			c-1.8-0.8-2.7-2.2-2.7-4c0-1,0.3-1.9,0.7-2.6c1-1.4,2.6-2.1,4.8-2.1c1.3,0,2.3,0.2,3.3,1V376.2z M618,380.9
			c-1.5,0-2.4,0.5-2.9,1.5c-0.2,0.5-0.4,0.9-0.4,1.5c0,0.5,0.1,1.1,0.4,1.5c0.6,0.9,1.6,1.4,2.9,1.4c1.5,0,2.5-0.5,2.9-1.5
			c0.2-0.5,0.4-0.9,0.4-1.4C621.3,382.1,620,380.9,618,380.9z"/>
		<path fill="#FFFFFF" d="M625.7,383.7V381h6.3v2.6H625.7z"/>
		<path fill="#FFFFFF" d="M641.3,376.8c-0.2-0.8-0.4-1.4-0.7-1.7h0c-0.5-0.5-1-0.7-1.7-0.7c-0.5,0-1.1,0.2-1.4,0.4
			c-1,0.8-1.7,2.2-1.8,4.6c0.9-1.1,2.2-1.6,3.5-1.6c1.3,0,2.4,0.5,3.3,1.4c0.9,1,1.4,2.2,1.4,3.7c0,3-2.1,5.5-5,5.4
			c-1.6,0-2.9-0.6-4-1.8c-1-1.2-1.5-3.1-1.5-5.8c0-3,0.6-5.2,1.7-6.5c1-1.2,2.3-1.8,4-1.8c2.5,0,4.2,1.6,4.6,4.2L641.3,376.8z
			 M638.8,386.3c0.7,0,1.3-0.3,1.9-0.9c0.5-0.6,0.8-1.4,0.8-2.4c0-2-1.2-3.2-2.7-3.2c-0.8,0-1.5,0.3-2,0.9c-0.5,0.6-0.8,1.3-0.8,2.2
			C635.9,384.7,637.3,386.5,638.8,386.3z"/>
		<path fill="#FFFFFF" d="M650.9,372.4c1.7,0,3,0.7,3.8,2v0c0.9,1.3,1.3,2.9,1.3,5.9c0,5.4-1.7,7.9-5.1,8c-1.5,0-2.8-0.6-3.6-1.7
			c-1-1.3-1.5-3.4-1.5-6.3C645.7,374.9,647.4,372.5,650.9,372.4z M648.9,385.2c0.5,0.8,1.2,1.1,2,1.1c0.8,0,1.4-0.4,2-1.1
			c0.6-0.8,0.9-2.4,0.9-4.9c0-2.4-0.3-4-0.9-4.8c-0.5-0.8-1.2-1.1-2-1.1c-0.8,0-1.4,0.4-1.9,1c-0.6,0.9-0.9,2.6-0.9,5
			C648,382.8,648.3,384.4,648.9,385.2z"/>
	</g>
	<g>
		<path fill="#FFFFFF" d="M706.8,467.2c0,1-0.5,2-1.5,3c-1,1-2.1,1.5-3.1,1.5h-6.1c-1,0-2-0.5-3.1-1.5c-1-1-1.6-2-1.6-3v-5
			c0-1,0.5-2,1.5-3c1-1,2.1-1.5,3.1-1.5h5.4V453c0-0.6-0.3-1.2-0.8-1.6c-0.5-0.4-1.1-0.6-1.8-0.6c-1.6,0-2.5,1-2.5,3.1v0.3
			c0,0.1,0,0.2,0,0.3h-5.2v-3.1c1.2-2.8,2.6-4.2,4.5-4.2h6.7c1,0,2,0.5,2.9,1.4s1.4,1.9,1.4,2.9V467.2z M701.4,466.3V463
			c0-0.6-0.3-1-0.8-1.3c-0.4-0.3-1-0.4-1.5-0.4c-0.6,0-1.1,0.1-1.5,0.4c-0.5,0.3-0.8,0.8-0.8,1.3v3.2c0,0.5,0.2,0.9,0.7,1.3
			c0.4,0.3,0.9,0.5,1.5,0.5c0.6,0,1.2-0.1,1.6-0.4C701.1,467.3,701.4,466.8,701.4,466.3z"/>
		<path fill="#FFFFFF" d="M728.3,467.5c0,0.9-0.6,1.8-1.8,2.7c-1.1,0.8-2.2,1.3-3.1,1.3h-6.1c-1,0-2-0.5-3-1.5c-1-1-1.5-2-1.5-3
			v-5.1h5.2v3.9c0,0.6,0.3,1.2,0.8,1.6c0.5,0.4,1.1,0.6,1.8,0.6c0.7,0,1.3-0.2,1.8-0.6c0.5-0.4,0.8-0.9,0.8-1.5v-13.5
			c0-0.3-0.1-0.7-0.4-1c-0.3-0.3-0.6-0.5-0.9-0.5c-0.3,0-0.6,0.2-0.9,0.5c-0.3,0.3-0.4,0.7-0.4,1v4h-4.8v-3.7c0-0.3-0.1-0.6-0.4-0.8
			s-0.6-0.4-0.9-0.4c-0.1,0-0.7,0.3-1.8,0.8h-1.9v-4.9c0.8,0.3,1.3,0.4,1.6,0.4c0.2,0,0.7-0.1,1.3-0.3s1.2-0.3,1.6-0.3
			c0.7,0,1.3,0.1,1.7,0.4c0.3,0.2,0.8,0.6,1.3,1.2c0.2-0.2,0.5-0.5,0.9-0.8c0.5-0.4,0.9-0.6,1.4-0.6h3.9c0.9,0,1.7,0.4,2.5,1.2
			c0.8,0.8,1.2,1.6,1.2,2.5V467.5z"/>
		<path fill="#FFFFFF" d="M747.1,467.2c0,1-0.5,1.9-1.5,2.9s-2,1.4-3,1.4h-6c-1,0-2-0.5-3-1.4c-1-0.9-1.5-1.9-1.5-2.9v-20.4h5.3
			v10.6h1.4c0.3-0.3,0.8-0.7,1.5-1.2c0.8-0.6,1.3-1,1.5-1h5.3v0.1l-2.9,1.9l-0.1,0.3c0.8,0.1,1.5,0.6,2.1,1.3s0.9,1.5,0.9,2.3V467.2
			z M741.7,466.3v-3.5c0-0.5-0.2-0.9-0.6-1.2c-0.4-0.3-0.9-0.5-1.4-0.5c-0.5,0-1,0.1-1.4,0.4c-0.5,0.3-0.7,0.7-0.7,1.2v3.5
			c0,0.5,0.2,0.9,0.6,1.2c0.4,0.3,0.8,0.4,1.3,0.4c0.5,0,1-0.1,1.4-0.4C741.5,467.2,741.7,466.8,741.7,466.3z"/>
		<path fill="#FFFFFF" d="M773.4,471.2h-5.1v-8.8c0-0.4-0.2-0.8-0.5-1.1c-0.3-0.3-0.7-0.5-1.2-0.5c-0.4,0-0.8,0.2-1.1,0.5
			c-0.3,0.3-0.5,0.7-0.5,1.1v3.4h-4.9v-3.4c0-0.5-0.2-0.8-0.5-1.1c-0.3-0.3-0.7-0.5-1.2-0.5c-0.4,0-0.7,0.2-1,0.5s-0.5,0.7-0.5,1.1
			v8.8h-5.2v-10.6c0-1.6,1.1-3.2,3.4-4.7c1.4-0.9,3.5-2.2,6.3-4.1c2.3-1.6,3.4-3.2,3.4-4.9h5.2v2.4c-0.6,1.3-1.6,2.5-3,3.5
			c-0.9,0.7-2.3,1.4-4.1,2.3s-3,1.5-3.5,1.9c0.9,0.1,1.5,0.2,1.8,0.4c0.4,0.2,0.9,0.6,1.5,1.1c1.1-0.9,2-1.3,2.7-1.3h3.6
			c1,0,2,0.5,3,1.5c1,1,1.5,2,1.5,3V471.2z"/>
		<path fill="#FFFFFF" d="M792,467c0,1-0.6,2.1-1.7,3c-1.1,0.9-2.2,1.4-3.3,1.4h-5c-1,0-2-0.5-3.1-1.4c-1-1-1.5-1.9-1.5-3v-5.6h5.1
			v4.6c0,0.5,0.2,0.9,0.7,1.2c0.5,0.3,0.9,0.5,1.4,0.5c0.4,0,0.9-0.2,1.3-0.6c0.5-0.4,0.7-0.8,0.7-1.2v-8.8c0-0.6-0.4-1.2-1.1-1.8
			c-0.5-0.4-1.2-1-2.2-1.9c-1-0.9-1.8-1.9-2.3-3.1v-3.2h5.1c0,1.4,0.4,2.5,1.1,3.4c0.3,0.4,1.3,1.2,2.8,2.4c1.3,1,2,1.9,2,2.6V467z"
			/>
		<path fill="#FFFFFF" d="M811.1,466.9c0,1-0.5,2.1-1.6,3.1s-2.1,1.6-3.2,1.6H801c-1.1,0-2.1-0.5-3.1-1.6c-1-1.1-1.5-2.2-1.5-3.2
			v-15.2c0-1.3,0.6-2.4,1.8-3.3c1.1-0.8,2.3-1.2,3.7-1.2c0.5,0,1.4,0.1,2.6,0.3s2.1,0.3,2.7,0.3c1.3,0,2.3-0.2,3.3-0.5h0.3v4.8h-3
			c-2.4-0.6-3.9-0.9-4.5-0.9c-0.4,0-0.8,0.1-1.1,0.4c-0.3,0.3-0.5,0.6-0.5,1v4.9h5.7c0.9,0,1.8,0.4,2.6,1.2c0.8,0.8,1.2,1.7,1.2,2.5
			V466.9z M805.7,466.4v-3.6c0-0.5-0.2-0.9-0.6-1.2s-0.8-0.5-1.3-0.5c-0.5,0-0.9,0.1-1.3,0.4c-0.4,0.3-0.6,0.7-0.6,1.2v3.6
			c0,0.5,0.2,0.9,0.6,1.2c0.4,0.3,0.8,0.4,1.3,0.4c0.5,0,0.9-0.2,1.3-0.5C805.5,467.2,805.7,466.9,805.7,466.4z"/>
		<path fill="#FFFFFF" d="M830.6,471.4h-5.3v-18.8c0-0.6-0.2-1.1-0.7-1.4c-0.4-0.4-0.9-0.6-1.5-0.6c-0.5,0-1,0.2-1.4,0.6
			c-0.4,0.4-0.7,0.9-0.7,1.4v18.8h-5.3v-19.6c0-1,0.5-2,1.5-3c1-1,2-1.6,3-1.6h5.9c1.1,0,2.1,0.5,3,1.5c1,1,1.5,2,1.5,3.1V471.4z"/>
	</g>
	<g>
		<path fill="#FFFFFF" d="M693.1,481h7.3v23.9h-4.7v-16.2c0-0.5,0-1.1,0-2c0-0.8,0-1.5,0-1.9l-4.6,20.1h-4.9l-4.6-20.1
			c0,0.5,0,1.1,0,1.9s0,1.5,0,2v16.2h-4.7V481h7.4l4.4,18.8L693.1,481z"/>
		<path fill="#FFFFFF" d="M704.2,481h5.1v14.7c0,1.6,0.2,2.8,0.6,3.6c0.6,1.3,1.9,2,4,2c2,0,3.4-0.7,4-2c0.4-0.8,0.6-2,0.6-3.6V481
			h5.1v14.7c0,2.5-0.4,4.5-1.2,5.9c-1.5,2.6-4.3,3.9-8.5,3.9s-7-1.3-8.5-3.9c-0.8-1.4-1.2-3.4-1.2-5.9V481z"/>
		<path fill="#FFFFFF" d="M727.8,481h5v9.9l9.4-9.9h6.5l-9.9,9.8l10.5,14.1h-6.5l-7.5-10.4l-2.4,2.4v8h-5V481z"/>
		<path fill="#FFFFFF" d="M751.1,504.9V481h5v9.1h9.4V481h5v23.9h-5v-10.7h-9.4v10.7H751.1z"/>
		<path fill="#FFFFFF" d="M790.2,481.6c0.9,0.4,1.6,0.9,2.3,1.7c0.5,0.6,0.9,1.3,1.2,2c0.3,0.7,0.4,1.6,0.4,2.5
			c0,1.1-0.3,2.3-0.9,3.4s-1.5,1.9-2.9,2.3c1.1,0.4,1.9,1.1,2.4,1.9s0.7,2.1,0.7,3.7v1.6c0,1.1,0,1.8,0.1,2.2
			c0.1,0.6,0.4,1.1,0.9,1.4v0.6h-5.6c-0.2-0.5-0.3-1-0.3-1.3c-0.1-0.7-0.2-1.4-0.2-2.1l0-2.2c0-1.5-0.3-2.5-0.8-3.1
			c-0.5-0.5-1.5-0.8-2.9-0.8h-4.9v9.4h-4.9V481h11.6C788,481,789.3,481.2,790.2,481.6z M779.7,485.1v6.4h5.4c1.1,0,1.9-0.1,2.4-0.4
			c1-0.5,1.4-1.4,1.4-2.7c0-1.5-0.5-2.4-1.4-2.9c-0.5-0.3-1.3-0.4-2.3-0.4H779.7z"/>
		<path fill="#FFFFFF" d="M805,481h5.7l8.6,23.9h-5.5l-1.6-4.9h-8.9l-1.6,4.9h-5.3L805,481z M804.7,495.9h6.2l-3.1-9.4L804.7,495.9z
			"/>
		<path fill="#FFFFFF" d="M821.5,481h5.3l9.6,16.7V481h4.7v23.9h-5.1l-9.9-17v17h-4.7V481z"/>
		<path fill="#FFFFFF" d="M849.7,504.9h-5V481h5V504.9z"/>
	</g>
</g>
<g>
</g>
</svg>
