<?xml version="1.0" encoding="utf-8"?>
<!-- Generator: Adobe Illustrator 18.0.0, SVG Export Plug-In . SVG Version: 6.00 Build 0)  -->
<!DOCTYPE svg PUBLIC "-//W3C//DTD SVG 1.1//EN" "http://www.w3.org/Graphics/SVG/1.1/DTD/svg11.dtd">
<svg version="1.1"
	 id="svg2" inkscape:version="0.48.4 r9939" sodipodi:docname="6.2014_02_16_18_28_07.2.svg" xmlns:sodipodi="http://sodipodi.sourceforge.net/DTD/sodipodi-0.dtd" xmlns:dc="http://purl.org/dc/elements/1.1/" xmlns:cc="http://creativecommons.org/ns#" xmlns:inkscape="http://www.inkscape.org/namespaces/inkscape" xmlns:svg="http://www.w3.org/2000/svg" xmlns:rdf="http://www.w3.org/1999/02/22-rdf-syntax-ns#"
	 xmlns="http://www.w3.org/2000/svg" xmlns:xlink="http://www.w3.org/1999/xlink" x="0px" y="0px" viewBox="127.5 2.5 507.6 666.6"
	 enable-background="new 127.5 2.5 507.6 666.6" xml:space="preserve">
<g>
	<g>
		<path id="rect3844-6" fill="#FFFFFF" stroke="#000000" stroke-width="2" d="M149.3,3.5h463.9c11.5,0,20.8,9.3,20.8,20.8v241.4
			c0,11.5-9.3,20.8-20.8,20.8H149.3c-11.5,0-20.8-9.3-20.8-20.8V24.4C128.5,12.9,137.8,3.5,149.3,3.5z"/>
		<path id="rect9536" fill="#0D69E1" d="M613.2,12.5c6.5,0,11.8,5.3,11.8,11.8v241.4c0,6.5-5.3,11.8-11.8,11.8H149.3
			c-6.5,0-11.8-5.3-11.8-11.8V24.4c0-6.6,5.3-11.8,11.8-11.8H613.2z"/>
	</g>
	<g>
		<path fill="#FFFFFF" d="M202.7,123.8c0,1.7-0.9,3.3-2.7,4.9c-1.8,1.6-3.6,2.4-5.3,2.4h-13.2c-1.9,0-3.9-0.9-5.7-2.7
			c-1.8-1.8-2.8-3.6-2.8-5.6v-7.8h9.4v5.4c0,1.3,0.7,2.4,1.9,3.3c1.1,0.8,2.4,1.2,3.7,1.2c1.3,0,2.6-0.4,3.6-1.2
			c1.2-0.9,1.8-2,1.8-3.3v-7.8c0-1.6-0.9-2.3-2.8-2.3v-5.2c1.9,0,2.8-0.7,2.8-1.9v-6.3c0-1.3-0.7-1.9-2.1-1.9
			c-0.5,0-0.9,0.2-1.3,0.6c-0.4,0.4-0.6,0.9-0.6,1.3v6.3c0,1.8-0.8,3.4-2.4,5c-1.6,1.6-3.2,2.4-5,2.4h-8.3c-1.8,0-3.5-0.8-5.2-2.5
			c-1.7-1.7-2.6-3.4-2.6-5.1v-7.5c0-1.7,0.9-3.3,2.7-4.6c1.8-1.3,3.5-1.9,5.3-1.9h6.6c1.9,0,3.4,0.8,4.5,2.4c0.4-0.7,1-1.2,1.8-1.7
			c0.8-0.5,1.6-0.7,2.4-0.7h7.6c1.4,0,2.7,0.6,3.9,1.7c1.2,1.1,1.8,2.4,1.8,3.8v8.5c0,1.1-0.5,2.1-1.4,2.8c-0.5,0.5-1.5,1-2.9,1.6
			c1.7,0.7,2.6,1.1,2.9,1.3c0.9,0.6,1.3,1.5,1.3,2.7v12.5H202.7z M180.5,102.3v-4.7c0-0.6-0.3-1.2-0.9-1.7s-1.1-0.7-1.8-0.7
			c-0.7,0-1.3,0.2-1.9,0.7c-0.6,0.5-0.9,1-0.9,1.7v4.7c0,0.6,0.3,1.1,0.9,1.6c0.6,0.5,1.1,0.8,1.7,0.8c0.7,0,1.3-0.2,1.9-0.7
			C180.2,103.5,180.5,103,180.5,102.3z"/>
		<path fill="#FFFFFF" d="M247,131.4h-8.9V97.4c0-1.6-0.9-2.3-2.8-2.3c-1.8,0-2.8,0.8-2.8,2.3v13.3h-8.2V97.4c0-1.6-0.9-2.3-2.8-2.3
			c-1.7,0-2.6,0.8-2.6,2.3v33.9h-8.9V95.3c0-1.5,0.7-2.9,2-4.3c1.3-1.3,2.7-2,4.3-2h8.2c0.9,0,1.7,0.3,2.4,1
			c0.3,0.3,0.9,0.9,1.7,2.1c1.6-2,2.9-3,4.1-3h8c1.5,0,2.9,0.7,4.3,2c1.3,1.3,2,2.7,2,4.3L247,131.4L247,131.4z"/>
		<path fill="#FFFFFF" d="M296,131.2h-9.2v-34c0-1.6-1-2.3-3.1-2.3c-0.8,0-1.4,0.2-1.9,0.6c-0.6,0.4-0.9,1-0.9,1.7v26.2
			c0,1.7-0.9,3.4-2.8,5.2c-1.9,1.8-3.7,2.6-5.4,2.6h-9.9c-1.8,0-3.6-0.9-5.4-2.6c-1.9-1.8-2.8-3.5-2.8-5.2V96.2
			c0-1.7,0.9-3.5,2.8-5.2c1.9-1.7,3.7-2.6,5.4-2.6h7.8c1.8,0.2,3.8,1.2,5.8,2.8c0.9-0.7,1.8-1.3,2.7-2c1-0.6,1.9-0.8,2.7-0.8h7.5
			c1.6,0,3.1,0.7,4.6,2c1.5,1.4,2.2,2.8,2.2,4.4L296,131.2L296,131.2z M271.4,121.5V97.9c0-0.8-0.5-1.5-1.4-2.1
			c-0.9-0.6-1.7-0.9-2.4-0.9s-1.6,0.3-2.5,0.9c-0.9,0.7-1.3,1.3-1.3,2.1v23.6c0,0.9,0.4,1.6,1.3,2.3c0.8,0.7,1.6,1,2.5,1
			c0.8,0,1.7-0.3,2.5-1C271,123.1,271.4,122.3,271.4,121.5z"/>
		<path fill="#FFFFFF" d="M329.8,131.3h-9.1V98.7c0-1-0.4-1.8-1.1-2.5c-0.8-0.7-1.6-1-2.7-1c-0.9,0-1.7,0.4-2.4,1.1
			c-0.8,0.8-1.1,1.5-1.1,2.4v32.6h-9.1v-34c0-1.8,0.9-3.5,2.6-5.3s3.5-2.7,5.2-2.7h10.1c1.8,0,3.6,0.9,5.3,2.7
			c1.7,1.8,2.5,3.6,2.5,5.3V131.3z"/>
	</g>
	<g>
		<path fill="#FFFFFF" d="M194,193.3c0,1.8-0.9,3.5-2.6,5.3c-1.7,1.8-3.5,2.7-5.2,2.7h-12c-1.8,0-3.5-0.9-5.2-2.7
			c-1.7-1.8-2.6-3.6-2.6-5.3v-8.5c0-2,0.7-3.6,2-4.9c0.8-0.8,2.4-1.8,4.7-2.8c2-0.9,3-1.8,3-2.5V169c0-0.9-0.6-1.5-1.8-1.8
			c-0.9-0.2-2.2-0.4-3.9-0.8c-1.6-0.5-2.7-1.4-3.2-2.7v-5.2h9.1c0,1.8,0.8,2.9,2.3,3.5c1.3,0.2,2.7,0.5,4,0.7
			c1.7,0.5,2.5,1.3,2.5,2.5v9.4c0,0.5,1,1.3,3.1,2.4c2.5,1.4,3.8,2.2,4.1,2.4c1.2,1,1.8,2.7,1.8,5.2L194,193.3L194,193.3z
			 M185.3,188.4c0-1.6-0.5-3-1.4-4.2c-1-1.3-2.3-1.9-3.8-1.9c-1.5,0-2.7,0.7-3.6,2.2c-0.8,1.3-1.2,2.7-1.2,4.3s0.5,2.9,1.4,4.1
			c1,1.3,2.2,1.9,3.8,1.9c1.5,0,2.7-0.7,3.6-2.1C184.8,191.5,185.3,190,185.3,188.4z"/>
		<path fill="#FFFFFF" d="M226.5,193.2c0,1.8-1,3.6-2.9,5.3c-1.9,1.6-3.8,2.4-5.6,2.4h-8.6c-1.8,0-3.5-0.9-5.3-2.5
			c-1.8-1.7-2.6-3.4-2.6-5.2v-9.7h8.8v8.1c0,0.8,0.4,1.5,1.3,2.1c0.8,0.6,1.6,0.9,2.4,0.9c0.8,0,1.5-0.3,2.3-0.9
			c0.8-0.7,1.2-1.3,1.2-2.1v-15.2c0-1-0.6-2.1-1.8-3.2c-0.9-0.7-2.1-1.8-3.8-3.3c-1.7-1.5-3-3.3-4-5.4v-5.5h8.8
			c0,2.4,0.6,4.4,1.8,5.9c0.6,0.7,2.2,2.1,4.7,4.2c2.3,1.8,3.4,3.3,3.4,4.6V193.2z"/>
		<path fill="#FFFFFF" d="M275.3,200.8h-9.2v-34c0-1.6-1-2.4-3.1-2.4c-0.8,0-1.4,0.2-1.9,0.6c-0.6,0.4-0.9,1-0.9,1.7v26.2
			c0,1.7-0.9,3.4-2.8,5.2c-1.9,1.8-3.7,2.6-5.4,2.6h-9.9c-1.8,0-3.6-0.9-5.4-2.6c-1.9-1.8-2.8-3.5-2.8-5.2v-27.2
			c0-1.7,0.9-3.5,2.8-5.2c1.9-1.7,3.7-2.6,5.4-2.6h7.8c1.8,0.2,3.8,1.2,5.8,2.8c0.9-0.7,1.8-1.3,2.7-2c1-0.6,1.9-0.8,2.7-0.8h7.5
			c1.6,0,3.1,0.7,4.6,2c1.5,1.4,2.2,2.8,2.2,4.4L275.3,200.8L275.3,200.8z M250.8,191.1v-23.6c0-0.8-0.5-1.5-1.4-2.1
			c-0.9-0.6-1.7-0.9-2.4-0.9s-1.6,0.3-2.5,0.9c-0.9,0.7-1.3,1.3-1.3,2.1v23.6c0,0.9,0.4,1.6,1.3,2.3c0.8,0.7,1.6,1,2.5,1
			c0.8,0,1.7-0.3,2.5-1C250.3,192.7,250.8,191.9,250.8,191.1z"/>
		<path fill="#FFFFFF" d="M313.2,194.2c0,1.6-1,3.1-3.1,4.6c-1.9,1.5-3.7,2.2-5.3,2.2h-10.6c-1.8,0-3.5-0.9-5.2-2.6
			c-1.7-1.7-2.6-3.5-2.6-5.2v-8.9h8.9v6.8c0,1.1,0.5,2,1.4,2.7c0.9,0.7,1.8,1,3,1c1.1,0,2.2-0.3,3.1-1c0.9-0.7,1.4-1.6,1.4-2.7
			v-23.4c0-0.6-0.2-1.2-0.7-1.8c-0.5-0.6-1-0.9-1.6-0.9c-0.5,0-1,0.3-1.5,0.9c-0.5,0.6-0.7,1.1-0.7,1.7v7h-8.1v-6.3
			c0-0.5-0.2-1-0.8-1.4c-0.5-0.4-1-0.7-1.6-0.7c-0.1,0-1.1,0.5-3.1,1.4H283v-8.5c1.3,0.5,2.2,0.7,2.8,0.7c0.4,0,1.2-0.2,2.3-0.6
			c1.1-0.4,2.1-0.6,2.8-0.6c1.2,0,2.2,0.2,3,0.8c0.5,0.3,1.3,1,2.3,2.1c0.3-0.3,0.8-0.9,1.5-1.5c0.8-0.8,1.6-1.1,2.4-1.1h6.8
			c1.5,0,3,0.7,4.3,2c1.4,1.4,2,2.8,2,4.3v28.8H313.2z"/>
		<path fill="#FFFFFF" d="M346.7,193.6c0,1.8-0.9,3.5-2.7,5.2c-1.8,1.7-3.5,2.6-5.3,2.6h-10.5c-1.8,0-3.5-0.9-5.3-2.6
			c-1.8-1.7-2.7-3.4-2.7-5.2V185c0-1.8,0.9-3.5,2.7-5.2s3.6-2.6,5.3-2.6h9.3v-8.4c0-1.1-0.5-2-1.4-2.7c-0.9-0.7-1.8-1-3-1
			c-2.8,0-4.2,1.8-4.2,5.3v0.5c0,0.2,0,0.3,0,0.5H320V166c2-4.8,4.5-7.2,7.7-7.2h11.5c1.7,0,3.4,0.8,5,2.5c1.7,1.7,2.5,3.3,2.5,5
			L346.7,193.6L346.7,193.6z M337.4,192v-5.6c0-0.9-0.4-1.7-1.3-2.3c-0.8-0.5-1.7-0.8-2.7-0.8c-1,0-1.8,0.2-2.6,0.8
			c-0.9,0.6-1.3,1.4-1.3,2.3v5.6c0,0.9,0.4,1.6,1.2,2.2c0.8,0.6,1.6,0.8,2.5,0.8c1,0,2-0.2,2.8-0.7C336.9,193.7,337.4,193,337.4,192
			z"/>
		<path fill="#FFFFFF" d="M379.7,200.9h-9.1v-32.6c0-1-0.4-1.8-1.1-2.5c-0.8-0.7-1.6-1-2.7-1c-0.9,0-1.7,0.4-2.4,1.1
			c-0.8,0.8-1.1,1.5-1.1,2.4v32.6h-9.1v-34c0-1.8,0.9-3.5,2.6-5.3c1.8-1.8,3.5-2.7,5.2-2.7H372c1.8,0,3.6,0.9,5.3,2.7
			c1.7,1.8,2.5,3.6,2.5,5.3V200.9z"/>
	</g>
	<g>
		<g>
			<path fill="#FFFFFF" d="M459.7,79.9c0-1.9,0-3.6-0.1-5h3.7l0.2,2.5h0.1c0.9-1.3,2.4-2.9,5.2-2.9c2.2,0,4,1.2,4.7,3.1h0
				c0.6-0.9,1.3-1.6,2.1-2.1c0.9-0.7,2-1,3.4-1c2.8,0,5.7,1.9,5.7,7.3v9.9h-4.2v-9.3c0-2.8-1-4.5-3-4.5c-1.5,0-2.6,1-3,2.3
				c-0.1,0.4-0.2,0.9-0.2,1.4v10.1h-4.2V82c0-2.4-0.9-4-2.9-4c-1.6,0-2.7,1.2-3.1,2.4c-0.2,0.4-0.2,0.9-0.2,1.4v10h-4.2L459.7,79.9
				L459.7,79.9z"/>
			<path fill="#FFFFFF" d="M490.9,91.8v-2.6l2.7-2.5c5.3-4.9,7.8-7.6,7.9-10.6c0-2-1.1-3.8-4-3.8c-2,0-3.7,1-4.8,1.9l-1.2-3
				c1.6-1.3,4.1-2.3,7-2.3c5,0,7.4,3.2,7.4,6.8c0,4-2.8,7.1-6.8,10.8l-2,1.7v0h9.3v3.6L490.9,91.8L490.9,91.8z"/>
		</g>
		<rect x="447.6" y="45.2" fill="none" stroke="#FFFFFF" stroke-width="8" stroke-miterlimit="10" width="72.9" height="72.9"/>
	</g>
	<polygon fill="#FFFFFF" points="578,207.9 597.2,136.4 525.6,155.5 542.1,172 496.7,217.4 516.2,236.8 561.5,191.4 	"/>
</g>
<g>
	<g>
		<path id="rect3844-6_1_" fill="#FFFFFF" stroke="#000000" stroke-width="2" d="M184.8,314h392.9c11.5,0,20.8,9.3,20.8,20.8v312.4
			c0,11.5-9.3,20.8-20.8,20.8H184.8c-11.5,0-20.8-9.3-20.8-20.8V334.9C164,323.4,173.3,314,184.8,314z"/>
		<path id="rect9536_1_" fill="#00A500" d="M577.7,323c6.5,0,11.8,5.3,11.8,11.8v312.4c0,6.5-5.3,11.8-11.8,11.8H184.8
			c-6.5,0-11.8-5.3-11.8-11.8V334.9c0-6.5,5.3-11.8,11.8-11.8H577.7z"/>
	</g>
	<g>
		<path fill="#FFFFFF" d="M343.6,387.8c0,1.8-0.9,3.5-2.6,5.3c-1.7,1.8-3.5,2.7-5.2,2.7h-12c-1.8,0-3.5-0.9-5.2-2.7
			c-1.7-1.8-2.6-3.6-2.6-5.3v-8.5c0-2,0.7-3.6,2-4.9c0.8-0.8,2.4-1.8,4.7-2.8c2-0.9,3-1.8,3-2.5v-5.6c0-0.9-0.6-1.5-1.8-1.8
			c-0.9-0.2-2.2-0.4-3.9-0.8c-1.6-0.5-2.7-1.4-3.2-2.7v-5.2h9.2c0,1.8,0.8,2.9,2.3,3.5c1.3,0.2,2.7,0.5,4,0.7
			c1.7,0.5,2.5,1.3,2.5,2.5v9.4c0,0.5,1,1.3,3.1,2.4c2.5,1.4,3.8,2.2,4.1,2.4c1.2,1,1.8,2.7,1.8,5.2V387.8z M334.8,382.9
			c0-1.6-0.5-3-1.4-4.2c-1-1.3-2.3-1.9-3.8-1.9c-1.5,0-2.7,0.7-3.6,2.2c-0.8,1.3-1.2,2.7-1.2,4.3s0.5,2.9,1.4,4.1
			c1,1.3,2.2,1.9,3.8,1.9c1.5,0,2.7-0.7,3.6-2.1C334.4,385.9,334.8,384.5,334.8,382.9z"/>
		<path fill="#FFFFFF" d="M376.1,387.7c0,1.8-1,3.6-2.9,5.3c-1.9,1.6-3.8,2.4-5.6,2.4h-8.6c-1.8,0-3.5-0.9-5.3-2.5s-2.6-3.4-2.6-5.2
			V378h8.8v8c0,0.8,0.4,1.5,1.3,2.1c0.8,0.6,1.6,0.9,2.4,0.9c0.8,0,1.5-0.3,2.3-0.9c0.8-0.7,1.2-1.3,1.2-2.1v-15.2
			c0-1-0.6-2.1-1.8-3.2c-0.9-0.7-2.1-1.8-3.8-3.3c-1.7-1.5-3-3.3-4-5.4v-5.5h8.8c0,2.4,0.6,4.4,1.8,5.9c0.6,0.7,2.2,2.1,4.7,4.2
			c2.3,1.8,3.4,3.3,3.4,4.6V387.7z"/>
		<path fill="#FFFFFF" d="M424.9,395.3h-9.2v-34c0-1.6-1-2.3-3.1-2.3c-0.8,0-1.4,0.2-1.9,0.6c-0.6,0.4-0.9,1-0.9,1.7v26.2
			c0,1.7-0.9,3.4-2.8,5.2c-1.9,1.8-3.7,2.6-5.4,2.6h-9.9c-1.8,0-3.6-0.9-5.4-2.6c-1.9-1.8-2.8-3.5-2.8-5.2v-27.1
			c0-1.7,0.9-3.5,2.8-5.2c1.9-1.7,3.7-2.6,5.4-2.6h7.8c1.8,0.2,3.8,1.2,5.8,2.8c0.9-0.7,1.8-1.3,2.7-2c1-0.6,1.9-0.8,2.7-0.8h7.5
			c1.6,0,3.1,0.7,4.6,2s2.2,2.8,2.2,4.4L424.9,395.3L424.9,395.3z M400.4,385.6V362c0-0.8-0.5-1.5-1.4-2.1c-0.9-0.6-1.7-0.9-2.4-0.9
			c-0.8,0-1.6,0.3-2.5,0.9c-0.9,0.7-1.3,1.3-1.3,2.1v23.6c0,0.9,0.4,1.6,1.3,2.3c0.8,0.7,1.6,1,2.5,1c0.8,0,1.7-0.3,2.5-1
			C399.9,387.1,400.4,386.4,400.4,385.6z"/>
		<path fill="#FFFFFF" d="M462.7,388.6c0,1.6-1,3.1-3.1,4.6c-1.9,1.5-3.7,2.2-5.3,2.2h-10.6c-1.8,0-3.5-0.9-5.2-2.6
			c-1.7-1.7-2.6-3.5-2.6-5.2v-8.9h8.9v6.8c0,1.1,0.5,2,1.4,2.7c0.9,0.7,1.8,1,3,1c1.1,0,2.2-0.3,3.1-1s1.4-1.6,1.4-2.7v-23.4
			c0-0.6-0.2-1.2-0.7-1.8c-0.5-0.6-1-0.9-1.6-0.9c-0.5,0-1,0.3-1.5,0.9c-0.5,0.6-0.7,1.1-0.7,1.7v7h-8.1v-6.3c0-0.5-0.2-1-0.8-1.4
			c-0.5-0.4-1-0.7-1.6-0.7c-0.1,0-1.1,0.5-3.1,1.4h-3.3v-8.5c1.3,0.5,2.2,0.8,2.8,0.8c0.4,0,1.2-0.2,2.3-0.6
			c1.1-0.4,2.1-0.6,2.8-0.6c1.2,0,2.2,0.2,3,0.8c0.5,0.3,1.3,1,2.3,2.1c0.3-0.3,0.8-0.8,1.5-1.5c0.8-0.8,1.6-1.1,2.4-1.1h6.8
			c1.5,0,3,0.7,4.3,2c1.4,1.4,2,2.8,2,4.3v28.8H462.7z"/>
		<path fill="#FFFFFF" d="M496.3,388.1c0,1.8-0.9,3.5-2.7,5.2s-3.5,2.6-5.3,2.6h-10.5c-1.8,0-3.5-0.9-5.3-2.6
			c-1.8-1.7-2.7-3.4-2.7-5.2v-8.7c0-1.8,0.9-3.5,2.7-5.2c1.8-1.7,3.6-2.6,5.3-2.6h9.3v-8.4c0-1.1-0.5-2-1.4-2.7c-0.9-0.7-1.8-1-3-1
			c-2.8,0-4.2,1.8-4.2,5.3v0.5c0,0.2,0,0.3,0,0.5h-8.9v-5.4c2-4.8,4.5-7.2,7.7-7.2h11.5c1.7,0,3.4,0.8,5,2.5c1.7,1.7,2.5,3.3,2.5,5
			L496.3,388.1L496.3,388.1z M487,386.4v-5.6c0-0.9-0.4-1.7-1.3-2.3c-0.8-0.5-1.7-0.8-2.7-0.8s-1.8,0.2-2.6,0.8
			c-0.9,0.6-1.3,1.4-1.3,2.3v5.6c0,0.9,0.4,1.6,1.2,2.2c0.8,0.6,1.6,0.8,2.5,0.8c1,0,2-0.2,2.8-0.7C486.5,388.2,487,387.4,487,386.4
			z"/>
		<path fill="#FFFFFF" d="M529.3,395.4h-9.1v-32.7c0-1-0.4-1.8-1.1-2.5c-0.8-0.7-1.6-1-2.7-1c-0.9,0-1.7,0.4-2.4,1.1
			c-0.8,0.8-1.1,1.5-1.1,2.4v32.6h-9.1v-34c0-1.8,0.9-3.5,2.6-5.3c1.8-1.8,3.5-2.7,5.2-2.7h10.1c1.8,0,3.6,0.9,5.3,2.7
			c1.7,1.8,2.5,3.6,2.5,5.3V395.4z"/>
		<path fill="#FFFFFF" d="M342.1,456.6c0,1.9-0.9,3.6-2.7,5.2c-1.8,1.6-3.6,2.4-5.6,2.4h-9.7c-1.8,0-3.6-0.8-5.4-2.4
			c-1.8-1.6-2.6-3.3-2.6-5.2v-8.7h9.2v6.6c0,1,0.4,1.8,1.1,2.5c0.7,0.7,1.6,1,2.7,1c0.9,0,1.8-0.3,2.5-1c0.7-0.7,1-1.5,1-2.5v-16.2
			c0-0.8-0.3-1.4-0.9-1.9c-0.6-0.5-1.3-0.7-2.1-0.7c-1.3,0-2.2,0.4-2.6,1.2c-0.3,0.6-0.5,1.6-0.5,3h-8.2v-5.6
			c1.1-2.4,2.6-3.6,4.3-3.6h10.1V422h9.4V456.6z"/>
		<path fill="#FFFFFF" d="M380.1,458c0,1.6-1,3.1-3.1,4.6c-1.9,1.5-3.7,2.2-5.3,2.2h-10.6c-1.8,0-3.5-0.9-5.2-2.6
			c-1.7-1.7-2.6-3.5-2.6-5.2v-8.9h8.9v6.8c0,1.1,0.5,2,1.4,2.7c0.9,0.7,1.8,1,3,1c1.1,0,2.2-0.3,3.1-1c0.9-0.7,1.4-1.6,1.4-2.7
			v-23.4c0-0.6-0.2-1.2-0.7-1.8c-0.5-0.6-1-0.9-1.6-0.9c-0.5,0-1,0.3-1.5,0.9c-0.5,0.6-0.7,1.1-0.7,1.7v7h-8.2v-6.3
			c0-0.5-0.2-1-0.8-1.4s-1-0.7-1.6-0.7c-0.1,0-1.1,0.5-3.1,1.4h-3.3v-8.5c1.3,0.5,2.2,0.8,2.8,0.8c0.4,0,1.2-0.2,2.3-0.6
			c1.1-0.4,2.1-0.6,2.8-0.6c1.2,0,2.2,0.2,3,0.8c0.5,0.3,1.3,1,2.3,2.1c0.3-0.3,0.8-0.8,1.5-1.5c0.8-0.8,1.6-1.1,2.4-1.1h6.8
			c1.5,0,3,0.7,4.3,2c1.4,1.4,2,2.8,2,4.3L380.1,458L380.1,458z"/>
		<path fill="#FFFFFF" d="M428.5,464.6h-9.2v-34c0-1.6-1-2.3-3.1-2.3c-0.8,0-1.4,0.2-1.9,0.6c-0.6,0.4-0.9,1-0.9,1.7v26.2
			c0,1.7-0.9,3.4-2.8,5.2s-3.7,2.6-5.4,2.6h-9.9c-1.8,0-3.6-0.9-5.4-2.6s-2.8-3.5-2.8-5.2v-27.2c0-1.7,0.9-3.5,2.8-5.2
			c1.9-1.7,3.7-2.6,5.4-2.6h7.8c1.8,0.2,3.8,1.2,5.8,2.8c0.9-0.7,1.8-1.3,2.7-2c1-0.6,1.9-0.8,2.7-0.8h7.5c1.6,0,3.1,0.7,4.6,2
			c1.5,1.4,2.2,2.8,2.2,4.4L428.5,464.6L428.5,464.6z M403.9,455v-23.6c0-0.8-0.5-1.5-1.4-2.1c-0.9-0.6-1.7-0.9-2.4-0.9
			c-0.8,0-1.6,0.3-2.5,0.9c-0.9,0.7-1.3,1.3-1.3,2.1v23.6c0,0.9,0.4,1.6,1.3,2.3c0.8,0.7,1.6,1,2.5,1c0.8,0,1.7-0.3,2.5-1
			C403.5,456.5,403.9,455.8,403.9,455z"/>
		<path fill="#FFFFFF" d="M460.9,457c0,1.8-1,3.6-2.9,5.3c-1.9,1.6-3.8,2.4-5.6,2.4h-8.6c-1.8,0-3.5-0.9-5.3-2.5
			c-1.8-1.7-2.6-3.4-2.6-5.2v-9.7h8.8v8.1c0,0.8,0.4,1.5,1.3,2.1c0.8,0.6,1.6,0.9,2.4,0.9c0.8,0,1.5-0.3,2.3-0.9
			c0.8-0.7,1.2-1.3,1.2-2.1v-15.2c0-1-0.6-2.1-1.8-3.2c-0.9-0.7-2.1-1.8-3.8-3.3c-1.7-1.5-3-3.3-4-5.4v-5.5h8.8
			c0,2.4,0.6,4.4,1.8,5.9c0.6,0.7,2.2,2.1,4.7,4.2c2.3,1.8,3.4,3.3,3.4,4.6V457z"/>
		<path fill="#FFFFFF" d="M494.6,464.8h-9.1v-32.6c0-1-0.4-1.8-1.1-2.5c-0.8-0.7-1.6-1-2.7-1c-0.9,0-1.7,0.4-2.4,1.1
			c-0.8,0.8-1.1,1.5-1.1,2.4v32.6H469v-34c0-1.8,0.9-3.5,2.6-5.3c1.8-1.8,3.5-2.7,5.2-2.7h10.1c1.8,0,3.6,0.9,5.3,2.7
			c1.7,1.8,2.5,3.6,2.5,5.3L494.6,464.8L494.6,464.8z"/>
		<path fill="#FFFFFF" d="M528.1,458.5c0,1.3-0.9,2.7-2.7,4.1c-1.7,1.4-3.2,2-4.6,2h-10.6c-1.7,0-3.4-0.9-5-2.6
			c-1.7-1.8-2.5-3.5-2.5-5.2v-34.6h9.1v33.4c0,2,1.3,3,3.8,3c0.9,0,1.8-0.3,2.5-0.9s1.1-1.3,1.1-2.2v-15.3h8.9L528.1,458.5
			L528.1,458.5z"/>
		<path fill="#FFFFFF" d="M562.3,464.8h-9.1v-32.6c0-1-0.4-1.8-1.1-2.5c-0.8-0.7-1.6-1-2.7-1c-0.9,0-1.7,0.4-2.4,1.1
			c-0.8,0.8-1.1,1.5-1.1,2.4v32.6h-9.1v-34c0-1.8,0.9-3.5,2.6-5.3c1.8-1.8,3.5-2.7,5.2-2.7h10.1c1.8,0,3.6,0.9,5.3,2.7
			c1.7,1.8,2.5,3.6,2.5,5.3L562.3,464.8L562.3,464.8z"/>
		<path fill="#FFFFFF" d="M341.1,526.8c0,1.7-0.9,3.3-2.6,5c-1.7,1.6-3.4,2.5-5.1,2.5h-10.3c-1.7,0-3.4-0.8-5.1-2.4
			c-1.7-1.6-2.6-3.3-2.6-5v-35.5h9.1v18.5h2.4c0.5-0.5,1.3-1.2,2.6-2.2c1.4-1.1,2.3-1.7,2.5-1.7h9.1v0.2l-5,3.4l-0.2,0.5
			c1.4,0.2,2.6,0.9,3.7,2.2c1,1.2,1.6,2.6,1.6,4L341.1,526.8L341.1,526.8z M331.8,525.2v-6.1c0-0.9-0.3-1.5-1-2.1
			c-0.7-0.5-1.5-0.8-2.3-0.8c-0.9,0-1.7,0.2-2.4,0.7c-0.8,0.6-1.2,1.3-1.2,2.1v6.1c0,0.9,0.4,1.6,1.1,2.1c0.7,0.5,1.4,0.8,2.3,0.8
			c0.9,0,1.8-0.2,2.4-0.8C331.4,526.8,331.8,526,331.8,525.2z"/>
		<path fill="#FFFFFF" d="M373.2,526.4c0,1.8-1,3.6-2.9,5.3c-1.9,1.6-3.8,2.4-5.6,2.4H356c-1.8,0-3.5-0.9-5.3-2.5s-2.6-3.4-2.6-5.2
			v-9.7h8.8v8.1c0,0.8,0.4,1.5,1.3,2.1c0.8,0.6,1.6,0.9,2.4,0.9c0.8,0,1.5-0.3,2.3-0.9c0.8-0.7,1.2-1.3,1.2-2.1v-15.2
			c0-1-0.6-2.1-1.8-3.2c-0.9-0.7-2.1-1.8-3.8-3.3c-1.7-1.5-3-3.3-4-5.4v-5.5h8.8c0,2.4,0.6,4.4,1.8,5.9c0.6,0.7,2.2,2.1,4.7,4.2
			c2.3,1.8,3.4,3.3,3.4,4.6L373.2,526.4L373.2,526.4z"/>
		<path fill="#FFFFFF" d="M408.8,526.2c0,1.7-0.9,3.4-2.6,5.2c-1.7,1.8-3.4,2.7-5.1,2.7h-9.8c-1.7,0-3.3-0.9-5-2.7
			c-1.7-1.8-2.6-3.5-2.6-5.2v-9.3c0-1.7,0.8-3.3,2.3-4.8c1.6-1.6,3.2-2.3,4.8-2.3h9.6v-10.5c0-0.5-0.2-0.9-0.6-1.3s-0.9-0.6-1.4-0.6
			c-0.6,0-1,0.2-1.4,0.5c-0.4,0.4-0.6,0.8-0.6,1.4v5.5h-7.6c0-0.3,0-0.7,0-1.2c0-0.5,0-0.9,0-1.2c0-1.4-0.3-2.4-0.9-3
			c-0.6-0.6-1.6-0.9-3-0.9c-0.9,0-1.7,0.2-2.4,0.5c-0.5,0.3-1.3,0.7-2.3,1.1v-7.9c1.5-0.6,2.3-0.9,2.5-0.9h7c1,0,2,0.7,2.9,2.1
			c1-1.4,2-2.1,2.9-2.1h7c1.5,0,2.9,0.7,4.3,1.9c1.3,1.3,2,2.7,2,4.2L408.8,526.2L408.8,526.2z M400.3,521.9c0-1.9-0.2-3.3-0.5-4.1
			c-0.6-1.2-1.7-1.8-3.3-1.8c-2.6,0-3.8,1.9-3.8,5.7c0,1.9,0.2,3.2,0.6,4c0.6,1.3,1.6,1.9,3.3,1.9
			C399,527.6,400.3,525.7,400.3,521.9z"/>
		<path fill="#FFFFFF" d="M446.6,527.3c0,1.6-1,3.1-3.1,4.6c-1.9,1.5-3.7,2.2-5.3,2.2h-10.6c-1.8,0-3.5-0.9-5.2-2.6
			c-1.7-1.7-2.6-3.5-2.6-5.2v-8.9h8.9v6.8c0,1.1,0.5,2,1.4,2.7c0.9,0.7,1.8,1,3,1c1.1,0,2.2-0.3,3.1-1c0.9-0.7,1.4-1.6,1.4-2.7
			v-23.4c0-0.6-0.2-1.2-0.7-1.8c-0.5-0.6-1-0.9-1.6-0.9c-0.5,0-1,0.3-1.5,0.9c-0.5,0.6-0.7,1.1-0.7,1.7v7h-8.1v-6.3
			c0-0.5-0.2-1-0.8-1.4c-0.5-0.4-1-0.7-1.6-0.7c-0.1,0-1.1,0.5-3.1,1.4h-3.3v-8.5c1.3,0.5,2.2,0.8,2.8,0.8c0.4,0,1.2-0.2,2.3-0.6
			c1.1-0.4,2.1-0.6,2.8-0.6c1.2,0,2.2,0.2,3,0.8c0.5,0.3,1.3,1,2.3,2.1c0.3-0.3,0.8-0.8,1.5-1.5c0.8-0.8,1.6-1.1,2.4-1.1h6.8
			c1.5,0,3,0.7,4.3,2c1.4,1.4,2,2.8,2,4.3v28.7H446.6z"/>
		<path fill="#FFFFFF" d="M491.5,533.8h-8.7v-15.3c0-0.8-0.3-1.4-0.9-2s-1.2-0.8-2-0.8c-0.8,0-1.4,0.3-1.9,0.9
			c-0.6,0.6-0.9,1.2-0.9,1.9v5.9h-8.5v-5.9c0-0.8-0.3-1.5-0.8-2c-0.6-0.5-1.2-0.8-2-0.8c-0.7,0-1.3,0.3-1.8,0.9
			c-0.5,0.6-0.8,1.2-0.8,1.9v15.3h-8.9v-18.4c0-2.7,1.9-5.5,5.8-8.1c2.4-1.5,6-3.9,10.7-7.1c3.9-2.7,5.8-5.5,5.8-8.6h8.9v4.2
			c-1,2.3-2.8,4.3-5.2,6.1c-1.6,1.1-3.9,2.5-7.1,4c-3.2,1.6-5.2,2.7-6.1,3.3c1.6,0.2,2.6,0.4,3.1,0.6c0.7,0.3,1.5,0.9,2.6,2
			c1.9-1.6,3.5-2.3,4.7-2.3h6.1c1.8,0,3.5,0.9,5.2,2.6c1.7,1.7,2.6,3.5,2.6,5.2L491.5,533.8L491.5,533.8z"/>
		<path fill="#FFFFFF" d="M524.9,534.2h-9.1v-32.6c0-1-0.4-1.8-1.1-2.5s-1.6-1-2.7-1c-0.9,0-1.7,0.4-2.4,1.1
			c-0.8,0.7-1.1,1.5-1.1,2.4v32.6h-9.1v-34c0-1.8,0.9-3.5,2.6-5.3c1.8-1.8,3.5-2.7,5.2-2.7h10.1c1.8,0,3.6,0.9,5.3,2.7
			c1.7,1.8,2.5,3.6,2.5,5.3V534.2L524.9,534.2z"/>
	</g>
	<polygon fill="#FFFFFF" points="275.4,464.1 238.4,400 201.3,464.1 224.6,464.1 224.6,661 252.1,661 252.1,464.1 	"/>
	<g>
		<path fill="#FFFFFF" d="M201.8,365.5c0-2.9,0-5.3-0.2-7.6h5.5l0.3,3.7h0.1c1.2-2,3.6-4.3,7.8-4.3c3.3,0,6,1.9,7.1,4.7h0.1
			c0.9-1.4,1.9-2.5,3.1-3.2c1.4-1,3-1.5,5.1-1.5c4.2,0,8.5,2.9,8.5,11v15H233v-14c0-4.2-1.5-6.7-4.5-6.7c-2.2,0-3.8,1.6-4.5,3.4
			c-0.1,0.6-0.3,1.4-0.3,2.1v15.2h-6.2v-14.7c0-3.6-1.4-6.1-4.4-6.1c-2.4,0-4,1.9-4.6,3.6c-0.3,0.6-0.4,1.4-0.4,2.1v15h-6.2V365.5z"
			/>
		<path fill="#FFFFFF" d="M270.3,354.8h-13l-1,6.8c0.8-0.1,1.5-0.1,2.5-0.1c3,0,6,0.7,8.2,2.2c2.6,1.6,4.4,4.5,4.4,8.6
			c0,6.5-5.3,11.7-13.7,11.7c-3.9,0-7.2-1-8.9-2l1.3-4.8c1.5,0.8,4.4,1.8,7.4,1.8c3.7,0,7.3-2.1,7.3-6.2c0-3.9-2.9-6.4-9.7-6.4
			c-1.9,0-3.3,0.1-4.6,0.3l2.2-17.1h17.5C270.3,349.5,270.3,354.8,270.3,354.8z"/>
	</g>
</g>
</svg>
