<?xml version="1.0" encoding="utf-8"?>
<!-- Generator: Adobe Illustrator 18.0.0, SVG Export Plug-In . SVG Version: 6.00 Build 0)  -->
<!DOCTYPE svg PUBLIC "-//W3C//DTD SVG 1.1//EN" "http://www.w3.org/Graphics/SVG/1.1/DTD/svg11.dtd">
<svg version="1.1"
	 id="svg2" inkscape:version="0.48.4 r9939" sodipodi:docname="6.2014_02_16_18_28_07.2.svg" xmlns:sodipodi="http://sodipodi.sourceforge.net/DTD/sodipodi-0.dtd" xmlns:dc="http://purl.org/dc/elements/1.1/" xmlns:cc="http://creativecommons.org/ns#" xmlns:inkscape="http://www.inkscape.org/namespaces/inkscape" xmlns:svg="http://www.w3.org/2000/svg" xmlns:rdf="http://www.w3.org/1999/02/22-rdf-syntax-ns#"
	 xmlns="http://www.w3.org/2000/svg" xmlns:xlink="http://www.w3.org/1999/xlink" x="0px" y="0px" viewBox="68.8 133.8 745.4 465.4"
	 enable-background="new 68.8 133.8 745.4 465.4" xml:space="preserve">
<g>
	<path d="M216.8,344.6c0-2.3,1.3-3.8,3.4-4.7v-0.1c-1.9-0.9-2.8-2.4-2.8-4c0-2.9,2.6-4.9,6-4.9c3.9,0,5.7,2.3,5.7,4.6
		c0,1.5-0.8,3.1-2.8,4.1v0.1c2,0.8,3.4,2.3,3.4,4.6c0,3.2-2.7,5.4-6.6,5.4C219,349.5,216.8,347.1,216.8,344.6z M226.3,344.4
		c0-1.8-1.4-2.8-3.4-3.4c-1.7,0.5-2.7,1.7-2.7,3.2c-0.1,1.5,1.1,2.9,3,2.9C225.1,347.1,226.3,346,226.3,344.4z M220.6,335.7
		c0,1.5,1.2,2.4,2.9,2.8c1.2-0.4,2.3-1.4,2.3-2.7c0-1.3-0.8-2.6-2.6-2.6C221.5,333.2,220.6,334.3,220.6,335.7z"/>
	<path d="M232.1,347.3c0-1.3,0.9-2.2,2.1-2.2c1.3,0,2.1,0.9,2.1,2.2c0,1.3-0.8,2.2-2.1,2.2C233,349.5,232.1,348.6,232.1,347.3z"/>
	<path d="M243.8,334.2L243.8,334.2l-3.4,1.7l-0.6-2.6l4.4-2.2h2.9v18.1h-3.3V334.2z"/>
	<path d="M253.6,347.3c0-1.3,0.9-2.2,2.1-2.2c1.3,0,2.1,0.9,2.1,2.2c0,1.3-0.8,2.2-2.1,2.2C254.4,349.5,253.6,348.6,253.6,347.3z"/>
	<path d="M265.3,334.2L265.3,334.2l-3.4,1.7l-0.6-2.6l4.4-2.2h2.9v18.1h-3.3V334.2z"/>
	<path d="M275,347.3c0-1.3,0.9-2.2,2.1-2.2c1.3,0,2.1,0.9,2.1,2.2c0,1.3-0.8,2.2-2.1,2.2C275.9,349.5,275,348.6,275,347.3z"/>
</g>
<g>
	<path fill="#FFFFFF" stroke="#000000" stroke-width="3.0037" stroke-miterlimit="10" d="M418.1,314H77.9c-4.2,0-7.6-3.5-7.6-7.6
		V173.5c0-4.2,3.5-7.6,7.6-7.6h340.2c4.2,0,7.6,3.5,7.6,7.6v132.9C425.7,310.6,422.3,314,418.1,314z"/>
	<g>
		<path d="M160.2,269.7c0,5.2-2.2,9.7-6.6,13.4c-4.2,3.5-8.9,5.2-14.3,5.2h-18.6c-5.8,0-10.9-1.8-15.2-5.4
			c-4.5-3.8-6.8-8.6-6.8-14.3v-14h22c0,0.6,0,1.3,0,2.3c-0.1,1-0.1,1.8-0.1,2.3c0,4.7,0.4,8,1.1,9.8c1.3,3,3.9,4.5,7.9,4.5
			c2.1,0,4-0.8,5.8-2.4c1.8-1.6,2.6-3.4,2.6-5.4v-12.3c0-4.3-3-7.1-9.1-8.4v-15.2c6,0,9.1-2.6,9.1-7.8v-13c0-2.2-0.9-4.1-2.9-5.6
			c-1.9-1.5-4-2.3-6.2-2.3c-4,0-6.5,1.8-7.6,5.5c-0.5,1.7-0.8,5.3-0.8,10.7h-22v-12.3c0.3-1.1,0.8-2.8,1.6-5.1
			c1.3-3.6,3.5-6.7,6.6-9.5c2.9-2.6,6.7-4,11.7-4h22c6.2,0,11.6,2.5,16.1,7.6c2.5,2.8,3.7,6.7,3.7,11.5v18c0,2.6-1.1,4.8-3.4,6.7
			c-0.7,0.6-3,2-6.8,4c4.3,2.5,6.7,3.8,7.2,4.2c2,1.7,3,4.1,3,7.1L160.2,269.7L160.2,269.7z"/>
		<path d="M227.6,269.8c0,4.5-2.1,8.8-6.3,12.6c-4.2,3.8-8.6,5.7-13.2,5.7h-22.8c-4.5,0-8.8-2-13.1-5.9c-4.3-3.9-6.4-8.1-6.4-12.5
			v-65.7c0-4.3,2.1-8.4,6.5-12.4c4.3-4,8.6-5.9,13-5.9h22.8c4.5,0,8.8,1.9,13,5.7c4.3,4,6.4,8.2,6.4,12.6L227.6,269.8L227.6,269.8z
			 M205.2,264.2v-54.3c0-2.1-0.9-4-2.6-5.6c-1.8-1.6-3.7-2.4-5.9-2.4s-4.1,0.8-5.9,2.4c-1.8,1.6-2.7,3.5-2.7,5.6v54.3
			c0,2.1,0.9,4,2.6,5.7c1.8,1.6,3.8,2.4,5.9,2.4s4.1-0.8,5.9-2.5C204.4,268.1,205.2,266.3,205.2,264.2z"/>
		<path d="M295.2,269.8c0,4.5-2.1,8.8-6.3,12.6c-4.2,3.8-8.6,5.7-13.2,5.7H253c-4.5,0-8.8-2-13.1-5.9c-4.3-3.9-6.4-8.1-6.4-12.5
			v-65.7c0-4.3,2.1-8.4,6.5-12.4c4.3-4,8.6-5.9,13-5.9h22.8c4.5,0,8.8,1.9,13,5.7c4.3,4,6.4,8.2,6.4,12.6L295.2,269.8L295.2,269.8z
			 M272.9,264.2v-54.3c0-2.1-0.9-4-2.6-5.6c-1.8-1.6-3.7-2.4-5.9-2.4c-2.1,0-4.1,0.8-5.9,2.4c-1.8,1.6-2.7,3.5-2.7,5.6v54.3
			c0,2.1,0.9,4,2.6,5.7c1.8,1.6,3.8,2.4,5.9,2.4s4.1-0.8,5.9-2.5C272,268.1,272.9,266.3,272.9,264.2z"/>
		<path d="M399.2,271.1c0,4.2-2.1,8.4-6.3,12.5c-4.2,4-8.4,6.1-12.7,6.1h-25.1c-4.2,0-8.4-2-12.7-6.1c-4.3-4.1-6.4-8.2-6.4-12.4
			v-20.8c0-4.2,2.1-8.3,6.4-12.4c4.2-4,8.4-6.1,12.7-6.1h22.3v-20.2c0-2.6-1.1-4.8-3.4-6.6c-2.1-1.6-4.5-2.4-7.2-2.4
			c-6.7,0-10.1,4.3-10.1,12.8v1.2c0,0.4,0,0.8,0.1,1.1h-21.3v-12.9c4.7-11.6,10.9-17.4,18.5-17.4h27.5c4,0,8.1,2,12,5.9
			c4,4,5.9,8,5.9,12.1v65.6H399.2z M376.8,267.2v-13.5c0-2.3-1.1-4.2-3.1-5.5c-1.8-1.2-4-1.8-6.4-1.8c-2.3,0-4.4,0.6-6.3,1.8
			c-2.1,1.4-3.1,3.3-3.1,5.5v13.5c0,2.1,0.9,3.9,2.9,5.4c1.8,1.3,3.8,2,6,2c2.5,0,4.7-0.6,6.7-1.7
			C375.7,271.5,376.8,269.6,376.8,267.2z"/>
	</g>
</g>
<g>
	<path fill="#FFFFFF" stroke="#000000" stroke-width="3.0037" stroke-miterlimit="10" d="M763.1,341.9H513.6c-3.1,0-5.6-2.5-5.6-5.6
		V140.9c0-3.1,2.5-5.6,5.6-5.6h249.5c3.1,0,5.6,2.5,5.6,5.6v195.4C768.7,339.4,766.1,341.9,763.1,341.9z"/>
	<g>
		<path d="M576.6,214.3c0,2.3-1.6,4.7-4.7,7.2c-3,2.4-5.7,3.6-8.1,3.6h-18.7c-3,0-5.9-1.5-8.8-4.6c-2.9-3-4.4-6.1-4.4-9.1v-60.8H548
			v58.7c0,3.6,2.2,5.4,6.6,5.4c1.6,0,3-0.5,4.3-1.5c1.2-1,1.9-2.3,1.9-3.9v-26.9h15.7L576.6,214.3L576.6,214.3z"/>
		<path d="M645.3,176.2c0,3.1-1.6,6.2-4.8,9.3c-3.2,3.1-6.4,4.6-9.6,4.6h-11.5c-3.1,0-6.3-1.5-9.5-4.6c-3.2-3.1-4.8-6.2-4.8-9.3
			v-10.7c0-2.2-1.4-3.3-4.1-3.3c-2.4,0-3.6,1.1-3.6,3.3v14.8c0,5.7,2.6,10.3,7.9,13.6c3.1,2,8.4,4,15.7,6c5.8,1.6,9.6,2.8,11.2,3.6
			c3.6,1.8,6.2,4.5,7.9,8c1.1,3,1.8,4.9,2,5.6v8.2h-16.4c0-8.8-5-14.3-15-16.3c-4.3-0.9-9.3-1.3-15-1.3c-4.8,0-8.1,0.3-9.8,0.8H583
			V197h7c-1.8-2.3-3.6-4.6-5.4-6.9c-1.6-2.6-2.4-4.8-2.4-6.6v-20.1c0-2.8,1.4-5.5,4.2-8.3c2.8-2.7,5.7-4.1,8.5-4.1h10.7
			c1.7,0,3.2,0.7,4.6,2.2c1.2,1.6,1.9,2.5,2.1,2.7c3.1-3.3,6-4.9,8.8-4.9h11.1c3,0,6,1.4,8.8,4.3c2.9,2.9,4.2,5.8,4.2,8.9
			L645.3,176.2L645.3,176.2z M629.4,170.8c0-2.9-0.1-4.7-0.4-5.5c-0.6-1.8-1.9-2.7-4.1-2.7c-2,0-3.4,0.8-4,2.5
			c-0.3,0.9-0.5,2.7-0.5,5.3v1.5c0,2.2,0.2,3.8,0.6,4.7c0.6,1.3,1.9,2,3.9,2c2,0,3.3-0.9,4-2.6C629.2,175.1,629.4,173.3,629.4,170.8
			z"/>
		<path d="M695.4,211.2c0,2.9-1.6,5.9-4.8,9c-3.2,3.1-6.3,4.7-9.2,4.7h-17.9c-2.8,0-5.7-1.4-8.7-4.3c-3-2.9-4.5-5.7-4.5-8.5v-17.9
			h16.2v13.7c0,1.8,0.6,3.3,1.9,4.5c1.3,1.2,2.9,1.8,4.7,1.8c1.5,0,2.9-0.7,4.2-2c1.3-1.3,2-2.8,2-4.2v-40.6c0-1.8-0.6-3.2-1.9-4.4
			c-1.3-1.2-2.9-1.8-4.6-1.8c-2.9,0-4.8,1.2-5.6,3.7c-0.4,1.2-0.6,3.7-0.6,7.5h-16.2v-9.1c3.3-8.5,8-12.8,14.1-12.8h16.6
			c3.1,0,6.3,1.5,9.6,4.5c3.3,3,4.9,6,4.9,9.2L695.4,211.2L695.4,211.2z"/>
		<path d="M747.4,210.9c0,3.3-1.6,6.4-4.7,9.1c-3.1,2.7-6.4,4.1-9.8,4.1h-17c-3.2,0-6.4-1.4-9.5-4.2c-3.1-2.8-4.6-5.8-4.6-9v-15.3
			h16.2v11.6c0,1.8,0.6,3.3,1.9,4.4c1.3,1.2,2.9,1.8,4.7,1.8c1.7,0,3.1-0.6,4.4-1.8c1.2-1.2,1.8-2.7,1.8-4.4v-28.5
			c0-1.3-0.6-2.4-1.7-3.3c-1.1-0.8-2.4-1.2-3.7-1.2c-2.3,0-3.8,0.7-4.6,2.1c-0.5,1-0.8,2.8-0.8,5.4h-14.5v-9.9
			c2-4.1,4.5-6.2,7.5-6.2h17.8v-15.3h16.5L747.4,210.9L747.4,210.9z"/>
	</g>
	<g>
		<path d="M575.8,278.2c0,5.8-4.4,13.2-13.3,22.2c-4.3,4.4-8.5,8.6-12.7,12.7h24.8v11.6h-43.3v-10c0-0.8,4.1-5.6,12.1-14.5
			c3.1-3.5,5.7-6.5,7.6-9.1c1-1,2.4-2.6,4.4-4.7c2.9-3.3,4.2-6.3,4.2-9v-11.6c0-3.9-2.2-5.8-6.6-5.8c-2.7,0-4.5,0.9-5.4,2.8
			c-0.5,1.2-0.8,3.4-0.8,6.6v2.7h-15.7v-9.2c0-2.9,1.6-5.9,4.8-8.8c3.2-3,6.2-4.4,9.2-4.4h17.4c3,0,6,1.5,8.9,4.6
			c2.9,3,4.3,6.1,4.3,9.1L575.8,278.2L575.8,278.2z"/>
		<path d="M624.1,312.1c0,3.7-1.8,6.9-5.2,9.7c-3.2,2.6-6.7,3.9-10.5,3.9h-14.5c-3.1,0-5.4-0.6-7.1-1.8c-1.8-1.3-3.2-3.1-4.2-5.4
			l-2.8-6.8v-7.5h15.7c0,3.6,0.3,6,0.8,7.4c0.9,2.3,2.9,3.4,5.8,3.4c1.8,0,3.3-0.6,4.4-1.9c1.2-1.3,1.8-2.9,1.8-4.7v-17.5
			c0-1.4-0.6-2.7-1.9-4c-1.2-1.2-2.5-1.9-3.9-1.9c-2.4,0-4.2,1.5-5.4,4.6h-14.9V251h40.7v10.3h-25.3v14.6h16.2c2.9,0,5.3,1,7.3,3
			c2,2,3,4.5,3,7.3L624.1,312.1L624.1,312.1z"/>
		<path d="M673.3,311.3c0,3.3-1.5,6.4-4.6,9.2c-3.1,2.8-6.3,4.2-9.7,4.2h-16.7c-3.3,0-6.5-1.4-9.6-4.3c-3.1-2.9-4.7-5.9-4.7-9.1
			v-48.2c0-3.2,1.6-6.2,4.8-9.1c3.1-2.9,6.3-4.3,9.6-4.3h16.7c3.3,0,6.5,1.4,9.6,4.2c3.1,2.9,4.7,6,4.7,9.2L673.3,311.3L673.3,311.3
			z M657,307.1v-39.8c0-1.6-0.6-2.9-1.9-4.1c-1.3-1.2-2.7-1.8-4.3-1.8s-3,0.6-4.3,1.8c-1.3,1.2-2,2.5-2,4.1v39.8
			c0,1.6,0.6,3,1.9,4.2c1.3,1.2,2.8,1.8,4.3,1.8s3-0.6,4.3-1.8C656.3,310,657,308.7,657,307.1z"/>
		<path d="M749.6,312.2c0,3.1-1.5,6.1-4.6,9.1c-3.1,3-6.2,4.5-9.3,4.5h-18.4c-3.1,0-6.2-1.5-9.3-4.5c-3.1-3-4.7-6-4.7-9.1V297
			c0-3.1,1.6-6.1,4.7-9.1c3.1-3,6.2-4.5,9.3-4.5h16.3v-14.8c0-1.9-0.8-3.6-2.5-4.8c-1.5-1.2-3.3-1.8-5.3-1.8c-4.9,0-7.4,3.1-7.4,9.4
			v0.9c0,0.3,0,0.6,0,0.8h-15.6v-9.5c3.5-8.5,8-12.7,13.5-12.7h20.1c3,0,5.9,1.4,8.8,4.3c2.9,2.9,4.3,5.9,4.3,8.9L749.6,312.2
			L749.6,312.2z M733.1,309.3v-9.9c0-1.7-0.8-3-2.3-4c-1.3-0.9-2.9-1.3-4.7-1.3c-1.7,0-3.2,0.5-4.6,1.3c-1.6,1.1-2.3,2.4-2.3,4v9.9
			c0,1.6,0.7,2.9,2.1,3.9c1.3,1,2.8,1.4,4.4,1.4c1.8,0,3.5-0.4,4.9-1.2C732.3,312.5,733.1,311.1,733.1,309.3z"/>
	</g>
</g>
<g>
	<path fill="#FFFFFF" stroke="#000000" stroke-width="3.0037" stroke-miterlimit="10" d="M418.1,550H77.9c-4.2,0-7.6-3.5-7.6-7.6
		V409.5c0-4.2,3.5-7.6,7.6-7.6h340.2c4.2,0,7.6,3.5,7.6,7.6v132.9C425.7,546.6,422.3,550,418.1,550z"/>
	<g>
		<path d="M114.3,510.2H99.8v-47.2c-1.6,0.2-4,1.2-7.2,3.1h-1.1v-11.8c5.7-2.2,9.6-6.6,11.8-13h11V510.2z"/>
		<path d="M159.4,497.4c0,3-1.4,5.9-4.2,8.4c-2.8,2.6-5.7,3.8-8.8,3.8h-15.2c-3,0-5.9-1.3-8.8-3.9c-2.8-2.6-4.3-5.4-4.3-8.3v-43.8
			c0-2.9,1.4-5.7,4.3-8.3c2.9-2.6,5.8-4,8.7-4h15.2c3,0,5.9,1.3,8.7,3.8c2.8,2.6,4.3,5.5,4.3,8.4v43.9H159.4z M144.6,493.6v-36.3
			c0-1.4-0.6-2.6-1.8-3.7c-1.2-1.1-2.5-1.6-3.9-1.6c-1.4,0-2.7,0.5-3.9,1.6c-1.2,1.1-1.8,2.3-1.8,3.7v36.3c0,1.4,0.6,2.7,1.8,3.8
			c1.2,1.1,2.5,1.6,4,1.6c1.4,0,2.7-0.6,3.9-1.6C144,496.3,144.6,495.1,144.6,493.6z"/>
		<path d="M204.6,497.4c0,3-1.4,5.9-4.2,8.4c-2.8,2.6-5.7,3.8-8.8,3.8h-15.2c-3,0-5.9-1.3-8.8-3.9c-2.8-2.6-4.3-5.4-4.3-8.3v-43.8
			c0-2.9,1.4-5.7,4.3-8.3c2.9-2.6,5.8-4,8.7-4h15.2c3,0,5.9,1.3,8.7,3.8c2.8,2.6,4.3,5.5,4.3,8.4v43.9H204.6z M189.7,493.6v-36.3
			c0-1.4-0.6-2.6-1.8-3.7c-1.2-1.1-2.5-1.6-3.9-1.6c-1.4,0-2.7,0.5-3.9,1.6c-1.2,1.1-1.8,2.3-1.8,3.7v36.3c0,1.4,0.6,2.7,1.8,3.8
			c1.2,1.1,2.5,1.6,4,1.6c1.4,0,2.7-0.6,3.9-1.6C189.1,496.3,189.7,495.1,189.7,493.6z"/>
		<path d="M274.1,498.3c0,2.8-1.4,5.6-4.2,8.3c-2.8,2.7-5.7,4.1-8.4,4.1h-16.8c-2.8,0-5.6-1.4-8.4-4.1c-2.8-2.7-4.3-5.5-4.3-8.3
			v-13.9c0-2.8,1.4-5.5,4.2-8.3s5.7-4.1,8.5-4.1h14.8v-13.5c0-1.8-0.8-3.3-2.3-4.4c-1.4-1.1-3-1.6-4.8-1.6c-4.5,0-6.7,2.8-6.7,8.6
			v0.8c0,0.3,0,0.5,0.1,0.8h-14.2v-8.6c3.1-7.7,7.2-11.6,12.3-11.6h18.3c2.7,0,5.4,1.3,8,4c2.6,2.6,4,5.4,4,8.1V498.3z M259.1,495.6
			v-9c0-1.5-0.7-2.8-2.1-3.7c-1.3-0.8-2.6-1.2-4.2-1.2c-1.6,0-3,0.4-4.2,1.2c-1.4,0.9-2.1,2.2-2.1,3.7v9c0,1.4,0.6,2.6,2,3.6
			c1.2,0.9,2.5,1.3,4,1.3c1.7,0,3.1-0.4,4.5-1.1C258.3,498.5,259.1,497.3,259.1,495.6z"/>
	</g>
	<polygon points="354.2,445.7 406.7,476 354.2,506.2 354.2,487.1 301.8,487.1 301.8,464.8 354.2,464.8 	"/>
</g>
<g>
	<path fill="#FFFFFF" stroke="#000000" stroke-width="3.0037" stroke-miterlimit="10" d="M805.1,550.7H464.8c-4.2,0-7.6-3.5-7.6-7.6
		V410.2c0-4.2,3.5-7.6,7.6-7.6h340.2c4.2,0,7.6,3.5,7.6,7.6v132.9C812.7,547.3,809.2,550.7,805.1,550.7z"/>
	<g>
		<path d="M634.6,497.7c0,3.5-1.4,6.5-4.4,8.9c-2.8,2.3-5.9,3.5-9.5,3.5h-12.4c-3.9,0-7.2-1.2-10.1-3.6c-3-2.5-4.5-5.7-4.5-9.5v-9.4
			h14.7c0,0.4,0,0.9,0,1.6s-0.1,1.2-0.1,1.6c0,3.1,0.3,5.4,0.8,6.6c0.8,2,2.6,3,5.3,3c1.4,0,2.6-0.5,3.8-1.6s1.8-2.3,1.8-3.7v-8.3
			c0-2.9-2-4.8-6-5.7V471c4,0,6-1.8,6-5.2v-8.7c0-1.4-0.6-2.7-1.9-3.7s-2.6-1.5-4.2-1.5c-2.6,0-4.3,1.3-5.1,3.7
			c-0.3,1.1-0.5,3.5-0.5,7.1h-14.7v-8.3c0.2-0.8,0.6-1.9,1-3.4c0.9-2.4,2.4-4.5,4.4-6.4c2-1.8,4.5-2.6,7.7-2.6h14.7
			c4.2,0,7.7,1.7,10.7,5.1c1.6,1.9,2.5,4.5,2.5,7.7v12c0,1.8-0.8,3.2-2.3,4.5c-0.5,0.4-2,1.3-4.5,2.7c2.9,1.6,4.5,2.5,4.8,2.8
			c1.4,1.1,2,2.7,2,4.7L634.6,497.7L634.6,497.7z"/>
		<path d="M679.6,497.8c0,3-1.4,5.9-4.2,8.4c-2.8,2.6-5.7,3.8-8.8,3.8h-15.2c-3,0-5.9-1.3-8.8-3.9c-2.8-2.6-4.3-5.4-4.3-8.3v-43.8
			c0-2.9,1.4-5.7,4.3-8.3c2.9-2.6,5.8-4,8.7-4h15.2c3,0,5.9,1.3,8.7,3.8c2.8,2.6,4.3,5.5,4.3,8.4L679.6,497.8L679.6,497.8z
			 M664.7,494v-36.3c0-1.4-0.6-2.6-1.8-3.7s-2.5-1.6-3.9-1.6c-1.4,0-2.7,0.5-3.9,1.6c-1.2,1.1-1.8,2.3-1.8,3.7V494
			c0,1.4,0.6,2.7,1.8,3.8s2.5,1.6,4,1.6c1.4,0,2.7-0.6,3.9-1.6C664.1,496.6,664.7,495.4,664.7,494z"/>
		<path d="M724.8,497.8c0,3-1.4,5.9-4.2,8.4c-2.8,2.6-5.7,3.8-8.8,3.8h-15.2c-3,0-5.9-1.3-8.8-3.9c-2.8-2.6-4.3-5.4-4.3-8.3v-43.8
			c0-2.9,1.4-5.7,4.3-8.3c2.9-2.6,5.8-4,8.7-4h15.2c3,0,5.9,1.3,8.7,3.8c2.8,2.6,4.3,5.5,4.3,8.4v43.9H724.8z M709.8,494v-36.3
			c0-1.4-0.6-2.6-1.8-3.7s-2.5-1.6-3.9-1.6c-1.4,0-2.7,0.5-3.9,1.6s-1.8,2.3-1.8,3.7V494c0,1.4,0.6,2.7,1.8,3.8s2.5,1.6,4,1.6
			c1.4,0,2.7-0.6,3.9-1.6C709.3,496.6,709.8,495.4,709.8,494z"/>
		<path d="M794.2,498.6c0,2.8-1.4,5.6-4.2,8.3c-2.8,2.7-5.7,4.1-8.4,4.1h-16.8c-2.8,0-5.6-1.4-8.4-4.1s-4.3-5.5-4.3-8.3v-13.9
			c0-2.8,1.4-5.5,4.2-8.3c2.8-2.7,5.7-4.1,8.5-4.1h14.9V459c0-1.8-0.8-3.3-2.3-4.4c-1.4-1.1-3-1.6-4.8-1.6c-4.5,0-6.7,2.8-6.7,8.6
			v0.8c0,0.3,0,0.5,0.1,0.8h-14.3v-8.6c3.1-7.7,7.2-11.6,12.3-11.6h18.3c2.7,0,5.4,1.3,8,4s4,5.4,4,8.1V498.6z M779.3,496v-9
			c0-1.5-0.7-2.8-2.1-3.7c-1.3-0.8-2.6-1.2-4.2-1.2c-1.6,0-3,0.4-4.2,1.2c-1.4,0.9-2.1,2.2-2.1,3.7v9c0,1.4,0.6,2.6,2,3.6
			c1.2,0.9,2.5,1.3,4,1.3c1.7,0,3.1-0.4,4.5-1.1C778.5,498.9,779.3,497.6,779.3,496z"/>
	</g>
	<polygon points="522.1,446.4 469.6,476.7 522.1,506.9 522.1,487.8 574.5,487.8 574.5,465.5 522.1,465.5 	"/>
</g>
<g>
	<path d="M216.8,587.6c0-2.3,1.3-3.8,3.4-4.7v-0.1c-1.9-0.9-2.8-2.4-2.8-4c0-2.9,2.6-4.9,6-4.9c3.9,0,5.7,2.3,5.7,4.6
		c0,1.5-0.8,3.1-2.8,4.1v0.1c2,0.8,3.4,2.3,3.4,4.6c0,3.2-2.7,5.4-6.6,5.4C219,592.5,216.8,590.1,216.8,587.6z M226.3,587.4
		c0-1.8-1.4-2.8-3.4-3.4c-1.7,0.5-2.7,1.7-2.7,3.2c-0.1,1.5,1.1,2.9,3,2.9C225.1,590.1,226.3,589,226.3,587.4z M220.6,578.7
		c0,1.5,1.2,2.4,2.9,2.8c1.2-0.4,2.3-1.4,2.3-2.7c0-1.3-0.8-2.6-2.6-2.6C221.5,576.2,220.6,577.3,220.6,578.7z"/>
	<path d="M232.1,590.3c0-1.3,0.9-2.2,2.1-2.2c1.3,0,2.1,0.9,2.1,2.2c0,1.3-0.8,2.2-2.1,2.2C233,592.5,232.1,591.6,232.1,590.3z"/>
	<path d="M243.8,577.2L243.8,577.2l-3.4,1.7l-0.6-2.6l4.4-2.2h2.9v18.1h-3.3V577.2z"/>
	<path d="M253.6,590.3c0-1.3,0.9-2.2,2.1-2.2c1.3,0,2.1,0.9,2.1,2.2c0,1.3-0.8,2.2-2.1,2.2C254.4,592.5,253.6,591.6,253.6,590.3z"/>
	<path d="M260.6,588.7c0.7,0.4,2.4,1.1,4.1,1.1c2.6,0,3.7-1.5,3.6-2.9c0-2.1-2-3.1-4.1-3.1h-1.6v-2.5h1.5c1.6,0,3.6-0.7,3.6-2.5
		c0-1.2-0.9-2.3-2.9-2.3c-1.5,0-2.9,0.6-3.7,1.1l-0.8-2.5c1-0.7,3-1.4,5.2-1.4c3.7,0,5.6,2.1,5.6,4.4c0,1.9-1.1,3.4-3.3,4.2v0.1
		c2.2,0.4,4,2.1,4,4.5c0,3.1-2.6,5.5-7,5.5c-2.2,0-4.1-0.6-5.1-1.3L260.6,588.7z"/>
	<path d="M275,590.3c0-1.3,0.9-2.2,2.1-2.2c1.3,0,2.1,0.9,2.1,2.2c0,1.3-0.8,2.2-2.1,2.2C275.9,592.5,275,591.6,275,590.3z"/>
</g>
<g>
	<path d="M607.1,372.4c0-2.3,1.3-3.8,3.4-4.7v-0.1c-1.9-0.9-2.8-2.4-2.8-4c0-2.9,2.6-4.9,6-4.9c3.9,0,5.7,2.3,5.7,4.6
		c0,1.5-0.8,3.1-2.8,4.1v0.1c2,0.8,3.4,2.3,3.4,4.6c0,3.2-2.7,5.4-6.6,5.4C609.3,377.4,607.1,375,607.1,372.4z M616.7,372.3
		c0-1.8-1.4-2.8-3.4-3.4c-1.7,0.5-2.7,1.7-2.7,3.2c-0.1,1.5,1.1,2.9,3,2.9C615.5,375,616.7,373.8,616.7,372.3z M611,363.5
		c0,1.5,1.2,2.4,2.9,2.8c1.2-0.4,2.3-1.4,2.3-2.7c0-1.3-0.8-2.6-2.6-2.6C611.9,361.1,611,362.2,611,363.5z"/>
	<path d="M622.5,375.2c0-1.3,0.9-2.2,2.1-2.2c1.3,0,2.1,0.9,2.1,2.2c0,1.3-0.8,2.2-2.1,2.2C623.4,377.4,622.5,376.4,622.5,375.2z"/>
	<path d="M634.2,362.1L634.2,362.1l-3.4,1.7l-0.6-2.6l4.4-2.2h2.9v18.1h-3.3V362.1z"/>
	<path d="M644,375.2c0-1.3,0.9-2.2,2.1-2.2c1.3,0,2.1,0.9,2.1,2.2c0,1.3-0.8,2.2-2.1,2.2C644.8,377.4,644,376.4,644,375.2z"/>
	<path d="M650.3,377.1V375l2.1-2c4.3-3.9,6.3-6.1,6.3-8.5c0-1.6-0.9-3-3.2-3c-1.6,0-2.9,0.8-3.9,1.5l-1-2.4c1.3-1.1,3.3-1.9,5.6-1.9
		c4,0,6,2.5,6,5.5c0,3.2-2.3,5.7-5.4,8.6l-1.6,1.4v0.1h7.4v2.8H650.3z"/>
	<path d="M665.4,375.2c0-1.3,0.9-2.2,2.1-2.2c1.3,0,2.1,0.9,2.1,2.2c0,1.3-0.8,2.2-2.1,2.2C666.3,377.4,665.4,376.4,665.4,375.2z"/>
</g>
<g>
	<path d="M603.7,587.6c0-2.3,1.3-3.8,3.4-4.7v-0.1c-1.9-0.9-2.8-2.4-2.8-4c0-2.9,2.6-4.9,6-4.9c3.9,0,5.7,2.3,5.7,4.6
		c0,1.5-0.8,3.1-2.8,4.1v0.1c2,0.8,3.4,2.3,3.4,4.6c0,3.2-2.7,5.4-6.6,5.4C605.9,592.5,603.7,590.1,603.7,587.6z M613.3,587.4
		c0-1.8-1.4-2.8-3.4-3.4c-1.7,0.5-2.7,1.7-2.7,3.2c-0.1,1.5,1.1,2.9,3,2.9C612.1,590.1,613.3,589,613.3,587.4z M607.6,578.7
		c0,1.5,1.2,2.4,2.9,2.8c1.2-0.4,2.3-1.4,2.3-2.7c0-1.3-0.8-2.6-2.6-2.6C608.5,576.2,607.6,577.3,607.6,578.7z"/>
	<path d="M619.1,590.3c0-1.3,0.9-2.2,2.1-2.2c1.3,0,2.1,0.9,2.1,2.2c0,1.3-0.8,2.2-2.1,2.2C620,592.5,619.1,591.6,619.1,590.3z"/>
	<path d="M630.8,577.2L630.8,577.2l-3.4,1.7l-0.6-2.6l4.4-2.2h2.9v18.1h-3.3V577.2z"/>
	<path d="M640.5,590.3c0-1.3,0.9-2.2,2.1-2.2c1.3,0,2.1,0.9,2.1,2.2c0,1.3-0.8,2.2-2.1,2.2C641.4,592.5,640.5,591.6,640.5,590.3z"/>
	<path d="M654.4,592.2v-4.6h-8.2v-2.2l7.4-11.3h4V585h2.3v2.6h-2.3v4.6H654.4z M654.4,585v-4.9c0-1,0-2.1,0.1-3.1h-0.1
		c-0.6,1.1-1,2.1-1.6,3.1l-3.3,4.9l0,0.1H654.4z"/>
	<path d="M662,590.3c0-1.3,0.9-2.2,2.1-2.2c1.3,0,2.1,0.9,2.1,2.2c0,1.3-0.8,2.2-2.1,2.2C662.9,592.5,662,591.6,662,590.3z"/>
</g>
</svg>
