<?xml version="1.0" encoding="utf-8"?>
<!-- Generator: Adobe Illustrator 18.0.0, SVG Export Plug-In . SVG Version: 6.00 Build 0)  -->
<!DOCTYPE svg PUBLIC "-//W3C//DTD SVG 1.1//EN" "http://www.w3.org/Graphics/SVG/1.1/DTD/svg11.dtd">
<svg version="1.1"
	 id="svg2" inkscape:version="0.48.4 r9939" sodipodi:docname="6.2014_02_16_18_28_07.2.svg" xmlns:sodipodi="http://sodipodi.sourceforge.net/DTD/sodipodi-0.dtd" xmlns:dc="http://purl.org/dc/elements/1.1/" xmlns:cc="http://creativecommons.org/ns#" xmlns:inkscape="http://www.inkscape.org/namespaces/inkscape" xmlns:svg="http://www.w3.org/2000/svg" xmlns:rdf="http://www.w3.org/1999/02/22-rdf-syntax-ns#"
	 xmlns="http://www.w3.org/2000/svg" xmlns:xlink="http://www.w3.org/1999/xlink" x="0px" y="0px" viewBox="4.4 205.3 954.7 402.5"
	 enable-background="new 4.4 205.3 954.7 402.5" xml:space="preserve">
<path fill="#FFFFFF" stroke="#000000" stroke-width="8" stroke-miterlimit="10" d="M934.9,603.9H28.7c-11.2,0-20.3-9.2-20.3-20.3
	V229.6c0-11.2,9.2-20.3,20.3-20.3h906.2c11.2,0,20.3,9.2,20.3,20.3v353.9C955.2,594.8,945.9,603.9,934.9,603.9z"/>
<g>
	<path d="M625.4,530.1l23.1-15.1l-22.6-36.7l-23.8,15.4l-59.2-92.9h-92.8V388h103.8v-43.3H450.1v-38.9c11.4-7.2,19.1-20,19.1-34.4
		c0-22.5-18.3-40.6-40.6-40.6c-22.5,0-40.6,18.3-40.6,40.6c0,14.4,7.5,27.2,19.1,34.4v138.1h112.2L589,553.4l0.2-0.2v0.2l13.9-8.9
		L625.4,530.1L625.4,530.1z"/>
	<path d="M433.6,546.5c-45.5,0-82.5-37.1-82.5-82.5c0-30.5,16.8-57.2,41.4-71.5v-39.9c-45.3,16.8-77.5,60.2-77.5,111.2
		c0,65.4,53.2,118.6,118.6,118.6c50,0,92.8-31,110.2-74.8l-27.7-43.3C515.8,509.8,478.9,546.5,433.6,546.5z"/>
</g>
</svg>
