<?xml version="1.0" encoding="utf-8"?>
<!-- Generator: Adobe Illustrator 18.0.0, SVG Export Plug-In . SVG Version: 6.00 Build 0)  -->
<!DOCTYPE svg PUBLIC "-//W3C//DTD SVG 1.1//EN" "http://www.w3.org/Graphics/SVG/1.1/DTD/svg11.dtd">
<svg version="1.1"
	 id="svg2" inkscape:version="0.48.4 r9939" sodipodi:docname="6.2014_02_16_18_28_07.2.svg" xmlns:sodipodi="http://sodipodi.sourceforge.net/DTD/sodipodi-0.dtd" xmlns:dc="http://purl.org/dc/elements/1.1/" xmlns:cc="http://creativecommons.org/ns#" xmlns:inkscape="http://www.inkscape.org/namespaces/inkscape" xmlns:svg="http://www.w3.org/2000/svg" xmlns:rdf="http://www.w3.org/1999/02/22-rdf-syntax-ns#"
	 xmlns="http://www.w3.org/2000/svg" xmlns:xlink="http://www.w3.org/1999/xlink" x="0px" y="0px" viewBox="4.4 205.3 954.7 402.5"
	 enable-background="new 4.4 205.3 954.7 402.5" xml:space="preserve">
<path fill="#FFFFFF" stroke="#000000" stroke-width="8" stroke-miterlimit="10" d="M934.9,603.9H28.7c-11.2,0-20.3-9.2-20.3-20.3
	V229.6c0-11.2,9.2-20.3,20.3-20.3h906.2c11.2,0,20.3,9.2,20.3,20.3v353.9C955.2,594.8,945.9,603.9,934.9,603.9z"/>
<g>
	<path d="M619.8,525.4l22.3-14.4l-21.8-35.4l-22.8,14.8l-57-89.2h-89.2v-12.2h99.8v-41.6h-99.8v-37.4c11.1-6.9,18.3-19.1,18.3-33
		c0-21.6-17.4-39.1-39.1-39.1c-21.6,0-39.1,17.4-39.1,39.1c0,13.9,7.4,26.2,18.3,33v132.7h108l67.3,105.3l0.2-0.2v0.2l13.3-8.6
		L619.8,525.4L619.8,525.4z"/>
	<path d="M435.5,541.1c-43.8,0-79.5-35.6-79.5-79.3c0-29.4,16.1-55,39.9-68.8v-38.2c-43.4,16.1-74.5,57.9-74.5,107
		c0,63.1,51,114.1,114.1,114.1c48.1,0,89.2-29.9,106-72l-26.7-41.6C514.5,505.8,479.1,541.1,435.5,541.1z"/>
</g>
<path fill="#FF0000" d="M237.9,597.2l576.2-379.6c-2.3-1-4.9-1.5-7.5-1.5H728L149.5,597.2H237.9z"/>
</svg>
