<?xml version="1.0" encoding="utf-8"?>
<!-- Generator: Adobe Illustrator 18.0.0, SVG Export Plug-In . SVG Version: 6.00 Build 0)  -->
<!DOCTYPE svg PUBLIC "-//W3C//DTD SVG 1.1//EN" "http://www.w3.org/Graphics/SVG/1.1/DTD/svg11.dtd">
<svg version="1.1"
	 id="svg2" inkscape:version="0.48.4 r9939" sodipodi:docname="6.2014_02_16_18_28_07.2.svg" xmlns:sodipodi="http://sodipodi.sourceforge.net/DTD/sodipodi-0.dtd" xmlns:dc="http://purl.org/dc/elements/1.1/" xmlns:cc="http://creativecommons.org/ns#" xmlns:inkscape="http://www.inkscape.org/namespaces/inkscape" xmlns:svg="http://www.w3.org/2000/svg" xmlns:rdf="http://www.w3.org/1999/02/22-rdf-syntax-ns#"
	 xmlns="http://www.w3.org/2000/svg" xmlns:xlink="http://www.w3.org/1999/xlink" x="0px" y="0px" viewBox="4.4 205.3 954.7 402.5"
	 enable-background="new 4.4 205.3 954.7 402.5" xml:space="preserve">
<path fill="#FF902C" stroke="#000000" stroke-width="8" stroke-miterlimit="10" d="M934.9,603.9H28.7c-11.2,0-20.3-9.2-20.3-20.3
	V229.6c0-11.2,9.2-20.3,20.3-20.3h906.2c11.2,0,20.3,9.2,20.3,20.3v353.9C955.2,594.8,945.9,603.9,934.9,603.9z"/>
<g>
	<path d="M82.9,351.2c0,2.1-1.4,4.3-4.3,6.5c-2.7,2.2-5.2,3.2-7.4,3.2h-17c-2.7,0-5.4-1.4-8-4.2c-2.6-2.8-4-5.5-4-8.2v-55.3h14.6
		v53.4c0,3.2,2,4.9,6,4.9c1.5,0,2.8-0.5,3.9-1.4c1.1-0.9,1.7-2.1,1.7-3.5v-24.5h14.3V351.2z"/>
	<path d="M135.1,348.9c0,2.9-1.6,5.7-4.7,8.4c-3,2.6-6,3.8-9,3.8h-13.7c-2.8,0-5.6-1.3-8.4-4c-2.8-2.7-4.2-5.4-4.2-8.2v-15.5h14.1
		v12.9c0,1.3,0.7,2.4,2,3.4c1.3,0.9,2.6,1.4,3.9,1.4c1.2,0,2.4-0.5,3.7-1.5c1.2-1,1.9-2.1,1.9-3.3v-24.4c0-1.7-1-3.3-3-5.1
		c-1.4-1.1-3.4-2.9-6.1-5.2s-4.8-5.2-6.4-8.6v-8.9h14c0,3.8,1,7,2.9,9.4c0.9,1.1,3.5,3.4,7.6,6.6c3.6,2.9,5.4,5.3,5.4,7.3V348.9z"/>
	<path d="M187.5,349.6c0,2.7-1.4,5.3-4.1,7.9c-2.7,2.6-5.5,3.9-8.2,3.9h-16.5c-2.7,0-5.4-1.3-8.1-3.9c-2.7-2.6-4.1-5.2-4.1-7.9
		v-56.8H161v29.5h3.8c0.8-0.8,2.1-1.9,4.1-3.5c2.3-1.8,3.6-2.7,4-2.7h14.6v0.4l-8,5.4l-0.4,0.8c2.2,0.4,4.2,1.5,5.9,3.5
		c1.7,2,2.6,4.1,2.6,6.4V349.6z M172.6,346.9v-9.7c0-1.4-0.6-2.5-1.7-3.3c-1.1-0.8-2.4-1.3-3.7-1.3c-1.5,0-2.8,0.4-3.8,1.1
		c-1.3,0.9-1.9,2-1.9,3.4v9.7c0,1.4,0.6,2.5,1.7,3.4c1.1,0.8,2.3,1.2,3.7,1.2c1.5,0,2.8-0.4,3.9-1.2
		C172,349.5,172.6,348.3,172.6,346.9z"/>
	<path d="M241.2,361.3h-14.6v-52.2c0-1.6-0.6-2.9-1.8-4s-2.6-1.6-4.2-1.6c-1.4,0-2.7,0.6-3.9,1.8c-1.2,1.2-1.8,2.5-1.8,3.8v52.2
		h-14.6v-54.4c0-2.8,1.4-5.6,4.2-8.5c2.8-2.9,5.5-4.3,8.3-4.3h16.1c2.9,0,5.7,1.4,8.4,4.2c2.7,2.8,4,5.7,4,8.6V361.3z"/>
	<path d="M311.7,349.2c0,2.7-1.5,5.3-4.4,7.9c-2.9,2.6-5.7,3.8-8.4,3.8h-21.1c-3.1,0-6.2-1.4-9.1-4.3c-3-2.9-4.4-5.8-4.4-8.9v-12.4
		h15.1v8.7c0,2.1,1,3.9,3.1,5.3c1.8,1.3,3.8,1.9,6,1.9c2.1,0,4.1-0.6,5.8-1.9c1.9-1.4,2.8-3.2,2.8-5.2v-12.5c0-2.5-1.5-3.7-4.5-3.7
		v-8.3c3,0,4.5-1,4.5-3.1v-10.2c0-2-1.1-3-3.3-3c-0.8,0-1.5,0.3-2.1,0.9c-0.6,0.6-1,1.3-1,2.1v10.2c0,2.8-1.3,5.4-3.8,7.9
		c-2.5,2.5-5.2,3.8-7.9,3.8h-13.2c-2.8,0-5.5-1.3-8.3-4c-2.8-2.6-4.1-5.4-4.1-8.1v-12.1c0-2.7,1.5-5.2,4.4-7.4
		c2.8-2.1,5.6-3.1,8.4-3.1h10.6c3,0,5.4,1.3,7.2,3.8c0.7-1,1.7-1.9,3-2.7c1.3-0.8,2.6-1.1,3.8-1.1h12.1c2.3,0,4.4,0.9,6.2,2.6
		c1.9,1.7,2.8,3.8,2.8,6v13.6c0,1.8-0.7,3.4-2.2,4.6c-0.8,0.7-2.3,1.6-4.6,2.6c2.6,1.1,4.2,1.8,4.7,2.1c1.4,1,2.1,2.4,2.1,4.3V349.2
		z M276.2,314.9v-7.5c0-1-0.4-1.9-1.3-2.6c-0.9-0.8-1.8-1.2-2.9-1.2c-1.1,0-2.1,0.4-3.1,1.1c-0.9,0.7-1.4,1.6-1.4,2.7v7.5
		c0,0.9,0.5,1.8,1.4,2.6c0.9,0.8,1.8,1.2,2.7,1.2c1.1,0,2.1-0.4,3.1-1.1C275.7,316.8,276.2,315.9,276.2,314.9z"/>
	<path d="M363.3,348.9c0,2.9-1.6,5.7-4.7,8.4c-3,2.6-6,3.8-9,3.8h-13.7c-2.8,0-5.6-1.3-8.4-4s-4.2-5.4-4.2-8.2v-15.5h14.1v12.9
		c0,1.3,0.7,2.4,2,3.4c1.3,0.9,2.6,1.4,3.9,1.4c1.2,0,2.4-0.5,3.7-1.5c1.2-1,1.9-2.1,1.9-3.3v-24.4c0-1.7-1-3.3-3-5.1
		c-1.4-1.1-3.4-2.9-6.1-5.2c-2.7-2.4-4.8-5.2-6.4-8.6v-8.9h14c0,3.8,1,7,2.9,9.4c0.9,1.1,3.5,3.4,7.6,6.6c3.6,2.9,5.4,5.3,5.4,7.3
		V348.9z"/>
	<path d="M441.4,361.1h-14.7v-54.4c0-2.5-1.6-3.7-4.9-3.7c-1.2,0-2.2,0.3-3.1,1c-1,0.7-1.4,1.6-1.4,2.8v41.9c0,2.7-1.5,5.5-4.6,8.3
		c-3,2.8-5.9,4.2-8.7,4.2h-15.8c-2.8,0-5.7-1.4-8.7-4.2s-4.5-5.5-4.5-8.3v-43.4c0-2.7,1.5-5.5,4.6-8.4c3-2.7,5.9-4.1,8.7-4.1h12.5
		c3,0.4,6,1.9,9.2,4.5c1.4-1.1,2.8-2.1,4.2-3.2c1.6-0.9,3-1.3,4.3-1.3h12.1c2.5,0,5,1.1,7.4,3.2c2.4,2.2,3.6,4.5,3.6,7V361.1z
		 M402.1,345.6v-37.8c0-1.2-0.7-2.3-2.2-3.4c-1.3-1-2.6-1.5-3.9-1.5c-1.2,0-2.5,0.5-3.9,1.5c-1.4,1-2.1,2.1-2.1,3.3v37.8
		c0,1.4,0.7,2.6,2,3.7c1.3,1.1,2.6,1.6,4,1.6c1.3,0,2.7-0.6,4-1.7C401.5,348.1,402.1,346.9,402.1,345.6z"/>
	<path d="M512.5,361.4h-14.2v-54.3c0-2.5-1.5-3.7-4.5-3.7s-4.5,1.2-4.5,3.7v21.3h-13.1v-21.3c0-2.5-1.5-3.7-4.5-3.7
		c-2.7,0-4.1,1.2-4.1,3.7v54.3h-14.2v-57.6c0-2.4,1.1-4.7,3.2-6.9s4.4-3.2,6.9-3.2h13.1c1.4,0,2.7,0.5,3.8,1.6
		c0.5,0.4,1.4,1.5,2.7,3.3c2.5-3.2,4.7-4.9,6.5-4.9h12.7c2.4,0,4.7,1.1,6.9,3.2c2.1,2.1,3.2,4.4,3.2,6.9V361.4z"/>
	<path d="M604.3,344.9c0,3.8-1.6,7.6-4.7,11.2c-3.3,3.8-6.8,5.6-10.5,5.6h-20.2c-3.7,0-7.2-1.9-10.5-5.7c-3.2-3.7-4.8-7.4-4.8-11.1
		v-22.5h14.9v20.2c0,2.9,1.1,5.1,3.3,6.7c2,1.4,4.4,2.1,7.4,2.1c2.9,0,5.3-0.7,7.2-2.2c2.1-1.6,3.1-3.8,3.1-6.6v-16.8
		c0-1.8-1.3-3.5-4-5c-0.5,1.4-0.7,2.9-0.7,4.6c0,1.1,0.1,2.6,0.2,4.8c0.2,2.1,0.2,3.7,0.2,4.8h-13v-11.8c0-1.2,0.9-2.9,2.8-5.3
		c-2.5-1-5-1.9-7.5-2.9c-2-1.4-3-3.1-3-5.1v-8c0-2.2,1-4.2,2.9-6c2-1.8,4-2.8,6.2-2.8h10.3c6.1,0,9.2,4.2,9.2,12.6
		c0,3-0.2,4.9-0.5,5.5c-0.9,1-2,2.2-3.2,3.7c3.4,1.3,5.5,2.1,6.3,2.5c2.2,1,4.1,2.3,5.6,3.7c1.9,1.8,2.8,4.2,2.8,7.2V344.9z
		 M582.3,307c0-1-0.3-1.9-1-2.7c-0.6-0.8-1.5-1.2-2.5-1.2c-1,0-1.8,0.4-2.5,1.2c-0.7,0.8-1,1.7-1,2.7s0.3,1.9,1,2.7
		c0.7,0.8,1.5,1.2,2.5,1.2s1.8-0.4,2.5-1.2C582,308.9,582.3,308,582.3,307z"/>
	<path d="M656,348.8c0,2.7-1.4,5.3-4.2,8s-5.5,4-8.2,4h-16.9c-2.6,0-5.1-1.3-7.7-3.9c-2.6-2.6-3.9-5.2-3.9-7.7v-14.8h14.6v11.3
		c0,1.6,0.6,2.9,1.9,3.9c1.1,0.9,2.5,1.4,4.2,1.4c1.6,0,2.9-0.5,4-1.5s1.6-2.3,1.6-3.8v-13.9c0-3.5-2-5.3-6-5.3v-9.4
		c4,0,6-2.4,6-7.1c0-5-2-7.5-6-7.5c-2.6,0-4.2,1.1-5,3.4c-0.5,1.2-0.7,3.5-0.7,6.7H615v-8.2c3.7-7.8,8.2-11.7,13.5-11.7h15.4
		c2.8,0,5.5,1.3,8.1,3.9c2.6,2.6,3.9,5.3,3.9,8.1v7.9c0,2.8-2.5,5.6-7.5,8.3c2.6,1,4.3,1.7,5.1,2.3c1.7,1.1,2.5,2.6,2.5,4.5V348.8z"
		/>
	<path d="M707.9,361.3h-14.6v-52.2c0-1.6-0.6-2.9-1.8-4s-2.6-1.6-4.2-1.6c-1.4,0-2.7,0.6-3.9,1.8c-1.2,1.2-1.8,2.5-1.8,3.8v52.2
		h-14.6v-54.4c0-2.8,1.4-5.6,4.2-8.5c2.8-2.9,5.5-4.3,8.3-4.3h16.1c2.9,0,5.7,1.4,8.4,4.2c2.7,2.8,4,5.7,4,8.6V361.3z"/>
	<path d="M780.7,360.7h-13.9v-24.5c0-1.2-0.5-2.3-1.4-3.2c-0.9-0.9-2-1.3-3.2-1.3c-1.2,0-2.2,0.5-3.1,1.4c-0.9,0.9-1.4,1.9-1.4,3.1
		v9.4h-13.6v-9.4c0-1.3-0.4-2.3-1.3-3.2c-0.9-0.9-1.9-1.3-3.2-1.3c-1.1,0-2,0.5-2.9,1.4c-0.9,1-1.3,2-1.3,3v24.5h-14.3v-29.4
		c0-4.4,3.1-8.8,9.3-13c3.9-2.4,9.6-6.2,17.2-11.3c6.2-4.3,9.3-8.9,9.3-13.7h14.3v6.8c-1.7,3.6-4.4,6.9-8.4,9.8
		c-2.5,1.8-6.2,4-11.3,6.5s-8.3,4.2-9.7,5.2c2.5,0.3,4.1,0.7,4.9,1c1.1,0.5,2.5,1.5,4.1,3.2c3.1-2.5,5.6-3.7,7.5-3.7h9.8
		c2.8,0,5.6,1.4,8.3,4.1s4.1,5.5,4.1,8.3V360.7z"/>
	<path d="M858.3,361.1h-14.7v-54.4c0-2.5-1.6-3.7-4.9-3.7c-1.2,0-2.2,0.3-3.1,1c-1,0.7-1.4,1.6-1.4,2.8v41.9c0,2.7-1.5,5.5-4.6,8.3
		c-3,2.8-5.9,4.2-8.7,4.2h-15.8c-2.8,0-5.7-1.4-8.7-4.2s-4.5-5.5-4.5-8.3v-43.4c0-2.7,1.5-5.5,4.6-8.4c3-2.7,5.9-4.1,8.7-4.1h12.5
		c3,0.4,6,1.9,9.2,4.5c1.4-1.1,2.8-2.1,4.2-3.2c1.6-0.9,3-1.3,4.3-1.3h12.1c2.5,0,5,1.1,7.4,3.2c2.4,2.2,3.6,4.5,3.6,7V361.1z
		 M819,345.6v-37.8c0-1.2-0.7-2.3-2.2-3.4c-1.3-1-2.6-1.5-3.9-1.5c-1.2,0-2.5,0.5-3.9,1.5c-1.4,1-2.1,2.1-2.1,3.3v37.8
		c0,1.4,0.7,2.6,2,3.7c1.3,1.1,2.6,1.6,4,1.6c1.3,0,2.7-0.6,4-1.7C818.3,348.1,819,346.9,819,345.6z"/>
	<path d="M912.4,361.3h-14.6v-52.2c0-1.6-0.6-2.9-1.8-4s-2.6-1.6-4.2-1.6c-1.4,0-2.7,0.6-3.9,1.8c-1.2,1.2-1.8,2.5-1.8,3.8v52.2
		h-14.6v-54.4c0-2.8,1.4-5.6,4.2-8.5c2.8-2.9,5.5-4.3,8.3-4.3H900c2.9,0,5.7,1.4,8.4,4.2c2.7,2.8,4,5.7,4,8.6V361.3z"/>
	<path d="M213.8,491.2c0,2-1,4-3,6c-2,2-4,3-6,3h-11.2c-2,0-4-1-6-3c-2-2-3-4-3-6v-10.4H195v8.7c0,1.1,0.5,2,1.4,2.7
		c0.9,0.7,1.9,1.1,3,1.1c1,0,2-0.4,2.8-1.2s1.3-1.7,1.3-2.7v-12.5c0-1.9-1.5-3.4-4.4-4.4v-6.8c2.9,0,4.4-1.1,4.4-3.3v-11.7h10.4
		v11.4c0,1.7-0.5,3-1.6,4.1c-0.6,0.6-1.9,1.4-3.8,2.4c3.6,1.4,5.5,3.4,5.5,6V491.2z"/>
	<path d="M277.2,472.5H267V460c0-1.5-0.8-2.2-2.5-2.2c-0.5,0-1,0.2-1.5,0.7c-0.5,0.5-0.7,1-0.7,1.5v8.9h-9.4V460
		c0-1.5-0.8-2.2-2.5-2.2c-1.7,0-2.5,0.7-2.5,2.2v8.9h-9.4V460c0-1.5-0.8-2.2-2.5-2.2c-0.7,0-1.2,0.2-1.8,0.6
		c-0.5,0.4-0.8,0.9-0.8,1.6v13c0,4.4,3.9,7.1,11.6,8.2c3.7,0.4,7.5,0.9,11.2,1.3c4.4,0.6,8,1.7,10.7,3.1c2.5,1.3,4.2,2.6,5.1,3.9
		c0.5,0.7,1.4,2.7,2.7,5.9v5.3h-10.3c0-5.5-3.7-9.1-11-10.8c-3.2-0.7-6.7-1.1-10.6-1.1h-19.4v-6.4h6.4c-1.9-0.9-3.7-2.2-5.1-4
		c-1.6-2-2.4-4-2.4-6v-12.7c0-2,0.9-4,2.8-6.1c1.9-2.1,3.8-3.1,5.8-3.1h6.1c1.8,0,3.8,1,5.8,3.1c1.3-1.3,2.4-2.2,3.5-2.6
		c0.9-0.3,2.3-0.5,4.3-0.5s3.4,0.2,4.4,0.5c0.9,0.4,2,1.2,3.4,2.5c1.4-1.4,2.7-2.3,3.8-2.7c0.9-0.3,2.5-0.4,4.7-0.4
		c2.7,0,5,0.6,6.9,1.8c2.2,1.4,3.3,3.4,3.3,6V472.5z"/>
	<path d="M314.5,491.3c0,2.1-1.1,4.2-3.4,6.2c-2.2,1.9-4.4,2.8-6.6,2.8h-10c-2.1,0-4.1-1-6.2-2.9c-2.1-2-3.1-4-3.1-6v-11.4h10.3v9.5
		c0,0.9,0.5,1.8,1.5,2.5c0.9,0.7,1.9,1,2.8,1c0.9,0,1.8-0.4,2.7-1.1c0.9-0.8,1.4-1.6,1.4-2.4v-17.9c0-1.2-0.7-2.4-2.2-3.7
		c-1-0.8-2.5-2.1-4.5-3.8c-2-1.7-3.6-3.8-4.7-6.3v-6.5h10.3c0,2.8,0.7,5.1,2.1,6.9c0.7,0.8,2.5,2.5,5.6,4.9c2.6,2.1,4,3.9,4,5.4
		V491.3z"/>
	<path d="M353.5,493c0,1.5-1,3.1-3.1,4.8c-2,1.6-3.8,2.4-5.4,2.4h-12.4c-2,0-3.9-1-5.9-3.1c-1.9-2-2.9-4.1-2.9-6v-40.6h10.7v39.2
		c0,2.4,1.5,3.6,4.4,3.6c1.1,0,2-0.3,2.9-1c0.8-0.7,1.3-1.5,1.3-2.6v-17.9h10.5V493z"/>
	<path d="M393.6,500.4h-10.7v-38.3c0-1.2-0.4-2.1-1.3-2.9c-0.9-0.8-1.9-1.2-3.1-1.2c-1,0-2,0.4-2.8,1.3s-1.3,1.8-1.3,2.8v38.3h-10.7
		v-39.9c0-2,1-4.1,3-6.2c2-2.1,4-3.2,6.1-3.2h11.8c2.1,0,4.2,1,6.1,3.1c2,2.1,3,4.2,3,6.3V500.4z"/>
	<path d="M475.1,486.2h-8.7v14.4h-14.4v-14.4h-27.5v-7.5l32.5-46.4h9.4v43h8.7V486.2z M451.8,474.5v-17l-11.7,16.2l0,0.8H451.8z"/>
	<path d="M498.9,496.3c0,2.2-0.8,4.3-2.3,6.2c0,0-1.6,1.7-4.8,5h-7.1l6.3-6.7l-4.4-0.9c-1.5-0.7-2.3-2.2-2.3-4.7
		c0-2.2,0.7-3.6,2.2-4.4c1-0.5,2.8-0.8,5.2-0.8c2.5,0,4.3,0.4,5.4,1.3C498.3,492.2,498.9,493.9,498.9,496.3z"/>
	<path d="M571.9,487.8c0,3.5-1.5,6.5-4.4,8.9c-2.8,2.3-5.9,3.5-9.5,3.5h-12.4c-3.9,0-7.3-1.2-10.2-3.6c-3-2.5-4.6-5.7-4.6-9.5v-9.4
		h14.7c0,0.4,0,0.9,0,1.6c0,0.7,0,1.2,0,1.6c0,3.1,0.3,5.3,0.8,6.6c0.8,2,2.6,3,5.3,3c1.4,0,2.7-0.5,3.9-1.6
		c1.2-1.1,1.8-2.3,1.8-3.6v-8.3c0-2.9-2-4.8-6-5.6v-10.1c4,0,6-1.7,6-5.2v-8.7c0-1.5-0.6-2.7-1.9-3.7s-2.7-1.5-4.1-1.5
		c-2.6,0-4.3,1.2-5.1,3.7c-0.3,1.1-0.5,3.5-0.5,7.1h-14.7v-8.2c0.2-0.8,0.6-1.9,1-3.4c0.9-2.4,2.4-4.5,4.4-6.4
		c1.9-1.8,4.5-2.7,7.8-2.7h14.7c4.2,0,7.7,1.7,10.7,5.1c1.7,1.9,2.5,4.5,2.5,7.7v12c0,1.7-0.8,3.2-2.3,4.5c-0.5,0.4-2,1.3-4.6,2.7
		c2.9,1.6,4.5,2.5,4.8,2.8c1.4,1.1,2,2.7,2,4.7V487.8z"/>
	<path d="M596.6,496.3c0,2.2-0.8,4.3-2.3,6.2c0,0-1.6,1.7-4.8,5h-7.1l6.3-6.7l-4.4-0.9c-1.5-0.7-2.3-2.2-2.3-4.7
		c0-2.2,0.7-3.6,2.2-4.4c1-0.5,2.8-0.8,5.2-0.8c2.5,0,4.3,0.4,5.4,1.3C596.1,492.2,596.6,493.9,596.6,496.3z"/>
	<path d="M670.7,489.8c0,2.8-1.5,5.3-4.5,7.7c-2.8,2.3-5.7,3.4-8.5,3.4h-14.2c-3.2,0-6.3-1.3-9.4-3.9c-3.2-2.7-4.8-5.6-4.8-8.8V445
		c0-3.1,1.5-6,4.6-8.7c3-2.6,6-4,9.2-4h13.1c6.6,0,11.4,3.7,14.5,11.1v8.8h-14.5c0-3.2-0.3-5.5-0.8-6.8c-0.9-2.1-2.7-3.2-5.4-3.2
		c-4.1,0-6.1,1.9-6.1,5.7v14.2h17.7c2.4,0,4.5,0.9,6.4,2.8s2.8,4,2.8,6.4V489.8z M655.7,486v-8.8c0-1.4-0.6-2.6-1.9-3.6
		c-1.2-0.9-2.5-1.4-3.9-1.4c-1.4,0-2.7,0.5-3.9,1.4c-1.2,1-1.8,2.1-1.8,3.6v8.8c0,1.4,0.6,2.5,1.9,3.6c1.2,0.9,2.5,1.4,3.8,1.4
		c1.4,0,2.7-0.5,3.9-1.5C655.1,488.5,655.7,487.3,655.7,486z"/>
	<path d="M695.3,496.3c0,2.2-0.8,4.3-2.3,6.2c0,0-1.6,1.7-4.8,5h-7.1l6.3-6.7l-4.4-0.9c-1.5-0.7-2.3-2.2-2.3-4.7
		c0-2.2,0.7-3.6,2.2-4.4c1-0.5,2.8-0.8,5.2-0.8c2.5,0,4.3,0.4,5.4,1.3C694.8,492.2,695.3,493.9,695.3,496.3z"/>
	<path d="M770.1,441.2L742,499.9h-14l27.4-57.9h-27.9v-10.3h42.7V441.2z"/>
</g>
</svg>
