<?xml version="1.0" encoding="utf-8"?>
<!-- Generator: Adobe Illustrator 18.0.0, SVG Export Plug-In . SVG Version: 6.00 Build 0)  -->
<!DOCTYPE svg PUBLIC "-//W3C//DTD SVG 1.1//EN" "http://www.w3.org/Graphics/SVG/1.1/DTD/svg11.dtd">
<svg version="1.1"
	 id="svg2" inkscape:version="0.48.4 r9939" sodipodi:docname="6.2014_02_16_18_28_07.2.svg" xmlns:sodipodi="http://sodipodi.sourceforge.net/DTD/sodipodi-0.dtd" xmlns:dc="http://purl.org/dc/elements/1.1/" xmlns:cc="http://creativecommons.org/ns#" xmlns:inkscape="http://www.inkscape.org/namespaces/inkscape" xmlns:svg="http://www.w3.org/2000/svg" xmlns:rdf="http://www.w3.org/1999/02/22-rdf-syntax-ns#"
	 xmlns="http://www.w3.org/2000/svg" xmlns:xlink="http://www.w3.org/1999/xlink" x="0px" y="0px"
	 viewBox="-286.1 164.8 2483.5 812.6" enable-background="new -286.1 164.8 2483.5 812.6" xml:space="preserve">
<g>
	<path d="M-40.8,557.7c0-6.6,3.8-11,9.9-13.7v-0.2c-5.5-2.7-8-7-8-11.6c0-8.6,7.6-14.4,17.6-14.4c11.3,0,16.5,6.8,16.5,13.3
		c0,4.4-2.3,9.1-8.1,11.9v0.2c5.7,2.2,10,6.7,10,13.3c0,9.4-7.9,15.7-19.2,15.7C-34.4,572.1-40.8,565.1-40.8,557.7z M-13,557.2
		c0-5.3-4-8.3-9.8-9.9c-4.9,1.5-7.8,4.9-7.8,9.2c-0.2,4.4,3.2,8.5,8.8,8.5C-16.5,565.1-13,561.8-13,557.2z M-29.4,531.8
		c0,4.3,3.6,6.9,8.6,8.2c3.6-1.1,6.6-4,6.6-7.9c0-3.6-2.2-7.4-7.5-7.4C-26.8,524.6-29.4,528-29.4,531.8z"/>
	<path d="M4,565.7c0-3.7,2.6-6.4,6.1-6.4c3.6,0,6.1,2.6,6.1,6.4c0,3.6-2.4,6.4-6.1,6.4C6.5,572.1,4,569.4,4,565.7z"/>
	<path d="M22.4,571.2v-6.1l6.2-5.7c12.4-11.5,18.2-17.8,18.3-24.8c0-4.7-2.5-8.8-9.4-8.8c-4.6,0-8.6,2.3-11.2,4.4l-2.9-7
		c3.8-3.1,9.5-5.4,16.2-5.4c11.6,0,17.3,7.4,17.3,15.9c0,9.2-6.6,16.7-15.8,25.2l-4.6,4v0.2h21.6v8.2H22.4z"/>
	<path d="M66.4,565.7c0-3.7,2.6-6.4,6.1-6.4c3.6,0,6.1,2.6,6.1,6.4c0,3.6-2.4,6.4-6.1,6.4C68.9,572.1,66.4,569.4,66.4,565.7z"/>
	<path d="M100.5,527.6h-0.2l-9.6,4.9L89,525l12.8-6.3h8.3v52.6h-9.6V527.6z"/>
	<path d="M128.9,565.7c0-3.7,2.6-6.4,6.1-6.4c3.6,0,6.1,2.6,6.1,6.4c0,3.6-2.4,6.4-6.1,6.4C131.4,572.1,128.9,569.4,128.9,565.7z"/>
</g>
<g>
	<path fill="#FFFFFF" stroke="#000000" stroke-width="5.6346" stroke-miterlimit="10" d="M369.3,446.7H-269
		c-7.9,0-14.3-6.5-14.3-14.3V183.1c0-7.9,6.5-14.3,14.3-14.3h638.2c7.9,0,14.3,6.5,14.3,14.3v249.3
		C383.6,440.3,377.1,446.7,369.3,446.7z"/>
	<g>
		<path d="M-67.2,367.1h-25v-81.8c-2.8,0.4-7,2.1-12.5,5.4h-1.9v-20.4c9.8-3.9,16.5-11.3,20.4-22.4h19V367.1z"/>
		<path d="M11,345.1c0,5.3-2.5,10.2-7.3,14.5c-4.8,4.4-9.9,6.6-15.2,6.6h-26.3c-5.2,0-10.2-2.2-15.1-6.7c-5-4.5-7.3-9.3-7.3-14.4
			v-75.9c0-5,2.5-9.8,7.4-14.3c5-4.6,10-6.9,15-6.9h26.3c5.2,0,10.2,2.2,15.1,6.6c5,4.6,7.4,9.5,7.4,14.5L11,345.1L11,345.1z
			 M-14.8,338.6v-62.7c0-2.5-1.1-4.6-3.1-6.5c-2-1.9-4.3-2.7-6.9-2.7c-2.5,0-4.7,0.9-6.9,2.7c-2.1,1.9-3.1,4-3.1,6.5v62.7
			c0,2.5,1.1,4.7,3.1,6.5c2,1.9,4.4,2.7,6.9,2.7s4.7-0.9,6.7-2.8C-15.8,343.2-14.8,340.9-14.8,338.6z"/>
		<path d="M89.1,345.1c0,5.3-2.5,10.2-7.3,14.5c-4.8,4.4-9.9,6.6-15.2,6.6H40.2c-5.2,0-10.2-2.2-15.1-6.7c-5-4.5-7.3-9.3-7.3-14.4
			v-75.9c0-5,2.5-9.8,7.4-14.3c5-4.6,10-6.9,15-6.9h26.3c5.2,0,10.2,2.2,15.1,6.6c5,4.6,7.4,9.5,7.4,14.5L89.1,345.1L89.1,345.1z
			 M63.4,338.6v-62.7c0-2.5-1.1-4.6-3.1-6.5c-2-1.9-4.3-2.7-6.9-2.7c-2.5,0-4.7,0.9-6.9,2.7c-2.1,1.9-3.1,4-3.1,6.5v62.7
			c0,2.5,1.1,4.7,3.1,6.5c2,1.9,4.4,2.7,6.9,2.7c2.5,0,4.7-0.9,6.7-2.8C62.3,343.2,63.4,340.9,63.4,338.6z"/>
		<path d="M209.3,346.6c0,4.8-2.5,9.7-7.3,14.4c-4.8,4.7-9.8,7.1-14.7,7.1h-29.1c-4.8,0-9.7-2.4-14.7-7.1c-5-4.7-7.3-9.5-7.3-14.3
			v-24c0-4.8,2.5-9.6,7.3-14.3c4.8-4.7,9.8-7.1,14.7-7.1H184v-23.4c0-3.1-1.3-5.7-3.9-7.7c-2.4-1.8-5.2-2.7-8.4-2.7
			c-7.8,0-11.7,5-11.7,14.8v1.4c0,0.5,0,0.9,0.1,1.3h-24.6v-14.9c5.4-13.4,12.5-20.1,21.4-20.1h31.5c4.7,0,9.3,2.2,13.8,6.9
			c4.6,4.6,6.9,9.2,6.9,13.9v75.7H209.3z M183.4,342v-15.6c0-2.6-1.2-4.7-3.7-6.4c-2.1-1.4-4.6-2.1-7.3-2.1c-2.7,0-5.1,0.7-7.2,2.1
			c-2.5,1.7-3.7,3.8-3.7,6.4V342c0,2.5,1.1,4.5,3.3,6.1c2.1,1.5,4.4,2.2,7,2.2c3,0,5.4-0.7,7.7-2C182.1,346.9,183.4,344.8,183.4,342
			z"/>
	</g>
	<polygon points="240,301.9 296.8,203.5 353.6,301.9 317.8,301.9 317.8,400.2 275.8,400.2 275.8,301.9 	"/>
	<polygon points="-251.9,301.9 -195.2,203.5 -138.5,301.9 -174.2,301.9 -174.2,400.2 -216.3,400.2 -216.3,301.9 	"/>
</g>
<g>
	<path fill="#FFFFFF" stroke="#000000" stroke-width="8" stroke-miterlimit="10" d="M489.2,709.2V180.6c0-6.6,5.4-11.8,11.8-11.8
		h206.5c6.6,0,11.8,5.4,11.8,11.8v528.6c0,6.6-5.4,11.8-11.8,11.8H501C494.6,720.9,489.2,715.7,489.2,709.2z"/>
	<g>
		<path d="M585.7,503.8h-22.5v-73.4c-2.5,0.3-6.3,1.9-11.3,4.8h-1.7v-18.4c8.8-3.4,14.9-10.2,18.3-20.2h17.1V503.8z"/>
		<path d="M655.8,484c0,4.7-2.2,9.1-6.6,13c-4.3,4-8.9,6-13.7,6h-23.7c-4.6,0-9.2-2.1-13.6-6.1c-4.4-4-6.7-8.3-6.7-12.9v-68.1
			c0-4.5,2.3-8.8,6.7-12.9c4.5-4.1,9-6.2,13.5-6.2h23.9c4.6,0,9.1,2,13.5,6c4.4,4.1,6.7,8.5,6.7,13L655.8,484L655.8,484z
			 M632.6,478.1v-56.4c0-2.2-0.9-4.1-2.7-5.8c-1.9-1.7-3.8-2.4-6.1-2.4c-2.2,0-4.2,0.8-6.1,2.4s-2.8,3.6-2.8,5.8v56.4
			c0,2.3,0.9,4.2,2.7,5.9c1.9,1.7,3.9,2.4,6.2,2.4c2.2,0,4.2-0.9,6.1-2.5C631.8,482.3,632.6,480.3,632.6,478.1z"/>
		<path d="M636.5,657.8c0,4.4-2.2,8.7-6.6,12.9c-4.4,4.2-8.8,6.4-13.1,6.4h-26.1c-4.3,0-8.7-2.2-13.1-6.4c-4.4-4.2-6.7-8.5-6.7-12.9
			v-21.5c0-4.3,2.2-8.6,6.6-12.8c4.4-4.2,8.8-6.4,13.2-6.4h23.1v-20.9c0-2.7-1.2-5.1-3.5-6.8c-2.2-1.7-4.6-2.4-7.4-2.4
			c-6.9,0-10.5,4.4-10.5,13.3v1.3c0,0.4,0,0.8,0.1,1.2h-22.1v-13.4c4.9-12,11.3-18,19.2-18H618c4.2,0,8.3,2.1,12.4,6.2
			s6.2,8.3,6.2,12.5L636.5,657.8L636.5,657.8z M613.3,653.7v-14c0-2.3-1.1-4.3-3.3-5.7c-2-1.3-4.1-1.9-6.6-1.9
			c-2.4,0-4.6,0.6-6.5,1.9c-2.2,1.5-3.3,3.4-3.3,5.7v14c0,2.2,1,4,3,5.6c1.9,1.4,3.9,2.1,6.3,2.1c2.6,0,4.9-0.6,6.9-1.8
			C612.1,658.1,613.3,656.2,613.3,653.7z"/>
	</g>
	<polygon points="557.3,271.7 604.3,190.2 651.2,271.7 621.7,271.7 621.7,353.1 586.8,353.1 586.8,271.7 	"/>
</g>
<g>
	<path fill="#FFFFFF" stroke="#000000" stroke-width="8" stroke-miterlimit="10" d="M834.5,709.2V180.6c0-6.6,5.4-11.8,11.8-11.8
		h206.5c6.6,0,11.8,5.4,11.8,11.8v528.6c0,6.6-5.4,11.8-11.8,11.8H846.3C839.9,720.9,834.5,715.7,834.5,709.2z"/>
	<polygon points="1039.5,547.6 949.5,703.4 859.6,547.6 916.3,547.6 916.3,168.8 982.8,168.8 982.8,547.6 	"/>
</g>
<g>
	<path fill="#FFFFFF" stroke="#000000" stroke-width="8" stroke-miterlimit="10" d="M1173.5,709.2V180.6c0-6.6,5.4-11.8,11.8-11.8
		h206.5c6.6,0,11.8,5.4,11.8,11.8v528.6c0,6.6-5.4,11.8-11.8,11.8h-206.5C1178.9,720.9,1173.5,715.7,1173.5,709.2z"/>
	<polygon points="1198.7,341.3 1288.6,185.3 1378.5,341.3 1321.8,341.3 1321.8,497 1255.3,497 1255.3,341.3 	"/>
	<polygon points="1378.5,547.6 1288.6,703.4 1198.7,547.6 1255.3,547.6 1255.3,391.8 1321.8,391.8 1321.8,547.6 	"/>
</g>
<g>
	<path fill="#FFFFFF" stroke="#000000" stroke-width="5.6002" stroke-miterlimit="10" d="M2180.4,445h-634.3
		c-7.9,0-14.2-6.5-14.2-14.2V183c0-7.9,6.5-14.2,14.2-14.2h634.3c7.9,0,14.2,6.5,14.2,14.2v247.8
		C2194.6,438.6,2188.2,445,2180.4,445z"/>
	<g>
		<path d="M1665.6,370.7h-27v-88.1c-3.1,0.4-7.5,2.2-13.5,5.8h-2v-22.1c10.6-4.1,17.8-12.2,22-24.2h20.5V370.7L1665.6,370.7z"/>
		<path d="M1749.8,346.9c0,5.6-2.6,10.9-7.9,15.6c-5.2,4.8-10.7,7.2-16.4,7.2h-28.4c-5.5,0-11-2.5-16.3-7.3c-5.3-4.8-8-10-8-15.5
			v-81.7c0-5.4,2.7-10.6,8-15.5c5.4-4.9,10.8-7.4,16.2-7.4h28.4c5.5,0,10.9,2.3,16.2,7.2c5.3,4.9,8,10.2,8,15.6v81.8H1749.8z
			 M1722.1,339.9v-67.6c0-2.6-1.1-4.9-3.3-6.9s-4.6-2.9-7.3-2.9c-2.6,0-5,0.9-7.3,2.9s-3.4,4.3-3.4,6.9v67.6c0,2.7,1.1,5,3.3,7
			s4.7,2.9,7.4,2.9c2.6,0,5-1.1,7.3-3.1C1721,344.8,1722.1,342.6,1722.1,339.9z"/>
		<path d="M1879.2,348.6c0,5.3-2.6,10.5-7.9,15.5c-5.3,5-10.6,7.6-15.7,7.6h-31.4c-5.2,0-10.5-2.6-15.7-7.6c-5.3-5-8-10.2-8-15.5
			v-25.8c0-5.2,2.6-10.3,7.9-15.4s10.6-7.6,15.9-7.6h27.7v-25.1c0-3.3-1.4-6.1-4.2-8.2c-2.6-2-5.5-2.9-8.9-2.9
			c-8.3,0-12.6,5.3-12.6,16v1.5c0,0.5,0,0.9,0.1,1.4h-26.5v-16.1c5.9-14.4,13.5-21.6,23-21.6h34.2c5,0,10,2.5,14.9,7.4
			s7.4,10,7.4,15v81.5H1879.2z M1851.4,343.6v-16.8c0-2.8-1.3-5.2-4-6.8c-2.3-1.5-4.9-2.2-7.9-2.2s-5.5,0.7-7.8,2.2
			c-2.6,1.8-4,4.1-4,6.8v16.8c0,2.6,1.2,4.8,3.6,6.7c2.2,1.6,4.7,2.5,7.5,2.5c3.2,0,5.9-0.7,8.3-2.1
			C1850,349,1851.4,346.7,1851.4,343.6z"/>
	</g>
	<polygon points="2061.4,250.5 2159.2,307 2061.4,363.3 2061.4,327.8 1963.7,327.8 1963.7,286.1 2061.4,286.1 	"/>
</g>
<g>
	<path fill="#FFFFFF" stroke="#000000" stroke-width="5.6002" stroke-miterlimit="10" d="M2180.4,855.2h-634.3
		c-7.9,0-14.2-6.5-14.2-14.2V593.2c0-7.9,6.5-14.2,14.2-14.2h634.3c7.9,0,14.2,6.5,14.2,14.2V841
		C2194.6,848.9,2188.2,855.2,2180.4,855.2z"/>
	<g>
		<path d="M1903.2,757c0,6.5-2.7,12.1-8.2,16.6c-5.2,4.3-11,6.5-17.7,6.5H1854c-7.3,0-13.5-2.2-18.9-6.7c-5.6-4.7-8.5-10.7-8.5-17.7
			v-17.5h27.4c0,0.7,0,1.6,0,2.9c0,1.3-0.1,2.2-0.1,2.9c0,5.9,0.5,10,1.4,12.2c1.5,3.8,4.8,5.6,9.9,5.6c2.6,0,4.9-0.9,7.2-2.9
			c2.2-2,3.3-4.2,3.3-6.8v-15.4c0-5.4-3.8-8.9-11.3-10.6v-18.9c7.5,0,11.3-3.3,11.3-9.7v-16.2c0-2.7-1.2-5-3.5-6.9
			c-2.3-1.9-4.9-2.8-7.8-2.8c-4.9,0-8.1,2.3-9.5,6.9c-0.6,2.1-0.9,6.6-0.9,13.3h-27.5v-15.4c0.4-1.4,1.1-3.5,1.9-6.3
			c1.6-4.5,4.5-8.3,8.2-11.9c3.6-3.3,8.5-4.9,14.4-4.9h27.5c7.8,0,14.4,3.2,20,9.5c3.1,3.5,4.6,8.3,4.6,14.3v22.4
			c0,3.3-1.4,6-4.2,8.3c-0.9,0.7-3.8,2.5-8.5,5c5.4,3.1,8.5,4.7,8.9,5.2c2.6,2.1,3.8,5,3.8,8.8V757H1903.2z"/>
		<path d="M1987,757.1c0,5.6-2.6,10.9-7.9,15.6c-5.2,4.8-10.7,7.2-16.4,7.2h-28.4c-5.5,0-11-2.5-16.3-7.3s-8-10-8-15.5v-81.7
			c0-5.4,2.7-10.6,8-15.5c5.4-4.9,10.8-7.4,16.2-7.4h28.4c5.5,0,10.9,2.3,16.2,7.2c5.3,4.9,8,10.2,8,15.6v81.8H1987z M1959.2,750.1
			v-67.6c0-2.6-1.1-4.9-3.3-6.9c-2.2-2-4.6-2.9-7.3-2.9c-2.6,0-5,0.9-7.3,2.9c-2.2,2-3.4,4.3-3.4,6.9v67.6c0,2.7,1.1,5,3.3,7
			c2.2,2,4.7,2.9,7.4,2.9c2.6,0,5-1.1,7.3-3.1C1958.2,755,1959.2,752.8,1959.2,750.1z"/>
		<path d="M2116.4,758.8c0,5.3-2.6,10.5-7.9,15.5s-10.6,7.6-15.7,7.6h-31.4c-5.2,0-10.5-2.6-15.7-7.6c-5.3-5-8-10.2-8-15.5V733
			c0-5.2,2.6-10.3,7.9-15.4c5.3-5,10.6-7.6,15.9-7.6h27.7v-25.1c0-3.3-1.4-6.1-4.2-8.2c-2.6-2-5.5-2.9-8.9-2.9
			c-8.3,0-12.6,5.3-12.6,16v1.5c0,0.5,0,0.9,0.1,1.4h-26.5v-16.1c5.9-14.4,13.5-21.6,23-21.6h34.2c5,0,10,2.5,14.9,7.4
			s7.4,10,7.4,15v81.5H2116.4z M2088.6,753.9v-16.8c0-2.8-1.3-5.2-4-6.8c-2.3-1.5-4.9-2.2-7.9-2.2c-2.9,0-5.5,0.7-7.8,2.2
			c-2.6,1.8-4,4.1-4,6.8v16.8c0,2.6,1.2,4.8,3.6,6.7c2.2,1.6,4.7,2.5,7.5,2.5c3.2,0,5.9-0.7,8.3-2.1
			C2087.2,759.3,2088.6,756.9,2088.6,753.9z"/>
	</g>
	<polygon points="1676.3,773.6 1578.5,717.2 1676.3,660.7 1676.3,696.3 1774,696.3 1774,738 1676.3,738 	"/>
</g>
<g>
	<path d="M529.4,807.8c0-6.6,3.8-11,9.9-13.7v-0.2c-5.5-2.7-8-7-8-11.6c0-8.6,7.6-14.4,17.6-14.4c11.3,0,16.5,6.8,16.5,13.3
		c0,4.4-2.3,9.1-8.1,11.9v0.2c5.7,2.2,10,6.7,10,13.3c0,9.4-7.9,15.7-19.2,15.7C535.7,822.2,529.4,815.1,529.4,807.8z M557.1,807.3
		c0-5.3-4-8.3-9.8-9.9c-4.9,1.5-7.8,4.9-7.8,9.2c-0.2,4.4,3.2,8.5,8.8,8.5C553.6,815.1,557.1,811.8,557.1,807.3z M540.7,781.8
		c0,4.3,3.6,6.9,8.6,8.2c3.6-1.1,6.6-4,6.6-7.9c0-3.6-2.2-7.4-7.5-7.4C543.3,774.7,540.7,778,540.7,781.8z"/>
	<path d="M574.1,815.8c0-3.7,2.6-6.4,6.1-6.4c3.6,0,6.1,2.6,6.1,6.4c0,3.6-2.4,6.4-6.1,6.4C576.6,822.2,574.1,819.4,574.1,815.8z"/>
	<path d="M592.5,821.3v-6.1l6.2-5.7c12.4-11.5,18.2-17.8,18.3-24.8c0-4.7-2.5-8.8-9.4-8.8c-4.6,0-8.6,2.3-11.2,4.4l-2.9-7
		c3.8-3.1,9.5-5.4,16.2-5.4c11.6,0,17.3,7.4,17.3,15.9c0,9.2-6.6,16.7-15.8,25.2l-4.6,4v0.2h21.6v8.2H592.5z"/>
	<path d="M636.5,815.8c0-3.7,2.6-6.4,6.1-6.4c3.6,0,6.1,2.6,6.1,6.4c0,3.6-2.4,6.4-6.1,6.4C639,822.2,636.5,819.4,636.5,815.8z"/>
	<path d="M655,821.3v-6.1l6.2-5.7c12.4-11.5,18.2-17.8,18.3-24.8c0-4.7-2.5-8.8-9.4-8.8c-4.6,0-8.6,2.3-11.2,4.4l-2.9-7
		c3.8-3.1,9.5-5.4,16.2-5.4c11.6,0,17.3,7.4,17.3,15.9c0,9.2-6.6,16.7-15.8,25.2l-4.6,4v0.2h21.6v8.2H655z"/>
	<path d="M699,815.8c0-3.7,2.6-6.4,6.1-6.4c3.6,0,6.1,2.6,6.1,6.4c0,3.6-2.4,6.4-6.1,6.4C701.5,822.2,699,819.4,699,815.8z"/>
</g>
<g>
	<path d="M874.5,807.8c0-6.6,3.8-11,9.9-13.7v-0.2c-5.5-2.7-8-7-8-11.6c0-8.6,7.6-14.4,17.6-14.4c11.3,0,16.5,6.8,16.5,13.3
		c0,4.4-2.3,9.1-8.1,11.9v0.2c5.7,2.2,10,6.7,10,13.3c0,9.4-7.9,15.7-19.2,15.7C880.9,822.2,874.5,815.1,874.5,807.8z M902.3,807.3
		c0-5.3-4-8.3-9.8-9.9c-4.9,1.5-7.8,4.9-7.8,9.2c-0.2,4.4,3.2,8.5,8.8,8.5C898.8,815.1,902.3,811.8,902.3,807.3z M885.9,781.8
		c0,4.3,3.6,6.9,8.6,8.2c3.6-1.1,6.6-4,6.6-7.9c0-3.6-2.2-7.4-7.5-7.4C888.4,774.7,885.9,778,885.9,781.8z"/>
	<path d="M919.3,815.8c0-3.7,2.6-6.4,6.1-6.4c3.6,0,6.1,2.6,6.1,6.4c0,3.6-2.4,6.4-6.1,6.4C921.8,822.2,919.3,819.4,919.3,815.8z"/>
	<path d="M937.7,821.3v-6.1l6.2-5.7c12.4-11.5,18.2-17.8,18.3-24.8c0-4.7-2.5-8.8-9.4-8.8c-4.6,0-8.6,2.3-11.2,4.4l-2.9-7
		c3.8-3.1,9.5-5.4,16.2-5.4c11.6,0,17.3,7.4,17.3,15.9c0,9.2-6.6,16.7-15.8,25.2l-4.6,4v0.2h21.6v8.2H937.7z"/>
	<path d="M981.7,815.8c0-3.7,2.6-6.4,6.1-6.4c3.6,0,6.1,2.6,6.1,6.4c0,3.6-2.4,6.4-6.1,6.4C984.2,822.2,981.7,819.4,981.7,815.8z"/>
	<path d="M1002.2,811c2,1.2,7,3.2,12,3.2c7.6,0,10.7-4.3,10.6-8.4c0-6.2-5.8-8.9-11.9-8.9h-4.6v-7.3h4.4c4.6,0,10.4-2.1,10.4-7.4
		c0-3.6-2.7-6.6-8.4-6.6c-4.3,0-8.6,1.9-10.8,3.3l-2.3-7.2c3-2.1,8.8-4,15.1-4c10.8,0,16.4,6,16.4,12.9c0,5.5-3.2,10-9.7,12.3v0.2
		c6.4,1.1,11.6,6,11.6,13.1c0,8.9-7.4,15.9-20.5,15.9c-6.4,0-11.9-1.8-14.7-3.6L1002.2,811z"/>
	<path d="M1044.1,815.8c0-3.7,2.6-6.4,6.1-6.4c3.6,0,6.1,2.6,6.1,6.4c0,3.6-2.4,6.4-6.1,6.4C1046.7,822.2,1044.1,819.4,1044.1,815.8
		z"/>
</g>
<g>
	<path d="M1197.7,819.3c0-6.6,3.8-11,9.9-13.7v-0.2c-5.5-2.7-8-7-8-11.6c0-8.6,7.6-14.4,17.6-14.4c11.3,0,16.5,6.8,16.5,13.3
		c0,4.4-2.3,9.1-8.1,11.9v0.2c5.7,2.2,10,6.7,10,13.3c0,9.4-7.9,15.7-19.2,15.7C1204.1,833.7,1197.7,826.7,1197.7,819.3z
		 M1225.4,818.9c0-5.3-4-8.3-9.8-9.9c-4.9,1.5-7.8,4.9-7.8,9.2c-0.2,4.4,3.2,8.5,8.8,8.5C1221.9,826.7,1225.4,823.4,1225.4,818.9z
		 M1209,793.4c0,4.3,3.6,6.9,8.6,8.2c3.6-1.1,6.6-4,6.6-7.9c0-3.6-2.2-7.4-7.5-7.4C1211.6,786.3,1209,789.6,1209,793.4z"/>
	<path d="M1242.4,827.3c0-3.7,2.6-6.4,6.1-6.4c3.6,0,6.1,2.6,6.1,6.4c0,3.6-2.4,6.4-6.1,6.4C1244.9,833.7,1242.4,831,1242.4,827.3z"
		/>
	<path d="M1260.8,832.8v-6.1l6.2-5.7c12.4-11.5,18.2-17.8,18.3-24.8c0-4.7-2.5-8.8-9.4-8.8c-4.6,0-8.6,2.3-11.2,4.4l-2.9-7
		c3.8-3.1,9.5-5.4,16.2-5.4c11.6,0,17.3,7.4,17.3,15.9c0,9.2-6.6,16.7-15.8,25.2l-4.6,4v0.2h21.6v8.2H1260.8z"/>
	<path d="M1304.8,827.3c0-3.7,2.6-6.4,6.1-6.4c3.6,0,6.1,2.6,6.1,6.4c0,3.6-2.4,6.4-6.1,6.4C1307.3,833.7,1304.8,831,1304.8,827.3z"
		/>
	<path d="M1345.2,832.8v-13.3h-23.8V813l21.4-32.8h11.7V812h6.8v7.5h-6.8v13.3H1345.2z M1345.2,812v-14.3c0-3,0.1-6.1,0.3-9.1h-0.3
		c-1.6,3.3-3,6-4.6,8.9l-9.6,14.4l-0.1,0.2H1345.2z"/>
	<path d="M1367.3,827.3c0-3.7,2.6-6.4,6.1-6.4c3.6,0,6.1,2.6,6.1,6.4c0,3.6-2.4,6.4-6.1,6.4C1369.8,833.7,1367.3,831,1367.3,827.3z"
		/>
</g>
<g>
	<path d="M1772.4,516.3c0-6.6,3.8-11,9.9-13.7v-0.2c-5.5-2.7-8-7-8-11.6c0-8.6,7.6-14.4,17.6-14.4c11.3,0,16.5,6.8,16.5,13.3
		c0,4.4-2.3,9.1-8.1,11.9v0.2c5.7,2.2,10,6.7,10,13.3c0,9.4-7.9,15.7-19.2,15.7C1778.8,530.7,1772.4,523.7,1772.4,516.3z
		 M1800.1,515.8c0-5.3-4-8.3-9.8-9.9c-4.9,1.5-7.8,4.9-7.8,9.2c-0.2,4.4,3.2,8.5,8.8,8.5C1796.6,523.7,1800.1,520.3,1800.1,515.8z
		 M1783.7,490.3c0,4.3,3.6,6.9,8.6,8.2c3.6-1.1,6.6-4,6.6-7.9c0-3.6-2.2-7.4-7.5-7.4C1786.3,483.2,1783.7,486.5,1783.7,490.3z"/>
	<path d="M1817.1,524.3c0-3.7,2.6-6.4,6.1-6.4c3.6,0,6.1,2.6,6.1,6.4c0,3.6-2.4,6.4-6.1,6.4C1819.6,530.7,1817.1,528,1817.1,524.3z"
		/>
	<path d="M1835.5,529.8v-6.1l6.2-5.7c12.4-11.5,18.2-17.8,18.3-24.8c0-4.7-2.5-8.8-9.4-8.8c-4.6,0-8.6,2.3-11.2,4.4l-2.9-7
		c3.8-3.1,9.5-5.4,16.2-5.4c11.6,0,17.3,7.4,17.3,15.9c0,9.2-6.6,16.7-15.8,25.2l-4.6,4v0.2h21.6v8.2H1835.5z"/>
	<path d="M1879.5,524.3c0-3.7,2.6-6.4,6.1-6.4c3.6,0,6.1,2.6,6.1,6.4c0,3.6-2.4,6.4-6.1,6.4C1882,530.7,1879.5,528,1879.5,524.3z"/>
	<path d="M1931.4,485.5h-20.2l-1.5,10.5c1.2-0.2,2.3-0.2,3.8-0.2c4.6,0,9.2,1.1,12.8,3.4c4,2.5,6.9,7,6.9,13.3
		c0,10-8.3,18.2-21.3,18.2c-6.1,0-11.2-1.5-13.9-3.1l2-7.5c2.3,1.2,6.8,2.8,11.6,2.8c5.8,0,11.4-3.3,11.4-9.6c0-6-4.4-9.9-15-9.9
		c-2.9,0-5.1,0.2-7.2,0.5l3.5-26.5h27.2V485.5z"/>
	<path d="M1942,524.3c0-3.7,2.6-6.4,6.1-6.4c3.6,0,6.1,2.6,6.1,6.4c0,3.6-2.4,6.4-6.1,6.4C1944.5,530.7,1942,528,1942,524.3z"/>
</g>
<g>
	<path d="M1788.5,943.7c0-6.6,3.8-11,9.9-13.7v-0.2c-5.5-2.7-8-7-8-11.6c0-8.6,7.6-14.4,17.6-14.4c11.3,0,16.5,6.8,16.5,13.3
		c0,4.4-2.3,9.1-8.1,11.9v0.2c5.7,2.2,10,6.7,10,13.3c0,9.4-7.9,15.7-19.2,15.7C1794.8,958.1,1788.5,951,1788.5,943.7z
		 M1816.2,943.2c0-5.3-4-8.3-9.8-9.9c-4.9,1.5-7.8,4.9-7.8,9.2c-0.2,4.4,3.2,8.5,8.8,8.5C1812.7,951,1816.2,947.7,1816.2,943.2z
		 M1799.8,917.7c0,4.3,3.6,6.9,8.6,8.2c3.6-1.1,6.6-4,6.6-7.9c0-3.6-2.2-7.4-7.5-7.4C1802.4,910.6,1799.8,913.9,1799.8,917.7z"/>
	<path d="M1833.2,951.7c0-3.7,2.6-6.4,6.1-6.4c3.6,0,6.1,2.6,6.1,6.4c0,3.6-2.4,6.4-6.1,6.4C1835.7,958.1,1833.2,955.3,1833.2,951.7
		z"/>
	<path d="M1851.6,957.2v-6.1l6.2-5.7c12.4-11.5,18.2-17.8,18.3-24.8c0-4.7-2.5-8.8-9.4-8.8c-4.6,0-8.6,2.3-11.2,4.4l-2.9-7
		c3.8-3.1,9.5-5.4,16.2-5.4c11.6,0,17.3,7.4,17.3,15.9c0,9.2-6.6,16.7-15.8,25.2l-4.6,4v0.2h21.6v8.2H1851.6z"/>
	<path d="M1895.6,951.7c0-3.7,2.6-6.4,6.1-6.4c3.6,0,6.1,2.6,6.1,6.4c0,3.6-2.4,6.4-6.1,6.4C1898.1,958.1,1895.6,955.3,1895.6,951.7
		z"/>
	<path d="M1946.1,911.6c-1.5,0-3.1,0-5.1,0.2c-11,1.3-16.3,8.1-17.6,15.4h0.2c2.6-3,6.6-5.1,11.8-5.1c9.1,0,16.1,6.5,16.1,17.1
		c0,10-7.4,18.8-18.5,18.8c-12.8,0-19.8-9.7-19.8-22.6c0-10.1,3.6-18.4,9.1-23.6c4.9-4.5,11.2-7.1,18.7-7.8c2.2-0.2,3.8-0.2,5-0.2
		L1946.1,911.6z M1941.4,939.9c0-6.1-3.3-10.4-9.1-10.4c-3.7,0-7,2.3-8.6,5.4c-0.4,0.8-0.6,1.8-0.6,3.2c0.2,7,3.5,12.6,9.9,12.6
		C1938.1,950.6,1941.4,946.2,1941.4,939.9z"/>
	<path d="M1958.1,951.7c0-3.7,2.6-6.4,6.1-6.4c3.6,0,6.1,2.6,6.1,6.4c0,3.6-2.4,6.4-6.1,6.4C1960.6,958.1,1958.1,955.3,1958.1,951.7
		z"/>
</g>
</svg>
