<?xml version="1.0" encoding="utf-8"?>
<!-- Generator: Adobe Illustrator 18.0.0, SVG Export Plug-In . SVG Version: 6.00 Build 0)  -->
<!DOCTYPE svg PUBLIC "-//W3C//DTD SVG 1.1//EN" "http://www.w3.org/Graphics/SVG/1.1/DTD/svg11.dtd">
<svg version="1.1"
	 id="svg2" inkscape:version="0.48.4 r9939" sodipodi:docname="6.2014_02_16_18_28_07.2.svg" xmlns:sodipodi="http://sodipodi.sourceforge.net/DTD/sodipodi-0.dtd" xmlns:dc="http://purl.org/dc/elements/1.1/" xmlns:cc="http://creativecommons.org/ns#" xmlns:inkscape="http://www.inkscape.org/namespaces/inkscape" xmlns:svg="http://www.w3.org/2000/svg" xmlns:rdf="http://www.w3.org/1999/02/22-rdf-syntax-ns#"
	 xmlns="http://www.w3.org/2000/svg" xmlns:xlink="http://www.w3.org/1999/xlink" x="0px" y="0px" viewBox="-0.3 205.3 954.7 1026"
	 enable-background="new -0.3 205.3 954.7 1026" xml:space="preserve">
<g>
	<path fill="#FFFFFF" stroke="#000000" stroke-width="8" stroke-miterlimit="10" d="M930.2,603.9H24c-11.2,0-20.3-9.2-20.3-20.3
		V229.6c0-11.2,9.2-20.3,20.3-20.3h906.2c11.2,0,20.3,9.2,20.3,20.3v353.9C950.5,594.8,941.2,603.9,930.2,603.9z"/>
	<g>
		<path d="M190.4,313.9c0,6.7-5.1,15.1-15.3,25.4c-5,5-9.8,9.8-14.5,14.5H189v13.4h-49.7v-11.4c0-0.9,4.6-6.5,13.9-16.7
			c3.6-4,6.5-7.4,8.8-10.4c1.1-1.2,2.8-3,5.1-5.4c3.3-3.8,4.9-7.3,4.9-10.3v-13.3c0-4.4-2.5-6.7-7.6-6.7c-3.1,0-5.2,1.1-6.2,3.2
			c-0.6,1.4-0.9,3.9-0.9,7.6v3.1h-18v-10.5c0-3.3,1.8-6.7,5.5-10.1c3.7-3.4,7.2-5.1,10.5-5.1h19.9c3.4,0,6.8,1.8,10.1,5.3
			c3.3,3.5,5,7,5,10.4V313.9z"/>
		<path d="M312.9,318.8h-15.7v-19.4c0-1.5-0.7-2.8-2-4c-1.3-1.2-2.7-1.8-4.2-1.8c-1.4,0-2.6,0.6-3.7,1.8c-1,1.2-1.6,2.5-1.6,4v14.7
			h-17.1v-14.7c0-1.4-0.6-2.8-1.8-4c-1.2-1.2-2.5-1.8-4-1.8c-1.4,0-2.6,0.6-3.6,1.8c-1.1,1.2-1.6,2.5-1.6,3.9v17.1
			c0,3,1.5,6.3,4.5,10.1c2.9,3.6,5.8,5.9,8.7,7c1,0.4,5.9,1.7,14.7,4c6.2,1.6,10.7,3.5,13.7,5.8c3.1,2.5,6.2,7.1,9.3,14v10h-19v-0.6
			c0-5-0.6-8.4-1.8-10.2c-2.1-3.1-6.7-5.9-13.9-8.5c-3.8-1.4-8-2-12.4-2h-20.4v-11.9h8.1c-6-6.7-9-11.6-9-14.8V297
			c0-3.6,1.8-7.2,5.3-10.6c3.6-3.4,7.2-5.1,10.8-5.1h11.9c2.9,0,5.9,1.6,9,4.7c3.1-3.1,6.2-4.7,9-4.7h12.4c3.3,0,6.5,1.3,9.5,3.9
			c3.1,2.7,4.7,5.7,4.7,9V318.8z"/>
		<path d="M379.7,351.5c0,3.3-1.8,6.8-5.5,10.3c-3.7,3.6-7.2,5.3-10.6,5.3h-20.5c-3.2,0-6.6-1.6-10-4.9c-3.4-3.3-5.2-6.6-5.2-9.8
			V332h18.5v15.7c0,2,0.7,3.8,2.2,5.1s3.3,2,5.3,2c1.7,0,3.3-0.8,4.8-2.3c1.5-1.5,2.3-3.2,2.3-4.9v-46.6c0-2-0.7-3.7-2.2-5.1
			c-1.5-1.4-3.3-2-5.3-2c-3.3,0-5.5,1.4-6.4,4.3c-0.5,1.4-0.7,4.3-0.7,8.6h-18.5v-10.5c3.8-9.8,9.2-14.7,16.1-14.7h19
			c3.6,0,7.2,1.7,11,5.2c3.8,3.4,5.7,7,5.7,10.5V351.5z"/>
		<path d="M471.6,366.9h-17.5V336c0-1.6-0.6-2.9-1.7-4c-1.1-1.1-2.5-1.6-4-1.6c-1.5,0-2.8,0.6-3.9,1.7c-1.1,1.1-1.7,2.4-1.7,3.9
			v11.9h-17.1V336c0-1.6-0.5-2.9-1.6-4c-1.1-1.1-2.4-1.6-4-1.6c-1.3,0-2.5,0.6-3.6,1.8c-1.1,1.2-1.6,2.5-1.6,3.8v30.9h-18v-37
			c0-5.6,3.9-11,11.7-16.4c4.9-3.1,12.1-7.8,21.7-14.2c7.8-5.5,11.7-11.2,11.7-17.2h18v8.5c-2.1,4.6-5.6,8.7-10.5,12.3
			c-3.1,2.3-7.8,5-14.2,8.1c-6.4,3.1-10.4,5.3-12.2,6.6c3.1,0.4,5.2,0.8,6.2,1.3c1.4,0.6,3.1,1.9,5.2,4c3.9-3.1,7-4.7,9.5-4.7h12.3
			c3.6,0,7.1,1.7,10.5,5.1c3.4,3.4,5.1,6.9,5.1,10.5V366.9z"/>
		<path d="M536,353.9c0,3.2-1.6,6.3-4.9,9.3c-3.3,3-6.5,4.5-9.8,4.5h-21.4c-3.2,0-6.5-1.5-9.8-4.5s-4.9-6.1-4.9-9.3v-20.4
			c0-3.4,1.9-6.7,5.6-9.8c3.5-3,7-4.5,10.6-4.5H518v-37.1h18V353.9z M517.5,349.7v-11.9c0-1.6-0.7-3-2.1-4.1
			c-1.4-1.1-2.9-1.7-4.5-1.7c-1.9,0-3.5,0.5-4.8,1.4c-1.5,1.1-2.3,2.5-2.3,4.3v11.9c0,1.7,0.7,3,2,4.1c1.4,1.1,2.9,1.6,4.6,1.6
			c1.9,0,3.5-0.5,4.8-1.4C516.7,353,517.5,351.5,517.5,349.7z"/>
		<path d="M603.9,367.7h-18.4V302c0-2-0.8-3.7-2.3-5c-1.5-1.3-3.3-2-5.3-2c-1.7,0-3.4,0.7-4.9,2.2c-1.5,1.5-2.3,3.1-2.3,4.8v65.7
			h-18.4v-68.6c0-3.5,1.7-7,5.2-10.7c3.5-3.6,7-5.4,10.4-5.4h20.3c3.6,0,7.2,1.8,10.5,5.3c3.4,3.5,5.1,7.1,5.1,10.8V367.7z"/>
		<path d="M669.3,352c0,3.7-2,7.2-5.9,10.6c-3.8,3.2-7.6,4.8-11.3,4.8h-17.2c-3.5,0-7-1.7-10.6-5.1s-5.3-6.8-5.3-10.3v-19.6h17.7
			v16.3c0,1.6,0.9,3.1,2.6,4.3c1.6,1.2,3.2,1.8,4.9,1.8c1.5,0,3.1-0.6,4.6-1.9c1.6-1.3,2.4-2.7,2.4-4.1V318c0-2.1-1.3-4.2-3.8-6.4
			c-1.7-1.4-4.3-3.6-7.7-6.6c-3.4-3-6.1-6.6-8.1-10.8v-11.2h17.7c0,4.8,1.2,8.8,3.6,11.8c1.2,1.4,4.4,4.2,9.5,8.4
			c4.5,3.6,6.8,6.7,6.8,9.2V352z"/>
		<path d="M735.4,351.9c0,3.6-1.8,7.3-5.5,11c-3.7,3.7-7.3,5.5-11,5.5h-18.4c-3.8,0-7.4-1.9-10.8-5.6c-3.4-3.8-5.1-7.5-5.1-11.4
			v-53.2c0-4.6,2-8.4,6.1-11.4c3.8-2.8,8-4.1,12.7-4.1c1.9,0,4.9,0.4,8.9,1.2c4.1,0.8,7.2,1.2,9.4,1.2c4.4,0,8.1-0.6,11.3-1.9h1
			v16.9h-10.3c-8.5-2.2-13.6-3.3-15.5-3.3c-1.5,0-2.8,0.5-4,1.5c-1.2,1-1.7,2.2-1.7,3.7v17h19.8c3.1,0,6.1,1.4,9,4.2
			c2.8,2.8,4.2,5.8,4.2,8.9V351.9z M716.5,350.1v-12.7c0-1.7-0.7-3-2-4.1c-1.3-1.1-2.9-1.6-4.6-1.6c-1.7,0-3.2,0.5-4.5,1.5
			c-1.4,1.1-2.1,2.5-2.1,4.1v12.7c0,1.7,0.7,3.1,2,4.1c1.3,1,2.9,1.5,4.6,1.5c1.6,0,3.1-0.5,4.5-1.6
			C715.9,353,716.5,351.7,716.5,350.1z"/>
		<path d="M802.9,367.7h-18.4V302c0-2-0.8-3.7-2.3-5c-1.5-1.3-3.3-2-5.3-2c-1.7,0-3.4,0.7-4.9,2.2c-1.5,1.5-2.3,3.1-2.3,4.8v65.7
			h-18.4v-68.6c0-3.5,1.7-7,5.2-10.7c3.5-3.6,7-5.4,10.4-5.4h20.3c3.6,0,7.2,1.8,10.5,5.3c3.4,3.5,5.1,7.1,5.1,10.8V367.7z"/>
		<path d="M103.4,509.7c0,2.7-1.8,5.4-5.4,8.2c-3.4,2.7-6.5,4.1-9.3,4.1H67.4c-3.4,0-6.8-1.8-10.1-5.3c-3.3-3.5-5-7-5-10.4v-69.7
			h18.4V504c0,4.1,2.5,6.1,7.6,6.1c1.9,0,3.5-0.6,5-1.7c1.4-1.1,2.2-2.6,2.2-4.4v-30.8h18V509.7z"/>
		<path d="M169.2,506.7c0,3.7-2,7.2-5.9,10.6c-3.8,3.2-7.6,4.8-11.3,4.8h-17.2c-3.5,0-7-1.7-10.6-5.1s-5.3-6.8-5.3-10.3v-19.6h17.7
			v16.3c0,1.6,0.9,3.1,2.6,4.3c1.6,1.2,3.2,1.8,4.9,1.8c1.5,0,3.1-0.6,4.6-1.9c1.6-1.3,2.4-2.7,2.4-4.1v-30.7c0-2.1-1.3-4.2-3.8-6.4
			c-1.7-1.4-4.3-3.6-7.7-6.6c-3.4-3-6.1-6.6-8.1-10.8v-11.2h17.7c0,4.8,1.2,8.8,3.6,11.8c1.2,1.4,4.4,4.2,9.5,8.4
			c4.5,3.6,6.8,6.7,6.8,9.2V506.7z"/>
		<path d="M237.1,452.5c-4.3-0.9-6.3-1.4-6.1-1.4c-3.5,0-5.2,2.4-5.2,7.2v2.3c0,0.8,0,1.5,0,2.3h-14.6c0-0.6,0-1.4,0-2.6s0-2,0-2.6
			c0-6-1.4-9-4.3-9c-1,0-2,0.5-2.9,1.6c-0.9,1-1.3,2.1-1.3,3.2v20.2h22.1c2.7,0,5.3,1.1,7.7,3.2c2.4,2.1,3.6,4.5,3.6,7.2v23.6
			c0,3.2-1.7,6.5-5.1,9.7c-3.4,3.3-6.7,4.9-10,4.9h-21.3c-3.4,0-6.9-1.7-10.3-5.2c-3.5-3.5-5.2-6.9-5.2-10.3v-57.6
			c0-2.7,1-5.4,3.1-8.1c2.2-2.8,4.6-4.2,7.3-4.2h16.1c2.7,0,5.2,1.6,7.7,4.7c1.9-2.1,3.6-3.5,4.9-4.2c1.3-0.7,3.4-1,6.2-1
			c1.7,0,3.1,0.1,4.1,0.4c0.8,0.3,2,0.6,3.5,1V452.5z M216.8,503.9v-11.3c0-1.8-0.6-3.3-1.9-4.4c-1.3-1.1-2.8-1.7-4.7-1.7
			c-4.7,0-7,2-7,6.1v11.3c0,1.7,0.7,3.2,2,4.4c1.3,1.2,2.9,1.8,4.6,1.8c1.9,0,3.6-0.5,5-1.6C216.2,507.3,216.8,505.8,216.8,503.9z"
			/>
		<path d="M302.1,506.2c0,3.3-1.8,6.8-5.5,10.3c-3.7,3.6-7.2,5.3-10.6,5.3h-20.5c-3.2,0-6.6-1.6-10-4.9c-3.4-3.3-5.2-6.6-5.2-9.8
			v-20.5h18.5v15.7c0,2,0.7,3.8,2.2,5.1s3.3,2,5.3,2c1.7,0,3.3-0.8,4.8-2.3c1.5-1.5,2.3-3.2,2.3-4.9v-46.6c0-2-0.7-3.7-2.2-5.1
			c-1.5-1.4-3.3-2-5.3-2c-3.3,0-5.5,1.4-6.4,4.3c-0.5,1.4-0.7,4.3-0.7,8.6h-18.5v-10.5c3.8-9.8,9.2-14.7,16.1-14.7h19
			c3.6,0,7.2,1.7,11,5.2c3.8,3.4,5.7,7,5.7,10.5V506.2z"/>
		<path d="M368.7,506.6c0,3.4-1.7,6.7-5.2,10.1c-3.5,3.4-6.9,5-10.3,5h-21.3c-3.2,0-6.5-1.6-9.7-4.9c-3.3-3.2-4.9-6.5-4.9-9.7v-18.6
			h18.4v14.3c0,2,0.8,3.7,2.3,4.9c1.4,1.2,3.2,1.8,5.3,1.8c2,0,3.6-0.6,5-1.9c1.4-1.3,2.1-2.9,2.1-4.8v-17.5c0-4.4-2.5-6.7-7.6-6.7
			v-11.9c5.1,0,7.6-3,7.6-9c0-6.3-2.5-9.4-7.6-9.4c-3.2,0-5.3,1.4-6.3,4.3c-0.6,1.6-0.9,4.4-0.9,8.5h-18.4v-10.3
			c4.6-9.8,10.3-14.7,16.9-14.7h19.4c3.5,0,6.9,1.6,10.2,4.9s4.9,6.7,4.9,10.2v9.9c0,3.6-3.2,7-9.5,10.5c3.3,1.3,5.5,2.2,6.4,2.8
			c2.1,1.4,3.1,3.3,3.1,5.7V506.6z"/>
		<path d="M457.4,521.6h-17.5v-30.9c0-1.6-0.6-2.9-1.7-4c-1.1-1.1-2.5-1.6-4-1.6c-1.5,0-2.8,0.6-3.9,1.7c-1.1,1.1-1.7,2.4-1.7,3.9
			v11.9h-17.1v-11.9c0-1.6-0.5-2.9-1.6-4c-1.1-1.1-2.4-1.6-4-1.6c-1.3,0-2.5,0.6-3.6,1.8c-1.1,1.2-1.6,2.5-1.6,3.8v30.9h-18v-37
			c0-5.6,3.9-11,11.7-16.4c4.9-3.1,12.1-7.8,21.7-14.2c7.8-5.5,11.7-11.2,11.7-17.2h18v8.5c-2.1,4.6-5.6,8.7-10.5,12.3
			c-3.1,2.3-7.8,5-14.2,8.1c-6.4,3.1-10.4,5.3-12.2,6.6c3.1,0.4,5.2,0.8,6.2,1.3c1.4,0.6,3.1,1.9,5.2,4c3.9-3.1,7-4.7,9.5-4.7h12.3
			c3.6,0,7.1,1.7,10.5,5.1c3.4,3.4,5.1,6.9,5.1,10.5V521.6z"/>
		<path d="M524.7,522.4h-18.4v-65.7c0-2-0.8-3.7-2.3-5c-1.5-1.3-3.3-2-5.3-2c-1.7,0-3.4,0.7-4.9,2.2c-1.5,1.5-2.3,3.1-2.3,4.8v65.7
			h-18.4v-68.6c0-3.5,1.7-7,5.2-10.7c3.5-3.6,7-5.4,10.4-5.4h20.3c3.6,0,7.2,1.8,10.5,5.3c3.4,3.5,5.1,7.1,5.1,10.8V522.4z"/>
		<path d="M592.2,509.7c0,2.7-1.8,5.4-5.4,8.2c-3.4,2.7-6.5,4.1-9.3,4.1h-21.4c-3.4,0-6.8-1.8-10.1-5.3c-3.3-3.5-5-7-5-10.4v-69.7
			h18.4V504c0,4.1,2.5,6.1,7.6,6.1c1.9,0,3.5-0.6,5-1.7s2.2-2.6,2.2-4.4v-30.8h18V509.7z"/>
		<path d="M691.4,522.1h-18.5v-68.5c0-3.1-2.1-4.7-6.2-4.7c-1.5,0-2.8,0.4-3.9,1.2c-1.2,0.9-1.8,2-1.8,3.5v52.8
			c0,3.4-1.9,6.9-5.7,10.4c-3.8,3.5-7.5,5.3-10.9,5.3h-20c-3.5,0-7.1-1.7-10.9-5.2c-3.8-3.5-5.7-7-5.7-10.5v-54.7
			c0-3.4,1.9-7,5.7-10.5c3.8-3.4,7.4-5.2,10.9-5.2H640c3.8,0.5,7.6,2.3,11.6,5.7c1.8-1.3,3.6-2.7,5.3-4c2-1.1,3.8-1.6,5.4-1.6h15.2
			c3.2,0,6.3,1.4,9.3,4.1s4.5,5.6,4.5,8.8V522.1z M641.9,502.6V455c0-1.5-0.9-2.9-2.7-4.3c-1.7-1.3-3.3-1.9-4.9-1.9
			c-1.6,0-3.2,0.6-4.9,1.9c-1.7,1.3-2.6,2.7-2.6,4.2v47.6c0,1.7,0.9,3.3,2.6,4.7c1.6,1.3,3.3,2,5,2c1.7,0,3.4-0.7,5.1-2.1
			C641.1,505.7,641.9,504.2,641.9,502.6z"/>
		<path d="M757.6,506.6c0,3.4-1.7,6.7-5.2,10.1c-3.5,3.4-6.9,5-10.3,5h-21.3c-3.2,0-6.5-1.6-9.7-4.9c-3.3-3.2-4.9-6.5-4.9-9.7v-18.6
			h18.4v14.3c0,2,0.8,3.7,2.3,4.9c1.4,1.2,3.2,1.8,5.3,1.8c2,0,3.6-0.6,5-1.9c1.4-1.3,2.1-2.9,2.1-4.8v-17.5c0-4.4-2.5-6.7-7.6-6.7
			v-11.9c5.1,0,7.6-3,7.6-9c0-6.3-2.5-9.4-7.6-9.4c-3.2,0-5.3,1.4-6.3,4.3c-0.6,1.6-0.9,4.4-0.9,8.5H706v-10.3
			c4.6-9.8,10.3-14.7,16.9-14.7h19.4c3.5,0,6.9,1.6,10.2,4.9s4.9,6.7,4.9,10.2v9.9c0,3.6-3.2,7-9.5,10.5c3.3,1.3,5.5,2.2,6.4,2.8
			c2.1,1.4,3.1,3.3,3.1,5.7V506.6z"/>
		<path d="M822.9,522.4h-18.4v-65.7c0-2-0.8-3.7-2.3-5c-1.5-1.3-3.3-2-5.3-2c-1.7,0-3.4,0.7-4.9,2.2c-1.5,1.5-2.3,3.1-2.3,4.8v65.7
			h-18.4v-68.6c0-3.5,1.7-7,5.2-10.7c3.5-3.6,7-5.4,10.4-5.4h20.3c3.6,0,7.2,1.8,10.5,5.3c3.4,3.5,5.1,7.1,5.1,10.8V522.4z"/>
		<path d="M890.4,509.7c0,2.7-1.8,5.4-5.4,8.2c-3.4,2.7-6.5,4.1-9.3,4.1h-21.4c-3.4,0-6.8-1.8-10.1-5.3c-3.3-3.5-5-7-5-10.4v-69.7
			h18.4V504c0,4.1,2.5,6.1,7.6,6.1c1.9,0,3.5-0.6,5-1.7s2.2-2.6,2.2-4.4v-30.8h18V509.7z"/>
	</g>
</g>
<g>
	<path fill="#FFFFFF" stroke="#000000" stroke-width="8" stroke-miterlimit="10" d="M930.2,1138.9H24c-11.2,0-20.3-9.2-20.3-20.3
		V764.6c0-11.2,9.2-20.3,20.3-20.3h906.2c11.2,0,20.3,9.2,20.3,20.3v353.9C950.5,1129.8,941.2,1138.9,930.2,1138.9z"/>
	<g>
		<path d="M190.4,886.7c0,4.4-1.9,8.1-5.6,11.2c-3.5,2.9-7.5,4.4-12,4.4h-15.6c-4.9,0-9.2-1.5-12.8-4.5c-3.8-3.2-5.7-7.2-5.7-12
			v-11.8h18.5c0,0.5,0,1.1,0,2c0,0.9-0.1,1.5-0.1,2c0,4,0.3,6.7,1,8.3c1.1,2.5,3.3,3.8,6.7,3.8c1.7,0,3.4-0.7,4.9-2
			c1.5-1.3,2.2-2.9,2.2-4.6V873c0-3.6-2.5-6-7.6-7.1v-12.8c5.1,0,7.6-2.2,7.6-6.6v-10.9c0-1.9-0.8-3.4-2.4-4.7
			c-1.6-1.3-3.3-1.9-5.2-1.9c-3.3,0-5.5,1.6-6.4,4.7c-0.4,1.4-0.6,4.4-0.6,9h-18.5v-10.3c0.3-0.9,0.7-2.4,1.3-4.3c1.1-3,3-5.7,5.5-8
			c2.4-2.2,5.7-3.4,9.8-3.4h18.5c5.2,0,9.7,2.1,13.5,6.4c2.1,2.4,3.1,5.6,3.1,9.7v15.1c0,2.2-0.9,4.1-2.8,5.6
			c-0.6,0.5-2.5,1.6-5.7,3.4c3.7,2,5.7,3.2,6,3.5c1.7,1.4,2.6,3.4,2.6,6V886.7z"/>
		<path d="M312.9,853.8h-15.7v-19.4c0-1.5-0.7-2.8-2-4c-1.3-1.2-2.7-1.8-4.2-1.8c-1.4,0-2.6,0.6-3.7,1.8c-1,1.2-1.6,2.5-1.6,4v14.7
			h-17.1v-14.7c0-1.4-0.6-2.8-1.8-4c-1.2-1.2-2.5-1.8-4-1.8c-1.4,0-2.6,0.6-3.6,1.8c-1.1,1.2-1.6,2.5-1.6,3.9v17.1
			c0,3,1.5,6.3,4.5,10.1c2.9,3.6,5.8,5.9,8.7,7c1,0.4,5.9,1.7,14.7,4c6.2,1.6,10.7,3.5,13.7,5.8c3.1,2.5,6.2,7.1,9.3,14v10h-19v-0.6
			c0-5-0.6-8.4-1.8-10.2c-2.1-3.1-6.7-5.9-13.9-8.5c-3.8-1.4-8-2-12.4-2h-20.4v-11.9h8.1c-6-6.7-9-11.6-9-14.8V832
			c0-3.6,1.8-7.2,5.3-10.6c3.6-3.4,7.2-5.1,10.8-5.1h11.9c2.9,0,5.9,1.6,9,4.7c3.1-3.1,6.2-4.7,9-4.7h12.4c3.3,0,6.5,1.3,9.5,3.9
			c3.1,2.7,4.7,5.7,4.7,9V853.8z"/>
		<path d="M379.7,886.5c0,3.3-1.8,6.8-5.5,10.3c-3.7,3.6-7.2,5.3-10.6,5.3h-20.5c-3.2,0-6.6-1.6-10-4.9c-3.4-3.3-5.2-6.6-5.2-9.8
			V867h18.5v15.7c0,2,0.7,3.8,2.2,5.1s3.3,2,5.3,2c1.7,0,3.3-0.8,4.8-2.3c1.5-1.5,2.3-3.2,2.3-4.9v-46.6c0-2-0.7-3.7-2.2-5.1
			c-1.5-1.4-3.3-2-5.3-2c-3.3,0-5.5,1.4-6.4,4.3c-0.5,1.4-0.7,4.3-0.7,8.6h-18.5v-10.5c3.8-9.8,9.2-14.7,16.1-14.7h19
			c3.6,0,7.2,1.7,11,5.2c3.8,3.4,5.7,7,5.7,10.5V886.5z"/>
		<path d="M471.6,901.9h-17.5V871c0-1.6-0.6-2.9-1.7-4c-1.1-1.1-2.5-1.6-4-1.6c-1.5,0-2.8,0.6-3.9,1.7c-1.1,1.1-1.7,2.4-1.7,3.9
			v11.9h-17.1V871c0-1.6-0.5-2.9-1.6-4c-1.1-1.1-2.4-1.6-4-1.6c-1.3,0-2.5,0.6-3.6,1.8c-1.1,1.2-1.6,2.5-1.6,3.8v30.9h-18v-37
			c0-5.6,3.9-11,11.7-16.4c4.9-3.1,12.1-7.8,21.7-14.2c7.8-5.5,11.7-11.2,11.7-17.2h18v8.5c-2.1,4.6-5.6,8.7-10.5,12.3
			c-3.1,2.3-7.8,5-14.2,8.1c-6.4,3.1-10.4,5.3-12.2,6.6c3.1,0.4,5.2,0.8,6.2,1.3c1.4,0.6,3.1,1.9,5.2,4c3.9-3.1,7-4.7,9.5-4.7h12.3
			c3.6,0,7.1,1.7,10.5,5.1c3.4,3.4,5.1,6.9,5.1,10.5V901.9z"/>
		<path d="M536,888.9c0,3.2-1.6,6.3-4.9,9.3c-3.3,3-6.5,4.5-9.8,4.5h-21.4c-3.2,0-6.5-1.5-9.8-4.5s-4.9-6.1-4.9-9.3v-20.4
			c0-3.4,1.9-6.7,5.6-9.8c3.5-3,7-4.5,10.6-4.5H518v-37.1h18V888.9z M517.5,884.7v-11.9c0-1.6-0.7-3-2.1-4.1
			c-1.4-1.1-2.9-1.7-4.5-1.7c-1.9,0-3.5,0.5-4.8,1.4c-1.5,1.1-2.3,2.5-2.3,4.3v11.9c0,1.7,0.7,3,2,4.1c1.4,1.1,2.9,1.6,4.6,1.6
			c1.9,0,3.5-0.5,4.8-1.4C516.7,888,517.5,886.5,517.5,884.7z"/>
		<path d="M603.9,902.7h-18.4V837c0-2-0.8-3.7-2.3-5c-1.5-1.3-3.3-2-5.3-2c-1.7,0-3.4,0.7-4.9,2.2c-1.5,1.5-2.3,3.1-2.3,4.8v65.7
			h-18.4v-68.6c0-3.5,1.7-7,5.2-10.7c3.5-3.6,7-5.4,10.4-5.4h20.3c3.6,0,7.2,1.8,10.5,5.3c3.4,3.5,5.1,7.1,5.1,10.8V902.7z"/>
		<path d="M669.3,887c0,3.7-2,7.2-5.9,10.6c-3.8,3.2-7.6,4.8-11.3,4.8h-17.2c-3.5,0-7-1.7-10.6-5.1s-5.3-6.8-5.3-10.3v-19.6h17.7
			v16.3c0,1.6,0.9,3.1,2.6,4.3c1.6,1.2,3.2,1.8,4.9,1.8c1.5,0,3.1-0.6,4.6-1.9c1.6-1.3,2.4-2.7,2.4-4.1V853c0-2.1-1.3-4.2-3.8-6.4
			c-1.7-1.4-4.3-3.6-7.7-6.6c-3.4-3-6.1-6.6-8.1-10.8v-11.2h17.7c0,4.8,1.2,8.8,3.6,11.8c1.2,1.4,4.4,4.2,9.5,8.4
			c4.5,3.6,6.8,6.7,6.8,9.2V887z"/>
		<path d="M735.4,886.9c0,3.6-1.8,7.3-5.5,11c-3.7,3.7-7.3,5.5-11,5.5h-18.4c-3.8,0-7.4-1.9-10.8-5.6c-3.4-3.8-5.1-7.5-5.1-11.4
			v-53.2c0-4.6,2-8.4,6.1-11.4c3.8-2.8,8-4.1,12.7-4.1c1.9,0,4.9,0.4,8.9,1.2c4.1,0.8,7.2,1.2,9.4,1.2c4.4,0,8.1-0.6,11.3-1.9h1
			v16.9h-10.3c-8.5-2.2-13.6-3.3-15.5-3.3c-1.5,0-2.8,0.5-4,1.5c-1.2,1-1.7,2.2-1.7,3.7v17h19.8c3.1,0,6.1,1.4,9,4.2
			c2.8,2.8,4.2,5.8,4.2,8.9V886.9z M716.5,885.1v-12.7c0-1.7-0.7-3-2-4.1c-1.3-1.1-2.9-1.6-4.6-1.6c-1.7,0-3.2,0.5-4.5,1.5
			c-1.4,1.1-2.1,2.5-2.1,4.1v12.7c0,1.7,0.7,3.1,2,4.1c1.3,1,2.9,1.5,4.6,1.5c1.6,0,3.1-0.5,4.5-1.6
			C715.9,888,716.5,886.7,716.5,885.1z"/>
		<path d="M802.9,902.7h-18.4V837c0-2-0.8-3.7-2.3-5c-1.5-1.3-3.3-2-5.3-2c-1.7,0-3.4,0.7-4.9,2.2c-1.5,1.5-2.3,3.1-2.3,4.8v65.7
			h-18.4v-68.6c0-3.5,1.7-7,5.2-10.7c3.5-3.6,7-5.4,10.4-5.4h20.3c3.6,0,7.2,1.8,10.5,5.3c3.4,3.5,5.1,7.1,5.1,10.8V902.7z"/>
		<path d="M103.4,1044.7c0,2.7-1.8,5.4-5.4,8.2c-3.4,2.7-6.5,4.1-9.3,4.1H67.4c-3.4,0-6.8-1.8-10.1-5.3c-3.3-3.5-5-7-5-10.4v-69.7
			h18.4v67.3c0,4.1,2.5,6.1,7.6,6.1c1.9,0,3.5-0.6,5-1.7c1.4-1.1,2.2-2.6,2.2-4.4v-30.8h18V1044.7z"/>
		<path d="M169.2,1041.7c0,3.7-2,7.2-5.9,10.6c-3.8,3.2-7.6,4.8-11.3,4.8h-17.2c-3.5,0-7-1.7-10.6-5.1s-5.3-6.8-5.3-10.3v-19.6h17.7
			v16.3c0,1.6,0.9,3.1,2.6,4.3c1.6,1.2,3.2,1.8,4.9,1.8c1.5,0,3.1-0.6,4.6-1.9c1.6-1.3,2.4-2.7,2.4-4.1v-30.7c0-2.1-1.3-4.2-3.8-6.4
			c-1.7-1.4-4.3-3.6-7.7-6.6c-3.4-3-6.1-6.6-8.1-10.8v-11.2h17.7c0,4.8,1.2,8.8,3.6,11.8c1.2,1.4,4.4,4.2,9.5,8.4
			c4.5,3.6,6.8,6.7,6.8,9.2V1041.7z"/>
		<path d="M237.1,987.5c-4.3-0.9-6.3-1.4-6.1-1.4c-3.5,0-5.2,2.4-5.2,7.2v2.3c0,0.8,0,1.5,0,2.3h-14.6c0-0.6,0-1.4,0-2.6s0-2,0-2.6
			c0-6-1.4-9-4.3-9c-1,0-2,0.5-2.9,1.6c-0.9,1-1.3,2.1-1.3,3.2v20.2h22.1c2.7,0,5.3,1.1,7.7,3.2c2.4,2.1,3.6,4.5,3.6,7.2v23.6
			c0,3.2-1.7,6.5-5.1,9.7c-3.4,3.3-6.7,4.9-10,4.9h-21.3c-3.4,0-6.9-1.7-10.3-5.2c-3.5-3.5-5.2-6.9-5.2-10.3v-57.6
			c0-2.7,1-5.4,3.1-8.1c2.2-2.8,4.6-4.2,7.3-4.2h16.1c2.7,0,5.2,1.6,7.7,4.7c1.9-2.1,3.6-3.5,4.9-4.2c1.3-0.7,3.4-1,6.2-1
			c1.7,0,3.1,0.1,4.1,0.4c0.8,0.3,2,0.6,3.5,1V987.5z M216.8,1038.9v-11.3c0-1.8-0.6-3.3-1.9-4.4c-1.3-1.1-2.8-1.7-4.7-1.7
			c-4.7,0-7,2-7,6.1v11.3c0,1.7,0.7,3.2,2,4.4c1.3,1.2,2.9,1.8,4.6,1.8c1.9,0,3.6-0.5,5-1.6C216.2,1042.3,216.8,1040.8,216.8,1038.9
			z"/>
		<path d="M302.1,1041.2c0,3.3-1.8,6.8-5.5,10.3c-3.7,3.6-7.2,5.3-10.6,5.3h-20.5c-3.2,0-6.6-1.6-10-4.9c-3.4-3.3-5.2-6.6-5.2-9.8
			v-20.5h18.5v15.7c0,2,0.7,3.8,2.2,5.1s3.3,2,5.3,2c1.7,0,3.3-0.8,4.8-2.3c1.5-1.5,2.3-3.2,2.3-4.9v-46.6c0-2-0.7-3.7-2.2-5.1
			c-1.5-1.4-3.3-2-5.3-2c-3.3,0-5.5,1.4-6.4,4.3c-0.5,1.4-0.7,4.3-0.7,8.6h-18.5v-10.5c3.8-9.8,9.2-14.7,16.1-14.7h19
			c3.6,0,7.2,1.7,11,5.2c3.8,3.4,5.7,7,5.7,10.5V1041.2z"/>
		<path d="M368.7,1041.6c0,3.4-1.7,6.7-5.2,10.1c-3.5,3.4-6.9,5-10.3,5h-21.3c-3.2,0-6.5-1.6-9.7-4.9c-3.3-3.2-4.9-6.5-4.9-9.7
			v-18.6h18.4v14.3c0,2,0.8,3.7,2.3,4.9c1.4,1.2,3.2,1.8,5.3,1.8c2,0,3.6-0.6,5-1.9c1.4-1.3,2.1-2.9,2.1-4.8v-17.5
			c0-4.4-2.5-6.7-7.6-6.7v-11.9c5.1,0,7.6-3,7.6-9c0-6.3-2.5-9.4-7.6-9.4c-3.2,0-5.3,1.4-6.3,4.3c-0.6,1.6-0.9,4.4-0.9,8.5h-18.4
			v-10.3c4.6-9.8,10.3-14.7,16.9-14.7h19.4c3.5,0,6.9,1.6,10.2,4.9s4.9,6.7,4.9,10.2v9.9c0,3.6-3.2,7-9.5,10.5
			c3.3,1.3,5.5,2.2,6.4,2.8c2.1,1.4,3.1,3.3,3.1,5.7V1041.6z"/>
		<path d="M457.4,1056.6h-17.5v-30.9c0-1.6-0.6-2.9-1.7-4c-1.1-1.1-2.5-1.6-4-1.6c-1.5,0-2.8,0.6-3.9,1.7c-1.1,1.1-1.7,2.4-1.7,3.9
			v11.9h-17.1v-11.9c0-1.6-0.5-2.9-1.6-4c-1.1-1.1-2.4-1.6-4-1.6c-1.3,0-2.5,0.6-3.6,1.8c-1.1,1.2-1.6,2.5-1.6,3.8v30.9h-18v-37
			c0-5.6,3.9-11,11.7-16.4c4.9-3.1,12.1-7.8,21.7-14.2c7.8-5.5,11.7-11.2,11.7-17.2h18v8.5c-2.1,4.6-5.6,8.7-10.5,12.3
			c-3.1,2.3-7.8,5-14.2,8.1c-6.4,3.1-10.4,5.3-12.2,6.6c3.1,0.4,5.2,0.8,6.2,1.3c1.4,0.6,3.1,1.9,5.2,4c3.9-3.1,7-4.7,9.5-4.7h12.3
			c3.6,0,7.1,1.7,10.5,5.1c3.4,3.4,5.1,6.9,5.1,10.5V1056.6z"/>
		<path d="M524.7,1057.4h-18.4v-65.7c0-2-0.8-3.7-2.3-5c-1.5-1.3-3.3-2-5.3-2c-1.7,0-3.4,0.7-4.9,2.2c-1.5,1.5-2.3,3.1-2.3,4.8v65.7
			h-18.4v-68.6c0-3.5,1.7-7,5.2-10.7c3.5-3.6,7-5.4,10.4-5.4h20.3c3.6,0,7.2,1.8,10.5,5.3c3.4,3.5,5.1,7.1,5.1,10.8V1057.4z"/>
		<path d="M592.2,1044.7c0,2.7-1.8,5.4-5.4,8.2c-3.4,2.7-6.5,4.1-9.3,4.1h-21.4c-3.4,0-6.8-1.8-10.1-5.3c-3.3-3.5-5-7-5-10.4v-69.7
			h18.4v67.3c0,4.1,2.5,6.1,7.6,6.1c1.9,0,3.5-0.6,5-1.7s2.2-2.6,2.2-4.4v-30.8h18V1044.7z"/>
		<path d="M691.4,1057.1h-18.5v-68.5c0-3.1-2.1-4.7-6.2-4.7c-1.5,0-2.8,0.4-3.9,1.2c-1.2,0.9-1.8,2-1.8,3.5v52.8
			c0,3.4-1.9,6.9-5.7,10.4c-3.8,3.5-7.5,5.3-10.9,5.3h-20c-3.5,0-7.1-1.7-10.9-5.2c-3.8-3.5-5.7-7-5.7-10.5v-54.7
			c0-3.4,1.9-7,5.7-10.5c3.8-3.4,7.4-5.2,10.9-5.2H640c3.8,0.5,7.6,2.3,11.6,5.7c1.8-1.3,3.6-2.7,5.3-4c2-1.1,3.8-1.6,5.4-1.6h15.2
			c3.2,0,6.3,1.4,9.3,4.1s4.5,5.6,4.5,8.8V1057.1z M641.9,1037.6V990c0-1.5-0.9-2.9-2.7-4.3c-1.7-1.3-3.3-1.9-4.9-1.9
			c-1.6,0-3.2,0.6-4.9,1.9c-1.7,1.3-2.6,2.7-2.6,4.2v47.6c0,1.7,0.9,3.3,2.6,4.7c1.6,1.3,3.3,2,5,2c1.7,0,3.4-0.7,5.1-2.1
			C641.1,1040.7,641.9,1039.2,641.9,1037.6z"/>
		<path d="M757.6,1041.6c0,3.4-1.7,6.7-5.2,10.1c-3.5,3.4-6.9,5-10.3,5h-21.3c-3.2,0-6.5-1.6-9.7-4.9c-3.3-3.2-4.9-6.5-4.9-9.7
			v-18.6h18.4v14.3c0,2,0.8,3.7,2.3,4.9c1.4,1.2,3.2,1.8,5.3,1.8c2,0,3.6-0.6,5-1.9c1.4-1.3,2.1-2.9,2.1-4.8v-17.5
			c0-4.4-2.5-6.7-7.6-6.7v-11.9c5.1,0,7.6-3,7.6-9c0-6.3-2.5-9.4-7.6-9.4c-3.2,0-5.3,1.4-6.3,4.3c-0.6,1.6-0.9,4.4-0.9,8.5H706
			v-10.3c4.6-9.8,10.3-14.7,16.9-14.7h19.4c3.5,0,6.9,1.6,10.2,4.9s4.9,6.7,4.9,10.2v9.9c0,3.6-3.2,7-9.5,10.5
			c3.3,1.3,5.5,2.2,6.4,2.8c2.1,1.4,3.1,3.3,3.1,5.7V1041.6z"/>
		<path d="M822.9,1057.4h-18.4v-65.7c0-2-0.8-3.7-2.3-5c-1.5-1.3-3.3-2-5.3-2c-1.7,0-3.4,0.7-4.9,2.2c-1.5,1.5-2.3,3.1-2.3,4.8v65.7
			h-18.4v-68.6c0-3.5,1.7-7,5.2-10.7c3.5-3.6,7-5.4,10.4-5.4h20.3c3.6,0,7.2,1.8,10.5,5.3c3.4,3.5,5.1,7.1,5.1,10.8V1057.4z"/>
		<path d="M890.4,1044.7c0,2.7-1.8,5.4-5.4,8.2c-3.4,2.7-6.5,4.1-9.3,4.1h-21.4c-3.4,0-6.8-1.8-10.1-5.3c-3.3-3.5-5-7-5-10.4v-69.7
			h18.4v67.3c0,4.1,2.5,6.1,7.6,6.1c1.9,0,3.5-0.6,5-1.7s2.2-2.6,2.2-4.4v-30.8h18V1044.7z"/>
	</g>
</g>
<g>
	<path d="M389.8,668.2c0-5.1,2.9-8.5,7.7-10.6v-0.2c-4.3-2.1-6.2-5.5-6.2-9c0-6.7,5.9-11.2,13.6-11.2c8.8,0,12.8,5.3,12.8,10.3
		c0,3.5-1.8,7-6.3,9.2v0.2c4.5,1.7,7.8,5.2,7.8,10.3c0,7.3-6.1,12.2-14.9,12.2C394.7,679.4,389.8,673.9,389.8,668.2z M411.3,667.9
		c0-4.1-3.1-6.4-7.6-7.7c-3.8,1.1-6,3.8-6,7.2c-0.1,3.5,2.5,6.6,6.8,6.6C408.6,673.9,411.3,671.4,411.3,667.9z M398.5,648.1
		c0,3.3,2.8,5.3,6.7,6.4c2.8-0.8,5.1-3.1,5.1-6.1c0-2.8-1.7-5.8-5.8-5.8C400.6,642.6,398.5,645.1,398.5,648.1z"/>
	<path d="M424.5,674.4c0-2.9,2-5,4.8-5c2.8,0,4.8,2,4.8,5c0,2.8-1.9,5-4.8,5C426.4,679.4,424.5,677.3,424.5,674.4z"/>
	<path d="M438.8,678.7V674l4.8-4.5c9.6-8.9,14.1-13.8,14.2-19.2c0-3.6-1.9-6.8-7.3-6.8c-3.6,0-6.7,1.8-8.7,3.4l-2.3-5.5
		c2.9-2.4,7.4-4.2,12.5-4.2c9,0,13.4,5.7,13.4,12.4c0,7.2-5.1,12.9-12.2,19.5l-3.6,3.1v0.1h16.8v6.4H438.8z"/>
	<path d="M501.2,658.1c0,13.1-5.1,21.3-14.9,21.3c-9.4,0-14.4-8.5-14.5-21c0-12.7,5.4-21.2,14.9-21.2
		C496.6,637.2,501.2,646,501.2,658.1z M479.6,658.4c-0.1,9.9,2.7,15.1,7,15.1c4.5,0,6.9-5.5,6.9-15.3c0-9.5-2.3-15.1-6.9-15.1
		C482.4,643.1,479.5,648.2,479.6,658.4z"/>
	<path d="M506.5,674.4c0-2.9,2-5,4.8-5c2.8,0,4.8,2,4.8,5c0,2.8-1.9,5-4.8,5C508.5,679.4,506.5,677.3,506.5,674.4z"/>
	<path d="M532.9,644.9h-0.1l-7.5,3.8l-1.3-5.8l9.9-4.9h6.5v40.8h-7.5V644.9z"/>
	<path d="M555,674.4c0-2.9,2-5,4.8-5c2.8,0,4.8,2,4.8,5c0,2.8-1.9,5-4.8,5C556.9,679.4,555,677.3,555,674.4z"/>
</g>
<g>
	<path d="M389.8,1205.2c0-5.1,2.9-8.5,7.7-10.6v-0.2c-4.3-2.1-6.2-5.5-6.2-9c0-6.7,5.9-11.2,13.6-11.2c8.8,0,12.8,5.3,12.8,10.3
		c0,3.5-1.8,7-6.3,9.2v0.2c4.5,1.7,7.8,5.2,7.8,10.3c0,7.3-6.1,12.2-14.9,12.2C394.7,1216.4,389.8,1210.9,389.8,1205.2z
		 M411.3,1204.9c0-4.1-3.1-6.4-7.6-7.7c-3.8,1.1-6,3.8-6,7.2c-0.1,3.5,2.5,6.6,6.8,6.6C408.6,1210.9,411.3,1208.4,411.3,1204.9z
		 M398.5,1185.1c0,3.3,2.8,5.3,6.7,6.4c2.8-0.8,5.1-3.1,5.1-6.1c0-2.8-1.7-5.8-5.8-5.8C400.6,1179.6,398.5,1182.1,398.5,1185.1z"/>
	<path d="M424.5,1211.4c0-2.9,2-5,4.8-5c2.8,0,4.8,2,4.8,5c0,2.8-1.9,5-4.8,5C426.4,1216.4,424.5,1214.3,424.5,1211.4z"/>
	<path d="M438.8,1215.7v-4.7l4.8-4.5c9.6-8.9,14.1-13.8,14.2-19.2c0-3.6-1.9-6.8-7.3-6.8c-3.6,0-6.7,1.8-8.7,3.4l-2.3-5.5
		c2.9-2.4,7.4-4.2,12.5-4.2c9,0,13.4,5.7,13.4,12.4c0,7.2-5.1,12.9-12.2,19.5l-3.6,3.1v0.1h16.8v6.4H438.8z"/>
	<path d="M501.2,1195.1c0,13.1-5.1,21.3-14.9,21.3c-9.4,0-14.4-8.5-14.5-21c0-12.7,5.4-21.2,14.9-21.2
		C496.6,1174.2,501.2,1183,501.2,1195.1z M479.6,1195.4c-0.1,9.9,2.7,15.1,7,15.1c4.5,0,6.9-5.5,6.9-15.3c0-9.5-2.3-15.1-6.9-15.1
		C482.4,1180.1,479.5,1185.2,479.6,1195.4z"/>
	<path d="M506.5,1211.4c0-2.9,2-5,4.8-5c2.8,0,4.8,2,4.8,5c0,2.8-1.9,5-4.8,5C508.5,1216.4,506.5,1214.3,506.5,1211.4z"/>
	<path d="M520.8,1215.7v-4.7l4.8-4.5c9.6-8.9,14.1-13.8,14.2-19.2c0-3.6-1.9-6.8-7.3-6.8c-3.6,0-6.7,1.8-8.7,3.4l-2.3-5.5
		c2.9-2.4,7.4-4.2,12.5-4.2c9,0,13.4,5.7,13.4,12.4c0,7.2-5.1,12.9-12.2,19.5l-3.6,3.1v0.1h16.8v6.4H520.8z"/>
	<path d="M555,1211.4c0-2.9,2-5,4.8-5c2.8,0,4.8,2,4.8,5c0,2.8-1.9,5-4.8,5C556.9,1216.4,555,1214.3,555,1211.4z"/>
</g>
</svg>
