<?xml version="1.0" encoding="utf-8"?>
<!-- Generator: Adobe Illustrator 18.0.0, SVG Export Plug-In . SVG Version: 6.00 Build 0)  -->
<!DOCTYPE svg PUBLIC "-//W3C//DTD SVG 1.1//EN" "http://www.w3.org/Graphics/SVG/1.1/DTD/svg11.dtd">
<svg version="1.1"
	 id="svg2" inkscape:version="0.48.4 r9939" sodipodi:docname="6.2014_02_16_18_28_07.2.svg" xmlns:sodipodi="http://sodipodi.sourceforge.net/DTD/sodipodi-0.dtd" xmlns:dc="http://purl.org/dc/elements/1.1/" xmlns:cc="http://creativecommons.org/ns#" xmlns:inkscape="http://www.inkscape.org/namespaces/inkscape" xmlns:svg="http://www.w3.org/2000/svg" xmlns:rdf="http://www.w3.org/1999/02/22-rdf-syntax-ns#"
	 xmlns="http://www.w3.org/2000/svg" xmlns:xlink="http://www.w3.org/1999/xlink" x="0px" y="0px" viewBox="-0.3 205.3 954.7 402.5"
	 enable-background="new -0.3 205.3 954.7 402.5" xml:space="preserve">
<g>
	<path fill="#FFFFFF" stroke="#000000" stroke-width="8" stroke-miterlimit="10" d="M930.2,603.9H24c-11.2,0-20.3-9.2-20.3-20.3
		V229.6c0-11.2,9.2-20.3,20.3-20.3h906.2c11.2,0,20.3,9.2,20.3,20.3v353.9C950.5,594.8,941.2,603.9,930.2,603.9z"/>
	<g>
		<path d="M440.5,435.5c0,4.4-2.2,8.6-6.5,12.8c-4.3,4.2-8.7,6.3-13,6.3h-25.9c-4.3,0-8.7-2.1-13-6.3c-4.4-4.2-6.6-8.5-6.6-12.8
			v-21.4c0-4.3,2.2-8.6,6.5-12.7c4.4-4.2,8.7-6.3,13.1-6.3H418v-20.7c0-2.7-1.2-5-3.5-6.8c-2.1-1.6-4.6-2.4-7.4-2.4
			c-6.9,0-10.4,4.4-10.4,13.2v1.3c0,0.4,0,0.8,0.1,1.2h-21.9v-13.3c4.9-11.9,11.2-17.9,19-17.9h28.3c4.2,0,8.3,2,12.4,6.1
			c4.1,4.1,6.1,8.2,6.1,12.4V435.5z M417.5,431.5v-13.8c0-2.4-1.1-4.2-3.3-5.6c-1.9-1.3-4.1-1.9-6.5-1.9c-2.4,0-4.6,0.6-6.4,1.9
			c-2.2,1.5-3.3,3.4-3.3,5.6v13.8c0,2.2,1,4,3,5.5c1.8,1.3,3.9,2,6.2,2c2.6,0,4.9-0.6,6.9-1.7C416.4,435.9,417.5,434,417.5,431.5z"
			/>
		<path d="M521,433.8c0,4.1-2.3,8.3-6.8,12.7c-4.5,4.4-8.8,6.5-13,6.5h-25.1c-3.9,0-8-2-12.2-6.1c-4.2-4-6.3-8-6.3-12v-25.1h22.7
			v19.2c0,2.5,0.9,4.6,2.7,6.3c1.8,1.7,4,2.5,6.5,2.5c2.1,0,4.1-0.9,5.9-2.8c1.9-1.9,2.8-3.9,2.8-6v-57c0-2.5-0.9-4.5-2.8-6.2
			c-1.8-1.7-4-2.5-6.5-2.5c-4.1,0-6.7,1.7-7.9,5.2c-0.6,1.7-0.8,5.2-0.8,10.5h-22.7v-12.8c4.7-12,11.3-18,19.8-18h23.2
			c4.4,0,8.8,2.1,13.5,6.3c4.6,4.2,6.9,8.5,6.9,12.9V433.8z"/>
		<path d="M617.6,428.4c0,5.9-2.4,11.6-7.2,17.3c-5.1,5.8-10.5,8.7-16.2,8.7H563c-5.7,0-11.1-2.9-16.2-8.8
			c-4.9-5.7-7.4-11.4-7.4-17.2v-34.7h23v31.1c0,4.4,1.7,7.8,5.1,10.3c3,2.2,6.8,3.3,11.3,3.3c4.5,0,8.1-1.1,11.1-3.3
			c3.2-2.5,4.8-5.9,4.8-10.2v-25.9c0-2.8-2.1-5.4-6.2-7.7c-0.7,2.1-1,4.5-1,7.1c0,1.6,0.1,4.1,0.4,7.3c0.3,3.3,0.4,5.7,0.4,7.3h-20
			v-18.2c0-1.8,1.5-4.5,4.4-8.2c-3.9-1.5-7.7-3-11.6-4.5c-3.1-2.1-4.7-4.8-4.7-7.9v-12.3c0-3.4,1.5-6.5,4.5-9.3
			c3-2.8,6.2-4.2,9.6-4.2h15.9c9.4,0,14.1,6.5,14.1,19.4c0,4.7-0.3,7.5-0.8,8.5c-1.4,1.5-3.1,3.4-4.9,5.6c5.3,2,8.5,3.3,9.7,3.8
			c3.4,1.6,6.3,3.5,8.6,5.7c2.9,2.8,4.3,6.5,4.3,11.1V428.4z M583.8,369.8c0-1.6-0.5-3-1.5-4.2c-1-1.2-2.3-1.8-3.9-1.8
			c-1.5,0-2.8,0.6-3.8,1.8c-1.1,1.2-1.6,2.6-1.6,4.1s0.5,2.9,1.5,4.2c1,1.3,2.3,1.9,3.8,1.9s2.8-0.6,3.9-1.8
			C583.3,372.8,583.8,371.4,583.8,369.8z"/>
		<path d="M728.3,452.7h-21.4v-37.8c0-1.9-0.7-3.5-2.1-4.9c-1.4-1.3-3-2-4.9-2c-1.8,0-3.4,0.7-4.8,2.1c-1.4,1.4-2.1,3-2.1,4.8v14.5
			H672v-14.5c0-1.9-0.7-3.6-2-4.9s-3-2-4.9-2c-1.6,0-3.1,0.7-4.4,2.2c-1.3,1.5-2,3-2,4.7v37.8h-22v-45.3c0-6.8,4.8-13.5,14.3-20.1
			c5.9-3.8,14.8-9.6,26.5-17.4c9.6-6.7,14.3-13.7,14.3-21.1h22v10.4c-2.6,5.6-6.8,10.6-12.9,15c-3.8,2.8-9.6,6.1-17.4,10
			c-7.8,3.8-12.8,6.5-15,8.1c3.8,0.5,6.3,1,7.6,1.5c1.7,0.7,3.8,2.4,6.3,4.9c4.7-3.9,8.6-5.8,11.6-5.8h15.1c4.4,0,8.6,2.1,12.8,6.3
			c4.2,4.2,6.3,8.5,6.3,12.8V452.7z"/>
		<path d="M836.8,453.7h-21.9v-83.7c0-3.8-2.3-5.8-6.9-5.8c-4.6,0-6.9,1.9-6.9,5.8v32.8H781v-32.8c0-3.8-2.3-5.8-6.9-5.8
			c-4.2,0-6.3,1.9-6.3,5.8v83.7h-21.9v-88.9c0-3.8,1.6-7.3,4.9-10.6c3.3-3.3,6.8-4.9,10.6-4.9h20.3c2.2,0,4.1,0.8,5.8,2.4
			c0.7,0.7,2.1,2.3,4.2,5.1c3.9-5,7.3-7.5,10.1-7.5h19.6c3.8,0,7.3,1.6,10.6,4.9c3.3,3.3,4.9,6.8,4.9,10.6V453.7z"/>
	</g>
	<g>
		<path d="M143.2,304.7h46.8v77.1h78.3v46.8h-78.3v79.9h-46.8v-79.9H64.9v-46.8h78.3V304.7z"/>
	</g>
</g>
</svg>
