<?xml version="1.0" encoding="utf-8"?>
<!-- Generator: Adobe Illustrator 18.0.0, SVG Export Plug-In . SVG Version: 6.00 Build 0)  -->
<!DOCTYPE svg PUBLIC "-//W3C//DTD SVG 1.1//EN" "http://www.w3.org/Graphics/SVG/1.1/DTD/svg11.dtd">
<svg version="1.1"
	 id="svg2" inkscape:version="0.48.4 r9939" sodipodi:docname="6.2014_02_16_18_28_07.2.svg" xmlns:sodipodi="http://sodipodi.sourceforge.net/DTD/sodipodi-0.dtd" xmlns:dc="http://purl.org/dc/elements/1.1/" xmlns:cc="http://creativecommons.org/ns#" xmlns:inkscape="http://www.inkscape.org/namespaces/inkscape" xmlns:svg="http://www.w3.org/2000/svg" xmlns:rdf="http://www.w3.org/1999/02/22-rdf-syntax-ns#"
	 xmlns="http://www.w3.org/2000/svg" xmlns:xlink="http://www.w3.org/1999/xlink" x="0px" y="0px" viewBox="-0.3 205.3 954.7 402.5"
	 enable-background="new -0.3 205.3 954.7 402.5" xml:space="preserve">
<path fill="#FFFFFF" stroke="#000000" stroke-width="8" stroke-miterlimit="10" d="M930.2,603.9H24c-11.2,0-20.3-9.2-20.3-20.3
	V229.6c0-11.2,9.2-20.3,20.3-20.3h906.2c11.2,0,20.3,9.2,20.3,20.3v353.9C950.5,594.8,941.2,603.9,930.2,603.9z"/>
<g>
	<path d="M143.2,304.7h46.8v77.1h78.3v46.8h-78.3v79.9h-46.8v-79.9H64.9v-46.8h78.3V304.7z"/>
</g>
<path d="M889.5,353c-1.7-6.3-7.4-10.8-13.7-10.8H735.3H688l-6.8-6.8c-1.7-1.7-4.6-2.9-6.8-2.9h-5.7h-9.1h-28.4l47.3-33l-45-33v-14.2
	c0-2.9-2.2-4.6-4.6-4.6h-14.2c-2.9,0-4.6,2.2-4.6,4.6v14.2l-45.4,33.2l47.3,33h-28.4h-9.1h-5.8c-2.2,0-5.1,1.2-6.8,2.9l-6.8,6.8
	h-47.3H367.2c-6.3,0-12,4.6-13.7,10.8L337,418.5V504h47.3v9.7h28.4l0,0c0,10.3,8.6,18.2,18.8,18.2s18.8-8,18.8-18.2h0.5h28.4l0,0
	c0,10.3,8.6,18.2,18.8,18.2c10.3,0,18.8-8,18.8-18.2h208.9c0,10.3,8.6,18.2,18.8,18.2h0.5c10.3,0,18.2-8.6,18.2-18.2h0.5h28.4l0,0
	c0,10.3,8.6,18.2,18.8,18.2h0.5c10.3,0,18.2-8.6,18.2-18.2h0.5h28.4V504H906v-85.4L889.5,353z M396.1,411L396.1,411
	c0,3.9-3.4,7.4-7.4,7.4H366h-0.5c-5.1,0-9.1-4.6-9.1-9.7c0-0.5,0-1.7,0.5-2.2l8.6-35.3c1.2-2.9,3.9-5.1,6.8-5.1h17.1
	c3.9,0,7.4,3.4,7.4,7.4V411H396.1z M450.7,486.7c0,3.9-3.4,6.8-7.4,6.8h-24c-3.9,0-7.4-2.9-7.4-6.8V372.9c0-3.9,3.4-7.4,7.4-7.4
	l24,0.5c3.9,0,7.4,2.9,7.4,6.8V486.7z M497.5,486.7c0,3.9-2.9,6.8-6.8,6.8h-24c-3.9,0-6.8-2.9-6.8-6.8V372.9c0-3.9,2.9-7.4,6.8-7.4
	l24,0.5c3.9,0,6.8,2.9,6.8,6.8V486.7z M575.4,411c0,3.9-3.4,7.4-7.4,7.4h-47.3h-0.5c-3.9,0-6.8-3.4-6.8-7.4v-38.2
	c0-3.9,2.9-7.4,6.8-7.4h0.5L568,366c3.9,0,7.4,2.9,7.4,6.8V411z M576.6,299.6l45-33l45,33l-45,31.3L576.6,299.6z M652.2,411
	c0,3.9-3.4,7.4-7.4,7.4h-47.3c-3.9,0-7.4-3.4-7.4-7.4v-38.2c0-3.9,3.4-7.4,7.4-7.4l47.3,0.5c3.9,0,7.4,2.9,7.4,6.8V411z M729.6,411
	c0,3.9-3.4,7.4-7.4,7.4H675h-0.5c-3.9,0-6.8-3.4-6.8-7.4v-38.2c0-3.9,2.9-7.4,6.8-7.4h0.5l47.3,0.5c3.9,0,7.4,2.9,7.4,6.8V411z
	 M782,486.7c0,3.4-2.9,6.3-6.3,6.8h-23.3h-0.5c-3.9,0-6.8-2.9-6.8-6.8V372.9c0-3.9,2.9-7.4,6.8-7.4h0.5l24,0.5
	c3.4,0,6.3,3.4,6.3,6.8v113.8H782z M830.3,486.7c0,3.9-3.4,6.8-7.4,6.8h-24c-3.9,0-7.4-2.9-7.4-6.8V372.9c0-3.9,3.4-7.4,7.4-7.4
	l24,0.5c3.9,0,7.4,2.9,7.4,6.8V486.7z M877,418.5h-23.3c-3.9,0-7.4-3.4-7.4-7.4l0,0V373c0-3.9,3.4-7.4,7.4-7.4h17.1
	c3.4,0,6.3,2.2,6.8,5.1l8,35.3c0,0.5,0.5,1.7,0.5,2.2C886.1,413.9,882.2,418.5,877,418.5z"/>
</svg>
