<?xml version="1.0" encoding="utf-8"?>
<!-- Generator: Adobe Illustrator 18.0.0, SVG Export Plug-In . SVG Version: 6.00 Build 0)  -->
<!DOCTYPE svg PUBLIC "-//W3C//DTD SVG 1.1//EN" "http://www.w3.org/Graphics/SVG/1.1/DTD/svg11.dtd">
<svg version="1.1"
	 id="svg2" inkscape:version="0.48.4 r9939" sodipodi:docname="6.2014_02_16_18_28_07.2.svg" xmlns:sodipodi="http://sodipodi.sourceforge.net/DTD/sodipodi-0.dtd" xmlns:dc="http://purl.org/dc/elements/1.1/" xmlns:cc="http://creativecommons.org/ns#" xmlns:inkscape="http://www.inkscape.org/namespaces/inkscape" xmlns:svg="http://www.w3.org/2000/svg" xmlns:rdf="http://www.w3.org/1999/02/22-rdf-syntax-ns#"
	 xmlns="http://www.w3.org/2000/svg" xmlns:xlink="http://www.w3.org/1999/xlink" x="0px" y="0px" viewBox="-0.3 205.3 954.7 402.5"
	 enable-background="new -0.3 205.3 954.7 402.5" xml:space="preserve">
<path fill="#FFFFFF" stroke="#000000" stroke-width="8" stroke-miterlimit="10" d="M930.2,603.9H24c-11.2,0-20.3-9.2-20.3-20.3
	V229.6c0-11.2,9.2-20.3,20.3-20.3h906.2c11.2,0,20.3,9.2,20.3,20.3v353.9C950.5,594.8,941.2,603.9,930.2,603.9z"/>
<g>
	<path d="M143.2,304.7h46.8v77.1h78.3v46.8h-78.3v79.9h-46.8v-79.9H64.9v-46.8h78.3V304.7z"/>
</g>
<path id="path10982" d="M421.4,272.8c-9,0-17.2,4.8-21.6,12.6l-43.7,75.8c-2.2,3.9-3.3,8.1-3.3,12.6V416v49.5
	c0,13.9,11.2,25.1,25.1,25.1h12.6c0-34.6,28-62.6,62.6-62.6s62.6,28,62.6,62.6h200.2c0-34.6,28-62.6,62.6-62.6s62.6,28,62.6,62.6
	h37.5c13.9,0,25.1-11.2,25.1-25.1V416v-42.3c0-2.6-0.4-5.4-1.3-7.8L877,290.1c-3.5-10.3-12.9-17.1-23.8-17.1L421.4,272.8
	L421.4,272.8z M424.5,290.3h15.9H453c7,0,12.6,5.6,12.6,12.6v50c0,7-5.6,12.6-12.6,12.6h-12.6h-44.9c-7,0-12.6-5.6-12.6-12.6
	c0-2.2,0.7-4.3,1.7-6.2l28.8-50C415.8,292.8,419.8,290.3,424.5,290.3z M502.7,290.3h75c7,0,12.6,5.6,12.6,12.6v50
	c0,7-5.6,12.6-12.6,12.6h-75c-7,0-12.6-5.6-12.6-12.6v-50C490.4,295.9,495.9,290.3,502.7,290.3z M628,290.3h75
	c7,0,12.6,5.6,12.6,12.6v50c0,7-5.6,12.6-12.6,12.6h-75c-7,0-12.6-5.6-12.6-12.6v-50C615.4,295.9,621,290.3,628,290.3z M753.1,290.3
	h37.5h33.8c5.6,0,10.4,3.6,12,9l14.6,50c2,6.7-1.9,13.6-8.4,15.6c-1.2,0.4-2.5,0.6-3.6,0.6h-48.4h-37.5c-7,0-12.6-5.6-12.6-12.6v-50
	C740.5,295.9,746.2,290.3,753.1,290.3z"/>
<path id="path10984" inkscape:connector-curvature="0" d="M452.9,440.5c-27.7,0-50,22.5-50,50s22.5,50,50,50s50-22.5,50-50
	S480.5,440.5,452.9,440.5z M452.9,465.6c13.9,0,25.1,11.2,25.1,25.1c0,13.9-11.2,25.1-25.1,25.1c-13.9,0-25.1-11.3-25.1-25.2
	C427.8,476.6,438.9,465.6,452.9,465.6z"/>
<path id="path10994" inkscape:connector-curvature="0" d="M778.1,440.5c-27.7,0-50,22.5-50,50s22.5,50,50,50c27.7,0,50-22.5,50-50
	S805.7,440.5,778.1,440.5z M778.1,465.6c13.9,0,25.1,11.2,25.1,25.1c0,13.9-11.2,25.1-25.1,25.1c-13.9,0-25.1-11.2-25.1-25.1
	S764.2,465.6,778.1,465.6z"/>
</svg>
