<?xml version="1.0" encoding="utf-8"?>
<!-- Generator: Adobe Illustrator 18.0.0, SVG Export Plug-In . SVG Version: 6.00 Build 0)  -->
<!DOCTYPE svg PUBLIC "-//W3C//DTD SVG 1.1//EN" "http://www.w3.org/Graphics/SVG/1.1/DTD/svg11.dtd">
<svg version="1.1"
	 id="svg2" inkscape:version="0.48.4 r9939" sodipodi:docname="6.2014_02_16_18_28_07.2.svg" xmlns:sodipodi="http://sodipodi.sourceforge.net/DTD/sodipodi-0.dtd" xmlns:dc="http://purl.org/dc/elements/1.1/" xmlns:cc="http://creativecommons.org/ns#" xmlns:inkscape="http://www.inkscape.org/namespaces/inkscape" xmlns:svg="http://www.w3.org/2000/svg" xmlns:rdf="http://www.w3.org/1999/02/22-rdf-syntax-ns#"
	 xmlns="http://www.w3.org/2000/svg" xmlns:xlink="http://www.w3.org/1999/xlink" x="0px" y="0px"
	 viewBox="590.4 279.3 623.5 599.5" enable-background="new 590.4 279.3 623.5 599.5" xml:space="preserve">
<g>
	<path d="M600.3,858.8c0-3.9,2.3-6.5,5.9-8.1v-0.1c-3.3-1.6-4.8-4.2-4.8-6.9c0-5.1,4.5-8.5,10.4-8.5c6.7,0,9.8,4,9.8,7.9
		c0,2.6-1.4,5.4-4.8,7.1v0.1c3.4,1.3,6,4,6,7.9c0,5.6-4.7,9.3-11.4,9.3C604.1,867.4,600.3,863.2,600.3,858.8z M616.8,858.5
		c0-3.2-2.4-4.9-5.8-5.9c-2.9,0.9-4.6,2.9-4.6,5.5c-0.1,2.6,1.9,5,5.2,5C614.7,863.2,616.8,861.2,616.8,858.5z M607,843.4
		c0,2.5,2.1,4.1,5.1,4.9c2.1-0.6,3.9-2.4,3.9-4.7c0-2.2-1.3-4.4-4.5-4.4C608.6,839.2,607,841.1,607,843.4z"/>
	<path d="M626.9,863.6c0-2.2,1.5-3.8,3.6-3.8c2.2,0,3.6,1.5,3.6,3.8c0,2.2-1.4,3.8-3.6,3.8C628.3,867.4,626.9,865.7,626.9,863.6z"/>
	<path d="M637.8,866.8v-3.6l3.7-3.4c7.3-6.8,10.8-10.6,10.8-14.7c0-2.8-1.5-5.2-5.6-5.2c-2.7,0-5.1,1.4-6.7,2.6l-1.7-4.2
		c2.3-1.8,5.7-3.2,9.6-3.2c6.9,0,10.3,4.4,10.3,9.5c0,5.5-3.9,9.9-9.4,14.9l-2.7,2.4v0.1H659v4.9H637.8z"/>
	<path d="M663.5,866.8v-3.6l3.7-3.4c7.3-6.8,10.8-10.6,10.8-14.7c0-2.8-1.5-5.2-5.6-5.2c-2.7,0-5.1,1.4-6.7,2.6l-1.7-4.2
		c2.3-1.8,5.7-3.2,9.6-3.2c6.9,0,10.3,4.4,10.3,9.5c0,5.5-3.9,9.9-9.4,14.9l-2.7,2.4v0.1h12.8v4.9H663.5z"/>
	<path d="M689.6,863.6c0-2.2,1.5-3.8,3.6-3.8c2.2,0,3.6,1.5,3.6,3.8c0,2.2-1.4,3.8-3.6,3.8C691.1,867.4,689.6,865.7,689.6,863.6z"/>
	<path d="M709.9,840.9L709.9,840.9l-5.8,2.9l-1-4.5l7.6-3.7h4.9v31.2h-5.7V840.9z"/>
	<path d="M726.7,863.6c0-2.2,1.5-3.8,3.6-3.8c2.2,0,3.6,1.5,3.6,3.8c0,2.2-1.4,3.8-3.6,3.8C728.2,867.4,726.7,865.7,726.7,863.6z"/>
</g>
<g id="layer1" transform="translate(0,647.63782)" inkscape:groupmode="layer" inkscape:label="Layer 1">
	<rect id="rect10118" x="1061" y="-367.6" fill="#FFFFFF" width="152.2" height="517.3"/>
	<path id="path10108" inkscape:connector-curvature="0" sodipodi:nodetypes="cccccc" fill="#FF0000" d="M1073.7,138.7h126.8v-55
		l-63.4-55l-63.4,55V138.7z"/>
	<path id="path10110" inkscape:connector-curvature="0" sodipodi:nodetypes="ccccccc" fill="#FF0000" d="M1073.7,28.7l63.4-55
		l63.4,55V-81.4l-63.4-55l-63.4,55V28.7z"/>
	<path id="path10112" inkscape:connector-curvature="0" sodipodi:nodetypes="ccccccc" fill="#FF0000" d="M1073.7-136.4l63.4-55
		l63.4,55v-110.1l-63.4-55l-63.4,55V-136.4z"/>
	<path id="path10114" inkscape:connector-curvature="0" sodipodi:nodetypes="cccccc" fill="#FF0000" d="M1073.7-301.6l63.4-55
		l63.4,55v-55h-126.8V-301.6z"/>
	<rect id="rect10120" x="1061.3" y="-367.3" fill="none" stroke="#000000" stroke-width="2" width="151.5" height="516.7"/>
</g>
<g id="layer1_1_" transform="translate(0,647.63782)" inkscape:groupmode="layer" inkscape:label="Layer 1">
	<rect id="rect10118_1_" x="591.1" y="-367.6" fill="#FFFFFF" width="152.2" height="517.3"/>
	<path id="path10069" inkscape:connector-curvature="0" sodipodi:nodetypes="cccc" fill="#FF0000" d="M603.7,138.7h126.8L603.7,28.7
		V138.7z"/>
	<path id="path10071" inkscape:connector-curvature="0" sodipodi:nodetypes="ccccc" fill="#FF0000" d="M603.7-26.4L730.5,83.7V-26.4
		L603.7-136.4V-26.4z"/>
	<path id="path10073" inkscape:connector-curvature="0" sodipodi:nodetypes="ccccc" fill="#FF0000" d="M603.7-191.5L730.5-81.4
		v-110.1L603.7-301.6V-191.5z"/>
	<path id="path10075" inkscape:connector-curvature="0" sodipodi:nodetypes="cccc" fill="#FF0000" d="M730.5-356.6H603.7
		l126.8,110.1V-356.6z"/>
	<rect id="rect10089" x="591.4" y="-367.3" fill="none" stroke="#000000" stroke-width="2" width="151.5" height="516.7"/>
</g>
<g id="layer1_2_" transform="translate(0,647.63782)" inkscape:groupmode="layer" inkscape:label="Layer 1">
	<rect id="rect10118_2_" x="826" y="-367.6" fill="#FFFFFF" width="152.2" height="517.3"/>
	<path id="path10069_1_" inkscape:connector-curvature="0" sodipodi:nodetypes="cccc" fill="#FF0000" d="M965.5,138.7H838.7
		L965.5,28.7V138.7z"/>
	<path id="path10071_1_" inkscape:connector-curvature="0" sodipodi:nodetypes="ccccc" fill="#FF0000" d="M965.5-26.4L838.7,83.7
		V-26.4l126.8-110.1V-26.4z"/>
	<path id="path10073_1_" inkscape:connector-curvature="0" sodipodi:nodetypes="ccccc" fill="#FF0000" d="M965.5-191.5L838.7-81.4
		v-110.1l126.8-110.1V-191.5z"/>
	<path id="path10075_1_" inkscape:connector-curvature="0" sodipodi:nodetypes="cccc" fill="#FF0000" d="M838.7-356.6h126.8
		L838.7-246.5V-356.6z"/>
	<rect id="rect10089_1_" x="826.3" y="-367.3" fill="none" stroke="#000000" stroke-width="2" width="151.5" height="516.7"/>
</g>
<g>
	<path d="M835.3,858.8c0-3.9,2.3-6.5,5.9-8.1v-0.1c-3.3-1.6-4.8-4.2-4.8-6.9c0-5.1,4.5-8.5,10.4-8.5c6.7,0,9.8,4,9.8,7.9
		c0,2.6-1.4,5.4-4.8,7.1v0.1c3.4,1.3,6,4,6,7.9c0,5.6-4.7,9.3-11.4,9.3C839.1,867.4,835.3,863.2,835.3,858.8z M851.7,858.5
		c0-3.2-2.4-4.9-5.8-5.9c-2.9,0.9-4.6,2.9-4.6,5.5c-0.1,2.6,1.9,5,5.2,5C849.7,863.2,851.7,861.2,851.7,858.5z M842,843.4
		c0,2.5,2.1,4.1,5.1,4.9c2.1-0.6,3.9-2.4,3.9-4.7c0-2.2-1.3-4.4-4.5-4.4C843.5,839.2,842,841.1,842,843.4z"/>
	<path d="M861.8,863.6c0-2.2,1.5-3.8,3.6-3.8c2.2,0,3.6,1.5,3.6,3.8c0,2.2-1.4,3.8-3.6,3.8C863.3,867.4,861.8,865.7,861.8,863.6z"/>
	<path d="M872.8,866.8v-3.6l3.7-3.4c7.3-6.8,10.8-10.6,10.8-14.7c0-2.8-1.5-5.2-5.6-5.2c-2.7,0-5.1,1.4-6.7,2.6l-1.7-4.2
		c2.3-1.8,5.7-3.2,9.6-3.2c6.9,0,10.3,4.4,10.3,9.5c0,5.5-3.9,9.9-9.4,14.9l-2.7,2.4v0.1h12.8v4.9H872.8z"/>
	<path d="M898.5,866.8v-3.6l3.7-3.4c7.3-6.8,10.8-10.6,10.8-14.7c0-2.8-1.5-5.2-5.6-5.2c-2.7,0-5.1,1.4-6.7,2.6l-1.7-4.2
		c2.3-1.8,5.7-3.2,9.6-3.2c6.9,0,10.3,4.4,10.3,9.5c0,5.5-3.9,9.9-9.4,14.9l-2.7,2.4v0.1h12.8v4.9H898.5z"/>
	<path d="M924.6,863.6c0-2.2,1.5-3.8,3.6-3.8c2.2,0,3.6,1.5,3.6,3.8c0,2.2-1.4,3.8-3.6,3.8C926.1,867.4,924.6,865.7,924.6,863.6z"/>
	<path d="M935.5,866.8v-3.6l3.7-3.4c7.3-6.8,10.8-10.6,10.8-14.7c0-2.8-1.5-5.2-5.6-5.2c-2.7,0-5.1,1.4-6.7,2.6l-1.7-4.2
		c2.3-1.8,5.7-3.2,9.6-3.2c6.9,0,10.3,4.4,10.3,9.5c0,5.5-3.9,9.9-9.4,14.9l-2.7,2.4v0.1h12.8v4.9H935.5z"/>
	<path d="M961.7,863.6c0-2.2,1.5-3.8,3.6-3.8c2.2,0,3.6,1.5,3.6,3.8c0,2.2-1.4,3.8-3.6,3.8C963.1,867.4,961.7,865.7,961.7,863.6z"/>
</g>
<g>
	<path d="M1070.2,858.8c0-3.9,2.3-6.5,5.9-8.1v-0.1c-3.3-1.6-4.8-4.2-4.8-6.9c0-5.1,4.5-8.5,10.4-8.5c6.7,0,9.8,4,9.8,7.9
		c0,2.6-1.4,5.4-4.8,7.1v0.1c3.4,1.3,6,4,6,7.9c0,5.6-4.7,9.3-11.4,9.3C1074,867.4,1070.2,863.2,1070.2,858.8z M1086.7,858.5
		c0-3.2-2.4-4.9-5.8-5.9c-2.9,0.9-4.6,2.9-4.6,5.5c-0.1,2.6,1.9,5,5.2,5C1084.6,863.2,1086.7,861.2,1086.7,858.5z M1077,843.4
		c0,2.5,2.1,4.1,5.1,4.9c2.1-0.6,3.9-2.4,3.9-4.7c0-2.2-1.3-4.4-4.5-4.4C1078.5,839.2,1077,841.1,1077,843.4z"/>
	<path d="M1096.8,863.6c0-2.2,1.5-3.8,3.6-3.8c2.2,0,3.6,1.5,3.6,3.8c0,2.2-1.4,3.8-3.6,3.8C1098.3,867.4,1096.8,865.7,1096.8,863.6
		z"/>
	<path d="M1107.7,866.8v-3.6l3.7-3.4c7.3-6.8,10.8-10.6,10.8-14.7c0-2.8-1.5-5.2-5.6-5.2c-2.7,0-5.1,1.4-6.7,2.6l-1.7-4.2
		c2.3-1.8,5.7-3.2,9.6-3.2c6.9,0,10.3,4.4,10.3,9.5c0,5.5-3.9,9.9-9.4,14.9l-2.7,2.4v0.1h12.8v4.9H1107.7z"/>
	<path d="M1133.5,866.8v-3.6l3.7-3.4c7.3-6.8,10.8-10.6,10.8-14.7c0-2.8-1.5-5.2-5.6-5.2c-2.7,0-5.1,1.4-6.7,2.6l-1.7-4.2
		c2.3-1.8,5.7-3.2,9.6-3.2c6.9,0,10.3,4.4,10.3,9.5c0,5.5-3.9,9.9-9.4,14.9l-2.7,2.4v0.1h12.8v4.9H1133.5z"/>
	<path d="M1159.6,863.6c0-2.2,1.5-3.8,3.6-3.8c2.2,0,3.6,1.5,3.6,3.8c0,2.2-1.4,3.8-3.6,3.8C1161.1,867.4,1159.6,865.7,1159.6,863.6
		z"/>
	<path d="M1171.7,860.7c1.2,0.7,4.1,1.9,7.1,1.9c4.5,0,6.3-2.5,6.3-5c0-3.7-3.5-5.3-7.1-5.3h-2.7v-4.3h2.6c2.7,0,6.2-1.2,6.2-4.4
		c0-2.1-1.6-3.9-5-3.9c-2.5,0-5.1,1.1-6.4,2l-1.3-4.3c1.8-1.2,5.2-2.4,9-2.4c6.4,0,9.7,3.6,9.7,7.6c0,3.3-1.9,6-5.8,7.3v0.1
		c3.8,0.7,6.9,3.6,6.9,7.8c0,5.3-4.4,9.5-12.1,9.5c-3.8,0-7.1-1.1-8.7-2.2L1171.7,860.7z"/>
	<path d="M1196.6,863.6c0-2.2,1.5-3.8,3.6-3.8c2.2,0,3.6,1.5,3.6,3.8c0,2.2-1.4,3.8-3.6,3.8C1198.1,867.4,1196.6,865.7,1196.6,863.6
		z"/>
</g>
</svg>
