<?xml version="1.0" encoding="utf-8"?>
<!-- Generator: Adobe Illustrator 18.0.0, SVG Export Plug-In . SVG Version: 6.00 Build 0)  -->
<!DOCTYPE svg PUBLIC "-//W3C//DTD SVG 1.1//EN" "http://www.w3.org/Graphics/SVG/1.1/DTD/svg11.dtd">
<svg version="1.1"
	 id="svg2" inkscape:version="0.48.4 r9939" sodipodi:docname="6.2014_02_16_18_28_07.2.svg" xmlns:sodipodi="http://sodipodi.sourceforge.net/DTD/sodipodi-0.dtd" xmlns:dc="http://purl.org/dc/elements/1.1/" xmlns:cc="http://creativecommons.org/ns#" xmlns:inkscape="http://www.inkscape.org/namespaces/inkscape" xmlns:svg="http://www.w3.org/2000/svg" xmlns:rdf="http://www.w3.org/1999/02/22-rdf-syntax-ns#"
	 xmlns="http://www.w3.org/2000/svg" xmlns:xlink="http://www.w3.org/1999/xlink" x="0px" y="0px"
	 viewBox="260.4 243.4 1183.9 765.1" enable-background="new 260.4 243.4 1183.9 765.1" xml:space="preserve">
<g>
	<path fill="#FFFFFF" stroke="#000000" stroke-width="8" stroke-miterlimit="10" d="M588.1,673.4h528.6c6.6,0,11.8,5.4,11.8,11.8
		v206.5c0,6.6-5.4,11.8-11.8,11.8H588.1c-6.6,0-11.8-5.4-11.8-11.8V685.2C576.3,678.8,581.6,673.4,588.1,673.4z"/>
	<polygon points="956,698.5 1112,788.5 956,878.4 956,821.7 800.3,821.7 800.3,755.2 956,755.2 	"/>
	<polygon points="749.7,878.4 593.8,788.5 749.7,698.5 749.7,755.2 905.5,755.2 905.5,821.7 749.7,821.7 	"/>
</g>
<g>
	<path d="M470,555.3c0-5.1,2.9-8.5,7.7-10.6v-0.2c-4.3-2.1-6.2-5.5-6.2-9c0-6.7,5.9-11.2,13.6-11.2c8.8,0,12.8,5.3,12.8,10.3
		c0,3.5-1.8,7-6.3,9.2v0.2c4.5,1.7,7.8,5.2,7.8,10.3c0,7.3-6.1,12.2-14.9,12.2C475,566.5,470,561,470,555.3z M491.6,554.9
		c0-4.1-3.1-6.4-7.6-7.7c-3.8,1.1-6,3.8-6,7.2c-0.1,3.5,2.5,6.6,6.8,6.6C488.9,561,491.6,558.4,491.6,554.9z M478.8,535.1
		c0,3.3,2.8,5.3,6.6,6.4c2.8-0.8,5.1-3.1,5.1-6.1c0-2.8-1.7-5.8-5.8-5.8C480.8,529.6,478.8,532.2,478.8,535.1z"/>
	<path d="M504.7,561.5c0-2.9,2-5,4.8-5c2.8,0,4.8,2,4.8,5c0,2.8-1.9,5-4.8,5C506.7,566.5,504.7,564.3,504.7,561.5z"/>
	<path d="M520.6,557.8c1.6,0.9,5.4,2.5,9.3,2.5c5.9,0,8.3-3.3,8.2-6.5c0-4.8-4.5-6.9-9.2-6.9h-3.6v-5.6h3.5c3.6,0,8.1-1.6,8.1-5.7
		c0-2.8-2.1-5.1-6.5-5.1c-3.3,0-6.7,1.4-8.3,2.6l-1.8-5.6c2.3-1.6,6.8-3.1,11.7-3.1c8.4,0,12.7,4.6,12.7,10c0,4.3-2.5,7.8-7.5,9.5
		v0.1c5,0.9,9,4.6,9,10.2c0,6.9-5.8,12.4-15.9,12.4c-5,0-9.2-1.4-11.4-2.8L520.6,557.8z"/>
	<path d="M553.2,561.5c0-2.9,2-5,4.8-5c2.8,0,4.8,2,4.8,5c0,2.8-1.9,5-4.8,5C555.1,566.5,553.2,564.3,553.2,561.5z"/>
	<path d="M579.6,531.9h-0.1l-7.5,3.8l-1.3-5.8l9.9-4.9h6.5v40.8h-7.5V531.9z"/>
	<path d="M601.6,561.5c0-2.9,2-5,4.8-5c2.8,0,4.8,2,4.8,5c0,2.8-1.9,5-4.8,5C603.6,566.5,601.6,564.3,601.6,561.5z"/>
</g>
<g>
	<path fill="#FFFFFF" stroke="#000000" stroke-width="8" stroke-miterlimit="10" d="M804.9,248.5l-528.6,0
		c-6.6,0-11.8,5.4-11.8,11.8v206.5c0,6.6,5.4,11.8,11.8,11.8h528.6c6.6,0,11.8-5.4,11.8-11.8V260.3
		C816.6,253.9,811.3,248.5,804.9,248.5z"/>
	<polygon points="643.2,453.5 799.1,363.5 643.2,273.6 643.2,330.3 264.4,330.3 264.4,396.8 643.2,396.8 	"/>
</g>
<g>
	<path fill="#FFFFFF" stroke="#000000" stroke-width="8" stroke-miterlimit="10" d="M899.9,247.4h528.6c6.6,0,11.8,5.4,11.8,11.8
		v206.5c0,6.6-5.4,11.8-11.8,11.8H899.9c-6.6,0-11.8-5.4-11.8-11.8V259.2C888.1,252.8,893.4,247.4,899.9,247.4z"/>
	<polygon points="1061.5,452.4 905.6,362.5 1061.5,272.5 1061.5,329.2 1440.3,329.2 1440.3,395.7 1061.5,395.7 	"/>
</g>
<g>
	<path d="M1093.6,555.3c0-5.1,2.9-8.5,7.7-10.6v-0.2c-4.3-2.1-6.2-5.5-6.2-9c0-6.7,5.9-11.2,13.6-11.2c8.8,0,12.8,5.3,12.8,10.3
		c0,3.5-1.8,7-6.3,9.2v0.2c4.5,1.7,7.8,5.2,7.8,10.3c0,7.3-6.1,12.2-14.9,12.2C1098.6,566.5,1093.6,561,1093.6,555.3z M1115.2,554.9
		c0-4.1-3.1-6.4-7.6-7.7c-3.8,1.1-6,3.8-6,7.2c-0.1,3.5,2.5,6.6,6.8,6.6C1112.5,561,1115.2,558.4,1115.2,554.9z M1102.4,535.1
		c0,3.3,2.8,5.3,6.7,6.4c2.8-0.8,5.1-3.1,5.1-6.1c0-2.8-1.7-5.8-5.8-5.8C1104.4,529.6,1102.4,532.2,1102.4,535.1z"/>
	<path d="M1128.3,561.5c0-2.9,2-5,4.8-5c2.8,0,4.8,2,4.8,5c0,2.8-1.9,5-4.8,5C1130.3,566.5,1128.3,564.3,1128.3,561.5z"/>
	<path d="M1144.2,557.8c1.6,0.9,5.4,2.5,9.3,2.5c5.9,0,8.3-3.3,8.2-6.5c0-4.8-4.5-6.9-9.2-6.9h-3.6v-5.6h3.5c3.6,0,8.1-1.6,8.1-5.7
		c0-2.8-2.1-5.1-6.5-5.1c-3.3,0-6.7,1.4-8.3,2.6l-1.8-5.6c2.3-1.6,6.8-3.1,11.7-3.1c8.4,0,12.7,4.6,12.7,10c0,4.3-2.5,7.8-7.5,9.5
		v0.1c5,0.9,9,4.6,9,10.2c0,6.9-5.8,12.4-15.9,12.4c-5,0-9.2-1.4-11.4-2.8L1144.2,557.8z"/>
	<path d="M1176.8,561.5c0-2.9,2-5,4.8-5c2.8,0,4.8,2,4.8,5c0,2.8-1.9,5-4.8,5C1178.7,566.5,1176.8,564.3,1176.8,561.5z"/>
	<path d="M1191.1,565.8v-4.7l4.8-4.5c9.6-8.9,14.1-13.8,14.2-19.2c0-3.6-1.9-6.8-7.3-6.8c-3.6,0-6.7,1.8-8.7,3.4l-2.3-5.5
		c2.9-2.4,7.4-4.2,12.5-4.2c9,0,13.4,5.7,13.4,12.4c0,7.2-5.1,12.9-12.2,19.5l-3.6,3.1v0.1h16.8v6.4H1191.1z"/>
	<path d="M1225.2,561.5c0-2.9,2-5,4.8-5c2.8,0,4.8,2,4.8,5c0,2.8-1.9,5-4.8,5C1227.2,566.5,1225.2,564.3,1225.2,561.5z"/>
</g>
<g>
	<path d="M781.8,982.4c0-5.1,2.9-8.5,7.7-10.6v-0.2c-4.3-2.1-6.2-5.5-6.2-9c0-6.7,5.9-11.2,13.6-11.2c8.8,0,12.8,5.3,12.8,10.3
		c0,3.5-1.8,7-6.3,9.2v0.2c4.5,1.7,7.8,5.2,7.8,10.3c0,7.3-6.1,12.2-14.9,12.2C786.8,993.5,781.8,988.1,781.8,982.4z M803.4,982
		c0-4.1-3.1-6.4-7.6-7.7c-3.8,1.1-6,3.8-6,7.2c-0.1,3.5,2.5,6.6,6.8,6.6C800.7,988.1,803.4,985.5,803.4,982z M790.6,962.2
		c0,3.3,2.8,5.3,6.7,6.4c2.8-0.8,5.1-3.1,5.1-6.1c0-2.8-1.7-5.8-5.8-5.8C792.6,956.7,790.6,959.3,790.6,962.2z"/>
	<path d="M816.5,988.6c0-2.9,2-5,4.8-5c2.8,0,4.8,2,4.8,5c0,2.8-1.9,5-4.8,5C818.5,993.5,816.5,991.4,816.5,988.6z"/>
	<path d="M832.4,984.9c1.6,0.9,5.4,2.5,9.3,2.5c5.9,0,8.3-3.3,8.2-6.5c0-4.8-4.5-6.9-9.2-6.9h-3.6v-5.6h3.5c3.6,0,8.1-1.6,8.1-5.7
		c0-2.8-2.1-5.1-6.5-5.1c-3.3,0-6.7,1.4-8.3,2.6l-1.8-5.6c2.3-1.6,6.8-3.1,11.7-3.1c8.4,0,12.7,4.6,12.7,10c0,4.3-2.5,7.8-7.5,9.5
		v0.1c5,0.9,9,4.6,9,10.2c0,6.9-5.8,12.4-15.9,12.4c-5,0-9.2-1.4-11.4-2.8L832.4,984.9z"/>
	<path d="M865,988.6c0-2.9,2-5,4.8-5c2.8,0,4.8,2,4.8,5c0,2.8-1.9,5-4.8,5C866.9,993.5,865,991.4,865,988.6z"/>
	<path d="M880.8,984.9c1.6,0.9,5.4,2.5,9.3,2.5c5.9,0,8.3-3.3,8.2-6.5c0-4.8-4.5-6.9-9.2-6.9h-3.6v-5.6h3.5c3.6,0,8.1-1.6,8.1-5.7
		c0-2.8-2.1-5.1-6.5-5.1c-3.3,0-6.7,1.4-8.3,2.6l-1.8-5.6c2.3-1.6,6.8-3.1,11.7-3.1c8.4,0,12.7,4.6,12.7,10c0,4.3-2.5,7.8-7.5,9.5
		v0.1c5,0.9,9,4.6,9,10.2c0,6.9-5.8,12.4-15.9,12.4c-5,0-9.2-1.4-11.4-2.8L880.8,984.9z"/>
	<path d="M913.4,988.6c0-2.9,2-5,4.8-5c2.8,0,4.8,2,4.8,5c0,2.8-1.9,5-4.8,5C915.4,993.5,913.4,991.4,913.4,988.6z"/>
</g>
</svg>
