<?xml version="1.0" encoding="utf-8"?>
<!-- Generator: Adobe Illustrator 18.0.0, SVG Export Plug-In . SVG Version: 6.00 Build 0)  -->
<!DOCTYPE svg PUBLIC "-//W3C//DTD SVG 1.1//EN" "http://www.w3.org/Graphics/SVG/1.1/DTD/svg11.dtd">
<svg version="1.1"
	 id="svg2" inkscape:version="0.48.4 r9939" sodipodi:docname="6.2014_02_16_18_28_07.2.svg" xmlns:sodipodi="http://sodipodi.sourceforge.net/DTD/sodipodi-0.dtd" xmlns:dc="http://purl.org/dc/elements/1.1/" xmlns:cc="http://creativecommons.org/ns#" xmlns:inkscape="http://www.inkscape.org/namespaces/inkscape" xmlns:svg="http://www.w3.org/2000/svg" xmlns:rdf="http://www.w3.org/1999/02/22-rdf-syntax-ns#"
	 xmlns="http://www.w3.org/2000/svg" xmlns:xlink="http://www.w3.org/1999/xlink" x="0px" y="0px" viewBox="-1.5 35.7 954.7 402.5"
	 enable-background="new -1.5 35.7 954.7 402.5" xml:space="preserve">
<path fill="#FFFFFF" stroke="#000000" stroke-width="8" stroke-miterlimit="10" d="M929,434.2H22.8c-11.2,0-20.3-9.2-20.3-20.3V60
	c0-11.2,9.2-20.3,20.3-20.3H929c11.2,0,20.3,9.2,20.3,20.3v353.9C949.3,425.2,940.1,434.2,929,434.2z"/>
<g>
	<path d="M202.7,200.3h-20.9v-79.8c0-3.7-2.2-5.5-6.6-5.5s-6.6,1.8-6.6,5.5v31.3h-19.2v-31.3c0-3.7-2.2-5.5-6.6-5.5
		c-4,0-6,1.8-6,5.5v79.8h-20.9v-84.7c0-3.6,1.6-6.9,4.7-10.1c3.1-3.1,6.5-4.7,10.1-4.7H150c2.1,0,3.9,0.8,5.6,2.3
		c0.7,0.6,2,2.2,4,4.8c3.7-4.8,6.9-7.2,9.6-7.2h18.7c3.6,0,6.9,1.6,10.1,4.7c3.1,3.1,4.7,6.5,4.7,10.1V200.3z"/>
	<path d="M309.4,199.3H289v-36c0-1.8-0.7-3.4-2-4.6c-1.3-1.3-2.9-1.9-4.7-1.9c-1.7,0-3.3,0.7-4.6,2s-2,2.9-2,4.6v13.9h-20v-13.9
		c0-1.9-0.6-3.4-1.9-4.7c-1.3-1.3-2.9-1.9-4.7-1.9c-1.5,0-3,0.7-4.2,2.1c-1.3,1.4-1.9,2.9-1.9,4.4v36h-21v-43.2
		c0-6.5,4.5-12.9,13.6-19.2c5.7-3.6,14.1-9.1,25.3-16.6c9.1-6.4,13.7-13.1,13.7-20.1h21v10c-2.4,5.4-6.5,10.1-12.3,14.3
		c-3.6,2.7-9.2,5.9-16.6,9.5c-7.4,3.6-12.2,6.2-14.3,7.7c3.6,0.5,6,1,7.2,1.5c1.6,0.7,3.6,2.3,6,4.6c4.5-3.7,8.2-5.5,11.1-5.5h14.4
		c4.2,0,8.2,2,12.2,6c4,4,6,8.1,6,12.2V199.3z"/>
	<path d="M392.2,181.6c0,3.9-2,7.9-6,12.1c-4,4.2-8,6.3-11.9,6.3h-23.1c-3.8,0-7.8-2.1-11.8-6.3c-4-4.2-6.1-8.2-6.1-12.1v-21.8
		c0-3.9,1.8-7.7,5.5-11.3c3.6-3.6,7.4-5.4,11.4-5.4h22.6v-24.6c0-1.2-0.5-2.2-1.5-3.1c-1-0.9-2.1-1.3-3.3-1.3
		c-1.3,0-2.4,0.4-3.4,1.3c-1,0.8-1.4,1.9-1.4,3.2v12.9h-17.8c0-0.6,0-1.5,0-2.8c0-1.2,0-2.1,0-2.8c0-3.3-0.7-5.6-2-7
		c-1.4-1.4-3.7-2.1-7-2.1c-2.1,0-4,0.4-5.7,1.3c-1.2,0.6-3,1.5-5.3,2.7v-18.4c3.5-1.5,5.4-2.2,5.8-2.2h16.3c2.5,0,4.7,1.7,6.8,5
		c2.4-3.3,4.7-5,6.8-5h16.3c3.5,0,6.8,1.5,10,4.6c3.2,3.1,4.7,6.4,4.7,9.9V181.6z M372.2,171.5c0-4.5-0.4-7.7-1.3-9.6
		c-1.3-2.9-3.8-4.4-7.7-4.4c-6,0-9,4.5-9,13.5c0,4.4,0.4,7.6,1.3,9.5c1.3,3,3.8,4.4,7.6,4.4C369.2,184.9,372.2,180.4,372.2,171.5z"
		/>
	<path d="M468.4,182c0,4.3-2.3,8.4-6.9,12.3c-4.5,3.8-8.9,5.6-13.2,5.6h-20.1c-4.1,0-8.2-2-12.3-5.9c-4.1-3.9-6.2-8-6.2-12.1v-22.8
		h20.7v19c0,1.9,1,3.6,3,5c1.9,1.4,3.8,2.1,5.7,2.1c1.8,0,3.6-0.8,5.4-2.3c1.8-1.5,2.8-3.1,2.8-4.8v-35.8c0-2.4-1.5-4.9-4.4-7.4
		c-2-1.6-5-4.2-9-7.7c-4-3.5-7.1-7.7-9.4-12.6v-13.1H445c0,5.6,1.4,10.2,4.2,13.8c1.4,1.7,5.1,4.9,11.1,9.8c5.3,4.2,8,7.8,8,10.8
		V182z"/>
	<path d="M551.1,182.2c0,4.1-2,8.3-6.1,12.5c-4,4.2-8.1,6.3-12.2,6.3h-28.3c-4.2,0-8.2-2.1-12.2-6.3c-4-4.2-6-8.4-6-12.6v-19.9
		c0-4.7,1.5-8.5,4.6-11.5c1.9-1.9,5.6-4.1,11-6.6c4.7-2.3,7-4.2,7-5.8v-13.3c0-2.1-1.5-3.5-4.4-4.1c-2-0.4-5.1-1-9.1-1.9
		c-3.7-1.1-6.2-3.2-7.6-6.2v-12.2h21.5c0,4.1,1.8,6.8,5.3,8.1c3.1,0.6,6.2,1.1,9.3,1.7c4,1.2,5.9,3.1,5.9,5.8v22.2
		c0,1.1,2.5,3,7.4,5.7c5.8,3.2,9,5.1,9.6,5.6c2.7,2.4,4.1,6.5,4.1,12.2V182.2z M530.5,170.9c0-3.8-1.1-7-3.2-9.8
		c-2.3-3-5.3-4.4-9-4.4c-3.5,0-6.3,1.7-8.6,5.1c-1.9,3-2.8,6.3-2.8,10c0,3.7,1.1,6.9,3.3,9.7c2.3,3,5.3,4.4,8.9,4.4
		c3.5,0,6.4-1.7,8.6-5C529.6,177.9,530.5,174.6,530.5,170.9z"/>
	<path d="M627.4,182c0,4.3-2.3,8.4-6.9,12.3c-4.5,3.8-8.9,5.6-13.2,5.6h-20.1c-4.1,0-8.2-2-12.3-5.9c-4.1-3.9-6.2-8-6.2-12.1v-22.8
		h20.7v19c0,1.9,1,3.6,3,5c1.9,1.4,3.8,2.1,5.7,2.1c1.8,0,3.6-0.8,5.4-2.3c1.8-1.5,2.8-3.1,2.8-4.8v-35.8c0-2.4-1.5-4.9-4.4-7.4
		c-2-1.6-5-4.2-9-7.7c-4-3.5-7.1-7.7-9.4-12.6v-13.1h20.6c0,5.6,1.4,10.2,4.2,13.8c1.4,1.7,5.1,4.9,11.1,9.8c5.3,4.2,8,7.8,8,10.8
		V182z"/>
	<path d="M742.3,199.9h-21.6v-80c0-3.7-2.4-5.5-7.2-5.5c-1.7,0-3.2,0.5-4.5,1.5c-1.4,1-2.1,2.4-2.1,4v61.7c0,4-2.2,8-6.7,12.1
		c-4.5,4.1-8.7,6.2-12.7,6.2H664c-4.1,0-8.3-2-12.8-6.1c-4.4-4.1-6.7-8.1-6.7-12.2v-63.8c0-4,2.2-8.1,6.7-12.3c4.4-4,8.7-6,12.7-6
		h18.3c4.4,0.5,8.9,2.7,13.5,6.6c2.1-1.5,4.2-3.1,6.2-4.7c2.3-1.3,4.4-1.9,6.3-1.9h17.7c3.7,0,7.3,1.6,10.9,4.8
		c3.5,3.2,5.3,6.6,5.3,10.2V199.9z M684.5,177.2v-55.5c0-1.8-1.1-3.4-3.2-5c-1.9-1.5-3.8-2.2-5.7-2.2c-1.8,0-3.7,0.8-5.8,2.3
		c-2,1.5-3.1,3.1-3.1,4.9v55.5c0,2,1,3.8,3,5.4c1.9,1.5,3.8,2.3,5.8,2.3c1.9,0,3.9-0.8,5.9-2.5C683.5,180.8,684.5,179.1,684.5,177.2
		z"/>
	<path d="M821.9,200.3h-21.5v-76.7c0-2.3-0.9-4.3-2.6-5.9c-1.8-1.6-3.8-2.4-6.2-2.4c-2,0-3.9,0.9-5.7,2.6c-1.8,1.7-2.6,3.6-2.6,5.6
		v76.7h-21.5v-80c0-4.1,2-8.2,6.1-12.4c4.1-4.2,8.1-6.3,12.1-6.3h23.7c4.2,0,8.3,2.1,12.3,6.2c4,4.1,5.9,8.3,5.9,12.6V200.3z"/>
	<path d="M114.9,326.5H59.1v-18.6h55.9V326.5z"/>
	<path d="M233.6,343.4c0,4.3-2,8.6-6.1,12.8c-4.1,4.2-8.3,6.4-12.5,6.4h-23.1c-4,0-8-2.1-11.8-6.3c-3.8-4.2-5.8-8.3-5.8-12.4v-19.8
		h21.5v17.1c0,2,0.9,3.8,2.6,5.3c1.7,1.6,3.6,2.4,5.6,2.4c2,0,3.9-0.8,5.7-2.4c1.8-1.6,2.6-3.4,2.6-5.3V328c0-3.8-2.8-6.2-8.4-7.1
		v-14.3c3.2-0.6,5.4-1.6,6.6-3c1.2-1.4,1.8-3.7,1.8-6.8c0-4.2-1.7-7.1-5.2-8.8c-2.5-0.8-6.3-2.1-11.2-3.8c-4.7-1.9-8.3-5.1-10.6-9.8
		v-11h20.8c0,6.2,2.4,10.3,7.1,12.2c0.3,0.1,4.7,1.7,13.2,4.6c4.8,2.7,7.2,7.9,7.2,15.5c0,4.9-0.8,8.4-2.5,10.6
		c-1.1,1.4-4.1,3.7-9,6.9c7.7,4.4,11.5,8.8,11.5,13.2V343.4z"/>
	<path d="M309,345.1c0,4.3-2.3,8.4-6.9,12.3c-4.5,3.8-8.9,5.6-13.2,5.6h-20.1c-4.1,0-8.2-2-12.3-5.9c-4.1-3.9-6.2-8-6.2-12.1v-22.8
		h20.7v19c0,1.9,1,3.6,3,5c1.9,1.4,3.8,2.1,5.7,2.1c1.8,0,3.6-0.8,5.4-2.3c1.8-1.5,2.8-3.1,2.8-4.8v-35.8c0-2.4-1.5-4.9-4.4-7.4
		c-2-1.6-5-4.2-9-7.7c-4-3.5-7.1-7.7-9.4-12.6v-13.1h20.6c0,5.6,1.4,10.2,4.2,13.8c1.4,1.7,5.1,4.9,11.1,9.8c5.3,4.2,8,7.8,8,10.8
		V345.1z"/>
	<path d="M415.6,362.4h-20.4v-36c0-1.8-0.7-3.4-2-4.6c-1.3-1.3-2.9-1.9-4.7-1.9c-1.7,0-3.3,0.7-4.6,2s-2,2.9-2,4.6v13.9h-20v-13.9
		c0-1.9-0.6-3.4-1.9-4.7c-1.3-1.3-2.9-1.9-4.7-1.9c-1.5,0-3,0.7-4.2,2.1c-1.3,1.4-1.9,2.9-1.9,4.4v36h-21v-43.2
		c0-6.5,4.5-12.9,13.6-19.2c5.7-3.6,14.1-9.1,25.3-16.6c9.1-6.4,13.7-13.1,13.7-20.1h21v10c-2.4,5.4-6.5,10.1-12.3,14.3
		c-3.6,2.7-9.2,5.9-16.6,9.5c-7.4,3.6-12.2,6.2-14.3,7.7c3.6,0.5,6,1,7.2,1.5c1.6,0.7,3.6,2.3,6,4.6c4.5-3.7,8.2-5.5,11.1-5.5h14.4
		c4.2,0,8.2,2,12.2,6c4,4,6,8.1,6,12.2V362.4z"/>
	<path d="M490.7,345.1c0,4.3-2.3,8.4-6.9,12.3c-4.5,3.8-8.9,5.6-13.2,5.6h-20.1c-4.1,0-8.2-2-12.3-5.9c-4.1-3.9-6.2-8-6.2-12.1
		v-22.8h20.7v19c0,1.9,1,3.6,3,5c1.9,1.4,3.8,2.1,5.7,2.1c1.8,0,3.6-0.8,5.4-2.3c1.8-1.5,2.8-3.1,2.8-4.8v-35.8
		c0-2.4-1.5-4.9-4.4-7.4c-2-1.6-5-4.2-9-7.7c-4-3.5-7.1-7.7-9.4-12.6v-13.1h20.6c0,5.6,1.4,10.2,4.2,13.8c1.4,1.7,5.1,4.9,11.1,9.8
		c5.3,4.2,8,7.8,8,10.8V345.1z"/>
	<path d="M568.9,348.5c0,3.1-2.1,6.3-6.3,9.6c-4,3.2-7.6,4.8-10.8,4.8h-25c-4,0-7.9-2-11.8-6.1c-3.9-4.1-5.8-8.1-5.8-12.1v-81.4
		h21.5v78.6c0,4.8,3,7.2,8.9,7.2c2.2,0,4.1-0.7,5.8-2c1.7-1.3,2.5-3.1,2.5-5.2v-36h21V348.5z"/>
	<path d="M646.8,345c0,4.1-2,8.1-6,12c-4,4-8,5.9-12.1,5.9h-22.4c-4,0-8-2-12-6s-6-8-6-12v-20.8h20.8v17.5c0,2.2,0.9,4,2.7,5.5
		c1.8,1.5,3.8,2.2,6,2.2c2,0,3.9-0.8,5.6-2.3c1.7-1.5,2.6-3.3,2.6-5.4v-25.1c0-3.9-2.9-6.8-8.8-8.8v-13.7c5.9,0,8.8-2.2,8.8-6.6
		v-23.4h20.8v23c0,3.4-1.1,6.1-3.3,8.2c-1.3,1.2-3.8,2.9-7.7,4.9c7.3,2.8,10.9,6.8,10.9,12.1V345z"/>
	<path d="M725,344.4c0,3.9-2.2,7.9-6.5,12.1c-4.3,4.2-8.4,6.2-12.4,6.2h-23.9c-3.8,0-7.7-1.9-11.7-5.8c-4-3.8-6-7.7-6-11.4v-23.9
		h21.6V340c0,2.4,0.9,4.4,2.6,6s3.8,2.4,6.2,2.4c2,0,3.9-0.9,5.6-2.7c1.8-1.8,2.7-3.7,2.7-5.7v-54.4c0-2.3-0.9-4.3-2.6-5.9
		c-1.7-1.6-3.8-2.4-6.2-2.4c-3.9,0-6.4,1.7-7.5,5c-0.5,1.6-0.8,5-0.8,10h-21.6v-12.2c4.5-11.5,10.8-17.2,18.8-17.2h22.2
		c4.2,0,8.4,2,12.8,6c4.4,4,6.6,8.1,6.6,12.3V344.4z"/>
	<path d="M802.7,345c0,3.9-2,7.9-6.1,11.8c-4.1,3.9-8.1,5.9-12.1,5.9h-24.9c-3.8,0-7.6-1.9-11.4-5.7c-3.8-3.8-5.7-7.6-5.7-11.4
		v-21.7H764v16.7c0,2.4,0.9,4.3,2.7,5.8c1.7,1.4,3.7,2.1,6.2,2.1c2.3,0,4.3-0.7,5.9-2.2c1.6-1.5,2.4-3.3,2.4-5.6v-20.5
		c0-5.2-3-7.8-8.9-7.8v-13.9c5.9,0,8.9-3.5,8.9-10.5c0-7.3-2.9-11-8.8-11c-3.8,0-6.2,1.7-7.4,5c-0.7,1.8-1,5.1-1,9.9h-21.5v-12.1
		c5.4-11.5,12-17.2,19.8-17.2H785c4.1,0,8.1,1.9,11.9,5.8c3.8,3.8,5.8,7.8,5.8,11.9v11.5c0,4.2-3.7,8.2-11.1,12.2
		c3.9,1.5,6.4,2.6,7.4,3.3c2.4,1.6,3.7,3.8,3.7,6.6V345z"/>
	<path d="M879,363.3h-21.5v-76.7c0-2.3-0.9-4.3-2.6-5.9c-1.8-1.6-3.8-2.4-6.2-2.4c-2,0-3.9,0.9-5.7,2.6c-1.8,1.7-2.6,3.6-2.6,5.6
		v76.7h-21.5v-80c0-4.1,2-8.2,6.1-12.4c4.1-4.2,8.1-6.3,12.1-6.3h23.7c4.2,0,8.3,2.1,12.3,6.2c4,4.1,5.9,8.3,5.9,12.6V363.3z"/>
</g>
</svg>
