<?xml version="1.0" encoding="utf-8"?>
<!-- Generator: Adobe Illustrator 18.0.0, SVG Export Plug-In . SVG Version: 6.00 Build 0)  -->
<!DOCTYPE svg PUBLIC "-//W3C//DTD SVG 1.1//EN" "http://www.w3.org/Graphics/SVG/1.1/DTD/svg11.dtd">
<svg version="1.1"
	 id="svg2" inkscape:version="0.48.4 r9939" sodipodi:docname="6.2014_02_16_18_28_07.2.svg" xmlns:sodipodi="http://sodipodi.sourceforge.net/DTD/sodipodi-0.dtd" xmlns:dc="http://purl.org/dc/elements/1.1/" xmlns:cc="http://creativecommons.org/ns#" xmlns:inkscape="http://www.inkscape.org/namespaces/inkscape" xmlns:svg="http://www.w3.org/2000/svg" xmlns:rdf="http://www.w3.org/1999/02/22-rdf-syntax-ns#"
	 xmlns="http://www.w3.org/2000/svg" xmlns:xlink="http://www.w3.org/1999/xlink" x="0px" y="0px" viewBox="75.3 299.7 448.7 229.3"
	 enable-background="new 75.3 299.7 448.7 229.3" xml:space="preserve">
<path fill="#FFFFFF" stroke="#000000" stroke-width="8" stroke-miterlimit="10" d="M499.7,525H99.6c-11.2,0-20.3-9.2-20.3-20.3V324
	c0-11.2,9.2-20.3,20.3-20.3h400.2c11.2,0,20.3,9.2,20.3,20.3v180.7C520,515.9,510.8,525,499.7,525z"/>
<path d="M250,525H99.6c-11.2,0-20.3-9.2-20.3-20.3V324c0-11.2,9.2-20.3,20.3-20.3H250C250,322.2,250,488.8,250,525z"/>
<g>
	<path fill="#FFFFFF" stroke="#000000" stroke-width="4.5" stroke-miterlimit="10" d="M351.8,507.4h-68.3c-2.4,0-4.5-1.7-5-4.1
		l-3.4-18.4c-0.1-0.3-0.1-0.6-0.1-0.9V383.6c0-0.1,0-0.2,0-0.3l3.9-62c0.2-2.7,2.4-4.7,5-4.7h67.2c2.7,0,4.9,2.1,5,4.7l3.9,62
		c0,0.1,0,0.2,0,0.3v100.3c0,0.3,0,0.6-0.1,0.9l-3.4,18.4C356.4,505.6,354.3,507.4,351.8,507.4z"/>
	<path fill="none" stroke="#000000" stroke-width="4.5" stroke-miterlimit="10" d="M287.1,482.1v-79.6c0-2.6,2.1-4.7,4.7-4.7h51.7
		c2.6,0,4.7,2.1,4.7,4.7v79.6c0,2.6-2.1,4.7-4.7,4.7h-51.7C289.2,486.8,287.1,484.6,287.1,482.1z"/>
	<line fill="none" stroke="#000000" stroke-width="4.5" stroke-miterlimit="10" x1="279.7" y1="506.5" x2="289.6" y2="485.5"/>
	<line fill="none" stroke="#000000" stroke-width="4.5" stroke-miterlimit="10" x1="275.1" y1="383.5" x2="287.1" y2="398.6"/>
	<line fill="none" stroke="#000000" stroke-width="4.5" stroke-miterlimit="10" x1="360.2" y1="383.5" x2="348" y2="400.9"/>
	<line fill="none" stroke="#000000" stroke-width="4.5" stroke-miterlimit="10" x1="355.7" y1="506.5" x2="346.3" y2="485.9"/>
	<line fill="none" stroke="#000000" stroke-width="4.5" stroke-miterlimit="10" x1="360.2" y1="374.7" x2="277.4" y2="374.7"/>
</g>
</svg>
