<?xml version="1.0" encoding="utf-8"?>
<!-- Generator: Adobe Illustrator 18.0.0, SVG Export Plug-In . SVG Version: 6.00 Build 0)  -->
<!DOCTYPE svg PUBLIC "-//W3C//DTD SVG 1.1//EN" "http://www.w3.org/Graphics/SVG/1.1/DTD/svg11.dtd">
<svg version="1.1"
	 id="svg2" inkscape:version="0.48.4 r9939" sodipodi:docname="6.2014_02_16_18_28_07.2.svg" xmlns:sodipodi="http://sodipodi.sourceforge.net/DTD/sodipodi-0.dtd" xmlns:dc="http://purl.org/dc/elements/1.1/" xmlns:cc="http://creativecommons.org/ns#" xmlns:inkscape="http://www.inkscape.org/namespaces/inkscape" xmlns:svg="http://www.w3.org/2000/svg" xmlns:rdf="http://www.w3.org/1999/02/22-rdf-syntax-ns#"
	 xmlns="http://www.w3.org/2000/svg" xmlns:xlink="http://www.w3.org/1999/xlink" x="0px" y="0px" viewBox="75.3 299.7 448.7 229.3"
	 enable-background="new 75.3 299.7 448.7 229.3" xml:space="preserve">
<path fill="#FFFFFF" stroke="#000000" stroke-width="8" stroke-miterlimit="10" d="M499.7,525H99.6c-11.2,0-20.3-9.2-20.3-20.3V324
	c0-11.2,9.2-20.3,20.3-20.3h400.2c11.2,0,20.3,9.2,20.3,20.3v180.7C520,515.9,510.8,525,499.7,525z"/>
<path d="M250,525H99.6c-11.2,0-20.3-9.2-20.3-20.3V324c0-11.2,9.2-20.3,20.3-20.3H250C250,322.2,250,488.8,250,525z"/>
<g>
	<path fill="#FFFFFF" stroke="#000000" stroke-width="4.5" stroke-miterlimit="10" d="M216.4,503.6l-48.3-48.3
		c-1.7-1.7-2-4.4-0.6-6.4l10.7-15.4c0.2-0.3,0.4-0.5,0.6-0.7l70.9-70.9c0.1-0.1,0.2-0.1,0.2-0.2l46.6-41.1c2-1.8,5-1.7,6.9,0.2
		l47.6,47.6c1.9,1.9,2,4.9,0.2,6.9L310,421.8c-0.1,0.1-0.1,0.2-0.2,0.2l-70.9,70.9c-0.2,0.2-0.4,0.4-0.7,0.6l-15.4,10.7
		C220.8,505.5,218.1,505.3,216.4,503.6z"/>
	<path fill="none" stroke="#000000" stroke-width="4.5" stroke-miterlimit="10" d="M188.5,439.9l56.3-56.3c1.8-1.8,4.8-1.8,6.6,0
		l36.5,36.5c1.8,1.8,1.8,4.8,0,6.6l-56.3,56.3c-1.8,1.8-4.8,1.8-6.6,0l-36.5-36.5C186.7,444.7,186.7,441.8,188.5,439.9z"/>
	<line fill="none" stroke="#000000" stroke-width="4.5" stroke-miterlimit="10" x1="165.9" y1="452" x2="187.8" y2="444.1"/>
	<line fill="none" stroke="#000000" stroke-width="4.5" stroke-miterlimit="10" x1="249.7" y1="361.7" x2="247.5" y2="380.9"/>
	<line fill="none" stroke="#000000" stroke-width="4.5" stroke-miterlimit="10" x1="309.9" y1="421.9" x2="288.9" y2="425.6"/>
	<line fill="none" stroke="#000000" stroke-width="4.5" stroke-miterlimit="10" x1="219.7" y1="505.7" x2="227.6" y2="484.4"/>
	<line fill="none" stroke="#000000" stroke-width="4.5" stroke-miterlimit="10" x1="316.1" y1="415.7" x2="257.6" y2="357.2"/>
</g>
</svg>
