<?xml version="1.0" encoding="utf-8"?>
<!-- Generator: Adobe Illustrator 18.0.0, SVG Export Plug-In . SVG Version: 6.00 Build 0)  -->
<!DOCTYPE svg PUBLIC "-//W3C//DTD SVG 1.1//EN" "http://www.w3.org/Graphics/SVG/1.1/DTD/svg11.dtd">
<svg version="1.1"
	 id="svg2" inkscape:version="0.48.4 r9939" sodipodi:docname="6.2014_02_16_18_28_07.2.svg" xmlns:sodipodi="http://sodipodi.sourceforge.net/DTD/sodipodi-0.dtd" xmlns:dc="http://purl.org/dc/elements/1.1/" xmlns:cc="http://creativecommons.org/ns#" xmlns:inkscape="http://www.inkscape.org/namespaces/inkscape" xmlns:svg="http://www.w3.org/2000/svg" xmlns:rdf="http://www.w3.org/1999/02/22-rdf-syntax-ns#"
	 xmlns="http://www.w3.org/2000/svg" xmlns:xlink="http://www.w3.org/1999/xlink" x="0px" y="0px" viewBox="4.4 205.3 954.7 402.5"
	 enable-background="new 4.4 205.3 954.7 402.5" xml:space="preserve">
<path fill="#FFFFFF" stroke="#000000" stroke-width="8" stroke-miterlimit="10" d="M934.9,603.9H28.7c-11.2,0-20.3-9.2-20.3-20.3
	V229.6c0-11.2,9.2-20.3,20.3-20.3h906.2c11.2,0,20.3,9.2,20.3,20.3v353.9C955.2,594.8,945.9,603.9,934.9,603.9z"/>
<circle fill="#FFFFFF" stroke="#000000" stroke-width="6" stroke-miterlimit="10" cx="195.8" cy="408" r="114.7"/>
<g>
	<path d="M165.9,466.5h-14.6v-92.9c-3.5,3.4-8.1,6.7-13.8,10.1s-10.9,5.9-15.4,7.5v-14.1c8.2-3.9,15.3-8.6,21.5-13.9
		c6-5.5,10.4-10.7,12.9-15.9h9.4V466.5L165.9,466.5z"/>
	<path d="M190.7,408c0-14.1,1.5-25.3,4.4-33.9c2.9-8.6,7.2-15.1,12.9-19.8s12.9-7,21.5-7c6.4,0,11.9,1.3,16.8,3.9
		c4.9,2.5,8.7,6.2,11.9,11.1c3.2,4.9,5.5,10.7,7.4,17.6c1.8,6.9,2.7,16.3,2.7,28c0,13.9-1.5,25.2-4.4,33.7
		c-2.9,8.6-7.2,15.3-12.9,19.8c-5.7,4.7-12.9,7-21.6,7c-11.4,0-20.5-4-27-12.2C194.6,446.4,190.7,430.3,190.7,408z M205.7,408
		c0,19.5,2.3,32.5,6.9,38.9c4.5,6.4,10.2,9.7,16.9,9.7c6.7,0,12.4-3.2,16.9-9.7c4.5-6.5,6.9-19.5,6.9-38.9c0-19.6-2.3-32.5-6.9-38.9
		c-4.5-6.4-10.2-9.6-17.1-9.6c-6.7,0-12.1,2.9-16.1,8.6C208.2,375.1,205.7,388.3,205.7,408z"/>
</g>
<circle fill="#FFFFFF" stroke="#000000" stroke-width="6" stroke-miterlimit="10" cx="433.3" cy="403.4" r="136.4"/>
<circle fill="#FFFFFF" stroke="#000000" stroke-width="6" stroke-miterlimit="10" cx="716.3" cy="403.4" r="163.6"/>
<g>
	<path d="M426,453.3v16.5h-92.2c-0.1-4.1,0.6-8.2,1.9-11.9c2.4-6.2,6.1-12.4,11.3-18.5c5.1-6.1,12.6-13.1,22.4-21.2
		c15.2-12.4,25.4-22.3,30.7-29.6c5.4-7.3,8-14.1,8-20.6c0-6.8-2.5-12.6-7.3-17.1c-4.8-4.7-11.2-7.1-18.9-7.1
		c-8.3,0-14.8,2.5-19.8,7.5c-5,5-7.5,11.8-7.5,20.6l-17.6-1.8c1.2-13.1,5.8-23.1,13.6-30c7.9-6.9,18.4-10.4,31.7-10.4
		c13.4,0,24.1,3.7,31.8,11.2c7.7,7.5,11.8,16.6,11.8,27.7c0,5.5-1.1,11.1-3.5,16.5c-2.4,5.4-6.1,11.1-11.3,17
		c-5.3,5.9-14.1,14.1-26.4,24.6c-10.2,8.6-16.9,14.5-19.8,17.6c-2.9,3-5.4,6.2-7.2,9.3H426V453.3z"/>
	<path d="M444.4,401c0-16.5,1.7-29.7,5.1-39.8c3.5-10.1,8.4-17.8,15.1-23.2c6.6-5.4,15.1-8.2,25.3-8.2c7.5,0,14.1,1.5,19.8,4.6
		c5.7,3,10.4,7.3,14,13c3.7,5.7,6.6,12.6,8.7,20.7c2.1,8.2,3.2,19.2,3.2,33c0,16.3-1.7,29.6-5,39.7c-3.3,10.1-8.4,17.8-15.1,23.4
		c-6.6,5.5-15.2,8.3-25.4,8.3c-13.4,0-24.1-4.8-31.7-14.5C448.9,446.1,444.4,427.1,444.4,401z M461.9,401c0,23,2.6,38.2,8,45.8
		s12,11.3,19.9,11.3c7.9,0,14.5-3.9,19.9-11.5s8-22.8,8-45.8s-2.6-38.3-8-45.8c-5.4-7.6-12-11.3-20-11.3c-7.9,0-14.1,3.3-18.8,10
		C464.8,362.3,461.9,378,461.9,401z"/>
</g>
<g>
	<path d="M590.1,445.6l23.5-2c1.7,11.4,5.8,20,12.1,25.8c6.3,5.8,14,8.6,22.9,8.6c10.8,0,19.9-4.1,27.3-12.2
		c7.4-8.1,11.2-18.9,11.2-32.3c0-12.7-3.6-22.8-10.7-30.2c-7.2-7.4-16.5-11-28.1-11c-7.2,0-13.7,1.6-19.5,4.9
		c-5.8,3.3-10.3,7.5-13.7,12.7l-21-2.7l17.6-93.5h90.5v21.3h-72.6l-9.8,48.9c10.9-7.6,22.4-11.4,34.4-11.4
		c15.9,0,29.3,5.5,40.2,16.5c10.9,11,16.4,25.2,16.4,42.4c0,16.5-4.8,30.7-14.4,42.7c-11.7,14.7-27.6,22.1-47.8,22.1
		c-16.5,0-30.1-4.6-40.5-13.9C597.6,473.2,591.6,460.9,590.1,445.6z"/>
	<path d="M731.5,403.5c0-21.5,2.2-38.8,6.6-51.9c4.4-13.1,11-23.2,19.7-30.3c8.7-7.1,19.7-10.7,33-10.7c9.8,0,18.3,2,25.7,5.9
		c7.4,3.9,13.4,9.6,18.2,17c4.8,7.4,8.6,16.4,11.3,27.1c2.7,10.6,4.1,25,4.1,43c0,21.3-2.2,38.6-6.6,51.7
		c-4.4,13.1-10.9,23.3-19.7,30.4c-8.7,7.2-19.8,10.7-33.1,10.7c-17.5,0-31.3-6.3-41.3-18.9C737.5,462.3,731.5,437.7,731.5,403.5z
		 M754.5,403.5c0,29.9,3.5,49.7,10.5,59.6c7,9.9,15.6,14.8,25.9,14.8c10.3,0,18.9-5,25.9-14.9c7-9.9,10.5-29.8,10.5-59.6
		c0-30-3.5-49.8-10.5-59.7c-7-9.8-15.7-14.8-26.1-14.8c-10.3,0-18.5,4.3-24.6,13C758.3,353.1,754.5,373.6,754.5,403.5z"/>
</g>
</svg>
