<?xml version="1.0" encoding="utf-8"?>
<!-- Generator: Adobe Illustrator 18.0.0, SVG Export Plug-In . SVG Version: 6.00 Build 0)  -->
<!DOCTYPE svg PUBLIC "-//W3C//DTD SVG 1.1//EN" "http://www.w3.org/Graphics/SVG/1.1/DTD/svg11.dtd">
<svg version="1.1"
	 id="svg2" sodipodi:docname="2.7.svg" inkscape:version="0.48.4 r9939" xmlns:inkscape="http://www.inkscape.org/namespaces/inkscape" xmlns:svg="http://www.w3.org/2000/svg" xmlns:dc="http://purl.org/dc/elements/1.1/" xmlns:rdf="http://www.w3.org/1999/02/22-rdf-syntax-ns#" xmlns:cc="http://creativecommons.org/ns#" xmlns:sodipodi="http://sodipodi.sourceforge.net/DTD/sodipodi-0.dtd"
	 xmlns="http://www.w3.org/2000/svg" xmlns:xlink="http://www.w3.org/1999/xlink" x="0px" y="0px" viewBox="0 0 811.3 811.3"
	 enable-background="new 0 0 811.3 811.3" xml:space="preserve">
<path id="rect5802_1_" fill="#FFFFFF" d="M21,391L392,20c7.6-7.6,19.8-7.6,27.4,0l371,371c7.6,7.6,7.6,19.8,0,27.4l-371,371
	c-7.6,7.6-19.8,7.6-27.4,0l-371-371C13.5,410.8,13.5,398.5,21,391z"/>
<path id="rect5810" inkscape:connector-curvature="0" d="M20.3,380.9c-13.7,13.7-13.7,35.8,0,49.5L380.9,791
	c13.7,13.7,35.8,13.7,49.5,0L791,430.4c13.7-13.7,13.7-35.8,0-49.5L430.4,20.3c-13.7-13.7-35.8-13.7-49.5,0L20.3,380.9z M27.4,388
	L388,27.4c9.8-9.8,25.6-9.8,35.4,0L784,388c9.8,9.8,9.8,25.6,0,35.4L423.3,784c-9.8,9.8-25.6,9.8-35.4,0L27.4,423.4
	C17.6,413.6,17.6,397.8,27.4,388z"/>
<path id="rect5814" inkscape:connector-curvature="0" d="M165.2,373.9c-17.6,17.6-17.6,46,0,63.6l208.6,208.6
	c17.6,17.6,46,17.6,63.6,0l208.6-208.6c17.6-17.6,17.6-46,0-63.6L437.5,165.3c-17.6-17.6-46-17.6-63.6,0L165.2,373.9z M172.3,380.9
	l208.6-208.6c13.7-13.7,35.8-13.7,49.5,0L639,380.9c13.7,13.7,13.7,35.8,0,49.5L430.4,639c-13.7,13.7-35.8,13.7-49.5,0L172.3,430.4
	C158.6,416.7,158.6,394.6,172.3,380.9L172.3,380.9z"/>
<path id="rect5802" fill="#FFCC00" d="M172.3,380.9l208.6-208.6c13.7-13.7,35.8-13.7,49.5,0L639,380.9c13.7,13.7,13.7,35.8,0,49.5
	L430.4,639c-13.7,13.7-35.8,13.7-49.5,0L172.3,430.4C158.7,416.8,158.7,394.6,172.3,380.9z"/>
</svg>
