<?xml version="1.0" encoding="utf-8"?>
<!-- Generator: Adobe Illustrator 18.0.0, SVG Export Plug-In . SVG Version: 6.00 Build 0)  -->
<!DOCTYPE svg PUBLIC "-//W3C//DTD SVG 1.1//EN" "http://www.w3.org/Graphics/SVG/1.1/DTD/svg11.dtd">
<svg version="1.1"
	 id="svg2" sodipodi:docname="3.17.1.svg" inkscape:version="0.48.4 r9939" xmlns:inkscape="http://www.inkscape.org/namespaces/inkscape" xmlns:svg="http://www.w3.org/2000/svg" xmlns:dc="http://purl.org/dc/elements/1.1/" xmlns:rdf="http://www.w3.org/1999/02/22-rdf-syntax-ns#" xmlns:cc="http://creativecommons.org/ns#" xmlns:sodipodi="http://sodipodi.sourceforge.net/DTD/sodipodi-0.dtd"
	 xmlns="http://www.w3.org/2000/svg" xmlns:xlink="http://www.w3.org/1999/xlink" x="0px" y="0px" viewBox="0 0 700 700"
	 enable-background="new 0 0 700 700" xml:space="preserve">
<path id="path12442" sodipodi:type="arc" sodipodi:ry="93.338097" sodipodi:cx="-321.58774" sodipodi:cy="803.42432" sodipodi:rx="122.47533" fill="#FFFFFF" stroke="#000000" stroke-width="2" d="
	M699,350c0,192.7-156.3,349-349,349S1,542.7,1,350S157.3,1,350,1S699,157.3,699,350z"/>
<path id="path8171" inkscape:connector-curvature="0" fill="#FF0000" d="M350,10C162.2,10,10,162.2,10,350s152.2,340,340,340
	s340-152.2,340-340S537.8,10,350,10L350,10z M350,68.9c155.3,0,281.1,125.9,281.1,281.1S505.3,631.1,350,631.1S68.9,505.3,68.9,350
	S194.7,68.9,350,68.9L350,68.9z"/>
</svg>
