<?xml version="1.0" encoding="utf-8"?>
<!-- Generator: Adobe Illustrator 18.0.0, SVG Export Plug-In . SVG Version: 6.00 Build 0)  -->
<!DOCTYPE svg PUBLIC "-//W3C//DTD SVG 1.1//EN" "http://www.w3.org/Graphics/SVG/1.1/DTD/svg11.dtd">
<svg version="1.1"
	 id="svg2" sodipodi:docname="5.5.svg" inkscape:version="0.48.4 r9939" xmlns:dc="http://purl.org/dc/elements/1.1/" xmlns:inkscape="http://www.inkscape.org/namespaces/inkscape" xmlns:cc="http://creativecommons.org/ns#" xmlns:rdf="http://www.w3.org/1999/02/22-rdf-syntax-ns#" xmlns:svg="http://www.w3.org/2000/svg" xmlns:sodipodi="http://sodipodi.sourceforge.net/DTD/sodipodi-0.dtd"
	 xmlns="http://www.w3.org/2000/svg" xmlns:xlink="http://www.w3.org/1999/xlink" x="0px" y="0px" viewBox="974.8 -3.1 566.1 566.1"
	 enable-background="new 974.8 -3.1 566.1 566.1" xml:space="preserve">
<path fill="#FFFFFF" stroke="#000000" stroke-width="8" stroke-miterlimit="10" d="M1362.5,560.2h-211.1
	c-42.1,0-76.6-34.4-76.6-76.6V77.5c0-42.1,34.4-76.6,76.6-76.6h211.1c42.1,0,76.6,34.4,76.6,76.6v406.1
	C1439,525.7,1404.6,560.2,1362.5,560.2z"/>
<path fill="#0D69E1" d="M1335.2,515.6h-155.4c-42.1,0-76.6-34.4-76.6-76.6V120.9c0-42.1,34.4-76.6,76.6-76.6h155.4
	c42.1,0,76.6,34.4,76.6,76.6V439C1411.8,481.1,1377.3,515.6,1335.2,515.6z"/>
<path fill="#FFFFFF" d="M1340.1,422.4h-164.5c-15.1,0-27.4-12.3-27.4-27.4V165c0-15.1,12.3-27.4,27.4-27.4h164.5
	c15.1,0,27.4,12.3,27.4,27.4v229.9C1367.6,410,1355.2,422.4,1340.1,422.4z"/>
</svg>
